G04 (created by PCBNEW-RS274X (2011-07-19)-testing) date Mon 24 Oct 2011 06:07:59 PM PDT*
G01*
G70*
G90*
%MOIN*%
G04 Gerber Fmt 3.4, Leading zero omitted, Abs format*
%FSLAX34Y34*%
G04 APERTURE LIST*
%ADD10C,0.006000*%
%ADD11C,0.012000*%
%ADD12C,0.005000*%
%ADD13C,0.015000*%
G04 APERTURE END LIST*
G54D10*
G54D11*
X56043Y-29324D02*
X56043Y-28524D01*
X56443Y-28524D02*
X56557Y-28524D01*
X56615Y-28562D01*
X56672Y-28638D01*
X56700Y-28790D01*
X56700Y-29057D01*
X56672Y-29210D01*
X56615Y-29286D01*
X56557Y-29324D01*
X56443Y-29324D01*
X56386Y-29286D01*
X56329Y-29210D01*
X56300Y-29057D01*
X56300Y-28790D01*
X56329Y-28638D01*
X56386Y-28562D01*
X56443Y-28524D01*
X57758Y-29324D02*
X57558Y-28943D01*
X57415Y-29324D02*
X57415Y-28524D01*
X57643Y-28524D01*
X57701Y-28562D01*
X57729Y-28600D01*
X57758Y-28676D01*
X57758Y-28790D01*
X57729Y-28867D01*
X57701Y-28905D01*
X57643Y-28943D01*
X57415Y-28943D01*
X58101Y-29324D02*
X58043Y-29286D01*
X58015Y-29248D01*
X57986Y-29171D01*
X57986Y-28943D01*
X58015Y-28867D01*
X58043Y-28829D01*
X58101Y-28790D01*
X58186Y-28790D01*
X58243Y-28829D01*
X58272Y-28867D01*
X58301Y-28943D01*
X58301Y-29171D01*
X58272Y-29248D01*
X58243Y-29286D01*
X58186Y-29324D01*
X58101Y-29324D01*
X58815Y-29324D02*
X58815Y-28524D01*
X58815Y-29286D02*
X58758Y-29324D01*
X58644Y-29324D01*
X58586Y-29286D01*
X58558Y-29248D01*
X58529Y-29171D01*
X58529Y-28943D01*
X58558Y-28867D01*
X58586Y-28829D01*
X58644Y-28790D01*
X58758Y-28790D01*
X58815Y-28829D01*
X59329Y-29286D02*
X59272Y-29324D01*
X59158Y-29324D01*
X59101Y-29286D01*
X59072Y-29210D01*
X59072Y-28905D01*
X59101Y-28829D01*
X59158Y-28790D01*
X59272Y-28790D01*
X59329Y-28829D01*
X59358Y-28905D01*
X59358Y-28981D01*
X59072Y-29057D01*
X59701Y-29324D02*
X59643Y-29286D01*
X59615Y-29248D01*
X59586Y-29171D01*
X59586Y-28943D01*
X59615Y-28867D01*
X59643Y-28829D01*
X59701Y-28790D01*
X59786Y-28790D01*
X59843Y-28829D01*
X59872Y-28867D01*
X59901Y-28943D01*
X59901Y-29171D01*
X59872Y-29248D01*
X59843Y-29286D01*
X59786Y-29324D01*
X59701Y-29324D01*
X60615Y-29324D02*
X60615Y-28524D01*
X60901Y-28790D02*
X60901Y-29324D01*
X60901Y-28867D02*
X60929Y-28829D01*
X60987Y-28790D01*
X61072Y-28790D01*
X61129Y-28829D01*
X61158Y-28905D01*
X61158Y-29324D01*
X61701Y-29286D02*
X61644Y-29324D01*
X61530Y-29324D01*
X61472Y-29286D01*
X61444Y-29248D01*
X61415Y-29171D01*
X61415Y-28943D01*
X61444Y-28867D01*
X61472Y-28829D01*
X61530Y-28790D01*
X61644Y-28790D01*
X61701Y-28829D01*
X61958Y-29248D02*
X61986Y-29286D01*
X61958Y-29324D01*
X61929Y-29286D01*
X61958Y-29248D01*
X61958Y-29324D01*
X54701Y-21324D02*
X54501Y-20943D01*
X54358Y-21324D02*
X54358Y-20524D01*
X54586Y-20524D01*
X54644Y-20562D01*
X54672Y-20600D01*
X54701Y-20676D01*
X54701Y-20790D01*
X54672Y-20867D01*
X54644Y-20905D01*
X54586Y-20943D01*
X54358Y-20943D01*
X55272Y-20562D02*
X55215Y-20524D01*
X55129Y-20524D01*
X55044Y-20562D01*
X54986Y-20638D01*
X54958Y-20714D01*
X54929Y-20867D01*
X54929Y-20981D01*
X54958Y-21133D01*
X54986Y-21210D01*
X55044Y-21286D01*
X55129Y-21324D01*
X55186Y-21324D01*
X55272Y-21286D01*
X55301Y-21248D01*
X55301Y-20981D01*
X55186Y-20981D01*
X55758Y-20905D02*
X55844Y-20943D01*
X55872Y-20981D01*
X55901Y-21057D01*
X55901Y-21171D01*
X55872Y-21248D01*
X55844Y-21286D01*
X55786Y-21324D01*
X55558Y-21324D01*
X55558Y-20524D01*
X55758Y-20524D01*
X55815Y-20562D01*
X55844Y-20600D01*
X55872Y-20676D01*
X55872Y-20752D01*
X55844Y-20829D01*
X55815Y-20867D01*
X55758Y-20905D01*
X55558Y-20905D01*
X56901Y-21324D02*
X56615Y-21324D01*
X56615Y-20524D01*
X57101Y-20905D02*
X57301Y-20905D01*
X57387Y-21324D02*
X57101Y-21324D01*
X57101Y-20524D01*
X57387Y-20524D01*
X57644Y-21324D02*
X57644Y-20524D01*
X57787Y-20524D01*
X57872Y-20562D01*
X57930Y-20638D01*
X57958Y-20714D01*
X57987Y-20867D01*
X57987Y-20981D01*
X57958Y-21133D01*
X57930Y-21210D01*
X57872Y-21286D01*
X57787Y-21324D01*
X57644Y-21324D01*
X58901Y-20905D02*
X58987Y-20943D01*
X59015Y-20981D01*
X59044Y-21057D01*
X59044Y-21171D01*
X59015Y-21248D01*
X58987Y-21286D01*
X58929Y-21324D01*
X58701Y-21324D01*
X58701Y-20524D01*
X58901Y-20524D01*
X58958Y-20562D01*
X58987Y-20600D01*
X59015Y-20676D01*
X59015Y-20752D01*
X58987Y-20829D01*
X58958Y-20867D01*
X58901Y-20905D01*
X58701Y-20905D01*
X59387Y-21324D02*
X59329Y-21286D01*
X59301Y-21248D01*
X59272Y-21171D01*
X59272Y-20943D01*
X59301Y-20867D01*
X59329Y-20829D01*
X59387Y-20790D01*
X59472Y-20790D01*
X59529Y-20829D01*
X59558Y-20867D01*
X59587Y-20943D01*
X59587Y-21171D01*
X59558Y-21248D01*
X59529Y-21286D01*
X59472Y-21324D01*
X59387Y-21324D01*
X60101Y-21324D02*
X60101Y-20905D01*
X60072Y-20829D01*
X60015Y-20790D01*
X59901Y-20790D01*
X59844Y-20829D01*
X60101Y-21286D02*
X60044Y-21324D01*
X59901Y-21324D01*
X59844Y-21286D01*
X59815Y-21210D01*
X59815Y-21133D01*
X59844Y-21057D01*
X59901Y-21019D01*
X60044Y-21019D01*
X60101Y-20981D01*
X60387Y-21324D02*
X60387Y-20790D01*
X60387Y-20943D02*
X60415Y-20867D01*
X60444Y-20829D01*
X60501Y-20790D01*
X60558Y-20790D01*
X61015Y-21324D02*
X61015Y-20524D01*
X61015Y-21286D02*
X60958Y-21324D01*
X60844Y-21324D01*
X60786Y-21286D01*
X60758Y-21248D01*
X60729Y-21171D01*
X60729Y-20943D01*
X60758Y-20867D01*
X60786Y-20829D01*
X60844Y-20790D01*
X60958Y-20790D01*
X61015Y-20829D01*
X61329Y-21286D02*
X61329Y-21324D01*
X61301Y-21400D01*
X61272Y-21438D01*
X61987Y-20790D02*
X62130Y-21324D01*
X62272Y-20790D01*
X62815Y-21324D02*
X62472Y-21324D01*
X62644Y-21324D02*
X62644Y-20524D01*
X62587Y-20638D01*
X62529Y-20714D01*
X62472Y-20752D01*
X63072Y-21248D02*
X63100Y-21286D01*
X63072Y-21324D01*
X63043Y-21286D01*
X63072Y-21248D01*
X63072Y-21324D01*
X63472Y-20524D02*
X63529Y-20524D01*
X63586Y-20562D01*
X63615Y-20600D01*
X63644Y-20676D01*
X63672Y-20829D01*
X63672Y-21019D01*
X63644Y-21171D01*
X63615Y-21248D01*
X63586Y-21286D01*
X63529Y-21324D01*
X63472Y-21324D01*
X63415Y-21286D01*
X63386Y-21248D01*
X63358Y-21171D01*
X63329Y-21019D01*
X63329Y-20829D01*
X63358Y-20676D01*
X63386Y-20600D01*
X63415Y-20562D01*
X63472Y-20524D01*
G54D12*
X53900Y-24050D02*
X53899Y-24059D01*
X53896Y-24069D01*
X53891Y-24077D01*
X53885Y-24085D01*
X53877Y-24091D01*
X53869Y-24096D01*
X53860Y-24098D01*
X53850Y-24099D01*
X53841Y-24099D01*
X53832Y-24096D01*
X53823Y-24091D01*
X53816Y-24085D01*
X53809Y-24078D01*
X53805Y-24069D01*
X53802Y-24060D01*
X53801Y-24050D01*
X53801Y-24041D01*
X53804Y-24032D01*
X53808Y-24023D01*
X53815Y-24016D01*
X53822Y-24009D01*
X53830Y-24005D01*
X53840Y-24002D01*
X53849Y-24001D01*
X53858Y-24001D01*
X53868Y-24004D01*
X53876Y-24008D01*
X53884Y-24014D01*
X53890Y-24022D01*
X53895Y-24030D01*
X53898Y-24039D01*
X53899Y-24049D01*
X53900Y-24050D01*
X54300Y-24050D02*
X53900Y-24050D01*
X53900Y-24050D02*
X53900Y-23450D01*
X53900Y-23450D02*
X54300Y-23450D01*
X54700Y-23450D02*
X55100Y-23450D01*
X55100Y-23450D02*
X55100Y-24050D01*
X55100Y-24050D02*
X54700Y-24050D01*
X53900Y-25300D02*
X53899Y-25309D01*
X53896Y-25319D01*
X53891Y-25327D01*
X53885Y-25335D01*
X53877Y-25341D01*
X53869Y-25346D01*
X53860Y-25348D01*
X53850Y-25349D01*
X53841Y-25349D01*
X53832Y-25346D01*
X53823Y-25341D01*
X53816Y-25335D01*
X53809Y-25328D01*
X53805Y-25319D01*
X53802Y-25310D01*
X53801Y-25300D01*
X53801Y-25291D01*
X53804Y-25282D01*
X53808Y-25273D01*
X53815Y-25266D01*
X53822Y-25259D01*
X53830Y-25255D01*
X53840Y-25252D01*
X53849Y-25251D01*
X53858Y-25251D01*
X53868Y-25254D01*
X53876Y-25258D01*
X53884Y-25264D01*
X53890Y-25272D01*
X53895Y-25280D01*
X53898Y-25289D01*
X53899Y-25299D01*
X53900Y-25300D01*
X54300Y-25300D02*
X53900Y-25300D01*
X53900Y-25300D02*
X53900Y-24700D01*
X53900Y-24700D02*
X54300Y-24700D01*
X54700Y-24700D02*
X55100Y-24700D01*
X55100Y-24700D02*
X55100Y-25300D01*
X55100Y-25300D02*
X54700Y-25300D01*
X53900Y-26550D02*
X53899Y-26559D01*
X53896Y-26569D01*
X53891Y-26577D01*
X53885Y-26585D01*
X53877Y-26591D01*
X53869Y-26596D01*
X53860Y-26598D01*
X53850Y-26599D01*
X53841Y-26599D01*
X53832Y-26596D01*
X53823Y-26591D01*
X53816Y-26585D01*
X53809Y-26578D01*
X53805Y-26569D01*
X53802Y-26560D01*
X53801Y-26550D01*
X53801Y-26541D01*
X53804Y-26532D01*
X53808Y-26523D01*
X53815Y-26516D01*
X53822Y-26509D01*
X53830Y-26505D01*
X53840Y-26502D01*
X53849Y-26501D01*
X53858Y-26501D01*
X53868Y-26504D01*
X53876Y-26508D01*
X53884Y-26514D01*
X53890Y-26522D01*
X53895Y-26530D01*
X53898Y-26539D01*
X53899Y-26549D01*
X53900Y-26550D01*
X54300Y-26550D02*
X53900Y-26550D01*
X53900Y-26550D02*
X53900Y-25950D01*
X53900Y-25950D02*
X54300Y-25950D01*
X54700Y-25950D02*
X55100Y-25950D01*
X55100Y-25950D02*
X55100Y-26550D01*
X55100Y-26550D02*
X54700Y-26550D01*
G54D13*
X64750Y-27750D02*
X67500Y-27750D01*
X64750Y-27750D02*
X64750Y-25250D01*
X64750Y-25250D02*
X67500Y-25250D01*
X67500Y-27750D02*
X67500Y-25250D01*
X64750Y-24750D02*
X67500Y-24750D01*
X64750Y-24750D02*
X64750Y-22250D01*
X64750Y-22250D02*
X67500Y-22250D01*
X67500Y-24750D02*
X67500Y-22250D01*
X59591Y-25984D02*
X58409Y-25984D01*
X58409Y-25984D02*
X58409Y-24213D01*
X58409Y-24213D02*
X58606Y-24016D01*
X58606Y-24016D02*
X59591Y-24016D01*
X59591Y-24016D02*
X59591Y-25984D01*
G54D12*
X53208Y-23851D02*
X53125Y-23732D01*
X53066Y-23851D02*
X53066Y-23601D01*
X53161Y-23601D01*
X53185Y-23613D01*
X53196Y-23625D01*
X53208Y-23649D01*
X53208Y-23685D01*
X53196Y-23708D01*
X53185Y-23720D01*
X53161Y-23732D01*
X53066Y-23732D01*
X53446Y-23851D02*
X53304Y-23851D01*
X53375Y-23851D02*
X53375Y-23601D01*
X53351Y-23637D01*
X53327Y-23661D01*
X53304Y-23673D01*
X53208Y-25101D02*
X53125Y-24982D01*
X53066Y-25101D02*
X53066Y-24851D01*
X53161Y-24851D01*
X53185Y-24863D01*
X53196Y-24875D01*
X53208Y-24899D01*
X53208Y-24935D01*
X53196Y-24958D01*
X53185Y-24970D01*
X53161Y-24982D01*
X53066Y-24982D01*
X53304Y-24875D02*
X53316Y-24863D01*
X53339Y-24851D01*
X53399Y-24851D01*
X53423Y-24863D01*
X53435Y-24875D01*
X53446Y-24899D01*
X53446Y-24923D01*
X53435Y-24958D01*
X53292Y-25101D01*
X53446Y-25101D01*
X53208Y-26351D02*
X53125Y-26232D01*
X53066Y-26351D02*
X53066Y-26101D01*
X53161Y-26101D01*
X53185Y-26113D01*
X53196Y-26125D01*
X53208Y-26149D01*
X53208Y-26185D01*
X53196Y-26208D01*
X53185Y-26220D01*
X53161Y-26232D01*
X53066Y-26232D01*
X53292Y-26101D02*
X53446Y-26101D01*
X53363Y-26196D01*
X53399Y-26196D01*
X53423Y-26208D01*
X53435Y-26220D01*
X53446Y-26244D01*
X53446Y-26304D01*
X53435Y-26327D01*
X53423Y-26339D01*
X53399Y-26351D01*
X53327Y-26351D01*
X53304Y-26339D01*
X53292Y-26327D01*
G54D11*
X64243Y-26942D02*
X63643Y-26942D01*
X63643Y-26714D01*
X63671Y-26656D01*
X63700Y-26628D01*
X63757Y-26599D01*
X63843Y-26599D01*
X63900Y-26628D01*
X63929Y-26656D01*
X63957Y-26714D01*
X63957Y-26942D01*
X64243Y-26028D02*
X64243Y-26371D01*
X64243Y-26199D02*
X63643Y-26199D01*
X63729Y-26256D01*
X63786Y-26314D01*
X63814Y-26371D01*
X64243Y-23942D02*
X63643Y-23942D01*
X63643Y-23714D01*
X63671Y-23656D01*
X63700Y-23628D01*
X63757Y-23599D01*
X63843Y-23599D01*
X63900Y-23628D01*
X63929Y-23656D01*
X63957Y-23714D01*
X63957Y-23942D01*
X63700Y-23371D02*
X63671Y-23342D01*
X63643Y-23285D01*
X63643Y-23142D01*
X63671Y-23085D01*
X63700Y-23056D01*
X63757Y-23028D01*
X63814Y-23028D01*
X63900Y-23056D01*
X64243Y-23399D01*
X64243Y-23028D01*
X58543Y-22643D02*
X58543Y-23129D01*
X58571Y-23186D01*
X58600Y-23214D01*
X58657Y-23243D01*
X58771Y-23243D01*
X58829Y-23214D01*
X58857Y-23186D01*
X58886Y-23129D01*
X58886Y-22643D01*
X59486Y-23243D02*
X59143Y-23243D01*
X59315Y-23243D02*
X59315Y-22643D01*
X59258Y-22729D01*
X59200Y-22786D01*
X59143Y-22814D01*
M02*
