G04 (created by PCBNEW-RS274X (2011-07-19)-testing) date Mon 24 Oct 2011 06:07:59 PM PDT*
G01*
G70*
G90*
%MOIN*%
G04 Gerber Fmt 3.4, Leading zero omitted, Abs format*
%FSLAX34Y34*%
G04 APERTURE LIST*
%ADD10C,0.006000*%
%ADD11C,0.130000*%
%ADD12C,0.073000*%
%ADD13R,0.073000X0.073000*%
%ADD14C,0.053000*%
%ADD15C,0.010000*%
G04 APERTURE END LIST*
G54D10*
G54D11*
X67000Y-21000D03*
X51000Y-21000D03*
X51000Y-29000D03*
X67000Y-29000D03*
G54D12*
X66000Y-26000D03*
G54D13*
X66000Y-27000D03*
G54D14*
X67000Y-27000D03*
X67000Y-26000D03*
G54D12*
X66000Y-23000D03*
G54D13*
X66000Y-24000D03*
G54D14*
X67000Y-24000D03*
X67000Y-23000D03*
G54D10*
G36*
X67675Y-28402D02*
X67515Y-28242D01*
X67515Y-27103D01*
X67515Y-26898D01*
X67437Y-26709D01*
X67292Y-26564D01*
X67138Y-26499D01*
X67291Y-26437D01*
X67436Y-26292D01*
X67515Y-26103D01*
X67515Y-25898D01*
X67515Y-24103D01*
X67515Y-23898D01*
X67437Y-23709D01*
X67292Y-23564D01*
X67138Y-23499D01*
X67291Y-23437D01*
X67436Y-23292D01*
X67515Y-23103D01*
X67515Y-22898D01*
X67437Y-22709D01*
X67292Y-22564D01*
X67103Y-22485D01*
X66898Y-22485D01*
X66709Y-22563D01*
X66564Y-22708D01*
X66550Y-22741D01*
X66525Y-22680D01*
X66424Y-22646D01*
X66354Y-22716D01*
X66354Y-22576D01*
X66320Y-22475D01*
X66095Y-22393D01*
X65856Y-22403D01*
X65680Y-22475D01*
X65646Y-22576D01*
X66000Y-22929D01*
X66354Y-22576D01*
X66354Y-22716D01*
X66071Y-23000D01*
X66000Y-23071D01*
X65929Y-23000D01*
X65894Y-22965D01*
X65576Y-22646D01*
X65475Y-22680D01*
X65393Y-22905D01*
X65403Y-23144D01*
X65475Y-23320D01*
X65522Y-23336D01*
X65487Y-23372D01*
X65525Y-23410D01*
X65494Y-23424D01*
X65424Y-23494D01*
X65386Y-23585D01*
X65386Y-23684D01*
X65386Y-24414D01*
X65424Y-24506D01*
X65494Y-24576D01*
X65585Y-24614D01*
X65684Y-24614D01*
X66414Y-24614D01*
X66506Y-24576D01*
X66576Y-24506D01*
X66614Y-24415D01*
X66614Y-24342D01*
X66708Y-24436D01*
X66897Y-24515D01*
X67102Y-24515D01*
X67291Y-24437D01*
X67436Y-24292D01*
X67515Y-24103D01*
X67515Y-25898D01*
X67437Y-25709D01*
X67292Y-25564D01*
X67103Y-25485D01*
X66898Y-25485D01*
X66709Y-25563D01*
X66564Y-25708D01*
X66554Y-25731D01*
X66521Y-25652D01*
X66349Y-25479D01*
X66123Y-25385D01*
X65878Y-25385D01*
X65652Y-25479D01*
X65479Y-25651D01*
X65385Y-25877D01*
X65385Y-26122D01*
X65479Y-26348D01*
X65536Y-26406D01*
X65494Y-26424D01*
X65424Y-26494D01*
X65386Y-26585D01*
X65386Y-26684D01*
X65386Y-27414D01*
X65424Y-27506D01*
X65494Y-27576D01*
X65585Y-27614D01*
X65684Y-27614D01*
X66414Y-27614D01*
X66506Y-27576D01*
X66576Y-27506D01*
X66614Y-27415D01*
X66614Y-27342D01*
X66708Y-27436D01*
X66897Y-27515D01*
X67102Y-27515D01*
X67291Y-27437D01*
X67436Y-27292D01*
X67515Y-27103D01*
X67515Y-28242D01*
X67511Y-28238D01*
X67180Y-28100D01*
X66822Y-28100D01*
X66491Y-28237D01*
X66238Y-28489D01*
X66100Y-28820D01*
X66100Y-29178D01*
X66237Y-29509D01*
X66402Y-29675D01*
X51597Y-29675D01*
X51762Y-29511D01*
X51900Y-29180D01*
X51900Y-28822D01*
X51763Y-28491D01*
X51511Y-28238D01*
X51180Y-28100D01*
X50822Y-28100D01*
X50491Y-28237D01*
X50325Y-28402D01*
X50325Y-21597D01*
X50489Y-21762D01*
X50820Y-21900D01*
X51178Y-21900D01*
X51509Y-21763D01*
X51762Y-21511D01*
X51900Y-21180D01*
X51900Y-20822D01*
X51763Y-20491D01*
X51597Y-20325D01*
X66402Y-20325D01*
X66238Y-20489D01*
X66100Y-20820D01*
X66100Y-21178D01*
X66237Y-21509D01*
X66489Y-21762D01*
X66820Y-21900D01*
X67178Y-21900D01*
X67509Y-21763D01*
X67675Y-21597D01*
X67675Y-28402D01*
X67675Y-28402D01*
G37*
G54D15*
X67675Y-28402D02*
X67515Y-28242D01*
X67515Y-27103D01*
X67515Y-26898D01*
X67437Y-26709D01*
X67292Y-26564D01*
X67138Y-26499D01*
X67291Y-26437D01*
X67436Y-26292D01*
X67515Y-26103D01*
X67515Y-25898D01*
X67515Y-24103D01*
X67515Y-23898D01*
X67437Y-23709D01*
X67292Y-23564D01*
X67138Y-23499D01*
X67291Y-23437D01*
X67436Y-23292D01*
X67515Y-23103D01*
X67515Y-22898D01*
X67437Y-22709D01*
X67292Y-22564D01*
X67103Y-22485D01*
X66898Y-22485D01*
X66709Y-22563D01*
X66564Y-22708D01*
X66550Y-22741D01*
X66525Y-22680D01*
X66424Y-22646D01*
X66354Y-22716D01*
X66354Y-22576D01*
X66320Y-22475D01*
X66095Y-22393D01*
X65856Y-22403D01*
X65680Y-22475D01*
X65646Y-22576D01*
X66000Y-22929D01*
X66354Y-22576D01*
X66354Y-22716D01*
X66071Y-23000D01*
X66000Y-23071D01*
X65929Y-23000D01*
X65894Y-22965D01*
X65576Y-22646D01*
X65475Y-22680D01*
X65393Y-22905D01*
X65403Y-23144D01*
X65475Y-23320D01*
X65522Y-23336D01*
X65487Y-23372D01*
X65525Y-23410D01*
X65494Y-23424D01*
X65424Y-23494D01*
X65386Y-23585D01*
X65386Y-23684D01*
X65386Y-24414D01*
X65424Y-24506D01*
X65494Y-24576D01*
X65585Y-24614D01*
X65684Y-24614D01*
X66414Y-24614D01*
X66506Y-24576D01*
X66576Y-24506D01*
X66614Y-24415D01*
X66614Y-24342D01*
X66708Y-24436D01*
X66897Y-24515D01*
X67102Y-24515D01*
X67291Y-24437D01*
X67436Y-24292D01*
X67515Y-24103D01*
X67515Y-25898D01*
X67437Y-25709D01*
X67292Y-25564D01*
X67103Y-25485D01*
X66898Y-25485D01*
X66709Y-25563D01*
X66564Y-25708D01*
X66554Y-25731D01*
X66521Y-25652D01*
X66349Y-25479D01*
X66123Y-25385D01*
X65878Y-25385D01*
X65652Y-25479D01*
X65479Y-25651D01*
X65385Y-25877D01*
X65385Y-26122D01*
X65479Y-26348D01*
X65536Y-26406D01*
X65494Y-26424D01*
X65424Y-26494D01*
X65386Y-26585D01*
X65386Y-26684D01*
X65386Y-27414D01*
X65424Y-27506D01*
X65494Y-27576D01*
X65585Y-27614D01*
X65684Y-27614D01*
X66414Y-27614D01*
X66506Y-27576D01*
X66576Y-27506D01*
X66614Y-27415D01*
X66614Y-27342D01*
X66708Y-27436D01*
X66897Y-27515D01*
X67102Y-27515D01*
X67291Y-27437D01*
X67436Y-27292D01*
X67515Y-27103D01*
X67515Y-28242D01*
X67511Y-28238D01*
X67180Y-28100D01*
X66822Y-28100D01*
X66491Y-28237D01*
X66238Y-28489D01*
X66100Y-28820D01*
X66100Y-29178D01*
X66237Y-29509D01*
X66402Y-29675D01*
X51597Y-29675D01*
X51762Y-29511D01*
X51900Y-29180D01*
X51900Y-28822D01*
X51763Y-28491D01*
X51511Y-28238D01*
X51180Y-28100D01*
X50822Y-28100D01*
X50491Y-28237D01*
X50325Y-28402D01*
X50325Y-21597D01*
X50489Y-21762D01*
X50820Y-21900D01*
X51178Y-21900D01*
X51509Y-21763D01*
X51762Y-21511D01*
X51900Y-21180D01*
X51900Y-20822D01*
X51763Y-20491D01*
X51597Y-20325D01*
X66402Y-20325D01*
X66238Y-20489D01*
X66100Y-20820D01*
X66100Y-21178D01*
X66237Y-21509D01*
X66489Y-21762D01*
X66820Y-21900D01*
X67178Y-21900D01*
X67509Y-21763D01*
X67675Y-21597D01*
X67675Y-28402D01*
M02*
