G04 (created by PCBNEW-RS274X (2011-07-19)-testing) date Fri 10 Feb 2012 03:23:04 PM PST*
G01*
G70*
G90*
%MOIN*%
G04 Gerber Fmt 3.4, Leading zero omitted, Abs format*
%FSLAX34Y34*%
G04 APERTURE LIST*
%ADD10C,0.006000*%
%ADD11R,0.069000X0.060000*%
%ADD12C,0.069000*%
%ADD13R,0.070000X0.070000*%
%ADD14C,0.070000*%
%ADD15C,0.130000*%
%ADD16C,0.008000*%
%ADD17C,0.010000*%
G04 APERTURE END LIST*
G54D10*
G54D11*
X48300Y-32000D03*
G54D12*
X48300Y-33000D03*
X48300Y-34000D03*
X48300Y-35000D03*
X48300Y-36000D03*
X48300Y-37000D03*
X48300Y-38000D03*
X48300Y-39000D03*
X48300Y-40000D03*
X48300Y-41000D03*
X48300Y-42000D03*
X48300Y-43000D03*
X48300Y-44000D03*
X48300Y-45000D03*
X48300Y-46000D03*
X54300Y-46000D03*
X54300Y-45000D03*
X54300Y-44000D03*
X54300Y-43000D03*
X54300Y-42000D03*
X54300Y-41000D03*
X54300Y-40000D03*
X54300Y-39000D03*
X54300Y-38000D03*
X54300Y-37000D03*
X54300Y-36000D03*
X54300Y-35000D03*
X54300Y-34000D03*
X54300Y-33000D03*
X54300Y-32000D03*
G54D13*
X59000Y-37000D03*
G54D14*
X60000Y-37000D03*
X59000Y-38000D03*
X60000Y-38000D03*
X59000Y-39000D03*
X60000Y-39000D03*
X59000Y-40000D03*
X60000Y-40000D03*
X59000Y-41000D03*
X60000Y-41000D03*
G54D15*
X62000Y-31000D03*
X62000Y-47000D03*
X46000Y-47000D03*
X46000Y-31000D03*
G54D16*
X56507Y-35000D02*
X54300Y-35000D01*
X58507Y-37000D02*
X56507Y-35000D01*
X59000Y-37000D02*
X58507Y-37000D01*
X48800Y-42500D02*
X48300Y-43000D01*
X59571Y-42500D02*
X48800Y-42500D01*
X60790Y-41281D02*
X59571Y-42500D01*
X60790Y-39790D02*
X60790Y-41281D01*
X60000Y-39000D02*
X60790Y-39790D01*
X48800Y-41500D02*
X48300Y-42000D01*
X60310Y-41500D02*
X48800Y-41500D01*
X60508Y-41302D02*
X60310Y-41500D01*
X60508Y-40508D02*
X60508Y-41302D01*
X60000Y-40000D02*
X60508Y-40508D01*
X48800Y-43500D02*
X48300Y-44000D01*
X59281Y-43500D02*
X48800Y-43500D01*
X61051Y-41730D02*
X59281Y-43500D01*
X61051Y-39051D02*
X61051Y-41730D01*
X60000Y-38000D02*
X61051Y-39051D01*
X48800Y-38500D02*
X48300Y-38000D01*
X58500Y-38500D02*
X48800Y-38500D01*
X59000Y-39000D02*
X58500Y-38500D01*
X48800Y-39500D02*
X48300Y-39000D01*
X58500Y-39500D02*
X48800Y-39500D01*
X59000Y-40000D02*
X58500Y-39500D01*
X48800Y-40500D02*
X48300Y-41000D01*
X59500Y-40500D02*
X48800Y-40500D01*
X60000Y-41000D02*
X59500Y-40500D01*
G54D10*
G36*
X59153Y-38500D02*
X59031Y-38621D01*
X58838Y-38428D01*
X58843Y-38414D01*
X58535Y-38106D01*
X58500Y-38071D01*
X58429Y-38000D01*
X58500Y-37929D01*
X58571Y-38000D01*
X58606Y-38035D01*
X58914Y-38343D01*
X58984Y-38319D01*
X58992Y-38339D01*
X59153Y-38500D01*
X59153Y-38500D01*
G37*
G54D17*
X59153Y-38500D02*
X59031Y-38621D01*
X58838Y-38428D01*
X58843Y-38414D01*
X58535Y-38106D01*
X58500Y-38071D01*
X58429Y-38000D01*
X58500Y-37929D01*
X58571Y-38000D01*
X58606Y-38035D01*
X58914Y-38343D01*
X58984Y-38319D01*
X58992Y-38339D01*
X59153Y-38500D01*
G54D10*
G36*
X62675Y-46402D02*
X62511Y-46238D01*
X62180Y-46100D01*
X61822Y-46100D01*
X61491Y-46237D01*
X61341Y-46386D01*
X61341Y-41730D01*
X61341Y-39051D01*
X61319Y-38940D01*
X61256Y-38846D01*
X60205Y-37795D01*
X60111Y-37732D01*
X60030Y-37716D01*
X60008Y-37661D01*
X59847Y-37500D01*
X60008Y-37339D01*
X60099Y-37119D01*
X60099Y-36881D01*
X60008Y-36661D01*
X59839Y-36492D01*
X59619Y-36401D01*
X59381Y-36401D01*
X59161Y-36492D01*
X59085Y-36567D01*
X59061Y-36509D01*
X58991Y-36439D01*
X58900Y-36401D01*
X58801Y-36401D01*
X58318Y-36401D01*
X56712Y-34795D01*
X56618Y-34732D01*
X56507Y-34710D01*
X54522Y-34710D01*
X54504Y-34664D01*
X54340Y-34500D01*
X54503Y-34337D01*
X54594Y-34118D01*
X54594Y-33882D01*
X54594Y-32118D01*
X54594Y-31882D01*
X54504Y-31664D01*
X54337Y-31497D01*
X54118Y-31406D01*
X53882Y-31406D01*
X53664Y-31496D01*
X53497Y-31663D01*
X53406Y-31882D01*
X53406Y-32118D01*
X53496Y-32336D01*
X53663Y-32503D01*
X53685Y-32512D01*
X53661Y-32590D01*
X54000Y-32929D01*
X54339Y-32590D01*
X54314Y-32512D01*
X54336Y-32504D01*
X54503Y-32337D01*
X54594Y-32118D01*
X54594Y-33882D01*
X54588Y-33867D01*
X54588Y-33090D01*
X54578Y-32858D01*
X54508Y-32692D01*
X54410Y-32661D01*
X54071Y-33000D01*
X54410Y-33339D01*
X54508Y-33308D01*
X54588Y-33090D01*
X54588Y-33867D01*
X54504Y-33664D01*
X54337Y-33497D01*
X54314Y-33487D01*
X54339Y-33410D01*
X54000Y-33071D01*
X53929Y-33142D01*
X53929Y-33000D01*
X53590Y-32661D01*
X53492Y-32692D01*
X53412Y-32910D01*
X53422Y-33142D01*
X53492Y-33308D01*
X53590Y-33339D01*
X53929Y-33000D01*
X53929Y-33142D01*
X53661Y-33410D01*
X53685Y-33487D01*
X53664Y-33496D01*
X53497Y-33663D01*
X53406Y-33882D01*
X53406Y-34118D01*
X53496Y-34336D01*
X53660Y-34500D01*
X53497Y-34663D01*
X53406Y-34882D01*
X53406Y-35118D01*
X53496Y-35336D01*
X53660Y-35500D01*
X53497Y-35663D01*
X53406Y-35882D01*
X53406Y-36118D01*
X53496Y-36336D01*
X53660Y-36500D01*
X53497Y-36663D01*
X53406Y-36882D01*
X53406Y-37118D01*
X53496Y-37336D01*
X53660Y-37500D01*
X53497Y-37663D01*
X53406Y-37882D01*
X53406Y-38118D01*
X53443Y-38210D01*
X48920Y-38210D01*
X48594Y-37884D01*
X48594Y-37882D01*
X48504Y-37664D01*
X48340Y-37500D01*
X48503Y-37337D01*
X48594Y-37118D01*
X48594Y-36882D01*
X48504Y-36664D01*
X48340Y-36500D01*
X48503Y-36337D01*
X48594Y-36118D01*
X48594Y-35882D01*
X48504Y-35664D01*
X48340Y-35500D01*
X48503Y-35337D01*
X48594Y-35118D01*
X48594Y-34882D01*
X48504Y-34664D01*
X48340Y-34500D01*
X48503Y-34337D01*
X48594Y-34118D01*
X48594Y-33882D01*
X48504Y-33664D01*
X48340Y-33500D01*
X48503Y-33337D01*
X48594Y-33118D01*
X48594Y-32882D01*
X48504Y-32664D01*
X48389Y-32549D01*
X48394Y-32549D01*
X48486Y-32511D01*
X48556Y-32441D01*
X48594Y-32350D01*
X48594Y-32251D01*
X48594Y-31651D01*
X48556Y-31559D01*
X48486Y-31489D01*
X48395Y-31451D01*
X48296Y-31451D01*
X47606Y-31451D01*
X47514Y-31489D01*
X47444Y-31559D01*
X47406Y-31650D01*
X47406Y-31749D01*
X47406Y-32349D01*
X47444Y-32441D01*
X47514Y-32511D01*
X47605Y-32549D01*
X47611Y-32549D01*
X47497Y-32663D01*
X47406Y-32882D01*
X47406Y-33118D01*
X47496Y-33336D01*
X47660Y-33500D01*
X47497Y-33663D01*
X47406Y-33882D01*
X47406Y-34118D01*
X47496Y-34336D01*
X47660Y-34500D01*
X47497Y-34663D01*
X47406Y-34882D01*
X47406Y-35118D01*
X47496Y-35336D01*
X47660Y-35500D01*
X47497Y-35663D01*
X47406Y-35882D01*
X47406Y-36118D01*
X47496Y-36336D01*
X47660Y-36500D01*
X47497Y-36663D01*
X47406Y-36882D01*
X47406Y-37118D01*
X47496Y-37336D01*
X47660Y-37500D01*
X47497Y-37663D01*
X47406Y-37882D01*
X47406Y-38118D01*
X47496Y-38336D01*
X47660Y-38500D01*
X47497Y-38663D01*
X47406Y-38882D01*
X47406Y-39118D01*
X47496Y-39336D01*
X47660Y-39500D01*
X47497Y-39663D01*
X47406Y-39882D01*
X47406Y-40118D01*
X47496Y-40336D01*
X47660Y-40500D01*
X47497Y-40663D01*
X47406Y-40882D01*
X47406Y-41118D01*
X47496Y-41336D01*
X47660Y-41500D01*
X47497Y-41663D01*
X47406Y-41882D01*
X47406Y-42118D01*
X47496Y-42336D01*
X47660Y-42500D01*
X47497Y-42663D01*
X47406Y-42882D01*
X47406Y-43118D01*
X47496Y-43336D01*
X47660Y-43500D01*
X47497Y-43663D01*
X47406Y-43882D01*
X47406Y-44118D01*
X47496Y-44336D01*
X47660Y-44500D01*
X47497Y-44663D01*
X47406Y-44882D01*
X47406Y-45118D01*
X47496Y-45336D01*
X47660Y-45500D01*
X47497Y-45663D01*
X47406Y-45882D01*
X47406Y-46118D01*
X47496Y-46336D01*
X47663Y-46503D01*
X47882Y-46594D01*
X48118Y-46594D01*
X48336Y-46504D01*
X48503Y-46337D01*
X48594Y-46118D01*
X48594Y-45882D01*
X48504Y-45664D01*
X48340Y-45500D01*
X48503Y-45337D01*
X48594Y-45118D01*
X48594Y-44882D01*
X48504Y-44664D01*
X48340Y-44500D01*
X48503Y-44337D01*
X48594Y-44118D01*
X48594Y-44116D01*
X48920Y-43790D01*
X53444Y-43790D01*
X53406Y-43882D01*
X53406Y-44118D01*
X53496Y-44336D01*
X53660Y-44500D01*
X53497Y-44663D01*
X53406Y-44882D01*
X53406Y-45118D01*
X53496Y-45336D01*
X53660Y-45500D01*
X53497Y-45663D01*
X53406Y-45882D01*
X53406Y-46118D01*
X53496Y-46336D01*
X53663Y-46503D01*
X53882Y-46594D01*
X54118Y-46594D01*
X54336Y-46504D01*
X54503Y-46337D01*
X54594Y-46118D01*
X54594Y-45882D01*
X54504Y-45664D01*
X54340Y-45500D01*
X54503Y-45337D01*
X54594Y-45118D01*
X54594Y-44882D01*
X54504Y-44664D01*
X54340Y-44500D01*
X54503Y-44337D01*
X54594Y-44118D01*
X54594Y-43882D01*
X54556Y-43790D01*
X59281Y-43790D01*
X59392Y-43768D01*
X59486Y-43705D01*
X61256Y-41935D01*
X61319Y-41841D01*
X61341Y-41730D01*
X61341Y-46386D01*
X61238Y-46489D01*
X61100Y-46820D01*
X61100Y-47178D01*
X61237Y-47509D01*
X61402Y-47675D01*
X46597Y-47675D01*
X46762Y-47511D01*
X46900Y-47180D01*
X46900Y-46822D01*
X46763Y-46491D01*
X46511Y-46238D01*
X46180Y-46100D01*
X45822Y-46100D01*
X45491Y-46237D01*
X45325Y-46402D01*
X45325Y-31597D01*
X45489Y-31762D01*
X45820Y-31900D01*
X46178Y-31900D01*
X46509Y-31763D01*
X46762Y-31511D01*
X46900Y-31180D01*
X46900Y-30822D01*
X46763Y-30491D01*
X46597Y-30325D01*
X61402Y-30325D01*
X61238Y-30489D01*
X61100Y-30820D01*
X61100Y-31178D01*
X61237Y-31509D01*
X61489Y-31762D01*
X61820Y-31900D01*
X62178Y-31900D01*
X62509Y-31763D01*
X62675Y-31597D01*
X62675Y-46402D01*
X62675Y-46402D01*
G37*
G54D17*
X62675Y-46402D02*
X62511Y-46238D01*
X62180Y-46100D01*
X61822Y-46100D01*
X61491Y-46237D01*
X61341Y-46386D01*
X61341Y-41730D01*
X61341Y-39051D01*
X61319Y-38940D01*
X61256Y-38846D01*
X60205Y-37795D01*
X60111Y-37732D01*
X60030Y-37716D01*
X60008Y-37661D01*
X59847Y-37500D01*
X60008Y-37339D01*
X60099Y-37119D01*
X60099Y-36881D01*
X60008Y-36661D01*
X59839Y-36492D01*
X59619Y-36401D01*
X59381Y-36401D01*
X59161Y-36492D01*
X59085Y-36567D01*
X59061Y-36509D01*
X58991Y-36439D01*
X58900Y-36401D01*
X58801Y-36401D01*
X58318Y-36401D01*
X56712Y-34795D01*
X56618Y-34732D01*
X56507Y-34710D01*
X54522Y-34710D01*
X54504Y-34664D01*
X54340Y-34500D01*
X54503Y-34337D01*
X54594Y-34118D01*
X54594Y-33882D01*
X54594Y-32118D01*
X54594Y-31882D01*
X54504Y-31664D01*
X54337Y-31497D01*
X54118Y-31406D01*
X53882Y-31406D01*
X53664Y-31496D01*
X53497Y-31663D01*
X53406Y-31882D01*
X53406Y-32118D01*
X53496Y-32336D01*
X53663Y-32503D01*
X53685Y-32512D01*
X53661Y-32590D01*
X54000Y-32929D01*
X54339Y-32590D01*
X54314Y-32512D01*
X54336Y-32504D01*
X54503Y-32337D01*
X54594Y-32118D01*
X54594Y-33882D01*
X54588Y-33867D01*
X54588Y-33090D01*
X54578Y-32858D01*
X54508Y-32692D01*
X54410Y-32661D01*
X54071Y-33000D01*
X54410Y-33339D01*
X54508Y-33308D01*
X54588Y-33090D01*
X54588Y-33867D01*
X54504Y-33664D01*
X54337Y-33497D01*
X54314Y-33487D01*
X54339Y-33410D01*
X54000Y-33071D01*
X53929Y-33142D01*
X53929Y-33000D01*
X53590Y-32661D01*
X53492Y-32692D01*
X53412Y-32910D01*
X53422Y-33142D01*
X53492Y-33308D01*
X53590Y-33339D01*
X53929Y-33000D01*
X53929Y-33142D01*
X53661Y-33410D01*
X53685Y-33487D01*
X53664Y-33496D01*
X53497Y-33663D01*
X53406Y-33882D01*
X53406Y-34118D01*
X53496Y-34336D01*
X53660Y-34500D01*
X53497Y-34663D01*
X53406Y-34882D01*
X53406Y-35118D01*
X53496Y-35336D01*
X53660Y-35500D01*
X53497Y-35663D01*
X53406Y-35882D01*
X53406Y-36118D01*
X53496Y-36336D01*
X53660Y-36500D01*
X53497Y-36663D01*
X53406Y-36882D01*
X53406Y-37118D01*
X53496Y-37336D01*
X53660Y-37500D01*
X53497Y-37663D01*
X53406Y-37882D01*
X53406Y-38118D01*
X53443Y-38210D01*
X48920Y-38210D01*
X48594Y-37884D01*
X48594Y-37882D01*
X48504Y-37664D01*
X48340Y-37500D01*
X48503Y-37337D01*
X48594Y-37118D01*
X48594Y-36882D01*
X48504Y-36664D01*
X48340Y-36500D01*
X48503Y-36337D01*
X48594Y-36118D01*
X48594Y-35882D01*
X48504Y-35664D01*
X48340Y-35500D01*
X48503Y-35337D01*
X48594Y-35118D01*
X48594Y-34882D01*
X48504Y-34664D01*
X48340Y-34500D01*
X48503Y-34337D01*
X48594Y-34118D01*
X48594Y-33882D01*
X48504Y-33664D01*
X48340Y-33500D01*
X48503Y-33337D01*
X48594Y-33118D01*
X48594Y-32882D01*
X48504Y-32664D01*
X48389Y-32549D01*
X48394Y-32549D01*
X48486Y-32511D01*
X48556Y-32441D01*
X48594Y-32350D01*
X48594Y-32251D01*
X48594Y-31651D01*
X48556Y-31559D01*
X48486Y-31489D01*
X48395Y-31451D01*
X48296Y-31451D01*
X47606Y-31451D01*
X47514Y-31489D01*
X47444Y-31559D01*
X47406Y-31650D01*
X47406Y-31749D01*
X47406Y-32349D01*
X47444Y-32441D01*
X47514Y-32511D01*
X47605Y-32549D01*
X47611Y-32549D01*
X47497Y-32663D01*
X47406Y-32882D01*
X47406Y-33118D01*
X47496Y-33336D01*
X47660Y-33500D01*
X47497Y-33663D01*
X47406Y-33882D01*
X47406Y-34118D01*
X47496Y-34336D01*
X47660Y-34500D01*
X47497Y-34663D01*
X47406Y-34882D01*
X47406Y-35118D01*
X47496Y-35336D01*
X47660Y-35500D01*
X47497Y-35663D01*
X47406Y-35882D01*
X47406Y-36118D01*
X47496Y-36336D01*
X47660Y-36500D01*
X47497Y-36663D01*
X47406Y-36882D01*
X47406Y-37118D01*
X47496Y-37336D01*
X47660Y-37500D01*
X47497Y-37663D01*
X47406Y-37882D01*
X47406Y-38118D01*
X47496Y-38336D01*
X47660Y-38500D01*
X47497Y-38663D01*
X47406Y-38882D01*
X47406Y-39118D01*
X47496Y-39336D01*
X47660Y-39500D01*
X47497Y-39663D01*
X47406Y-39882D01*
X47406Y-40118D01*
X47496Y-40336D01*
X47660Y-40500D01*
X47497Y-40663D01*
X47406Y-40882D01*
X47406Y-41118D01*
X47496Y-41336D01*
X47660Y-41500D01*
X47497Y-41663D01*
X47406Y-41882D01*
X47406Y-42118D01*
X47496Y-42336D01*
X47660Y-42500D01*
X47497Y-42663D01*
X47406Y-42882D01*
X47406Y-43118D01*
X47496Y-43336D01*
X47660Y-43500D01*
X47497Y-43663D01*
X47406Y-43882D01*
X47406Y-44118D01*
X47496Y-44336D01*
X47660Y-44500D01*
X47497Y-44663D01*
X47406Y-44882D01*
X47406Y-45118D01*
X47496Y-45336D01*
X47660Y-45500D01*
X47497Y-45663D01*
X47406Y-45882D01*
X47406Y-46118D01*
X47496Y-46336D01*
X47663Y-46503D01*
X47882Y-46594D01*
X48118Y-46594D01*
X48336Y-46504D01*
X48503Y-46337D01*
X48594Y-46118D01*
X48594Y-45882D01*
X48504Y-45664D01*
X48340Y-45500D01*
X48503Y-45337D01*
X48594Y-45118D01*
X48594Y-44882D01*
X48504Y-44664D01*
X48340Y-44500D01*
X48503Y-44337D01*
X48594Y-44118D01*
X48594Y-44116D01*
X48920Y-43790D01*
X53444Y-43790D01*
X53406Y-43882D01*
X53406Y-44118D01*
X53496Y-44336D01*
X53660Y-44500D01*
X53497Y-44663D01*
X53406Y-44882D01*
X53406Y-45118D01*
X53496Y-45336D01*
X53660Y-45500D01*
X53497Y-45663D01*
X53406Y-45882D01*
X53406Y-46118D01*
X53496Y-46336D01*
X53663Y-46503D01*
X53882Y-46594D01*
X54118Y-46594D01*
X54336Y-46504D01*
X54503Y-46337D01*
X54594Y-46118D01*
X54594Y-45882D01*
X54504Y-45664D01*
X54340Y-45500D01*
X54503Y-45337D01*
X54594Y-45118D01*
X54594Y-44882D01*
X54504Y-44664D01*
X54340Y-44500D01*
X54503Y-44337D01*
X54594Y-44118D01*
X54594Y-43882D01*
X54556Y-43790D01*
X59281Y-43790D01*
X59392Y-43768D01*
X59486Y-43705D01*
X61256Y-41935D01*
X61319Y-41841D01*
X61341Y-41730D01*
X61341Y-46386D01*
X61238Y-46489D01*
X61100Y-46820D01*
X61100Y-47178D01*
X61237Y-47509D01*
X61402Y-47675D01*
X46597Y-47675D01*
X46762Y-47511D01*
X46900Y-47180D01*
X46900Y-46822D01*
X46763Y-46491D01*
X46511Y-46238D01*
X46180Y-46100D01*
X45822Y-46100D01*
X45491Y-46237D01*
X45325Y-46402D01*
X45325Y-31597D01*
X45489Y-31762D01*
X45820Y-31900D01*
X46178Y-31900D01*
X46509Y-31763D01*
X46762Y-31511D01*
X46900Y-31180D01*
X46900Y-30822D01*
X46763Y-30491D01*
X46597Y-30325D01*
X61402Y-30325D01*
X61238Y-30489D01*
X61100Y-30820D01*
X61100Y-31178D01*
X61237Y-31509D01*
X61489Y-31762D01*
X61820Y-31900D01*
X62178Y-31900D01*
X62509Y-31763D01*
X62675Y-31597D01*
X62675Y-46402D01*
M02*
