G04 (created by PCBNEW-RS274X (2011-07-19)-testing) date Fri 10 Feb 2012 03:23:04 PM PST*
G01*
G70*
G90*
%MOIN*%
G04 Gerber Fmt 3.4, Leading zero omitted, Abs format*
%FSLAX34Y34*%
G04 APERTURE LIST*
%ADD10C,0.006000*%
%ADD11C,0.012000*%
%ADD12C,0.015000*%
%ADD13C,0.010000*%
G04 APERTURE END LIST*
G54D10*
G54D11*
X46248Y-45256D02*
X46286Y-45285D01*
X46324Y-45371D01*
X46324Y-45428D01*
X46286Y-45513D01*
X46210Y-45571D01*
X46133Y-45599D01*
X45981Y-45628D01*
X45867Y-45628D01*
X45714Y-45599D01*
X45638Y-45571D01*
X45562Y-45513D01*
X45524Y-45428D01*
X45524Y-45371D01*
X45562Y-45285D01*
X45600Y-45256D01*
X46324Y-44913D02*
X46286Y-44971D01*
X46248Y-44999D01*
X46171Y-45028D01*
X45943Y-45028D01*
X45867Y-44999D01*
X45829Y-44971D01*
X45790Y-44913D01*
X45790Y-44828D01*
X45829Y-44771D01*
X45867Y-44742D01*
X45943Y-44713D01*
X46171Y-44713D01*
X46248Y-44742D01*
X46286Y-44771D01*
X46324Y-44828D01*
X46324Y-44913D01*
X46324Y-44370D02*
X46286Y-44428D01*
X46210Y-44456D01*
X45524Y-44456D01*
X46324Y-44056D02*
X46286Y-44114D01*
X46248Y-44142D01*
X46171Y-44171D01*
X45943Y-44171D01*
X45867Y-44142D01*
X45829Y-44114D01*
X45790Y-44056D01*
X45790Y-43971D01*
X45829Y-43914D01*
X45867Y-43885D01*
X45943Y-43856D01*
X46171Y-43856D01*
X46248Y-43885D01*
X46286Y-43914D01*
X46324Y-43971D01*
X46324Y-44056D01*
X46324Y-43599D02*
X45790Y-43599D01*
X45943Y-43599D02*
X45867Y-43571D01*
X45829Y-43542D01*
X45790Y-43485D01*
X45790Y-43428D01*
X46324Y-43228D02*
X45790Y-43228D01*
X45524Y-43228D02*
X45562Y-43257D01*
X45600Y-43228D01*
X45562Y-43200D01*
X45524Y-43228D01*
X45600Y-43228D01*
X46324Y-42942D02*
X45790Y-42942D01*
X45867Y-42942D02*
X45829Y-42914D01*
X45790Y-42856D01*
X45790Y-42771D01*
X45829Y-42714D01*
X45905Y-42685D01*
X46324Y-42685D01*
X45905Y-42685D02*
X45829Y-42656D01*
X45790Y-42599D01*
X45790Y-42514D01*
X45829Y-42456D01*
X45905Y-42428D01*
X46324Y-42428D01*
X46286Y-41914D02*
X46324Y-41971D01*
X46324Y-42085D01*
X46286Y-42142D01*
X46210Y-42171D01*
X45905Y-42171D01*
X45829Y-42142D01*
X45790Y-42085D01*
X45790Y-41971D01*
X45829Y-41914D01*
X45905Y-41885D01*
X45981Y-41885D01*
X46057Y-42171D01*
X45790Y-41714D02*
X45790Y-41485D01*
X45524Y-41628D02*
X46210Y-41628D01*
X46286Y-41600D01*
X46324Y-41542D01*
X46324Y-41485D01*
X46286Y-41057D02*
X46324Y-41114D01*
X46324Y-41228D01*
X46286Y-41285D01*
X46210Y-41314D01*
X45905Y-41314D01*
X45829Y-41285D01*
X45790Y-41228D01*
X45790Y-41114D01*
X45829Y-41057D01*
X45905Y-41028D01*
X45981Y-41028D01*
X46057Y-41314D01*
X46324Y-40771D02*
X45790Y-40771D01*
X45943Y-40771D02*
X45867Y-40743D01*
X45829Y-40714D01*
X45790Y-40657D01*
X45790Y-40600D01*
X46324Y-39943D02*
X45524Y-39943D01*
X46324Y-39600D01*
X45524Y-39600D01*
X46324Y-39057D02*
X45905Y-39057D01*
X45829Y-39086D01*
X45790Y-39143D01*
X45790Y-39257D01*
X45829Y-39314D01*
X46286Y-39057D02*
X46324Y-39114D01*
X46324Y-39257D01*
X46286Y-39314D01*
X46210Y-39343D01*
X46133Y-39343D01*
X46057Y-39314D01*
X46019Y-39257D01*
X46019Y-39114D01*
X45981Y-39057D01*
X45790Y-38771D02*
X46324Y-38771D01*
X45867Y-38771D02*
X45829Y-38743D01*
X45790Y-38685D01*
X45790Y-38600D01*
X45829Y-38543D01*
X45905Y-38514D01*
X46324Y-38514D01*
X46324Y-38142D02*
X46286Y-38200D01*
X46248Y-38228D01*
X46171Y-38257D01*
X45943Y-38257D01*
X45867Y-38228D01*
X45829Y-38200D01*
X45790Y-38142D01*
X45790Y-38057D01*
X45829Y-38000D01*
X45867Y-37971D01*
X45943Y-37942D01*
X46171Y-37942D01*
X46248Y-37971D01*
X46286Y-38000D01*
X46324Y-38057D01*
X46324Y-38142D01*
X46286Y-37257D02*
X46324Y-37171D01*
X46324Y-37028D01*
X46286Y-36971D01*
X46248Y-36942D01*
X46171Y-36914D01*
X46095Y-36914D01*
X46019Y-36942D01*
X45981Y-36971D01*
X45943Y-37028D01*
X45905Y-37142D01*
X45867Y-37200D01*
X45829Y-37228D01*
X45752Y-37257D01*
X45676Y-37257D01*
X45600Y-37228D01*
X45562Y-37200D01*
X45524Y-37142D01*
X45524Y-37000D01*
X45562Y-36914D01*
X46324Y-36657D02*
X45524Y-36657D01*
X46324Y-36400D02*
X45905Y-36400D01*
X45829Y-36429D01*
X45790Y-36486D01*
X45790Y-36571D01*
X45829Y-36629D01*
X45867Y-36657D01*
X46324Y-36114D02*
X45790Y-36114D01*
X45524Y-36114D02*
X45562Y-36143D01*
X45600Y-36114D01*
X45562Y-36086D01*
X45524Y-36114D01*
X45600Y-36114D01*
X46286Y-35600D02*
X46324Y-35657D01*
X46324Y-35771D01*
X46286Y-35828D01*
X46210Y-35857D01*
X45905Y-35857D01*
X45829Y-35828D01*
X45790Y-35771D01*
X45790Y-35657D01*
X45829Y-35600D01*
X45905Y-35571D01*
X45981Y-35571D01*
X46057Y-35857D01*
X46324Y-35228D02*
X46286Y-35286D01*
X46210Y-35314D01*
X45524Y-35314D01*
X46324Y-34743D02*
X45524Y-34743D01*
X46286Y-34743D02*
X46324Y-34800D01*
X46324Y-34914D01*
X46286Y-34972D01*
X46248Y-35000D01*
X46171Y-35029D01*
X45943Y-35029D01*
X45867Y-35000D01*
X45829Y-34972D01*
X45790Y-34914D01*
X45790Y-34800D01*
X45829Y-34743D01*
X45790Y-34057D02*
X46324Y-33914D01*
X45790Y-33772D01*
X46324Y-33229D02*
X46324Y-33572D01*
X46324Y-33400D02*
X45524Y-33400D01*
X45638Y-33457D01*
X45714Y-33515D01*
X45752Y-33572D01*
X46248Y-32972D02*
X46286Y-32944D01*
X46324Y-32972D01*
X46286Y-33001D01*
X46248Y-32972D01*
X46324Y-32972D01*
X45524Y-32572D02*
X45524Y-32515D01*
X45562Y-32458D01*
X45600Y-32429D01*
X45676Y-32400D01*
X45829Y-32372D01*
X46019Y-32372D01*
X46171Y-32400D01*
X46248Y-32429D01*
X46286Y-32458D01*
X46324Y-32515D01*
X46324Y-32572D01*
X46286Y-32629D01*
X46248Y-32658D01*
X46171Y-32686D01*
X46019Y-32715D01*
X45829Y-32715D01*
X45676Y-32686D01*
X45600Y-32658D01*
X45562Y-32629D01*
X45524Y-32572D01*
X62324Y-41957D02*
X61524Y-41957D01*
X61524Y-41557D02*
X61524Y-41443D01*
X61562Y-41385D01*
X61638Y-41328D01*
X61790Y-41300D01*
X62057Y-41300D01*
X62210Y-41328D01*
X62286Y-41385D01*
X62324Y-41443D01*
X62324Y-41557D01*
X62286Y-41614D01*
X62210Y-41671D01*
X62057Y-41700D01*
X61790Y-41700D01*
X61638Y-41671D01*
X61562Y-41614D01*
X61524Y-41557D01*
X62324Y-40242D02*
X61943Y-40442D01*
X62324Y-40585D02*
X61524Y-40585D01*
X61524Y-40357D01*
X61562Y-40299D01*
X61600Y-40271D01*
X61676Y-40242D01*
X61790Y-40242D01*
X61867Y-40271D01*
X61905Y-40299D01*
X61943Y-40357D01*
X61943Y-40585D01*
X62324Y-39899D02*
X62286Y-39957D01*
X62248Y-39985D01*
X62171Y-40014D01*
X61943Y-40014D01*
X61867Y-39985D01*
X61829Y-39957D01*
X61790Y-39899D01*
X61790Y-39814D01*
X61829Y-39757D01*
X61867Y-39728D01*
X61943Y-39699D01*
X62171Y-39699D01*
X62248Y-39728D01*
X62286Y-39757D01*
X62324Y-39814D01*
X62324Y-39899D01*
X62324Y-39185D02*
X61524Y-39185D01*
X62286Y-39185D02*
X62324Y-39242D01*
X62324Y-39356D01*
X62286Y-39414D01*
X62248Y-39442D01*
X62171Y-39471D01*
X61943Y-39471D01*
X61867Y-39442D01*
X61829Y-39414D01*
X61790Y-39356D01*
X61790Y-39242D01*
X61829Y-39185D01*
X62286Y-38671D02*
X62324Y-38728D01*
X62324Y-38842D01*
X62286Y-38899D01*
X62210Y-38928D01*
X61905Y-38928D01*
X61829Y-38899D01*
X61790Y-38842D01*
X61790Y-38728D01*
X61829Y-38671D01*
X61905Y-38642D01*
X61981Y-38642D01*
X62057Y-38928D01*
X62324Y-38299D02*
X62286Y-38357D01*
X62248Y-38385D01*
X62171Y-38414D01*
X61943Y-38414D01*
X61867Y-38385D01*
X61829Y-38357D01*
X61790Y-38299D01*
X61790Y-38214D01*
X61829Y-38157D01*
X61867Y-38128D01*
X61943Y-38099D01*
X62171Y-38099D01*
X62248Y-38128D01*
X62286Y-38157D01*
X62324Y-38214D01*
X62324Y-38299D01*
X62324Y-37385D02*
X61524Y-37385D01*
X61790Y-37099D02*
X62324Y-37099D01*
X61867Y-37099D02*
X61829Y-37071D01*
X61790Y-37013D01*
X61790Y-36928D01*
X61829Y-36871D01*
X61905Y-36842D01*
X62324Y-36842D01*
X62286Y-36299D02*
X62324Y-36356D01*
X62324Y-36470D01*
X62286Y-36528D01*
X62248Y-36556D01*
X62171Y-36585D01*
X61943Y-36585D01*
X61867Y-36556D01*
X61829Y-36528D01*
X61790Y-36470D01*
X61790Y-36356D01*
X61829Y-36299D01*
X62248Y-36042D02*
X62286Y-36014D01*
X62324Y-36042D01*
X62286Y-36071D01*
X62248Y-36042D01*
X62324Y-36042D01*
G54D12*
X50800Y-31500D02*
X50802Y-31543D01*
X50808Y-31586D01*
X50818Y-31629D01*
X50831Y-31671D01*
X50847Y-31711D01*
X50867Y-31749D01*
X50891Y-31786D01*
X50917Y-31821D01*
X50947Y-31853D01*
X50979Y-31883D01*
X51014Y-31909D01*
X51051Y-31933D01*
X51089Y-31953D01*
X51129Y-31969D01*
X51171Y-31982D01*
X51214Y-31992D01*
X51257Y-31998D01*
X51300Y-32000D01*
X51300Y-32000D02*
X51343Y-31998D01*
X51386Y-31992D01*
X51429Y-31982D01*
X51471Y-31969D01*
X51511Y-31953D01*
X51550Y-31933D01*
X51586Y-31909D01*
X51621Y-31883D01*
X51653Y-31853D01*
X51683Y-31821D01*
X51709Y-31786D01*
X51733Y-31749D01*
X51753Y-31711D01*
X51769Y-31671D01*
X51782Y-31629D01*
X51792Y-31586D01*
X51798Y-31543D01*
X51800Y-31500D01*
X53800Y-31500D02*
X51800Y-31500D01*
X48800Y-31500D02*
X50800Y-31500D01*
X48800Y-31500D02*
X48800Y-46500D01*
X48800Y-46500D02*
X53800Y-46500D01*
X53800Y-46500D02*
X53800Y-31500D01*
X61400Y-35000D02*
X61400Y-43000D01*
X61400Y-43000D02*
X57600Y-43000D01*
X57600Y-43000D02*
X57600Y-35000D01*
X57600Y-35000D02*
X61400Y-35000D01*
X56626Y-36283D02*
X56626Y-37465D01*
X57339Y-36888D02*
X56639Y-36288D01*
X56640Y-37488D02*
X57340Y-36888D01*
G54D11*
X49943Y-39707D02*
X50429Y-39707D01*
X50486Y-39679D01*
X50514Y-39650D01*
X50543Y-39593D01*
X50543Y-39479D01*
X50514Y-39421D01*
X50486Y-39393D01*
X50429Y-39364D01*
X49943Y-39364D01*
X50543Y-38764D02*
X50543Y-39107D01*
X50543Y-38935D02*
X49943Y-38935D01*
X50029Y-38992D01*
X50086Y-39050D01*
X50114Y-39107D01*
X52371Y-42008D02*
X52371Y-41722D01*
X52543Y-42065D02*
X51943Y-41865D01*
X52543Y-41665D01*
X52543Y-41122D02*
X52257Y-41322D01*
X52543Y-41465D02*
X51943Y-41465D01*
X51943Y-41237D01*
X51971Y-41179D01*
X52000Y-41151D01*
X52057Y-41122D01*
X52143Y-41122D01*
X52200Y-41151D01*
X52229Y-41179D01*
X52257Y-41237D01*
X52257Y-41465D01*
X52543Y-40865D02*
X51943Y-40865D01*
X51943Y-40722D01*
X51971Y-40637D01*
X52029Y-40579D01*
X52086Y-40551D01*
X52200Y-40522D01*
X52286Y-40522D01*
X52400Y-40551D01*
X52457Y-40579D01*
X52514Y-40637D01*
X52543Y-40722D01*
X52543Y-40865D01*
X51943Y-40265D02*
X52429Y-40265D01*
X52486Y-40237D01*
X52514Y-40208D01*
X52543Y-40151D01*
X52543Y-40037D01*
X52514Y-39979D01*
X52486Y-39951D01*
X52429Y-39922D01*
X51943Y-39922D01*
X52543Y-39636D02*
X51943Y-39636D01*
X52543Y-39350D02*
X51943Y-39350D01*
X52543Y-39007D01*
X51943Y-39007D01*
X51943Y-38607D02*
X51943Y-38493D01*
X51971Y-38435D01*
X52029Y-38378D01*
X52143Y-38350D01*
X52343Y-38350D01*
X52457Y-38378D01*
X52514Y-38435D01*
X52543Y-38493D01*
X52543Y-38607D01*
X52514Y-38664D01*
X52457Y-38721D01*
X52343Y-38750D01*
X52143Y-38750D01*
X52029Y-38721D01*
X51971Y-38664D01*
X51943Y-38607D01*
X52600Y-38235D02*
X52600Y-37778D01*
X52543Y-37635D02*
X51943Y-37635D01*
X52543Y-37292D01*
X51943Y-37292D01*
X52371Y-37035D02*
X52371Y-36749D01*
X52543Y-37092D02*
X51943Y-36892D01*
X52543Y-36692D01*
X52543Y-36492D02*
X51943Y-36492D01*
X52543Y-36149D01*
X51943Y-36149D01*
X51943Y-35749D02*
X51943Y-35635D01*
X51971Y-35577D01*
X52029Y-35520D01*
X52143Y-35492D01*
X52343Y-35492D01*
X52457Y-35520D01*
X52514Y-35577D01*
X52543Y-35635D01*
X52543Y-35749D01*
X52514Y-35806D01*
X52457Y-35863D01*
X52343Y-35892D01*
X52143Y-35892D01*
X52029Y-35863D01*
X51971Y-35806D01*
X51943Y-35749D01*
X59058Y-34443D02*
X59058Y-33843D01*
X59286Y-33843D01*
X59344Y-33871D01*
X59372Y-33900D01*
X59401Y-33957D01*
X59401Y-34043D01*
X59372Y-34100D01*
X59344Y-34129D01*
X59286Y-34157D01*
X59058Y-34157D01*
X59972Y-34443D02*
X59629Y-34443D01*
X59801Y-34443D02*
X59801Y-33843D01*
X59744Y-33929D01*
X59686Y-33986D01*
X59629Y-34014D01*
G54D13*
X60962Y-41024D02*
X60962Y-41310D01*
X60962Y-41167D02*
X60462Y-41167D01*
X60534Y-41215D01*
X60581Y-41262D01*
X60605Y-41310D01*
X60462Y-40715D02*
X60462Y-40667D01*
X60486Y-40619D01*
X60510Y-40596D01*
X60558Y-40572D01*
X60653Y-40548D01*
X60772Y-40548D01*
X60867Y-40572D01*
X60915Y-40596D01*
X60939Y-40619D01*
X60962Y-40667D01*
X60962Y-40715D01*
X60939Y-40762D01*
X60915Y-40786D01*
X60867Y-40810D01*
X60772Y-40834D01*
X60653Y-40834D01*
X60558Y-40810D01*
X60510Y-40786D01*
X60486Y-40762D01*
X60462Y-40715D01*
X58324Y-41142D02*
X58324Y-41047D01*
X58301Y-40999D01*
X58277Y-40975D01*
X58205Y-40928D01*
X58110Y-40904D01*
X57920Y-40904D01*
X57872Y-40928D01*
X57848Y-40952D01*
X57824Y-40999D01*
X57824Y-41095D01*
X57848Y-41142D01*
X57872Y-41166D01*
X57920Y-41190D01*
X58039Y-41190D01*
X58086Y-41166D01*
X58110Y-41142D01*
X58134Y-41095D01*
X58134Y-40999D01*
X58110Y-40952D01*
X58086Y-40928D01*
X58039Y-40904D01*
X60510Y-37135D02*
X60486Y-37111D01*
X60462Y-37063D01*
X60462Y-36944D01*
X60486Y-36897D01*
X60510Y-36873D01*
X60558Y-36849D01*
X60605Y-36849D01*
X60677Y-36873D01*
X60962Y-37159D01*
X60962Y-36849D01*
M02*
