G04 (created by PCBNEW-RS274X (2011-07-19)-testing) date Fri 02 Mar 2012 03:23:15 PM PST*
G01*
G70*
G90*
%MOIN*%
G04 Gerber Fmt 3.4, Leading zero omitted, Abs format*
%FSLAX34Y34*%
G04 APERTURE LIST*
%ADD10C,0.006000*%
%ADD11C,0.007900*%
%ADD12C,0.012000*%
%ADD13C,0.015000*%
%ADD14C,0.005000*%
%ADD15C,0.009800*%
%ADD16C,0.004500*%
G04 APERTURE END LIST*
G54D10*
G54D11*
X55478Y-26253D02*
X55534Y-26272D01*
X55553Y-26291D01*
X55572Y-26328D01*
X55572Y-26384D01*
X55553Y-26422D01*
X55534Y-26441D01*
X55497Y-26459D01*
X55347Y-26459D01*
X55347Y-26065D01*
X55478Y-26065D01*
X55516Y-26084D01*
X55534Y-26103D01*
X55553Y-26141D01*
X55553Y-26178D01*
X55534Y-26216D01*
X55516Y-26234D01*
X55478Y-26253D01*
X55347Y-26253D01*
X55797Y-26459D02*
X55760Y-26441D01*
X55741Y-26403D01*
X55741Y-26065D01*
X56116Y-26197D02*
X56116Y-26459D01*
X55947Y-26197D02*
X55947Y-26403D01*
X55966Y-26441D01*
X56003Y-26459D01*
X56059Y-26459D01*
X56097Y-26441D01*
X56116Y-26422D01*
X56453Y-26441D02*
X56415Y-26459D01*
X56340Y-26459D01*
X56303Y-26441D01*
X56284Y-26403D01*
X56284Y-26253D01*
X56303Y-26216D01*
X56340Y-26197D01*
X56415Y-26197D01*
X56453Y-26216D01*
X56472Y-26253D01*
X56472Y-26291D01*
X56284Y-26328D01*
X55565Y-24984D02*
X55528Y-24965D01*
X55471Y-24965D01*
X55415Y-24984D01*
X55378Y-25022D01*
X55359Y-25059D01*
X55340Y-25134D01*
X55340Y-25191D01*
X55359Y-25266D01*
X55378Y-25303D01*
X55415Y-25341D01*
X55471Y-25359D01*
X55509Y-25359D01*
X55565Y-25341D01*
X55584Y-25322D01*
X55584Y-25191D01*
X55509Y-25191D01*
X55753Y-25359D02*
X55753Y-25097D01*
X55753Y-25172D02*
X55772Y-25134D01*
X55790Y-25116D01*
X55828Y-25097D01*
X55865Y-25097D01*
X56147Y-25341D02*
X56109Y-25359D01*
X56034Y-25359D01*
X55997Y-25341D01*
X55978Y-25303D01*
X55978Y-25153D01*
X55997Y-25116D01*
X56034Y-25097D01*
X56109Y-25097D01*
X56147Y-25116D01*
X56166Y-25153D01*
X56166Y-25191D01*
X55978Y-25228D01*
X56485Y-25341D02*
X56447Y-25359D01*
X56372Y-25359D01*
X56335Y-25341D01*
X56316Y-25303D01*
X56316Y-25153D01*
X56335Y-25116D01*
X56372Y-25097D01*
X56447Y-25097D01*
X56485Y-25116D01*
X56504Y-25153D01*
X56504Y-25191D01*
X56316Y-25228D01*
X56673Y-25097D02*
X56673Y-25359D01*
X56673Y-25134D02*
X56692Y-25116D01*
X56729Y-25097D01*
X56785Y-25097D01*
X56823Y-25116D01*
X56842Y-25153D01*
X56842Y-25359D01*
X55575Y-24359D02*
X55444Y-24172D01*
X55350Y-24359D02*
X55350Y-23965D01*
X55500Y-23965D01*
X55537Y-23984D01*
X55556Y-24003D01*
X55575Y-24041D01*
X55575Y-24097D01*
X55556Y-24134D01*
X55537Y-24153D01*
X55500Y-24172D01*
X55350Y-24172D01*
X55894Y-24341D02*
X55856Y-24359D01*
X55781Y-24359D01*
X55744Y-24341D01*
X55725Y-24303D01*
X55725Y-24153D01*
X55744Y-24116D01*
X55781Y-24097D01*
X55856Y-24097D01*
X55894Y-24116D01*
X55913Y-24153D01*
X55913Y-24191D01*
X55725Y-24228D01*
X56251Y-24359D02*
X56251Y-23965D01*
X56251Y-24341D02*
X56213Y-24359D01*
X56138Y-24359D01*
X56101Y-24341D01*
X56082Y-24322D01*
X56063Y-24284D01*
X56063Y-24172D01*
X56082Y-24134D01*
X56101Y-24116D01*
X56138Y-24097D01*
X56213Y-24097D01*
X56251Y-24116D01*
X55600Y-22984D02*
X55563Y-22965D01*
X55506Y-22965D01*
X55450Y-22984D01*
X55413Y-23022D01*
X55394Y-23059D01*
X55375Y-23134D01*
X55375Y-23191D01*
X55394Y-23266D01*
X55413Y-23303D01*
X55450Y-23341D01*
X55506Y-23359D01*
X55544Y-23359D01*
X55600Y-23341D01*
X55619Y-23322D01*
X55619Y-23191D01*
X55544Y-23191D01*
X55788Y-23359D02*
X55788Y-22965D01*
X56013Y-23359D01*
X56013Y-22965D01*
X56201Y-23359D02*
X56201Y-22965D01*
X56295Y-22965D01*
X56351Y-22984D01*
X56388Y-23022D01*
X56407Y-23059D01*
X56426Y-23134D01*
X56426Y-23191D01*
X56407Y-23266D01*
X56388Y-23303D01*
X56351Y-23341D01*
X56295Y-23359D01*
X56201Y-23359D01*
G54D12*
X56043Y-21324D02*
X56043Y-20524D01*
X56443Y-20524D02*
X56557Y-20524D01*
X56615Y-20562D01*
X56672Y-20638D01*
X56700Y-20790D01*
X56700Y-21057D01*
X56672Y-21210D01*
X56615Y-21286D01*
X56557Y-21324D01*
X56443Y-21324D01*
X56386Y-21286D01*
X56329Y-21210D01*
X56300Y-21057D01*
X56300Y-20790D01*
X56329Y-20638D01*
X56386Y-20562D01*
X56443Y-20524D01*
X57758Y-21324D02*
X57558Y-20943D01*
X57415Y-21324D02*
X57415Y-20524D01*
X57643Y-20524D01*
X57701Y-20562D01*
X57729Y-20600D01*
X57758Y-20676D01*
X57758Y-20790D01*
X57729Y-20867D01*
X57701Y-20905D01*
X57643Y-20943D01*
X57415Y-20943D01*
X58101Y-21324D02*
X58043Y-21286D01*
X58015Y-21248D01*
X57986Y-21171D01*
X57986Y-20943D01*
X58015Y-20867D01*
X58043Y-20829D01*
X58101Y-20790D01*
X58186Y-20790D01*
X58243Y-20829D01*
X58272Y-20867D01*
X58301Y-20943D01*
X58301Y-21171D01*
X58272Y-21248D01*
X58243Y-21286D01*
X58186Y-21324D01*
X58101Y-21324D01*
X58815Y-21324D02*
X58815Y-20524D01*
X58815Y-21286D02*
X58758Y-21324D01*
X58644Y-21324D01*
X58586Y-21286D01*
X58558Y-21248D01*
X58529Y-21171D01*
X58529Y-20943D01*
X58558Y-20867D01*
X58586Y-20829D01*
X58644Y-20790D01*
X58758Y-20790D01*
X58815Y-20829D01*
X59329Y-21286D02*
X59272Y-21324D01*
X59158Y-21324D01*
X59101Y-21286D01*
X59072Y-21210D01*
X59072Y-20905D01*
X59101Y-20829D01*
X59158Y-20790D01*
X59272Y-20790D01*
X59329Y-20829D01*
X59358Y-20905D01*
X59358Y-20981D01*
X59072Y-21057D01*
X59701Y-21324D02*
X59643Y-21286D01*
X59615Y-21248D01*
X59586Y-21171D01*
X59586Y-20943D01*
X59615Y-20867D01*
X59643Y-20829D01*
X59701Y-20790D01*
X59786Y-20790D01*
X59843Y-20829D01*
X59872Y-20867D01*
X59901Y-20943D01*
X59901Y-21171D01*
X59872Y-21248D01*
X59843Y-21286D01*
X59786Y-21324D01*
X59701Y-21324D01*
X60615Y-21324D02*
X60615Y-20524D01*
X60901Y-20790D02*
X60901Y-21324D01*
X60901Y-20867D02*
X60929Y-20829D01*
X60987Y-20790D01*
X61072Y-20790D01*
X61129Y-20829D01*
X61158Y-20905D01*
X61158Y-21324D01*
X61701Y-21286D02*
X61644Y-21324D01*
X61530Y-21324D01*
X61472Y-21286D01*
X61444Y-21248D01*
X61415Y-21171D01*
X61415Y-20943D01*
X61444Y-20867D01*
X61472Y-20829D01*
X61530Y-20790D01*
X61644Y-20790D01*
X61701Y-20829D01*
X61958Y-21248D02*
X61986Y-21286D01*
X61958Y-21324D01*
X61929Y-21286D01*
X61958Y-21248D01*
X61958Y-21324D01*
X52445Y-29348D02*
X52416Y-29386D01*
X52330Y-29424D01*
X52273Y-29424D01*
X52188Y-29386D01*
X52130Y-29310D01*
X52102Y-29233D01*
X52073Y-29081D01*
X52073Y-28967D01*
X52102Y-28814D01*
X52130Y-28738D01*
X52188Y-28662D01*
X52273Y-28624D01*
X52330Y-28624D01*
X52416Y-28662D01*
X52445Y-28700D01*
X52788Y-29424D02*
X52730Y-29386D01*
X52702Y-29348D01*
X52673Y-29271D01*
X52673Y-29043D01*
X52702Y-28967D01*
X52730Y-28929D01*
X52788Y-28890D01*
X52873Y-28890D01*
X52930Y-28929D01*
X52959Y-28967D01*
X52988Y-29043D01*
X52988Y-29271D01*
X52959Y-29348D01*
X52930Y-29386D01*
X52873Y-29424D01*
X52788Y-29424D01*
X53331Y-29424D02*
X53273Y-29386D01*
X53245Y-29310D01*
X53245Y-28624D01*
X53645Y-29424D02*
X53587Y-29386D01*
X53559Y-29348D01*
X53530Y-29271D01*
X53530Y-29043D01*
X53559Y-28967D01*
X53587Y-28929D01*
X53645Y-28890D01*
X53730Y-28890D01*
X53787Y-28929D01*
X53816Y-28967D01*
X53845Y-29043D01*
X53845Y-29271D01*
X53816Y-29348D01*
X53787Y-29386D01*
X53730Y-29424D01*
X53645Y-29424D01*
X54102Y-29424D02*
X54102Y-28890D01*
X54102Y-29043D02*
X54130Y-28967D01*
X54159Y-28929D01*
X54216Y-28890D01*
X54273Y-28890D01*
X54473Y-29424D02*
X54473Y-28890D01*
X54473Y-28624D02*
X54444Y-28662D01*
X54473Y-28700D01*
X54501Y-28662D01*
X54473Y-28624D01*
X54473Y-28700D01*
X54759Y-29424D02*
X54759Y-28890D01*
X54759Y-28967D02*
X54787Y-28929D01*
X54845Y-28890D01*
X54930Y-28890D01*
X54987Y-28929D01*
X55016Y-29005D01*
X55016Y-29424D01*
X55016Y-29005D02*
X55045Y-28929D01*
X55102Y-28890D01*
X55187Y-28890D01*
X55245Y-28929D01*
X55273Y-29005D01*
X55273Y-29424D01*
X55787Y-29386D02*
X55730Y-29424D01*
X55616Y-29424D01*
X55559Y-29386D01*
X55530Y-29310D01*
X55530Y-29005D01*
X55559Y-28929D01*
X55616Y-28890D01*
X55730Y-28890D01*
X55787Y-28929D01*
X55816Y-29005D01*
X55816Y-29081D01*
X55530Y-29157D01*
X55987Y-28890D02*
X56216Y-28890D01*
X56073Y-28624D02*
X56073Y-29310D01*
X56101Y-29386D01*
X56159Y-29424D01*
X56216Y-29424D01*
X56644Y-29386D02*
X56587Y-29424D01*
X56473Y-29424D01*
X56416Y-29386D01*
X56387Y-29310D01*
X56387Y-29005D01*
X56416Y-28929D01*
X56473Y-28890D01*
X56587Y-28890D01*
X56644Y-28929D01*
X56673Y-29005D01*
X56673Y-29081D01*
X56387Y-29157D01*
X56930Y-29424D02*
X56930Y-28890D01*
X56930Y-29043D02*
X56958Y-28967D01*
X56987Y-28929D01*
X57044Y-28890D01*
X57101Y-28890D01*
X57729Y-29386D02*
X57815Y-29424D01*
X57958Y-29424D01*
X58015Y-29386D01*
X58044Y-29348D01*
X58072Y-29271D01*
X58072Y-29195D01*
X58044Y-29119D01*
X58015Y-29081D01*
X57958Y-29043D01*
X57844Y-29005D01*
X57786Y-28967D01*
X57758Y-28929D01*
X57729Y-28852D01*
X57729Y-28776D01*
X57758Y-28700D01*
X57786Y-28662D01*
X57844Y-28624D01*
X57986Y-28624D01*
X58072Y-28662D01*
X58557Y-29386D02*
X58500Y-29424D01*
X58386Y-29424D01*
X58329Y-29386D01*
X58300Y-29310D01*
X58300Y-29005D01*
X58329Y-28929D01*
X58386Y-28890D01*
X58500Y-28890D01*
X58557Y-28929D01*
X58586Y-29005D01*
X58586Y-29081D01*
X58300Y-29157D01*
X58843Y-28890D02*
X58843Y-29424D01*
X58843Y-28967D02*
X58871Y-28929D01*
X58929Y-28890D01*
X59014Y-28890D01*
X59071Y-28929D01*
X59100Y-29005D01*
X59100Y-29424D01*
X59357Y-29386D02*
X59414Y-29424D01*
X59529Y-29424D01*
X59586Y-29386D01*
X59614Y-29310D01*
X59614Y-29271D01*
X59586Y-29195D01*
X59529Y-29157D01*
X59443Y-29157D01*
X59386Y-29119D01*
X59357Y-29043D01*
X59357Y-29005D01*
X59386Y-28929D01*
X59443Y-28890D01*
X59529Y-28890D01*
X59586Y-28929D01*
X59958Y-29424D02*
X59900Y-29386D01*
X59872Y-29348D01*
X59843Y-29271D01*
X59843Y-29043D01*
X59872Y-28967D01*
X59900Y-28929D01*
X59958Y-28890D01*
X60043Y-28890D01*
X60100Y-28929D01*
X60129Y-28967D01*
X60158Y-29043D01*
X60158Y-29271D01*
X60129Y-29348D01*
X60100Y-29386D01*
X60043Y-29424D01*
X59958Y-29424D01*
X60415Y-29424D02*
X60415Y-28890D01*
X60415Y-29043D02*
X60443Y-28967D01*
X60472Y-28929D01*
X60529Y-28890D01*
X60586Y-28890D01*
X61443Y-29005D02*
X61529Y-29043D01*
X61557Y-29081D01*
X61586Y-29157D01*
X61586Y-29271D01*
X61557Y-29348D01*
X61529Y-29386D01*
X61471Y-29424D01*
X61243Y-29424D01*
X61243Y-28624D01*
X61443Y-28624D01*
X61500Y-28662D01*
X61529Y-28700D01*
X61557Y-28776D01*
X61557Y-28852D01*
X61529Y-28929D01*
X61500Y-28967D01*
X61443Y-29005D01*
X61243Y-29005D01*
X61929Y-29424D02*
X61871Y-29386D01*
X61843Y-29348D01*
X61814Y-29271D01*
X61814Y-29043D01*
X61843Y-28967D01*
X61871Y-28929D01*
X61929Y-28890D01*
X62014Y-28890D01*
X62071Y-28929D01*
X62100Y-28967D01*
X62129Y-29043D01*
X62129Y-29271D01*
X62100Y-29348D01*
X62071Y-29386D01*
X62014Y-29424D01*
X61929Y-29424D01*
X62643Y-29424D02*
X62643Y-29005D01*
X62614Y-28929D01*
X62557Y-28890D01*
X62443Y-28890D01*
X62386Y-28929D01*
X62643Y-29386D02*
X62586Y-29424D01*
X62443Y-29424D01*
X62386Y-29386D01*
X62357Y-29310D01*
X62357Y-29233D01*
X62386Y-29157D01*
X62443Y-29119D01*
X62586Y-29119D01*
X62643Y-29081D01*
X62929Y-29424D02*
X62929Y-28890D01*
X62929Y-29043D02*
X62957Y-28967D01*
X62986Y-28929D01*
X63043Y-28890D01*
X63100Y-28890D01*
X63557Y-29424D02*
X63557Y-28624D01*
X63557Y-29386D02*
X63500Y-29424D01*
X63386Y-29424D01*
X63328Y-29386D01*
X63300Y-29348D01*
X63271Y-29271D01*
X63271Y-29043D01*
X63300Y-28967D01*
X63328Y-28929D01*
X63386Y-28890D01*
X63500Y-28890D01*
X63557Y-28929D01*
X64243Y-28890D02*
X64386Y-29424D01*
X64528Y-28890D01*
X64728Y-28700D02*
X64757Y-28662D01*
X64814Y-28624D01*
X64957Y-28624D01*
X65014Y-28662D01*
X65043Y-28700D01*
X65071Y-28776D01*
X65071Y-28852D01*
X65043Y-28967D01*
X64700Y-29424D01*
X65071Y-29424D01*
X65328Y-29348D02*
X65356Y-29386D01*
X65328Y-29424D01*
X65299Y-29386D01*
X65328Y-29348D01*
X65328Y-29424D01*
X65928Y-29424D02*
X65585Y-29424D01*
X65757Y-29424D02*
X65757Y-28624D01*
X65700Y-28738D01*
X65642Y-28814D01*
X65585Y-28852D01*
G54D13*
X60181Y-25787D02*
X58016Y-25787D01*
X58016Y-25787D02*
X57819Y-25591D01*
X57819Y-25591D02*
X57819Y-24213D01*
X57819Y-24213D02*
X60181Y-24213D01*
X60181Y-24213D02*
X60181Y-25787D01*
G54D14*
X63300Y-21000D02*
X64200Y-21000D01*
X64200Y-21000D02*
X64200Y-21500D01*
X64200Y-21500D02*
X63300Y-21500D01*
X63300Y-21500D02*
X63300Y-21000D01*
G54D13*
X49900Y-26950D02*
X49900Y-22550D01*
X49900Y-22550D02*
X55100Y-22550D01*
X55100Y-22550D02*
X55100Y-26950D01*
X55100Y-26950D02*
X49900Y-26950D01*
G54D15*
X58441Y-22635D02*
X58441Y-23121D01*
X58469Y-23178D01*
X58498Y-23206D01*
X58555Y-23235D01*
X58669Y-23235D01*
X58727Y-23206D01*
X58755Y-23178D01*
X58784Y-23121D01*
X58784Y-22635D01*
X59384Y-23235D02*
X59041Y-23235D01*
X59213Y-23235D02*
X59213Y-22635D01*
X59156Y-22721D01*
X59098Y-22778D01*
X59041Y-22806D01*
G54D16*
X62771Y-21287D02*
X62762Y-21300D01*
X62736Y-21313D01*
X62719Y-21313D01*
X62694Y-21300D01*
X62676Y-21273D01*
X62668Y-21247D01*
X62659Y-21193D01*
X62659Y-21153D01*
X62668Y-21100D01*
X62676Y-21073D01*
X62694Y-21047D01*
X62719Y-21033D01*
X62736Y-21033D01*
X62762Y-21047D01*
X62771Y-21060D01*
X62942Y-21313D02*
X62839Y-21313D01*
X62891Y-21313D02*
X62891Y-21033D01*
X62874Y-21073D01*
X62856Y-21100D01*
X62839Y-21113D01*
X64536Y-21033D02*
X64553Y-21033D01*
X64570Y-21047D01*
X64579Y-21060D01*
X64588Y-21087D01*
X64596Y-21140D01*
X64596Y-21207D01*
X64588Y-21260D01*
X64579Y-21287D01*
X64570Y-21300D01*
X64553Y-21313D01*
X64536Y-21313D01*
X64519Y-21300D01*
X64510Y-21287D01*
X64502Y-21260D01*
X64493Y-21207D01*
X64493Y-21140D01*
X64502Y-21087D01*
X64510Y-21060D01*
X64519Y-21047D01*
X64536Y-21033D01*
X64673Y-21287D02*
X64681Y-21300D01*
X64673Y-21313D01*
X64664Y-21300D01*
X64673Y-21287D01*
X64673Y-21313D01*
X64853Y-21313D02*
X64750Y-21313D01*
X64802Y-21313D02*
X64802Y-21033D01*
X64785Y-21073D01*
X64767Y-21100D01*
X64750Y-21113D01*
X64887Y-21340D02*
X65024Y-21340D01*
X65144Y-21127D02*
X65144Y-21313D01*
X65067Y-21127D02*
X65067Y-21273D01*
X65075Y-21300D01*
X65093Y-21313D01*
X65118Y-21313D01*
X65135Y-21300D01*
X65144Y-21287D01*
X65290Y-21167D02*
X65230Y-21167D01*
X65230Y-21313D02*
X65230Y-21033D01*
X65316Y-21033D01*
G54D12*
X52058Y-27743D02*
X52058Y-27143D01*
X52286Y-27143D01*
X52344Y-27171D01*
X52372Y-27200D01*
X52401Y-27257D01*
X52401Y-27343D01*
X52372Y-27400D01*
X52344Y-27429D01*
X52286Y-27457D01*
X52058Y-27457D01*
X52629Y-27200D02*
X52658Y-27171D01*
X52715Y-27143D01*
X52858Y-27143D01*
X52915Y-27171D01*
X52944Y-27200D01*
X52972Y-27257D01*
X52972Y-27314D01*
X52944Y-27400D01*
X52601Y-27743D01*
X52972Y-27743D01*
M02*
