G04 (created by PCBNEW-RS274X (2011-07-19)-testing) date Fri 02 Mar 2012 03:23:15 PM PST*
G01*
G70*
G90*
%MOIN*%
G04 Gerber Fmt 3.4, Leading zero omitted, Abs format*
%FSLAX34Y34*%
G04 APERTURE LIST*
%ADD10C,0.006000*%
%ADD11C,0.130000*%
%ADD12R,0.019700X0.088600*%
%ADD13R,0.025000X0.045000*%
%ADD14R,0.070000X0.070000*%
%ADD15C,0.070000*%
%ADD16R,0.250000X0.050000*%
%ADD17C,0.035000*%
%ADD18C,0.012000*%
%ADD19C,0.010000*%
G04 APERTURE END LIST*
G54D10*
G54D11*
X67000Y-21000D03*
X51000Y-21000D03*
X67000Y-29000D03*
X51000Y-29000D03*
G54D12*
X58250Y-24085D03*
X58750Y-24085D03*
X59250Y-24085D03*
X59750Y-24085D03*
X58250Y-25916D03*
X58750Y-25916D03*
X59250Y-25916D03*
X59750Y-25916D03*
G54D13*
X63450Y-21250D03*
X64050Y-21250D03*
G54D14*
X63250Y-26750D03*
G54D15*
X64250Y-26750D03*
X63250Y-25750D03*
X64250Y-25750D03*
X63250Y-24750D03*
X64250Y-24750D03*
X63250Y-23750D03*
X64250Y-23750D03*
X63250Y-22750D03*
X64250Y-22750D03*
G54D16*
X51502Y-26250D03*
X53498Y-25250D03*
X51502Y-24250D03*
X53498Y-23250D03*
G54D17*
X60304Y-24691D03*
G54D18*
X59750Y-24085D02*
X59750Y-24691D01*
X59750Y-24691D02*
X60304Y-24691D01*
X59799Y-21250D02*
X63450Y-21250D01*
X57765Y-23284D02*
X59799Y-21250D01*
X57765Y-24751D02*
X57765Y-23284D01*
X57928Y-24914D02*
X57765Y-24751D01*
X59527Y-24914D02*
X57928Y-24914D01*
X59750Y-24691D02*
X59527Y-24914D01*
X59250Y-24085D02*
X59250Y-24691D01*
X64777Y-23223D02*
X64250Y-23750D01*
X64777Y-22270D02*
X64777Y-23223D01*
X64369Y-21862D02*
X64777Y-22270D01*
X59529Y-21862D02*
X64369Y-21862D01*
X57988Y-23403D02*
X59529Y-21862D01*
X57988Y-24658D02*
X57988Y-23403D01*
X58021Y-24691D02*
X57988Y-24658D01*
X59250Y-24691D02*
X58021Y-24691D01*
X58499Y-26771D02*
X58250Y-26522D01*
X61229Y-26771D02*
X58499Y-26771D01*
X63250Y-24750D02*
X61229Y-26771D01*
X58250Y-25916D02*
X58250Y-26522D01*
X60478Y-26522D02*
X58750Y-26522D01*
X63250Y-23750D02*
X60478Y-26522D01*
X58750Y-25916D02*
X58750Y-26522D01*
X58750Y-24085D02*
X58750Y-23479D01*
X59479Y-22750D02*
X63250Y-22750D01*
X58750Y-23479D02*
X59479Y-22750D01*
X63696Y-22196D02*
X64250Y-22750D01*
X59511Y-22196D02*
X63696Y-22196D01*
X58250Y-23457D02*
X59511Y-22196D01*
X58250Y-24085D02*
X58250Y-23457D01*
X64988Y-25488D02*
X64250Y-24750D01*
X64988Y-27545D02*
X64988Y-25488D01*
X64721Y-27812D02*
X64988Y-27545D01*
X54477Y-27812D02*
X64721Y-27812D01*
X52915Y-26250D02*
X54477Y-27812D01*
X51502Y-26250D02*
X52915Y-26250D01*
X64764Y-26264D02*
X64250Y-25750D01*
X64764Y-27265D02*
X64764Y-26264D01*
X64463Y-27566D02*
X64764Y-27265D01*
X57227Y-27566D02*
X64463Y-27566D01*
X54911Y-25250D02*
X57227Y-27566D01*
X53498Y-25250D02*
X54911Y-25250D01*
X63658Y-27342D02*
X64250Y-26750D01*
X57611Y-27342D02*
X63658Y-27342D01*
X54519Y-24250D02*
X57611Y-27342D01*
X51502Y-24250D02*
X54519Y-24250D01*
X64050Y-21250D02*
X63762Y-21250D01*
X59741Y-20861D02*
X57252Y-23350D01*
X63661Y-20861D02*
X59741Y-20861D01*
X63762Y-20962D02*
X63661Y-20861D01*
X63762Y-21250D02*
X63762Y-20962D01*
X55011Y-23350D02*
X54911Y-23250D01*
X57252Y-23350D02*
X55011Y-23350D01*
X53498Y-23250D02*
X54911Y-23250D01*
X59750Y-25916D02*
X59750Y-25310D01*
X59250Y-25916D02*
X59250Y-25366D01*
X59306Y-25310D02*
X59750Y-25310D01*
X59250Y-25366D02*
X59306Y-25310D01*
X57252Y-24683D02*
X57792Y-25223D01*
X57252Y-23350D02*
X57252Y-24683D01*
X59107Y-25223D02*
X59250Y-25366D01*
X57792Y-25223D02*
X59107Y-25223D01*
X57792Y-26577D02*
X57792Y-25223D01*
X58306Y-27091D02*
X57792Y-26577D01*
X61909Y-27091D02*
X58306Y-27091D01*
X63250Y-25750D02*
X61909Y-27091D01*
G54D10*
G36*
X62903Y-23250D02*
X62742Y-23411D01*
X62651Y-23631D01*
X62651Y-23869D01*
X62663Y-23898D01*
X60350Y-26212D01*
X60097Y-26212D01*
X60098Y-26028D01*
X60098Y-25804D01*
X60097Y-25522D01*
X60097Y-25423D01*
X60059Y-25332D01*
X59989Y-25262D01*
X59897Y-25224D01*
X59861Y-25223D01*
X59799Y-25285D01*
X59799Y-25866D01*
X60036Y-25866D01*
X60098Y-25804D01*
X60098Y-26028D01*
X60036Y-25966D01*
X59850Y-25966D01*
X59799Y-25966D01*
X59701Y-25966D01*
X59650Y-25966D01*
X59536Y-25966D01*
X59464Y-25966D01*
X59350Y-25966D01*
X59299Y-25966D01*
X59201Y-25966D01*
X59200Y-25966D01*
X59200Y-25866D01*
X59201Y-25866D01*
X59299Y-25866D01*
X59350Y-25866D01*
X59464Y-25866D01*
X59536Y-25866D01*
X59701Y-25866D01*
X59701Y-25285D01*
X59639Y-25223D01*
X59603Y-25224D01*
X59511Y-25262D01*
X59500Y-25273D01*
X59489Y-25262D01*
X59397Y-25224D01*
X59527Y-25224D01*
X59645Y-25200D01*
X59646Y-25200D01*
X59746Y-25133D01*
X59878Y-25001D01*
X60013Y-25001D01*
X60063Y-25051D01*
X60219Y-25116D01*
X60388Y-25116D01*
X60544Y-25052D01*
X60664Y-24932D01*
X60729Y-24776D01*
X60729Y-24607D01*
X60665Y-24451D01*
X60545Y-24331D01*
X60389Y-24266D01*
X60220Y-24266D01*
X60097Y-24316D01*
X60097Y-23593D01*
X60059Y-23501D01*
X59989Y-23431D01*
X59898Y-23393D01*
X59799Y-23393D01*
X59603Y-23393D01*
X59511Y-23431D01*
X59500Y-23442D01*
X59489Y-23431D01*
X59398Y-23393D01*
X59299Y-23393D01*
X59274Y-23393D01*
X59607Y-23060D01*
X62730Y-23060D01*
X62742Y-23089D01*
X62903Y-23250D01*
X62903Y-23250D01*
G37*
G54D19*
X62903Y-23250D02*
X62742Y-23411D01*
X62651Y-23631D01*
X62651Y-23869D01*
X62663Y-23898D01*
X60350Y-26212D01*
X60097Y-26212D01*
X60098Y-26028D01*
X60098Y-25804D01*
X60097Y-25522D01*
X60097Y-25423D01*
X60059Y-25332D01*
X59989Y-25262D01*
X59897Y-25224D01*
X59861Y-25223D01*
X59799Y-25285D01*
X59799Y-25866D01*
X60036Y-25866D01*
X60098Y-25804D01*
X60098Y-26028D01*
X60036Y-25966D01*
X59850Y-25966D01*
X59799Y-25966D01*
X59701Y-25966D01*
X59650Y-25966D01*
X59536Y-25966D01*
X59464Y-25966D01*
X59350Y-25966D01*
X59299Y-25966D01*
X59201Y-25966D01*
X59200Y-25966D01*
X59200Y-25866D01*
X59201Y-25866D01*
X59299Y-25866D01*
X59350Y-25866D01*
X59464Y-25866D01*
X59536Y-25866D01*
X59701Y-25866D01*
X59701Y-25285D01*
X59639Y-25223D01*
X59603Y-25224D01*
X59511Y-25262D01*
X59500Y-25273D01*
X59489Y-25262D01*
X59397Y-25224D01*
X59527Y-25224D01*
X59645Y-25200D01*
X59646Y-25200D01*
X59746Y-25133D01*
X59878Y-25001D01*
X60013Y-25001D01*
X60063Y-25051D01*
X60219Y-25116D01*
X60388Y-25116D01*
X60544Y-25052D01*
X60664Y-24932D01*
X60729Y-24776D01*
X60729Y-24607D01*
X60665Y-24451D01*
X60545Y-24331D01*
X60389Y-24266D01*
X60220Y-24266D01*
X60097Y-24316D01*
X60097Y-23593D01*
X60059Y-23501D01*
X59989Y-23431D01*
X59898Y-23393D01*
X59799Y-23393D01*
X59603Y-23393D01*
X59511Y-23431D01*
X59500Y-23442D01*
X59489Y-23431D01*
X59398Y-23393D01*
X59299Y-23393D01*
X59274Y-23393D01*
X59607Y-23060D01*
X62730Y-23060D01*
X62742Y-23089D01*
X62903Y-23250D01*
G54D10*
G36*
X63903Y-25250D02*
X63742Y-25411D01*
X63734Y-25430D01*
X63664Y-25407D01*
X63356Y-25715D01*
X63321Y-25750D01*
X63250Y-25821D01*
X63179Y-25750D01*
X63250Y-25679D01*
X63285Y-25644D01*
X63593Y-25336D01*
X63569Y-25265D01*
X63589Y-25258D01*
X63750Y-25097D01*
X63903Y-25250D01*
X63903Y-25250D01*
G37*
G54D19*
X63903Y-25250D02*
X63742Y-25411D01*
X63734Y-25430D01*
X63664Y-25407D01*
X63356Y-25715D01*
X63321Y-25750D01*
X63250Y-25821D01*
X63179Y-25750D01*
X63250Y-25679D01*
X63285Y-25644D01*
X63593Y-25336D01*
X63569Y-25265D01*
X63589Y-25258D01*
X63750Y-25097D01*
X63903Y-25250D01*
G54D10*
G36*
X67675Y-28402D02*
X67511Y-28238D01*
X67180Y-28100D01*
X66822Y-28100D01*
X66491Y-28237D01*
X66238Y-28489D01*
X66100Y-28820D01*
X66100Y-29178D01*
X66237Y-29509D01*
X66402Y-29675D01*
X51597Y-29675D01*
X51762Y-29511D01*
X51900Y-29180D01*
X51900Y-28822D01*
X51763Y-28491D01*
X51511Y-28238D01*
X51180Y-28100D01*
X50822Y-28100D01*
X50491Y-28237D01*
X50325Y-28402D01*
X50325Y-26749D01*
X52801Y-26749D01*
X52893Y-26711D01*
X52915Y-26688D01*
X54258Y-28031D01*
X54358Y-28098D01*
X54359Y-28098D01*
X54477Y-28122D01*
X64721Y-28122D01*
X64839Y-28098D01*
X64840Y-28098D01*
X64940Y-28031D01*
X65207Y-27765D01*
X65207Y-27764D01*
X65274Y-27664D01*
X65297Y-27545D01*
X65298Y-27545D01*
X65298Y-25488D01*
X65274Y-25369D01*
X65207Y-25269D01*
X65207Y-25268D01*
X64836Y-24898D01*
X64849Y-24869D01*
X64849Y-24631D01*
X64758Y-24411D01*
X64597Y-24250D01*
X64758Y-24089D01*
X64849Y-23869D01*
X64849Y-23631D01*
X64836Y-23601D01*
X64996Y-23442D01*
X65063Y-23342D01*
X65063Y-23341D01*
X65087Y-23223D01*
X65087Y-22270D01*
X65086Y-22269D01*
X65063Y-22151D01*
X64996Y-22051D01*
X64995Y-22050D01*
X64588Y-21643D01*
X64488Y-21576D01*
X64409Y-21560D01*
X64424Y-21525D01*
X64424Y-21426D01*
X64425Y-21362D01*
X64425Y-21138D01*
X64424Y-21074D01*
X64424Y-20975D01*
X64386Y-20884D01*
X64316Y-20814D01*
X64224Y-20776D01*
X64162Y-20775D01*
X64100Y-20837D01*
X64100Y-21200D01*
X64363Y-21200D01*
X64425Y-21138D01*
X64425Y-21362D01*
X64363Y-21300D01*
X64150Y-21300D01*
X64100Y-21300D01*
X64000Y-21300D01*
X64000Y-21200D01*
X64000Y-21150D01*
X64000Y-20837D01*
X63938Y-20775D01*
X63876Y-20776D01*
X63784Y-20814D01*
X63750Y-20848D01*
X63716Y-20814D01*
X63625Y-20776D01*
X63526Y-20776D01*
X63276Y-20776D01*
X63184Y-20814D01*
X63114Y-20884D01*
X63090Y-20940D01*
X59799Y-20940D01*
X59680Y-20964D01*
X59630Y-20997D01*
X59579Y-21031D01*
X57546Y-23065D01*
X57479Y-23165D01*
X57455Y-23284D01*
X57455Y-24751D01*
X57479Y-24870D01*
X57546Y-24970D01*
X57708Y-25133D01*
X57709Y-25133D01*
X57759Y-25166D01*
X57809Y-25200D01*
X57810Y-25200D01*
X57928Y-25224D01*
X58103Y-25224D01*
X58011Y-25262D01*
X57941Y-25332D01*
X57903Y-25423D01*
X57903Y-25522D01*
X57903Y-26408D01*
X57940Y-26497D01*
X57940Y-26522D01*
X57964Y-26641D01*
X58031Y-26741D01*
X58280Y-26990D01*
X58342Y-27032D01*
X57739Y-27032D01*
X54998Y-24291D01*
X54998Y-23362D01*
X54998Y-23138D01*
X54997Y-22951D01*
X54959Y-22859D01*
X54889Y-22789D01*
X54798Y-22751D01*
X54699Y-22751D01*
X53610Y-22750D01*
X53548Y-22812D01*
X53548Y-23200D01*
X54936Y-23200D01*
X54998Y-23138D01*
X54998Y-23362D01*
X54936Y-23300D01*
X53548Y-23300D01*
X53548Y-23688D01*
X53610Y-23750D01*
X54699Y-23749D01*
X54798Y-23749D01*
X54889Y-23711D01*
X54959Y-23641D01*
X54997Y-23549D01*
X54998Y-23362D01*
X54998Y-24291D01*
X54738Y-24031D01*
X54638Y-23964D01*
X54519Y-23940D01*
X53448Y-23940D01*
X53448Y-23688D01*
X53448Y-23300D01*
X53448Y-23200D01*
X53448Y-22812D01*
X53386Y-22750D01*
X52297Y-22751D01*
X52198Y-22751D01*
X52107Y-22789D01*
X52037Y-22859D01*
X51999Y-22951D01*
X51998Y-23138D01*
X52060Y-23200D01*
X53448Y-23200D01*
X53448Y-23300D01*
X52060Y-23300D01*
X51998Y-23362D01*
X51999Y-23549D01*
X52037Y-23641D01*
X52107Y-23711D01*
X52198Y-23749D01*
X52297Y-23749D01*
X53386Y-23750D01*
X53448Y-23688D01*
X53448Y-23940D01*
X52996Y-23940D01*
X52963Y-23859D01*
X52893Y-23789D01*
X52802Y-23751D01*
X52703Y-23751D01*
X50325Y-23751D01*
X50325Y-21597D01*
X50489Y-21762D01*
X50820Y-21900D01*
X51178Y-21900D01*
X51509Y-21763D01*
X51762Y-21511D01*
X51900Y-21180D01*
X51900Y-20822D01*
X51763Y-20491D01*
X51597Y-20325D01*
X66402Y-20325D01*
X66238Y-20489D01*
X66100Y-20820D01*
X66100Y-21178D01*
X66237Y-21509D01*
X66489Y-21762D01*
X66820Y-21900D01*
X67178Y-21900D01*
X67509Y-21763D01*
X67675Y-21597D01*
X67675Y-28402D01*
X67675Y-28402D01*
G37*
G54D19*
X67675Y-28402D02*
X67511Y-28238D01*
X67180Y-28100D01*
X66822Y-28100D01*
X66491Y-28237D01*
X66238Y-28489D01*
X66100Y-28820D01*
X66100Y-29178D01*
X66237Y-29509D01*
X66402Y-29675D01*
X51597Y-29675D01*
X51762Y-29511D01*
X51900Y-29180D01*
X51900Y-28822D01*
X51763Y-28491D01*
X51511Y-28238D01*
X51180Y-28100D01*
X50822Y-28100D01*
X50491Y-28237D01*
X50325Y-28402D01*
X50325Y-26749D01*
X52801Y-26749D01*
X52893Y-26711D01*
X52915Y-26688D01*
X54258Y-28031D01*
X54358Y-28098D01*
X54359Y-28098D01*
X54477Y-28122D01*
X64721Y-28122D01*
X64839Y-28098D01*
X64840Y-28098D01*
X64940Y-28031D01*
X65207Y-27765D01*
X65207Y-27764D01*
X65274Y-27664D01*
X65297Y-27545D01*
X65298Y-27545D01*
X65298Y-25488D01*
X65274Y-25369D01*
X65207Y-25269D01*
X65207Y-25268D01*
X64836Y-24898D01*
X64849Y-24869D01*
X64849Y-24631D01*
X64758Y-24411D01*
X64597Y-24250D01*
X64758Y-24089D01*
X64849Y-23869D01*
X64849Y-23631D01*
X64836Y-23601D01*
X64996Y-23442D01*
X65063Y-23342D01*
X65063Y-23341D01*
X65087Y-23223D01*
X65087Y-22270D01*
X65086Y-22269D01*
X65063Y-22151D01*
X64996Y-22051D01*
X64995Y-22050D01*
X64588Y-21643D01*
X64488Y-21576D01*
X64409Y-21560D01*
X64424Y-21525D01*
X64424Y-21426D01*
X64425Y-21362D01*
X64425Y-21138D01*
X64424Y-21074D01*
X64424Y-20975D01*
X64386Y-20884D01*
X64316Y-20814D01*
X64224Y-20776D01*
X64162Y-20775D01*
X64100Y-20837D01*
X64100Y-21200D01*
X64363Y-21200D01*
X64425Y-21138D01*
X64425Y-21362D01*
X64363Y-21300D01*
X64150Y-21300D01*
X64100Y-21300D01*
X64000Y-21300D01*
X64000Y-21200D01*
X64000Y-21150D01*
X64000Y-20837D01*
X63938Y-20775D01*
X63876Y-20776D01*
X63784Y-20814D01*
X63750Y-20848D01*
X63716Y-20814D01*
X63625Y-20776D01*
X63526Y-20776D01*
X63276Y-20776D01*
X63184Y-20814D01*
X63114Y-20884D01*
X63090Y-20940D01*
X59799Y-20940D01*
X59680Y-20964D01*
X59630Y-20997D01*
X59579Y-21031D01*
X57546Y-23065D01*
X57479Y-23165D01*
X57455Y-23284D01*
X57455Y-24751D01*
X57479Y-24870D01*
X57546Y-24970D01*
X57708Y-25133D01*
X57709Y-25133D01*
X57759Y-25166D01*
X57809Y-25200D01*
X57810Y-25200D01*
X57928Y-25224D01*
X58103Y-25224D01*
X58011Y-25262D01*
X57941Y-25332D01*
X57903Y-25423D01*
X57903Y-25522D01*
X57903Y-26408D01*
X57940Y-26497D01*
X57940Y-26522D01*
X57964Y-26641D01*
X58031Y-26741D01*
X58280Y-26990D01*
X58342Y-27032D01*
X57739Y-27032D01*
X54998Y-24291D01*
X54998Y-23362D01*
X54998Y-23138D01*
X54997Y-22951D01*
X54959Y-22859D01*
X54889Y-22789D01*
X54798Y-22751D01*
X54699Y-22751D01*
X53610Y-22750D01*
X53548Y-22812D01*
X53548Y-23200D01*
X54936Y-23200D01*
X54998Y-23138D01*
X54998Y-23362D01*
X54936Y-23300D01*
X53548Y-23300D01*
X53548Y-23688D01*
X53610Y-23750D01*
X54699Y-23749D01*
X54798Y-23749D01*
X54889Y-23711D01*
X54959Y-23641D01*
X54997Y-23549D01*
X54998Y-23362D01*
X54998Y-24291D01*
X54738Y-24031D01*
X54638Y-23964D01*
X54519Y-23940D01*
X53448Y-23940D01*
X53448Y-23688D01*
X53448Y-23300D01*
X53448Y-23200D01*
X53448Y-22812D01*
X53386Y-22750D01*
X52297Y-22751D01*
X52198Y-22751D01*
X52107Y-22789D01*
X52037Y-22859D01*
X51999Y-22951D01*
X51998Y-23138D01*
X52060Y-23200D01*
X53448Y-23200D01*
X53448Y-23300D01*
X52060Y-23300D01*
X51998Y-23362D01*
X51999Y-23549D01*
X52037Y-23641D01*
X52107Y-23711D01*
X52198Y-23749D01*
X52297Y-23749D01*
X53386Y-23750D01*
X53448Y-23688D01*
X53448Y-23940D01*
X52996Y-23940D01*
X52963Y-23859D01*
X52893Y-23789D01*
X52802Y-23751D01*
X52703Y-23751D01*
X50325Y-23751D01*
X50325Y-21597D01*
X50489Y-21762D01*
X50820Y-21900D01*
X51178Y-21900D01*
X51509Y-21763D01*
X51762Y-21511D01*
X51900Y-21180D01*
X51900Y-20822D01*
X51763Y-20491D01*
X51597Y-20325D01*
X66402Y-20325D01*
X66238Y-20489D01*
X66100Y-20820D01*
X66100Y-21178D01*
X66237Y-21509D01*
X66489Y-21762D01*
X66820Y-21900D01*
X67178Y-21900D01*
X67509Y-21763D01*
X67675Y-21597D01*
X67675Y-28402D01*
M02*
