G04 (created by PCBNEW-RS274X (2011-07-19)-testing) date Fri 02 Mar 2012 03:23:15 PM PST*
G01*
G70*
G90*
%MOIN*%
G04 Gerber Fmt 3.4, Leading zero omitted, Abs format*
%FSLAX34Y34*%
G04 APERTURE LIST*
%ADD10C,0.006000*%
%ADD11C,0.130000*%
%ADD12R,0.070000X0.070000*%
%ADD13C,0.070000*%
%ADD14C,0.035000*%
%ADD15C,0.012000*%
%ADD16C,0.010000*%
G04 APERTURE END LIST*
G54D10*
G54D11*
X67000Y-21000D03*
X51000Y-21000D03*
X67000Y-29000D03*
X51000Y-29000D03*
G54D12*
X63250Y-26750D03*
G54D13*
X64250Y-26750D03*
X63250Y-25750D03*
X64250Y-25750D03*
X63250Y-24750D03*
X64250Y-24750D03*
X63250Y-23750D03*
X64250Y-23750D03*
X63250Y-22750D03*
X64250Y-22750D03*
G54D14*
X60304Y-24691D03*
G54D15*
X62363Y-26750D02*
X60304Y-24691D01*
X63250Y-26750D02*
X62363Y-26750D01*
G54D10*
G36*
X67675Y-28402D02*
X67511Y-28238D01*
X67180Y-28100D01*
X66822Y-28100D01*
X66491Y-28237D01*
X66238Y-28489D01*
X66100Y-28820D01*
X66100Y-29178D01*
X66237Y-29509D01*
X66402Y-29675D01*
X64849Y-29675D01*
X64849Y-26869D01*
X64849Y-26631D01*
X64758Y-26411D01*
X64597Y-26250D01*
X64758Y-26089D01*
X64849Y-25869D01*
X64849Y-25631D01*
X64758Y-25411D01*
X64597Y-25250D01*
X64758Y-25089D01*
X64849Y-24869D01*
X64849Y-24631D01*
X64758Y-24411D01*
X64597Y-24250D01*
X64758Y-24089D01*
X64849Y-23869D01*
X64849Y-23631D01*
X64758Y-23411D01*
X64597Y-23250D01*
X64758Y-23089D01*
X64849Y-22869D01*
X64849Y-22631D01*
X64758Y-22411D01*
X64589Y-22242D01*
X64369Y-22151D01*
X64131Y-22151D01*
X63911Y-22242D01*
X63750Y-22403D01*
X63589Y-22242D01*
X63369Y-22151D01*
X63131Y-22151D01*
X62911Y-22242D01*
X62742Y-22411D01*
X62651Y-22631D01*
X62651Y-22869D01*
X62742Y-23089D01*
X62903Y-23250D01*
X62742Y-23411D01*
X62651Y-23631D01*
X62651Y-23869D01*
X62742Y-24089D01*
X62903Y-24250D01*
X62742Y-24411D01*
X62651Y-24631D01*
X62651Y-24869D01*
X62742Y-25089D01*
X62911Y-25258D01*
X62930Y-25265D01*
X62907Y-25336D01*
X63250Y-25679D01*
X63593Y-25336D01*
X63569Y-25265D01*
X63589Y-25258D01*
X63750Y-25097D01*
X63903Y-25250D01*
X63742Y-25411D01*
X63734Y-25430D01*
X63664Y-25407D01*
X63356Y-25715D01*
X63321Y-25750D01*
X63250Y-25821D01*
X63179Y-25750D01*
X63144Y-25715D01*
X62836Y-25407D01*
X62737Y-25440D01*
X62657Y-25659D01*
X62668Y-25894D01*
X62737Y-26060D01*
X62783Y-26075D01*
X62748Y-26111D01*
X62806Y-26169D01*
X62759Y-26189D01*
X62689Y-26259D01*
X62651Y-26350D01*
X62651Y-26440D01*
X62491Y-26440D01*
X60729Y-24677D01*
X60729Y-24607D01*
X60665Y-24451D01*
X60545Y-24331D01*
X60389Y-24266D01*
X60220Y-24266D01*
X60064Y-24330D01*
X59944Y-24450D01*
X59879Y-24606D01*
X59879Y-24775D01*
X59943Y-24931D01*
X60063Y-25051D01*
X60219Y-25116D01*
X60290Y-25116D01*
X62143Y-26969D01*
X62144Y-26969D01*
X62244Y-27036D01*
X62362Y-27059D01*
X62363Y-27060D01*
X62651Y-27060D01*
X62651Y-27149D01*
X62689Y-27241D01*
X62759Y-27311D01*
X62850Y-27349D01*
X62949Y-27349D01*
X63649Y-27349D01*
X63741Y-27311D01*
X63811Y-27241D01*
X63835Y-27182D01*
X63911Y-27258D01*
X64131Y-27349D01*
X64369Y-27349D01*
X64589Y-27258D01*
X64758Y-27089D01*
X64849Y-26869D01*
X64849Y-29675D01*
X51597Y-29675D01*
X51762Y-29511D01*
X51900Y-29180D01*
X51900Y-28822D01*
X51763Y-28491D01*
X51511Y-28238D01*
X51180Y-28100D01*
X50822Y-28100D01*
X50491Y-28237D01*
X50325Y-28402D01*
X50325Y-21597D01*
X50489Y-21762D01*
X50820Y-21900D01*
X51178Y-21900D01*
X51509Y-21763D01*
X51762Y-21511D01*
X51900Y-21180D01*
X51900Y-20822D01*
X51763Y-20491D01*
X51597Y-20325D01*
X66402Y-20325D01*
X66238Y-20489D01*
X66100Y-20820D01*
X66100Y-21178D01*
X66237Y-21509D01*
X66489Y-21762D01*
X66820Y-21900D01*
X67178Y-21900D01*
X67509Y-21763D01*
X67675Y-21597D01*
X67675Y-28402D01*
X67675Y-28402D01*
G37*
G54D16*
X67675Y-28402D02*
X67511Y-28238D01*
X67180Y-28100D01*
X66822Y-28100D01*
X66491Y-28237D01*
X66238Y-28489D01*
X66100Y-28820D01*
X66100Y-29178D01*
X66237Y-29509D01*
X66402Y-29675D01*
X64849Y-29675D01*
X64849Y-26869D01*
X64849Y-26631D01*
X64758Y-26411D01*
X64597Y-26250D01*
X64758Y-26089D01*
X64849Y-25869D01*
X64849Y-25631D01*
X64758Y-25411D01*
X64597Y-25250D01*
X64758Y-25089D01*
X64849Y-24869D01*
X64849Y-24631D01*
X64758Y-24411D01*
X64597Y-24250D01*
X64758Y-24089D01*
X64849Y-23869D01*
X64849Y-23631D01*
X64758Y-23411D01*
X64597Y-23250D01*
X64758Y-23089D01*
X64849Y-22869D01*
X64849Y-22631D01*
X64758Y-22411D01*
X64589Y-22242D01*
X64369Y-22151D01*
X64131Y-22151D01*
X63911Y-22242D01*
X63750Y-22403D01*
X63589Y-22242D01*
X63369Y-22151D01*
X63131Y-22151D01*
X62911Y-22242D01*
X62742Y-22411D01*
X62651Y-22631D01*
X62651Y-22869D01*
X62742Y-23089D01*
X62903Y-23250D01*
X62742Y-23411D01*
X62651Y-23631D01*
X62651Y-23869D01*
X62742Y-24089D01*
X62903Y-24250D01*
X62742Y-24411D01*
X62651Y-24631D01*
X62651Y-24869D01*
X62742Y-25089D01*
X62911Y-25258D01*
X62930Y-25265D01*
X62907Y-25336D01*
X63250Y-25679D01*
X63593Y-25336D01*
X63569Y-25265D01*
X63589Y-25258D01*
X63750Y-25097D01*
X63903Y-25250D01*
X63742Y-25411D01*
X63734Y-25430D01*
X63664Y-25407D01*
X63356Y-25715D01*
X63321Y-25750D01*
X63250Y-25821D01*
X63179Y-25750D01*
X63144Y-25715D01*
X62836Y-25407D01*
X62737Y-25440D01*
X62657Y-25659D01*
X62668Y-25894D01*
X62737Y-26060D01*
X62783Y-26075D01*
X62748Y-26111D01*
X62806Y-26169D01*
X62759Y-26189D01*
X62689Y-26259D01*
X62651Y-26350D01*
X62651Y-26440D01*
X62491Y-26440D01*
X60729Y-24677D01*
X60729Y-24607D01*
X60665Y-24451D01*
X60545Y-24331D01*
X60389Y-24266D01*
X60220Y-24266D01*
X60064Y-24330D01*
X59944Y-24450D01*
X59879Y-24606D01*
X59879Y-24775D01*
X59943Y-24931D01*
X60063Y-25051D01*
X60219Y-25116D01*
X60290Y-25116D01*
X62143Y-26969D01*
X62144Y-26969D01*
X62244Y-27036D01*
X62362Y-27059D01*
X62363Y-27060D01*
X62651Y-27060D01*
X62651Y-27149D01*
X62689Y-27241D01*
X62759Y-27311D01*
X62850Y-27349D01*
X62949Y-27349D01*
X63649Y-27349D01*
X63741Y-27311D01*
X63811Y-27241D01*
X63835Y-27182D01*
X63911Y-27258D01*
X64131Y-27349D01*
X64369Y-27349D01*
X64589Y-27258D01*
X64758Y-27089D01*
X64849Y-26869D01*
X64849Y-29675D01*
X51597Y-29675D01*
X51762Y-29511D01*
X51900Y-29180D01*
X51900Y-28822D01*
X51763Y-28491D01*
X51511Y-28238D01*
X51180Y-28100D01*
X50822Y-28100D01*
X50491Y-28237D01*
X50325Y-28402D01*
X50325Y-21597D01*
X50489Y-21762D01*
X50820Y-21900D01*
X51178Y-21900D01*
X51509Y-21763D01*
X51762Y-21511D01*
X51900Y-21180D01*
X51900Y-20822D01*
X51763Y-20491D01*
X51597Y-20325D01*
X66402Y-20325D01*
X66238Y-20489D01*
X66100Y-20820D01*
X66100Y-21178D01*
X66237Y-21509D01*
X66489Y-21762D01*
X66820Y-21900D01*
X67178Y-21900D01*
X67509Y-21763D01*
X67675Y-21597D01*
X67675Y-28402D01*
M02*
