G04 (created by PCBNEW-RS274X (2011-07-19)-testing) date Fri 10 Feb 2012 01:24:02 PM PST*
G01*
G70*
G90*
%MOIN*%
G04 Gerber Fmt 3.4, Leading zero omitted, Abs format*
%FSLAX34Y34*%
G04 APERTURE LIST*
%ADD10C,0.006000*%
%ADD11C,0.007900*%
%ADD12C,0.012000*%
%ADD13C,0.005000*%
%ADD14C,0.015000*%
G04 APERTURE END LIST*
G54D10*
G54D11*
X42366Y-26659D02*
X42366Y-26265D01*
X42366Y-26416D02*
X42403Y-26397D01*
X42478Y-26397D01*
X42516Y-26416D01*
X42535Y-26434D01*
X42553Y-26472D01*
X42553Y-26584D01*
X42535Y-26622D01*
X42516Y-26641D01*
X42478Y-26659D01*
X42403Y-26659D01*
X42366Y-26641D01*
X42778Y-26659D02*
X42741Y-26641D01*
X42722Y-26603D01*
X42722Y-26265D01*
X43097Y-26397D02*
X43097Y-26659D01*
X42928Y-26397D02*
X42928Y-26603D01*
X42947Y-26641D01*
X42984Y-26659D01*
X43040Y-26659D01*
X43078Y-26641D01*
X43097Y-26622D01*
X43434Y-26641D02*
X43396Y-26659D01*
X43321Y-26659D01*
X43284Y-26641D01*
X43265Y-26603D01*
X43265Y-26453D01*
X43284Y-26416D01*
X43321Y-26397D01*
X43396Y-26397D01*
X43434Y-26416D01*
X43453Y-26453D01*
X43453Y-26491D01*
X43265Y-26528D01*
X42147Y-25397D02*
X42147Y-25716D01*
X42128Y-25753D01*
X42109Y-25772D01*
X42072Y-25791D01*
X42015Y-25791D01*
X41978Y-25772D01*
X42147Y-25641D02*
X42109Y-25659D01*
X42034Y-25659D01*
X41997Y-25641D01*
X41978Y-25622D01*
X41959Y-25584D01*
X41959Y-25472D01*
X41978Y-25434D01*
X41997Y-25416D01*
X42034Y-25397D01*
X42109Y-25397D01*
X42147Y-25416D01*
X42334Y-25659D02*
X42334Y-25397D01*
X42334Y-25472D02*
X42353Y-25434D01*
X42371Y-25416D01*
X42409Y-25397D01*
X42446Y-25397D01*
X42728Y-25641D02*
X42690Y-25659D01*
X42615Y-25659D01*
X42578Y-25641D01*
X42559Y-25603D01*
X42559Y-25453D01*
X42578Y-25416D01*
X42615Y-25397D01*
X42690Y-25397D01*
X42728Y-25416D01*
X42747Y-25453D01*
X42747Y-25491D01*
X42559Y-25528D01*
X43066Y-25641D02*
X43028Y-25659D01*
X42953Y-25659D01*
X42916Y-25641D01*
X42897Y-25603D01*
X42897Y-25453D01*
X42916Y-25416D01*
X42953Y-25397D01*
X43028Y-25397D01*
X43066Y-25416D01*
X43085Y-25453D01*
X43085Y-25491D01*
X42897Y-25528D01*
X43254Y-25397D02*
X43254Y-25659D01*
X43254Y-25434D02*
X43273Y-25416D01*
X43310Y-25397D01*
X43366Y-25397D01*
X43404Y-25416D01*
X43423Y-25453D01*
X43423Y-25659D01*
X42700Y-23284D02*
X42663Y-23265D01*
X42606Y-23265D01*
X42550Y-23284D01*
X42513Y-23322D01*
X42494Y-23359D01*
X42475Y-23434D01*
X42475Y-23491D01*
X42494Y-23566D01*
X42513Y-23603D01*
X42550Y-23641D01*
X42606Y-23659D01*
X42644Y-23659D01*
X42700Y-23641D01*
X42719Y-23622D01*
X42719Y-23491D01*
X42644Y-23491D01*
X42888Y-23659D02*
X42888Y-23265D01*
X43113Y-23659D01*
X43113Y-23265D01*
X43301Y-23659D02*
X43301Y-23265D01*
X43395Y-23265D01*
X43451Y-23284D01*
X43488Y-23322D01*
X43507Y-23359D01*
X43526Y-23434D01*
X43526Y-23491D01*
X43507Y-23566D01*
X43488Y-23603D01*
X43451Y-23641D01*
X43395Y-23659D01*
X43301Y-23659D01*
G54D12*
X36043Y-21324D02*
X36043Y-20524D01*
X36443Y-20524D02*
X36557Y-20524D01*
X36615Y-20562D01*
X36672Y-20638D01*
X36700Y-20790D01*
X36700Y-21057D01*
X36672Y-21210D01*
X36615Y-21286D01*
X36557Y-21324D01*
X36443Y-21324D01*
X36386Y-21286D01*
X36329Y-21210D01*
X36300Y-21057D01*
X36300Y-20790D01*
X36329Y-20638D01*
X36386Y-20562D01*
X36443Y-20524D01*
X37758Y-21324D02*
X37558Y-20943D01*
X37415Y-21324D02*
X37415Y-20524D01*
X37643Y-20524D01*
X37701Y-20562D01*
X37729Y-20600D01*
X37758Y-20676D01*
X37758Y-20790D01*
X37729Y-20867D01*
X37701Y-20905D01*
X37643Y-20943D01*
X37415Y-20943D01*
X38101Y-21324D02*
X38043Y-21286D01*
X38015Y-21248D01*
X37986Y-21171D01*
X37986Y-20943D01*
X38015Y-20867D01*
X38043Y-20829D01*
X38101Y-20790D01*
X38186Y-20790D01*
X38243Y-20829D01*
X38272Y-20867D01*
X38301Y-20943D01*
X38301Y-21171D01*
X38272Y-21248D01*
X38243Y-21286D01*
X38186Y-21324D01*
X38101Y-21324D01*
X38815Y-21324D02*
X38815Y-20524D01*
X38815Y-21286D02*
X38758Y-21324D01*
X38644Y-21324D01*
X38586Y-21286D01*
X38558Y-21248D01*
X38529Y-21171D01*
X38529Y-20943D01*
X38558Y-20867D01*
X38586Y-20829D01*
X38644Y-20790D01*
X38758Y-20790D01*
X38815Y-20829D01*
X39329Y-21286D02*
X39272Y-21324D01*
X39158Y-21324D01*
X39101Y-21286D01*
X39072Y-21210D01*
X39072Y-20905D01*
X39101Y-20829D01*
X39158Y-20790D01*
X39272Y-20790D01*
X39329Y-20829D01*
X39358Y-20905D01*
X39358Y-20981D01*
X39072Y-21057D01*
X39701Y-21324D02*
X39643Y-21286D01*
X39615Y-21248D01*
X39586Y-21171D01*
X39586Y-20943D01*
X39615Y-20867D01*
X39643Y-20829D01*
X39701Y-20790D01*
X39786Y-20790D01*
X39843Y-20829D01*
X39872Y-20867D01*
X39901Y-20943D01*
X39901Y-21171D01*
X39872Y-21248D01*
X39843Y-21286D01*
X39786Y-21324D01*
X39701Y-21324D01*
X40615Y-21324D02*
X40615Y-20524D01*
X40901Y-20790D02*
X40901Y-21324D01*
X40901Y-20867D02*
X40929Y-20829D01*
X40987Y-20790D01*
X41072Y-20790D01*
X41129Y-20829D01*
X41158Y-20905D01*
X41158Y-21324D01*
X41701Y-21286D02*
X41644Y-21324D01*
X41530Y-21324D01*
X41472Y-21286D01*
X41444Y-21248D01*
X41415Y-21171D01*
X41415Y-20943D01*
X41444Y-20867D01*
X41472Y-20829D01*
X41530Y-20790D01*
X41644Y-20790D01*
X41701Y-20829D01*
X41958Y-21248D02*
X41986Y-21286D01*
X41958Y-21324D01*
X41929Y-21286D01*
X41958Y-21248D01*
X41958Y-21324D01*
G54D11*
X42725Y-24659D02*
X42725Y-24397D01*
X42725Y-24472D02*
X42744Y-24434D01*
X42762Y-24416D01*
X42800Y-24397D01*
X42837Y-24397D01*
X43119Y-24641D02*
X43081Y-24659D01*
X43006Y-24659D01*
X42969Y-24641D01*
X42950Y-24603D01*
X42950Y-24453D01*
X42969Y-24416D01*
X43006Y-24397D01*
X43081Y-24397D01*
X43119Y-24416D01*
X43138Y-24453D01*
X43138Y-24491D01*
X42950Y-24528D01*
X43476Y-24659D02*
X43476Y-24265D01*
X43476Y-24641D02*
X43438Y-24659D01*
X43363Y-24659D01*
X43326Y-24641D01*
X43307Y-24622D01*
X43288Y-24584D01*
X43288Y-24472D01*
X43307Y-24434D01*
X43326Y-24416D01*
X43363Y-24397D01*
X43438Y-24397D01*
X43476Y-24416D01*
G54D12*
X33394Y-29248D02*
X33365Y-29286D01*
X33279Y-29324D01*
X33222Y-29324D01*
X33137Y-29286D01*
X33079Y-29210D01*
X33051Y-29133D01*
X33022Y-28981D01*
X33022Y-28867D01*
X33051Y-28714D01*
X33079Y-28638D01*
X33137Y-28562D01*
X33222Y-28524D01*
X33279Y-28524D01*
X33365Y-28562D01*
X33394Y-28600D01*
X33737Y-29324D02*
X33679Y-29286D01*
X33651Y-29248D01*
X33622Y-29171D01*
X33622Y-28943D01*
X33651Y-28867D01*
X33679Y-28829D01*
X33737Y-28790D01*
X33822Y-28790D01*
X33879Y-28829D01*
X33908Y-28867D01*
X33937Y-28943D01*
X33937Y-29171D01*
X33908Y-29248D01*
X33879Y-29286D01*
X33822Y-29324D01*
X33737Y-29324D01*
X34280Y-29324D02*
X34222Y-29286D01*
X34194Y-29210D01*
X34194Y-28524D01*
X34594Y-29324D02*
X34536Y-29286D01*
X34508Y-29248D01*
X34479Y-29171D01*
X34479Y-28943D01*
X34508Y-28867D01*
X34536Y-28829D01*
X34594Y-28790D01*
X34679Y-28790D01*
X34736Y-28829D01*
X34765Y-28867D01*
X34794Y-28943D01*
X34794Y-29171D01*
X34765Y-29248D01*
X34736Y-29286D01*
X34679Y-29324D01*
X34594Y-29324D01*
X35051Y-29324D02*
X35051Y-28790D01*
X35051Y-28943D02*
X35079Y-28867D01*
X35108Y-28829D01*
X35165Y-28790D01*
X35222Y-28790D01*
X35422Y-29324D02*
X35422Y-28790D01*
X35422Y-28524D02*
X35393Y-28562D01*
X35422Y-28600D01*
X35450Y-28562D01*
X35422Y-28524D01*
X35422Y-28600D01*
X35708Y-29324D02*
X35708Y-28790D01*
X35708Y-28867D02*
X35736Y-28829D01*
X35794Y-28790D01*
X35879Y-28790D01*
X35936Y-28829D01*
X35965Y-28905D01*
X35965Y-29324D01*
X35965Y-28905D02*
X35994Y-28829D01*
X36051Y-28790D01*
X36136Y-28790D01*
X36194Y-28829D01*
X36222Y-28905D01*
X36222Y-29324D01*
X36736Y-29286D02*
X36679Y-29324D01*
X36565Y-29324D01*
X36508Y-29286D01*
X36479Y-29210D01*
X36479Y-28905D01*
X36508Y-28829D01*
X36565Y-28790D01*
X36679Y-28790D01*
X36736Y-28829D01*
X36765Y-28905D01*
X36765Y-28981D01*
X36479Y-29057D01*
X36936Y-28790D02*
X37165Y-28790D01*
X37022Y-28524D02*
X37022Y-29210D01*
X37050Y-29286D01*
X37108Y-29324D01*
X37165Y-29324D01*
X37593Y-29286D02*
X37536Y-29324D01*
X37422Y-29324D01*
X37365Y-29286D01*
X37336Y-29210D01*
X37336Y-28905D01*
X37365Y-28829D01*
X37422Y-28790D01*
X37536Y-28790D01*
X37593Y-28829D01*
X37622Y-28905D01*
X37622Y-28981D01*
X37336Y-29057D01*
X37879Y-29324D02*
X37879Y-28790D01*
X37879Y-28943D02*
X37907Y-28867D01*
X37936Y-28829D01*
X37993Y-28790D01*
X38050Y-28790D01*
X38993Y-29324D02*
X38707Y-29324D01*
X38707Y-28524D01*
X39193Y-28905D02*
X39393Y-28905D01*
X39479Y-29324D02*
X39193Y-29324D01*
X39193Y-28524D01*
X39479Y-28524D01*
X39736Y-29324D02*
X39736Y-28524D01*
X39879Y-28524D01*
X39964Y-28562D01*
X40022Y-28638D01*
X40050Y-28714D01*
X40079Y-28867D01*
X40079Y-28981D01*
X40050Y-29133D01*
X40022Y-29210D01*
X39964Y-29286D01*
X39879Y-29324D01*
X39736Y-29324D01*
X40993Y-28905D02*
X41079Y-28943D01*
X41107Y-28981D01*
X41136Y-29057D01*
X41136Y-29171D01*
X41107Y-29248D01*
X41079Y-29286D01*
X41021Y-29324D01*
X40793Y-29324D01*
X40793Y-28524D01*
X40993Y-28524D01*
X41050Y-28562D01*
X41079Y-28600D01*
X41107Y-28676D01*
X41107Y-28752D01*
X41079Y-28829D01*
X41050Y-28867D01*
X40993Y-28905D01*
X40793Y-28905D01*
X41479Y-29324D02*
X41421Y-29286D01*
X41393Y-29248D01*
X41364Y-29171D01*
X41364Y-28943D01*
X41393Y-28867D01*
X41421Y-28829D01*
X41479Y-28790D01*
X41564Y-28790D01*
X41621Y-28829D01*
X41650Y-28867D01*
X41679Y-28943D01*
X41679Y-29171D01*
X41650Y-29248D01*
X41621Y-29286D01*
X41564Y-29324D01*
X41479Y-29324D01*
X42193Y-29324D02*
X42193Y-28905D01*
X42164Y-28829D01*
X42107Y-28790D01*
X41993Y-28790D01*
X41936Y-28829D01*
X42193Y-29286D02*
X42136Y-29324D01*
X41993Y-29324D01*
X41936Y-29286D01*
X41907Y-29210D01*
X41907Y-29133D01*
X41936Y-29057D01*
X41993Y-29019D01*
X42136Y-29019D01*
X42193Y-28981D01*
X42479Y-29324D02*
X42479Y-28790D01*
X42479Y-28943D02*
X42507Y-28867D01*
X42536Y-28829D01*
X42593Y-28790D01*
X42650Y-28790D01*
X43107Y-29324D02*
X43107Y-28524D01*
X43107Y-29286D02*
X43050Y-29324D01*
X42936Y-29324D01*
X42878Y-29286D01*
X42850Y-29248D01*
X42821Y-29171D01*
X42821Y-28943D01*
X42850Y-28867D01*
X42878Y-28829D01*
X42936Y-28790D01*
X43050Y-28790D01*
X43107Y-28829D01*
X43793Y-28790D02*
X43936Y-29324D01*
X44078Y-28790D01*
X44278Y-28600D02*
X44307Y-28562D01*
X44364Y-28524D01*
X44507Y-28524D01*
X44564Y-28562D01*
X44593Y-28600D01*
X44621Y-28676D01*
X44621Y-28752D01*
X44593Y-28867D01*
X44250Y-29324D01*
X44621Y-29324D01*
X44878Y-29248D02*
X44906Y-29286D01*
X44878Y-29324D01*
X44849Y-29286D01*
X44878Y-29248D01*
X44878Y-29324D01*
X45278Y-28524D02*
X45335Y-28524D01*
X45392Y-28562D01*
X45421Y-28600D01*
X45450Y-28676D01*
X45478Y-28829D01*
X45478Y-29019D01*
X45450Y-29171D01*
X45421Y-29248D01*
X45392Y-29286D01*
X45335Y-29324D01*
X45278Y-29324D01*
X45221Y-29286D01*
X45192Y-29248D01*
X45164Y-29171D01*
X45135Y-29019D01*
X45135Y-28829D01*
X45164Y-28676D01*
X45192Y-28600D01*
X45221Y-28562D01*
X45278Y-28524D01*
G54D13*
X33900Y-23800D02*
X33899Y-23809D01*
X33896Y-23819D01*
X33891Y-23827D01*
X33885Y-23835D01*
X33877Y-23841D01*
X33869Y-23846D01*
X33860Y-23848D01*
X33850Y-23849D01*
X33841Y-23849D01*
X33832Y-23846D01*
X33823Y-23841D01*
X33816Y-23835D01*
X33809Y-23828D01*
X33805Y-23819D01*
X33802Y-23810D01*
X33801Y-23800D01*
X33801Y-23791D01*
X33804Y-23782D01*
X33808Y-23773D01*
X33815Y-23766D01*
X33822Y-23759D01*
X33830Y-23755D01*
X33840Y-23752D01*
X33849Y-23751D01*
X33858Y-23751D01*
X33868Y-23754D01*
X33876Y-23758D01*
X33884Y-23764D01*
X33890Y-23772D01*
X33895Y-23780D01*
X33898Y-23789D01*
X33899Y-23799D01*
X33900Y-23800D01*
X34300Y-23800D02*
X33900Y-23800D01*
X33900Y-23800D02*
X33900Y-23200D01*
X33900Y-23200D02*
X34300Y-23200D01*
X34700Y-23200D02*
X35100Y-23200D01*
X35100Y-23200D02*
X35100Y-23800D01*
X35100Y-23800D02*
X34700Y-23800D01*
X33900Y-25300D02*
X33899Y-25309D01*
X33896Y-25319D01*
X33891Y-25327D01*
X33885Y-25335D01*
X33877Y-25341D01*
X33869Y-25346D01*
X33860Y-25348D01*
X33850Y-25349D01*
X33841Y-25349D01*
X33832Y-25346D01*
X33823Y-25341D01*
X33816Y-25335D01*
X33809Y-25328D01*
X33805Y-25319D01*
X33802Y-25310D01*
X33801Y-25300D01*
X33801Y-25291D01*
X33804Y-25282D01*
X33808Y-25273D01*
X33815Y-25266D01*
X33822Y-25259D01*
X33830Y-25255D01*
X33840Y-25252D01*
X33849Y-25251D01*
X33858Y-25251D01*
X33868Y-25254D01*
X33876Y-25258D01*
X33884Y-25264D01*
X33890Y-25272D01*
X33895Y-25280D01*
X33898Y-25289D01*
X33899Y-25299D01*
X33900Y-25300D01*
X34300Y-25300D02*
X33900Y-25300D01*
X33900Y-25300D02*
X33900Y-24700D01*
X33900Y-24700D02*
X34300Y-24700D01*
X34700Y-24700D02*
X35100Y-24700D01*
X35100Y-24700D02*
X35100Y-25300D01*
X35100Y-25300D02*
X34700Y-25300D01*
X33900Y-26800D02*
X33899Y-26809D01*
X33896Y-26819D01*
X33891Y-26827D01*
X33885Y-26835D01*
X33877Y-26841D01*
X33869Y-26846D01*
X33860Y-26848D01*
X33850Y-26849D01*
X33841Y-26849D01*
X33832Y-26846D01*
X33823Y-26841D01*
X33816Y-26835D01*
X33809Y-26828D01*
X33805Y-26819D01*
X33802Y-26810D01*
X33801Y-26800D01*
X33801Y-26791D01*
X33804Y-26782D01*
X33808Y-26773D01*
X33815Y-26766D01*
X33822Y-26759D01*
X33830Y-26755D01*
X33840Y-26752D01*
X33849Y-26751D01*
X33858Y-26751D01*
X33868Y-26754D01*
X33876Y-26758D01*
X33884Y-26764D01*
X33890Y-26772D01*
X33895Y-26780D01*
X33898Y-26789D01*
X33899Y-26799D01*
X33900Y-26800D01*
X34300Y-26800D02*
X33900Y-26800D01*
X33900Y-26800D02*
X33900Y-26200D01*
X33900Y-26200D02*
X34300Y-26200D01*
X34700Y-26200D02*
X35100Y-26200D01*
X35100Y-26200D02*
X35100Y-26800D01*
X35100Y-26800D02*
X34700Y-26800D01*
G54D14*
X39591Y-25984D02*
X38409Y-25984D01*
X38409Y-25984D02*
X38409Y-24213D01*
X38409Y-24213D02*
X38606Y-24016D01*
X38606Y-24016D02*
X39591Y-24016D01*
X39591Y-24016D02*
X39591Y-25984D01*
X43781Y-26969D02*
X43781Y-23031D01*
X43781Y-23031D02*
X47719Y-23031D01*
X47719Y-23031D02*
X47719Y-26969D01*
X47719Y-26969D02*
X43781Y-26969D01*
G54D13*
X33458Y-23601D02*
X33375Y-23482D01*
X33316Y-23601D02*
X33316Y-23351D01*
X33411Y-23351D01*
X33435Y-23363D01*
X33446Y-23375D01*
X33458Y-23399D01*
X33458Y-23435D01*
X33446Y-23458D01*
X33435Y-23470D01*
X33411Y-23482D01*
X33316Y-23482D01*
X33696Y-23601D02*
X33554Y-23601D01*
X33625Y-23601D02*
X33625Y-23351D01*
X33601Y-23387D01*
X33577Y-23411D01*
X33554Y-23423D01*
X35333Y-23601D02*
X35381Y-23601D01*
X35405Y-23589D01*
X35417Y-23577D01*
X35441Y-23542D01*
X35452Y-23494D01*
X35452Y-23399D01*
X35441Y-23375D01*
X35429Y-23363D01*
X35405Y-23351D01*
X35357Y-23351D01*
X35333Y-23363D01*
X35322Y-23375D01*
X35310Y-23399D01*
X35310Y-23458D01*
X35322Y-23482D01*
X35333Y-23494D01*
X35357Y-23506D01*
X35405Y-23506D01*
X35429Y-23494D01*
X35441Y-23482D01*
X35452Y-23458D01*
X35607Y-23351D02*
X35631Y-23351D01*
X35655Y-23363D01*
X35667Y-23375D01*
X35679Y-23399D01*
X35690Y-23446D01*
X35690Y-23506D01*
X35679Y-23554D01*
X35667Y-23577D01*
X35655Y-23589D01*
X35631Y-23601D01*
X35607Y-23601D01*
X35583Y-23589D01*
X35571Y-23577D01*
X35560Y-23554D01*
X35548Y-23506D01*
X35548Y-23446D01*
X35560Y-23399D01*
X35571Y-23375D01*
X35583Y-23363D01*
X35607Y-23351D01*
X33458Y-25101D02*
X33375Y-24982D01*
X33316Y-25101D02*
X33316Y-24851D01*
X33411Y-24851D01*
X33435Y-24863D01*
X33446Y-24875D01*
X33458Y-24899D01*
X33458Y-24935D01*
X33446Y-24958D01*
X33435Y-24970D01*
X33411Y-24982D01*
X33316Y-24982D01*
X33554Y-24875D02*
X33566Y-24863D01*
X33589Y-24851D01*
X33649Y-24851D01*
X33673Y-24863D01*
X33685Y-24875D01*
X33696Y-24899D01*
X33696Y-24923D01*
X33685Y-24958D01*
X33542Y-25101D01*
X33696Y-25101D01*
X35333Y-25101D02*
X35381Y-25101D01*
X35405Y-25089D01*
X35417Y-25077D01*
X35441Y-25042D01*
X35452Y-24994D01*
X35452Y-24899D01*
X35441Y-24875D01*
X35429Y-24863D01*
X35405Y-24851D01*
X35357Y-24851D01*
X35333Y-24863D01*
X35322Y-24875D01*
X35310Y-24899D01*
X35310Y-24958D01*
X35322Y-24982D01*
X35333Y-24994D01*
X35357Y-25006D01*
X35405Y-25006D01*
X35429Y-24994D01*
X35441Y-24982D01*
X35452Y-24958D01*
X35607Y-24851D02*
X35631Y-24851D01*
X35655Y-24863D01*
X35667Y-24875D01*
X35679Y-24899D01*
X35690Y-24946D01*
X35690Y-25006D01*
X35679Y-25054D01*
X35667Y-25077D01*
X35655Y-25089D01*
X35631Y-25101D01*
X35607Y-25101D01*
X35583Y-25089D01*
X35571Y-25077D01*
X35560Y-25054D01*
X35548Y-25006D01*
X35548Y-24946D01*
X35560Y-24899D01*
X35571Y-24875D01*
X35583Y-24863D01*
X35607Y-24851D01*
X33458Y-26601D02*
X33375Y-26482D01*
X33316Y-26601D02*
X33316Y-26351D01*
X33411Y-26351D01*
X33435Y-26363D01*
X33446Y-26375D01*
X33458Y-26399D01*
X33458Y-26435D01*
X33446Y-26458D01*
X33435Y-26470D01*
X33411Y-26482D01*
X33316Y-26482D01*
X33542Y-26351D02*
X33696Y-26351D01*
X33613Y-26446D01*
X33649Y-26446D01*
X33673Y-26458D01*
X33685Y-26470D01*
X33696Y-26494D01*
X33696Y-26554D01*
X33685Y-26577D01*
X33673Y-26589D01*
X33649Y-26601D01*
X33577Y-26601D01*
X33554Y-26589D01*
X33542Y-26577D01*
X35333Y-26601D02*
X35191Y-26601D01*
X35262Y-26601D02*
X35262Y-26351D01*
X35238Y-26387D01*
X35214Y-26411D01*
X35191Y-26423D01*
X35560Y-26351D02*
X35441Y-26351D01*
X35429Y-26470D01*
X35441Y-26458D01*
X35464Y-26446D01*
X35524Y-26446D01*
X35548Y-26458D01*
X35560Y-26470D01*
X35571Y-26494D01*
X35571Y-26554D01*
X35560Y-26577D01*
X35548Y-26589D01*
X35524Y-26601D01*
X35464Y-26601D01*
X35441Y-26589D01*
X35429Y-26577D01*
X35726Y-26351D02*
X35750Y-26351D01*
X35774Y-26363D01*
X35786Y-26375D01*
X35798Y-26399D01*
X35809Y-26446D01*
X35809Y-26506D01*
X35798Y-26554D01*
X35786Y-26577D01*
X35774Y-26589D01*
X35750Y-26601D01*
X35726Y-26601D01*
X35702Y-26589D01*
X35690Y-26577D01*
X35679Y-26554D01*
X35667Y-26506D01*
X35667Y-26446D01*
X35679Y-26399D01*
X35690Y-26375D01*
X35702Y-26363D01*
X35726Y-26351D01*
G54D12*
X38519Y-22970D02*
X38519Y-23456D01*
X38547Y-23513D01*
X38576Y-23541D01*
X38633Y-23570D01*
X38747Y-23570D01*
X38805Y-23541D01*
X38833Y-23513D01*
X38862Y-23456D01*
X38862Y-22970D01*
X39462Y-23570D02*
X39119Y-23570D01*
X39291Y-23570D02*
X39291Y-22970D01*
X39234Y-23056D01*
X39176Y-23113D01*
X39119Y-23141D01*
X45258Y-22643D02*
X45258Y-22043D01*
X45486Y-22043D01*
X45544Y-22071D01*
X45572Y-22100D01*
X45601Y-22157D01*
X45601Y-22243D01*
X45572Y-22300D01*
X45544Y-22329D01*
X45486Y-22357D01*
X45258Y-22357D01*
X46172Y-22643D02*
X45829Y-22643D01*
X46001Y-22643D02*
X46001Y-22043D01*
X45944Y-22129D01*
X45886Y-22186D01*
X45829Y-22214D01*
M02*
