G04 (created by PCBNEW-RS274X (2011-07-19)-testing) date Tue 10 Jan 2012 02:34:43 PM PST*
G01*
G70*
G90*
%MOIN*%
G04 Gerber Fmt 3.4, Leading zero omitted, Abs format*
%FSLAX34Y34*%
G04 APERTURE LIST*
%ADD10C,0.006000*%
%ADD11C,0.130000*%
%ADD12C,0.073000*%
%ADD13R,0.073000X0.073000*%
%ADD14C,0.053000*%
%ADD15R,0.070000X0.070000*%
%ADD16C,0.070000*%
%ADD17C,0.035000*%
%ADD18C,0.012000*%
%ADD19C,0.010000*%
G04 APERTURE END LIST*
G54D10*
G54D11*
X67000Y-21000D03*
X51000Y-21000D03*
X67000Y-29000D03*
X51000Y-29000D03*
G54D12*
X66000Y-23000D03*
G54D13*
X66000Y-24000D03*
G54D14*
X67000Y-24000D03*
X67000Y-23000D03*
G54D12*
X66000Y-26000D03*
G54D13*
X66000Y-27000D03*
G54D14*
X67000Y-27000D03*
X67000Y-26000D03*
G54D15*
X53500Y-27000D03*
G54D16*
X54500Y-27000D03*
X53500Y-26000D03*
X54500Y-26000D03*
X53500Y-25000D03*
X54500Y-25000D03*
X53500Y-24000D03*
X54500Y-24000D03*
X53500Y-23000D03*
X54500Y-23000D03*
G54D17*
X56194Y-26000D03*
G54D18*
X56500Y-27000D02*
X66000Y-27000D01*
X54500Y-25000D02*
X56500Y-27000D01*
X66000Y-26000D02*
X56194Y-26000D01*
X66528Y-25056D02*
X66000Y-24528D01*
X66528Y-27496D02*
X66528Y-25056D01*
X66495Y-27529D02*
X66528Y-27496D01*
X55029Y-27529D02*
X66495Y-27529D01*
X54500Y-27000D02*
X55029Y-27529D01*
X66000Y-24000D02*
X66000Y-24528D01*
G54D10*
G36*
X67675Y-28402D02*
X67515Y-28242D01*
X67515Y-27103D01*
X67515Y-26898D01*
X67437Y-26709D01*
X67292Y-26564D01*
X67138Y-26499D01*
X67291Y-26437D01*
X67436Y-26292D01*
X67515Y-26103D01*
X67515Y-25898D01*
X67437Y-25709D01*
X67292Y-25564D01*
X67103Y-25485D01*
X66898Y-25485D01*
X66838Y-25509D01*
X66838Y-25056D01*
X66814Y-24937D01*
X66747Y-24837D01*
X66747Y-24836D01*
X66492Y-24581D01*
X66506Y-24576D01*
X66576Y-24506D01*
X66614Y-24415D01*
X66614Y-24342D01*
X66708Y-24436D01*
X66897Y-24515D01*
X67102Y-24515D01*
X67291Y-24437D01*
X67436Y-24292D01*
X67515Y-24103D01*
X67515Y-23898D01*
X67437Y-23709D01*
X67292Y-23564D01*
X67138Y-23499D01*
X67291Y-23437D01*
X67436Y-23292D01*
X67515Y-23103D01*
X67515Y-22898D01*
X67437Y-22709D01*
X67292Y-22564D01*
X67103Y-22485D01*
X66898Y-22485D01*
X66709Y-22563D01*
X66564Y-22708D01*
X66550Y-22741D01*
X66525Y-22680D01*
X66424Y-22646D01*
X66354Y-22716D01*
X66354Y-22576D01*
X66320Y-22475D01*
X66095Y-22393D01*
X65856Y-22403D01*
X65680Y-22475D01*
X65646Y-22576D01*
X66000Y-22929D01*
X66354Y-22576D01*
X66354Y-22716D01*
X66071Y-23000D01*
X66000Y-23071D01*
X65929Y-23000D01*
X65894Y-22965D01*
X65576Y-22646D01*
X65475Y-22680D01*
X65393Y-22905D01*
X65403Y-23144D01*
X65475Y-23320D01*
X65522Y-23336D01*
X65487Y-23372D01*
X65525Y-23410D01*
X65494Y-23424D01*
X65424Y-23494D01*
X65386Y-23585D01*
X65386Y-23684D01*
X65386Y-24414D01*
X65424Y-24506D01*
X65494Y-24576D01*
X65585Y-24614D01*
X65684Y-24614D01*
X65707Y-24614D01*
X65714Y-24647D01*
X65781Y-24747D01*
X66218Y-25184D01*
X66218Y-25424D01*
X66123Y-25385D01*
X65878Y-25385D01*
X65652Y-25479D01*
X65479Y-25651D01*
X65462Y-25690D01*
X56485Y-25690D01*
X56435Y-25640D01*
X56279Y-25575D01*
X56110Y-25575D01*
X55954Y-25639D01*
X55834Y-25759D01*
X55793Y-25855D01*
X55086Y-25148D01*
X55099Y-25119D01*
X55099Y-24881D01*
X55008Y-24661D01*
X54847Y-24500D01*
X55008Y-24339D01*
X55099Y-24119D01*
X55099Y-23881D01*
X55008Y-23661D01*
X54847Y-23500D01*
X55008Y-23339D01*
X55099Y-23119D01*
X55099Y-22881D01*
X55008Y-22661D01*
X54839Y-22492D01*
X54619Y-22401D01*
X54381Y-22401D01*
X54161Y-22492D01*
X54000Y-22653D01*
X53839Y-22492D01*
X53619Y-22401D01*
X53381Y-22401D01*
X53161Y-22492D01*
X52992Y-22661D01*
X52901Y-22881D01*
X52901Y-23119D01*
X52992Y-23339D01*
X53153Y-23500D01*
X52992Y-23661D01*
X52901Y-23881D01*
X52901Y-24119D01*
X52992Y-24339D01*
X53153Y-24500D01*
X52992Y-24661D01*
X52901Y-24881D01*
X52901Y-25119D01*
X52992Y-25339D01*
X53161Y-25508D01*
X53180Y-25515D01*
X53157Y-25586D01*
X53500Y-25929D01*
X53843Y-25586D01*
X53819Y-25515D01*
X53839Y-25508D01*
X54000Y-25347D01*
X54153Y-25500D01*
X53992Y-25661D01*
X53984Y-25680D01*
X53914Y-25657D01*
X53606Y-25965D01*
X53571Y-26000D01*
X53500Y-26071D01*
X53429Y-26000D01*
X53394Y-25965D01*
X53086Y-25657D01*
X52987Y-25690D01*
X52907Y-25909D01*
X52918Y-26144D01*
X52987Y-26310D01*
X53033Y-26325D01*
X52998Y-26361D01*
X53056Y-26419D01*
X53009Y-26439D01*
X52939Y-26509D01*
X52901Y-26600D01*
X52901Y-26699D01*
X52901Y-27399D01*
X52939Y-27491D01*
X53009Y-27561D01*
X53100Y-27599D01*
X53199Y-27599D01*
X53899Y-27599D01*
X53991Y-27561D01*
X54061Y-27491D01*
X54085Y-27432D01*
X54161Y-27508D01*
X54381Y-27599D01*
X54619Y-27599D01*
X54648Y-27586D01*
X54810Y-27748D01*
X54910Y-27815D01*
X54911Y-27815D01*
X55029Y-27839D01*
X66495Y-27839D01*
X66613Y-27815D01*
X66614Y-27815D01*
X66714Y-27748D01*
X66747Y-27716D01*
X66747Y-27715D01*
X66814Y-27615D01*
X66837Y-27496D01*
X66838Y-27496D01*
X66838Y-27490D01*
X66897Y-27515D01*
X67102Y-27515D01*
X67291Y-27437D01*
X67436Y-27292D01*
X67515Y-27103D01*
X67515Y-28242D01*
X67511Y-28238D01*
X67180Y-28100D01*
X66822Y-28100D01*
X66491Y-28237D01*
X66238Y-28489D01*
X66100Y-28820D01*
X66100Y-29178D01*
X66237Y-29509D01*
X66402Y-29675D01*
X51597Y-29675D01*
X51762Y-29511D01*
X51900Y-29180D01*
X51900Y-28822D01*
X51763Y-28491D01*
X51511Y-28238D01*
X51180Y-28100D01*
X50822Y-28100D01*
X50491Y-28237D01*
X50325Y-28402D01*
X50325Y-21597D01*
X50489Y-21762D01*
X50820Y-21900D01*
X51178Y-21900D01*
X51509Y-21763D01*
X51762Y-21511D01*
X51900Y-21180D01*
X51900Y-20822D01*
X51763Y-20491D01*
X51597Y-20325D01*
X66402Y-20325D01*
X66238Y-20489D01*
X66100Y-20820D01*
X66100Y-21178D01*
X66237Y-21509D01*
X66489Y-21762D01*
X66820Y-21900D01*
X67178Y-21900D01*
X67509Y-21763D01*
X67675Y-21597D01*
X67675Y-28402D01*
X67675Y-28402D01*
G37*
G54D19*
X67675Y-28402D02*
X67515Y-28242D01*
X67515Y-27103D01*
X67515Y-26898D01*
X67437Y-26709D01*
X67292Y-26564D01*
X67138Y-26499D01*
X67291Y-26437D01*
X67436Y-26292D01*
X67515Y-26103D01*
X67515Y-25898D01*
X67437Y-25709D01*
X67292Y-25564D01*
X67103Y-25485D01*
X66898Y-25485D01*
X66838Y-25509D01*
X66838Y-25056D01*
X66814Y-24937D01*
X66747Y-24837D01*
X66747Y-24836D01*
X66492Y-24581D01*
X66506Y-24576D01*
X66576Y-24506D01*
X66614Y-24415D01*
X66614Y-24342D01*
X66708Y-24436D01*
X66897Y-24515D01*
X67102Y-24515D01*
X67291Y-24437D01*
X67436Y-24292D01*
X67515Y-24103D01*
X67515Y-23898D01*
X67437Y-23709D01*
X67292Y-23564D01*
X67138Y-23499D01*
X67291Y-23437D01*
X67436Y-23292D01*
X67515Y-23103D01*
X67515Y-22898D01*
X67437Y-22709D01*
X67292Y-22564D01*
X67103Y-22485D01*
X66898Y-22485D01*
X66709Y-22563D01*
X66564Y-22708D01*
X66550Y-22741D01*
X66525Y-22680D01*
X66424Y-22646D01*
X66354Y-22716D01*
X66354Y-22576D01*
X66320Y-22475D01*
X66095Y-22393D01*
X65856Y-22403D01*
X65680Y-22475D01*
X65646Y-22576D01*
X66000Y-22929D01*
X66354Y-22576D01*
X66354Y-22716D01*
X66071Y-23000D01*
X66000Y-23071D01*
X65929Y-23000D01*
X65894Y-22965D01*
X65576Y-22646D01*
X65475Y-22680D01*
X65393Y-22905D01*
X65403Y-23144D01*
X65475Y-23320D01*
X65522Y-23336D01*
X65487Y-23372D01*
X65525Y-23410D01*
X65494Y-23424D01*
X65424Y-23494D01*
X65386Y-23585D01*
X65386Y-23684D01*
X65386Y-24414D01*
X65424Y-24506D01*
X65494Y-24576D01*
X65585Y-24614D01*
X65684Y-24614D01*
X65707Y-24614D01*
X65714Y-24647D01*
X65781Y-24747D01*
X66218Y-25184D01*
X66218Y-25424D01*
X66123Y-25385D01*
X65878Y-25385D01*
X65652Y-25479D01*
X65479Y-25651D01*
X65462Y-25690D01*
X56485Y-25690D01*
X56435Y-25640D01*
X56279Y-25575D01*
X56110Y-25575D01*
X55954Y-25639D01*
X55834Y-25759D01*
X55793Y-25855D01*
X55086Y-25148D01*
X55099Y-25119D01*
X55099Y-24881D01*
X55008Y-24661D01*
X54847Y-24500D01*
X55008Y-24339D01*
X55099Y-24119D01*
X55099Y-23881D01*
X55008Y-23661D01*
X54847Y-23500D01*
X55008Y-23339D01*
X55099Y-23119D01*
X55099Y-22881D01*
X55008Y-22661D01*
X54839Y-22492D01*
X54619Y-22401D01*
X54381Y-22401D01*
X54161Y-22492D01*
X54000Y-22653D01*
X53839Y-22492D01*
X53619Y-22401D01*
X53381Y-22401D01*
X53161Y-22492D01*
X52992Y-22661D01*
X52901Y-22881D01*
X52901Y-23119D01*
X52992Y-23339D01*
X53153Y-23500D01*
X52992Y-23661D01*
X52901Y-23881D01*
X52901Y-24119D01*
X52992Y-24339D01*
X53153Y-24500D01*
X52992Y-24661D01*
X52901Y-24881D01*
X52901Y-25119D01*
X52992Y-25339D01*
X53161Y-25508D01*
X53180Y-25515D01*
X53157Y-25586D01*
X53500Y-25929D01*
X53843Y-25586D01*
X53819Y-25515D01*
X53839Y-25508D01*
X54000Y-25347D01*
X54153Y-25500D01*
X53992Y-25661D01*
X53984Y-25680D01*
X53914Y-25657D01*
X53606Y-25965D01*
X53571Y-26000D01*
X53500Y-26071D01*
X53429Y-26000D01*
X53394Y-25965D01*
X53086Y-25657D01*
X52987Y-25690D01*
X52907Y-25909D01*
X52918Y-26144D01*
X52987Y-26310D01*
X53033Y-26325D01*
X52998Y-26361D01*
X53056Y-26419D01*
X53009Y-26439D01*
X52939Y-26509D01*
X52901Y-26600D01*
X52901Y-26699D01*
X52901Y-27399D01*
X52939Y-27491D01*
X53009Y-27561D01*
X53100Y-27599D01*
X53199Y-27599D01*
X53899Y-27599D01*
X53991Y-27561D01*
X54061Y-27491D01*
X54085Y-27432D01*
X54161Y-27508D01*
X54381Y-27599D01*
X54619Y-27599D01*
X54648Y-27586D01*
X54810Y-27748D01*
X54910Y-27815D01*
X54911Y-27815D01*
X55029Y-27839D01*
X66495Y-27839D01*
X66613Y-27815D01*
X66614Y-27815D01*
X66714Y-27748D01*
X66747Y-27716D01*
X66747Y-27715D01*
X66814Y-27615D01*
X66837Y-27496D01*
X66838Y-27496D01*
X66838Y-27490D01*
X66897Y-27515D01*
X67102Y-27515D01*
X67291Y-27437D01*
X67436Y-27292D01*
X67515Y-27103D01*
X67515Y-28242D01*
X67511Y-28238D01*
X67180Y-28100D01*
X66822Y-28100D01*
X66491Y-28237D01*
X66238Y-28489D01*
X66100Y-28820D01*
X66100Y-29178D01*
X66237Y-29509D01*
X66402Y-29675D01*
X51597Y-29675D01*
X51762Y-29511D01*
X51900Y-29180D01*
X51900Y-28822D01*
X51763Y-28491D01*
X51511Y-28238D01*
X51180Y-28100D01*
X50822Y-28100D01*
X50491Y-28237D01*
X50325Y-28402D01*
X50325Y-21597D01*
X50489Y-21762D01*
X50820Y-21900D01*
X51178Y-21900D01*
X51509Y-21763D01*
X51762Y-21511D01*
X51900Y-21180D01*
X51900Y-20822D01*
X51763Y-20491D01*
X51597Y-20325D01*
X66402Y-20325D01*
X66238Y-20489D01*
X66100Y-20820D01*
X66100Y-21178D01*
X66237Y-21509D01*
X66489Y-21762D01*
X66820Y-21900D01*
X67178Y-21900D01*
X67509Y-21763D01*
X67675Y-21597D01*
X67675Y-28402D01*
M02*
