G04 (created by PCBNEW-RS274X (2011-07-19)-testing) date Wed 13 Jun 2012 12:22:37 PM PDT*
G01*
G70*
G90*
%MOIN*%
G04 Gerber Fmt 3.4, Leading zero omitted, Abs format*
%FSLAX34Y34*%
G04 APERTURE LIST*
%ADD10C,0.006000*%
%ADD11C,0.007900*%
%ADD12C,0.012000*%
%ADD13C,0.005000*%
%ADD14C,0.015000*%
G04 APERTURE END LIST*
G54D10*
G54D11*
X41578Y-26153D02*
X41634Y-26172D01*
X41653Y-26191D01*
X41672Y-26228D01*
X41672Y-26284D01*
X41653Y-26322D01*
X41634Y-26341D01*
X41597Y-26359D01*
X41447Y-26359D01*
X41447Y-25965D01*
X41578Y-25965D01*
X41616Y-25984D01*
X41634Y-26003D01*
X41653Y-26041D01*
X41653Y-26078D01*
X41634Y-26116D01*
X41616Y-26134D01*
X41578Y-26153D01*
X41447Y-26153D01*
X41897Y-26359D02*
X41860Y-26341D01*
X41841Y-26303D01*
X41841Y-25965D01*
X42216Y-26097D02*
X42216Y-26359D01*
X42047Y-26097D02*
X42047Y-26303D01*
X42066Y-26341D01*
X42103Y-26359D01*
X42159Y-26359D01*
X42197Y-26341D01*
X42216Y-26322D01*
X42553Y-26341D02*
X42515Y-26359D01*
X42440Y-26359D01*
X42403Y-26341D01*
X42384Y-26303D01*
X42384Y-26153D01*
X42403Y-26116D01*
X42440Y-26097D01*
X42515Y-26097D01*
X42553Y-26116D01*
X42572Y-26153D01*
X42572Y-26191D01*
X42384Y-26228D01*
X41265Y-24984D02*
X41228Y-24965D01*
X41171Y-24965D01*
X41115Y-24984D01*
X41078Y-25022D01*
X41059Y-25059D01*
X41040Y-25134D01*
X41040Y-25191D01*
X41059Y-25266D01*
X41078Y-25303D01*
X41115Y-25341D01*
X41171Y-25359D01*
X41209Y-25359D01*
X41265Y-25341D01*
X41284Y-25322D01*
X41284Y-25191D01*
X41209Y-25191D01*
X41453Y-25359D02*
X41453Y-25097D01*
X41453Y-25172D02*
X41472Y-25134D01*
X41490Y-25116D01*
X41528Y-25097D01*
X41565Y-25097D01*
X41847Y-25341D02*
X41809Y-25359D01*
X41734Y-25359D01*
X41697Y-25341D01*
X41678Y-25303D01*
X41678Y-25153D01*
X41697Y-25116D01*
X41734Y-25097D01*
X41809Y-25097D01*
X41847Y-25116D01*
X41866Y-25153D01*
X41866Y-25191D01*
X41678Y-25228D01*
X42185Y-25341D02*
X42147Y-25359D01*
X42072Y-25359D01*
X42035Y-25341D01*
X42016Y-25303D01*
X42016Y-25153D01*
X42035Y-25116D01*
X42072Y-25097D01*
X42147Y-25097D01*
X42185Y-25116D01*
X42204Y-25153D01*
X42204Y-25191D01*
X42016Y-25228D01*
X42373Y-25097D02*
X42373Y-25359D01*
X42373Y-25134D02*
X42392Y-25116D01*
X42429Y-25097D01*
X42485Y-25097D01*
X42523Y-25116D01*
X42542Y-25153D01*
X42542Y-25359D01*
X41800Y-22884D02*
X41763Y-22865D01*
X41706Y-22865D01*
X41650Y-22884D01*
X41613Y-22922D01*
X41594Y-22959D01*
X41575Y-23034D01*
X41575Y-23091D01*
X41594Y-23166D01*
X41613Y-23203D01*
X41650Y-23241D01*
X41706Y-23259D01*
X41744Y-23259D01*
X41800Y-23241D01*
X41819Y-23222D01*
X41819Y-23091D01*
X41744Y-23091D01*
X41988Y-23259D02*
X41988Y-22865D01*
X42213Y-23259D01*
X42213Y-22865D01*
X42401Y-23259D02*
X42401Y-22865D01*
X42495Y-22865D01*
X42551Y-22884D01*
X42588Y-22922D01*
X42607Y-22959D01*
X42626Y-23034D01*
X42626Y-23091D01*
X42607Y-23166D01*
X42588Y-23203D01*
X42551Y-23241D01*
X42495Y-23259D01*
X42401Y-23259D01*
G54D12*
X36043Y-21324D02*
X36043Y-20524D01*
X36443Y-20524D02*
X36557Y-20524D01*
X36615Y-20562D01*
X36672Y-20638D01*
X36700Y-20790D01*
X36700Y-21057D01*
X36672Y-21210D01*
X36615Y-21286D01*
X36557Y-21324D01*
X36443Y-21324D01*
X36386Y-21286D01*
X36329Y-21210D01*
X36300Y-21057D01*
X36300Y-20790D01*
X36329Y-20638D01*
X36386Y-20562D01*
X36443Y-20524D01*
X37758Y-21324D02*
X37558Y-20943D01*
X37415Y-21324D02*
X37415Y-20524D01*
X37643Y-20524D01*
X37701Y-20562D01*
X37729Y-20600D01*
X37758Y-20676D01*
X37758Y-20790D01*
X37729Y-20867D01*
X37701Y-20905D01*
X37643Y-20943D01*
X37415Y-20943D01*
X38101Y-21324D02*
X38043Y-21286D01*
X38015Y-21248D01*
X37986Y-21171D01*
X37986Y-20943D01*
X38015Y-20867D01*
X38043Y-20829D01*
X38101Y-20790D01*
X38186Y-20790D01*
X38243Y-20829D01*
X38272Y-20867D01*
X38301Y-20943D01*
X38301Y-21171D01*
X38272Y-21248D01*
X38243Y-21286D01*
X38186Y-21324D01*
X38101Y-21324D01*
X38815Y-21324D02*
X38815Y-20524D01*
X38815Y-21286D02*
X38758Y-21324D01*
X38644Y-21324D01*
X38586Y-21286D01*
X38558Y-21248D01*
X38529Y-21171D01*
X38529Y-20943D01*
X38558Y-20867D01*
X38586Y-20829D01*
X38644Y-20790D01*
X38758Y-20790D01*
X38815Y-20829D01*
X39329Y-21286D02*
X39272Y-21324D01*
X39158Y-21324D01*
X39101Y-21286D01*
X39072Y-21210D01*
X39072Y-20905D01*
X39101Y-20829D01*
X39158Y-20790D01*
X39272Y-20790D01*
X39329Y-20829D01*
X39358Y-20905D01*
X39358Y-20981D01*
X39072Y-21057D01*
X39701Y-21324D02*
X39643Y-21286D01*
X39615Y-21248D01*
X39586Y-21171D01*
X39586Y-20943D01*
X39615Y-20867D01*
X39643Y-20829D01*
X39701Y-20790D01*
X39786Y-20790D01*
X39843Y-20829D01*
X39872Y-20867D01*
X39901Y-20943D01*
X39901Y-21171D01*
X39872Y-21248D01*
X39843Y-21286D01*
X39786Y-21324D01*
X39701Y-21324D01*
X40615Y-21324D02*
X40615Y-20524D01*
X40901Y-20790D02*
X40901Y-21324D01*
X40901Y-20867D02*
X40929Y-20829D01*
X40987Y-20790D01*
X41072Y-20790D01*
X41129Y-20829D01*
X41158Y-20905D01*
X41158Y-21324D01*
X41701Y-21286D02*
X41644Y-21324D01*
X41530Y-21324D01*
X41472Y-21286D01*
X41444Y-21248D01*
X41415Y-21171D01*
X41415Y-20943D01*
X41444Y-20867D01*
X41472Y-20829D01*
X41530Y-20790D01*
X41644Y-20790D01*
X41701Y-20829D01*
X41958Y-21248D02*
X41986Y-21286D01*
X41958Y-21324D01*
X41929Y-21286D01*
X41958Y-21248D01*
X41958Y-21324D01*
G54D11*
X41875Y-24359D02*
X41744Y-24172D01*
X41650Y-24359D02*
X41650Y-23965D01*
X41800Y-23965D01*
X41837Y-23984D01*
X41856Y-24003D01*
X41875Y-24041D01*
X41875Y-24097D01*
X41856Y-24134D01*
X41837Y-24153D01*
X41800Y-24172D01*
X41650Y-24172D01*
X42194Y-24341D02*
X42156Y-24359D01*
X42081Y-24359D01*
X42044Y-24341D01*
X42025Y-24303D01*
X42025Y-24153D01*
X42044Y-24116D01*
X42081Y-24097D01*
X42156Y-24097D01*
X42194Y-24116D01*
X42213Y-24153D01*
X42213Y-24191D01*
X42025Y-24228D01*
X42551Y-24359D02*
X42551Y-23965D01*
X42551Y-24341D02*
X42513Y-24359D01*
X42438Y-24359D01*
X42401Y-24341D01*
X42382Y-24322D01*
X42363Y-24284D01*
X42363Y-24172D01*
X42382Y-24134D01*
X42401Y-24116D01*
X42438Y-24097D01*
X42513Y-24097D01*
X42551Y-24116D01*
G54D12*
X33394Y-29248D02*
X33365Y-29286D01*
X33279Y-29324D01*
X33222Y-29324D01*
X33137Y-29286D01*
X33079Y-29210D01*
X33051Y-29133D01*
X33022Y-28981D01*
X33022Y-28867D01*
X33051Y-28714D01*
X33079Y-28638D01*
X33137Y-28562D01*
X33222Y-28524D01*
X33279Y-28524D01*
X33365Y-28562D01*
X33394Y-28600D01*
X33737Y-29324D02*
X33679Y-29286D01*
X33651Y-29248D01*
X33622Y-29171D01*
X33622Y-28943D01*
X33651Y-28867D01*
X33679Y-28829D01*
X33737Y-28790D01*
X33822Y-28790D01*
X33879Y-28829D01*
X33908Y-28867D01*
X33937Y-28943D01*
X33937Y-29171D01*
X33908Y-29248D01*
X33879Y-29286D01*
X33822Y-29324D01*
X33737Y-29324D01*
X34280Y-29324D02*
X34222Y-29286D01*
X34194Y-29210D01*
X34194Y-28524D01*
X34594Y-29324D02*
X34536Y-29286D01*
X34508Y-29248D01*
X34479Y-29171D01*
X34479Y-28943D01*
X34508Y-28867D01*
X34536Y-28829D01*
X34594Y-28790D01*
X34679Y-28790D01*
X34736Y-28829D01*
X34765Y-28867D01*
X34794Y-28943D01*
X34794Y-29171D01*
X34765Y-29248D01*
X34736Y-29286D01*
X34679Y-29324D01*
X34594Y-29324D01*
X35051Y-29324D02*
X35051Y-28790D01*
X35051Y-28943D02*
X35079Y-28867D01*
X35108Y-28829D01*
X35165Y-28790D01*
X35222Y-28790D01*
X35422Y-29324D02*
X35422Y-28790D01*
X35422Y-28524D02*
X35393Y-28562D01*
X35422Y-28600D01*
X35450Y-28562D01*
X35422Y-28524D01*
X35422Y-28600D01*
X35708Y-29324D02*
X35708Y-28790D01*
X35708Y-28867D02*
X35736Y-28829D01*
X35794Y-28790D01*
X35879Y-28790D01*
X35936Y-28829D01*
X35965Y-28905D01*
X35965Y-29324D01*
X35965Y-28905D02*
X35994Y-28829D01*
X36051Y-28790D01*
X36136Y-28790D01*
X36194Y-28829D01*
X36222Y-28905D01*
X36222Y-29324D01*
X36736Y-29286D02*
X36679Y-29324D01*
X36565Y-29324D01*
X36508Y-29286D01*
X36479Y-29210D01*
X36479Y-28905D01*
X36508Y-28829D01*
X36565Y-28790D01*
X36679Y-28790D01*
X36736Y-28829D01*
X36765Y-28905D01*
X36765Y-28981D01*
X36479Y-29057D01*
X36936Y-28790D02*
X37165Y-28790D01*
X37022Y-28524D02*
X37022Y-29210D01*
X37050Y-29286D01*
X37108Y-29324D01*
X37165Y-29324D01*
X37593Y-29286D02*
X37536Y-29324D01*
X37422Y-29324D01*
X37365Y-29286D01*
X37336Y-29210D01*
X37336Y-28905D01*
X37365Y-28829D01*
X37422Y-28790D01*
X37536Y-28790D01*
X37593Y-28829D01*
X37622Y-28905D01*
X37622Y-28981D01*
X37336Y-29057D01*
X37879Y-29324D02*
X37879Y-28790D01*
X37879Y-28943D02*
X37907Y-28867D01*
X37936Y-28829D01*
X37993Y-28790D01*
X38050Y-28790D01*
X38993Y-29324D02*
X38707Y-29324D01*
X38707Y-28524D01*
X39193Y-28905D02*
X39393Y-28905D01*
X39479Y-29324D02*
X39193Y-29324D01*
X39193Y-28524D01*
X39479Y-28524D01*
X39736Y-29324D02*
X39736Y-28524D01*
X39879Y-28524D01*
X39964Y-28562D01*
X40022Y-28638D01*
X40050Y-28714D01*
X40079Y-28867D01*
X40079Y-28981D01*
X40050Y-29133D01*
X40022Y-29210D01*
X39964Y-29286D01*
X39879Y-29324D01*
X39736Y-29324D01*
X40993Y-28905D02*
X41079Y-28943D01*
X41107Y-28981D01*
X41136Y-29057D01*
X41136Y-29171D01*
X41107Y-29248D01*
X41079Y-29286D01*
X41021Y-29324D01*
X40793Y-29324D01*
X40793Y-28524D01*
X40993Y-28524D01*
X41050Y-28562D01*
X41079Y-28600D01*
X41107Y-28676D01*
X41107Y-28752D01*
X41079Y-28829D01*
X41050Y-28867D01*
X40993Y-28905D01*
X40793Y-28905D01*
X41479Y-29324D02*
X41421Y-29286D01*
X41393Y-29248D01*
X41364Y-29171D01*
X41364Y-28943D01*
X41393Y-28867D01*
X41421Y-28829D01*
X41479Y-28790D01*
X41564Y-28790D01*
X41621Y-28829D01*
X41650Y-28867D01*
X41679Y-28943D01*
X41679Y-29171D01*
X41650Y-29248D01*
X41621Y-29286D01*
X41564Y-29324D01*
X41479Y-29324D01*
X42193Y-29324D02*
X42193Y-28905D01*
X42164Y-28829D01*
X42107Y-28790D01*
X41993Y-28790D01*
X41936Y-28829D01*
X42193Y-29286D02*
X42136Y-29324D01*
X41993Y-29324D01*
X41936Y-29286D01*
X41907Y-29210D01*
X41907Y-29133D01*
X41936Y-29057D01*
X41993Y-29019D01*
X42136Y-29019D01*
X42193Y-28981D01*
X42479Y-29324D02*
X42479Y-28790D01*
X42479Y-28943D02*
X42507Y-28867D01*
X42536Y-28829D01*
X42593Y-28790D01*
X42650Y-28790D01*
X43107Y-29324D02*
X43107Y-28524D01*
X43107Y-29286D02*
X43050Y-29324D01*
X42936Y-29324D01*
X42878Y-29286D01*
X42850Y-29248D01*
X42821Y-29171D01*
X42821Y-28943D01*
X42850Y-28867D01*
X42878Y-28829D01*
X42936Y-28790D01*
X43050Y-28790D01*
X43107Y-28829D01*
X43793Y-28790D02*
X43936Y-29324D01*
X44078Y-28790D01*
X44278Y-28600D02*
X44307Y-28562D01*
X44364Y-28524D01*
X44507Y-28524D01*
X44564Y-28562D01*
X44593Y-28600D01*
X44621Y-28676D01*
X44621Y-28752D01*
X44593Y-28867D01*
X44250Y-29324D01*
X44621Y-29324D01*
X44878Y-29248D02*
X44906Y-29286D01*
X44878Y-29324D01*
X44849Y-29286D01*
X44878Y-29248D01*
X44878Y-29324D01*
X45478Y-29324D02*
X45135Y-29324D01*
X45307Y-29324D02*
X45307Y-28524D01*
X45250Y-28638D01*
X45192Y-28714D01*
X45135Y-28752D01*
G54D13*
X33900Y-23800D02*
X33899Y-23809D01*
X33896Y-23819D01*
X33891Y-23827D01*
X33885Y-23835D01*
X33877Y-23841D01*
X33869Y-23846D01*
X33860Y-23848D01*
X33850Y-23849D01*
X33841Y-23849D01*
X33832Y-23846D01*
X33823Y-23841D01*
X33816Y-23835D01*
X33809Y-23828D01*
X33805Y-23819D01*
X33802Y-23810D01*
X33801Y-23800D01*
X33801Y-23791D01*
X33804Y-23782D01*
X33808Y-23773D01*
X33815Y-23766D01*
X33822Y-23759D01*
X33830Y-23755D01*
X33840Y-23752D01*
X33849Y-23751D01*
X33858Y-23751D01*
X33868Y-23754D01*
X33876Y-23758D01*
X33884Y-23764D01*
X33890Y-23772D01*
X33895Y-23780D01*
X33898Y-23789D01*
X33899Y-23799D01*
X33900Y-23800D01*
X34300Y-23800D02*
X33900Y-23800D01*
X33900Y-23800D02*
X33900Y-23200D01*
X33900Y-23200D02*
X34300Y-23200D01*
X34700Y-23200D02*
X35100Y-23200D01*
X35100Y-23200D02*
X35100Y-23800D01*
X35100Y-23800D02*
X34700Y-23800D01*
X33900Y-25300D02*
X33899Y-25309D01*
X33896Y-25319D01*
X33891Y-25327D01*
X33885Y-25335D01*
X33877Y-25341D01*
X33869Y-25346D01*
X33860Y-25348D01*
X33850Y-25349D01*
X33841Y-25349D01*
X33832Y-25346D01*
X33823Y-25341D01*
X33816Y-25335D01*
X33809Y-25328D01*
X33805Y-25319D01*
X33802Y-25310D01*
X33801Y-25300D01*
X33801Y-25291D01*
X33804Y-25282D01*
X33808Y-25273D01*
X33815Y-25266D01*
X33822Y-25259D01*
X33830Y-25255D01*
X33840Y-25252D01*
X33849Y-25251D01*
X33858Y-25251D01*
X33868Y-25254D01*
X33876Y-25258D01*
X33884Y-25264D01*
X33890Y-25272D01*
X33895Y-25280D01*
X33898Y-25289D01*
X33899Y-25299D01*
X33900Y-25300D01*
X34300Y-25300D02*
X33900Y-25300D01*
X33900Y-25300D02*
X33900Y-24700D01*
X33900Y-24700D02*
X34300Y-24700D01*
X34700Y-24700D02*
X35100Y-24700D01*
X35100Y-24700D02*
X35100Y-25300D01*
X35100Y-25300D02*
X34700Y-25300D01*
X33900Y-26800D02*
X33899Y-26809D01*
X33896Y-26819D01*
X33891Y-26827D01*
X33885Y-26835D01*
X33877Y-26841D01*
X33869Y-26846D01*
X33860Y-26848D01*
X33850Y-26849D01*
X33841Y-26849D01*
X33832Y-26846D01*
X33823Y-26841D01*
X33816Y-26835D01*
X33809Y-26828D01*
X33805Y-26819D01*
X33802Y-26810D01*
X33801Y-26800D01*
X33801Y-26791D01*
X33804Y-26782D01*
X33808Y-26773D01*
X33815Y-26766D01*
X33822Y-26759D01*
X33830Y-26755D01*
X33840Y-26752D01*
X33849Y-26751D01*
X33858Y-26751D01*
X33868Y-26754D01*
X33876Y-26758D01*
X33884Y-26764D01*
X33890Y-26772D01*
X33895Y-26780D01*
X33898Y-26789D01*
X33899Y-26799D01*
X33900Y-26800D01*
X34300Y-26800D02*
X33900Y-26800D01*
X33900Y-26800D02*
X33900Y-26200D01*
X33900Y-26200D02*
X34300Y-26200D01*
X34700Y-26200D02*
X35100Y-26200D01*
X35100Y-26200D02*
X35100Y-26800D01*
X35100Y-26800D02*
X34700Y-26800D01*
G54D14*
X39591Y-25984D02*
X38409Y-25984D01*
X38409Y-25984D02*
X38409Y-24213D01*
X38409Y-24213D02*
X38606Y-24016D01*
X38606Y-24016D02*
X39591Y-24016D01*
X39591Y-24016D02*
X39591Y-25984D01*
X42800Y-26950D02*
X42800Y-22550D01*
X42800Y-22550D02*
X48000Y-22550D01*
X48000Y-22550D02*
X48000Y-26950D01*
X48000Y-26950D02*
X42800Y-26950D01*
G54D13*
X33458Y-23601D02*
X33375Y-23482D01*
X33316Y-23601D02*
X33316Y-23351D01*
X33411Y-23351D01*
X33435Y-23363D01*
X33446Y-23375D01*
X33458Y-23399D01*
X33458Y-23435D01*
X33446Y-23458D01*
X33435Y-23470D01*
X33411Y-23482D01*
X33316Y-23482D01*
X33696Y-23601D02*
X33554Y-23601D01*
X33625Y-23601D02*
X33625Y-23351D01*
X33601Y-23387D01*
X33577Y-23411D01*
X33554Y-23423D01*
X35333Y-23601D02*
X35381Y-23601D01*
X35405Y-23589D01*
X35417Y-23577D01*
X35441Y-23542D01*
X35452Y-23494D01*
X35452Y-23399D01*
X35441Y-23375D01*
X35429Y-23363D01*
X35405Y-23351D01*
X35357Y-23351D01*
X35333Y-23363D01*
X35322Y-23375D01*
X35310Y-23399D01*
X35310Y-23458D01*
X35322Y-23482D01*
X35333Y-23494D01*
X35357Y-23506D01*
X35405Y-23506D01*
X35429Y-23494D01*
X35441Y-23482D01*
X35452Y-23458D01*
X35607Y-23351D02*
X35631Y-23351D01*
X35655Y-23363D01*
X35667Y-23375D01*
X35679Y-23399D01*
X35690Y-23446D01*
X35690Y-23506D01*
X35679Y-23554D01*
X35667Y-23577D01*
X35655Y-23589D01*
X35631Y-23601D01*
X35607Y-23601D01*
X35583Y-23589D01*
X35571Y-23577D01*
X35560Y-23554D01*
X35548Y-23506D01*
X35548Y-23446D01*
X35560Y-23399D01*
X35571Y-23375D01*
X35583Y-23363D01*
X35607Y-23351D01*
X33458Y-25101D02*
X33375Y-24982D01*
X33316Y-25101D02*
X33316Y-24851D01*
X33411Y-24851D01*
X33435Y-24863D01*
X33446Y-24875D01*
X33458Y-24899D01*
X33458Y-24935D01*
X33446Y-24958D01*
X33435Y-24970D01*
X33411Y-24982D01*
X33316Y-24982D01*
X33554Y-24875D02*
X33566Y-24863D01*
X33589Y-24851D01*
X33649Y-24851D01*
X33673Y-24863D01*
X33685Y-24875D01*
X33696Y-24899D01*
X33696Y-24923D01*
X33685Y-24958D01*
X33542Y-25101D01*
X33696Y-25101D01*
X35333Y-25101D02*
X35381Y-25101D01*
X35405Y-25089D01*
X35417Y-25077D01*
X35441Y-25042D01*
X35452Y-24994D01*
X35452Y-24899D01*
X35441Y-24875D01*
X35429Y-24863D01*
X35405Y-24851D01*
X35357Y-24851D01*
X35333Y-24863D01*
X35322Y-24875D01*
X35310Y-24899D01*
X35310Y-24958D01*
X35322Y-24982D01*
X35333Y-24994D01*
X35357Y-25006D01*
X35405Y-25006D01*
X35429Y-24994D01*
X35441Y-24982D01*
X35452Y-24958D01*
X35607Y-24851D02*
X35631Y-24851D01*
X35655Y-24863D01*
X35667Y-24875D01*
X35679Y-24899D01*
X35690Y-24946D01*
X35690Y-25006D01*
X35679Y-25054D01*
X35667Y-25077D01*
X35655Y-25089D01*
X35631Y-25101D01*
X35607Y-25101D01*
X35583Y-25089D01*
X35571Y-25077D01*
X35560Y-25054D01*
X35548Y-25006D01*
X35548Y-24946D01*
X35560Y-24899D01*
X35571Y-24875D01*
X35583Y-24863D01*
X35607Y-24851D01*
X33458Y-26601D02*
X33375Y-26482D01*
X33316Y-26601D02*
X33316Y-26351D01*
X33411Y-26351D01*
X33435Y-26363D01*
X33446Y-26375D01*
X33458Y-26399D01*
X33458Y-26435D01*
X33446Y-26458D01*
X33435Y-26470D01*
X33411Y-26482D01*
X33316Y-26482D01*
X33542Y-26351D02*
X33696Y-26351D01*
X33613Y-26446D01*
X33649Y-26446D01*
X33673Y-26458D01*
X33685Y-26470D01*
X33696Y-26494D01*
X33696Y-26554D01*
X33685Y-26577D01*
X33673Y-26589D01*
X33649Y-26601D01*
X33577Y-26601D01*
X33554Y-26589D01*
X33542Y-26577D01*
X35333Y-26601D02*
X35191Y-26601D01*
X35262Y-26601D02*
X35262Y-26351D01*
X35238Y-26387D01*
X35214Y-26411D01*
X35191Y-26423D01*
X35560Y-26351D02*
X35441Y-26351D01*
X35429Y-26470D01*
X35441Y-26458D01*
X35464Y-26446D01*
X35524Y-26446D01*
X35548Y-26458D01*
X35560Y-26470D01*
X35571Y-26494D01*
X35571Y-26554D01*
X35560Y-26577D01*
X35548Y-26589D01*
X35524Y-26601D01*
X35464Y-26601D01*
X35441Y-26589D01*
X35429Y-26577D01*
X35726Y-26351D02*
X35750Y-26351D01*
X35774Y-26363D01*
X35786Y-26375D01*
X35798Y-26399D01*
X35809Y-26446D01*
X35809Y-26506D01*
X35798Y-26554D01*
X35786Y-26577D01*
X35774Y-26589D01*
X35750Y-26601D01*
X35726Y-26601D01*
X35702Y-26589D01*
X35690Y-26577D01*
X35679Y-26554D01*
X35667Y-26506D01*
X35667Y-26446D01*
X35679Y-26399D01*
X35690Y-26375D01*
X35702Y-26363D01*
X35726Y-26351D01*
G54D12*
X38519Y-22970D02*
X38519Y-23456D01*
X38547Y-23513D01*
X38576Y-23541D01*
X38633Y-23570D01*
X38747Y-23570D01*
X38805Y-23541D01*
X38833Y-23513D01*
X38862Y-23456D01*
X38862Y-22970D01*
X39462Y-23570D02*
X39119Y-23570D01*
X39291Y-23570D02*
X39291Y-22970D01*
X39234Y-23056D01*
X39176Y-23113D01*
X39119Y-23141D01*
X44958Y-22243D02*
X44958Y-21643D01*
X45186Y-21643D01*
X45244Y-21671D01*
X45272Y-21700D01*
X45301Y-21757D01*
X45301Y-21843D01*
X45272Y-21900D01*
X45244Y-21929D01*
X45186Y-21957D01*
X44958Y-21957D01*
X45872Y-22243D02*
X45529Y-22243D01*
X45701Y-22243D02*
X45701Y-21643D01*
X45644Y-21729D01*
X45586Y-21786D01*
X45529Y-21814D01*
M02*
