G04 (created by PCBNEW-RS274X (2011-07-19)-testing) date Wed 13 Jun 2012 12:22:37 PM PDT*
G01*
G70*
G90*
%MOIN*%
G04 Gerber Fmt 3.4, Leading zero omitted, Abs format*
%FSLAX34Y34*%
G04 APERTURE LIST*
%ADD10C,0.006000*%
%ADD11R,0.035000X0.055000*%
%ADD12R,0.051200X0.027600*%
%ADD13C,0.130000*%
%ADD14R,0.250000X0.050000*%
%ADD15C,0.012000*%
%ADD16C,0.010000*%
G04 APERTURE END LIST*
G54D10*
G54D11*
X34125Y-23500D03*
X34875Y-23500D03*
X34125Y-25000D03*
X34875Y-25000D03*
X34125Y-26500D03*
X34875Y-26500D03*
G54D12*
X39581Y-25433D03*
X39581Y-25000D03*
X39581Y-24567D03*
X38419Y-25433D03*
X38419Y-25000D03*
X38419Y-24567D03*
G54D13*
X31000Y-21000D03*
X31000Y-29000D03*
X47000Y-29000D03*
X47000Y-21000D03*
G54D14*
X44402Y-26250D03*
X46398Y-25250D03*
X44402Y-24250D03*
X46398Y-23250D03*
G54D15*
X39086Y-24567D02*
X39581Y-24567D01*
X38921Y-24732D02*
X39086Y-24567D01*
X38921Y-26216D02*
X38921Y-24732D01*
X38955Y-26250D02*
X38921Y-26216D01*
X44402Y-26250D02*
X38955Y-26250D01*
X39162Y-25702D02*
X39162Y-25000D01*
X39195Y-25735D02*
X39162Y-25702D01*
X44500Y-25735D02*
X39195Y-25735D01*
X44985Y-25250D02*
X44500Y-25735D01*
X46398Y-25250D02*
X44985Y-25250D01*
X39581Y-25000D02*
X39162Y-25000D01*
X41806Y-25433D02*
X39581Y-25433D01*
X42989Y-24250D02*
X41806Y-25433D01*
X44402Y-24250D02*
X42989Y-24250D01*
X35463Y-23250D02*
X35213Y-23500D01*
X46398Y-23250D02*
X35463Y-23250D01*
X34875Y-23500D02*
X35213Y-23500D01*
X34436Y-23061D02*
X34875Y-23500D01*
X33796Y-23061D02*
X34436Y-23061D01*
X33786Y-23071D02*
X33796Y-23061D01*
X33786Y-25410D02*
X33786Y-23071D01*
X33820Y-25444D02*
X33786Y-25410D01*
X34875Y-25444D02*
X33820Y-25444D01*
X34875Y-26500D02*
X34875Y-25444D01*
X34875Y-25444D02*
X34875Y-25000D01*
X34463Y-24662D02*
X34463Y-25000D01*
X34564Y-24561D02*
X34463Y-24662D01*
X35116Y-24561D02*
X34564Y-24561D01*
X35555Y-25000D02*
X35116Y-24561D01*
X38419Y-25000D02*
X35555Y-25000D01*
X34125Y-25000D02*
X34463Y-25000D01*
X36494Y-26939D02*
X38000Y-25433D01*
X34564Y-26939D02*
X36494Y-26939D01*
X34463Y-26838D02*
X34564Y-26939D01*
X34463Y-26500D02*
X34463Y-26838D01*
X34125Y-26500D02*
X34463Y-26500D01*
X38419Y-25433D02*
X38000Y-25433D01*
X37699Y-24266D02*
X38000Y-24567D01*
X34891Y-24266D02*
X37699Y-24266D01*
X34463Y-23838D02*
X34891Y-24266D01*
X34463Y-23500D02*
X34463Y-23838D01*
X34125Y-23500D02*
X34463Y-23500D01*
X38419Y-24567D02*
X38000Y-24567D01*
G54D10*
G36*
X47675Y-28402D02*
X47511Y-28238D01*
X47180Y-28100D01*
X46822Y-28100D01*
X46491Y-28237D01*
X46238Y-28489D01*
X46100Y-28820D01*
X46100Y-29178D01*
X46237Y-29509D01*
X46402Y-29675D01*
X31597Y-29675D01*
X31762Y-29511D01*
X31900Y-29180D01*
X31900Y-28822D01*
X31763Y-28491D01*
X31511Y-28238D01*
X31180Y-28100D01*
X30822Y-28100D01*
X30491Y-28237D01*
X30325Y-28402D01*
X30325Y-21597D01*
X30489Y-21762D01*
X30820Y-21900D01*
X31178Y-21900D01*
X31509Y-21763D01*
X31762Y-21511D01*
X31900Y-21180D01*
X31900Y-20822D01*
X31763Y-20491D01*
X31597Y-20325D01*
X46402Y-20325D01*
X46238Y-20489D01*
X46100Y-20820D01*
X46100Y-21178D01*
X46237Y-21509D01*
X46489Y-21762D01*
X46820Y-21900D01*
X47178Y-21900D01*
X47509Y-21763D01*
X47675Y-21597D01*
X47675Y-22751D01*
X47599Y-22751D01*
X46510Y-22750D01*
X46448Y-22812D01*
X46448Y-23150D01*
X46448Y-23200D01*
X46448Y-23300D01*
X46448Y-23350D01*
X46448Y-23688D01*
X46510Y-23750D01*
X47599Y-23749D01*
X47675Y-23749D01*
X47675Y-24751D01*
X47599Y-24751D01*
X46348Y-24751D01*
X46348Y-23688D01*
X46348Y-23300D01*
X46348Y-23200D01*
X46348Y-22812D01*
X46286Y-22750D01*
X45197Y-22751D01*
X45098Y-22751D01*
X45007Y-22789D01*
X44937Y-22859D01*
X44899Y-22951D01*
X44898Y-23138D01*
X44960Y-23200D01*
X46348Y-23200D01*
X46348Y-23300D01*
X44960Y-23300D01*
X44898Y-23362D01*
X44899Y-23549D01*
X44937Y-23641D01*
X45007Y-23711D01*
X45098Y-23749D01*
X45197Y-23749D01*
X46286Y-23750D01*
X46348Y-23688D01*
X46348Y-24751D01*
X45099Y-24751D01*
X45007Y-24789D01*
X44937Y-24859D01*
X44899Y-24950D01*
X44899Y-24957D01*
X44866Y-24964D01*
X44765Y-25031D01*
X44371Y-25425D01*
X42252Y-25425D01*
X42988Y-24688D01*
X43011Y-24711D01*
X43102Y-24749D01*
X43201Y-24749D01*
X45701Y-24749D01*
X45793Y-24711D01*
X45863Y-24641D01*
X45901Y-24550D01*
X45901Y-24451D01*
X45901Y-23951D01*
X45863Y-23859D01*
X45793Y-23789D01*
X45702Y-23751D01*
X45603Y-23751D01*
X43103Y-23751D01*
X43011Y-23789D01*
X42941Y-23859D01*
X42903Y-23950D01*
X42903Y-23957D01*
X42870Y-23964D01*
X42770Y-24031D01*
X41678Y-25123D01*
X40086Y-25123D01*
X40086Y-25089D01*
X40086Y-24813D01*
X40073Y-24783D01*
X40086Y-24755D01*
X40086Y-24656D01*
X40086Y-24380D01*
X40048Y-24288D01*
X39978Y-24218D01*
X39887Y-24180D01*
X39788Y-24180D01*
X39276Y-24180D01*
X39184Y-24218D01*
X39145Y-24257D01*
X39086Y-24257D01*
X38967Y-24281D01*
X38901Y-24325D01*
X38886Y-24288D01*
X38816Y-24218D01*
X38725Y-24180D01*
X38626Y-24180D01*
X38114Y-24180D01*
X38069Y-24198D01*
X37918Y-24047D01*
X37818Y-23980D01*
X37699Y-23956D01*
X35221Y-23956D01*
X35261Y-23916D01*
X35299Y-23825D01*
X35299Y-23726D01*
X35300Y-23612D01*
X35300Y-23388D01*
X35299Y-23274D01*
X35299Y-23175D01*
X35261Y-23084D01*
X35191Y-23014D01*
X35099Y-22976D01*
X34987Y-22975D01*
X34925Y-23037D01*
X34925Y-23450D01*
X35238Y-23450D01*
X35300Y-23388D01*
X35300Y-23612D01*
X35238Y-23550D01*
X34975Y-23550D01*
X34925Y-23550D01*
X34825Y-23550D01*
X34825Y-23450D01*
X34825Y-23400D01*
X34825Y-23037D01*
X34763Y-22975D01*
X34651Y-22976D01*
X34559Y-23014D01*
X34500Y-23073D01*
X34441Y-23014D01*
X34350Y-22976D01*
X34251Y-22976D01*
X33901Y-22976D01*
X33809Y-23014D01*
X33739Y-23084D01*
X33701Y-23175D01*
X33701Y-23274D01*
X33701Y-23824D01*
X33739Y-23916D01*
X33809Y-23986D01*
X33900Y-24024D01*
X33999Y-24024D01*
X34221Y-24024D01*
X34222Y-24024D01*
X34244Y-24057D01*
X34459Y-24272D01*
X34445Y-24275D01*
X34344Y-24342D01*
X34244Y-24443D01*
X34221Y-24476D01*
X33901Y-24476D01*
X33809Y-24514D01*
X33739Y-24584D01*
X33701Y-24675D01*
X33701Y-24774D01*
X33701Y-25324D01*
X33739Y-25416D01*
X33809Y-25486D01*
X33900Y-25524D01*
X33999Y-25524D01*
X34349Y-25524D01*
X34441Y-25486D01*
X34500Y-25427D01*
X34559Y-25486D01*
X34651Y-25524D01*
X34763Y-25525D01*
X34825Y-25463D01*
X34825Y-25100D01*
X34825Y-25050D01*
X34825Y-24950D01*
X34925Y-24950D01*
X34925Y-25050D01*
X34925Y-25100D01*
X34925Y-25463D01*
X34987Y-25525D01*
X35099Y-25524D01*
X35191Y-25486D01*
X35261Y-25416D01*
X35299Y-25325D01*
X35299Y-25226D01*
X35299Y-25183D01*
X35335Y-25219D01*
X35336Y-25219D01*
X35436Y-25286D01*
X35554Y-25309D01*
X35555Y-25310D01*
X37684Y-25310D01*
X36365Y-26629D01*
X35299Y-26629D01*
X35300Y-26612D01*
X35300Y-26388D01*
X35299Y-26274D01*
X35299Y-26175D01*
X35261Y-26084D01*
X35191Y-26014D01*
X35099Y-25976D01*
X34987Y-25975D01*
X34925Y-26037D01*
X34925Y-26450D01*
X35238Y-26450D01*
X35300Y-26388D01*
X35300Y-26612D01*
X35238Y-26550D01*
X34975Y-26550D01*
X34925Y-26550D01*
X34825Y-26550D01*
X34825Y-26450D01*
X34825Y-26400D01*
X34825Y-26037D01*
X34763Y-25975D01*
X34651Y-25976D01*
X34559Y-26014D01*
X34500Y-26073D01*
X34441Y-26014D01*
X34350Y-25976D01*
X34251Y-25976D01*
X33901Y-25976D01*
X33809Y-26014D01*
X33739Y-26084D01*
X33701Y-26175D01*
X33701Y-26274D01*
X33701Y-26824D01*
X33739Y-26916D01*
X33809Y-26986D01*
X33900Y-27024D01*
X33999Y-27024D01*
X34221Y-27024D01*
X34222Y-27024D01*
X34244Y-27057D01*
X34344Y-27158D01*
X34345Y-27158D01*
X34445Y-27225D01*
X34563Y-27248D01*
X34564Y-27249D01*
X36494Y-27249D01*
X36612Y-27225D01*
X36613Y-27225D01*
X36713Y-27158D01*
X38069Y-25802D01*
X38113Y-25820D01*
X38212Y-25820D01*
X38611Y-25820D01*
X38611Y-26216D01*
X38635Y-26335D01*
X38702Y-26435D01*
X38736Y-26469D01*
X38836Y-26536D01*
X38837Y-26536D01*
X38955Y-26560D01*
X42907Y-26560D01*
X42941Y-26641D01*
X43011Y-26711D01*
X43102Y-26749D01*
X43201Y-26749D01*
X45701Y-26749D01*
X45793Y-26711D01*
X45863Y-26641D01*
X45901Y-26550D01*
X45901Y-26451D01*
X45901Y-25951D01*
X45863Y-25859D01*
X45793Y-25789D01*
X45702Y-25751D01*
X45603Y-25751D01*
X44922Y-25751D01*
X44984Y-25688D01*
X45007Y-25711D01*
X45098Y-25749D01*
X45197Y-25749D01*
X47675Y-25749D01*
X47675Y-28402D01*
X47675Y-28402D01*
G37*
G54D16*
X47675Y-28402D02*
X47511Y-28238D01*
X47180Y-28100D01*
X46822Y-28100D01*
X46491Y-28237D01*
X46238Y-28489D01*
X46100Y-28820D01*
X46100Y-29178D01*
X46237Y-29509D01*
X46402Y-29675D01*
X31597Y-29675D01*
X31762Y-29511D01*
X31900Y-29180D01*
X31900Y-28822D01*
X31763Y-28491D01*
X31511Y-28238D01*
X31180Y-28100D01*
X30822Y-28100D01*
X30491Y-28237D01*
X30325Y-28402D01*
X30325Y-21597D01*
X30489Y-21762D01*
X30820Y-21900D01*
X31178Y-21900D01*
X31509Y-21763D01*
X31762Y-21511D01*
X31900Y-21180D01*
X31900Y-20822D01*
X31763Y-20491D01*
X31597Y-20325D01*
X46402Y-20325D01*
X46238Y-20489D01*
X46100Y-20820D01*
X46100Y-21178D01*
X46237Y-21509D01*
X46489Y-21762D01*
X46820Y-21900D01*
X47178Y-21900D01*
X47509Y-21763D01*
X47675Y-21597D01*
X47675Y-22751D01*
X47599Y-22751D01*
X46510Y-22750D01*
X46448Y-22812D01*
X46448Y-23150D01*
X46448Y-23200D01*
X46448Y-23300D01*
X46448Y-23350D01*
X46448Y-23688D01*
X46510Y-23750D01*
X47599Y-23749D01*
X47675Y-23749D01*
X47675Y-24751D01*
X47599Y-24751D01*
X46348Y-24751D01*
X46348Y-23688D01*
X46348Y-23300D01*
X46348Y-23200D01*
X46348Y-22812D01*
X46286Y-22750D01*
X45197Y-22751D01*
X45098Y-22751D01*
X45007Y-22789D01*
X44937Y-22859D01*
X44899Y-22951D01*
X44898Y-23138D01*
X44960Y-23200D01*
X46348Y-23200D01*
X46348Y-23300D01*
X44960Y-23300D01*
X44898Y-23362D01*
X44899Y-23549D01*
X44937Y-23641D01*
X45007Y-23711D01*
X45098Y-23749D01*
X45197Y-23749D01*
X46286Y-23750D01*
X46348Y-23688D01*
X46348Y-24751D01*
X45099Y-24751D01*
X45007Y-24789D01*
X44937Y-24859D01*
X44899Y-24950D01*
X44899Y-24957D01*
X44866Y-24964D01*
X44765Y-25031D01*
X44371Y-25425D01*
X42252Y-25425D01*
X42988Y-24688D01*
X43011Y-24711D01*
X43102Y-24749D01*
X43201Y-24749D01*
X45701Y-24749D01*
X45793Y-24711D01*
X45863Y-24641D01*
X45901Y-24550D01*
X45901Y-24451D01*
X45901Y-23951D01*
X45863Y-23859D01*
X45793Y-23789D01*
X45702Y-23751D01*
X45603Y-23751D01*
X43103Y-23751D01*
X43011Y-23789D01*
X42941Y-23859D01*
X42903Y-23950D01*
X42903Y-23957D01*
X42870Y-23964D01*
X42770Y-24031D01*
X41678Y-25123D01*
X40086Y-25123D01*
X40086Y-25089D01*
X40086Y-24813D01*
X40073Y-24783D01*
X40086Y-24755D01*
X40086Y-24656D01*
X40086Y-24380D01*
X40048Y-24288D01*
X39978Y-24218D01*
X39887Y-24180D01*
X39788Y-24180D01*
X39276Y-24180D01*
X39184Y-24218D01*
X39145Y-24257D01*
X39086Y-24257D01*
X38967Y-24281D01*
X38901Y-24325D01*
X38886Y-24288D01*
X38816Y-24218D01*
X38725Y-24180D01*
X38626Y-24180D01*
X38114Y-24180D01*
X38069Y-24198D01*
X37918Y-24047D01*
X37818Y-23980D01*
X37699Y-23956D01*
X35221Y-23956D01*
X35261Y-23916D01*
X35299Y-23825D01*
X35299Y-23726D01*
X35300Y-23612D01*
X35300Y-23388D01*
X35299Y-23274D01*
X35299Y-23175D01*
X35261Y-23084D01*
X35191Y-23014D01*
X35099Y-22976D01*
X34987Y-22975D01*
X34925Y-23037D01*
X34925Y-23450D01*
X35238Y-23450D01*
X35300Y-23388D01*
X35300Y-23612D01*
X35238Y-23550D01*
X34975Y-23550D01*
X34925Y-23550D01*
X34825Y-23550D01*
X34825Y-23450D01*
X34825Y-23400D01*
X34825Y-23037D01*
X34763Y-22975D01*
X34651Y-22976D01*
X34559Y-23014D01*
X34500Y-23073D01*
X34441Y-23014D01*
X34350Y-22976D01*
X34251Y-22976D01*
X33901Y-22976D01*
X33809Y-23014D01*
X33739Y-23084D01*
X33701Y-23175D01*
X33701Y-23274D01*
X33701Y-23824D01*
X33739Y-23916D01*
X33809Y-23986D01*
X33900Y-24024D01*
X33999Y-24024D01*
X34221Y-24024D01*
X34222Y-24024D01*
X34244Y-24057D01*
X34459Y-24272D01*
X34445Y-24275D01*
X34344Y-24342D01*
X34244Y-24443D01*
X34221Y-24476D01*
X33901Y-24476D01*
X33809Y-24514D01*
X33739Y-24584D01*
X33701Y-24675D01*
X33701Y-24774D01*
X33701Y-25324D01*
X33739Y-25416D01*
X33809Y-25486D01*
X33900Y-25524D01*
X33999Y-25524D01*
X34349Y-25524D01*
X34441Y-25486D01*
X34500Y-25427D01*
X34559Y-25486D01*
X34651Y-25524D01*
X34763Y-25525D01*
X34825Y-25463D01*
X34825Y-25100D01*
X34825Y-25050D01*
X34825Y-24950D01*
X34925Y-24950D01*
X34925Y-25050D01*
X34925Y-25100D01*
X34925Y-25463D01*
X34987Y-25525D01*
X35099Y-25524D01*
X35191Y-25486D01*
X35261Y-25416D01*
X35299Y-25325D01*
X35299Y-25226D01*
X35299Y-25183D01*
X35335Y-25219D01*
X35336Y-25219D01*
X35436Y-25286D01*
X35554Y-25309D01*
X35555Y-25310D01*
X37684Y-25310D01*
X36365Y-26629D01*
X35299Y-26629D01*
X35300Y-26612D01*
X35300Y-26388D01*
X35299Y-26274D01*
X35299Y-26175D01*
X35261Y-26084D01*
X35191Y-26014D01*
X35099Y-25976D01*
X34987Y-25975D01*
X34925Y-26037D01*
X34925Y-26450D01*
X35238Y-26450D01*
X35300Y-26388D01*
X35300Y-26612D01*
X35238Y-26550D01*
X34975Y-26550D01*
X34925Y-26550D01*
X34825Y-26550D01*
X34825Y-26450D01*
X34825Y-26400D01*
X34825Y-26037D01*
X34763Y-25975D01*
X34651Y-25976D01*
X34559Y-26014D01*
X34500Y-26073D01*
X34441Y-26014D01*
X34350Y-25976D01*
X34251Y-25976D01*
X33901Y-25976D01*
X33809Y-26014D01*
X33739Y-26084D01*
X33701Y-26175D01*
X33701Y-26274D01*
X33701Y-26824D01*
X33739Y-26916D01*
X33809Y-26986D01*
X33900Y-27024D01*
X33999Y-27024D01*
X34221Y-27024D01*
X34222Y-27024D01*
X34244Y-27057D01*
X34344Y-27158D01*
X34345Y-27158D01*
X34445Y-27225D01*
X34563Y-27248D01*
X34564Y-27249D01*
X36494Y-27249D01*
X36612Y-27225D01*
X36613Y-27225D01*
X36713Y-27158D01*
X38069Y-25802D01*
X38113Y-25820D01*
X38212Y-25820D01*
X38611Y-25820D01*
X38611Y-26216D01*
X38635Y-26335D01*
X38702Y-26435D01*
X38736Y-26469D01*
X38836Y-26536D01*
X38837Y-26536D01*
X38955Y-26560D01*
X42907Y-26560D01*
X42941Y-26641D01*
X43011Y-26711D01*
X43102Y-26749D01*
X43201Y-26749D01*
X45701Y-26749D01*
X45793Y-26711D01*
X45863Y-26641D01*
X45901Y-26550D01*
X45901Y-26451D01*
X45901Y-25951D01*
X45863Y-25859D01*
X45793Y-25789D01*
X45702Y-25751D01*
X45603Y-25751D01*
X44922Y-25751D01*
X44984Y-25688D01*
X45007Y-25711D01*
X45098Y-25749D01*
X45197Y-25749D01*
X47675Y-25749D01*
X47675Y-28402D01*
M02*
