<?xml version="1.0" standalone="no"?>
<!DOCTYPE svg PUBLIC "-//W3C//DTD SVG 1.1//EN" 
"http://www.w3.org/Graphics/SVG/1.1/DTD/svg11.dtd"> 
<svg
  xmlns="http://www.w3.org/2000/svg"
  version="1.1"
  width="11.7in" height="8.267in" viewBox="0 0 117000 82670 "
>
  <title>SVG Picture created as color_sensor_board-brd.svg </title>
  <desc>Picture generated by wxSVG v0101 </desc>
  <g style="fill:black; stroke:black; stroke-width:1">
</g>
<g style="fill:#000000; fill-opacity:0.0; 
  stroke:#0000C0; stroke-linecap:round; stroke-linejoin:round; stroke-opacity:1.0; stroke-opacity:1.0; stroke-width:0" 
   transform="translate(0 0) scale(1 1)">
<path d="M62898 26200 L62902 26200" /> 
<path d="M62900 26198 L62900 26202" /> 
</g>
<g style="fill:#00A0A0; fill-opacity:0.0; 
  stroke:#00A0A0; stroke-linecap:round; stroke-linejoin:round; stroke-opacity:1.0; stroke-opacity:1.0; stroke-width:79" 
   transform="translate(0 0) scale(1 1)">
<path d="M62366 26359 L62366 25965" /> 
<g style = "stroke-linecap:round;" > 
<path d="M62366 25965 L62366 25965" /> 
</g><path d="M62366 26116 L62403 26097" /> 
<path d="M62403 26097 L62478 26097" /> 
<path d="M62478 26097 L62516 26116" /> 
<path d="M62516 26116 L62535 26134" /> 
<path d="M62535 26134 L62553 26172" /> 
<path d="M62553 26172 L62553 26284" /> 
<path d="M62553 26284 L62535 26322" /> 
<path d="M62535 26322 L62516 26341" /> 
<path d="M62516 26341 L62478 26359" /> 
<path d="M62478 26359 L62403 26359" /> 
<path d="M62403 26359 L62366 26341" /> 
<g style = "stroke-linecap:round;" > 
<path d="M62366 26341 L62366 26341" /> 
</g><path d="M62778 26359 L62741 26341" /> 
<path d="M62741 26341 L62722 26303" /> 
<path d="M62722 26303 L62722 25965" /> 
<g style = "stroke-linecap:round;" > 
<path d="M62722 25965 L62722 25965" /> 
</g><path d="M63097 26097 L63097 26359" /> 
<g style = "stroke-linecap:round;" > 
<path d="M63097 26359 L63097 26359" /> 
</g><path d="M62928 26097 L62928 26303" /> 
<path d="M62928 26303 L62947 26341" /> 
<path d="M62947 26341 L62984 26359" /> 
<path d="M62984 26359 L63040 26359" /> 
<path d="M63040 26359 L63078 26341" /> 
<path d="M63078 26341 L63097 26322" /> 
<g style = "stroke-linecap:round;" > 
<path d="M63097 26322 L63097 26322" /> 
</g><path d="M63434 26341 L63396 26359" /> 
<path d="M63396 26359 L63321 26359" /> 
<path d="M63321 26359 L63284 26341" /> 
<path d="M63284 26341 L63265 26303" /> 
<path d="M63265 26303 L63265 26153" /> 
<path d="M63265 26153 L63284 26116" /> 
<path d="M63284 26116 L63321 26097" /> 
<path d="M63321 26097 L63396 26097" /> 
<path d="M63396 26097 L63434 26116" /> 
<path d="M63434 26116 L63453 26153" /> 
<path d="M63453 26153 L63453 26191" /> 
<path d="M63453 26191 L63265 26228" /> 
<g style = "stroke-linecap:round;" > 
<path d="M63265 26228 L63265 26228" /> 
</g></g>
<g style="fill:#00A0A0; fill-opacity:0.0; 
  stroke:#0000C0; stroke-linecap:round; stroke-linejoin:round; stroke-opacity:1.0; stroke-opacity:1.0; stroke-width:0" 
   transform="translate(0 0) scale(1 1)">
<path d="M62798 25200 L62802 25200" /> 
<path d="M62800 25198 L62800 25202" /> 
</g>
<g style="fill:#00A0A0; fill-opacity:0.0; 
  stroke:#00A0A0; stroke-linecap:round; stroke-linejoin:round; stroke-opacity:1.0; stroke-opacity:1.0; stroke-width:79" 
   transform="translate(0 0) scale(1 1)">
<path d="M62247 25097 L62247 25416" /> 
<path d="M62247 25416 L62228 25453" /> 
<path d="M62228 25453 L62209 25472" /> 
<path d="M62209 25472 L62172 25491" /> 
<path d="M62172 25491 L62115 25491" /> 
<path d="M62115 25491 L62078 25472" /> 
<g style = "stroke-linecap:round;" > 
<path d="M62078 25472 L62078 25472" /> 
</g><path d="M62247 25341 L62209 25359" /> 
<path d="M62209 25359 L62134 25359" /> 
<path d="M62134 25359 L62097 25341" /> 
<path d="M62097 25341 L62078 25322" /> 
<path d="M62078 25322 L62059 25284" /> 
<path d="M62059 25284 L62059 25172" /> 
<path d="M62059 25172 L62078 25134" /> 
<path d="M62078 25134 L62097 25116" /> 
<path d="M62097 25116 L62134 25097" /> 
<path d="M62134 25097 L62209 25097" /> 
<path d="M62209 25097 L62247 25116" /> 
<g style = "stroke-linecap:round;" > 
<path d="M62247 25116 L62247 25116" /> 
</g><path d="M62434 25359 L62434 25097" /> 
<g style = "stroke-linecap:round;" > 
<path d="M62434 25097 L62434 25097" /> 
</g><path d="M62434 25172 L62453 25134" /> 
<path d="M62453 25134 L62471 25116" /> 
<path d="M62471 25116 L62509 25097" /> 
<path d="M62509 25097 L62546 25097" /> 
<g style = "stroke-linecap:round;" > 
<path d="M62546 25097 L62546 25097" /> 
</g><path d="M62828 25341 L62790 25359" /> 
<path d="M62790 25359 L62715 25359" /> 
<path d="M62715 25359 L62678 25341" /> 
<path d="M62678 25341 L62659 25303" /> 
<path d="M62659 25303 L62659 25153" /> 
<path d="M62659 25153 L62678 25116" /> 
<path d="M62678 25116 L62715 25097" /> 
<path d="M62715 25097 L62790 25097" /> 
<path d="M62790 25097 L62828 25116" /> 
<path d="M62828 25116 L62847 25153" /> 
<path d="M62847 25153 L62847 25191" /> 
<path d="M62847 25191 L62659 25228" /> 
<g style = "stroke-linecap:round;" > 
<path d="M62659 25228 L62659 25228" /> 
</g><path d="M63166 25341 L63128 25359" /> 
<path d="M63128 25359 L63053 25359" /> 
<path d="M63053 25359 L63016 25341" /> 
<path d="M63016 25341 L62997 25303" /> 
<path d="M62997 25303 L62997 25153" /> 
<path d="M62997 25153 L63016 25116" /> 
<path d="M63016 25116 L63053 25097" /> 
<path d="M63053 25097 L63128 25097" /> 
<path d="M63128 25097 L63166 25116" /> 
<path d="M63166 25116 L63185 25153" /> 
<path d="M63185 25153 L63185 25191" /> 
<path d="M63185 25191 L62997 25228" /> 
<g style = "stroke-linecap:round;" > 
<path d="M62997 25228 L62997 25228" /> 
</g><path d="M63354 25097 L63354 25359" /> 
<g style = "stroke-linecap:round;" > 
<path d="M63354 25359 L63354 25359" /> 
</g><path d="M63354 25134 L63373 25116" /> 
<path d="M63373 25116 L63410 25097" /> 
<path d="M63410 25097 L63466 25097" /> 
<path d="M63466 25097 L63504 25116" /> 
<path d="M63504 25116 L63523 25153" /> 
<path d="M63523 25153 L63523 25359" /> 
<g style = "stroke-linecap:round;" > 
<path d="M63523 25359 L63523 25359" /> 
</g></g>
<g style="fill:#00A0A0; fill-opacity:0.0; 
  stroke:#0000C0; stroke-linecap:round; stroke-linejoin:round; stroke-opacity:1.0; stroke-opacity:1.0; stroke-width:0" 
   transform="translate(0 0) scale(1 1)">
<path d="M62998 24300 L63002 24300" /> 
<path d="M63000 24298 L63000 24302" /> 
</g>
<g style="fill:#00A0A0; fill-opacity:0.0; 
  stroke:#00A0A0; stroke-linecap:round; stroke-linejoin:round; stroke-opacity:1.0; stroke-opacity:1.0; stroke-width:79" 
   transform="translate(0 0) scale(1 1)">
<path d="M62625 24459 L62625 24197" /> 
<g style = "stroke-linecap:round;" > 
<path d="M62625 24197 L62625 24197" /> 
</g><path d="M62625 24272 L62644 24234" /> 
<path d="M62644 24234 L62662 24216" /> 
<path d="M62662 24216 L62700 24197" /> 
<path d="M62700 24197 L62737 24197" /> 
<g style = "stroke-linecap:round;" > 
<path d="M62737 24197 L62737 24197" /> 
</g><path d="M63019 24441 L62981 24459" /> 
<path d="M62981 24459 L62906 24459" /> 
<path d="M62906 24459 L62869 24441" /> 
<path d="M62869 24441 L62850 24403" /> 
<path d="M62850 24403 L62850 24253" /> 
<path d="M62850 24253 L62869 24216" /> 
<path d="M62869 24216 L62906 24197" /> 
<path d="M62906 24197 L62981 24197" /> 
<path d="M62981 24197 L63019 24216" /> 
<path d="M63019 24216 L63038 24253" /> 
<path d="M63038 24253 L63038 24291" /> 
<path d="M63038 24291 L62850 24328" /> 
<g style = "stroke-linecap:round;" > 
<path d="M62850 24328 L62850 24328" /> 
</g><path d="M63376 24459 L63376 24065" /> 
<g style = "stroke-linecap:round;" > 
<path d="M63376 24065 L63376 24065" /> 
</g><path d="M63376 24441 L63338 24459" /> 
<path d="M63338 24459 L63263 24459" /> 
<path d="M63263 24459 L63226 24441" /> 
<path d="M63226 24441 L63207 24422" /> 
<path d="M63207 24422 L63188 24384" /> 
<path d="M63188 24384 L63188 24272" /> 
<path d="M63188 24272 L63207 24234" /> 
<path d="M63207 24234 L63226 24216" /> 
<path d="M63226 24216 L63263 24197" /> 
<path d="M63263 24197 L63338 24197" /> 
<path d="M63338 24197 L63376 24216" /> 
<g style = "stroke-linecap:round;" > 
<path d="M63376 24216 L63376 24216" /> 
</g></g>
<g style="fill:#00A0A0; fill-opacity:0.0; 
  stroke:#0000C0; stroke-linecap:round; stroke-linejoin:round; stroke-opacity:1.0; stroke-opacity:1.0; stroke-width:0" 
   transform="translate(0 0) scale(1 1)">
<path d="M62998 23400 L63002 23400" /> 
<path d="M63000 23398 L63000 23402" /> 
</g>
<g style="fill:#00A0A0; fill-opacity:0.0; 
  stroke:#00A0A0; stroke-linecap:round; stroke-linejoin:round; stroke-opacity:1.0; stroke-opacity:1.0; stroke-width:79" 
   transform="translate(0 0) scale(1 1)">
<path d="M62700 23184 L62663 23165" /> 
<path d="M62663 23165 L62606 23165" /> 
<path d="M62606 23165 L62550 23184" /> 
<path d="M62550 23184 L62513 23222" /> 
<path d="M62513 23222 L62494 23259" /> 
<path d="M62494 23259 L62475 23334" /> 
<path d="M62475 23334 L62475 23391" /> 
<path d="M62475 23391 L62494 23466" /> 
<path d="M62494 23466 L62513 23503" /> 
<path d="M62513 23503 L62550 23541" /> 
<path d="M62550 23541 L62606 23559" /> 
<path d="M62606 23559 L62644 23559" /> 
<path d="M62644 23559 L62700 23541" /> 
<path d="M62700 23541 L62719 23522" /> 
<path d="M62719 23522 L62719 23391" /> 
<path d="M62719 23391 L62644 23391" /> 
<g style = "stroke-linecap:round;" > 
<path d="M62644 23391 L62644 23391" /> 
</g><path d="M62888 23559 L62888 23165" /> 
<path d="M62888 23165 L63113 23559" /> 
<path d="M63113 23559 L63113 23165" /> 
<g style = "stroke-linecap:round;" > 
<path d="M63113 23165 L63113 23165" /> 
</g><path d="M63301 23559 L63301 23165" /> 
<path d="M63301 23165 L63395 23165" /> 
<path d="M63395 23165 L63451 23184" /> 
<path d="M63451 23184 L63488 23222" /> 
<path d="M63488 23222 L63507 23259" /> 
<path d="M63507 23259 L63526 23334" /> 
<path d="M63526 23334 L63526 23391" /> 
<path d="M63526 23391 L63507 23466" /> 
<path d="M63507 23466 L63488 23503" /> 
<path d="M63488 23503 L63451 23541" /> 
<path d="M63451 23541 L63395 23559" /> 
<path d="M63395 23559 L63301 23559" /> 
</g>
<g style="fill:#00A0A0; fill-opacity:0.0; 
  stroke:#0000C0; stroke-linecap:round; stroke-linejoin:round; stroke-opacity:1.0; stroke-opacity:1.0; stroke-width:0" 
   transform="translate(0 0) scale(1 1)">
<path d="M59398 21000 L59402 21000" /> 
<path d="M59400 20998 L59400 21002" /> 
</g>
<g style="fill:#00A0A0; fill-opacity:0.0; 
  stroke:#00A0A0; stroke-linecap:round; stroke-linejoin:round; stroke-opacity:1.0; stroke-opacity:1.0; stroke-width:120" 
   transform="translate(0 0) scale(1 1)">
<path d="M56443 21324 L56443 20524" /> 
<g style = "stroke-linecap:round;" > 
<path d="M56443 20524 L56443 20524" /> 
</g><path d="M56843 20524 L56957 20524" /> 
<path d="M56957 20524 L57015 20562" /> 
<path d="M57015 20562 L57072 20638" /> 
<path d="M57072 20638 L57100 20790" /> 
<path d="M57100 20790 L57100 21057" /> 
<path d="M57100 21057 L57072 21210" /> 
<path d="M57072 21210 L57015 21286" /> 
<path d="M57015 21286 L56957 21324" /> 
<path d="M56957 21324 L56843 21324" /> 
<path d="M56843 21324 L56786 21286" /> 
<path d="M56786 21286 L56729 21210" /> 
<path d="M56729 21210 L56700 21057" /> 
<path d="M56700 21057 L56700 20790" /> 
<path d="M56700 20790 L56729 20638" /> 
<path d="M56729 20638 L56786 20562" /> 
<path d="M56786 20562 L56843 20524" /> 
<path d="M58158 21324 L57958 20943" /> 
<g style = "stroke-linecap:round;" > 
<path d="M57958 20943 L57958 20943" /> 
</g><path d="M57815 21324 L57815 20524" /> 
<path d="M57815 20524 L58043 20524" /> 
<path d="M58043 20524 L58101 20562" /> 
<path d="M58101 20562 L58129 20600" /> 
<path d="M58129 20600 L58158 20676" /> 
<path d="M58158 20676 L58158 20790" /> 
<path d="M58158 20790 L58129 20867" /> 
<path d="M58129 20867 L58101 20905" /> 
<path d="M58101 20905 L58043 20943" /> 
<path d="M58043 20943 L57815 20943" /> 
<g style = "stroke-linecap:round;" > 
<path d="M57815 20943 L57815 20943" /> 
</g><path d="M58501 21324 L58443 21286" /> 
<path d="M58443 21286 L58415 21248" /> 
<path d="M58415 21248 L58386 21171" /> 
<path d="M58386 21171 L58386 20943" /> 
<path d="M58386 20943 L58415 20867" /> 
<path d="M58415 20867 L58443 20829" /> 
<path d="M58443 20829 L58501 20790" /> 
<path d="M58501 20790 L58586 20790" /> 
<path d="M58586 20790 L58643 20829" /> 
<path d="M58643 20829 L58672 20867" /> 
<path d="M58672 20867 L58701 20943" /> 
<path d="M58701 20943 L58701 21171" /> 
<path d="M58701 21171 L58672 21248" /> 
<path d="M58672 21248 L58643 21286" /> 
<path d="M58643 21286 L58586 21324" /> 
<path d="M58586 21324 L58501 21324" /> 
<path d="M59215 21324 L59215 20524" /> 
<g style = "stroke-linecap:round;" > 
<path d="M59215 20524 L59215 20524" /> 
</g><path d="M59215 21286 L59158 21324" /> 
<path d="M59158 21324 L59044 21324" /> 
<path d="M59044 21324 L58986 21286" /> 
<path d="M58986 21286 L58958 21248" /> 
<path d="M58958 21248 L58929 21171" /> 
<path d="M58929 21171 L58929 20943" /> 
<path d="M58929 20943 L58958 20867" /> 
<path d="M58958 20867 L58986 20829" /> 
<path d="M58986 20829 L59044 20790" /> 
<path d="M59044 20790 L59158 20790" /> 
<path d="M59158 20790 L59215 20829" /> 
<g style = "stroke-linecap:round;" > 
<path d="M59215 20829 L59215 20829" /> 
</g><path d="M59729 21286 L59672 21324" /> 
<path d="M59672 21324 L59558 21324" /> 
<path d="M59558 21324 L59501 21286" /> 
<path d="M59501 21286 L59472 21210" /> 
<path d="M59472 21210 L59472 20905" /> 
<path d="M59472 20905 L59501 20829" /> 
<path d="M59501 20829 L59558 20790" /> 
<path d="M59558 20790 L59672 20790" /> 
<path d="M59672 20790 L59729 20829" /> 
<path d="M59729 20829 L59758 20905" /> 
<path d="M59758 20905 L59758 20981" /> 
<path d="M59758 20981 L59472 21057" /> 
<g style = "stroke-linecap:round;" > 
<path d="M59472 21057 L59472 21057" /> 
</g><path d="M60101 21324 L60043 21286" /> 
<path d="M60043 21286 L60015 21248" /> 
<path d="M60015 21248 L59986 21171" /> 
<path d="M59986 21171 L59986 20943" /> 
<path d="M59986 20943 L60015 20867" /> 
<path d="M60015 20867 L60043 20829" /> 
<path d="M60043 20829 L60101 20790" /> 
<path d="M60101 20790 L60186 20790" /> 
<path d="M60186 20790 L60243 20829" /> 
<path d="M60243 20829 L60272 20867" /> 
<path d="M60272 20867 L60301 20943" /> 
<path d="M60301 20943 L60301 21171" /> 
<path d="M60301 21171 L60272 21248" /> 
<path d="M60272 21248 L60243 21286" /> 
<path d="M60243 21286 L60186 21324" /> 
<path d="M60186 21324 L60101 21324" /> 
<path d="M61015 21324 L61015 20524" /> 
<g style = "stroke-linecap:round;" > 
<path d="M61015 20524 L61015 20524" /> 
</g><path d="M61301 20790 L61301 21324" /> 
<g style = "stroke-linecap:round;" > 
<path d="M61301 21324 L61301 21324" /> 
</g><path d="M61301 20867 L61329 20829" /> 
<path d="M61329 20829 L61387 20790" /> 
<path d="M61387 20790 L61472 20790" /> 
<path d="M61472 20790 L61529 20829" /> 
<path d="M61529 20829 L61558 20905" /> 
<path d="M61558 20905 L61558 21324" /> 
<g style = "stroke-linecap:round;" > 
<path d="M61558 21324 L61558 21324" /> 
</g><path d="M62101 21286 L62044 21324" /> 
<path d="M62044 21324 L61930 21324" /> 
<path d="M61930 21324 L61872 21286" /> 
<path d="M61872 21286 L61844 21248" /> 
<path d="M61844 21248 L61815 21171" /> 
<path d="M61815 21171 L61815 20943" /> 
<path d="M61815 20943 L61844 20867" /> 
<path d="M61844 20867 L61872 20829" /> 
<path d="M61872 20829 L61930 20790" /> 
<path d="M61930 20790 L62044 20790" /> 
<path d="M62044 20790 L62101 20829" /> 
<g style = "stroke-linecap:round;" > 
<path d="M62101 20829 L62101 20829" /> 
</g><path d="M62358 21248 L62386 21286" /> 
<path d="M62386 21286 L62358 21324" /> 
<path d="M62358 21324 L62329 21286" /> 
<path d="M62329 21286 L62358 21248" /> 
<path d="M62358 21248 L62358 21324" /> 
<g style = "stroke-linecap:round;" > 
<path d="M62358 21324 L62358 21324" /> 
</g></g>
<g style="fill:#00A0A0; fill-opacity:0.0; 
  stroke:#FFFF00; stroke-linecap:round; stroke-linejoin:round; stroke-opacity:1.0; stroke-opacity:1.0; stroke-width:150" 
   transform="translate(0 0) scale(1 1)">
<path d="M50000 30000 L68000 30000" /> 
<path d="M68000 20000 L68000 30000" /> 
</g>
<g style="fill:#00A0A0; fill-opacity:0.0; 
  stroke:#0000C0; stroke-linecap:round; stroke-linejoin:round; stroke-opacity:1.0; stroke-opacity:1.0; stroke-width:0" 
   transform="translate(0 0) scale(1 1)">
<path d="M58998 29100 L59002 29100" /> 
<path d="M59000 29098 L59000 29102" /> 
</g>
<g style="fill:#00A0A0; fill-opacity:0.0; 
  stroke:#00A0A0; stroke-linecap:round; stroke-linejoin:round; stroke-opacity:1.0; stroke-opacity:1.0; stroke-width:120" 
   transform="translate(0 0) scale(1 1)">
<path d="M52445 29348 L52416 29386" /> 
<path d="M52416 29386 L52330 29424" /> 
<path d="M52330 29424 L52273 29424" /> 
<path d="M52273 29424 L52188 29386" /> 
<path d="M52188 29386 L52130 29310" /> 
<path d="M52130 29310 L52102 29233" /> 
<path d="M52102 29233 L52073 29081" /> 
<path d="M52073 29081 L52073 28967" /> 
<path d="M52073 28967 L52102 28814" /> 
<path d="M52102 28814 L52130 28738" /> 
<path d="M52130 28738 L52188 28662" /> 
<path d="M52188 28662 L52273 28624" /> 
<path d="M52273 28624 L52330 28624" /> 
<path d="M52330 28624 L52416 28662" /> 
<path d="M52416 28662 L52445 28700" /> 
<g style = "stroke-linecap:round;" > 
<path d="M52445 28700 L52445 28700" /> 
</g><path d="M52788 29424 L52730 29386" /> 
<path d="M52730 29386 L52702 29348" /> 
<path d="M52702 29348 L52673 29271" /> 
<path d="M52673 29271 L52673 29043" /> 
<path d="M52673 29043 L52702 28967" /> 
<path d="M52702 28967 L52730 28929" /> 
<path d="M52730 28929 L52788 28890" /> 
<path d="M52788 28890 L52873 28890" /> 
<path d="M52873 28890 L52930 28929" /> 
<path d="M52930 28929 L52959 28967" /> 
<path d="M52959 28967 L52988 29043" /> 
<path d="M52988 29043 L52988 29271" /> 
<path d="M52988 29271 L52959 29348" /> 
<path d="M52959 29348 L52930 29386" /> 
<path d="M52930 29386 L52873 29424" /> 
<path d="M52873 29424 L52788 29424" /> 
<path d="M53331 29424 L53273 29386" /> 
<path d="M53273 29386 L53245 29310" /> 
<path d="M53245 29310 L53245 28624" /> 
<g style = "stroke-linecap:round;" > 
<path d="M53245 28624 L53245 28624" /> 
</g><path d="M53645 29424 L53587 29386" /> 
<path d="M53587 29386 L53559 29348" /> 
<path d="M53559 29348 L53530 29271" /> 
<path d="M53530 29271 L53530 29043" /> 
<path d="M53530 29043 L53559 28967" /> 
<path d="M53559 28967 L53587 28929" /> 
<path d="M53587 28929 L53645 28890" /> 
<path d="M53645 28890 L53730 28890" /> 
<path d="M53730 28890 L53787 28929" /> 
<path d="M53787 28929 L53816 28967" /> 
<path d="M53816 28967 L53845 29043" /> 
<path d="M53845 29043 L53845 29271" /> 
<path d="M53845 29271 L53816 29348" /> 
<path d="M53816 29348 L53787 29386" /> 
<path d="M53787 29386 L53730 29424" /> 
<path d="M53730 29424 L53645 29424" /> 
<path d="M54102 29424 L54102 28890" /> 
<g style = "stroke-linecap:round;" > 
<path d="M54102 28890 L54102 28890" /> 
</g><path d="M54102 29043 L54130 28967" /> 
<path d="M54130 28967 L54159 28929" /> 
<path d="M54159 28929 L54216 28890" /> 
<path d="M54216 28890 L54273 28890" /> 
<g style = "stroke-linecap:round;" > 
<path d="M54273 28890 L54273 28890" /> 
</g><path d="M54473 29424 L54473 28890" /> 
<g style = "stroke-linecap:round;" > 
<path d="M54473 28890 L54473 28890" /> 
</g><path d="M54473 28624 L54444 28662" /> 
<path d="M54444 28662 L54473 28700" /> 
<path d="M54473 28700 L54501 28662" /> 
<path d="M54501 28662 L54473 28624" /> 
<path d="M54473 28624 L54473 28700" /> 
<g style = "stroke-linecap:round;" > 
<path d="M54473 28700 L54473 28700" /> 
</g><path d="M54759 29424 L54759 28890" /> 
<g style = "stroke-linecap:round;" > 
<path d="M54759 28890 L54759 28890" /> 
</g><path d="M54759 28967 L54787 28929" /> 
<path d="M54787 28929 L54845 28890" /> 
<path d="M54845 28890 L54930 28890" /> 
<path d="M54930 28890 L54987 28929" /> 
<path d="M54987 28929 L55016 29005" /> 
<path d="M55016 29005 L55016 29424" /> 
<g style = "stroke-linecap:round;" > 
<path d="M55016 29424 L55016 29424" /> 
</g><path d="M55016 29005 L55045 28929" /> 
<path d="M55045 28929 L55102 28890" /> 
<path d="M55102 28890 L55187 28890" /> 
<path d="M55187 28890 L55245 28929" /> 
<path d="M55245 28929 L55273 29005" /> 
<path d="M55273 29005 L55273 29424" /> 
<g style = "stroke-linecap:round;" > 
<path d="M55273 29424 L55273 29424" /> 
</g><path d="M55787 29386 L55730 29424" /> 
<path d="M55730 29424 L55616 29424" /> 
<path d="M55616 29424 L55559 29386" /> 
<path d="M55559 29386 L55530 29310" /> 
<path d="M55530 29310 L55530 29005" /> 
<path d="M55530 29005 L55559 28929" /> 
<path d="M55559 28929 L55616 28890" /> 
<path d="M55616 28890 L55730 28890" /> 
<path d="M55730 28890 L55787 28929" /> 
<path d="M55787 28929 L55816 29005" /> 
<path d="M55816 29005 L55816 29081" /> 
<path d="M55816 29081 L55530 29157" /> 
<g style = "stroke-linecap:round;" > 
<path d="M55530 29157 L55530 29157" /> 
</g><path d="M55987 28890 L56216 28890" /> 
<g style = "stroke-linecap:round;" > 
<path d="M56216 28890 L56216 28890" /> 
</g><path d="M56073 28624 L56073 29310" /> 
<path d="M56073 29310 L56101 29386" /> 
<path d="M56101 29386 L56159 29424" /> 
<path d="M56159 29424 L56216 29424" /> 
<g style = "stroke-linecap:round;" > 
<path d="M56216 29424 L56216 29424" /> 
</g><path d="M56644 29386 L56587 29424" /> 
<path d="M56587 29424 L56473 29424" /> 
<path d="M56473 29424 L56416 29386" /> 
<path d="M56416 29386 L56387 29310" /> 
<path d="M56387 29310 L56387 29005" /> 
<path d="M56387 29005 L56416 28929" /> 
<path d="M56416 28929 L56473 28890" /> 
<path d="M56473 28890 L56587 28890" /> 
<path d="M56587 28890 L56644 28929" /> 
<path d="M56644 28929 L56673 29005" /> 
<path d="M56673 29005 L56673 29081" /> 
<path d="M56673 29081 L56387 29157" /> 
<g style = "stroke-linecap:round;" > 
<path d="M56387 29157 L56387 29157" /> 
</g><path d="M56930 29424 L56930 28890" /> 
<g style = "stroke-linecap:round;" > 
<path d="M56930 28890 L56930 28890" /> 
</g><path d="M56930 29043 L56958 28967" /> 
<path d="M56958 28967 L56987 28929" /> 
<path d="M56987 28929 L57044 28890" /> 
<path d="M57044 28890 L57101 28890" /> 
<g style = "stroke-linecap:round;" > 
<path d="M57101 28890 L57101 28890" /> 
</g><path d="M57729 29386 L57815 29424" /> 
<path d="M57815 29424 L57958 29424" /> 
<path d="M57958 29424 L58015 29386" /> 
<path d="M58015 29386 L58044 29348" /> 
<path d="M58044 29348 L58072 29271" /> 
<path d="M58072 29271 L58072 29195" /> 
<path d="M58072 29195 L58044 29119" /> 
<path d="M58044 29119 L58015 29081" /> 
<path d="M58015 29081 L57958 29043" /> 
<path d="M57958 29043 L57844 29005" /> 
<path d="M57844 29005 L57786 28967" /> 
<path d="M57786 28967 L57758 28929" /> 
<path d="M57758 28929 L57729 28852" /> 
<path d="M57729 28852 L57729 28776" /> 
<path d="M57729 28776 L57758 28700" /> 
<path d="M57758 28700 L57786 28662" /> 
<path d="M57786 28662 L57844 28624" /> 
<path d="M57844 28624 L57986 28624" /> 
<path d="M57986 28624 L58072 28662" /> 
<g style = "stroke-linecap:round;" > 
<path d="M58072 28662 L58072 28662" /> 
</g><path d="M58557 29386 L58500 29424" /> 
<path d="M58500 29424 L58386 29424" /> 
<path d="M58386 29424 L58329 29386" /> 
<path d="M58329 29386 L58300 29310" /> 
<path d="M58300 29310 L58300 29005" /> 
<path d="M58300 29005 L58329 28929" /> 
<path d="M58329 28929 L58386 28890" /> 
<path d="M58386 28890 L58500 28890" /> 
<path d="M58500 28890 L58557 28929" /> 
<path d="M58557 28929 L58586 29005" /> 
<path d="M58586 29005 L58586 29081" /> 
<path d="M58586 29081 L58300 29157" /> 
<g style = "stroke-linecap:round;" > 
<path d="M58300 29157 L58300 29157" /> 
</g><path d="M58843 28890 L58843 29424" /> 
<g style = "stroke-linecap:round;" > 
<path d="M58843 29424 L58843 29424" /> 
</g><path d="M58843 28967 L58871 28929" /> 
<path d="M58871 28929 L58929 28890" /> 
<path d="M58929 28890 L59014 28890" /> 
<path d="M59014 28890 L59071 28929" /> 
<path d="M59071 28929 L59100 29005" /> 
<path d="M59100 29005 L59100 29424" /> 
<g style = "stroke-linecap:round;" > 
<path d="M59100 29424 L59100 29424" /> 
</g><path d="M59357 29386 L59414 29424" /> 
<path d="M59414 29424 L59529 29424" /> 
<path d="M59529 29424 L59586 29386" /> 
<path d="M59586 29386 L59614 29310" /> 
<path d="M59614 29310 L59614 29271" /> 
<path d="M59614 29271 L59586 29195" /> 
<path d="M59586 29195 L59529 29157" /> 
<path d="M59529 29157 L59443 29157" /> 
<path d="M59443 29157 L59386 29119" /> 
<path d="M59386 29119 L59357 29043" /> 
<path d="M59357 29043 L59357 29005" /> 
<path d="M59357 29005 L59386 28929" /> 
<path d="M59386 28929 L59443 28890" /> 
<path d="M59443 28890 L59529 28890" /> 
<path d="M59529 28890 L59586 28929" /> 
<g style = "stroke-linecap:round;" > 
<path d="M59586 28929 L59586 28929" /> 
</g><path d="M59958 29424 L59900 29386" /> 
<path d="M59900 29386 L59872 29348" /> 
<path d="M59872 29348 L59843 29271" /> 
<path d="M59843 29271 L59843 29043" /> 
<path d="M59843 29043 L59872 28967" /> 
<path d="M59872 28967 L59900 28929" /> 
<path d="M59900 28929 L59958 28890" /> 
<path d="M59958 28890 L60043 28890" /> 
<path d="M60043 28890 L60100 28929" /> 
<path d="M60100 28929 L60129 28967" /> 
<path d="M60129 28967 L60158 29043" /> 
<path d="M60158 29043 L60158 29271" /> 
<path d="M60158 29271 L60129 29348" /> 
<path d="M60129 29348 L60100 29386" /> 
<path d="M60100 29386 L60043 29424" /> 
<path d="M60043 29424 L59958 29424" /> 
<path d="M60415 29424 L60415 28890" /> 
<g style = "stroke-linecap:round;" > 
<path d="M60415 28890 L60415 28890" /> 
</g><path d="M60415 29043 L60443 28967" /> 
<path d="M60443 28967 L60472 28929" /> 
<path d="M60472 28929 L60529 28890" /> 
<path d="M60529 28890 L60586 28890" /> 
<g style = "stroke-linecap:round;" > 
<path d="M60586 28890 L60586 28890" /> 
</g><path d="M61443 29005 L61529 29043" /> 
<path d="M61529 29043 L61557 29081" /> 
<path d="M61557 29081 L61586 29157" /> 
<path d="M61586 29157 L61586 29271" /> 
<path d="M61586 29271 L61557 29348" /> 
<path d="M61557 29348 L61529 29386" /> 
<path d="M61529 29386 L61471 29424" /> 
<path d="M61471 29424 L61243 29424" /> 
<path d="M61243 29424 L61243 28624" /> 
<path d="M61243 28624 L61443 28624" /> 
<path d="M61443 28624 L61500 28662" /> 
<path d="M61500 28662 L61529 28700" /> 
<path d="M61529 28700 L61557 28776" /> 
<path d="M61557 28776 L61557 28852" /> 
<path d="M61557 28852 L61529 28929" /> 
<path d="M61529 28929 L61500 28967" /> 
<path d="M61500 28967 L61443 29005" /> 
<path d="M61443 29005 L61243 29005" /> 
<g style = "stroke-linecap:round;" > 
<path d="M61243 29005 L61243 29005" /> 
</g><path d="M61929 29424 L61871 29386" /> 
<path d="M61871 29386 L61843 29348" /> 
<path d="M61843 29348 L61814 29271" /> 
<path d="M61814 29271 L61814 29043" /> 
<path d="M61814 29043 L61843 28967" /> 
<path d="M61843 28967 L61871 28929" /> 
<path d="M61871 28929 L61929 28890" /> 
<path d="M61929 28890 L62014 28890" /> 
<path d="M62014 28890 L62071 28929" /> 
<path d="M62071 28929 L62100 28967" /> 
<path d="M62100 28967 L62129 29043" /> 
<path d="M62129 29043 L62129 29271" /> 
<path d="M62129 29271 L62100 29348" /> 
<path d="M62100 29348 L62071 29386" /> 
<path d="M62071 29386 L62014 29424" /> 
<path d="M62014 29424 L61929 29424" /> 
<path d="M62643 29424 L62643 29005" /> 
<path d="M62643 29005 L62614 28929" /> 
<path d="M62614 28929 L62557 28890" /> 
<path d="M62557 28890 L62443 28890" /> 
<path d="M62443 28890 L62386 28929" /> 
<g style = "stroke-linecap:round;" > 
<path d="M62386 28929 L62386 28929" /> 
</g><path d="M62643 29386 L62586 29424" /> 
<path d="M62586 29424 L62443 29424" /> 
<path d="M62443 29424 L62386 29386" /> 
<path d="M62386 29386 L62357 29310" /> 
<path d="M62357 29310 L62357 29233" /> 
<path d="M62357 29233 L62386 29157" /> 
<path d="M62386 29157 L62443 29119" /> 
<path d="M62443 29119 L62586 29119" /> 
<path d="M62586 29119 L62643 29081" /> 
<g style = "stroke-linecap:round;" > 
<path d="M62643 29081 L62643 29081" /> 
</g><path d="M62929 29424 L62929 28890" /> 
<g style = "stroke-linecap:round;" > 
<path d="M62929 28890 L62929 28890" /> 
</g><path d="M62929 29043 L62957 28967" /> 
<path d="M62957 28967 L62986 28929" /> 
<path d="M62986 28929 L63043 28890" /> 
<path d="M63043 28890 L63100 28890" /> 
<g style = "stroke-linecap:round;" > 
<path d="M63100 28890 L63100 28890" /> 
</g><path d="M63557 29424 L63557 28624" /> 
<g style = "stroke-linecap:round;" > 
<path d="M63557 28624 L63557 28624" /> 
</g><path d="M63557 29386 L63500 29424" /> 
<path d="M63500 29424 L63386 29424" /> 
<path d="M63386 29424 L63328 29386" /> 
<path d="M63328 29386 L63300 29348" /> 
<path d="M63300 29348 L63271 29271" /> 
<path d="M63271 29271 L63271 29043" /> 
<path d="M63271 29043 L63300 28967" /> 
<path d="M63300 28967 L63328 28929" /> 
<path d="M63328 28929 L63386 28890" /> 
<path d="M63386 28890 L63500 28890" /> 
<path d="M63500 28890 L63557 28929" /> 
<g style = "stroke-linecap:round;" > 
<path d="M63557 28929 L63557 28929" /> 
</g><path d="M64243 28890 L64386 29424" /> 
<path d="M64386 29424 L64528 28890" /> 
<g style = "stroke-linecap:round;" > 
<path d="M64528 28890 L64528 28890" /> 
</g><path d="M64728 28700 L64757 28662" /> 
<path d="M64757 28662 L64814 28624" /> 
<path d="M64814 28624 L64957 28624" /> 
<path d="M64957 28624 L65014 28662" /> 
<path d="M65014 28662 L65043 28700" /> 
<path d="M65043 28700 L65071 28776" /> 
<path d="M65071 28776 L65071 28852" /> 
<path d="M65071 28852 L65043 28967" /> 
<path d="M65043 28967 L64700 29424" /> 
<path d="M64700 29424 L65071 29424" /> 
<g style = "stroke-linecap:round;" > 
<path d="M65071 29424 L65071 29424" /> 
</g><path d="M65328 29348 L65356 29386" /> 
<path d="M65356 29386 L65328 29424" /> 
<path d="M65328 29424 L65299 29386" /> 
<path d="M65299 29386 L65328 29348" /> 
<path d="M65328 29348 L65328 29424" /> 
<g style = "stroke-linecap:round;" > 
<path d="M65328 29424 L65328 29424" /> 
</g><path d="M65728 28624 L65785 28624" /> 
<path d="M65785 28624 L65842 28662" /> 
<path d="M65842 28662 L65871 28700" /> 
<path d="M65871 28700 L65900 28776" /> 
<path d="M65900 28776 L65928 28929" /> 
<path d="M65928 28929 L65928 29119" /> 
<path d="M65928 29119 L65900 29271" /> 
<path d="M65900 29271 L65871 29348" /> 
<path d="M65871 29348 L65842 29386" /> 
<path d="M65842 29386 L65785 29424" /> 
<path d="M65785 29424 L65728 29424" /> 
<path d="M65728 29424 L65671 29386" /> 
<path d="M65671 29386 L65642 29348" /> 
<path d="M65642 29348 L65614 29271" /> 
<path d="M65614 29271 L65585 29119" /> 
<path d="M65585 29119 L65585 28929" /> 
<path d="M65585 28929 L65614 28776" /> 
<path d="M65614 28776 L65642 28700" /> 
<path d="M65642 28700 L65671 28662" /> 
<path d="M65671 28662 L65728 28624" /> 
</g>
<g style="fill:#00A0A0; fill-opacity:0.0; 
  stroke:#FFFF00; stroke-linecap:round; stroke-linejoin:round; stroke-opacity:1.0; stroke-opacity:1.0; stroke-width:150" 
   transform="translate(0 0) scale(1 1)">
<path d="M50000 20000 L50000 30000" /> 
<path d="M50000 20000 L68000 20000" /> 
</g>
<g style="fill:#00A0A0; fill-opacity:0.0; 
  stroke:#A00000; stroke-linecap:round; stroke-linejoin:round; stroke-opacity:1.0; stroke-opacity:1.0; stroke-width:120" 
   transform="translate(0 0) scale(1 1)">
<path d="M53697 21800 L53409 21800" /> 
<path d="M59750 24085 L59750 23479" /> 
<path d="M52963 22726 L53500 22189" /> 
<path d="M52963 26463 L52963 22726" /> 
<path d="M53500 27000 L52963 26463" /> 
<path d="M58460 22189 L53500 22189" /> 
<path d="M59750 23479 L58460 22189" /> 
<path d="M53409 22098 L53409 21800" /> 
<path d="M53500 22189 L53409 22098" /> 
<path d="M59250 24085 L59250 24691" /> 
<path d="M55191 24691 L54500 24000" /> 
<path d="M59250 24691 L55191 24691" /> 
</g>
<g style="fill:#C0C0C0; fill-opacity:1.0; 
  stroke:#C0C0C0; stroke-linecap:round; stroke-linejoin:round; stroke-opacity:1.0; stroke-opacity:1.0; stroke-width:0" 
   transform="translate(0 0) scale(1 1)">
<ellipse cx="58036" cy="25192" rx="175" ry="175"  /> 
</g>
<g style="fill:#C0C0C0; fill-opacity:1.0; 
  stroke:#A00000; stroke-linecap:round; stroke-linejoin:round; stroke-opacity:1.0; stroke-opacity:1.0; stroke-width:120" 
   transform="translate(0 0) scale(1 1)">
<path d="M58250 25916 L58250 25310" /> 
</g>
<g style="fill:#C0C0C0; fill-opacity:1.0; 
  stroke:#00A000; stroke-linecap:round; stroke-linejoin:round; stroke-opacity:1.0; stroke-opacity:1.0; stroke-width:120" 
   transform="translate(0 0) scale(1 1)">
<path d="M54732 21888 L58036 25192" /> 
<path d="M53569 21888 L54732 21888" /> 
<path d="M52762 22695 L53569 21888" /> 
<path d="M52762 24262 L52762 22695" /> 
<path d="M53500 25000 L52762 24262" /> 
</g>
<g style="fill:#C0C0C0; fill-opacity:1.0; 
  stroke:#A00000; stroke-linecap:round; stroke-linejoin:round; stroke-opacity:1.0; stroke-opacity:1.0; stroke-width:120" 
   transform="translate(0 0) scale(1 1)">
<path d="M58154 25310 L58250 25310" /> 
<path d="M58036 25192 L58154 25310" /> 
</g>
<g style="fill:#C0C0C0; fill-opacity:1.0; 
  stroke:#C0C0C0; stroke-linecap:round; stroke-linejoin:round; stroke-opacity:1.0; stroke-opacity:1.0; stroke-width:0" 
   transform="translate(0 0) scale(1 1)">
<ellipse cx="58679" cy="25191" rx="175" ry="175"  /> 
</g>
<g style="fill:#C0C0C0; fill-opacity:1.0; 
  stroke:#00A000; stroke-linecap:round; stroke-linejoin:round; stroke-opacity:1.0; stroke-opacity:1.0; stroke-width:120" 
   transform="translate(0 0) scale(1 1)">
<path d="M58339 25531 L58679 25191" /> 
<path d="M57810 25531 L58339 25531" /> 
<path d="M54766 22487 L57810 25531" /> 
<path d="M53287 22487 L54766 22487" /> 
<path d="M52986 22788 L53287 22487" /> 
<path d="M52986 23486 L52986 22788" /> 
<path d="M53500 24000 L52986 23486" /> 
</g>
<g style="fill:#C0C0C0; fill-opacity:1.0; 
  stroke:#A00000; stroke-linecap:round; stroke-linejoin:round; stroke-opacity:1.0; stroke-opacity:1.0; stroke-width:120" 
   transform="translate(0 0) scale(1 1)">
<path d="M58750 25262 L58750 25916" /> 
<path d="M58679 25191 L58750 25262" /> 
<path d="M54071 22429 L53500 23000" /> 
<path d="M57700 22429 L54071 22429" /> 
<path d="M58750 23479 L57700 22429" /> 
<path d="M58750 24085 L58750 23479" /> 
<path d="M57771 23000 L58250 23479" /> 
<path d="M54500 23000 L57771 23000" /> 
<path d="M58250 24085 L58250 23479" /> 
<path d="M67098 26276 L64302 26276" /> 
<path d="M56023 26523 L54500 25000" /> 
<path d="M63537 26523 L56023 26523" /> 
<path d="M63784 26276 L63537 26523" /> 
<path d="M64302 26276 L63784 26276" /> 
<path d="M64302 25292 L67098 25292" /> 
<path d="M55905 27405 L54500 26000" /> 
<path d="M66950 27405 L55905 27405" /> 
<path d="M67642 26713 L66950 27405" /> 
<path d="M67642 25836 L67642 26713" /> 
<path d="M67556 25750 L67642 25836" /> 
<path d="M67098 25750 L67556 25750" /> 
<path d="M67098 25292 L67098 25750" /> 
</g>
<g style="fill:#C0C0C0; fill-opacity:1.0; 
  stroke:#C0C0C0; stroke-linecap:round; stroke-linejoin:round; stroke-opacity:1.0; stroke-opacity:1.0; stroke-width:0" 
   transform="translate(0 0) scale(1 1)">
<ellipse cx="62581" cy="25132" rx="175" ry="175"  /> 
</g>
<g style="fill:#C0C0C0; fill-opacity:1.0; 
  stroke:#A00000; stroke-linecap:round; stroke-linejoin:round; stroke-opacity:1.0; stroke-opacity:1.0; stroke-width:120" 
   transform="translate(0 0) scale(1 1)">
<path d="M67098 24308 L64302 24308" /> 
<path d="M63405 24308 L62581 25132" /> 
<path d="M64302 24308 L63405 24308" /> 
</g>
<g style="fill:#C0C0C0; fill-opacity:1.0; 
  stroke:#00A000; stroke-linecap:round; stroke-linejoin:round; stroke-opacity:1.0; stroke-opacity:1.0; stroke-width:120" 
   transform="translate(0 0) scale(1 1)">
<path d="M60713 27000 L54500 27000" /> 
<path d="M62581 25132 L60713 27000" /> 
</g>
<g style="fill:#C0C0C0; fill-opacity:1.0; 
  stroke:#C0C0C0; stroke-linecap:round; stroke-linejoin:round; stroke-opacity:1.0; stroke-opacity:1.0; stroke-width:0" 
   transform="translate(0 0) scale(1 1)">
<ellipse cx="53315" cy="21411" rx="175" ry="175"  /> 
</g>
<g style="fill:#C0C0C0; fill-opacity:1.0; 
  stroke:#A00000; stroke-linecap:round; stroke-linejoin:round; stroke-opacity:1.0; stroke-opacity:1.0; stroke-width:120" 
   transform="translate(0 0) scale(1 1)">
<path d="M67098 23324 L64302 23324" /> 
<path d="M64302 23324 L63784 23324" /> 
<path d="M58415 21800 L60287 23672" /> 
<path d="M54585 21800 L58415 21800" /> 
<path d="M63436 23672 L63784 23324" /> 
<path d="M60287 23672 L63436 23672" /> 
<path d="M60287 24773 L59750 25310" /> 
<path d="M60287 23672 L60287 24773" /> 
<path d="M59750 25916 L59750 25613" /> 
<path d="M59750 25613 L59750 25310" /> 
<path d="M59447 25310 L59250 25310" /> 
<path d="M59750 25613 L59447 25310" /> 
<path d="M59250 25916 L59250 25310" /> 
<path d="M54297 21800 L54369 21800" /> 
<path d="M54369 21800 L54585 21800" /> 
</g>
<g style="fill:#C0C0C0; fill-opacity:1.0; 
  stroke:#00A000; stroke-linecap:round; stroke-linejoin:round; stroke-opacity:1.0; stroke-opacity:1.0; stroke-width:120" 
   transform="translate(0 0) scale(1 1)">
<path d="M52358 22368 L53315 21411" /> 
<path d="M52358 24858 L52358 22368" /> 
<path d="M53500 26000 L52358 24858" /> 
</g>
<g style="fill:#C0C0C0; fill-opacity:1.0; 
  stroke:#A00000; stroke-linecap:round; stroke-linejoin:round; stroke-opacity:1.0; stroke-opacity:1.0; stroke-width:120" 
   transform="translate(0 0) scale(1 1)">
<path d="M53980 21411 L53315 21411" /> 
<path d="M54369 21800 L53980 21411" /> 
</g>
<g style="fill:#C0C0C0; fill-opacity:1.0; 
  stroke:#00A000; stroke-linecap:round; stroke-linejoin:round; stroke-opacity:1.0; stroke-opacity:1.0; stroke-width:100" 
   transform="translate(0 0) scale(1 1)">
<path d="M67675 28402 L67675 28402" /> 
<path d="M67511 28238 L67675 28402" /> 
<path d="M67180 28100 L67511 28238" /> 
<path d="M66822 28100 L67180 28100" /> 
<path d="M66491 28237 L66822 28100" /> 
<path d="M66238 28489 L66491 28237" /> 
<path d="M66100 28820 L66238 28489" /> 
<path d="M66100 29178 L66100 28820" /> 
<path d="M66237 29509 L66100 29178" /> 
<path d="M66402 29675 L66237 29509" /> 
<path d="M63006 29675 L66402 29675" /> 
<path d="M63006 25217 L63006 29675" /> 
<path d="M63006 25048 L63006 25217" /> 
<path d="M62942 24892 L63006 25048" /> 
<path d="M62822 24772 L62942 24892" /> 
<path d="M62666 24707 L62822 24772" /> 
<path d="M62497 24707 L62666 24707" /> 
<path d="M62341 24771 L62497 24707" /> 
<path d="M62221 24891 L62341 24771" /> 
<path d="M62156 25047 L62221 24891" /> 
<path d="M62156 25118 L62156 25047" /> 
<path d="M60584 26690 L62156 25118" /> 
<path d="M55019 26690 L60584 26690" /> 
<path d="M55008 26661 L55019 26690" /> 
<path d="M54847 26500 L55008 26661" /> 
<path d="M55008 26339 L54847 26500" /> 
<path d="M55099 26119 L55008 26339" /> 
<path d="M55099 25881 L55099 26119" /> 
<path d="M55008 25661 L55099 25881" /> 
<path d="M54847 25500 L55008 25661" /> 
<path d="M55008 25339 L54847 25500" /> 
<path d="M55099 25119 L55008 25339" /> 
<path d="M55099 24881 L55099 25119" /> 
<path d="M55008 24661 L55099 24881" /> 
<path d="M54847 24500 L55008 24661" /> 
<path d="M55008 24339 L54847 24500" /> 
<path d="M55099 24119 L55008 24339" /> 
<path d="M55099 23881 L55099 24119" /> 
<path d="M55008 23661 L55099 23881" /> 
<path d="M54847 23500 L55008 23661" /> 
<path d="M55008 23339 L54847 23500" /> 
<path d="M55058 23217 L55008 23339" /> 
<path d="M57590 25750 L55058 23217" /> 
<path d="M57591 25750 L57590 25750" /> 
<path d="M57691 25817 L57591 25750" /> 
<path d="M57809 25840 L57691 25817" /> 
<path d="M57810 25841 L57809 25840" /> 
<path d="M58339 25841 L57810 25841" /> 
<path d="M58457 25817 L58339 25841" /> 
<path d="M58458 25817 L58457 25817" /> 
<path d="M58558 25750 L58458 25817" /> 
<path d="M58692 25616 L58558 25750" /> 
<path d="M58763 25616 L58692 25616" /> 
<path d="M58919 25552 L58763 25616" /> 
<path d="M59039 25432 L58919 25552" /> 
<path d="M59104 25276 L59039 25432" /> 
<path d="M59104 25107 L59104 25276" /> 
<path d="M59040 24951 L59104 25107" /> 
<path d="M58920 24831 L59040 24951" /> 
<path d="M58764 24766 L58920 24831" /> 
<path d="M58595 24766 L58764 24766" /> 
<path d="M58439 24830 L58595 24766" /> 
<path d="M58357 24912 L58439 24830" /> 
<path d="M58277 24832 L58357 24912" /> 
<path d="M58121 24767 L58277 24832" /> 
<path d="M58049 24767 L58121 24767" /> 
<path d="M54951 21669 L58049 24767" /> 
<path d="M54851 21602 L54951 21669" /> 
<path d="M54732 21578 L54851 21602" /> 
<path d="M53569 21578 L54732 21578" /> 
<path d="M53450 21602 L53569 21578" /> 
<path d="M53350 21669 L53450 21602" /> 
<path d="M52543 22476 L53350 21669" /> 
<path d="M52476 22576 L52543 22476" /> 
<path d="M52452 22695 L52476 22576" /> 
<path d="M52452 24262 L52452 22695" /> 
<path d="M52476 24381 L52452 24262" /> 
<path d="M52543 24481 L52476 24381" /> 
<path d="M52913 24851 L52543 24481" /> 
<path d="M52901 24881 L52913 24851" /> 
<path d="M52901 25119 L52901 24881" /> 
<path d="M52992 25339 L52901 25119" /> 
<path d="M53161 25508 L52992 25339" /> 
<path d="M53180 25515 L53161 25508" /> 
<path d="M53157 25586 L53180 25515" /> 
<path d="M53500 25929 L53157 25586" /> 
<path d="M53843 25586 L53500 25929" /> 
<path d="M53819 25515 L53843 25586" /> 
<path d="M53839 25508 L53819 25515" /> 
<path d="M54000 25347 L53839 25508" /> 
<path d="M54153 25500 L54000 25347" /> 
<path d="M53992 25661 L54153 25500" /> 
<path d="M53984 25680 L53992 25661" /> 
<path d="M53914 25657 L53984 25680" /> 
<path d="M53606 25965 L53914 25657" /> 
<path d="M53571 26000 L53606 25965" /> 
<path d="M53500 26071 L53571 26000" /> 
<path d="M53429 26000 L53500 26071" /> 
<path d="M53394 25965 L53429 26000" /> 
<path d="M53086 25657 L53394 25965" /> 
<path d="M52987 25690 L53086 25657" /> 
<path d="M52907 25909 L52987 25690" /> 
<path d="M52918 26144 L52907 25909" /> 
<path d="M52987 26310 L52918 26144" /> 
<path d="M53033 26325 L52987 26310" /> 
<path d="M52998 26361 L53033 26325" /> 
<path d="M53056 26419 L52998 26361" /> 
<path d="M53009 26439 L53056 26419" /> 
<path d="M52939 26509 L53009 26439" /> 
<path d="M52901 26600 L52939 26509" /> 
<path d="M52901 26699 L52901 26600" /> 
<path d="M52901 27399 L52901 26699" /> 
<path d="M52939 27491 L52901 27399" /> 
<path d="M53009 27561 L52939 27491" /> 
<path d="M53100 27599 L53009 27561" /> 
<path d="M53199 27599 L53100 27599" /> 
<path d="M53899 27599 L53199 27599" /> 
<path d="M53991 27561 L53899 27599" /> 
<path d="M54061 27491 L53991 27561" /> 
<path d="M54085 27432 L54061 27491" /> 
<path d="M54161 27508 L54085 27432" /> 
<path d="M54381 27599 L54161 27508" /> 
<path d="M54619 27599 L54381 27599" /> 
<path d="M54839 27508 L54619 27599" /> 
<path d="M55008 27339 L54839 27508" /> 
<path d="M55019 27310 L55008 27339" /> 
<path d="M60713 27310 L55019 27310" /> 
<path d="M60831 27286 L60713 27310" /> 
<path d="M60832 27286 L60831 27286" /> 
<path d="M60932 27219 L60832 27286" /> 
<path d="M62594 25557 L60932 27219" /> 
<path d="M62665 25557 L62594 25557" /> 
<path d="M62821 25493 L62665 25557" /> 
<path d="M62941 25373 L62821 25493" /> 
<path d="M63006 25217 L62941 25373" /> 
<path d="M63006 29675 L63006 25217" /> 
<path d="M51597 29675 L63006 29675" /> 
<path d="M51762 29511 L51597 29675" /> 
<path d="M51900 29180 L51762 29511" /> 
<path d="M51900 28822 L51900 29180" /> 
<path d="M51763 28491 L51900 28822" /> 
<path d="M51511 28238 L51763 28491" /> 
<path d="M51180 28100 L51511 28238" /> 
<path d="M50822 28100 L51180 28100" /> 
<path d="M50491 28237 L50822 28100" /> 
<path d="M50325 28402 L50491 28237" /> 
<path d="M50325 21597 L50325 28402" /> 
<path d="M50489 21762 L50325 21597" /> 
<path d="M50820 21900 L50489 21762" /> 
<path d="M51178 21900 L50820 21900" /> 
<path d="M51509 21763 L51178 21900" /> 
<path d="M51762 21511 L51509 21763" /> 
<path d="M51900 21180 L51762 21511" /> 
<path d="M51900 20822 L51900 21180" /> 
<path d="M51763 20491 L51900 20822" /> 
<path d="M51597 20325 L51763 20491" /> 
<path d="M66402 20325 L51597 20325" /> 
<path d="M66238 20489 L66402 20325" /> 
<path d="M66100 20820 L66238 20489" /> 
<path d="M66100 21178 L66100 20820" /> 
<path d="M66237 21509 L66100 21178" /> 
<path d="M66489 21762 L66237 21509" /> 
<path d="M66820 21900 L66489 21762" /> 
<path d="M67178 21900 L66820 21900" /> 
<path d="M67509 21763 L67178 21900" /> 
<path d="M67675 21597 L67509 21763" /> 
<path d="M67675 28402 L67675 21597" /> 
</g>
<g style="fill:#00A000; fill-opacity:1.0; 
  stroke:#00A000; stroke-linecap:round; stroke-linejoin:round; stroke-opacity:1.0; stroke-opacity:1.0; stroke-width:0" 
   transform="translate(0 0) scale(1 1)">
<polygon style="fill-rule:evenodd; " 
points="66491,28237
66238,28489
66100,28820
66100,29178
66237,29509
66402,29675
63006,29675
63006,25217
63006,25048
62942,24892
62822,24772
62666,24707
62497,24707
62341,24771
62221,24891
62156,25047
62156,25118
60584,26690
55019,26690
55008,26661
54847,26500
55008,26339
55099,26119
55099,25881
55008,25661
54847,25500
55008,25339
55099,25119
55099,24881
55008,24661
54847,24500
55008,24339
55099,24119
55099,23881
55008,23661
54847,23500
55008,23339
55058,23217
57590,25750
57591,25750
57691,25817
57809,25840
57810,25841
58339,25841
58457,25817
58458,25817
58558,25750
58692,25616
58763,25616
58919,25552
59039,25432
59104,25276
59104,25107
59040,24951
58920,24831
58764,24766
58595,24766
58439,24830
58357,24912
58277,24832
58121,24767
58049,24767
54951,21669
54851,21602
54732,21578
53569,21578
53450,21602
53350,21669
52543,22476
52476,22576
52452,22695
52452,24262
52476,24381
52543,24481
52913,24851
52901,24881
52901,25119
52992,25339
53161,25508
53180,25515
53157,25586
53500,25929
53843,25586
53819,25515
53839,25508
54000,25347
54153,25500
53992,25661
53984,25680
53914,25657
53606,25965
53571,26000
53500,26071
53429,26000
53394,25965
53086,25657
52987,25690
52907,25909
52918,26144
52987,26310
53033,26325
52998,26361
53056,26419
53009,26439
52939,26509
52901,26600
52901,26699
52901,27399
52939,27491
53009,27561
53100,27599
53199,27599
53899,27599
53991,27561
54061,27491
54085,27432
54161,27508
54381,27599
54619,27599
54839,27508
55008,27339
55019,27310
60713,27310
60831,27286
60832,27286
60932,27219
62594,25557
62665,25557
62821,25493
62941,25373
63006,25217
63006,29675
51597,29675
51762,29511
51900,29180
51900,28822
51763,28491
51511,28238
51180,28100
50822,28100
50491,28237
50325,28402
50325,21597
50489,21762
50820,21900
51178,21900
51509,21763
51762,21511
51900,21180
51900,20822
51763,20491
51597,20325
66402,20325
66238,20489
66100,20820
66100,21178
66237,21509
66489,21762
66820,21900
67178,21900
67509,21763
67675,21597
67675,28402
67675,28402
67511,28238
67180,28100
66822,28100
" /> 
</g>
<g style="fill:#00A000; fill-opacity:1.0; 
  stroke:#A00000; stroke-linecap:round; stroke-linejoin:round; stroke-opacity:1.0; stroke-opacity:1.0; stroke-width:100" 
   transform="translate(0 0) scale(1 1)">
<path d="M54153 25500 L54153 25500" /> 
<path d="M53992 25661 L54153 25500" /> 
<path d="M53984 25680 L53992 25661" /> 
<path d="M53914 25657 L53984 25680" /> 
<path d="M53606 25965 L53914 25657" /> 
<path d="M53571 26000 L53606 25965" /> 
<path d="M53500 26071 L53571 26000" /> 
<path d="M53429 26000 L53500 26071" /> 
<path d="M53500 25929 L53429 26000" /> 
<path d="M53535 25894 L53500 25929" /> 
<path d="M53843 25586 L53535 25894" /> 
<path d="M53819 25515 L53843 25586" /> 
<path d="M53839 25508 L53819 25515" /> 
<path d="M54000 25347 L53839 25508" /> 
<path d="M54153 25500 L54000 25347" /> 
</g>
<g style="fill:#A00000; fill-opacity:1.0; 
  stroke:#A00000; stroke-linecap:round; stroke-linejoin:round; stroke-opacity:1.0; stroke-opacity:1.0; stroke-width:0" 
   transform="translate(0 0) scale(1 1)">
<polygon style="fill-rule:evenodd; " 
points="53606,25965
53571,26000
53500,26071
53429,26000
53500,25929
53535,25894
53843,25586
53819,25515
53839,25508
54000,25347
54153,25500
54153,25500
53992,25661
53984,25680
53914,25657
" /> 
</g>
<g style="fill:#A00000; fill-opacity:1.0; 
  stroke:#A00000; stroke-linecap:round; stroke-linejoin:round; stroke-opacity:1.0; stroke-opacity:1.0; stroke-width:100" 
   transform="translate(0 0) scale(1 1)">
<path d="M67675 28402 L67675 28402" /> 
<path d="M67511 28238 L67675 28402" /> 
<path d="M67180 28100 L67511 28238" /> 
<path d="M66822 28100 L67180 28100" /> 
<path d="M66491 28237 L66822 28100" /> 
<path d="M66238 28489 L66491 28237" /> 
<path d="M66100 28820 L66238 28489" /> 
<path d="M66100 29178 L66100 28820" /> 
<path d="M66237 29509 L66100 29178" /> 
<path d="M66402 29675 L66237 29509" /> 
<path d="M51597 29675 L66402 29675" /> 
<path d="M51762 29511 L51597 29675" /> 
<path d="M51900 29180 L51762 29511" /> 
<path d="M51900 28822 L51900 29180" /> 
<path d="M51763 28491 L51900 28822" /> 
<path d="M51511 28238 L51763 28491" /> 
<path d="M51180 28100 L51511 28238" /> 
<path d="M50822 28100 L51180 28100" /> 
<path d="M50491 28237 L50822 28100" /> 
<path d="M50325 28402 L50491 28237" /> 
<path d="M50325 21597 L50325 28402" /> 
<path d="M50489 21762 L50325 21597" /> 
<path d="M50820 21900 L50489 21762" /> 
<path d="M51178 21900 L50820 21900" /> 
<path d="M51509 21763 L51178 21900" /> 
<path d="M51762 21511 L51509 21763" /> 
<path d="M51900 21180 L51762 21511" /> 
<path d="M51900 20822 L51900 21180" /> 
<path d="M51763 20491 L51900 20822" /> 
<path d="M51597 20325 L51763 20491" /> 
<path d="M66402 20325 L51597 20325" /> 
<path d="M66238 20489 L66402 20325" /> 
<path d="M66100 20820 L66238 20489" /> 
<path d="M66100 21178 L66100 20820" /> 
<path d="M66237 21509 L66100 21178" /> 
<path d="M66489 21762 L66237 21509" /> 
<path d="M66820 21900 L66489 21762" /> 
<path d="M67178 21900 L66820 21900" /> 
<path d="M67509 21763 L67178 21900" /> 
<path d="M67675 21597 L67509 21763" /> 
<path d="M67675 22917 L67675 21597" /> 
<path d="M67663 22888 L67675 22917" /> 
<path d="M67593 22818 L67663 22888" /> 
<path d="M67502 22780 L67593 22818" /> 
<path d="M67403 22780 L67502 22780" /> 
<path d="M67210 22779 L67403 22780" /> 
<path d="M67148 22841 L67210 22779" /> 
<path d="M67148 23224 L67148 22841" /> 
<path d="M67148 23274 L67148 23224" /> 
<path d="M67148 23374 L67148 23274" /> 
<path d="M67048 23374 L67148 23374" /> 
<path d="M67048 23274 L67048 23374" /> 
<path d="M67048 22841 L67048 23274" /> 
<path d="M66986 22779 L67048 22841" /> 
<path d="M66793 22780 L66986 22779" /> 
<path d="M66694 22780 L66793 22780" /> 
<path d="M66603 22818 L66694 22780" /> 
<path d="M66533 22888 L66603 22818" /> 
<path d="M66495 22980 L66533 22888" /> 
<path d="M66494 23212 L66495 22980" /> 
<path d="M66556 23274 L66494 23212" /> 
<path d="M67048 23274 L66556 23274" /> 
<path d="M67048 23374 L67048 23274" /> 
<path d="M66998 23374 L67048 23374" /> 
<path d="M66556 23374 L66998 23374" /> 
<path d="M66494 23436 L66556 23374" /> 
<path d="M66495 23668 L66494 23436" /> 
<path d="M66533 23760 L66495 23668" /> 
<path d="M66589 23816 L66533 23760" /> 
<path d="M66533 23872 L66589 23816" /> 
<path d="M66495 23963 L66533 23872" /> 
<path d="M66495 23998 L66495 23963" /> 
<path d="M64906 23998 L66495 23998" /> 
<path d="M64906 23436 L64906 23998" /> 
<path d="M64906 23212 L64906 23436" /> 
<path d="M64905 23039 L64906 23212" /> 
<path d="M64867 22947 L64905 23039" /> 
<path d="M64797 22877 L64867 22947" /> 
<path d="M64706 22839 L64797 22877" /> 
<path d="M64607 22839 L64706 22839" /> 
<path d="M64414 22838 L64607 22839" /> 
<path d="M64352 22900 L64414 22838" /> 
<path d="M64352 23274 L64352 22900" /> 
<path d="M64844 23274 L64352 23274" /> 
<path d="M64906 23212 L64844 23274" /> 
<path d="M64906 23436 L64906 23212" /> 
<path d="M64844 23374 L64906 23436" /> 
<path d="M64352 23374 L64844 23374" /> 
<path d="M64352 23748 L64352 23374" /> 
<path d="M64414 23810 L64352 23748" /> 
<path d="M64607 23809 L64414 23810" /> 
<path d="M64706 23809 L64607 23809" /> 
<path d="M64797 23771 L64706 23809" /> 
<path d="M64867 23701 L64797 23771" /> 
<path d="M64905 23609 L64867 23701" /> 
<path d="M64906 23436 L64905 23609" /> 
<path d="M64906 23998 L64906 23436" /> 
<path d="M64894 23998 L64906 23998" /> 
<path d="M64867 23931 L64894 23998" /> 
<path d="M64797 23861 L64867 23931" /> 
<path d="M64706 23823 L64797 23861" /> 
<path d="M64607 23823 L64706 23823" /> 
<path d="M64252 23823 L64607 23823" /> 
<path d="M64252 23748 L64252 23823" /> 
<path d="M64252 23374 L64252 23748" /> 
<path d="M64252 23274 L64252 23374" /> 
<path d="M64252 22900 L64252 23274" /> 
<path d="M64190 22838 L64252 22900" /> 
<path d="M63997 22839 L64190 22838" /> 
<path d="M63898 22839 L63997 22839" /> 
<path d="M63807 22877 L63898 22839" /> 
<path d="M63737 22947 L63807 22877" /> 
<path d="M63699 23039 L63737 22947" /> 
<path d="M63698 23212 L63699 23039" /> 
<path d="M63760 23274 L63698 23212" /> 
<path d="M64252 23274 L63760 23274" /> 
<path d="M64252 23374 L64252 23274" /> 
<path d="M63760 23374 L64252 23374" /> 
<path d="M63698 23436 L63760 23374" /> 
<path d="M63699 23609 L63698 23436" /> 
<path d="M63737 23701 L63699 23609" /> 
<path d="M63807 23771 L63737 23701" /> 
<path d="M63898 23809 L63807 23771" /> 
<path d="M63997 23809 L63898 23809" /> 
<path d="M64190 23810 L63997 23809" /> 
<path d="M64252 23748 L64190 23810" /> 
<path d="M64252 23823 L64252 23748" /> 
<path d="M63899 23823 L64252 23823" /> 
<path d="M63807 23861 L63899 23823" /> 
<path d="M63737 23931 L63807 23861" /> 
<path d="M63709 23998 L63737 23931" /> 
<path d="M63405 23998 L63709 23998" /> 
<path d="M63286 24022 L63405 23998" /> 
<path d="M63186 24089 L63286 24022" /> 
<path d="M62568 24707 L63186 24089" /> 
<path d="M62497 24707 L62568 24707" /> 
<path d="M62341 24771 L62497 24707" /> 
<path d="M62221 24891 L62341 24771" /> 
<path d="M62156 25047 L62221 24891" /> 
<path d="M62156 25216 L62156 25047" /> 
<path d="M62220 25372 L62156 25216" /> 
<path d="M62340 25492 L62220 25372" /> 
<path d="M62496 25557 L62340 25492" /> 
<path d="M62665 25557 L62496 25557" /> 
<path d="M62821 25493 L62665 25557" /> 
<path d="M62941 25373 L62821 25493" /> 
<path d="M63006 25217 L62941 25373" /> 
<path d="M63006 25145 L63006 25217" /> 
<path d="M63533 24618 L63006 25145" /> 
<path d="M63709 24618 L63533 24618" /> 
<path d="M63737 24685 L63709 24618" /> 
<path d="M63807 24755 L63737 24685" /> 
<path d="M63898 24793 L63807 24755" /> 
<path d="M63997 24793 L63898 24793" /> 
<path d="M64705 24793 L63997 24793" /> 
<path d="M64797 24755 L64705 24793" /> 
<path d="M64867 24685 L64797 24755" /> 
<path d="M64894 24618 L64867 24685" /> 
<path d="M66495 24618 L64894 24618" /> 
<path d="M66495 24652 L66495 24618" /> 
<path d="M66533 24744 L66495 24652" /> 
<path d="M66589 24800 L66533 24744" /> 
<path d="M66533 24856 L66589 24800" /> 
<path d="M66495 24947 L66533 24856" /> 
<path d="M66495 24982 L66495 24947" /> 
<path d="M64894 24982 L66495 24982" /> 
<path d="M64867 24915 L64894 24982" /> 
<path d="M64797 24845 L64867 24915" /> 
<path d="M64706 24807 L64797 24845" /> 
<path d="M64607 24807 L64706 24807" /> 
<path d="M63899 24807 L64607 24807" /> 
<path d="M63807 24845 L63899 24807" /> 
<path d="M63737 24915 L63807 24845" /> 
<path d="M63699 25006 L63737 24915" /> 
<path d="M63699 25105 L63699 25006" /> 
<path d="M63699 25577 L63699 25105" /> 
<path d="M63737 25669 L63699 25577" /> 
<path d="M63807 25739 L63737 25669" /> 
<path d="M63898 25777 L63807 25739" /> 
<path d="M63997 25777 L63898 25777" /> 
<path d="M64705 25777 L63997 25777" /> 
<path d="M64797 25739 L64705 25777" /> 
<path d="M64867 25669 L64797 25739" /> 
<path d="M64894 25602 L64867 25669" /> 
<path d="M66495 25602 L64894 25602" /> 
<path d="M66495 25636 L66495 25602" /> 
<path d="M66533 25728 L66495 25636" /> 
<path d="M66589 25784 L66533 25728" /> 
<path d="M66533 25840 L66589 25784" /> 
<path d="M66495 25931 L66533 25840" /> 
<path d="M66495 25966 L66495 25931" /> 
<path d="M64894 25966 L66495 25966" /> 
<path d="M64867 25899 L64894 25966" /> 
<path d="M64797 25829 L64867 25899" /> 
<path d="M64706 25791 L64797 25829" /> 
<path d="M64607 25791 L64706 25791" /> 
<path d="M63899 25791 L64607 25791" /> 
<path d="M63807 25829 L63899 25791" /> 
<path d="M63737 25899 L63807 25829" /> 
<path d="M63702 25982 L63737 25899" /> 
<path d="M63701 25982 L63702 25982" /> 
<path d="M63665 25990 L63701 25982" /> 
<path d="M63565 26057 L63665 25990" /> 
<path d="M63409 26213 L63565 26057" /> 
<path d="M60097 26213 L63409 26213" /> 
<path d="M60098 26028 L60097 26213" /> 
<path d="M60098 25804 L60098 26028" /> 
<path d="M60097 25522 L60098 25804" /> 
<path d="M60097 25423 L60097 25522" /> 
<path d="M60059 25332 L60097 25423" /> 
<path d="M59989 25262 L60059 25332" /> 
<path d="M59897 25224 L59989 25262" /> 
<path d="M59861 25223 L59897 25224" /> 
<path d="M59799 25285 L59861 25223" /> 
<path d="M59799 25866 L59799 25285" /> 
<path d="M60036 25866 L59799 25866" /> 
<path d="M60098 25804 L60036 25866" /> 
<path d="M60098 26028 L60098 25804" /> 
<path d="M60036 25966 L60098 26028" /> 
<path d="M59850 25966 L60036 25966" /> 
<path d="M59799 25966 L59850 25966" /> 
<path d="M59701 25966 L59799 25966" /> 
<path d="M59701 25866 L59701 25966" /> 
<path d="M59701 25285 L59701 25866" /> 
<path d="M59639 25223 L59701 25285" /> 
<path d="M59603 25224 L59639 25223" /> 
<path d="M59511 25262 L59603 25224" /> 
<path d="M59500 25273 L59511 25262" /> 
<path d="M59489 25262 L59500 25273" /> 
<path d="M59397 25224 L59489 25262" /> 
<path d="M59361 25223 L59397 25224" /> 
<path d="M59299 25285 L59361 25223" /> 
<path d="M59299 25866 L59299 25285" /> 
<path d="M59464 25866 L59299 25866" /> 
<path d="M59536 25866 L59464 25866" /> 
<path d="M59701 25866 L59536 25866" /> 
<path d="M59701 25966 L59701 25866" /> 
<path d="M59650 25966 L59701 25966" /> 
<path d="M59536 25966 L59650 25966" /> 
<path d="M59464 25966 L59536 25966" /> 
<path d="M59350 25966 L59464 25966" /> 
<path d="M59299 25966 L59350 25966" /> 
<path d="M59201 25966 L59299 25966" /> 
<path d="M59200 25966 L59201 25966" /> 
<path d="M59200 25866 L59200 25966" /> 
<path d="M59201 25866 L59200 25866" /> 
<path d="M59201 25285 L59201 25866" /> 
<path d="M59139 25223 L59201 25285" /> 
<path d="M59104 25223 L59139 25223" /> 
<path d="M59104 25107 L59104 25223" /> 
<path d="M59060 25001 L59104 25107" /> 
<path d="M59250 25001 L59060 25001" /> 
<path d="M59369 24977 L59250 25001" /> 
<path d="M59469 24910 L59369 24977" /> 
<path d="M59536 24810 L59469 24910" /> 
<path d="M59547 24754 L59536 24810" /> 
<path d="M59602 24777 L59547 24754" /> 
<path d="M59701 24777 L59602 24777" /> 
<path d="M59897 24777 L59701 24777" /> 
<path d="M59989 24739 L59897 24777" /> 
<path d="M60059 24669 L59989 24739" /> 
<path d="M60097 24578 L60059 24669" /> 
<path d="M60097 24479 L60097 24578" /> 
<path d="M60097 23593 L60097 24479" /> 
<path d="M60060 23503 L60097 23593" /> 
<path d="M60060 23479 L60060 23503" /> 
<path d="M60036 23361 L60060 23479" /> 
<path d="M60036 23360 L60036 23361" /> 
<path d="M59969 23260 L60036 23360" /> 
<path d="M58679 21970 L59969 23260" /> 
<path d="M58579 21903 L58679 21970" /> 
<path d="M58460 21879 L58579 21903" /> 
<path d="M54672 21879 L58460 21879" /> 
<path d="M54672 21688 L54672 21879" /> 
<path d="M54671 21624 L54672 21688" /> 
<path d="M54671 21525 L54671 21624" /> 
<path d="M54633 21434 L54671 21525" /> 
<path d="M54563 21364 L54633 21434" /> 
<path d="M54471 21326 L54563 21364" /> 
<path d="M54409 21325 L54471 21326" /> 
<path d="M54347 21387 L54409 21325" /> 
<path d="M54347 21750 L54347 21387" /> 
<path d="M54610 21750 L54347 21750" /> 
<path d="M54672 21688 L54610 21750" /> 
<path d="M54672 21879 L54672 21688" /> 
<path d="M54639 21879 L54672 21879" /> 
<path d="M54610 21850 L54639 21879" /> 
<path d="M54397 21850 L54610 21850" /> 
<path d="M54347 21850 L54397 21850" /> 
<path d="M54247 21850 L54347 21850" /> 
<path d="M54247 21750 L54247 21850" /> 
<path d="M54247 21700 L54247 21750" /> 
<path d="M54247 21387 L54247 21700" /> 
<path d="M54185 21325 L54247 21387" /> 
<path d="M54123 21326 L54185 21325" /> 
<path d="M54031 21364 L54123 21326" /> 
<path d="M53997 21398 L54031 21364" /> 
<path d="M53963 21364 L53997 21398" /> 
<path d="M53872 21326 L53963 21364" /> 
<path d="M53773 21326 L53872 21326" /> 
<path d="M53523 21326 L53773 21326" /> 
<path d="M53431 21364 L53523 21326" /> 
<path d="M53361 21434 L53431 21364" /> 
<path d="M53331 21505 L53361 21434" /> 
<path d="M53290 21514 L53331 21505" /> 
<path d="M53190 21581 L53290 21514" /> 
<path d="M53123 21681 L53190 21581" /> 
<path d="M53099 21800 L53123 21681" /> 
<path d="M53099 22098 L53099 21800" /> 
<path d="M53107 22142 L53099 22098" /> 
<path d="M52744 22507 L53107 22142" /> 
<path d="M52677 22607 L52744 22507" /> 
<path d="M52653 22726 L52677 22607" /> 
<path d="M52653 26463 L52653 22726" /> 
<path d="M52677 26582 L52653 26463" /> 
<path d="M52744 26682 L52677 26582" /> 
<path d="M52901 26839 L52744 26682" /> 
<path d="M52901 27399 L52901 26839" /> 
<path d="M52939 27491 L52901 27399" /> 
<path d="M53009 27561 L52939 27491" /> 
<path d="M53100 27599 L53009 27561" /> 
<path d="M53199 27599 L53100 27599" /> 
<path d="M53899 27599 L53199 27599" /> 
<path d="M53991 27561 L53899 27599" /> 
<path d="M54061 27491 L53991 27561" /> 
<path d="M54085 27432 L54061 27491" /> 
<path d="M54161 27508 L54085 27432" /> 
<path d="M54381 27599 L54161 27508" /> 
<path d="M54619 27599 L54381 27599" /> 
<path d="M54839 27508 L54619 27599" /> 
<path d="M55008 27339 L54839 27508" /> 
<path d="M55099 27119 L55008 27339" /> 
<path d="M55099 27037 L55099 27119" /> 
<path d="M55685 27624 L55099 27037" /> 
<path d="M55686 27624 L55685 27624" /> 
<path d="M55786 27691 L55686 27624" /> 
<path d="M55904 27714 L55786 27691" /> 
<path d="M55905 27715 L55904 27714" /> 
<path d="M66950 27715 L55905 27715" /> 
<path d="M67068 27691 L66950 27715" /> 
<path d="M67069 27691 L67068 27691" /> 
<path d="M67169 27624 L67069 27691" /> 
<path d="M67675 27118 L67169 27624" /> 
<path d="M67675 28402 L67675 27118" /> 
</g>
<g style="fill:#A00000; fill-opacity:1.0; 
  stroke:#A00000; stroke-linecap:round; stroke-linejoin:round; stroke-opacity:1.0; stroke-opacity:1.0; stroke-width:0" 
   transform="translate(0 0) scale(1 1)">
<polygon style="fill-rule:evenodd; " 
points="66491,28237
66238,28489
66100,28820
66100,29178
66237,29509
66402,29675
51597,29675
51762,29511
51900,29180
51900,28822
51763,28491
51511,28238
51180,28100
50822,28100
50491,28237
50325,28402
50325,21597
50489,21762
50820,21900
51178,21900
51509,21763
51762,21511
51900,21180
51900,20822
51763,20491
51597,20325
66402,20325
66238,20489
66100,20820
66100,21178
66237,21509
66489,21762
66820,21900
67178,21900
67509,21763
67675,21597
67675,22917
67663,22888
67593,22818
67502,22780
67403,22780
67210,22779
67148,22841
67148,23224
67148,23274
67148,23374
67048,23374
67048,23274
67048,22841
66986,22779
66793,22780
66694,22780
66603,22818
66533,22888
66495,22980
66494,23212
66556,23274
67048,23274
67048,23374
66998,23374
66556,23374
66494,23436
66495,23668
66533,23760
66589,23816
66533,23872
66495,23963
66495,23998
64906,23998
64906,23436
64906,23212
64905,23039
64867,22947
64797,22877
64706,22839
64607,22839
64414,22838
64352,22900
64352,23274
64844,23274
64906,23212
64906,23436
64844,23374
64352,23374
64352,23748
64414,23810
64607,23809
64706,23809
64797,23771
64867,23701
64905,23609
64906,23436
64906,23998
64894,23998
64867,23931
64797,23861
64706,23823
64607,23823
64252,23823
64252,23748
64252,23374
64252,23274
64252,22900
64190,22838
63997,22839
63898,22839
63807,22877
63737,22947
63699,23039
63698,23212
63760,23274
64252,23274
64252,23374
63760,23374
63698,23436
63699,23609
63737,23701
63807,23771
63898,23809
63997,23809
64190,23810
64252,23748
64252,23823
63899,23823
63807,23861
63737,23931
63709,23998
63405,23998
63286,24022
63186,24089
62568,24707
62497,24707
62341,24771
62221,24891
62156,25047
62156,25216
62220,25372
62340,25492
62496,25557
62665,25557
62821,25493
62941,25373
63006,25217
63006,25145
63533,24618
63709,24618
63737,24685
63807,24755
63898,24793
63997,24793
64705,24793
64797,24755
64867,24685
64894,24618
66495,24618
66495,24652
66533,24744
66589,24800
66533,24856
66495,24947
66495,24982
64894,24982
64867,24915
64797,24845
64706,24807
64607,24807
63899,24807
63807,24845
63737,24915
63699,25006
63699,25105
63699,25577
63737,25669
63807,25739
63898,25777
63997,25777
64705,25777
64797,25739
64867,25669
64894,25602
66495,25602
66495,25636
66533,25728
66589,25784
66533,25840
66495,25931
66495,25966
64894,25966
64867,25899
64797,25829
64706,25791
64607,25791
63899,25791
63807,25829
63737,25899
63702,25982
63701,25982
63665,25990
63565,26057
63409,26213
60097,26213
60098,26028
60098,25804
60097,25522
60097,25423
60059,25332
59989,25262
59897,25224
59861,25223
59799,25285
59799,25866
60036,25866
60098,25804
60098,26028
60036,25966
59850,25966
59799,25966
59701,25966
59701,25866
59701,25285
59639,25223
59603,25224
59511,25262
59500,25273
59489,25262
59397,25224
59361,25223
59299,25285
59299,25866
59464,25866
59536,25866
59701,25866
59701,25966
59650,25966
59536,25966
59464,25966
59350,25966
59299,25966
59201,25966
59200,25966
59200,25866
59201,25866
59201,25285
59139,25223
59104,25223
59104,25107
59060,25001
59250,25001
59369,24977
59469,24910
59536,24810
59547,24754
59602,24777
59701,24777
59897,24777
59989,24739
60059,24669
60097,24578
60097,24479
60097,23593
60060,23503
60060,23479
60036,23361
60036,23360
59969,23260
58679,21970
58579,21903
58460,21879
54672,21879
54672,21688
54671,21624
54671,21525
54633,21434
54563,21364
54471,21326
54409,21325
54347,21387
54347,21750
54610,21750
54672,21688
54672,21879
54639,21879
54610,21850
54397,21850
54347,21850
54247,21850
54247,21750
54247,21700
54247,21387
54185,21325
54123,21326
54031,21364
53997,21398
53963,21364
53872,21326
53773,21326
53523,21326
53431,21364
53361,21434
53331,21505
53290,21514
53190,21581
53123,21681
53099,21800
53099,22098
53107,22142
52744,22507
52677,22607
52653,22726
52653,26463
52677,26582
52744,26682
52901,26839
52901,27399
52939,27491
53009,27561
53100,27599
53199,27599
53899,27599
53991,27561
54061,27491
54085,27432
54161,27508
54381,27599
54619,27599
54839,27508
55008,27339
55099,27119
55099,27037
55685,27624
55686,27624
55786,27691
55904,27714
55905,27715
66950,27715
67068,27691
67069,27691
67169,27624
67675,27118
67675,28402
67675,28402
67511,28238
67180,28100
66822,28100
" /> 
</g>
<g style="fill:#808000; fill-opacity:1.0; 
  stroke:#808000; stroke-linecap:round; stroke-linejoin:round; stroke-opacity:1.0; stroke-opacity:1.0; stroke-width:0" 
   transform="translate(0 0) scale(1 1)">
<ellipse cx="67000" cy="21000" rx="650" ry="650"  /> 
</g>
<g style="fill:#FFFFFF; fill-opacity:1.0; 
  stroke:#808000; stroke-linecap:round; stroke-linejoin:round; stroke-opacity:1.0; stroke-opacity:1.0; stroke-width:0" 
   transform="translate(0 0) scale(1 1)">
<ellipse cx="67000" cy="21000" rx="600" ry="600"  /> 
</g>
<g style="fill:#808000; fill-opacity:1.0; 
  stroke:#808000; stroke-linecap:round; stroke-linejoin:round; stroke-opacity:1.0; stroke-opacity:1.0; stroke-width:0" 
   transform="translate(0 0) scale(1 1)">
<ellipse cx="51000" cy="21000" rx="650" ry="650"  /> 
</g>
<g style="fill:#FFFFFF; fill-opacity:1.0; 
  stroke:#808000; stroke-linecap:round; stroke-linejoin:round; stroke-opacity:1.0; stroke-opacity:1.0; stroke-width:0" 
   transform="translate(0 0) scale(1 1)">
<ellipse cx="51000" cy="21000" rx="600" ry="600"  /> 
</g>
<g style="fill:#808000; fill-opacity:1.0; 
  stroke:#808000; stroke-linecap:round; stroke-linejoin:round; stroke-opacity:1.0; stroke-opacity:1.0; stroke-width:0" 
   transform="translate(0 0) scale(1 1)">
<ellipse cx="67000" cy="29000" rx="650" ry="650"  /> 
</g>
<g style="fill:#FFFFFF; fill-opacity:1.0; 
  stroke:#808000; stroke-linecap:round; stroke-linejoin:round; stroke-opacity:1.0; stroke-opacity:1.0; stroke-width:0" 
   transform="translate(0 0) scale(1 1)">
<ellipse cx="67000" cy="29000" rx="600" ry="600"  /> 
</g>
<g style="fill:#808000; fill-opacity:1.0; 
  stroke:#808000; stroke-linecap:round; stroke-linejoin:round; stroke-opacity:1.0; stroke-opacity:1.0; stroke-width:0" 
   transform="translate(0 0) scale(1 1)">
<ellipse cx="51000" cy="29000" rx="650" ry="650"  /> 
</g>
<g style="fill:#FFFFFF; fill-opacity:1.0; 
  stroke:#808000; stroke-linecap:round; stroke-linejoin:round; stroke-opacity:1.0; stroke-opacity:1.0; stroke-width:0" 
   transform="translate(0 0) scale(1 1)">
<ellipse cx="51000" cy="29000" rx="600" ry="600"  /> 
</g>
<g style="fill:#A00000; fill-opacity:1.0; 
  stroke:#A00000; stroke-linecap:round; stroke-linejoin:round; stroke-opacity:1.0; stroke-opacity:1.0; stroke-width:0" 
   transform="translate(0 0) scale(1 1)">
<polygon style="fill-rule:evenodd; " 
points="58152,24528
58152,23642
58348,23642
58348,24528
" /> 
<polygon style="fill-rule:evenodd; " 
points="58652,24528
58652,23642
58848,23642
58848,24528
" /> 
<polygon style="fill-rule:evenodd; " 
points="59152,24528
59152,23642
59348,23642
59348,24528
" /> 
<polygon style="fill-rule:evenodd; " 
points="59652,24528
59652,23642
59848,23642
59848,24528
" /> 
<polygon style="fill-rule:evenodd; " 
points="58152,26359
58152,25473
58348,25473
58348,26359
" /> 
<polygon style="fill-rule:evenodd; " 
points="58652,26359
58652,25473
58848,25473
58848,26359
" /> 
<polygon style="fill-rule:evenodd; " 
points="59152,26359
59152,25473
59348,25473
59348,26359
" /> 
<polygon style="fill-rule:evenodd; " 
points="59652,26359
59652,25473
59848,25473
59848,26359
" /> 
</g>
<g style="fill:#A00000; fill-opacity:1.0; 
  stroke:#0000C0; stroke-linecap:round; stroke-linejoin:round; stroke-opacity:1.0; stroke-opacity:1.0; stroke-width:0" 
   transform="translate(0 0) scale(1 1)">
<path d="M58896 22992 L58900 22992" /> 
<path d="M58898 22990 L58898 22994" /> 
</g>
<g style="fill:#C0C0C0; fill-opacity:0.0; 
  stroke:#C0C0C0; stroke-linecap:round; stroke-linejoin:round; stroke-opacity:1.0; stroke-opacity:1.0; stroke-width:98" 
   transform="translate(0 0) scale(1 1)">
<path d="M58441 22635 L58441 23121" /> 
<path d="M58441 23121 L58469 23178" /> 
<path d="M58469 23178 L58498 23206" /> 
<path d="M58498 23206 L58555 23235" /> 
<path d="M58555 23235 L58669 23235" /> 
<path d="M58669 23235 L58727 23206" /> 
<path d="M58727 23206 L58755 23178" /> 
<path d="M58755 23178 L58784 23121" /> 
<path d="M58784 23121 L58784 22635" /> 
<g style = "stroke-linecap:round;" > 
<path d="M58784 22635 L58784 22635" /> 
</g><path d="M59384 23235 L59041 23235" /> 
<g style = "stroke-linecap:round;" > 
<path d="M59041 23235 L59041 23235" /> 
</g><path d="M59213 23235 L59213 22635" /> 
<path d="M59213 22635 L59156 22721" /> 
<path d="M59156 22721 L59098 22778" /> 
<path d="M59098 22778 L59041 22806" /> 
<g style = "stroke-linecap:round;" > 
<path d="M59041 22806 L59041 22806" /> 
</g></g>
<g style="fill:#C0C0C0; fill-opacity:0.0; 
  stroke:#00A0A0; stroke-linecap:round; stroke-linejoin:round; stroke-opacity:1.0; stroke-opacity:1.0; stroke-width:150" 
   transform="translate(0 0) scale(1 1)">
<path d="M60181 25787 L58016 25787" /> 
<path d="M58016 25787 L57819 25591" /> 
<path d="M57819 25591 L57819 24213" /> 
<path d="M57819 24213 L60181 24213" /> 
<path d="M60181 24213 L60181 25787" /> 
</g>
<g style="fill:#A00000; fill-opacity:1.0; 
  stroke:#A00000; stroke-linecap:round; stroke-linejoin:round; stroke-opacity:1.0; stroke-opacity:1.0; stroke-width:0" 
   transform="translate(0 0) scale(1 1)">
<polygon style="fill-rule:evenodd; " 
points="53572,22025
53572,21575
53822,21575
53822,22025
" /> 
<polygon style="fill-rule:evenodd; " 
points="54172,22025
54172,21575
54422,21575
54422,22025
" /> 
</g>
<g style="fill:#A00000; fill-opacity:1.0; 
  stroke:#0000C0; stroke-linecap:round; stroke-linejoin:round; stroke-opacity:1.0; stroke-opacity:1.0; stroke-width:0" 
   transform="translate(0 0) scale(1 1)">
<path d="M53098 21800 L53102 21800" /> 
<path d="M53100 21798 L53100 21802" /> 
</g>
<g style="fill:#C0C0C0; fill-opacity:0.0; 
  stroke:#C0C0C0; stroke-linecap:round; stroke-linejoin:round; stroke-opacity:1.0; stroke-opacity:1.0; stroke-width:45" 
   transform="translate(0 0) scale(1 1)">
<path d="M53071 21887 L53062 21900" /> 
<path d="M53062 21900 L53036 21913" /> 
<path d="M53036 21913 L53019 21913" /> 
<path d="M53019 21913 L52994 21900" /> 
<path d="M52994 21900 L52976 21873" /> 
<path d="M52976 21873 L52968 21847" /> 
<path d="M52968 21847 L52959 21793" /> 
<path d="M52959 21793 L52959 21753" /> 
<path d="M52959 21753 L52968 21700" /> 
<path d="M52968 21700 L52976 21673" /> 
<path d="M52976 21673 L52994 21647" /> 
<path d="M52994 21647 L53019 21633" /> 
<path d="M53019 21633 L53036 21633" /> 
<path d="M53036 21633 L53062 21647" /> 
<path d="M53062 21647 L53071 21660" /> 
<g style = "stroke-linecap:round;" > 
<path d="M53071 21660 L53071 21660" /> 
</g><path d="M53242 21913 L53139 21913" /> 
<g style = "stroke-linecap:round;" > 
<path d="M53139 21913 L53139 21913" /> 
</g><path d="M53191 21913 L53191 21633" /> 
<path d="M53191 21633 L53174 21673" /> 
<path d="M53174 21673 L53156 21700" /> 
<path d="M53156 21700 L53139 21713" /> 
<g style = "stroke-linecap:round;" > 
<path d="M53139 21713 L53139 21713" /> 
</g></g>
<g style="fill:#C0C0C0; fill-opacity:0.0; 
  stroke:#0000C0; stroke-linecap:round; stroke-linejoin:round; stroke-opacity:1.0; stroke-opacity:1.0; stroke-width:0" 
   transform="translate(0 0) scale(1 1)">
<path d="M55198 21800 L55202 21800" /> 
<path d="M55200 21798 L55200 21802" /> 
</g>
<g style="fill:#C0C0C0; fill-opacity:0.0; 
  stroke:#C0C0C0; stroke-linecap:round; stroke-linejoin:round; stroke-opacity:1.0; stroke-opacity:1.0; stroke-width:45" 
   transform="translate(0 0) scale(1 1)">
<path d="M54836 21633 L54853 21633" /> 
<path d="M54853 21633 L54870 21647" /> 
<path d="M54870 21647 L54879 21660" /> 
<path d="M54879 21660 L54888 21687" /> 
<path d="M54888 21687 L54896 21740" /> 
<path d="M54896 21740 L54896 21807" /> 
<path d="M54896 21807 L54888 21860" /> 
<path d="M54888 21860 L54879 21887" /> 
<path d="M54879 21887 L54870 21900" /> 
<path d="M54870 21900 L54853 21913" /> 
<path d="M54853 21913 L54836 21913" /> 
<path d="M54836 21913 L54819 21900" /> 
<path d="M54819 21900 L54810 21887" /> 
<path d="M54810 21887 L54802 21860" /> 
<path d="M54802 21860 L54793 21807" /> 
<path d="M54793 21807 L54793 21740" /> 
<path d="M54793 21740 L54802 21687" /> 
<path d="M54802 21687 L54810 21660" /> 
<path d="M54810 21660 L54819 21647" /> 
<path d="M54819 21647 L54836 21633" /> 
<path d="M54973 21887 L54981 21900" /> 
<path d="M54981 21900 L54973 21913" /> 
<path d="M54973 21913 L54964 21900" /> 
<path d="M54964 21900 L54973 21887" /> 
<path d="M54973 21887 L54973 21913" /> 
<g style = "stroke-linecap:round;" > 
<path d="M54973 21913 L54973 21913" /> 
</g><path d="M55153 21913 L55050 21913" /> 
<g style = "stroke-linecap:round;" > 
<path d="M55050 21913 L55050 21913" /> 
</g><path d="M55102 21913 L55102 21633" /> 
<path d="M55102 21633 L55085 21673" /> 
<path d="M55085 21673 L55067 21700" /> 
<path d="M55067 21700 L55050 21713" /> 
<g style = "stroke-linecap:round;" > 
<path d="M55050 21713 L55050 21713" /> 
</g><path d="M55187 21940 L55324 21940" /> 
<g style = "stroke-linecap:round;" > 
<path d="M55324 21940 L55324 21940" /> 
</g><path d="M55444 21727 L55444 21913" /> 
<g style = "stroke-linecap:round;" > 
<path d="M55444 21913 L55444 21913" /> 
</g><path d="M55367 21727 L55367 21873" /> 
<path d="M55367 21873 L55375 21900" /> 
<path d="M55375 21900 L55393 21913" /> 
<path d="M55393 21913 L55418 21913" /> 
<path d="M55418 21913 L55435 21900" /> 
<path d="M55435 21900 L55444 21887" /> 
<g style = "stroke-linecap:round;" > 
<path d="M55444 21887 L55444 21887" /> 
</g><path d="M55590 21767 L55530 21767" /> 
<g style = "stroke-linecap:round;" > 
<path d="M55530 21767 L55530 21767" /> 
</g><path d="M55530 21913 L55530 21633" /> 
<path d="M55530 21633 L55616 21633" /> 
<g style = "stroke-linecap:round;" > 
<path d="M55616 21633 L55616 21633" /> 
</g></g>
<g style="fill:#C0C0C0; fill-opacity:0.0; 
  stroke:#00A0A0; stroke-linecap:round; stroke-linejoin:round; stroke-opacity:1.0; stroke-opacity:1.0; stroke-width:50" 
   transform="translate(0 0) scale(1 1)">
<path d="M53547 21550 L54447 21550" /> 
<path d="M54447 21550 L54447 22050" /> 
<path d="M54447 22050 L53547 22050" /> 
<path d="M53547 22050 L53547 21550" /> 
</g>
<g style="fill:#808000; fill-opacity:1.0; 
  stroke:#808000; stroke-linecap:round; stroke-linejoin:round; stroke-opacity:1.0; stroke-opacity:1.0; stroke-width:0" 
   transform="translate(0 0) scale(1 1)">
<polygon style="fill-rule:evenodd; " 
points="53850,27350
53150,27350
53150,26650
53850,26650
" /> 
</g>
<g style="fill:#FFFFFF; fill-opacity:1.0; 
  stroke:#808000; stroke-linecap:round; stroke-linejoin:round; stroke-opacity:1.0; stroke-opacity:1.0; stroke-width:0" 
   transform="translate(0 0) scale(1 1)">
<ellipse cx="53500" cy="27000" rx="200" ry="200"  /> 
</g>
<g style="fill:#808000; fill-opacity:1.0; 
  stroke:#808000; stroke-linecap:round; stroke-linejoin:round; stroke-opacity:1.0; stroke-opacity:1.0; stroke-width:0" 
   transform="translate(0 0) scale(1 1)">
<ellipse cx="54500" cy="27000" rx="350" ry="350"  /> 
</g>
<g style="fill:#FFFFFF; fill-opacity:1.0; 
  stroke:#808000; stroke-linecap:round; stroke-linejoin:round; stroke-opacity:1.0; stroke-opacity:1.0; stroke-width:0" 
   transform="translate(0 0) scale(1 1)">
<ellipse cx="54500" cy="27000" rx="200" ry="200"  /> 
</g>
<g style="fill:#808000; fill-opacity:1.0; 
  stroke:#808000; stroke-linecap:round; stroke-linejoin:round; stroke-opacity:1.0; stroke-opacity:1.0; stroke-width:0" 
   transform="translate(0 0) scale(1 1)">
<ellipse cx="53500" cy="26000" rx="350" ry="350"  /> 
</g>
<g style="fill:#FFFFFF; fill-opacity:1.0; 
  stroke:#808000; stroke-linecap:round; stroke-linejoin:round; stroke-opacity:1.0; stroke-opacity:1.0; stroke-width:0" 
   transform="translate(0 0) scale(1 1)">
<ellipse cx="53500" cy="26000" rx="200" ry="200"  /> 
</g>
<g style="fill:#808000; fill-opacity:1.0; 
  stroke:#808000; stroke-linecap:round; stroke-linejoin:round; stroke-opacity:1.0; stroke-opacity:1.0; stroke-width:0" 
   transform="translate(0 0) scale(1 1)">
<ellipse cx="54500" cy="26000" rx="350" ry="350"  /> 
</g>
<g style="fill:#FFFFFF; fill-opacity:1.0; 
  stroke:#808000; stroke-linecap:round; stroke-linejoin:round; stroke-opacity:1.0; stroke-opacity:1.0; stroke-width:0" 
   transform="translate(0 0) scale(1 1)">
<ellipse cx="54500" cy="26000" rx="200" ry="200"  /> 
</g>
<g style="fill:#808000; fill-opacity:1.0; 
  stroke:#808000; stroke-linecap:round; stroke-linejoin:round; stroke-opacity:1.0; stroke-opacity:1.0; stroke-width:0" 
   transform="translate(0 0) scale(1 1)">
<ellipse cx="53500" cy="25000" rx="350" ry="350"  /> 
</g>
<g style="fill:#FFFFFF; fill-opacity:1.0; 
  stroke:#808000; stroke-linecap:round; stroke-linejoin:round; stroke-opacity:1.0; stroke-opacity:1.0; stroke-width:0" 
   transform="translate(0 0) scale(1 1)">
<ellipse cx="53500" cy="25000" rx="200" ry="200"  /> 
</g>
<g style="fill:#808000; fill-opacity:1.0; 
  stroke:#808000; stroke-linecap:round; stroke-linejoin:round; stroke-opacity:1.0; stroke-opacity:1.0; stroke-width:0" 
   transform="translate(0 0) scale(1 1)">
<ellipse cx="54500" cy="25000" rx="350" ry="350"  /> 
</g>
<g style="fill:#FFFFFF; fill-opacity:1.0; 
  stroke:#808000; stroke-linecap:round; stroke-linejoin:round; stroke-opacity:1.0; stroke-opacity:1.0; stroke-width:0" 
   transform="translate(0 0) scale(1 1)">
<ellipse cx="54500" cy="25000" rx="200" ry="200"  /> 
</g>
<g style="fill:#808000; fill-opacity:1.0; 
  stroke:#808000; stroke-linecap:round; stroke-linejoin:round; stroke-opacity:1.0; stroke-opacity:1.0; stroke-width:0" 
   transform="translate(0 0) scale(1 1)">
<ellipse cx="53500" cy="24000" rx="350" ry="350"  /> 
</g>
<g style="fill:#FFFFFF; fill-opacity:1.0; 
  stroke:#808000; stroke-linecap:round; stroke-linejoin:round; stroke-opacity:1.0; stroke-opacity:1.0; stroke-width:0" 
   transform="translate(0 0) scale(1 1)">
<ellipse cx="53500" cy="24000" rx="200" ry="200"  /> 
</g>
<g style="fill:#808000; fill-opacity:1.0; 
  stroke:#808000; stroke-linecap:round; stroke-linejoin:round; stroke-opacity:1.0; stroke-opacity:1.0; stroke-width:0" 
   transform="translate(0 0) scale(1 1)">
<ellipse cx="54500" cy="24000" rx="350" ry="350"  /> 
</g>
<g style="fill:#FFFFFF; fill-opacity:1.0; 
  stroke:#808000; stroke-linecap:round; stroke-linejoin:round; stroke-opacity:1.0; stroke-opacity:1.0; stroke-width:0" 
   transform="translate(0 0) scale(1 1)">
<ellipse cx="54500" cy="24000" rx="200" ry="200"  /> 
</g>
<g style="fill:#808000; fill-opacity:1.0; 
  stroke:#808000; stroke-linecap:round; stroke-linejoin:round; stroke-opacity:1.0; stroke-opacity:1.0; stroke-width:0" 
   transform="translate(0 0) scale(1 1)">
<ellipse cx="53500" cy="23000" rx="350" ry="350"  /> 
</g>
<g style="fill:#FFFFFF; fill-opacity:1.0; 
  stroke:#808000; stroke-linecap:round; stroke-linejoin:round; stroke-opacity:1.0; stroke-opacity:1.0; stroke-width:0" 
   transform="translate(0 0) scale(1 1)">
<ellipse cx="53500" cy="23000" rx="200" ry="200"  /> 
</g>
<g style="fill:#808000; fill-opacity:1.0; 
  stroke:#808000; stroke-linecap:round; stroke-linejoin:round; stroke-opacity:1.0; stroke-opacity:1.0; stroke-width:0" 
   transform="translate(0 0) scale(1 1)">
<ellipse cx="54500" cy="23000" rx="350" ry="350"  /> 
</g>
<g style="fill:#FFFFFF; fill-opacity:1.0; 
  stroke:#808000; stroke-linecap:round; stroke-linejoin:round; stroke-opacity:1.0; stroke-opacity:1.0; stroke-width:0" 
   transform="translate(0 0) scale(1 1)">
<ellipse cx="54500" cy="23000" rx="200" ry="200"  /> 
</g>
<g style="fill:#FFFFFF; fill-opacity:1.0; 
  stroke:#0000C0; stroke-linecap:round; stroke-linejoin:round; stroke-opacity:1.0; stroke-opacity:1.0; stroke-width:0" 
   transform="translate(0 0) scale(1 1)">
<path d="M57098 25000 L57102 25000" /> 
<path d="M57100 24998 L57100 25002" /> 
</g>
<g style="fill:#0000C0; fill-opacity:0.0; 
  stroke:#0000C0; stroke-linecap:round; stroke-linejoin:round; stroke-opacity:1.0; stroke-opacity:1.0; stroke-width:120" 
   transform="translate(0 0) scale(1 1)">
<path d="M57343 24558 L56743 24558" /> 
<path d="M56743 24558 L56743 24786" /> 
<path d="M56743 24786 L56771 24844" /> 
<path d="M56771 24844 L56800 24872" /> 
<path d="M56800 24872 L56857 24901" /> 
<path d="M56857 24901 L56943 24901" /> 
<path d="M56943 24901 L57000 24872" /> 
<path d="M57000 24872 L57029 24844" /> 
<path d="M57029 24844 L57057 24786" /> 
<path d="M57057 24786 L57057 24558" /> 
<g style = "stroke-linecap:round;" > 
<path d="M57057 24558 L57057 24558" /> 
</g><path d="M57343 25472 L57343 25129" /> 
<g style = "stroke-linecap:round;" > 
<path d="M57343 25129 L57343 25129" /> 
</g><path d="M57343 25301 L56743 25301" /> 
<path d="M56743 25301 L56829 25244" /> 
<path d="M56829 25244 L56886 25186" /> 
<path d="M56886 25186 L56914 25129" /> 
<g style = "stroke-linecap:round;" > 
<path d="M56914 25129 L56914 25129" /> 
</g></g>
<g style="fill:#0000C0; fill-opacity:0.0; 
  stroke:#0000C0; stroke-linecap:round; stroke-linejoin:round; stroke-opacity:1.0; stroke-opacity:1.0; stroke-width:0" 
   transform="translate(0 0) scale(1 1)">
<path d="M51598 24075 L51602 24075" /> 
<path d="M51600 24073 L51600 24077" /> 
</g>
<g style="fill:#0000C0; fill-opacity:0.0; 
  stroke:#0000C0; stroke-linecap:round; stroke-linejoin:round; stroke-opacity:1.0; stroke-opacity:1.0; stroke-width:120" 
   transform="translate(0 0) scale(1 1)">
<path d="M51786 22233 L51814 22204" /> 
<path d="M51814 22204 L51843 22118" /> 
<path d="M51843 22118 L51843 22061" /> 
<path d="M51843 22061 L51814 21976" /> 
<path d="M51814 21976 L51757 21918" /> 
<path d="M51757 21918 L51700 21890" /> 
<path d="M51700 21890 L51586 21861" /> 
<path d="M51586 21861 L51500 21861" /> 
<path d="M51500 21861 L51386 21890" /> 
<path d="M51386 21890 L51329 21918" /> 
<path d="M51329 21918 L51271 21976" /> 
<path d="M51271 21976 L51243 22061" /> 
<path d="M51243 22061 L51243 22118" /> 
<path d="M51243 22118 L51271 22204" /> 
<path d="M51271 22204 L51300 22233" /> 
<g style = "stroke-linecap:round;" > 
<path d="M51300 22233 L51300 22233" /> 
</g><path d="M51243 22604 L51243 22718" /> 
<path d="M51243 22718 L51271 22776" /> 
<path d="M51271 22776 L51329 22833" /> 
<path d="M51329 22833 L51443 22861" /> 
<path d="M51443 22861 L51643 22861" /> 
<path d="M51643 22861 L51757 22833" /> 
<path d="M51757 22833 L51814 22776" /> 
<path d="M51814 22776 L51843 22718" /> 
<path d="M51843 22718 L51843 22604" /> 
<path d="M51843 22604 L51814 22547" /> 
<path d="M51814 22547 L51757 22490" /> 
<path d="M51757 22490 L51643 22461" /> 
<path d="M51643 22461 L51443 22461" /> 
<path d="M51443 22461 L51329 22490" /> 
<path d="M51329 22490 L51271 22547" /> 
<path d="M51271 22547 L51243 22604" /> 
<path d="M51843 23119 L51243 23119" /> 
<path d="M51243 23119 L51843 23462" /> 
<path d="M51843 23462 L51243 23462" /> 
<g style = "stroke-linecap:round;" > 
<path d="M51243 23462 L51243 23462" /> 
</g><path d="M51843 23748 L51243 23748" /> 
<path d="M51243 23748 L51843 24091" /> 
<path d="M51843 24091 L51243 24091" /> 
<g style = "stroke-linecap:round;" > 
<path d="M51243 24091 L51243 24091" /> 
</g><path d="M51900 24234 L51900 24691" /> 
<g style = "stroke-linecap:round;" > 
<path d="M51900 24691 L51900 24691" /> 
</g><path d="M51243 25120 L51243 24834" /> 
<path d="M51243 24834 L51529 24805" /> 
<path d="M51529 24805 L51500 24834" /> 
<path d="M51500 24834 L51471 24891" /> 
<path d="M51471 24891 L51471 25034" /> 
<path d="M51471 25034 L51500 25091" /> 
<path d="M51500 25091 L51529 25120" /> 
<path d="M51529 25120 L51586 25148" /> 
<path d="M51586 25148 L51729 25148" /> 
<path d="M51729 25148 L51786 25120" /> 
<path d="M51786 25120 L51814 25091" /> 
<path d="M51814 25091 L51843 25034" /> 
<path d="M51843 25034 L51843 24891" /> 
<path d="M51843 24891 L51814 24834" /> 
<path d="M51814 24834 L51786 24805" /> 
<g style = "stroke-linecap:round;" > 
<path d="M51786 24805 L51786 24805" /> 
</g><path d="M51243 25348 L51843 25748" /> 
<g style = "stroke-linecap:round;" > 
<path d="M51843 25748 L51843 25748" /> 
</g><path d="M51243 25748 L51843 25348" /> 
<g style = "stroke-linecap:round;" > 
<path d="M51843 25348 L51843 25348" /> 
</g><path d="M51300 25947 L51271 25976" /> 
<path d="M51271 25976 L51243 26033" /> 
<path d="M51243 26033 L51243 26176" /> 
<path d="M51243 26176 L51271 26233" /> 
<path d="M51271 26233 L51300 26262" /> 
<path d="M51300 26262 L51357 26290" /> 
<path d="M51357 26290 L51414 26290" /> 
<path d="M51414 26290 L51500 26262" /> 
<path d="M51500 26262 L51843 25919" /> 
<path d="M51843 25919 L51843 26290" /> 
<g style = "stroke-linecap:round;" > 
<path d="M51843 26290 L51843 26290" /> 
</g></g>
<g style="fill:#0000C0; fill-opacity:0.0; 
  stroke:#A000A0; stroke-linecap:round; stroke-linejoin:round; stroke-opacity:1.0; stroke-opacity:1.0; stroke-width:150" 
   transform="translate(0 0) scale(1 1)">
<path d="M55900 29000 L55900 21000" /> 
<path d="M55900 21000 L52100 21000" /> 
<path d="M52100 21000 L52100 29000" /> 
<path d="M52100 29000 L55900 29000" /> 
<path d="M51126 27717 L51126 26535" /> 
</g>
<g style="fill:#0000C0; fill-opacity:0.0; 
  stroke:#0000C0; stroke-linecap:round; stroke-linejoin:round; stroke-opacity:1.0; stroke-opacity:1.0; stroke-width:0" 
   transform="translate(0 0) scale(1 1)">
<path d="M55258 23071 L55262 23071" /> 
<path d="M55260 23069 L55260 23073" /> 
</g>
<g style="fill:#0000C0; fill-opacity:0.0; 
  stroke:#0000C0; stroke-linecap:round; stroke-linejoin:round; stroke-opacity:1.0; stroke-opacity:1.0; stroke-width:100" 
   transform="translate(0 0) scale(1 1)">
<path d="M55462 22976 L55462 22690" /> 
<g style = "stroke-linecap:round;" > 
<path d="M55462 22690 L55462 22690" /> 
</g><path d="M55462 22833 L54962 22833" /> 
<path d="M54962 22833 L55034 22785" /> 
<path d="M55034 22785 L55081 22738" /> 
<path d="M55081 22738 L55105 22690" /> 
<g style = "stroke-linecap:round;" > 
<path d="M55105 22690 L55105 22690" /> 
</g><path d="M54962 23285 L54962 23333" /> 
<path d="M54962 23333 L54986 23381" /> 
<path d="M54986 23381 L55010 23404" /> 
<path d="M55010 23404 L55058 23428" /> 
<path d="M55058 23428 L55153 23452" /> 
<path d="M55153 23452 L55272 23452" /> 
<path d="M55272 23452 L55367 23428" /> 
<path d="M55367 23428 L55415 23404" /> 
<path d="M55415 23404 L55439 23381" /> 
<path d="M55439 23381 L55462 23333" /> 
<path d="M55462 23333 L55462 23285" /> 
<path d="M55462 23285 L55439 23238" /> 
<path d="M55439 23238 L55415 23214" /> 
<path d="M55415 23214 L55367 23190" /> 
<path d="M55367 23190 L55272 23166" /> 
<path d="M55272 23166 L55153 23166" /> 
<path d="M55153 23166 L55058 23190" /> 
<path d="M55058 23190 L55010 23214" /> 
<path d="M55010 23214 L54986 23238" /> 
<path d="M54986 23238 L54962 23285" /> 
</g>
<g style="fill:#0000C0; fill-opacity:0.0; 
  stroke:#0000C0; stroke-linecap:round; stroke-linejoin:round; stroke-opacity:1.0; stroke-opacity:1.0; stroke-width:0" 
   transform="translate(0 0) scale(1 1)">
<path d="M52620 22953 L52624 22953" /> 
<path d="M52622 22951 L52622 22955" /> 
</g>
<g style="fill:#0000C0; fill-opacity:0.0; 
  stroke:#0000C0; stroke-linecap:round; stroke-linejoin:round; stroke-opacity:1.0; stroke-opacity:1.0; stroke-width:100" 
   transform="translate(0 0) scale(1 1)">
<path d="M52824 22858 L52824 22953" /> 
<path d="M52824 22953 L52801 23001" /> 
<path d="M52801 23001 L52777 23025" /> 
<path d="M52777 23025 L52705 23072" /> 
<path d="M52705 23072 L52610 23096" /> 
<path d="M52610 23096 L52420 23096" /> 
<path d="M52420 23096 L52372 23072" /> 
<path d="M52372 23072 L52348 23048" /> 
<path d="M52348 23048 L52324 23001" /> 
<path d="M52324 23001 L52324 22905" /> 
<path d="M52324 22905 L52348 22858" /> 
<path d="M52348 22858 L52372 22834" /> 
<path d="M52372 22834 L52420 22810" /> 
<path d="M52420 22810 L52539 22810" /> 
<path d="M52539 22810 L52586 22834" /> 
<path d="M52586 22834 L52610 22858" /> 
<path d="M52610 22858 L52634 22905" /> 
<path d="M52634 22905 L52634 23001" /> 
<path d="M52634 23001 L52610 23048" /> 
<path d="M52610 23048 L52586 23072" /> 
<path d="M52586 23072 L52539 23096" /> 
<g style = "stroke-linecap:round;" > 
<path d="M52539 23096 L52539 23096" /> 
</g></g>
<g style="fill:#0000C0; fill-opacity:0.0; 
  stroke:#0000C0; stroke-linecap:round; stroke-linejoin:round; stroke-opacity:1.0; stroke-opacity:1.0; stroke-width:0" 
   transform="translate(0 0) scale(1 1)">
<path d="M55258 27008 L55262 27008" /> 
<path d="M55260 27006 L55260 27010" /> 
</g>
<g style="fill:#0000C0; fill-opacity:0.0; 
  stroke:#0000C0; stroke-linecap:round; stroke-linejoin:round; stroke-opacity:1.0; stroke-opacity:1.0; stroke-width:100" 
   transform="translate(0 0) scale(1 1)">
<path d="M55010 26865 L54986 26889" /> 
<path d="M54986 26889 L54962 26937" /> 
<path d="M54962 26937 L54962 27056" /> 
<path d="M54962 27056 L54986 27103" /> 
<path d="M54986 27103 L55010 27127" /> 
<path d="M55010 27127 L55058 27151" /> 
<path d="M55058 27151 L55105 27151" /> 
<path d="M55105 27151 L55177 27127" /> 
<path d="M55177 27127 L55462 26841" /> 
<path d="M55462 26841 L55462 27151" /> 
<g style = "stroke-linecap:round;" > 
<path d="M55462 27151 L55462 27151" /> 
</g></g>
<g style="fill:#0000C0; fill-opacity:0.0; 
  stroke:#A000A0; stroke-linecap:round; stroke-linejoin:round; stroke-opacity:1.0; stroke-opacity:1.0; stroke-width:150" 
   transform="translate(0 0) scale(1 1)">
<path d="M51839 27112 L51139 27712" /> 
<path d="M51140 26512 L51840 27112" /> 
</g>
<g style="fill:#A00000; fill-opacity:1.0; 
  stroke:#A00000; stroke-linecap:round; stroke-linejoin:round; stroke-opacity:1.0; stroke-opacity:1.0; stroke-width:0" 
   transform="translate(0 0) scale(1 1)">
<polygon style="fill-rule:evenodd; " 
points="64656,23560
63948,23560
63948,23088
64656,23088
" /> 
<polygon style="fill-rule:evenodd; " 
points="64656,24544
63948,24544
63948,24072
64656,24072
" /> 
<polygon style="fill-rule:evenodd; " 
points="64656,26512
63948,26512
63948,26040
64656,26040
" /> 
<polygon style="fill-rule:evenodd; " 
points="67452,26571
66744,26571
66744,25981
67452,25981
" /> 
<polygon style="fill-rule:evenodd; " 
points="67452,25587
66744,25587
66744,24997
67452,24997
" /> 
<polygon style="fill-rule:evenodd; " 
points="64656,25528
63948,25528
63948,25056
64656,25056
" /> 
<polygon style="fill-rule:evenodd; " 
points="67452,24603
66744,24603
66744,24013
67452,24013
" /> 
<polygon style="fill-rule:evenodd; " 
points="67452,23619
66744,23619
66744,23029
67452,23029
" /> 
</g>
<g style="fill:#A00000; fill-opacity:1.0; 
  stroke:#0000C0; stroke-linecap:round; stroke-linejoin:round; stroke-opacity:1.0; stroke-opacity:1.0; stroke-width:0" 
   transform="translate(0 0) scale(1 1)">
<path d="M65698 22300 L65702 22300" /> 
<path d="M65700 22298 L65700 22302" /> 
</g>
<g style="fill:#C0C0C0; fill-opacity:0.0; 
  stroke:#C0C0C0; stroke-linecap:round; stroke-linejoin:round; stroke-opacity:1.0; stroke-opacity:1.0; stroke-width:120" 
   transform="translate(0 0) scale(1 1)">
<path d="M65258 22543 L65258 21943" /> 
<path d="M65258 21943 L65486 21943" /> 
<path d="M65486 21943 L65544 21971" /> 
<path d="M65544 21971 L65572 22000" /> 
<path d="M65572 22000 L65601 22057" /> 
<path d="M65601 22057 L65601 22143" /> 
<path d="M65601 22143 L65572 22200" /> 
<path d="M65572 22200 L65544 22229" /> 
<path d="M65544 22229 L65486 22257" /> 
<path d="M65486 22257 L65258 22257" /> 
<g style = "stroke-linecap:round;" > 
<path d="M65258 22257 L65258 22257" /> 
</g><path d="M65829 22000 L65858 21971" /> 
<path d="M65858 21971 L65915 21943" /> 
<path d="M65915 21943 L66058 21943" /> 
<path d="M66058 21943 L66115 21971" /> 
<path d="M66115 21971 L66144 22000" /> 
<path d="M66144 22000 L66172 22057" /> 
<path d="M66172 22057 L66172 22114" /> 
<path d="M66172 22114 L66144 22200" /> 
<path d="M66144 22200 L65801 22543" /> 
<path d="M65801 22543 L66172 22543" /> 
<g style = "stroke-linecap:round;" > 
<path d="M66172 22543 L66172 22543" /> 
</g></g>
<g style="fill:#C0C0C0; fill-opacity:0.0; 
  stroke:#00A0A0; stroke-linecap:round; stroke-linejoin:round; stroke-opacity:1.0; stroke-opacity:1.0; stroke-width:150" 
   transform="translate(0 0) scale(1 1)">
<path d="M63731 26769 L63731 22831" /> 
<path d="M63731 22831 L67669 22831" /> 
<path d="M67669 22831 L67669 26769" /> 
<path d="M67669 26769 L63731 26769" /> 
</g>
<g style="fill:#FFFFFF; fill-opacity:1.0; 
  stroke:#FFFFFF; stroke-linecap:round; stroke-linejoin:round; stroke-opacity:1.0; stroke-opacity:1.0; stroke-width:0" 
   transform="translate(0 0) scale(1 1)">
<ellipse cx="58036" cy="25192" rx="125" ry="125"  /> 
<ellipse cx="58679" cy="25191" rx="125" ry="125"  /> 
<ellipse cx="62581" cy="25132" rx="125" ry="125"  /> 
<ellipse cx="53315" cy="21411" rx="125" ry="125"  /> 
</g> 
</svg> 
