G04 (created by PCBNEW-RS274X (2011-07-19)-testing) date Tue 25 Oct 2011 10:28:57 AM PDT*
G01*
G70*
G90*
%MOIN*%
G04 Gerber Fmt 3.4, Leading zero omitted, Abs format*
%FSLAX34Y34*%
G04 APERTURE LIST*
%ADD10C,0.006000*%
%ADD11C,0.130000*%
%ADD12R,0.019700X0.088600*%
%ADD13R,0.070000X0.070000*%
%ADD14C,0.070000*%
%ADD15R,0.025000X0.045000*%
%ADD16C,0.073000*%
%ADD17R,0.073000X0.073000*%
%ADD18C,0.053000*%
%ADD19C,0.035000*%
%ADD20C,0.012000*%
%ADD21C,0.010000*%
G04 APERTURE END LIST*
G54D10*
G54D11*
X67000Y-21000D03*
X51000Y-21000D03*
X67000Y-29000D03*
X51000Y-29000D03*
G54D12*
X58250Y-24085D03*
X58750Y-24085D03*
X59250Y-24085D03*
X59750Y-24085D03*
X58250Y-25916D03*
X58750Y-25916D03*
X59250Y-25916D03*
X59750Y-25916D03*
G54D13*
X53500Y-27500D03*
G54D14*
X54500Y-27500D03*
X53500Y-26500D03*
X54500Y-26500D03*
X53500Y-25500D03*
X54500Y-25500D03*
X53500Y-24500D03*
X54500Y-24500D03*
X53500Y-23500D03*
X54500Y-23500D03*
X53500Y-22500D03*
X54500Y-22500D03*
G54D15*
X61497Y-25000D03*
X62097Y-25000D03*
G54D16*
X66000Y-23000D03*
G54D17*
X66000Y-24000D03*
G54D18*
X67000Y-24000D03*
X67000Y-23000D03*
G54D16*
X66000Y-26000D03*
G54D17*
X66000Y-27000D03*
G54D18*
X67000Y-27000D03*
X67000Y-26000D03*
G54D19*
X57220Y-24780D03*
G54D20*
X52242Y-25242D02*
X53500Y-26500D01*
X52242Y-22675D02*
X52242Y-25242D01*
X53715Y-21202D02*
X52242Y-22675D01*
X57473Y-21202D02*
X53715Y-21202D01*
X59750Y-23479D02*
X57473Y-21202D01*
X59750Y-24085D02*
X59750Y-23479D01*
X60059Y-25000D02*
X59750Y-24691D01*
X61497Y-25000D02*
X60059Y-25000D01*
X59750Y-24085D02*
X59750Y-24691D01*
X54690Y-25310D02*
X58250Y-25310D01*
X54500Y-25500D02*
X54690Y-25310D01*
X58250Y-25916D02*
X58250Y-25310D01*
X59250Y-24085D02*
X59250Y-23479D01*
X57431Y-21660D02*
X59250Y-23479D01*
X53613Y-21660D02*
X57431Y-21660D01*
X52974Y-22299D02*
X53613Y-21660D01*
X52974Y-22974D02*
X52974Y-22299D01*
X53500Y-23500D02*
X52974Y-22974D01*
X57155Y-21884D02*
X58750Y-23479D01*
X54116Y-21884D02*
X57155Y-21884D01*
X53500Y-22500D02*
X54116Y-21884D01*
X58750Y-24085D02*
X58750Y-23479D01*
X58250Y-24085D02*
X58250Y-24691D01*
X58161Y-24780D02*
X57220Y-24780D01*
X58250Y-24691D02*
X58161Y-24780D01*
X54522Y-26522D02*
X58750Y-26522D01*
X54500Y-26500D02*
X54522Y-26522D01*
X58750Y-25916D02*
X58750Y-26522D01*
X59978Y-25310D02*
X59750Y-25310D01*
X60074Y-25406D02*
X59978Y-25310D01*
X61691Y-25406D02*
X60074Y-25406D01*
X61809Y-25288D02*
X61691Y-25406D01*
X61809Y-25000D02*
X61809Y-25288D01*
X62097Y-25000D02*
X61809Y-25000D01*
X59750Y-25916D02*
X59750Y-25613D01*
X59750Y-25613D02*
X59750Y-25310D01*
X59447Y-25310D02*
X59250Y-25310D01*
X59750Y-25613D02*
X59447Y-25310D01*
X59250Y-25916D02*
X59250Y-25310D01*
X64385Y-23000D02*
X62385Y-25000D01*
X66000Y-23000D02*
X64385Y-23000D01*
X62097Y-25000D02*
X62385Y-25000D01*
G54D10*
G36*
X54153Y-25000D02*
X54000Y-25153D01*
X53839Y-24992D01*
X53819Y-24984D01*
X53843Y-24914D01*
X53500Y-24571D01*
X53429Y-24642D01*
X53429Y-24500D01*
X53086Y-24157D01*
X52987Y-24190D01*
X52907Y-24409D01*
X52918Y-24644D01*
X52987Y-24810D01*
X53086Y-24843D01*
X53429Y-24500D01*
X53429Y-24642D01*
X53157Y-24914D01*
X53180Y-24984D01*
X53161Y-24992D01*
X52992Y-25161D01*
X52901Y-25381D01*
X52901Y-25463D01*
X52552Y-25114D01*
X52552Y-22803D01*
X52664Y-22691D01*
X52664Y-22974D01*
X52688Y-23093D01*
X52755Y-23193D01*
X52913Y-23351D01*
X52901Y-23381D01*
X52901Y-23619D01*
X52992Y-23839D01*
X53161Y-24008D01*
X53180Y-24015D01*
X53157Y-24086D01*
X53500Y-24429D01*
X53843Y-24086D01*
X53819Y-24015D01*
X53839Y-24008D01*
X54000Y-23847D01*
X54153Y-24000D01*
X53992Y-24161D01*
X53984Y-24180D01*
X53914Y-24157D01*
X53571Y-24500D01*
X53914Y-24843D01*
X53984Y-24819D01*
X53992Y-24839D01*
X54153Y-25000D01*
X54153Y-25000D01*
G37*
G54D21*
X54153Y-25000D02*
X54000Y-25153D01*
X53839Y-24992D01*
X53819Y-24984D01*
X53843Y-24914D01*
X53500Y-24571D01*
X53429Y-24642D01*
X53429Y-24500D01*
X53086Y-24157D01*
X52987Y-24190D01*
X52907Y-24409D01*
X52918Y-24644D01*
X52987Y-24810D01*
X53086Y-24843D01*
X53429Y-24500D01*
X53429Y-24642D01*
X53157Y-24914D01*
X53180Y-24984D01*
X53161Y-24992D01*
X52992Y-25161D01*
X52901Y-25381D01*
X52901Y-25463D01*
X52552Y-25114D01*
X52552Y-22803D01*
X52664Y-22691D01*
X52664Y-22974D01*
X52688Y-23093D01*
X52755Y-23193D01*
X52913Y-23351D01*
X52901Y-23381D01*
X52901Y-23619D01*
X52992Y-23839D01*
X53161Y-24008D01*
X53180Y-24015D01*
X53157Y-24086D01*
X53500Y-24429D01*
X53843Y-24086D01*
X53819Y-24015D01*
X53839Y-24008D01*
X54000Y-23847D01*
X54153Y-24000D01*
X53992Y-24161D01*
X53984Y-24180D01*
X53914Y-24157D01*
X53571Y-24500D01*
X53914Y-24843D01*
X53984Y-24819D01*
X53992Y-24839D01*
X54153Y-25000D01*
G54D10*
G36*
X67675Y-28402D02*
X67515Y-28242D01*
X67515Y-27103D01*
X67515Y-26898D01*
X67437Y-26709D01*
X67292Y-26564D01*
X67138Y-26499D01*
X67291Y-26437D01*
X67436Y-26292D01*
X67515Y-26103D01*
X67515Y-25898D01*
X67515Y-24103D01*
X67515Y-23898D01*
X67437Y-23709D01*
X67292Y-23564D01*
X67138Y-23499D01*
X67291Y-23437D01*
X67436Y-23292D01*
X67515Y-23103D01*
X67515Y-22898D01*
X67437Y-22709D01*
X67292Y-22564D01*
X67103Y-22485D01*
X66898Y-22485D01*
X66709Y-22563D01*
X66564Y-22708D01*
X66550Y-22741D01*
X66525Y-22680D01*
X66424Y-22646D01*
X66354Y-22716D01*
X66354Y-22576D01*
X66320Y-22475D01*
X66095Y-22393D01*
X65856Y-22403D01*
X65680Y-22475D01*
X65646Y-22576D01*
X66000Y-22929D01*
X66354Y-22576D01*
X66354Y-22716D01*
X66071Y-23000D01*
X66000Y-23071D01*
X65929Y-23000D01*
X65894Y-22965D01*
X65576Y-22646D01*
X65475Y-22680D01*
X65393Y-22905D01*
X65403Y-23144D01*
X65475Y-23320D01*
X65522Y-23336D01*
X65487Y-23372D01*
X65525Y-23410D01*
X65494Y-23424D01*
X65424Y-23494D01*
X65386Y-23585D01*
X65386Y-23684D01*
X65386Y-24414D01*
X65424Y-24506D01*
X65494Y-24576D01*
X65585Y-24614D01*
X65684Y-24614D01*
X66414Y-24614D01*
X66506Y-24576D01*
X66576Y-24506D01*
X66614Y-24415D01*
X66614Y-24342D01*
X66708Y-24436D01*
X66897Y-24515D01*
X67102Y-24515D01*
X67291Y-24437D01*
X67436Y-24292D01*
X67515Y-24103D01*
X67515Y-25898D01*
X67437Y-25709D01*
X67292Y-25564D01*
X67103Y-25485D01*
X66898Y-25485D01*
X66709Y-25563D01*
X66564Y-25708D01*
X66554Y-25731D01*
X66521Y-25652D01*
X66349Y-25479D01*
X66123Y-25385D01*
X65878Y-25385D01*
X65652Y-25479D01*
X65479Y-25651D01*
X65385Y-25877D01*
X65385Y-26122D01*
X65479Y-26348D01*
X65536Y-26406D01*
X65494Y-26424D01*
X65424Y-26494D01*
X65386Y-26585D01*
X65386Y-26684D01*
X65386Y-27414D01*
X65424Y-27506D01*
X65494Y-27576D01*
X65585Y-27614D01*
X65684Y-27614D01*
X66414Y-27614D01*
X66506Y-27576D01*
X66576Y-27506D01*
X66614Y-27415D01*
X66614Y-27342D01*
X66708Y-27436D01*
X66897Y-27515D01*
X67102Y-27515D01*
X67291Y-27437D01*
X67436Y-27292D01*
X67515Y-27103D01*
X67515Y-28242D01*
X67511Y-28238D01*
X67180Y-28100D01*
X66822Y-28100D01*
X66491Y-28237D01*
X66238Y-28489D01*
X66100Y-28820D01*
X66100Y-29178D01*
X66237Y-29509D01*
X66402Y-29675D01*
X62472Y-29675D01*
X62472Y-25112D01*
X62472Y-24888D01*
X62471Y-24824D01*
X62471Y-24725D01*
X62433Y-24634D01*
X62363Y-24564D01*
X62271Y-24526D01*
X62209Y-24525D01*
X62147Y-24587D01*
X62147Y-24950D01*
X62410Y-24950D01*
X62472Y-24888D01*
X62472Y-25112D01*
X62410Y-25050D01*
X62147Y-25050D01*
X62147Y-25413D01*
X62209Y-25475D01*
X62271Y-25474D01*
X62363Y-25436D01*
X62433Y-25366D01*
X62471Y-25275D01*
X62471Y-25176D01*
X62472Y-25112D01*
X62472Y-29675D01*
X62047Y-29675D01*
X62047Y-25413D01*
X62047Y-25100D01*
X62047Y-25050D01*
X62047Y-24950D01*
X62047Y-24900D01*
X62047Y-24587D01*
X61985Y-24525D01*
X61923Y-24526D01*
X61831Y-24564D01*
X61797Y-24598D01*
X61763Y-24564D01*
X61672Y-24526D01*
X61573Y-24526D01*
X61323Y-24526D01*
X61231Y-24564D01*
X61161Y-24634D01*
X61137Y-24690D01*
X60187Y-24690D01*
X60090Y-24593D01*
X60097Y-24578D01*
X60097Y-24479D01*
X60097Y-23593D01*
X60060Y-23503D01*
X60060Y-23479D01*
X60036Y-23361D01*
X60036Y-23360D01*
X59969Y-23260D01*
X57692Y-20983D01*
X57592Y-20916D01*
X57473Y-20892D01*
X53715Y-20892D01*
X53596Y-20916D01*
X53496Y-20983D01*
X52023Y-22456D01*
X51956Y-22556D01*
X51932Y-22675D01*
X51932Y-25242D01*
X51956Y-25361D01*
X52023Y-25461D01*
X52913Y-26351D01*
X52901Y-26381D01*
X52901Y-26619D01*
X52992Y-26839D01*
X53067Y-26914D01*
X53009Y-26939D01*
X52939Y-27009D01*
X52901Y-27100D01*
X52901Y-27199D01*
X52901Y-27899D01*
X52939Y-27991D01*
X53009Y-28061D01*
X53100Y-28099D01*
X53199Y-28099D01*
X53899Y-28099D01*
X53991Y-28061D01*
X54061Y-27991D01*
X54085Y-27932D01*
X54161Y-28008D01*
X54381Y-28099D01*
X54619Y-28099D01*
X54839Y-28008D01*
X55008Y-27839D01*
X55099Y-27619D01*
X55099Y-27381D01*
X55008Y-27161D01*
X54847Y-27000D01*
X55008Y-26839D01*
X55010Y-26832D01*
X58750Y-26832D01*
X58869Y-26808D01*
X58969Y-26741D01*
X59036Y-26641D01*
X59047Y-26584D01*
X59103Y-26608D01*
X59139Y-26609D01*
X59201Y-26547D01*
X59201Y-25966D01*
X59200Y-25966D01*
X59200Y-25866D01*
X59201Y-25866D01*
X59201Y-25285D01*
X59139Y-25223D01*
X59103Y-25224D01*
X59011Y-25262D01*
X59000Y-25273D01*
X58989Y-25262D01*
X58898Y-25224D01*
X58799Y-25224D01*
X58603Y-25224D01*
X58547Y-25247D01*
X58536Y-25191D01*
X58469Y-25091D01*
X58369Y-25024D01*
X58348Y-25019D01*
X58380Y-24999D01*
X58469Y-24911D01*
X58469Y-24910D01*
X58536Y-24810D01*
X58547Y-24754D01*
X58602Y-24777D01*
X58701Y-24777D01*
X58897Y-24777D01*
X58989Y-24739D01*
X59000Y-24728D01*
X59011Y-24739D01*
X59102Y-24777D01*
X59201Y-24777D01*
X59397Y-24777D01*
X59452Y-24753D01*
X59464Y-24810D01*
X59531Y-24910D01*
X59839Y-25219D01*
X59840Y-25219D01*
X59854Y-25229D01*
X59799Y-25285D01*
X59799Y-25866D01*
X60036Y-25866D01*
X60098Y-25804D01*
X60097Y-25522D01*
X60097Y-25423D01*
X60059Y-25332D01*
X60031Y-25304D01*
X60058Y-25309D01*
X60059Y-25310D01*
X61137Y-25310D01*
X61161Y-25366D01*
X61231Y-25436D01*
X61322Y-25474D01*
X61421Y-25474D01*
X61671Y-25474D01*
X61763Y-25436D01*
X61797Y-25402D01*
X61831Y-25436D01*
X61923Y-25474D01*
X61985Y-25475D01*
X62047Y-25413D01*
X62047Y-29675D01*
X60098Y-29675D01*
X60098Y-26028D01*
X60036Y-25966D01*
X59799Y-25966D01*
X59799Y-26547D01*
X59861Y-26609D01*
X59897Y-26608D01*
X59989Y-26570D01*
X60059Y-26500D01*
X60097Y-26409D01*
X60097Y-26310D01*
X60098Y-26028D01*
X60098Y-29675D01*
X59701Y-29675D01*
X59701Y-26547D01*
X59701Y-25966D01*
X59701Y-25866D01*
X59701Y-25285D01*
X59639Y-25223D01*
X59603Y-25224D01*
X59511Y-25262D01*
X59500Y-25273D01*
X59489Y-25262D01*
X59397Y-25224D01*
X59361Y-25223D01*
X59299Y-25285D01*
X59299Y-25866D01*
X59464Y-25866D01*
X59536Y-25866D01*
X59701Y-25866D01*
X59701Y-25966D01*
X59536Y-25966D01*
X59464Y-25966D01*
X59299Y-25966D01*
X59299Y-26547D01*
X59361Y-26609D01*
X59397Y-26608D01*
X59489Y-26570D01*
X59500Y-26559D01*
X59511Y-26570D01*
X59603Y-26608D01*
X59639Y-26609D01*
X59701Y-26547D01*
X59701Y-29675D01*
X51597Y-29675D01*
X51762Y-29511D01*
X51900Y-29180D01*
X51900Y-28822D01*
X51763Y-28491D01*
X51511Y-28238D01*
X51180Y-28100D01*
X50822Y-28100D01*
X50491Y-28237D01*
X50325Y-28402D01*
X50325Y-21597D01*
X50489Y-21762D01*
X50820Y-21900D01*
X51178Y-21900D01*
X51509Y-21763D01*
X51762Y-21511D01*
X51900Y-21180D01*
X51900Y-20822D01*
X51763Y-20491D01*
X51597Y-20325D01*
X66402Y-20325D01*
X66238Y-20489D01*
X66100Y-20820D01*
X66100Y-21178D01*
X66237Y-21509D01*
X66489Y-21762D01*
X66820Y-21900D01*
X67178Y-21900D01*
X67509Y-21763D01*
X67675Y-21597D01*
X67675Y-28402D01*
X67675Y-28402D01*
G37*
G54D21*
X67675Y-28402D02*
X67515Y-28242D01*
X67515Y-27103D01*
X67515Y-26898D01*
X67437Y-26709D01*
X67292Y-26564D01*
X67138Y-26499D01*
X67291Y-26437D01*
X67436Y-26292D01*
X67515Y-26103D01*
X67515Y-25898D01*
X67515Y-24103D01*
X67515Y-23898D01*
X67437Y-23709D01*
X67292Y-23564D01*
X67138Y-23499D01*
X67291Y-23437D01*
X67436Y-23292D01*
X67515Y-23103D01*
X67515Y-22898D01*
X67437Y-22709D01*
X67292Y-22564D01*
X67103Y-22485D01*
X66898Y-22485D01*
X66709Y-22563D01*
X66564Y-22708D01*
X66550Y-22741D01*
X66525Y-22680D01*
X66424Y-22646D01*
X66354Y-22716D01*
X66354Y-22576D01*
X66320Y-22475D01*
X66095Y-22393D01*
X65856Y-22403D01*
X65680Y-22475D01*
X65646Y-22576D01*
X66000Y-22929D01*
X66354Y-22576D01*
X66354Y-22716D01*
X66071Y-23000D01*
X66000Y-23071D01*
X65929Y-23000D01*
X65894Y-22965D01*
X65576Y-22646D01*
X65475Y-22680D01*
X65393Y-22905D01*
X65403Y-23144D01*
X65475Y-23320D01*
X65522Y-23336D01*
X65487Y-23372D01*
X65525Y-23410D01*
X65494Y-23424D01*
X65424Y-23494D01*
X65386Y-23585D01*
X65386Y-23684D01*
X65386Y-24414D01*
X65424Y-24506D01*
X65494Y-24576D01*
X65585Y-24614D01*
X65684Y-24614D01*
X66414Y-24614D01*
X66506Y-24576D01*
X66576Y-24506D01*
X66614Y-24415D01*
X66614Y-24342D01*
X66708Y-24436D01*
X66897Y-24515D01*
X67102Y-24515D01*
X67291Y-24437D01*
X67436Y-24292D01*
X67515Y-24103D01*
X67515Y-25898D01*
X67437Y-25709D01*
X67292Y-25564D01*
X67103Y-25485D01*
X66898Y-25485D01*
X66709Y-25563D01*
X66564Y-25708D01*
X66554Y-25731D01*
X66521Y-25652D01*
X66349Y-25479D01*
X66123Y-25385D01*
X65878Y-25385D01*
X65652Y-25479D01*
X65479Y-25651D01*
X65385Y-25877D01*
X65385Y-26122D01*
X65479Y-26348D01*
X65536Y-26406D01*
X65494Y-26424D01*
X65424Y-26494D01*
X65386Y-26585D01*
X65386Y-26684D01*
X65386Y-27414D01*
X65424Y-27506D01*
X65494Y-27576D01*
X65585Y-27614D01*
X65684Y-27614D01*
X66414Y-27614D01*
X66506Y-27576D01*
X66576Y-27506D01*
X66614Y-27415D01*
X66614Y-27342D01*
X66708Y-27436D01*
X66897Y-27515D01*
X67102Y-27515D01*
X67291Y-27437D01*
X67436Y-27292D01*
X67515Y-27103D01*
X67515Y-28242D01*
X67511Y-28238D01*
X67180Y-28100D01*
X66822Y-28100D01*
X66491Y-28237D01*
X66238Y-28489D01*
X66100Y-28820D01*
X66100Y-29178D01*
X66237Y-29509D01*
X66402Y-29675D01*
X62472Y-29675D01*
X62472Y-25112D01*
X62472Y-24888D01*
X62471Y-24824D01*
X62471Y-24725D01*
X62433Y-24634D01*
X62363Y-24564D01*
X62271Y-24526D01*
X62209Y-24525D01*
X62147Y-24587D01*
X62147Y-24950D01*
X62410Y-24950D01*
X62472Y-24888D01*
X62472Y-25112D01*
X62410Y-25050D01*
X62147Y-25050D01*
X62147Y-25413D01*
X62209Y-25475D01*
X62271Y-25474D01*
X62363Y-25436D01*
X62433Y-25366D01*
X62471Y-25275D01*
X62471Y-25176D01*
X62472Y-25112D01*
X62472Y-29675D01*
X62047Y-29675D01*
X62047Y-25413D01*
X62047Y-25100D01*
X62047Y-25050D01*
X62047Y-24950D01*
X62047Y-24900D01*
X62047Y-24587D01*
X61985Y-24525D01*
X61923Y-24526D01*
X61831Y-24564D01*
X61797Y-24598D01*
X61763Y-24564D01*
X61672Y-24526D01*
X61573Y-24526D01*
X61323Y-24526D01*
X61231Y-24564D01*
X61161Y-24634D01*
X61137Y-24690D01*
X60187Y-24690D01*
X60090Y-24593D01*
X60097Y-24578D01*
X60097Y-24479D01*
X60097Y-23593D01*
X60060Y-23503D01*
X60060Y-23479D01*
X60036Y-23361D01*
X60036Y-23360D01*
X59969Y-23260D01*
X57692Y-20983D01*
X57592Y-20916D01*
X57473Y-20892D01*
X53715Y-20892D01*
X53596Y-20916D01*
X53496Y-20983D01*
X52023Y-22456D01*
X51956Y-22556D01*
X51932Y-22675D01*
X51932Y-25242D01*
X51956Y-25361D01*
X52023Y-25461D01*
X52913Y-26351D01*
X52901Y-26381D01*
X52901Y-26619D01*
X52992Y-26839D01*
X53067Y-26914D01*
X53009Y-26939D01*
X52939Y-27009D01*
X52901Y-27100D01*
X52901Y-27199D01*
X52901Y-27899D01*
X52939Y-27991D01*
X53009Y-28061D01*
X53100Y-28099D01*
X53199Y-28099D01*
X53899Y-28099D01*
X53991Y-28061D01*
X54061Y-27991D01*
X54085Y-27932D01*
X54161Y-28008D01*
X54381Y-28099D01*
X54619Y-28099D01*
X54839Y-28008D01*
X55008Y-27839D01*
X55099Y-27619D01*
X55099Y-27381D01*
X55008Y-27161D01*
X54847Y-27000D01*
X55008Y-26839D01*
X55010Y-26832D01*
X58750Y-26832D01*
X58869Y-26808D01*
X58969Y-26741D01*
X59036Y-26641D01*
X59047Y-26584D01*
X59103Y-26608D01*
X59139Y-26609D01*
X59201Y-26547D01*
X59201Y-25966D01*
X59200Y-25966D01*
X59200Y-25866D01*
X59201Y-25866D01*
X59201Y-25285D01*
X59139Y-25223D01*
X59103Y-25224D01*
X59011Y-25262D01*
X59000Y-25273D01*
X58989Y-25262D01*
X58898Y-25224D01*
X58799Y-25224D01*
X58603Y-25224D01*
X58547Y-25247D01*
X58536Y-25191D01*
X58469Y-25091D01*
X58369Y-25024D01*
X58348Y-25019D01*
X58380Y-24999D01*
X58469Y-24911D01*
X58469Y-24910D01*
X58536Y-24810D01*
X58547Y-24754D01*
X58602Y-24777D01*
X58701Y-24777D01*
X58897Y-24777D01*
X58989Y-24739D01*
X59000Y-24728D01*
X59011Y-24739D01*
X59102Y-24777D01*
X59201Y-24777D01*
X59397Y-24777D01*
X59452Y-24753D01*
X59464Y-24810D01*
X59531Y-24910D01*
X59839Y-25219D01*
X59840Y-25219D01*
X59854Y-25229D01*
X59799Y-25285D01*
X59799Y-25866D01*
X60036Y-25866D01*
X60098Y-25804D01*
X60097Y-25522D01*
X60097Y-25423D01*
X60059Y-25332D01*
X60031Y-25304D01*
X60058Y-25309D01*
X60059Y-25310D01*
X61137Y-25310D01*
X61161Y-25366D01*
X61231Y-25436D01*
X61322Y-25474D01*
X61421Y-25474D01*
X61671Y-25474D01*
X61763Y-25436D01*
X61797Y-25402D01*
X61831Y-25436D01*
X61923Y-25474D01*
X61985Y-25475D01*
X62047Y-25413D01*
X62047Y-29675D01*
X60098Y-29675D01*
X60098Y-26028D01*
X60036Y-25966D01*
X59799Y-25966D01*
X59799Y-26547D01*
X59861Y-26609D01*
X59897Y-26608D01*
X59989Y-26570D01*
X60059Y-26500D01*
X60097Y-26409D01*
X60097Y-26310D01*
X60098Y-26028D01*
X60098Y-29675D01*
X59701Y-29675D01*
X59701Y-26547D01*
X59701Y-25966D01*
X59701Y-25866D01*
X59701Y-25285D01*
X59639Y-25223D01*
X59603Y-25224D01*
X59511Y-25262D01*
X59500Y-25273D01*
X59489Y-25262D01*
X59397Y-25224D01*
X59361Y-25223D01*
X59299Y-25285D01*
X59299Y-25866D01*
X59464Y-25866D01*
X59536Y-25866D01*
X59701Y-25866D01*
X59701Y-25966D01*
X59536Y-25966D01*
X59464Y-25966D01*
X59299Y-25966D01*
X59299Y-26547D01*
X59361Y-26609D01*
X59397Y-26608D01*
X59489Y-26570D01*
X59500Y-26559D01*
X59511Y-26570D01*
X59603Y-26608D01*
X59639Y-26609D01*
X59701Y-26547D01*
X59701Y-29675D01*
X51597Y-29675D01*
X51762Y-29511D01*
X51900Y-29180D01*
X51900Y-28822D01*
X51763Y-28491D01*
X51511Y-28238D01*
X51180Y-28100D01*
X50822Y-28100D01*
X50491Y-28237D01*
X50325Y-28402D01*
X50325Y-21597D01*
X50489Y-21762D01*
X50820Y-21900D01*
X51178Y-21900D01*
X51509Y-21763D01*
X51762Y-21511D01*
X51900Y-21180D01*
X51900Y-20822D01*
X51763Y-20491D01*
X51597Y-20325D01*
X66402Y-20325D01*
X66238Y-20489D01*
X66100Y-20820D01*
X66100Y-21178D01*
X66237Y-21509D01*
X66489Y-21762D01*
X66820Y-21900D01*
X67178Y-21900D01*
X67509Y-21763D01*
X67675Y-21597D01*
X67675Y-28402D01*
M02*
