M48
;DRILL file {PCBnew (2011-07-19)-testing} date Tue 10 Jan 2012 02:33:02 PM PST
;FORMAT={2:4/ absolute / inch / suppress trailing zeros}
FMAT,2
INCH,LZ
T1C0.025
T2C0.040
T3C0.043
T4C0.120
%
G90
G05
M72
T1
X056194Y-026
T2
X0535Y-023
X0535Y-024
X0535Y-025
X0535Y-026
X0535Y-027
X0545Y-023
X0545Y-024
X0545Y-025
X0545Y-026
X0545Y-027
T3
X066Y-023
X066Y-024
X066Y-026
X066Y-027
X067Y-023
X067Y-024
X067Y-026
X067Y-027
T4
X051Y-021
X051Y-029
X067Y-021
X067Y-029
T0
M30
