G04 (created by PCBNEW-RS274X (2011-nov-30)-testing) date Thu 03 Jan 2013 06:38:46 PM PST*
%MOIN*%
G04 Gerber Fmt 3.4, Leading zero omitted, Abs format*
%FSLAX34Y34*%
G01*
G70*
G90*
G04 APERTURE LIST*
%ADD10C,0.006*%
%ADD11C,0.13*%
%ADD12R,0.25X0.05*%
%ADD13C,0.066*%
%ADD14C,0.055*%
%ADD15C,0.025*%
%ADD16C,0.01*%
G04 APERTURE END LIST*
G54D10*
G54D11*
X31000Y-21000D03*
X31000Y-29000D03*
X47000Y-29000D03*
X47000Y-21000D03*
G54D12*
X44402Y-26250D03*
X46398Y-25250D03*
X44402Y-24250D03*
X46398Y-23250D03*
G54D13*
X39500Y-25000D03*
X38500Y-25000D03*
G54D14*
X33024Y-23500D03*
X33024Y-26500D03*
G54D15*
X44402Y-26250D02*
X40750Y-26250D01*
X40750Y-26250D02*
X39500Y-25000D01*
X33024Y-23500D02*
X42503Y-23500D01*
X42753Y-23250D02*
X46398Y-23250D01*
X42503Y-23500D02*
X42753Y-23250D01*
X38500Y-25000D02*
X34524Y-25000D01*
X34524Y-25000D02*
X33024Y-26500D01*
G54D10*
G36*
X47675Y-28403D02*
X47510Y-28238D01*
X47180Y-28101D01*
X46822Y-28100D01*
X46491Y-28237D01*
X46238Y-28490D01*
X46101Y-28820D01*
X46100Y-29178D01*
X46237Y-29509D01*
X46403Y-29675D01*
X45901Y-29675D01*
X45901Y-26550D01*
X45901Y-26451D01*
X45901Y-25951D01*
X45863Y-25859D01*
X45793Y-25789D01*
X45702Y-25751D01*
X45603Y-25751D01*
X43103Y-25751D01*
X43011Y-25789D01*
X42941Y-25859D01*
X42934Y-25875D01*
X40905Y-25875D01*
X40080Y-25049D01*
X40080Y-24885D01*
X39992Y-24672D01*
X39829Y-24509D01*
X39616Y-24420D01*
X39385Y-24420D01*
X39172Y-24508D01*
X39009Y-24671D01*
X39000Y-24691D01*
X38992Y-24672D01*
X38829Y-24509D01*
X38616Y-24420D01*
X38385Y-24420D01*
X38172Y-24508D01*
X38055Y-24625D01*
X34524Y-24625D01*
X34380Y-24654D01*
X34259Y-24735D01*
X33554Y-25440D01*
X33554Y-23576D01*
X33542Y-23368D01*
X33484Y-23228D01*
X33392Y-23203D01*
X33321Y-23274D01*
X33321Y-23132D01*
X33296Y-23040D01*
X33100Y-22970D01*
X32892Y-22982D01*
X32752Y-23040D01*
X32727Y-23132D01*
X33024Y-23429D01*
X33321Y-23132D01*
X33321Y-23274D01*
X33095Y-23500D01*
X33392Y-23797D01*
X33484Y-23772D01*
X33554Y-23576D01*
X33554Y-25440D01*
X33321Y-25673D01*
X33321Y-23868D01*
X33024Y-23571D01*
X32953Y-23642D01*
X32953Y-23500D01*
X32656Y-23203D01*
X32564Y-23228D01*
X32494Y-23424D01*
X32506Y-23632D01*
X32564Y-23772D01*
X32656Y-23797D01*
X32953Y-23500D01*
X32953Y-23642D01*
X32727Y-23868D01*
X32752Y-23960D01*
X32948Y-24030D01*
X33156Y-24018D01*
X33296Y-23960D01*
X33321Y-23868D01*
X33321Y-25673D01*
X33019Y-25975D01*
X32920Y-25975D01*
X32727Y-26055D01*
X32579Y-26202D01*
X32499Y-26395D01*
X32499Y-26604D01*
X32579Y-26797D01*
X32726Y-26945D01*
X32919Y-27025D01*
X33128Y-27025D01*
X33321Y-26945D01*
X33469Y-26798D01*
X33549Y-26605D01*
X33549Y-26505D01*
X34679Y-25375D01*
X38055Y-25375D01*
X38171Y-25491D01*
X38384Y-25580D01*
X38615Y-25580D01*
X38828Y-25492D01*
X38991Y-25329D01*
X38999Y-25308D01*
X39008Y-25328D01*
X39171Y-25491D01*
X39384Y-25580D01*
X39549Y-25580D01*
X40484Y-26515D01*
X40485Y-26515D01*
X40545Y-26555D01*
X40606Y-26596D01*
X40607Y-26596D01*
X40749Y-26624D01*
X40750Y-26625D01*
X42934Y-26625D01*
X42941Y-26641D01*
X43011Y-26711D01*
X43102Y-26749D01*
X43201Y-26749D01*
X45701Y-26749D01*
X45793Y-26711D01*
X45863Y-26641D01*
X45901Y-26550D01*
X45901Y-29675D01*
X31597Y-29675D01*
X31762Y-29510D01*
X31899Y-29180D01*
X31900Y-28822D01*
X31763Y-28491D01*
X31510Y-28238D01*
X31180Y-28101D01*
X30822Y-28100D01*
X30491Y-28237D01*
X30325Y-28403D01*
X30325Y-21597D01*
X30490Y-21762D01*
X30820Y-21899D01*
X31178Y-21900D01*
X31509Y-21763D01*
X31762Y-21510D01*
X31899Y-21180D01*
X31900Y-20822D01*
X31763Y-20491D01*
X31597Y-20325D01*
X46403Y-20325D01*
X46238Y-20490D01*
X46101Y-20820D01*
X46100Y-21178D01*
X46237Y-21509D01*
X46490Y-21762D01*
X46820Y-21899D01*
X47178Y-21900D01*
X47509Y-21763D01*
X47675Y-21597D01*
X47675Y-22751D01*
X47599Y-22751D01*
X46510Y-22750D01*
X46448Y-22812D01*
X46448Y-23150D01*
X46448Y-23200D01*
X46448Y-23300D01*
X46448Y-23350D01*
X46448Y-23688D01*
X46510Y-23750D01*
X47599Y-23749D01*
X47675Y-23749D01*
X47675Y-24751D01*
X47599Y-24751D01*
X46348Y-24751D01*
X46348Y-23688D01*
X46348Y-23300D01*
X46348Y-23200D01*
X46348Y-22812D01*
X46286Y-22750D01*
X45197Y-22751D01*
X45098Y-22751D01*
X45007Y-22789D01*
X44937Y-22859D01*
X44899Y-22951D01*
X44898Y-23138D01*
X44960Y-23200D01*
X46348Y-23200D01*
X46348Y-23300D01*
X44960Y-23300D01*
X44898Y-23362D01*
X44899Y-23549D01*
X44937Y-23641D01*
X45007Y-23711D01*
X45098Y-23749D01*
X45197Y-23749D01*
X46286Y-23750D01*
X46348Y-23688D01*
X46348Y-24751D01*
X45901Y-24751D01*
X45901Y-24550D01*
X45901Y-24451D01*
X45901Y-23951D01*
X45863Y-23859D01*
X45793Y-23789D01*
X45702Y-23751D01*
X45603Y-23751D01*
X43103Y-23751D01*
X43011Y-23789D01*
X42941Y-23859D01*
X42903Y-23950D01*
X42903Y-24049D01*
X42903Y-24549D01*
X42941Y-24641D01*
X43011Y-24711D01*
X43102Y-24749D01*
X43201Y-24749D01*
X45701Y-24749D01*
X45793Y-24711D01*
X45863Y-24641D01*
X45901Y-24550D01*
X45901Y-24751D01*
X45099Y-24751D01*
X45007Y-24789D01*
X44937Y-24859D01*
X44899Y-24950D01*
X44899Y-25049D01*
X44899Y-25549D01*
X44937Y-25641D01*
X45007Y-25711D01*
X45098Y-25749D01*
X45197Y-25749D01*
X47675Y-25749D01*
X47675Y-28403D01*
X47675Y-28403D01*
G37*
G54D16*
X47675Y-28403D02*
X47510Y-28238D01*
X47180Y-28101D01*
X46822Y-28100D01*
X46491Y-28237D01*
X46238Y-28490D01*
X46101Y-28820D01*
X46100Y-29178D01*
X46237Y-29509D01*
X46403Y-29675D01*
X45901Y-29675D01*
X45901Y-26550D01*
X45901Y-26451D01*
X45901Y-25951D01*
X45863Y-25859D01*
X45793Y-25789D01*
X45702Y-25751D01*
X45603Y-25751D01*
X43103Y-25751D01*
X43011Y-25789D01*
X42941Y-25859D01*
X42934Y-25875D01*
X40905Y-25875D01*
X40080Y-25049D01*
X40080Y-24885D01*
X39992Y-24672D01*
X39829Y-24509D01*
X39616Y-24420D01*
X39385Y-24420D01*
X39172Y-24508D01*
X39009Y-24671D01*
X39000Y-24691D01*
X38992Y-24672D01*
X38829Y-24509D01*
X38616Y-24420D01*
X38385Y-24420D01*
X38172Y-24508D01*
X38055Y-24625D01*
X34524Y-24625D01*
X34380Y-24654D01*
X34259Y-24735D01*
X33554Y-25440D01*
X33554Y-23576D01*
X33542Y-23368D01*
X33484Y-23228D01*
X33392Y-23203D01*
X33321Y-23274D01*
X33321Y-23132D01*
X33296Y-23040D01*
X33100Y-22970D01*
X32892Y-22982D01*
X32752Y-23040D01*
X32727Y-23132D01*
X33024Y-23429D01*
X33321Y-23132D01*
X33321Y-23274D01*
X33095Y-23500D01*
X33392Y-23797D01*
X33484Y-23772D01*
X33554Y-23576D01*
X33554Y-25440D01*
X33321Y-25673D01*
X33321Y-23868D01*
X33024Y-23571D01*
X32953Y-23642D01*
X32953Y-23500D01*
X32656Y-23203D01*
X32564Y-23228D01*
X32494Y-23424D01*
X32506Y-23632D01*
X32564Y-23772D01*
X32656Y-23797D01*
X32953Y-23500D01*
X32953Y-23642D01*
X32727Y-23868D01*
X32752Y-23960D01*
X32948Y-24030D01*
X33156Y-24018D01*
X33296Y-23960D01*
X33321Y-23868D01*
X33321Y-25673D01*
X33019Y-25975D01*
X32920Y-25975D01*
X32727Y-26055D01*
X32579Y-26202D01*
X32499Y-26395D01*
X32499Y-26604D01*
X32579Y-26797D01*
X32726Y-26945D01*
X32919Y-27025D01*
X33128Y-27025D01*
X33321Y-26945D01*
X33469Y-26798D01*
X33549Y-26605D01*
X33549Y-26505D01*
X34679Y-25375D01*
X38055Y-25375D01*
X38171Y-25491D01*
X38384Y-25580D01*
X38615Y-25580D01*
X38828Y-25492D01*
X38991Y-25329D01*
X38999Y-25308D01*
X39008Y-25328D01*
X39171Y-25491D01*
X39384Y-25580D01*
X39549Y-25580D01*
X40484Y-26515D01*
X40485Y-26515D01*
X40545Y-26555D01*
X40606Y-26596D01*
X40607Y-26596D01*
X40749Y-26624D01*
X40750Y-26625D01*
X42934Y-26625D01*
X42941Y-26641D01*
X43011Y-26711D01*
X43102Y-26749D01*
X43201Y-26749D01*
X45701Y-26749D01*
X45793Y-26711D01*
X45863Y-26641D01*
X45901Y-26550D01*
X45901Y-29675D01*
X31597Y-29675D01*
X31762Y-29510D01*
X31899Y-29180D01*
X31900Y-28822D01*
X31763Y-28491D01*
X31510Y-28238D01*
X31180Y-28101D01*
X30822Y-28100D01*
X30491Y-28237D01*
X30325Y-28403D01*
X30325Y-21597D01*
X30490Y-21762D01*
X30820Y-21899D01*
X31178Y-21900D01*
X31509Y-21763D01*
X31762Y-21510D01*
X31899Y-21180D01*
X31900Y-20822D01*
X31763Y-20491D01*
X31597Y-20325D01*
X46403Y-20325D01*
X46238Y-20490D01*
X46101Y-20820D01*
X46100Y-21178D01*
X46237Y-21509D01*
X46490Y-21762D01*
X46820Y-21899D01*
X47178Y-21900D01*
X47509Y-21763D01*
X47675Y-21597D01*
X47675Y-22751D01*
X47599Y-22751D01*
X46510Y-22750D01*
X46448Y-22812D01*
X46448Y-23150D01*
X46448Y-23200D01*
X46448Y-23300D01*
X46448Y-23350D01*
X46448Y-23688D01*
X46510Y-23750D01*
X47599Y-23749D01*
X47675Y-23749D01*
X47675Y-24751D01*
X47599Y-24751D01*
X46348Y-24751D01*
X46348Y-23688D01*
X46348Y-23300D01*
X46348Y-23200D01*
X46348Y-22812D01*
X46286Y-22750D01*
X45197Y-22751D01*
X45098Y-22751D01*
X45007Y-22789D01*
X44937Y-22859D01*
X44899Y-22951D01*
X44898Y-23138D01*
X44960Y-23200D01*
X46348Y-23200D01*
X46348Y-23300D01*
X44960Y-23300D01*
X44898Y-23362D01*
X44899Y-23549D01*
X44937Y-23641D01*
X45007Y-23711D01*
X45098Y-23749D01*
X45197Y-23749D01*
X46286Y-23750D01*
X46348Y-23688D01*
X46348Y-24751D01*
X45901Y-24751D01*
X45901Y-24550D01*
X45901Y-24451D01*
X45901Y-23951D01*
X45863Y-23859D01*
X45793Y-23789D01*
X45702Y-23751D01*
X45603Y-23751D01*
X43103Y-23751D01*
X43011Y-23789D01*
X42941Y-23859D01*
X42903Y-23950D01*
X42903Y-24049D01*
X42903Y-24549D01*
X42941Y-24641D01*
X43011Y-24711D01*
X43102Y-24749D01*
X43201Y-24749D01*
X45701Y-24749D01*
X45793Y-24711D01*
X45863Y-24641D01*
X45901Y-24550D01*
X45901Y-24751D01*
X45099Y-24751D01*
X45007Y-24789D01*
X44937Y-24859D01*
X44899Y-24950D01*
X44899Y-25049D01*
X44899Y-25549D01*
X44937Y-25641D01*
X45007Y-25711D01*
X45098Y-25749D01*
X45197Y-25749D01*
X47675Y-25749D01*
X47675Y-28403D01*
M02*
