G04 (created by PCBNEW-RS274X (2011-07-19)-testing) date Mon 24 Oct 2011 06:11:12 PM PDT*
G01*
G70*
G90*
%MOIN*%
G04 Gerber Fmt 3.4, Leading zero omitted, Abs format*
%FSLAX34Y34*%
G04 APERTURE LIST*
%ADD10C,0.006000*%
%ADD11C,0.130000*%
%ADD12R,0.070000X0.070000*%
%ADD13C,0.070000*%
%ADD14C,0.073000*%
%ADD15R,0.073000X0.073000*%
%ADD16C,0.053000*%
%ADD17C,0.035000*%
%ADD18C,0.012000*%
%ADD19C,0.010000*%
G04 APERTURE END LIST*
G54D10*
G54D11*
X67000Y-21000D03*
X51000Y-21000D03*
X67000Y-29000D03*
X51000Y-29000D03*
G54D12*
X53500Y-27500D03*
G54D13*
X54500Y-27500D03*
X53500Y-26500D03*
X54500Y-26500D03*
X53500Y-25500D03*
X54500Y-25500D03*
X53500Y-24500D03*
X54500Y-24500D03*
X53500Y-23500D03*
X54500Y-23500D03*
X53500Y-22500D03*
X54500Y-22500D03*
G54D14*
X66000Y-23000D03*
G54D15*
X66000Y-24000D03*
G54D16*
X67000Y-24000D03*
X67000Y-23000D03*
G54D14*
X66000Y-26000D03*
G54D15*
X66000Y-27000D03*
G54D16*
X67000Y-27000D03*
X67000Y-26000D03*
G54D17*
X57220Y-24780D03*
G54D18*
X66000Y-27000D02*
X65472Y-27000D01*
X54558Y-24442D02*
X54500Y-24500D01*
X62914Y-24442D02*
X54558Y-24442D01*
X65472Y-27000D02*
X62914Y-24442D01*
X63500Y-23500D02*
X66000Y-26000D01*
X54500Y-23500D02*
X63500Y-23500D01*
X63972Y-22500D02*
X54500Y-22500D01*
X65472Y-24000D02*
X63972Y-22500D01*
X66000Y-24000D02*
X65472Y-24000D01*
X54500Y-27500D02*
X57220Y-24780D01*
X52984Y-23984D02*
X53500Y-24500D01*
X52984Y-22022D02*
X52984Y-23984D01*
X53020Y-21986D02*
X52984Y-22022D01*
X64986Y-21986D02*
X53020Y-21986D01*
X66000Y-23000D02*
X64986Y-21986D01*
G54D10*
G36*
X67675Y-28402D02*
X67515Y-28242D01*
X67515Y-27103D01*
X67515Y-26898D01*
X67437Y-26709D01*
X67292Y-26564D01*
X67138Y-26499D01*
X67291Y-26437D01*
X67436Y-26292D01*
X67515Y-26103D01*
X67515Y-25898D01*
X67437Y-25709D01*
X67292Y-25564D01*
X67103Y-25485D01*
X66898Y-25485D01*
X66709Y-25563D01*
X66564Y-25708D01*
X66554Y-25731D01*
X66521Y-25652D01*
X66349Y-25479D01*
X66123Y-25385D01*
X65878Y-25385D01*
X65839Y-25400D01*
X63719Y-23281D01*
X63619Y-23214D01*
X63500Y-23190D01*
X55019Y-23190D01*
X55008Y-23161D01*
X54847Y-23000D01*
X55008Y-22839D01*
X55019Y-22810D01*
X63844Y-22810D01*
X65253Y-24219D01*
X65353Y-24286D01*
X65354Y-24286D01*
X65386Y-24292D01*
X65386Y-24414D01*
X65424Y-24506D01*
X65494Y-24576D01*
X65585Y-24614D01*
X65684Y-24614D01*
X66414Y-24614D01*
X66506Y-24576D01*
X66576Y-24506D01*
X66614Y-24415D01*
X66614Y-24342D01*
X66708Y-24436D01*
X66897Y-24515D01*
X67102Y-24515D01*
X67291Y-24437D01*
X67436Y-24292D01*
X67515Y-24103D01*
X67515Y-23898D01*
X67437Y-23709D01*
X67292Y-23564D01*
X67138Y-23499D01*
X67291Y-23437D01*
X67436Y-23292D01*
X67515Y-23103D01*
X67515Y-22898D01*
X67437Y-22709D01*
X67292Y-22564D01*
X67103Y-22485D01*
X66898Y-22485D01*
X66709Y-22563D01*
X66564Y-22708D01*
X66550Y-22741D01*
X66525Y-22680D01*
X66424Y-22646D01*
X66354Y-22716D01*
X66354Y-22576D01*
X66320Y-22475D01*
X66095Y-22393D01*
X65856Y-22403D01*
X65680Y-22475D01*
X65646Y-22576D01*
X66000Y-22929D01*
X66354Y-22576D01*
X66354Y-22716D01*
X66071Y-23000D01*
X66000Y-23071D01*
X65929Y-23000D01*
X65894Y-22965D01*
X65576Y-22646D01*
X65475Y-22680D01*
X65393Y-22905D01*
X65403Y-23144D01*
X65475Y-23320D01*
X65522Y-23336D01*
X65487Y-23372D01*
X65525Y-23410D01*
X65494Y-23424D01*
X65424Y-23494D01*
X65418Y-23508D01*
X64191Y-22281D01*
X64091Y-22214D01*
X63972Y-22190D01*
X55019Y-22190D01*
X55008Y-22161D01*
X54839Y-21992D01*
X54619Y-21901D01*
X54381Y-21901D01*
X54161Y-21992D01*
X54000Y-22153D01*
X53839Y-21992D01*
X53619Y-21901D01*
X53381Y-21901D01*
X53161Y-21992D01*
X52992Y-22161D01*
X52901Y-22381D01*
X52901Y-22619D01*
X52992Y-22839D01*
X53153Y-23000D01*
X52992Y-23161D01*
X52901Y-23381D01*
X52901Y-23619D01*
X52992Y-23839D01*
X53161Y-24008D01*
X53180Y-24015D01*
X53157Y-24086D01*
X53500Y-24429D01*
X53843Y-24086D01*
X53819Y-24015D01*
X53839Y-24008D01*
X54000Y-23847D01*
X54153Y-24000D01*
X53992Y-24161D01*
X53984Y-24180D01*
X53914Y-24157D01*
X53571Y-24500D01*
X53914Y-24843D01*
X53984Y-24819D01*
X53992Y-24839D01*
X54153Y-25000D01*
X54000Y-25153D01*
X53839Y-24992D01*
X53819Y-24984D01*
X53843Y-24914D01*
X53500Y-24571D01*
X53429Y-24642D01*
X53429Y-24500D01*
X53086Y-24157D01*
X52987Y-24190D01*
X52907Y-24409D01*
X52918Y-24644D01*
X52987Y-24810D01*
X53086Y-24843D01*
X53429Y-24500D01*
X53429Y-24642D01*
X53157Y-24914D01*
X53180Y-24984D01*
X53161Y-24992D01*
X52992Y-25161D01*
X52901Y-25381D01*
X52901Y-25619D01*
X52992Y-25839D01*
X53153Y-26000D01*
X52992Y-26161D01*
X52901Y-26381D01*
X52901Y-26619D01*
X52992Y-26839D01*
X53067Y-26914D01*
X53009Y-26939D01*
X52939Y-27009D01*
X52901Y-27100D01*
X52901Y-27199D01*
X52901Y-27899D01*
X52939Y-27991D01*
X53009Y-28061D01*
X53100Y-28099D01*
X53199Y-28099D01*
X53899Y-28099D01*
X53991Y-28061D01*
X54061Y-27991D01*
X54085Y-27932D01*
X54161Y-28008D01*
X54381Y-28099D01*
X54619Y-28099D01*
X54839Y-28008D01*
X55008Y-27839D01*
X55099Y-27619D01*
X55099Y-27381D01*
X55086Y-27351D01*
X57233Y-25205D01*
X57304Y-25205D01*
X57460Y-25141D01*
X57580Y-25021D01*
X57645Y-24865D01*
X57645Y-24752D01*
X62785Y-24752D01*
X65252Y-27219D01*
X65253Y-27219D01*
X65303Y-27252D01*
X65353Y-27286D01*
X65354Y-27286D01*
X65386Y-27292D01*
X65386Y-27414D01*
X65424Y-27506D01*
X65494Y-27576D01*
X65585Y-27614D01*
X65684Y-27614D01*
X66414Y-27614D01*
X66506Y-27576D01*
X66576Y-27506D01*
X66614Y-27415D01*
X66614Y-27342D01*
X66708Y-27436D01*
X66897Y-27515D01*
X67102Y-27515D01*
X67291Y-27437D01*
X67436Y-27292D01*
X67515Y-27103D01*
X67515Y-28242D01*
X67511Y-28238D01*
X67180Y-28100D01*
X66822Y-28100D01*
X66491Y-28237D01*
X66238Y-28489D01*
X66100Y-28820D01*
X66100Y-29178D01*
X66237Y-29509D01*
X66402Y-29675D01*
X51597Y-29675D01*
X51762Y-29511D01*
X51900Y-29180D01*
X51900Y-28822D01*
X51763Y-28491D01*
X51511Y-28238D01*
X51180Y-28100D01*
X50822Y-28100D01*
X50491Y-28237D01*
X50325Y-28402D01*
X50325Y-21597D01*
X50489Y-21762D01*
X50820Y-21900D01*
X51178Y-21900D01*
X51509Y-21763D01*
X51762Y-21511D01*
X51900Y-21180D01*
X51900Y-20822D01*
X51763Y-20491D01*
X51597Y-20325D01*
X66402Y-20325D01*
X66238Y-20489D01*
X66100Y-20820D01*
X66100Y-21178D01*
X66237Y-21509D01*
X66489Y-21762D01*
X66820Y-21900D01*
X67178Y-21900D01*
X67509Y-21763D01*
X67675Y-21597D01*
X67675Y-28402D01*
X67675Y-28402D01*
G37*
G54D19*
X67675Y-28402D02*
X67515Y-28242D01*
X67515Y-27103D01*
X67515Y-26898D01*
X67437Y-26709D01*
X67292Y-26564D01*
X67138Y-26499D01*
X67291Y-26437D01*
X67436Y-26292D01*
X67515Y-26103D01*
X67515Y-25898D01*
X67437Y-25709D01*
X67292Y-25564D01*
X67103Y-25485D01*
X66898Y-25485D01*
X66709Y-25563D01*
X66564Y-25708D01*
X66554Y-25731D01*
X66521Y-25652D01*
X66349Y-25479D01*
X66123Y-25385D01*
X65878Y-25385D01*
X65839Y-25400D01*
X63719Y-23281D01*
X63619Y-23214D01*
X63500Y-23190D01*
X55019Y-23190D01*
X55008Y-23161D01*
X54847Y-23000D01*
X55008Y-22839D01*
X55019Y-22810D01*
X63844Y-22810D01*
X65253Y-24219D01*
X65353Y-24286D01*
X65354Y-24286D01*
X65386Y-24292D01*
X65386Y-24414D01*
X65424Y-24506D01*
X65494Y-24576D01*
X65585Y-24614D01*
X65684Y-24614D01*
X66414Y-24614D01*
X66506Y-24576D01*
X66576Y-24506D01*
X66614Y-24415D01*
X66614Y-24342D01*
X66708Y-24436D01*
X66897Y-24515D01*
X67102Y-24515D01*
X67291Y-24437D01*
X67436Y-24292D01*
X67515Y-24103D01*
X67515Y-23898D01*
X67437Y-23709D01*
X67292Y-23564D01*
X67138Y-23499D01*
X67291Y-23437D01*
X67436Y-23292D01*
X67515Y-23103D01*
X67515Y-22898D01*
X67437Y-22709D01*
X67292Y-22564D01*
X67103Y-22485D01*
X66898Y-22485D01*
X66709Y-22563D01*
X66564Y-22708D01*
X66550Y-22741D01*
X66525Y-22680D01*
X66424Y-22646D01*
X66354Y-22716D01*
X66354Y-22576D01*
X66320Y-22475D01*
X66095Y-22393D01*
X65856Y-22403D01*
X65680Y-22475D01*
X65646Y-22576D01*
X66000Y-22929D01*
X66354Y-22576D01*
X66354Y-22716D01*
X66071Y-23000D01*
X66000Y-23071D01*
X65929Y-23000D01*
X65894Y-22965D01*
X65576Y-22646D01*
X65475Y-22680D01*
X65393Y-22905D01*
X65403Y-23144D01*
X65475Y-23320D01*
X65522Y-23336D01*
X65487Y-23372D01*
X65525Y-23410D01*
X65494Y-23424D01*
X65424Y-23494D01*
X65418Y-23508D01*
X64191Y-22281D01*
X64091Y-22214D01*
X63972Y-22190D01*
X55019Y-22190D01*
X55008Y-22161D01*
X54839Y-21992D01*
X54619Y-21901D01*
X54381Y-21901D01*
X54161Y-21992D01*
X54000Y-22153D01*
X53839Y-21992D01*
X53619Y-21901D01*
X53381Y-21901D01*
X53161Y-21992D01*
X52992Y-22161D01*
X52901Y-22381D01*
X52901Y-22619D01*
X52992Y-22839D01*
X53153Y-23000D01*
X52992Y-23161D01*
X52901Y-23381D01*
X52901Y-23619D01*
X52992Y-23839D01*
X53161Y-24008D01*
X53180Y-24015D01*
X53157Y-24086D01*
X53500Y-24429D01*
X53843Y-24086D01*
X53819Y-24015D01*
X53839Y-24008D01*
X54000Y-23847D01*
X54153Y-24000D01*
X53992Y-24161D01*
X53984Y-24180D01*
X53914Y-24157D01*
X53571Y-24500D01*
X53914Y-24843D01*
X53984Y-24819D01*
X53992Y-24839D01*
X54153Y-25000D01*
X54000Y-25153D01*
X53839Y-24992D01*
X53819Y-24984D01*
X53843Y-24914D01*
X53500Y-24571D01*
X53429Y-24642D01*
X53429Y-24500D01*
X53086Y-24157D01*
X52987Y-24190D01*
X52907Y-24409D01*
X52918Y-24644D01*
X52987Y-24810D01*
X53086Y-24843D01*
X53429Y-24500D01*
X53429Y-24642D01*
X53157Y-24914D01*
X53180Y-24984D01*
X53161Y-24992D01*
X52992Y-25161D01*
X52901Y-25381D01*
X52901Y-25619D01*
X52992Y-25839D01*
X53153Y-26000D01*
X52992Y-26161D01*
X52901Y-26381D01*
X52901Y-26619D01*
X52992Y-26839D01*
X53067Y-26914D01*
X53009Y-26939D01*
X52939Y-27009D01*
X52901Y-27100D01*
X52901Y-27199D01*
X52901Y-27899D01*
X52939Y-27991D01*
X53009Y-28061D01*
X53100Y-28099D01*
X53199Y-28099D01*
X53899Y-28099D01*
X53991Y-28061D01*
X54061Y-27991D01*
X54085Y-27932D01*
X54161Y-28008D01*
X54381Y-28099D01*
X54619Y-28099D01*
X54839Y-28008D01*
X55008Y-27839D01*
X55099Y-27619D01*
X55099Y-27381D01*
X55086Y-27351D01*
X57233Y-25205D01*
X57304Y-25205D01*
X57460Y-25141D01*
X57580Y-25021D01*
X57645Y-24865D01*
X57645Y-24752D01*
X62785Y-24752D01*
X65252Y-27219D01*
X65253Y-27219D01*
X65303Y-27252D01*
X65353Y-27286D01*
X65354Y-27286D01*
X65386Y-27292D01*
X65386Y-27414D01*
X65424Y-27506D01*
X65494Y-27576D01*
X65585Y-27614D01*
X65684Y-27614D01*
X66414Y-27614D01*
X66506Y-27576D01*
X66576Y-27506D01*
X66614Y-27415D01*
X66614Y-27342D01*
X66708Y-27436D01*
X66897Y-27515D01*
X67102Y-27515D01*
X67291Y-27437D01*
X67436Y-27292D01*
X67515Y-27103D01*
X67515Y-28242D01*
X67511Y-28238D01*
X67180Y-28100D01*
X66822Y-28100D01*
X66491Y-28237D01*
X66238Y-28489D01*
X66100Y-28820D01*
X66100Y-29178D01*
X66237Y-29509D01*
X66402Y-29675D01*
X51597Y-29675D01*
X51762Y-29511D01*
X51900Y-29180D01*
X51900Y-28822D01*
X51763Y-28491D01*
X51511Y-28238D01*
X51180Y-28100D01*
X50822Y-28100D01*
X50491Y-28237D01*
X50325Y-28402D01*
X50325Y-21597D01*
X50489Y-21762D01*
X50820Y-21900D01*
X51178Y-21900D01*
X51509Y-21763D01*
X51762Y-21511D01*
X51900Y-21180D01*
X51900Y-20822D01*
X51763Y-20491D01*
X51597Y-20325D01*
X66402Y-20325D01*
X66238Y-20489D01*
X66100Y-20820D01*
X66100Y-21178D01*
X66237Y-21509D01*
X66489Y-21762D01*
X66820Y-21900D01*
X67178Y-21900D01*
X67509Y-21763D01*
X67675Y-21597D01*
X67675Y-28402D01*
M02*
