M48
;DRILL file {PCBnew (2011-07-19)-testing} date Mon 24 Oct 2011 05:53:07 PM PDT
;FORMAT={2:4/ absolute / inch / suppress trailing zeros}
FMAT,2
INCH,LZ
T1C0.025
T2C0.040
T3C0.043
T4C0.120
%
G90
G05
M72
T1
X05722Y-02478
T2
X0535Y-0225
X0535Y-0235
X0535Y-0245
X0535Y-0255
X0535Y-0265
X0535Y-0275
X0545Y-0225
X0545Y-0235
X0545Y-0245
X0545Y-0255
X0545Y-0265
X0545Y-0275
T3
X066Y-023
X066Y-024
X066Y-026
X066Y-027
X067Y-023
X067Y-024
X067Y-026
X067Y-027
T4
X051Y-021
X051Y-029
X067Y-021
X067Y-029
T0
M30
