G04 (created by PCBNEW-RS274X (2011-07-19)-testing) date Mon 24 Oct 2011 06:11:12 PM PDT*
G01*
G70*
G90*
%MOIN*%
G04 Gerber Fmt 3.4, Leading zero omitted, Abs format*
%FSLAX34Y34*%
G04 APERTURE LIST*
%ADD10C,0.006000*%
%ADD11C,0.012000*%
%ADD12C,0.015000*%
%ADD13C,0.005000*%
%ADD14C,0.009800*%
%ADD15C,0.004500*%
G04 APERTURE END LIST*
G54D10*
G54D11*
X57437Y-29379D02*
X57437Y-28579D01*
X57837Y-28579D02*
X57951Y-28579D01*
X58009Y-28617D01*
X58066Y-28693D01*
X58094Y-28845D01*
X58094Y-29112D01*
X58066Y-29265D01*
X58009Y-29341D01*
X57951Y-29379D01*
X57837Y-29379D01*
X57780Y-29341D01*
X57723Y-29265D01*
X57694Y-29112D01*
X57694Y-28845D01*
X57723Y-28693D01*
X57780Y-28617D01*
X57837Y-28579D01*
X59152Y-29379D02*
X58952Y-28998D01*
X58809Y-29379D02*
X58809Y-28579D01*
X59037Y-28579D01*
X59095Y-28617D01*
X59123Y-28655D01*
X59152Y-28731D01*
X59152Y-28845D01*
X59123Y-28922D01*
X59095Y-28960D01*
X59037Y-28998D01*
X58809Y-28998D01*
X59495Y-29379D02*
X59437Y-29341D01*
X59409Y-29303D01*
X59380Y-29226D01*
X59380Y-28998D01*
X59409Y-28922D01*
X59437Y-28884D01*
X59495Y-28845D01*
X59580Y-28845D01*
X59637Y-28884D01*
X59666Y-28922D01*
X59695Y-28998D01*
X59695Y-29226D01*
X59666Y-29303D01*
X59637Y-29341D01*
X59580Y-29379D01*
X59495Y-29379D01*
X60209Y-29379D02*
X60209Y-28579D01*
X60209Y-29341D02*
X60152Y-29379D01*
X60038Y-29379D01*
X59980Y-29341D01*
X59952Y-29303D01*
X59923Y-29226D01*
X59923Y-28998D01*
X59952Y-28922D01*
X59980Y-28884D01*
X60038Y-28845D01*
X60152Y-28845D01*
X60209Y-28884D01*
X60723Y-29341D02*
X60666Y-29379D01*
X60552Y-29379D01*
X60495Y-29341D01*
X60466Y-29265D01*
X60466Y-28960D01*
X60495Y-28884D01*
X60552Y-28845D01*
X60666Y-28845D01*
X60723Y-28884D01*
X60752Y-28960D01*
X60752Y-29036D01*
X60466Y-29112D01*
X61095Y-29379D02*
X61037Y-29341D01*
X61009Y-29303D01*
X60980Y-29226D01*
X60980Y-28998D01*
X61009Y-28922D01*
X61037Y-28884D01*
X61095Y-28845D01*
X61180Y-28845D01*
X61237Y-28884D01*
X61266Y-28922D01*
X61295Y-28998D01*
X61295Y-29226D01*
X61266Y-29303D01*
X61237Y-29341D01*
X61180Y-29379D01*
X61095Y-29379D01*
X62009Y-29379D02*
X62009Y-28579D01*
X62295Y-28845D02*
X62295Y-29379D01*
X62295Y-28922D02*
X62323Y-28884D01*
X62381Y-28845D01*
X62466Y-28845D01*
X62523Y-28884D01*
X62552Y-28960D01*
X62552Y-29379D01*
X63095Y-29341D02*
X63038Y-29379D01*
X62924Y-29379D01*
X62866Y-29341D01*
X62838Y-29303D01*
X62809Y-29226D01*
X62809Y-28998D01*
X62838Y-28922D01*
X62866Y-28884D01*
X62924Y-28845D01*
X63038Y-28845D01*
X63095Y-28884D01*
X63352Y-29303D02*
X63380Y-29341D01*
X63352Y-29379D01*
X63323Y-29341D01*
X63352Y-29303D01*
X63352Y-29379D01*
X55544Y-21505D02*
X55344Y-21124D01*
X55201Y-21505D02*
X55201Y-20705D01*
X55429Y-20705D01*
X55487Y-20743D01*
X55515Y-20781D01*
X55544Y-20857D01*
X55544Y-20971D01*
X55515Y-21048D01*
X55487Y-21086D01*
X55429Y-21124D01*
X55201Y-21124D01*
X56115Y-20743D02*
X56058Y-20705D01*
X55972Y-20705D01*
X55887Y-20743D01*
X55829Y-20819D01*
X55801Y-20895D01*
X55772Y-21048D01*
X55772Y-21162D01*
X55801Y-21314D01*
X55829Y-21391D01*
X55887Y-21467D01*
X55972Y-21505D01*
X56029Y-21505D01*
X56115Y-21467D01*
X56144Y-21429D01*
X56144Y-21162D01*
X56029Y-21162D01*
X56601Y-21086D02*
X56687Y-21124D01*
X56715Y-21162D01*
X56744Y-21238D01*
X56744Y-21352D01*
X56715Y-21429D01*
X56687Y-21467D01*
X56629Y-21505D01*
X56401Y-21505D01*
X56401Y-20705D01*
X56601Y-20705D01*
X56658Y-20743D01*
X56687Y-20781D01*
X56715Y-20857D01*
X56715Y-20933D01*
X56687Y-21010D01*
X56658Y-21048D01*
X56601Y-21086D01*
X56401Y-21086D01*
X57429Y-21467D02*
X57486Y-21505D01*
X57601Y-21505D01*
X57658Y-21467D01*
X57686Y-21391D01*
X57686Y-21352D01*
X57658Y-21276D01*
X57601Y-21238D01*
X57515Y-21238D01*
X57458Y-21200D01*
X57429Y-21124D01*
X57429Y-21086D01*
X57458Y-21010D01*
X57515Y-20971D01*
X57601Y-20971D01*
X57658Y-21010D01*
X58172Y-21467D02*
X58115Y-21505D01*
X58001Y-21505D01*
X57944Y-21467D01*
X57915Y-21391D01*
X57915Y-21086D01*
X57944Y-21010D01*
X58001Y-20971D01*
X58115Y-20971D01*
X58172Y-21010D01*
X58201Y-21086D01*
X58201Y-21162D01*
X57915Y-21238D01*
X58458Y-20971D02*
X58458Y-21505D01*
X58458Y-21048D02*
X58486Y-21010D01*
X58544Y-20971D01*
X58629Y-20971D01*
X58686Y-21010D01*
X58715Y-21086D01*
X58715Y-21505D01*
X58972Y-21467D02*
X59029Y-21505D01*
X59144Y-21505D01*
X59201Y-21467D01*
X59229Y-21391D01*
X59229Y-21352D01*
X59201Y-21276D01*
X59144Y-21238D01*
X59058Y-21238D01*
X59001Y-21200D01*
X58972Y-21124D01*
X58972Y-21086D01*
X59001Y-21010D01*
X59058Y-20971D01*
X59144Y-20971D01*
X59201Y-21010D01*
X59573Y-21505D02*
X59515Y-21467D01*
X59487Y-21429D01*
X59458Y-21352D01*
X59458Y-21124D01*
X59487Y-21048D01*
X59515Y-21010D01*
X59573Y-20971D01*
X59658Y-20971D01*
X59715Y-21010D01*
X59744Y-21048D01*
X59773Y-21124D01*
X59773Y-21352D01*
X59744Y-21429D01*
X59715Y-21467D01*
X59658Y-21505D01*
X59573Y-21505D01*
X60030Y-21505D02*
X60030Y-20971D01*
X60030Y-21124D02*
X60058Y-21048D01*
X60087Y-21010D01*
X60144Y-20971D01*
X60201Y-20971D01*
X60858Y-21505D02*
X60858Y-20705D01*
X60858Y-21010D02*
X60915Y-20971D01*
X61029Y-20971D01*
X61086Y-21010D01*
X61115Y-21048D01*
X61144Y-21124D01*
X61144Y-21352D01*
X61115Y-21429D01*
X61086Y-21467D01*
X61029Y-21505D01*
X60915Y-21505D01*
X60858Y-21467D01*
X61487Y-21505D02*
X61429Y-21467D01*
X61401Y-21429D01*
X61372Y-21352D01*
X61372Y-21124D01*
X61401Y-21048D01*
X61429Y-21010D01*
X61487Y-20971D01*
X61572Y-20971D01*
X61629Y-21010D01*
X61658Y-21048D01*
X61687Y-21124D01*
X61687Y-21352D01*
X61658Y-21429D01*
X61629Y-21467D01*
X61572Y-21505D01*
X61487Y-21505D01*
X62201Y-21505D02*
X62201Y-21086D01*
X62172Y-21010D01*
X62115Y-20971D01*
X62001Y-20971D01*
X61944Y-21010D01*
X62201Y-21467D02*
X62144Y-21505D01*
X62001Y-21505D01*
X61944Y-21467D01*
X61915Y-21391D01*
X61915Y-21314D01*
X61944Y-21238D01*
X62001Y-21200D01*
X62144Y-21200D01*
X62201Y-21162D01*
X62487Y-21505D02*
X62487Y-20971D01*
X62487Y-21124D02*
X62515Y-21048D01*
X62544Y-21010D01*
X62601Y-20971D01*
X62658Y-20971D01*
X63115Y-21505D02*
X63115Y-20705D01*
X63115Y-21467D02*
X63058Y-21505D01*
X62944Y-21505D01*
X62886Y-21467D01*
X62858Y-21429D01*
X62829Y-21352D01*
X62829Y-21124D01*
X62858Y-21048D01*
X62886Y-21010D01*
X62944Y-20971D01*
X63058Y-20971D01*
X63115Y-21010D01*
X63429Y-21467D02*
X63429Y-21505D01*
X63401Y-21581D01*
X63372Y-21619D01*
X64087Y-20971D02*
X64230Y-21505D01*
X64372Y-20971D01*
X64915Y-21505D02*
X64572Y-21505D01*
X64744Y-21505D02*
X64744Y-20705D01*
X64687Y-20819D01*
X64629Y-20895D01*
X64572Y-20933D01*
X65172Y-21429D02*
X65200Y-21467D01*
X65172Y-21505D01*
X65143Y-21467D01*
X65172Y-21429D01*
X65172Y-21505D01*
X65572Y-20705D02*
X65629Y-20705D01*
X65686Y-20743D01*
X65715Y-20781D01*
X65744Y-20857D01*
X65772Y-21010D01*
X65772Y-21200D01*
X65744Y-21352D01*
X65715Y-21429D01*
X65686Y-21467D01*
X65629Y-21505D01*
X65572Y-21505D01*
X65515Y-21467D01*
X65486Y-21429D01*
X65458Y-21352D01*
X65429Y-21200D01*
X65429Y-21010D01*
X65458Y-20857D01*
X65486Y-20781D01*
X65515Y-20743D01*
X65572Y-20705D01*
G54D12*
X60181Y-25787D02*
X58016Y-25787D01*
X58016Y-25787D02*
X57819Y-25591D01*
X57819Y-25591D02*
X57819Y-24213D01*
X57819Y-24213D02*
X60181Y-24213D01*
X60181Y-24213D02*
X60181Y-25787D01*
G54D13*
X61347Y-24750D02*
X62247Y-24750D01*
X62247Y-24750D02*
X62247Y-25250D01*
X62247Y-25250D02*
X61347Y-25250D01*
X61347Y-25250D02*
X61347Y-24750D01*
G54D12*
X64750Y-24750D02*
X67500Y-24750D01*
X64750Y-24750D02*
X64750Y-22250D01*
X64750Y-22250D02*
X67500Y-22250D01*
X67500Y-24750D02*
X67500Y-22250D01*
X64750Y-27750D02*
X67500Y-27750D01*
X64750Y-27750D02*
X64750Y-25250D01*
X64750Y-25250D02*
X67500Y-25250D01*
X67500Y-27750D02*
X67500Y-25250D01*
G54D14*
X58441Y-22635D02*
X58441Y-23121D01*
X58469Y-23178D01*
X58498Y-23206D01*
X58555Y-23235D01*
X58669Y-23235D01*
X58727Y-23206D01*
X58755Y-23178D01*
X58784Y-23121D01*
X58784Y-22635D01*
X59384Y-23235D02*
X59041Y-23235D01*
X59213Y-23235D02*
X59213Y-22635D01*
X59156Y-22721D01*
X59098Y-22778D01*
X59041Y-22806D01*
G54D15*
X61771Y-24347D02*
X61762Y-24360D01*
X61736Y-24373D01*
X61719Y-24373D01*
X61694Y-24360D01*
X61676Y-24333D01*
X61668Y-24307D01*
X61659Y-24253D01*
X61659Y-24213D01*
X61668Y-24160D01*
X61676Y-24133D01*
X61694Y-24107D01*
X61719Y-24093D01*
X61736Y-24093D01*
X61762Y-24107D01*
X61771Y-24120D01*
X61942Y-24373D02*
X61839Y-24373D01*
X61891Y-24373D02*
X61891Y-24093D01*
X61874Y-24133D01*
X61856Y-24160D01*
X61839Y-24173D01*
G54D11*
X64463Y-23942D02*
X63863Y-23942D01*
X63863Y-23714D01*
X63891Y-23656D01*
X63920Y-23628D01*
X63977Y-23599D01*
X64063Y-23599D01*
X64120Y-23628D01*
X64149Y-23656D01*
X64177Y-23714D01*
X64177Y-23942D01*
X63920Y-23371D02*
X63891Y-23342D01*
X63863Y-23285D01*
X63863Y-23142D01*
X63891Y-23085D01*
X63920Y-23056D01*
X63977Y-23028D01*
X64034Y-23028D01*
X64120Y-23056D01*
X64463Y-23399D01*
X64463Y-23028D01*
X64433Y-26942D02*
X63833Y-26942D01*
X63833Y-26714D01*
X63861Y-26656D01*
X63890Y-26628D01*
X63947Y-26599D01*
X64033Y-26599D01*
X64090Y-26628D01*
X64119Y-26656D01*
X64147Y-26714D01*
X64147Y-26942D01*
X63833Y-26399D02*
X63833Y-26028D01*
X64061Y-26228D01*
X64061Y-26142D01*
X64090Y-26085D01*
X64119Y-26056D01*
X64176Y-26028D01*
X64319Y-26028D01*
X64376Y-26056D01*
X64404Y-26085D01*
X64433Y-26142D01*
X64433Y-26314D01*
X64404Y-26371D01*
X64376Y-26399D01*
M02*
