<?xml version="1.0" encoding="UTF-8" standalone="no"?>
<!-- Created with Inkscape (http://www.inkscape.org/) -->

<svg
   xmlns:dc="http://purl.org/dc/elements/1.1/"
   xmlns:cc="http://creativecommons.org/ns#"
   xmlns:rdf="http://www.w3.org/1999/02/22-rdf-syntax-ns#"
   xmlns:svg="http://www.w3.org/2000/svg"
   xmlns="http://www.w3.org/2000/svg"
   xmlns:sodipodi="http://sodipodi.sourceforge.net/DTD/sodipodi-0.dtd"
   xmlns:inkscape="http://www.inkscape.org/namespaces/inkscape"
   id="svg2"
   version="1.1"
   inkscape:version="0.47 r22583"
   width="765"
   height="990"
   xml:space="preserve"
   sodipodi:docname="tux_case_colorimeter_top.svg"><metadata
     id="metadata8"><rdf:RDF><cc:Work
         rdf:about=""><dc:format>image/svg+xml</dc:format><dc:type
           rdf:resource="http://purl.org/dc/dcmitype/StillImage" /><dc:title /></cc:Work></rdf:RDF></metadata><defs
     id="defs6"><inkscape:perspective
       sodipodi:type="inkscape:persp3d"
       inkscape:vp_x="0 : 495 : 1"
       inkscape:vp_y="0 : 1000 : 0"
       inkscape:vp_z="765 : 495 : 1"
       inkscape:persp3d-origin="382.5 : 330 : 1"
       id="perspective6459" /><clipPath
       clipPathUnits="userSpaceOnUse"
       id="clipPath76"><path
         d="m 2119.34,4378.73 0,2.47 28.56,0 0,-2.47 -28.56,0"
         id="path78" /></clipPath><clipPath
       clipPathUnits="userSpaceOnUse"
       id="clipPath88"><path
         d="m 1990.93,4380.73 0,2.47 40.6,0 0,-2.47 -40.6,0"
         id="path90" /></clipPath><clipPath
       clipPathUnits="userSpaceOnUse"
       id="clipPath100"><path
         d="m 2103.29,4380.73 0,2.47 46.62,0 0,-2.47 -46.62,0"
         id="path102" /></clipPath><clipPath
       clipPathUnits="userSpaceOnUse"
       id="clipPath112"><path
         d="m 1982.9,4382.73 0,2.47 88.76,0 0,-2.47 -88.76,0"
         id="path114" /></clipPath><clipPath
       clipPathUnits="userSpaceOnUse"
       id="clipPath124"><path
         d="m 2081.21,4382.73 0,2.47 68.69,0 0,-2.47 -68.69,0"
         id="path126" /></clipPath><clipPath
       clipPathUnits="userSpaceOnUse"
       id="clipPath136"><path
         d="m 1982.9,4384.73 0,2.47 154.97,0 0,-2.47 -154.97,0"
         id="path138" /></clipPath><clipPath
       clipPathUnits="userSpaceOnUse"
       id="clipPath148"><path
         d="m 2139.4,4384.73 0,2.47 8.5,0 0,-2.47 -8.5,0"
         id="path150" /></clipPath><clipPath
       clipPathUnits="userSpaceOnUse"
       id="clipPath160"><path
         d="m 1982.9,4386.73 0,2.47 134.9,0 0,-2.47 -134.9,0"
         id="path162" /></clipPath><clipPath
       clipPathUnits="userSpaceOnUse"
       id="clipPath172"><path
         d="m 2137.39,4386.73 0,2.47 10.51,0 0,-2.47 -10.51,0"
         id="path174" /></clipPath><clipPath
       clipPathUnits="userSpaceOnUse"
       id="clipPath184"><path
         d="m 1982.9,4388.73 0,2.47 4.49,0 0,-2.47 -4.49,0"
         id="path186" /></clipPath><clipPath
       clipPathUnits="userSpaceOnUse"
       id="clipPath196"><path
         d="m 2033.06,4388.73 0,2.47 68.69,0 0,-2.47 -68.69,0"
         id="path198" /></clipPath><clipPath
       clipPathUnits="userSpaceOnUse"
       id="clipPath208"><path
         d="m 2135.39,4388.73 0,2.47 10.5,0 0,-2.47 -10.5,0"
         id="path210" /></clipPath><clipPath
       clipPathUnits="userSpaceOnUse"
       id="clipPath220"><path
         d="m 2133.38,4390.73 0,2.47 10.5,0 0,-2.47 -10.5,0"
         id="path222" /></clipPath><clipPath
       clipPathUnits="userSpaceOnUse"
       id="clipPath232"><path
         d="m 2131.38,4392.73 0,2.47 10.5,0 0,-2.47 -10.5,0"
         id="path234" /></clipPath><clipPath
       clipPathUnits="userSpaceOnUse"
       id="clipPath244"><path
         d="m 2131.38,4394.73 0,2.47 8.5,0 0,-2.47 -8.5,0"
         id="path246" /></clipPath><clipPath
       clipPathUnits="userSpaceOnUse"
       id="clipPath256"><path
         d="m 2129.37,4396.73 0,4.47 8.5,0 0,-4.47 -8.5,0"
         id="path258" /></clipPath><clipPath
       clipPathUnits="userSpaceOnUse"
       id="clipPath268"><path
         d="m 2127.36,4400.73 0,8.47 8.5,0 0,-8.47 -8.5,0"
         id="path270" /></clipPath><clipPath
       clipPathUnits="userSpaceOnUse"
       id="clipPath280"><path
         d="m 2129.37,4408.73 0,4.47 8.5,0 0,-4.47 -8.5,0"
         id="path282" /></clipPath><clipPath
       clipPathUnits="userSpaceOnUse"
       id="clipPath292"><path
         d="m 2129.37,4412.73 0,2.47 10.51,0 0,-2.47 -10.51,0"
         id="path294" /></clipPath><clipPath
       clipPathUnits="userSpaceOnUse"
       id="clipPath304"><path
         d="m 2131.38,4414.73 0,2.47 8.5,0 0,-2.47 -8.5,0"
         id="path306" /></clipPath><clipPath
       clipPathUnits="userSpaceOnUse"
       id="clipPath316"><path
         d="m 2131.38,4416.73 0,2.47 10.5,0 0,-2.47 -10.5,0"
         id="path318" /></clipPath><clipPath
       clipPathUnits="userSpaceOnUse"
       id="clipPath328"><path
         d="m 2133.38,4418.73 0,4.47 8.5,0 0,-4.47 -8.5,0"
         id="path330" /></clipPath><clipPath
       clipPathUnits="userSpaceOnUse"
       id="clipPath340"><path
         d="m 2135.39,4422.73 0,6.47 8.5,0 0,-6.47 -8.5,0"
         id="path342" /></clipPath><clipPath
       clipPathUnits="userSpaceOnUse"
       id="clipPath352"><path
         d="m 2137.39,4428.73 0,6.47 8.5,0 0,-6.47 -8.5,0"
         id="path354" /></clipPath><clipPath
       clipPathUnits="userSpaceOnUse"
       id="clipPath364"><path
         d="m 2139.4,4434.73 0,6.47 8.5,0 0,-6.47 -8.5,0"
         id="path366" /></clipPath><clipPath
       clipPathUnits="userSpaceOnUse"
       id="clipPath376"><path
         d="m 2141.41,4440.73 0,2.47 6.49,0 0,-2.47 -6.49,0"
         id="path378" /></clipPath><clipPath
       clipPathUnits="userSpaceOnUse"
       id="clipPath388"><path
         d="m 2141.41,4442.73 0,8.47 8.5,0 0,-8.47 -8.5,0"
         id="path390" /></clipPath><clipPath
       clipPathUnits="userSpaceOnUse"
       id="clipPath400"><path
         d="m 2143.41,4450.73 0,12.47 8.5,0 0,-12.47 -8.5,0"
         id="path402" /></clipPath><clipPath
       clipPathUnits="userSpaceOnUse"
       id="clipPath412"><path
         d="m 2145.42,4462.73 0,2.47 6.49,0 0,-2.47 -6.49,0"
         id="path414" /></clipPath><clipPath
       clipPathUnits="userSpaceOnUse"
       id="clipPath424"><path
         d="m 2145.42,4464.73 0,32.47 8.5,0 0,-32.47 -8.5,0"
         id="path426" /></clipPath><clipPath
       clipPathUnits="userSpaceOnUse"
       id="clipPath436"><path
         d="m 2147.43,4496.73 0,2.47 6.49,0 0,-2.47 -6.49,0"
         id="path438" /></clipPath><clipPath
       clipPathUnits="userSpaceOnUse"
       id="clipPath448"><path
         d="m 2145.42,4498.73 0,22.47 8.5,0 0,-22.47 -8.5,0"
         id="path450" /></clipPath><clipPath
       clipPathUnits="userSpaceOnUse"
       id="clipPath460"><path
         d="m 2145.42,4520.73 0,2.47 6.49,0 0,-2.47 -6.49,0"
         id="path462" /></clipPath><clipPath
       clipPathUnits="userSpaceOnUse"
       id="clipPath472"><path
         d="m 2143.41,4522.73 0,12.47 8.5,0 0,-12.47 -8.5,0"
         id="path474" /></clipPath><clipPath
       clipPathUnits="userSpaceOnUse"
       id="clipPath484"><path
         d="m 2141.41,4534.73 0,10.47 8.5,0 0,-10.47 -8.5,0"
         id="path486" /></clipPath><clipPath
       clipPathUnits="userSpaceOnUse"
       id="clipPath496"><path
         d="m 2139.4,4544.73 0,6.47 8.5,0 0,-6.47 -8.5,0"
         id="path498" /></clipPath><clipPath
       clipPathUnits="userSpaceOnUse"
       id="clipPath508"><path
         d="m 2053.13,4548.73 0,2.48 2.47,0 0,-2.48 -2.47,0"
         id="path510" /></clipPath><clipPath
       clipPathUnits="userSpaceOnUse"
       id="clipPath520"><path
         d="m 2057.14,4548.73 0,2.48 4.49,0 0,-2.48 -4.49,0"
         id="path522" /></clipPath><clipPath
       clipPathUnits="userSpaceOnUse"
       id="clipPath532"><path
         d="m 2053.13,4550.73 0,2.47 8.5,0 0,-2.47 -8.5,0"
         id="path534" /></clipPath><clipPath
       clipPathUnits="userSpaceOnUse"
       id="clipPath544"><path
         d="m 2137.39,4550.73 0,2.47 10.51,0 0,-2.47 -10.51,0"
         id="path546" /></clipPath><clipPath
       clipPathUnits="userSpaceOnUse"
       id="clipPath556"><path
         d="m 2055.13,4552.73 0,4.47 8.5,0 0,-4.47 -8.5,0"
         id="path558" /></clipPath><clipPath
       clipPathUnits="userSpaceOnUse"
       id="clipPath568"><path
         d="m 2137.39,4552.73 0,4.47 8.5,0 0,-4.47 -8.5,0"
         id="path570" /></clipPath><clipPath
       clipPathUnits="userSpaceOnUse"
       id="clipPath580"><path
         d="m 2135.39,4556.73 0,2.47 10.5,0 0,-2.47 -10.5,0"
         id="path582" /></clipPath><clipPath
       clipPathUnits="userSpaceOnUse"
       id="clipPath592"><path
         d="m 2057.14,4556.73 0,4.47 8.5,0 0,-4.47 -8.5,0"
         id="path594" /></clipPath><clipPath
       clipPathUnits="userSpaceOnUse"
       id="clipPath604"><path
         d="m 2135.39,4558.73 0,4.47 8.5,0 0,-4.47 -8.5,0"
         id="path606" /></clipPath><clipPath
       clipPathUnits="userSpaceOnUse"
       id="clipPath616"><path
         d="m 2057.14,4560.73 0,2.48 10.5,0 0,-2.48 -10.5,0"
         id="path618" /></clipPath><clipPath
       clipPathUnits="userSpaceOnUse"
       id="clipPath628"><path
         d="m 2059.14,4562.73 0,4.47 8.5,0 0,-4.47 -8.5,0"
         id="path630" /></clipPath><clipPath
       clipPathUnits="userSpaceOnUse"
       id="clipPath640"><path
         d="m 2133.38,4562.73 0,4.47 8.5,0 0,-4.47 -8.5,0"
         id="path642" /></clipPath><clipPath
       clipPathUnits="userSpaceOnUse"
       id="clipPath652"><path
         d="m 2131.38,4566.73 0,2.48 8.5,0 0,-2.48 -8.5,0"
         id="path654" /></clipPath><clipPath
       clipPathUnits="userSpaceOnUse"
       id="clipPath664"><path
         d="m 2129.37,4568.73 0,2.47 10.51,0 0,-2.47 -10.51,0"
         id="path666" /></clipPath><clipPath
       clipPathUnits="userSpaceOnUse"
       id="clipPath676"><path
         d="m 2129.37,4570.73 0,2.47 8.5,0 0,-2.47 -8.5,0"
         id="path678" /></clipPath><clipPath
       clipPathUnits="userSpaceOnUse"
       id="clipPath688"><path
         d="m 2127.36,4572.73 0,2.48 8.5,0 0,-2.48 -8.5,0"
         id="path690" /></clipPath><clipPath
       clipPathUnits="userSpaceOnUse"
       id="clipPath700"><path
         d="m 2125.36,4574.73 0,2.47 10.5,0 0,-2.47 -10.5,0"
         id="path702" /></clipPath><clipPath
       clipPathUnits="userSpaceOnUse"
       id="clipPath712"><path
         d="m 2123.35,4576.73 0,2.47 10.51,0 0,-2.47 -10.51,0"
         id="path714" /></clipPath><clipPath
       clipPathUnits="userSpaceOnUse"
       id="clipPath724"><path
         d="m 2123.35,4578.73 0,2.48 8.5,0 0,-2.48 -8.5,0"
         id="path726" /></clipPath><clipPath
       clipPathUnits="userSpaceOnUse"
       id="clipPath736"><path
         d="m 2061.15,4566.73 0,16.47 8.5,0 0,-16.47 -8.5,0"
         id="path738" /></clipPath><clipPath
       clipPathUnits="userSpaceOnUse"
       id="clipPath748"><path
         d="m 2121.34,4580.73 0,2.48 8.5,0 0,-2.48 -8.5,0"
         id="path750" /></clipPath><clipPath
       clipPathUnits="userSpaceOnUse"
       id="clipPath760"><path
         d="m 2061.15,4582.73 0,2.47 6.49,0 0,-2.47 -6.49,0"
         id="path762" /></clipPath><clipPath
       clipPathUnits="userSpaceOnUse"
       id="clipPath772"><path
         d="m 2119.34,4582.73 0,2.47 8.5,0 0,-2.47 -8.5,0"
         id="path774" /></clipPath><clipPath
       clipPathUnits="userSpaceOnUse"
       id="clipPath784"><path
         d="m 2117.33,4584.73 0,2.48 10.5,0 0,-2.48 -10.5,0"
         id="path786" /></clipPath><clipPath
       clipPathUnits="userSpaceOnUse"
       id="clipPath796"><path
         d="m 2115.32,4586.73 0,2.48 10.51,0 0,-2.48 -10.51,0"
         id="path798" /></clipPath><clipPath
       clipPathUnits="userSpaceOnUse"
       id="clipPath808"><path
         d="m 2113.32,4588.73 0,2.47 10.5,0 0,-2.47 -10.5,0"
         id="path810" /></clipPath><clipPath
       clipPathUnits="userSpaceOnUse"
       id="clipPath820"><path
         d="m 2113.32,4590.73 0,2.48 8.5,0 0,-2.48 -8.5,0"
         id="path822" /></clipPath><clipPath
       clipPathUnits="userSpaceOnUse"
       id="clipPath832"><path
         d="m 2111.31,4592.73 0,2.48 8.5,0 0,-2.48 -8.5,0"
         id="path834" /></clipPath><clipPath
       clipPathUnits="userSpaceOnUse"
       id="clipPath844"><path
         d="m 2059.14,4584.73 0,12.47 8.5,0 0,-12.47 -8.5,0"
         id="path846" /></clipPath><clipPath
       clipPathUnits="userSpaceOnUse"
       id="clipPath856"><path
         d="m 2109.3,4594.73 0,2.47 10.51,0 0,-2.47 -10.51,0"
         id="path858" /></clipPath><clipPath
       clipPathUnits="userSpaceOnUse"
       id="clipPath868"><path
         d="m 2109.3,4596.73 0,2.48 8.5,0 0,-2.48 -8.5,0"
         id="path870" /></clipPath><clipPath
       clipPathUnits="userSpaceOnUse"
       id="clipPath880"><path
         d="m 2107.3,4598.73 0,2.48 10.5,0 0,-2.48 -10.5,0"
         id="path882" /></clipPath><clipPath
       clipPathUnits="userSpaceOnUse"
       id="clipPath892"><path
         d="m 2059.14,4596.73 0,6.47 6.49,0 0,-6.47 -6.49,0"
         id="path894" /></clipPath><clipPath
       clipPathUnits="userSpaceOnUse"
       id="clipPath904"><path
         d="m 2107.3,4600.73 0,2.47 8.5,0 0,-2.47 -8.5,0"
         id="path906" /></clipPath><clipPath
       clipPathUnits="userSpaceOnUse"
       id="clipPath916"><path
         d="m 2105.29,4602.73 0,4.47 10.51,0 0,-4.47 -10.51,0"
         id="path918" /></clipPath><clipPath
       clipPathUnits="userSpaceOnUse"
       id="clipPath928"><path
         d="m 2057.14,4602.73 0,6.47 8.5,0 0,-6.47 -8.5,0"
         id="path930" /></clipPath><clipPath
       clipPathUnits="userSpaceOnUse"
       id="clipPath940"><path
         d="m 2107.3,4606.73 0,4.47 6.49,0 0,-4.47 -6.49,0"
         id="path942" /></clipPath><clipPath
       clipPathUnits="userSpaceOnUse"
       id="clipPath952"><path
         d="m 2107.3,4610.73 0,6.48 8.5,0 0,-6.48 -8.5,0"
         id="path954" /></clipPath><clipPath
       clipPathUnits="userSpaceOnUse"
       id="clipPath964"><path
         d="m 2059.14,4608.73 0,10.47 8.5,0 0,-10.47 -8.5,0"
         id="path966" /></clipPath><clipPath
       clipPathUnits="userSpaceOnUse"
       id="clipPath976"><path
         d="m 2107.3,4616.73 0,2.48 10.5,0 0,-2.48 -10.5,0"
         id="path978" /></clipPath><clipPath
       clipPathUnits="userSpaceOnUse"
       id="clipPath988"><path
         d="m 2059.14,4618.73 0,2.47 10.51,0 0,-2.47 -10.51,0"
         id="path990" /></clipPath><clipPath
       clipPathUnits="userSpaceOnUse"
       id="clipPath1000"><path
         d="m 2109.3,4618.73 0,2.47 8.5,0 0,-2.47 -8.5,0"
         id="path1002" /></clipPath><clipPath
       clipPathUnits="userSpaceOnUse"
       id="clipPath1012"><path
         d="m 2061.15,4620.73 0,2.48 8.5,0 0,-2.48 -8.5,0"
         id="path1014" /></clipPath><clipPath
       clipPathUnits="userSpaceOnUse"
       id="clipPath1024"><path
         d="m 2109.3,4620.73 0,2.48 10.51,0 0,-2.48 -10.51,0"
         id="path1026" /></clipPath><clipPath
       clipPathUnits="userSpaceOnUse"
       id="clipPath1036"><path
         d="m 2061.15,4622.73 0,2.48 10.51,0 0,-2.48 -10.51,0"
         id="path1038" /></clipPath><clipPath
       clipPathUnits="userSpaceOnUse"
       id="clipPath1048"><path
         d="m 2111.31,4622.73 0,2.48 8.5,0 0,-2.48 -8.5,0"
         id="path1050" /></clipPath><clipPath
       clipPathUnits="userSpaceOnUse"
       id="clipPath1060"><path
         d="m 2063.16,4624.73 0,2.47 8.5,0 0,-2.47 -8.5,0"
         id="path1062" /></clipPath><clipPath
       clipPathUnits="userSpaceOnUse"
       id="clipPath1072"><path
         d="m 2113.32,4624.73 0,2.47 8.5,0 0,-2.47 -8.5,0"
         id="path1074" /></clipPath><clipPath
       clipPathUnits="userSpaceOnUse"
       id="clipPath1084"><path
         d="m 2063.16,4626.73 0,2.48 10.5,0 0,-2.48 -10.5,0"
         id="path1086" /></clipPath><clipPath
       clipPathUnits="userSpaceOnUse"
       id="clipPath1096"><path
         d="m 2113.32,4626.73 0,2.48 10.5,0 0,-2.48 -10.5,0"
         id="path1098" /></clipPath><clipPath
       clipPathUnits="userSpaceOnUse"
       id="clipPath1108"><path
         d="m 2065.16,4628.73 0,2.48 10.51,0 0,-2.48 -10.51,0"
         id="path1110" /></clipPath><clipPath
       clipPathUnits="userSpaceOnUse"
       id="clipPath1120"><path
         d="m 2115.32,4628.73 0,2.48 8.5,0 0,-2.48 -8.5,0"
         id="path1122" /></clipPath><clipPath
       clipPathUnits="userSpaceOnUse"
       id="clipPath1132"><path
         d="m 2065.16,4630.73 0,2.47 12.51,0 0,-2.47 -12.51,0"
         id="path1134" /></clipPath><clipPath
       clipPathUnits="userSpaceOnUse"
       id="clipPath1144"><path
         d="m 2115.32,4630.73 0,2.47 10.51,0 0,-2.47 -10.51,0"
         id="path1146" /></clipPath><clipPath
       clipPathUnits="userSpaceOnUse"
       id="clipPath1156"><path
         d="m 2067.17,4632.73 0,2.48 10.51,0 0,-2.48 -10.51,0"
         id="path1158" /></clipPath><clipPath
       clipPathUnits="userSpaceOnUse"
       id="clipPath1168"><path
         d="m 2117.33,4632.73 0,2.48 8.5,0 0,-2.48 -8.5,0"
         id="path1170" /></clipPath><clipPath
       clipPathUnits="userSpaceOnUse"
       id="clipPath1180"><path
         d="m 2069.18,4634.73 0,2.48 12.5,0 0,-2.48 -12.5,0"
         id="path1182" /></clipPath><clipPath
       clipPathUnits="userSpaceOnUse"
       id="clipPath1192"><path
         d="m 2119.34,4634.73 0,2.48 8.5,0 0,-2.48 -8.5,0"
         id="path1194" /></clipPath><clipPath
       clipPathUnits="userSpaceOnUse"
       id="clipPath1204"><path
         d="m 2071.18,4636.73 0,2.47 12.52,0 0,-2.47 -12.52,0"
         id="path1206" /></clipPath><clipPath
       clipPathUnits="userSpaceOnUse"
       id="clipPath1216"><path
         d="m 2119.34,4636.73 0,2.47 10.5,0 0,-2.47 -10.5,0"
         id="path1218" /></clipPath><clipPath
       clipPathUnits="userSpaceOnUse"
       id="clipPath1228"><path
         d="m 2073.19,4638.73 0,2.48 14.52,0 0,-2.48 -14.52,0"
         id="path1230" /></clipPath><clipPath
       clipPathUnits="userSpaceOnUse"
       id="clipPath1240"><path
         d="m 2121.34,4638.73 0,2.48 8.5,0 0,-2.48 -8.5,0"
         id="path1242" /></clipPath><clipPath
       clipPathUnits="userSpaceOnUse"
       id="clipPath1252"><path
         d="m 2075.2,4640.73 0,2.48 18.52,0 0,-2.48 -18.52,0"
         id="path1254" /></clipPath><clipPath
       clipPathUnits="userSpaceOnUse"
       id="clipPath1264"><path
         d="m 2121.34,4640.73 0,2.48 10.51,0 0,-2.48 -10.51,0"
         id="path1266" /></clipPath><clipPath
       clipPathUnits="userSpaceOnUse"
       id="clipPath1276"><path
         d="m 2079.21,4642.73 0,2.47 22.54,0 0,-2.47 -22.54,0"
         id="path1278" /></clipPath><clipPath
       clipPathUnits="userSpaceOnUse"
       id="clipPath1288"><path
         d="m 2123.35,4642.73 0,2.47 10.51,0 0,-2.47 -10.51,0"
         id="path1290" /></clipPath><clipPath
       clipPathUnits="userSpaceOnUse"
       id="clipPath1300"><path
         d="m 2083.22,4644.73 0,2.48 24.55,0 0,-2.48 -24.55,0"
         id="path1302" /></clipPath><clipPath
       clipPathUnits="userSpaceOnUse"
       id="clipPath1312"><path
         d="m 2125.36,4644.73 0,2.48 8.5,0 0,-2.48 -8.5,0"
         id="path1314" /></clipPath><clipPath
       clipPathUnits="userSpaceOnUse"
       id="clipPath1324"><path
         d="m 2087.23,4646.73 0,2.48 24.56,0 0,-2.48 -24.56,0"
         id="path1326" /></clipPath><clipPath
       clipPathUnits="userSpaceOnUse"
       id="clipPath1336"><path
         d="m 2125.36,4646.73 0,2.48 10.5,0 0,-2.48 -10.5,0"
         id="path1338" /></clipPath><clipPath
       clipPathUnits="userSpaceOnUse"
       id="clipPath1348"><path
         d="m 2093.25,4648.73 0,2.47 22.55,0 0,-2.47 -22.55,0"
         id="path1350" /></clipPath><clipPath
       clipPathUnits="userSpaceOnUse"
       id="clipPath1360"><path
         d="m 2127.36,4648.73 0,2.47 8.5,0 0,-2.47 -8.5,0"
         id="path1362" /></clipPath><clipPath
       clipPathUnits="userSpaceOnUse"
       id="clipPath1372"><path
         d="m 2101.28,4650.73 0,2.48 16.52,0 0,-2.48 -16.52,0"
         id="path1374" /></clipPath><clipPath
       clipPathUnits="userSpaceOnUse"
       id="clipPath1384"><path
         d="m 2129.37,4650.73 0,2.48 8.5,0 0,-2.48 -8.5,0"
         id="path1386" /></clipPath><clipPath
       clipPathUnits="userSpaceOnUse"
       id="clipPath1396"><path
         d="m 2107.3,4652.73 0,2.48 14.52,0 0,-2.48 -14.52,0"
         id="path1398" /></clipPath><clipPath
       clipPathUnits="userSpaceOnUse"
       id="clipPath1408"><path
         d="m 2129.37,4652.73 0,2.48 10.51,0 0,-2.48 -10.51,0"
         id="path1410" /></clipPath><clipPath
       clipPathUnits="userSpaceOnUse"
       id="clipPath1420"><path
         d="m 2111.31,4654.73 0,2.47 12.51,0 0,-2.47 -12.51,0"
         id="path1422" /></clipPath><clipPath
       clipPathUnits="userSpaceOnUse"
       id="clipPath1432"><path
         d="m 2131.38,4654.73 0,2.47 10.5,0 0,-2.47 -10.5,0"
         id="path1434" /></clipPath><clipPath
       clipPathUnits="userSpaceOnUse"
       id="clipPath1444"><path
         d="m 2113.32,4656.73 0,2.48 14.52,0 0,-2.48 -14.52,0"
         id="path1446" /></clipPath><clipPath
       clipPathUnits="userSpaceOnUse"
       id="clipPath1456"><path
         d="m 2133.38,4656.73 0,2.48 10.5,0 0,-2.48 -10.5,0"
         id="path1458" /></clipPath><clipPath
       clipPathUnits="userSpaceOnUse"
       id="clipPath1468"><path
         d="m 2117.33,4658.73 0,2.48 14.52,0 0,-2.48 -14.52,0"
         id="path1470" /></clipPath><clipPath
       clipPathUnits="userSpaceOnUse"
       id="clipPath1480"><path
         d="m 2135.39,4658.73 0,2.48 8.5,0 0,-2.48 -8.5,0"
         id="path1482" /></clipPath><clipPath
       clipPathUnits="userSpaceOnUse"
       id="clipPath1492"><path
         d="m 2119.34,4660.73 0,2.47 14.52,0 0,-2.47 -14.52,0"
         id="path1494" /></clipPath><clipPath
       clipPathUnits="userSpaceOnUse"
       id="clipPath1504"><path
         d="m 2135.39,4660.73 0,2.47 12.51,0 0,-2.47 -12.51,0"
         id="path1506" /></clipPath><clipPath
       clipPathUnits="userSpaceOnUse"
       id="clipPath1516"><path
         d="m 2123.35,4662.73 0,2.48 26.56,0 0,-2.48 -26.56,0"
         id="path1518" /></clipPath><clipPath
       clipPathUnits="userSpaceOnUse"
       id="clipPath1528"><path
         d="m 2125.36,4664.73 0,2.48 26.55,0 0,-2.48 -26.55,0"
         id="path1530" /></clipPath><clipPath
       clipPathUnits="userSpaceOnUse"
       id="clipPath1540"><path
         d="m 2127.36,4666.73 0,2.47 26.56,0 0,-2.47 -26.56,0"
         id="path1542" /></clipPath><clipPath
       clipPathUnits="userSpaceOnUse"
       id="clipPath1552"><path
         d="m 2131.38,4668.73 0,2.48 24.55,0 0,-2.48 -24.55,0"
         id="path1554" /></clipPath><clipPath
       clipPathUnits="userSpaceOnUse"
       id="clipPath1564"><path
         d="m 2133.38,4670.73 0,2.48 24.55,0 0,-2.48 -24.55,0"
         id="path1566" /></clipPath><clipPath
       clipPathUnits="userSpaceOnUse"
       id="clipPath1576"><path
         d="m 2137.39,4672.73 0,2.47 22.55,0 0,-2.47 -22.55,0"
         id="path1578" /></clipPath><clipPath
       clipPathUnits="userSpaceOnUse"
       id="clipPath1588"><path
         d="m 2141.41,4674.73 0,2.48 18.53,0 0,-2.48 -18.53,0"
         id="path1590" /></clipPath><clipPath
       clipPathUnits="userSpaceOnUse"
       id="clipPath1600"><path
         d="m 2147.43,4676.73 0,2.48 12.51,0 0,-2.48 -12.51,0"
         id="path1602" /></clipPath><inkscape:perspective
       id="perspective6514"
       inkscape:persp3d-origin="0.5 : 0.33333333 : 1"
       inkscape:vp_z="1 : 0.5 : 1"
       inkscape:vp_y="0 : 1000 : 0"
       inkscape:vp_x="0 : 0.5 : 1"
       sodipodi:type="inkscape:persp3d" /><inkscape:perspective
       id="perspective6569"
       inkscape:persp3d-origin="0.5 : 0.33333333 : 1"
       inkscape:vp_z="1 : 0.5 : 1"
       inkscape:vp_y="0 : 1000 : 0"
       inkscape:vp_x="0 : 0.5 : 1"
       sodipodi:type="inkscape:persp3d" /><inkscape:perspective
       id="perspective6621"
       inkscape:persp3d-origin="0.5 : 0.33333333 : 1"
       inkscape:vp_z="1 : 0.5 : 1"
       inkscape:vp_y="0 : 1000 : 0"
       inkscape:vp_x="0 : 0.5 : 1"
       sodipodi:type="inkscape:persp3d" /><inkscape:perspective
       id="perspective6966"
       inkscape:persp3d-origin="0.5 : 0.33333333 : 1"
       inkscape:vp_z="1 : 0.5 : 1"
       inkscape:vp_y="0 : 1000 : 0"
       inkscape:vp_x="0 : 0.5 : 1"
       sodipodi:type="inkscape:persp3d" /><inkscape:perspective
       id="perspective2861"
       inkscape:persp3d-origin="0.5 : 0.33333333 : 1"
       inkscape:vp_z="1 : 0.5 : 1"
       inkscape:vp_y="0 : 1000 : 0"
       inkscape:vp_x="0 : 0.5 : 1"
       sodipodi:type="inkscape:persp3d" /><inkscape:perspective
       id="perspective2874"
       inkscape:persp3d-origin="0.5 : 0.33333333 : 1"
       inkscape:vp_z="1 : 0.5 : 1"
       inkscape:vp_y="0 : 1000 : 0"
       inkscape:vp_x="0 : 0.5 : 1"
       sodipodi:type="inkscape:persp3d" /><inkscape:perspective
       id="perspective7115"
       inkscape:persp3d-origin="0.5 : 0.33333333 : 1"
       inkscape:vp_z="1 : 0.5 : 1"
       inkscape:vp_y="0 : 1000 : 0"
       inkscape:vp_x="0 : 0.5 : 1"
       sodipodi:type="inkscape:persp3d" /><inkscape:perspective
       id="perspective7194"
       inkscape:persp3d-origin="0.5 : 0.33333333 : 1"
       inkscape:vp_z="1 : 0.5 : 1"
       inkscape:vp_y="0 : 1000 : 0"
       inkscape:vp_x="0 : 0.5 : 1"
       sodipodi:type="inkscape:persp3d" /><inkscape:perspective
       id="perspective7260"
       inkscape:persp3d-origin="0.5 : 0.33333333 : 1"
       inkscape:vp_z="1 : 0.5 : 1"
       inkscape:vp_y="0 : 1000 : 0"
       inkscape:vp_x="0 : 0.5 : 1"
       sodipodi:type="inkscape:persp3d" /><inkscape:perspective
       id="perspective7282"
       inkscape:persp3d-origin="0.5 : 0.33333333 : 1"
       inkscape:vp_z="1 : 0.5 : 1"
       inkscape:vp_y="0 : 1000 : 0"
       inkscape:vp_x="0 : 0.5 : 1"
       sodipodi:type="inkscape:persp3d" /><inkscape:perspective
       id="perspective7371"
       inkscape:persp3d-origin="0.5 : 0.33333333 : 1"
       inkscape:vp_z="1 : 0.5 : 1"
       inkscape:vp_y="0 : 1000 : 0"
       inkscape:vp_x="0 : 0.5 : 1"
       sodipodi:type="inkscape:persp3d" /><inkscape:perspective
       id="perspective7947"
       inkscape:persp3d-origin="0.5 : 0.33333333 : 1"
       inkscape:vp_z="1 : 0.5 : 1"
       inkscape:vp_y="0 : 1000 : 0"
       inkscape:vp_x="0 : 0.5 : 1"
       sodipodi:type="inkscape:persp3d" /></defs><sodipodi:namedview
     pagecolor="#ffffff"
     bordercolor="#666666"
     borderopacity="1"
     objecttolerance="10"
     gridtolerance="10"
     guidetolerance="10"
     inkscape:pageopacity="0"
     inkscape:pageshadow="2"
     inkscape:window-width="1920"
     inkscape:window-height="1005"
     id="namedview4"
     showgrid="false"
     inkscape:zoom="1.5626665"
     inkscape:cx="295.6497"
     inkscape:cy="619.09348"
     inkscape:window-x="0"
     inkscape:window-y="24"
     inkscape:window-maximized="1"
     inkscape:current-layer="g7037" /><g
     id="g10"
     inkscape:groupmode="layer"
     inkscape:label="ArduinoCaseV1_i4_acrylictop_v..."
     transform="matrix(-1.25,0,0,1.25,765,0)">






<g
   id="g3159"
   transform="translate(204.67345,8.191127)"><g
     id="g1618-2-3"
     transform="matrix(0,0.11936616,-0.1206336,0,-110.57552,535.37043)"><path
       d="m -1740.04,-1437.97 c 20.65,0 37.37,-16.55 37.37,-36.95 0,-20.4 -16.72,-36.95 -37.37,-36.95 -20.62,0 -37.35,16.55 -37.35,36.95 0,20.4 16.73,36.95 37.35,36.95 z"
       style="fill:none;stroke:#ed1c24;stroke-width:1.79053998;stroke-linecap:butt;stroke-linejoin:miter;stroke-miterlimit:4;stroke-opacity:1;stroke-dasharray:none"
       id="path1620-9-5"
       inkscape:connector-curvature="0" /></g><g
     id="g1622-42-7"
     transform="matrix(0,0.11936616,-0.1206336,0,-110.57552,535.37043)"><path
       d="m -3051.56,-1437.68 c 20.61,0 37.34,-16.55 37.34,-36.95 0,-20.4 -16.73,-36.94 -37.34,-36.94 -20.66,0 -37.38,16.54 -37.38,36.94 0,20.4 16.72,36.95 37.38,36.95 z"
       style="fill:none;stroke:#ed1c24;stroke-width:1.79053998;stroke-linecap:butt;stroke-linejoin:miter;stroke-miterlimit:4;stroke-opacity:1;stroke-dasharray:none"
       id="path1624-9-1"
       inkscape:connector-curvature="0" /></g><g
     id="g1626-0-0"
     transform="matrix(0,0.11936616,-0.1206336,0,-110.57552,535.37043)"><path
       d="m -3051.53,-3182.89 c 20.62,0 37.34,-16.51 37.34,-36.91 0,-20.4 -16.72,-36.95 -37.34,-36.95 -20.62,0 -37.34,16.55 -37.34,36.95 0,20.4 16.72,36.91 37.34,36.91 z"
       style="fill:none;stroke:#ed1c24;stroke-width:1.79053998;stroke-linecap:butt;stroke-linejoin:miter;stroke-miterlimit:4;stroke-opacity:1;stroke-dasharray:none"
       id="path1628-8-5"
       inkscape:connector-curvature="0" /></g><g
     id="g1630-8-1"
     transform="matrix(0,0.11936616,-0.1206336,0,-110.57552,535.37043)"><path
       d="m -1740.04,-3182.89 c 20.65,0 37.37,-16.51 37.37,-36.91 0,-20.4 -16.72,-36.95 -37.37,-36.95 -20.62,0 -37.35,16.55 -37.35,36.95 0,20.4 16.73,36.91 37.35,36.91 z"
       style="fill:none;stroke:#ed1c24;stroke-width:1.79053998;stroke-linecap:butt;stroke-linejoin:miter;stroke-miterlimit:4;stroke-opacity:1;stroke-dasharray:none"
       id="path1632-2-9"
       inkscape:connector-curvature="0" /></g><g
     id="g1648-1-4"
     transform="matrix(-0.16137679,0,0,-0.22457717,-132.84357,767.36708)"><path
       d="m -1776.37,2452.77 138.06,0 c 17.42,0 31.43,-14.02 31.43,-31.43 l 0,-224.24 c 0,-17.4 -14.01,-31.42 -31.43,-31.42 l -138.06,0 c -17.45,0 -31.47,14.02 -31.47,31.42 l 0,224.24 c 0,17.41 14.02,31.43 31.47,31.43 z"
       style="fill:none;stroke:#ed1c24;stroke-width:1.72255003;stroke-linecap:butt;stroke-linejoin:miter;stroke-miterlimit:4;stroke-opacity:1;stroke-dasharray:none"
       id="path1650-3-8"
       inkscape:connector-curvature="0" /></g><path
     d="m 64.99288,160.16526 213.3432,0 c 3.8988,0 7.0884,3.1896 7.0884,7.0896 l 0,163.0272 c 0,3.8988 -3.1896,7.0884 -7.0884,7.0884 l -213.3432,0 c -3.8988,0 -7.0884,-3.1896 -7.0884,-7.0884 l 0,-163.0272 c 0,-3.9 3.1896,-7.0896 7.0884,-7.0896 z"
     style="fill:none;stroke:#ed1c24;stroke-width:0.21599999;stroke-linecap:butt;stroke-linejoin:miter;stroke-miterlimit:2.61313009;stroke-opacity:1;stroke-dasharray:none"
     id="path1670-8-7"
     inkscape:connector-curvature="0" /></g><g
   id="g7037"
   transform="matrix(0,-1,-1,0,823.97538,662.4695)"><text
   transform="scale(-1,1)"
   style="font-size:11.99999523px"
   y="536.9278"
   x="-448.11853"
   id="text1656-6"><tspan
     y="536.9278"
     x="-448.11853"
     id="tspan1658-6"
     sodipodi:role="line"
     style="font-size:6.99975729px;font-variant:normal;font-weight:normal;writing-mode:lr-tb;fill:#231f20;fill-opacity:1;fill-rule:nonzero;stroke:none;font-family:Helvetica;-inkscape-font-specification:Helvetica" /><tspan
     y="545.67749"
     x="-448.11853"
     id="tspan1660-4"
     sodipodi:role="line"
     style="font-size:6.99975729px;font-variant:normal;font-weight:normal;writing-mode:lr-tb;fill:#231f20;fill-opacity:1;fill-rule:nonzero;stroke:none;font-family:Helvetica;-inkscape-font-specification:Helvetica" /><tspan
     y="554.42719"
     x="-448.11853"
     id="tspan1664-7"
     sodipodi:role="line"
     style="font-size:6.99975729px;font-variant:normal;font-weight:normal;writing-mode:lr-tb;fill:#231f20;fill-opacity:1;fill-rule:nonzero;stroke:none;font-family:Helvetica;-inkscape-font-specification:Helvetica">www.iorodeo.com/colorimeter</tspan></text>

<path
   inkscape:export-ydpi="299.98492"
   inkscape:export-xdpi="299.98492"
   inkscape:export-filename="/home/jo/Documents/IO Rodeo/graphic_design/Logo/horseshoe_logo/logo_test.png"
   style="fill:#000000;fill-opacity:1"
   id="path116-3-4-3-0-2-8-4-1"
   d="m 406.55272,510.64826 c 1.04706,0.14702 2.14317,0.5066 3.31559,0.971 0.87986,0.34854 1.80265,0.75602 2.77999,1.17718 1.10779,0.47745 3.66102,0.9108 3.66186,1.01203 0.004,0.42174 -0.0203,1.67216 -0.20448,1.89169 -0.18008,0.21456 -0.36079,0.32763 -1.08233,0.18219 -1.00824,-0.36924 -2.48964,-0.71033 -3.76399,-1.17632 -1.44644,-0.52878 -2.64923,-0.90648 -3.67986,-1.0911 -2.97877,-0.53385 -5.79784,-0.41223 -7.96852,1.59796 -1.4219,1.31701 -2.1204,2.87896 -2.14237,4.43879 0.022,1.55978 0.72053,3.19264 2.14237,4.50971 2.17068,2.01019 4.9897,2.13181 7.96852,1.59796 1.03068,-0.18457 2.23342,-0.56231 3.67986,-1.0911 1.27435,-0.46599 2.75581,-0.80708 3.76399,-1.17627 0.72154,-0.14549 0.90225,-0.0324 1.08233,0.18214 0.1842,0.21953 0.20786,1.46995 0.20448,1.89168 -10e-4,0.10124 -2.55407,0.53464 -3.66186,1.01209 -0.97734,0.42115 -1.90008,0.82868 -2.77999,1.17723 -1.17242,0.46435 -2.26853,0.82393 -3.31559,0.97095 -3.78875,0.53195 -7.67019,-1.17332 -9.58279,-3.34679 -1.49319,-1.69713 -2.25026,-3.75005 -2.25945,-5.7275 0.009,-1.97755 0.76626,-3.95949 2.25945,-5.65657 1.9126,-2.17363 5.79404,-3.87885 9.58279,-3.34695 z m 3.59712,16.23714 -0.33904,-0.76087 -1.82044,0.68266 0.33903,0.72782 1.82045,-0.64961 z m -4.42485,0.99229 0.0339,-0.79394 -2.00048,-0.19851 -0.1017,0.86016 2.06827,0.13229 z m -6.19423,-1.64216 1.65087,1.01362 0.37294,-0.92632 -1.54282,-0.89322 -0.48099,0.80592 z m -2.9672,-2.71055 1.0217,1.17126 0.5253,-0.594 -0.96858,-1.05444 -0.57842,0.47718 z m 12.8912,-10.09852 0.33903,-0.76088 -1.82044,-0.64961 -0.33909,0.72782 1.8205,0.68267 z m -12.8912,2.51562 0.57842,0.47719 0.96858,-1.05445 -0.5253,-0.59395 -1.0217,1.17121 z m 2.61116,-2.62674 0.48104,0.80598 1.54283,-0.89322 -0.37294,-0.92633 -1.65093,1.01357 z m 4.12606,-1.50982 0.10171,0.86016 2.00047,-0.19851 -0.0339,-0.79399 -2.06828,0.13234 z" /></g><g
   id="g3129"><g
     id="g1618-2-2"
     transform="matrix(0,0.11936616,-0.1206336,0,94.097929,728.54847)"><path
       d="m -1740.04,-1437.97 c 20.65,0 37.37,-16.55 37.37,-36.95 0,-20.4 -16.72,-36.95 -37.37,-36.95 -20.62,0 -37.35,16.55 -37.35,36.95 0,20.4 16.73,36.95 37.35,36.95 z"
       style="fill:none;stroke:#ed1c24;stroke-width:1.79053998;stroke-linecap:butt;stroke-linejoin:miter;stroke-miterlimit:4;stroke-opacity:1;stroke-dasharray:none"
       id="path1620-9-1"
       inkscape:connector-curvature="0" /></g><g
     id="g1622-42-0"
     transform="matrix(0,0.11936616,-0.1206336,0,94.097929,728.54847)"><path
       d="m -3051.56,-1437.68 c 20.61,0 37.34,-16.55 37.34,-36.95 0,-20.4 -16.73,-36.94 -37.34,-36.94 -20.66,0 -37.38,16.54 -37.38,36.94 0,20.4 16.72,36.95 37.38,36.95 z"
       style="fill:none;stroke:#ed1c24;stroke-width:1.79053998;stroke-linecap:butt;stroke-linejoin:miter;stroke-miterlimit:4;stroke-opacity:1;stroke-dasharray:none"
       id="path1624-9-2"
       inkscape:connector-curvature="0" /></g><g
     id="g1626-0-2"
     transform="matrix(0,0.11936616,-0.1206336,0,94.097929,728.54847)"><path
       d="m -3051.53,-3182.89 c 20.62,0 37.34,-16.51 37.34,-36.91 0,-20.4 -16.72,-36.95 -37.34,-36.95 -20.62,0 -37.34,16.55 -37.34,36.95 0,20.4 16.72,36.91 37.34,36.91 z"
       style="fill:none;stroke:#ed1c24;stroke-width:1.79053998;stroke-linecap:butt;stroke-linejoin:miter;stroke-miterlimit:4;stroke-opacity:1;stroke-dasharray:none"
       id="path1628-8-8"
       inkscape:connector-curvature="0" /></g><g
     id="g1630-8-9"
     transform="matrix(0,0.11936616,-0.1206336,0,94.097929,728.54847)"><path
       d="m -1740.04,-3182.89 c 20.65,0 37.37,-16.51 37.37,-36.91 0,-20.4 -16.72,-36.95 -37.37,-36.95 -20.62,0 -37.35,16.55 -37.35,36.95 0,20.4 16.73,36.91 37.35,36.91 z"
       style="fill:none;stroke:#ed1c24;stroke-width:1.79053998;stroke-linecap:butt;stroke-linejoin:miter;stroke-miterlimit:4;stroke-opacity:1;stroke-dasharray:none"
       id="path1632-2-4"
       inkscape:connector-curvature="0" /></g><g
     style="stroke-width:0.29184054;stroke-miterlimit:2.61313009;stroke-dasharray:none"
     id="g1648-1-46"
     transform="matrix(-0.96823282,0,0,-0.56576549,-1276.7841,1748.4257)"><path
       sodipodi:nodetypes="ccccccccc"
       d="m -1792.1048,2452.77 169.5314,0 c 17.42,0 15.6934,-14.02 15.6934,-31.43 l 0,-224.24 c 0,-17.4 1.7266,-31.42 -15.6934,-31.42 l -169.5314,0 c -17.45,0 -15.7352,14.02 -15.7352,31.42 l 0,224.24 c 0,17.41 -1.7148,31.43 15.7352,31.43 z"
       style="fill:none;stroke:#ed1c24;stroke-width:0.29184054;stroke-linecap:butt;stroke-linejoin:miter;stroke-miterlimit:2.61313009;stroke-opacity:1;stroke-dasharray:none"
       id="path1650-3-4"
       inkscape:connector-curvature="0" /></g><path
     d="m 269.66633,353.3433 213.3432,0 c 3.8988,0 7.0884,3.1896 7.0884,7.0896 l 0,163.0272 c 0,3.8988 -3.1896,7.0884 -7.0884,7.0884 l -213.3432,0 c -3.8988,0 -7.0884,-3.1896 -7.0884,-7.0884 l 0,-163.0272 c 0,-3.9 3.1896,-7.0896 7.0884,-7.0896 z"
     style="fill:none;stroke:#ed1c24;stroke-width:0.216;stroke-linecap:butt;stroke-linejoin:miter;stroke-miterlimit:2.61313009;stroke-opacity:1;stroke-dasharray:none"
     id="path1670-8-0"
     inkscape:connector-curvature="0" /></g></g></svg>