G04 (created by PCBNEW-RS274X (2011-07-19)-testing) date Tue 10 Jan 2012 03:03:46 PM PST*
G01*
G70*
G90*
%MOIN*%
G04 Gerber Fmt 3.4, Leading zero omitted, Abs format*
%FSLAX34Y34*%
G04 APERTURE LIST*
%ADD10C,0.006000*%
%ADD11C,0.012000*%
%ADD12C,0.015000*%
%ADD13C,0.005000*%
%ADD14C,0.010000*%
G04 APERTURE END LIST*
G54D10*
G54D11*
X42139Y-28524D02*
X42139Y-27724D01*
X42139Y-28029D02*
X42196Y-27990D01*
X42310Y-27990D01*
X42367Y-28029D01*
X42396Y-28067D01*
X42425Y-28143D01*
X42425Y-28371D01*
X42396Y-28448D01*
X42367Y-28486D01*
X42310Y-28524D01*
X42196Y-28524D01*
X42139Y-28486D01*
X42939Y-27990D02*
X42939Y-28524D01*
X42682Y-27990D02*
X42682Y-28410D01*
X42710Y-28486D01*
X42768Y-28524D01*
X42853Y-28524D01*
X42910Y-28486D01*
X42939Y-28448D01*
X43139Y-27990D02*
X43368Y-27990D01*
X43225Y-27724D02*
X43225Y-28410D01*
X43253Y-28486D01*
X43311Y-28524D01*
X43368Y-28524D01*
X43482Y-27990D02*
X43711Y-27990D01*
X43568Y-27724D02*
X43568Y-28410D01*
X43596Y-28486D01*
X43654Y-28524D01*
X43711Y-28524D01*
X43997Y-28524D02*
X43939Y-28486D01*
X43911Y-28448D01*
X43882Y-28371D01*
X43882Y-28143D01*
X43911Y-28067D01*
X43939Y-28029D01*
X43997Y-27990D01*
X44082Y-27990D01*
X44139Y-28029D01*
X44168Y-28067D01*
X44197Y-28143D01*
X44197Y-28371D01*
X44168Y-28448D01*
X44139Y-28486D01*
X44082Y-28524D01*
X43997Y-28524D01*
X44454Y-27990D02*
X44454Y-28524D01*
X44454Y-28067D02*
X44482Y-28029D01*
X44540Y-27990D01*
X44625Y-27990D01*
X44682Y-28029D01*
X44711Y-28105D01*
X44711Y-28524D01*
X32090Y-28524D02*
X32090Y-27724D01*
X32318Y-27724D01*
X32376Y-27762D01*
X32404Y-27800D01*
X32433Y-27876D01*
X32433Y-27990D01*
X32404Y-28067D01*
X32376Y-28105D01*
X32318Y-28143D01*
X32090Y-28143D01*
X32804Y-27724D02*
X32918Y-27724D01*
X32976Y-27762D01*
X33033Y-27838D01*
X33061Y-27990D01*
X33061Y-28257D01*
X33033Y-28410D01*
X32976Y-28486D01*
X32918Y-28524D01*
X32804Y-28524D01*
X32747Y-28486D01*
X32690Y-28410D01*
X32661Y-28257D01*
X32661Y-27990D01*
X32690Y-27838D01*
X32747Y-27762D01*
X32804Y-27724D01*
X33233Y-27724D02*
X33576Y-27724D01*
X33405Y-28524D02*
X33405Y-27724D01*
X33747Y-27800D02*
X33776Y-27762D01*
X33833Y-27724D01*
X33976Y-27724D01*
X34033Y-27762D01*
X34062Y-27800D01*
X34090Y-27876D01*
X34090Y-27952D01*
X34062Y-28067D01*
X33719Y-28524D01*
X34090Y-28524D01*
X25840Y-29799D02*
X25840Y-28999D01*
X26068Y-28999D01*
X26126Y-29037D01*
X26154Y-29075D01*
X26183Y-29151D01*
X26183Y-29265D01*
X26154Y-29342D01*
X26126Y-29380D01*
X26068Y-29418D01*
X25840Y-29418D01*
X26554Y-28999D02*
X26668Y-28999D01*
X26726Y-29037D01*
X26783Y-29113D01*
X26811Y-29265D01*
X26811Y-29532D01*
X26783Y-29685D01*
X26726Y-29761D01*
X26668Y-29799D01*
X26554Y-29799D01*
X26497Y-29761D01*
X26440Y-29685D01*
X26411Y-29532D01*
X26411Y-29265D01*
X26440Y-29113D01*
X26497Y-29037D01*
X26554Y-28999D01*
X26983Y-28999D02*
X27326Y-28999D01*
X27155Y-29799D02*
X27155Y-28999D01*
X27840Y-29799D02*
X27497Y-29799D01*
X27669Y-29799D02*
X27669Y-28999D01*
X27612Y-29113D01*
X27554Y-29189D01*
X27497Y-29227D01*
X34154Y-32723D02*
X34125Y-32761D01*
X34039Y-32799D01*
X33982Y-32799D01*
X33897Y-32761D01*
X33839Y-32685D01*
X33811Y-32608D01*
X33782Y-32456D01*
X33782Y-32342D01*
X33811Y-32189D01*
X33839Y-32113D01*
X33897Y-32037D01*
X33982Y-31999D01*
X34039Y-31999D01*
X34125Y-32037D01*
X34154Y-32075D01*
X34668Y-32799D02*
X34668Y-32380D01*
X34639Y-32304D01*
X34582Y-32265D01*
X34468Y-32265D01*
X34411Y-32304D01*
X34668Y-32761D02*
X34611Y-32799D01*
X34468Y-32799D01*
X34411Y-32761D01*
X34382Y-32685D01*
X34382Y-32608D01*
X34411Y-32532D01*
X34468Y-32494D01*
X34611Y-32494D01*
X34668Y-32456D01*
X35040Y-32799D02*
X34982Y-32761D01*
X34954Y-32685D01*
X34954Y-31999D01*
X35268Y-32799D02*
X35268Y-32265D01*
X35268Y-31999D02*
X35239Y-32037D01*
X35268Y-32075D01*
X35296Y-32037D01*
X35268Y-31999D01*
X35268Y-32075D01*
X35554Y-32799D02*
X35554Y-31999D01*
X35554Y-32304D02*
X35611Y-32265D01*
X35725Y-32265D01*
X35782Y-32304D01*
X35811Y-32342D01*
X35840Y-32418D01*
X35840Y-32646D01*
X35811Y-32723D01*
X35782Y-32761D01*
X35725Y-32799D01*
X35611Y-32799D01*
X35554Y-32761D01*
X36097Y-32799D02*
X36097Y-32265D01*
X36097Y-32418D02*
X36125Y-32342D01*
X36154Y-32304D01*
X36211Y-32265D01*
X36268Y-32265D01*
X36725Y-32799D02*
X36725Y-32380D01*
X36696Y-32304D01*
X36639Y-32265D01*
X36525Y-32265D01*
X36468Y-32304D01*
X36725Y-32761D02*
X36668Y-32799D01*
X36525Y-32799D01*
X36468Y-32761D01*
X36439Y-32685D01*
X36439Y-32608D01*
X36468Y-32532D01*
X36525Y-32494D01*
X36668Y-32494D01*
X36725Y-32456D01*
X36925Y-32265D02*
X37154Y-32265D01*
X37011Y-31999D02*
X37011Y-32685D01*
X37039Y-32761D01*
X37097Y-32799D01*
X37154Y-32799D01*
X37354Y-32799D02*
X37354Y-32265D01*
X37354Y-31999D02*
X37325Y-32037D01*
X37354Y-32075D01*
X37382Y-32037D01*
X37354Y-31999D01*
X37354Y-32075D01*
X37726Y-32799D02*
X37668Y-32761D01*
X37640Y-32723D01*
X37611Y-32646D01*
X37611Y-32418D01*
X37640Y-32342D01*
X37668Y-32304D01*
X37726Y-32265D01*
X37811Y-32265D01*
X37868Y-32304D01*
X37897Y-32342D01*
X37926Y-32418D01*
X37926Y-32646D01*
X37897Y-32723D01*
X37868Y-32761D01*
X37811Y-32799D01*
X37726Y-32799D01*
X38183Y-32265D02*
X38183Y-32799D01*
X38183Y-32342D02*
X38211Y-32304D01*
X38269Y-32265D01*
X38354Y-32265D01*
X38411Y-32304D01*
X38440Y-32380D01*
X38440Y-32799D01*
X33543Y-42599D02*
X33543Y-41799D01*
X33943Y-41799D02*
X34057Y-41799D01*
X34115Y-41837D01*
X34172Y-41913D01*
X34200Y-42065D01*
X34200Y-42332D01*
X34172Y-42485D01*
X34115Y-42561D01*
X34057Y-42599D01*
X33943Y-42599D01*
X33886Y-42561D01*
X33829Y-42485D01*
X33800Y-42332D01*
X33800Y-42065D01*
X33829Y-41913D01*
X33886Y-41837D01*
X33943Y-41799D01*
X35258Y-42599D02*
X35058Y-42218D01*
X34915Y-42599D02*
X34915Y-41799D01*
X35143Y-41799D01*
X35201Y-41837D01*
X35229Y-41875D01*
X35258Y-41951D01*
X35258Y-42065D01*
X35229Y-42142D01*
X35201Y-42180D01*
X35143Y-42218D01*
X34915Y-42218D01*
X35601Y-42599D02*
X35543Y-42561D01*
X35515Y-42523D01*
X35486Y-42446D01*
X35486Y-42218D01*
X35515Y-42142D01*
X35543Y-42104D01*
X35601Y-42065D01*
X35686Y-42065D01*
X35743Y-42104D01*
X35772Y-42142D01*
X35801Y-42218D01*
X35801Y-42446D01*
X35772Y-42523D01*
X35743Y-42561D01*
X35686Y-42599D01*
X35601Y-42599D01*
X36315Y-42599D02*
X36315Y-41799D01*
X36315Y-42561D02*
X36258Y-42599D01*
X36144Y-42599D01*
X36086Y-42561D01*
X36058Y-42523D01*
X36029Y-42446D01*
X36029Y-42218D01*
X36058Y-42142D01*
X36086Y-42104D01*
X36144Y-42065D01*
X36258Y-42065D01*
X36315Y-42104D01*
X36829Y-42561D02*
X36772Y-42599D01*
X36658Y-42599D01*
X36601Y-42561D01*
X36572Y-42485D01*
X36572Y-42180D01*
X36601Y-42104D01*
X36658Y-42065D01*
X36772Y-42065D01*
X36829Y-42104D01*
X36858Y-42180D01*
X36858Y-42256D01*
X36572Y-42332D01*
X37201Y-42599D02*
X37143Y-42561D01*
X37115Y-42523D01*
X37086Y-42446D01*
X37086Y-42218D01*
X37115Y-42142D01*
X37143Y-42104D01*
X37201Y-42065D01*
X37286Y-42065D01*
X37343Y-42104D01*
X37372Y-42142D01*
X37401Y-42218D01*
X37401Y-42446D01*
X37372Y-42523D01*
X37343Y-42561D01*
X37286Y-42599D01*
X37201Y-42599D01*
X38115Y-42599D02*
X38115Y-41799D01*
X38401Y-42065D02*
X38401Y-42599D01*
X38401Y-42142D02*
X38429Y-42104D01*
X38487Y-42065D01*
X38572Y-42065D01*
X38629Y-42104D01*
X38658Y-42180D01*
X38658Y-42599D01*
X39201Y-42561D02*
X39144Y-42599D01*
X39030Y-42599D01*
X38972Y-42561D01*
X38944Y-42523D01*
X38915Y-42446D01*
X38915Y-42218D01*
X38944Y-42142D01*
X38972Y-42104D01*
X39030Y-42065D01*
X39144Y-42065D01*
X39201Y-42104D01*
X39458Y-42523D02*
X39486Y-42561D01*
X39458Y-42599D01*
X39429Y-42561D01*
X39458Y-42523D01*
X39458Y-42599D01*
X30058Y-43763D02*
X30029Y-43801D01*
X29943Y-43839D01*
X29886Y-43839D01*
X29801Y-43801D01*
X29743Y-43725D01*
X29715Y-43648D01*
X29686Y-43496D01*
X29686Y-43382D01*
X29715Y-43229D01*
X29743Y-43153D01*
X29801Y-43077D01*
X29886Y-43039D01*
X29943Y-43039D01*
X30029Y-43077D01*
X30058Y-43115D01*
X30401Y-43839D02*
X30343Y-43801D01*
X30315Y-43763D01*
X30286Y-43686D01*
X30286Y-43458D01*
X30315Y-43382D01*
X30343Y-43344D01*
X30401Y-43305D01*
X30486Y-43305D01*
X30543Y-43344D01*
X30572Y-43382D01*
X30601Y-43458D01*
X30601Y-43686D01*
X30572Y-43763D01*
X30543Y-43801D01*
X30486Y-43839D01*
X30401Y-43839D01*
X30944Y-43839D02*
X30886Y-43801D01*
X30858Y-43725D01*
X30858Y-43039D01*
X31258Y-43839D02*
X31200Y-43801D01*
X31172Y-43763D01*
X31143Y-43686D01*
X31143Y-43458D01*
X31172Y-43382D01*
X31200Y-43344D01*
X31258Y-43305D01*
X31343Y-43305D01*
X31400Y-43344D01*
X31429Y-43382D01*
X31458Y-43458D01*
X31458Y-43686D01*
X31429Y-43763D01*
X31400Y-43801D01*
X31343Y-43839D01*
X31258Y-43839D01*
X31715Y-43839D02*
X31715Y-43305D01*
X31715Y-43458D02*
X31743Y-43382D01*
X31772Y-43344D01*
X31829Y-43305D01*
X31886Y-43305D01*
X32086Y-43839D02*
X32086Y-43305D01*
X32086Y-43039D02*
X32057Y-43077D01*
X32086Y-43115D01*
X32114Y-43077D01*
X32086Y-43039D01*
X32086Y-43115D01*
X32372Y-43839D02*
X32372Y-43305D01*
X32372Y-43382D02*
X32400Y-43344D01*
X32458Y-43305D01*
X32543Y-43305D01*
X32600Y-43344D01*
X32629Y-43420D01*
X32629Y-43839D01*
X32629Y-43420D02*
X32658Y-43344D01*
X32715Y-43305D01*
X32800Y-43305D01*
X32858Y-43344D01*
X32886Y-43420D01*
X32886Y-43839D01*
X33400Y-43801D02*
X33343Y-43839D01*
X33229Y-43839D01*
X33172Y-43801D01*
X33143Y-43725D01*
X33143Y-43420D01*
X33172Y-43344D01*
X33229Y-43305D01*
X33343Y-43305D01*
X33400Y-43344D01*
X33429Y-43420D01*
X33429Y-43496D01*
X33143Y-43572D01*
X33600Y-43305D02*
X33829Y-43305D01*
X33686Y-43039D02*
X33686Y-43725D01*
X33714Y-43801D01*
X33772Y-43839D01*
X33829Y-43839D01*
X34257Y-43801D02*
X34200Y-43839D01*
X34086Y-43839D01*
X34029Y-43801D01*
X34000Y-43725D01*
X34000Y-43420D01*
X34029Y-43344D01*
X34086Y-43305D01*
X34200Y-43305D01*
X34257Y-43344D01*
X34286Y-43420D01*
X34286Y-43496D01*
X34000Y-43572D01*
X34543Y-43839D02*
X34543Y-43305D01*
X34543Y-43458D02*
X34571Y-43382D01*
X34600Y-43344D01*
X34657Y-43305D01*
X34714Y-43305D01*
X35342Y-43801D02*
X35399Y-43839D01*
X35514Y-43839D01*
X35571Y-43801D01*
X35599Y-43725D01*
X35599Y-43686D01*
X35571Y-43610D01*
X35514Y-43572D01*
X35428Y-43572D01*
X35371Y-43534D01*
X35342Y-43458D01*
X35342Y-43420D01*
X35371Y-43344D01*
X35428Y-43305D01*
X35514Y-43305D01*
X35571Y-43344D01*
X35857Y-43839D02*
X35857Y-43039D01*
X36114Y-43839D02*
X36114Y-43420D01*
X36085Y-43344D01*
X36028Y-43305D01*
X35943Y-43305D01*
X35885Y-43344D01*
X35857Y-43382D01*
X36400Y-43839D02*
X36400Y-43305D01*
X36400Y-43039D02*
X36371Y-43077D01*
X36400Y-43115D01*
X36428Y-43077D01*
X36400Y-43039D01*
X36400Y-43115D01*
X36914Y-43801D02*
X36857Y-43839D01*
X36743Y-43839D01*
X36686Y-43801D01*
X36657Y-43725D01*
X36657Y-43420D01*
X36686Y-43344D01*
X36743Y-43305D01*
X36857Y-43305D01*
X36914Y-43344D01*
X36943Y-43420D01*
X36943Y-43496D01*
X36657Y-43572D01*
X37286Y-43839D02*
X37228Y-43801D01*
X37200Y-43725D01*
X37200Y-43039D01*
X37771Y-43839D02*
X37771Y-43039D01*
X37771Y-43801D02*
X37714Y-43839D01*
X37600Y-43839D01*
X37542Y-43801D01*
X37514Y-43763D01*
X37485Y-43686D01*
X37485Y-43458D01*
X37514Y-43382D01*
X37542Y-43344D01*
X37600Y-43305D01*
X37714Y-43305D01*
X37771Y-43344D01*
X38428Y-43305D02*
X38657Y-43305D01*
X38514Y-43839D02*
X38514Y-43153D01*
X38542Y-43077D01*
X38600Y-43039D01*
X38657Y-43039D01*
X38943Y-43839D02*
X38885Y-43801D01*
X38857Y-43763D01*
X38828Y-43686D01*
X38828Y-43458D01*
X38857Y-43382D01*
X38885Y-43344D01*
X38943Y-43305D01*
X39028Y-43305D01*
X39085Y-43344D01*
X39114Y-43382D01*
X39143Y-43458D01*
X39143Y-43686D01*
X39114Y-43763D01*
X39085Y-43801D01*
X39028Y-43839D01*
X38943Y-43839D01*
X39400Y-43839D02*
X39400Y-43305D01*
X39400Y-43458D02*
X39428Y-43382D01*
X39457Y-43344D01*
X39514Y-43305D01*
X39571Y-43305D01*
X40199Y-43610D02*
X40485Y-43610D01*
X40142Y-43839D02*
X40342Y-43039D01*
X40542Y-43839D01*
X40742Y-43839D02*
X40742Y-43305D01*
X40742Y-43458D02*
X40770Y-43382D01*
X40799Y-43344D01*
X40856Y-43305D01*
X40913Y-43305D01*
X41370Y-43839D02*
X41370Y-43039D01*
X41370Y-43801D02*
X41313Y-43839D01*
X41199Y-43839D01*
X41141Y-43801D01*
X41113Y-43763D01*
X41084Y-43686D01*
X41084Y-43458D01*
X41113Y-43382D01*
X41141Y-43344D01*
X41199Y-43305D01*
X41313Y-43305D01*
X41370Y-43344D01*
X41913Y-43305D02*
X41913Y-43839D01*
X41656Y-43305D02*
X41656Y-43725D01*
X41684Y-43801D01*
X41742Y-43839D01*
X41827Y-43839D01*
X41884Y-43801D01*
X41913Y-43763D01*
X42199Y-43839D02*
X42199Y-43305D01*
X42199Y-43039D02*
X42170Y-43077D01*
X42199Y-43115D01*
X42227Y-43077D01*
X42199Y-43039D01*
X42199Y-43115D01*
X42485Y-43305D02*
X42485Y-43839D01*
X42485Y-43382D02*
X42513Y-43344D01*
X42571Y-43305D01*
X42656Y-43305D01*
X42713Y-43344D01*
X42742Y-43420D01*
X42742Y-43839D01*
X43114Y-43839D02*
X43056Y-43801D01*
X43028Y-43763D01*
X42999Y-43686D01*
X42999Y-43458D01*
X43028Y-43382D01*
X43056Y-43344D01*
X43114Y-43305D01*
X43199Y-43305D01*
X43256Y-43344D01*
X43285Y-43382D01*
X43314Y-43458D01*
X43314Y-43686D01*
X43285Y-43763D01*
X43256Y-43801D01*
X43199Y-43839D01*
X43114Y-43839D01*
G54D12*
X34217Y-34412D02*
X34213Y-34450D01*
X34202Y-34487D01*
X34184Y-34521D01*
X34159Y-34550D01*
X34130Y-34575D01*
X34096Y-34593D01*
X34059Y-34604D01*
X34021Y-34608D01*
X33984Y-34605D01*
X33947Y-34594D01*
X33913Y-34576D01*
X33883Y-34552D01*
X33858Y-34523D01*
X33839Y-34489D01*
X33828Y-34452D01*
X33824Y-34414D01*
X33827Y-34377D01*
X33837Y-34340D01*
X33855Y-34306D01*
X33879Y-34276D01*
X33908Y-34251D01*
X33942Y-34232D01*
X33978Y-34220D01*
X34016Y-34216D01*
X34054Y-34218D01*
X34091Y-34229D01*
X34125Y-34246D01*
X34155Y-34270D01*
X34180Y-34299D01*
X34199Y-34332D01*
X34212Y-34369D01*
X34216Y-34407D01*
X34217Y-34412D01*
X34493Y-34058D02*
X37957Y-34058D01*
X37957Y-34058D02*
X37957Y-36892D01*
X37957Y-36892D02*
X34493Y-36892D01*
X34493Y-36892D02*
X34493Y-34058D01*
G54D13*
X30000Y-40725D02*
X29999Y-40734D01*
X29996Y-40744D01*
X29991Y-40752D01*
X29985Y-40760D01*
X29977Y-40766D01*
X29969Y-40771D01*
X29960Y-40773D01*
X29950Y-40774D01*
X29941Y-40774D01*
X29932Y-40771D01*
X29923Y-40766D01*
X29916Y-40760D01*
X29909Y-40753D01*
X29905Y-40744D01*
X29902Y-40735D01*
X29901Y-40725D01*
X29901Y-40716D01*
X29904Y-40707D01*
X29908Y-40698D01*
X29915Y-40691D01*
X29922Y-40684D01*
X29930Y-40680D01*
X29940Y-40677D01*
X29949Y-40676D01*
X29958Y-40676D01*
X29968Y-40679D01*
X29976Y-40683D01*
X29984Y-40689D01*
X29990Y-40697D01*
X29995Y-40705D01*
X29998Y-40714D01*
X29999Y-40724D01*
X30000Y-40725D01*
X30400Y-40725D02*
X30000Y-40725D01*
X30000Y-40725D02*
X30000Y-40125D01*
X30000Y-40125D02*
X30400Y-40125D01*
X30800Y-40125D02*
X31200Y-40125D01*
X31200Y-40125D02*
X31200Y-40725D01*
X31200Y-40725D02*
X30800Y-40725D01*
G54D12*
X23525Y-35950D02*
X30025Y-35950D01*
X23525Y-30200D02*
X30025Y-30200D01*
X30025Y-30200D02*
X30025Y-35950D01*
X23525Y-30200D02*
X23525Y-35950D01*
G54D10*
X37800Y-27650D02*
X37800Y-28650D01*
X37800Y-28650D02*
X34800Y-28650D01*
X34800Y-28650D02*
X34800Y-27650D01*
X34800Y-27650D02*
X37800Y-27650D01*
X36800Y-28650D02*
X36800Y-27650D01*
X47100Y-27750D02*
X47100Y-28750D01*
X47100Y-28750D02*
X45100Y-28750D01*
X45100Y-28750D02*
X45100Y-27750D01*
X45100Y-27750D02*
X47100Y-27750D01*
G54D12*
X42510Y-39880D02*
X42510Y-31880D01*
X42510Y-31880D02*
X46310Y-31880D01*
X46310Y-31880D02*
X46310Y-39880D01*
X46310Y-39880D02*
X42510Y-39880D01*
X47284Y-38597D02*
X47284Y-37415D01*
X46571Y-37992D02*
X47271Y-38592D01*
X47270Y-37392D02*
X46570Y-37992D01*
X48575Y-30425D02*
X48575Y-25925D01*
X48575Y-25925D02*
X48075Y-25425D01*
X48075Y-25425D02*
X22575Y-25425D01*
X48575Y-46425D02*
X22575Y-46425D01*
X22575Y-46425D02*
X22575Y-25425D01*
X48575Y-30425D02*
X49575Y-31425D01*
X49575Y-31425D02*
X49575Y-44425D01*
X49575Y-44425D02*
X48575Y-45425D01*
X48575Y-45425D02*
X48575Y-46425D01*
X27600Y-40950D02*
X27600Y-39950D01*
X27600Y-39950D02*
X23600Y-39950D01*
X23600Y-39950D02*
X23600Y-40950D01*
X23600Y-40950D02*
X27600Y-40950D01*
G54D11*
X35450Y-38789D02*
X35536Y-38818D01*
X35679Y-38818D01*
X35736Y-38789D01*
X35765Y-38761D01*
X35793Y-38704D01*
X35793Y-38646D01*
X35765Y-38589D01*
X35736Y-38561D01*
X35679Y-38532D01*
X35565Y-38504D01*
X35507Y-38475D01*
X35479Y-38446D01*
X35450Y-38389D01*
X35450Y-38332D01*
X35479Y-38275D01*
X35507Y-38246D01*
X35565Y-38218D01*
X35707Y-38218D01*
X35793Y-38246D01*
X35993Y-38218D02*
X36136Y-38818D01*
X36250Y-38389D01*
X36364Y-38818D01*
X36507Y-38218D01*
X37050Y-38818D02*
X36707Y-38818D01*
X36879Y-38818D02*
X36879Y-38218D01*
X36822Y-38304D01*
X36764Y-38361D01*
X36707Y-38389D01*
G54D13*
X31733Y-40502D02*
X31721Y-40514D01*
X31686Y-40526D01*
X31662Y-40526D01*
X31626Y-40514D01*
X31602Y-40490D01*
X31591Y-40467D01*
X31579Y-40419D01*
X31579Y-40383D01*
X31591Y-40336D01*
X31602Y-40312D01*
X31626Y-40288D01*
X31662Y-40276D01*
X31686Y-40276D01*
X31721Y-40288D01*
X31733Y-40300D01*
X31971Y-40526D02*
X31829Y-40526D01*
X31900Y-40526D02*
X31900Y-40276D01*
X31876Y-40312D01*
X31852Y-40336D01*
X31829Y-40348D01*
G54D11*
X26669Y-37193D02*
X26469Y-36907D01*
X26326Y-37193D02*
X26326Y-36593D01*
X26554Y-36593D01*
X26612Y-36621D01*
X26640Y-36650D01*
X26669Y-36707D01*
X26669Y-36793D01*
X26640Y-36850D01*
X26612Y-36879D01*
X26554Y-36907D01*
X26326Y-36907D01*
X26840Y-36593D02*
X27040Y-37193D01*
X27240Y-36593D01*
X27754Y-37193D02*
X27411Y-37193D01*
X27583Y-37193D02*
X27583Y-36593D01*
X27526Y-36679D01*
X27468Y-36736D01*
X27411Y-36764D01*
G54D10*
X38255Y-28287D02*
X38255Y-27887D01*
X38484Y-28287D02*
X38312Y-28058D01*
X38484Y-27887D02*
X38255Y-28115D01*
X38865Y-28287D02*
X38636Y-28287D01*
X38750Y-28287D02*
X38750Y-27887D01*
X38712Y-27944D01*
X38674Y-27982D01*
X38636Y-28001D01*
X47528Y-28346D02*
X47528Y-28046D01*
X47643Y-28046D01*
X47671Y-28061D01*
X47686Y-28075D01*
X47700Y-28104D01*
X47700Y-28146D01*
X47686Y-28175D01*
X47671Y-28189D01*
X47643Y-28204D01*
X47528Y-28204D01*
X47957Y-28146D02*
X47957Y-28346D01*
X47886Y-28032D02*
X47814Y-28246D01*
X48000Y-28246D01*
G54D11*
X45053Y-41222D02*
X44453Y-41222D01*
X44453Y-40994D01*
X44481Y-40936D01*
X44510Y-40908D01*
X44567Y-40879D01*
X44653Y-40879D01*
X44710Y-40908D01*
X44739Y-40936D01*
X44767Y-40994D01*
X44767Y-41222D01*
X44510Y-40651D02*
X44481Y-40622D01*
X44453Y-40565D01*
X44453Y-40422D01*
X44481Y-40365D01*
X44510Y-40336D01*
X44567Y-40308D01*
X44624Y-40308D01*
X44710Y-40336D01*
X45053Y-40679D01*
X45053Y-40308D01*
G54D14*
X43352Y-34046D02*
X43352Y-34332D01*
X43352Y-34189D02*
X42852Y-34189D01*
X42924Y-34237D01*
X42971Y-34284D01*
X42995Y-34332D01*
X42852Y-33737D02*
X42852Y-33689D01*
X42876Y-33641D01*
X42900Y-33618D01*
X42948Y-33594D01*
X43043Y-33570D01*
X43162Y-33570D01*
X43257Y-33594D01*
X43305Y-33618D01*
X43329Y-33641D01*
X43352Y-33689D01*
X43352Y-33737D01*
X43329Y-33784D01*
X43305Y-33808D01*
X43257Y-33832D01*
X43162Y-33856D01*
X43043Y-33856D01*
X42948Y-33832D01*
X42900Y-33808D01*
X42876Y-33784D01*
X42852Y-33737D01*
X45990Y-33928D02*
X45990Y-33833D01*
X45967Y-33785D01*
X45943Y-33761D01*
X45871Y-33714D01*
X45776Y-33690D01*
X45586Y-33690D01*
X45538Y-33714D01*
X45514Y-33738D01*
X45490Y-33785D01*
X45490Y-33881D01*
X45514Y-33928D01*
X45538Y-33952D01*
X45586Y-33976D01*
X45705Y-33976D01*
X45752Y-33952D01*
X45776Y-33928D01*
X45800Y-33881D01*
X45800Y-33785D01*
X45776Y-33738D01*
X45752Y-33714D01*
X45705Y-33690D01*
X42900Y-38031D02*
X42876Y-38007D01*
X42852Y-37959D01*
X42852Y-37840D01*
X42876Y-37793D01*
X42900Y-37769D01*
X42948Y-37745D01*
X42995Y-37745D01*
X43067Y-37769D01*
X43352Y-38055D01*
X43352Y-37745D01*
G54D11*
X28083Y-40718D02*
X28083Y-40118D01*
X28311Y-40118D01*
X28369Y-40146D01*
X28397Y-40175D01*
X28426Y-40232D01*
X28426Y-40318D01*
X28397Y-40375D01*
X28369Y-40404D01*
X28311Y-40432D01*
X28083Y-40432D01*
X28997Y-40718D02*
X28654Y-40718D01*
X28826Y-40718D02*
X28826Y-40118D01*
X28769Y-40204D01*
X28711Y-40261D01*
X28654Y-40289D01*
M02*
