G04 (created by PCBNEW-RS274X (2011-07-19)-testing) date Tue 10 Jan 2012 03:03:46 PM PST*
G01*
G70*
G90*
%MOIN*%
G04 Gerber Fmt 3.4, Leading zero omitted, Abs format*
%FSLAX34Y34*%
G04 APERTURE LIST*
%ADD10C,0.006000*%
%ADD11C,0.047200*%
%ADD12C,0.035400*%
%ADD13C,0.085000*%
%ADD14C,0.160000*%
%ADD15R,0.060000X0.060000*%
%ADD16C,0.060000*%
%ADD17R,0.070000X0.070000*%
%ADD18C,0.070000*%
%ADD19O,0.060000X0.100000*%
%ADD20C,0.155000*%
%ADD21C,0.012000*%
%ADD22C,0.010000*%
G04 APERTURE END LIST*
G54D10*
G54D11*
X35093Y-35475D03*
G54D12*
X37357Y-35436D03*
G54D13*
X25295Y-35200D03*
X26775Y-35200D03*
X28255Y-35200D03*
G54D14*
X24605Y-31260D03*
X28945Y-31260D03*
G54D15*
X37300Y-28150D03*
G54D16*
X36300Y-28150D03*
X35300Y-28150D03*
G54D15*
X46600Y-28250D03*
G54D16*
X45600Y-28250D03*
G54D17*
X44910Y-37880D03*
G54D18*
X43910Y-37880D03*
X44910Y-36880D03*
X43910Y-36880D03*
X44910Y-35880D03*
X43910Y-35880D03*
X44910Y-34880D03*
X43910Y-34880D03*
X44910Y-33880D03*
X43910Y-33880D03*
G54D19*
X47575Y-45425D03*
X46575Y-45425D03*
X45575Y-45425D03*
X42575Y-45425D03*
X43575Y-45425D03*
X44575Y-45425D03*
X40575Y-45425D03*
X39575Y-45425D03*
X38575Y-45425D03*
X36575Y-45425D03*
X35575Y-45425D03*
X47575Y-26425D03*
X46575Y-26425D03*
X45575Y-26425D03*
X44575Y-26425D03*
X43575Y-26425D03*
X42575Y-26425D03*
X41575Y-26425D03*
X40575Y-26425D03*
X38975Y-26425D03*
X37975Y-26425D03*
X36975Y-26425D03*
X35975Y-26425D03*
X34975Y-26425D03*
X33975Y-26425D03*
X32975Y-26425D03*
X31975Y-26425D03*
X37575Y-45425D03*
G54D20*
X48575Y-43425D03*
X48575Y-32425D03*
X28575Y-26425D03*
X28075Y-45425D03*
G54D15*
X27100Y-40450D03*
G54D16*
X26100Y-40450D03*
X25100Y-40450D03*
X24100Y-40450D03*
G54D21*
X37575Y-45425D02*
X37575Y-46088D01*
X44041Y-46057D02*
X44041Y-38538D01*
X44010Y-46088D02*
X44041Y-46057D01*
X37575Y-46088D02*
X44010Y-46088D01*
X44252Y-38538D02*
X44041Y-38538D01*
X44910Y-37880D02*
X44252Y-38538D01*
X37300Y-32038D02*
X37300Y-28150D01*
X43800Y-38538D02*
X37300Y-32038D01*
X44041Y-38538D02*
X43800Y-38538D01*
X43061Y-35031D02*
X43910Y-35880D01*
X43061Y-32174D02*
X43061Y-35031D01*
X37975Y-27088D02*
X43061Y-32174D01*
X37975Y-26425D02*
X37975Y-27088D01*
X38975Y-26425D02*
X38975Y-27088D01*
X43331Y-34301D02*
X43910Y-34880D01*
X43331Y-31444D02*
X43331Y-34301D01*
X38975Y-27088D02*
X43331Y-31444D01*
X36975Y-26425D02*
X36975Y-27088D01*
X37416Y-27088D02*
X36975Y-27088D01*
X42661Y-32333D02*
X37416Y-27088D01*
X42661Y-35632D02*
X42661Y-32333D01*
X42662Y-35632D02*
X42661Y-35632D01*
X43910Y-36880D02*
X42662Y-35632D01*
X36300Y-37487D02*
X36300Y-28150D01*
X43575Y-44762D02*
X36300Y-37487D01*
X43575Y-45425D02*
X43575Y-44762D01*
X41865Y-35835D02*
X43910Y-37880D01*
X41865Y-31854D02*
X41865Y-35835D01*
X37650Y-27639D02*
X41865Y-31854D01*
X36526Y-27639D02*
X37650Y-27639D01*
X35975Y-27088D02*
X36526Y-27639D01*
X35975Y-26425D02*
X35975Y-27088D01*
X45654Y-35136D02*
X44910Y-35880D01*
X45654Y-29167D02*
X45654Y-35136D01*
X43575Y-27088D02*
X45654Y-29167D01*
X43575Y-26425D02*
X43575Y-27088D01*
X42575Y-26425D02*
X42575Y-27088D01*
X45430Y-34360D02*
X44910Y-34880D01*
X45430Y-29943D02*
X45430Y-34360D01*
X42575Y-27088D02*
X45430Y-29943D01*
X41575Y-26425D02*
X41575Y-27088D01*
X44910Y-30423D02*
X44910Y-33880D01*
X41575Y-27088D02*
X44910Y-30423D01*
X40575Y-26425D02*
X40575Y-27088D01*
X43910Y-30423D02*
X43910Y-33880D01*
X40575Y-27088D02*
X43910Y-30423D01*
X27515Y-38035D02*
X25100Y-40450D01*
X27515Y-34548D02*
X27515Y-38035D01*
X34975Y-27088D02*
X27515Y-34548D01*
X34975Y-26425D02*
X34975Y-27088D01*
X26171Y-38379D02*
X24100Y-40450D01*
X26171Y-34618D02*
X26171Y-38379D01*
X26205Y-34584D02*
X26171Y-34618D01*
X27162Y-34584D02*
X26205Y-34584D01*
X33975Y-27771D02*
X27162Y-34584D01*
X33975Y-26425D02*
X33975Y-27771D01*
X46220Y-35570D02*
X44910Y-36880D01*
X46220Y-28870D02*
X46220Y-35570D01*
X45600Y-28250D02*
X46220Y-28870D01*
X28255Y-38295D02*
X28255Y-35200D01*
X26100Y-40450D02*
X28255Y-38295D01*
G54D10*
G36*
X43198Y-44823D02*
X43118Y-44905D01*
X43075Y-45007D01*
X43033Y-44905D01*
X42881Y-44754D01*
X42683Y-44671D01*
X42468Y-44671D01*
X42269Y-44753D01*
X42118Y-44905D01*
X42035Y-45103D01*
X42035Y-45318D01*
X42035Y-45746D01*
X42048Y-45778D01*
X41102Y-45778D01*
X41115Y-45747D01*
X41115Y-45532D01*
X41115Y-45104D01*
X41033Y-44905D01*
X40881Y-44754D01*
X40683Y-44671D01*
X40468Y-44671D01*
X40269Y-44753D01*
X40118Y-44905D01*
X40075Y-45007D01*
X40033Y-44905D01*
X39881Y-44754D01*
X39683Y-44671D01*
X39468Y-44671D01*
X39269Y-44753D01*
X39118Y-44905D01*
X39075Y-45006D01*
X39064Y-44968D01*
X38928Y-44800D01*
X38738Y-44697D01*
X38710Y-44693D01*
X38625Y-44740D01*
X38625Y-45325D01*
X38625Y-45375D01*
X38625Y-45475D01*
X38525Y-45475D01*
X38525Y-45375D01*
X38525Y-45325D01*
X38525Y-44740D01*
X38440Y-44693D01*
X38412Y-44697D01*
X38222Y-44800D01*
X38086Y-44968D01*
X38074Y-45006D01*
X38033Y-44905D01*
X37881Y-44754D01*
X37683Y-44671D01*
X37468Y-44671D01*
X37269Y-44753D01*
X37118Y-44905D01*
X37075Y-45007D01*
X37033Y-44905D01*
X36881Y-44754D01*
X36683Y-44671D01*
X36468Y-44671D01*
X36269Y-44753D01*
X36118Y-44905D01*
X36075Y-45007D01*
X36033Y-44905D01*
X35881Y-44754D01*
X35683Y-44671D01*
X35608Y-44671D01*
X35608Y-28528D01*
X35300Y-28221D01*
X35229Y-28291D01*
X35229Y-28150D01*
X34922Y-27842D01*
X34828Y-27869D01*
X34757Y-28071D01*
X34768Y-28284D01*
X34828Y-28431D01*
X34922Y-28458D01*
X35229Y-28150D01*
X35229Y-28291D01*
X34992Y-28528D01*
X35019Y-28622D01*
X35221Y-28693D01*
X35434Y-28682D01*
X35581Y-28622D01*
X35608Y-28528D01*
X35608Y-44671D01*
X35579Y-44671D01*
X35579Y-35572D01*
X35579Y-35379D01*
X35505Y-35200D01*
X35369Y-35063D01*
X35190Y-34989D01*
X34997Y-34989D01*
X34818Y-35063D01*
X34681Y-35199D01*
X34607Y-35378D01*
X34607Y-35571D01*
X34681Y-35750D01*
X34817Y-35887D01*
X34996Y-35961D01*
X35189Y-35961D01*
X35368Y-35887D01*
X35505Y-35751D01*
X35579Y-35572D01*
X35579Y-44671D01*
X35468Y-44671D01*
X35269Y-44753D01*
X35118Y-44905D01*
X35035Y-45103D01*
X35035Y-45318D01*
X35035Y-45746D01*
X35117Y-45945D01*
X35269Y-46096D01*
X35278Y-46100D01*
X28849Y-46100D01*
X28943Y-46006D01*
X29100Y-45630D01*
X29100Y-45222D01*
X28944Y-44845D01*
X28922Y-44823D01*
X28922Y-35308D01*
X28913Y-35044D01*
X28829Y-34845D01*
X28722Y-34804D01*
X28651Y-34875D01*
X28326Y-35200D01*
X28722Y-35596D01*
X28829Y-35555D01*
X28922Y-35308D01*
X28922Y-44823D01*
X28656Y-44557D01*
X28651Y-44554D01*
X28280Y-44400D01*
X27872Y-44400D01*
X27649Y-44492D01*
X27649Y-40800D01*
X27649Y-40701D01*
X27649Y-40101D01*
X27611Y-40009D01*
X27541Y-39939D01*
X27450Y-39901D01*
X27351Y-39901D01*
X26751Y-39901D01*
X26659Y-39939D01*
X26589Y-40009D01*
X26551Y-40100D01*
X26551Y-40162D01*
X26478Y-40142D01*
X26171Y-40450D01*
X26478Y-40758D01*
X26551Y-40737D01*
X26551Y-40799D01*
X26589Y-40891D01*
X26659Y-40961D01*
X26750Y-40999D01*
X26849Y-40999D01*
X27449Y-40999D01*
X27541Y-40961D01*
X27611Y-40891D01*
X27649Y-40800D01*
X27649Y-44492D01*
X27495Y-44556D01*
X27207Y-44844D01*
X27050Y-45220D01*
X27050Y-45628D01*
X27206Y-46005D01*
X27301Y-46100D01*
X26408Y-46100D01*
X26408Y-40828D01*
X26100Y-40521D01*
X25792Y-40828D01*
X25819Y-40922D01*
X26021Y-40993D01*
X26234Y-40982D01*
X26381Y-40922D01*
X26408Y-40828D01*
X26408Y-46100D01*
X22900Y-46100D01*
X22900Y-25750D01*
X27801Y-25750D01*
X27707Y-25844D01*
X27550Y-26220D01*
X27550Y-26628D01*
X27706Y-27005D01*
X27994Y-27293D01*
X28370Y-27450D01*
X28778Y-27450D01*
X29155Y-27294D01*
X29443Y-27006D01*
X29600Y-26630D01*
X29600Y-26222D01*
X29444Y-25845D01*
X29349Y-25750D01*
X31676Y-25750D01*
X31669Y-25753D01*
X31518Y-25905D01*
X31435Y-26103D01*
X31435Y-26318D01*
X31435Y-26746D01*
X31517Y-26945D01*
X31669Y-27096D01*
X31867Y-27179D01*
X32082Y-27179D01*
X32281Y-27097D01*
X32432Y-26945D01*
X32474Y-26842D01*
X32517Y-26945D01*
X32669Y-27096D01*
X32867Y-27179D01*
X33082Y-27179D01*
X33281Y-27097D01*
X33432Y-26945D01*
X33474Y-26842D01*
X33517Y-26945D01*
X33665Y-27092D01*
X33665Y-27643D01*
X29995Y-31313D01*
X29995Y-31052D01*
X29835Y-30666D01*
X29540Y-30370D01*
X29155Y-30210D01*
X28737Y-30210D01*
X28351Y-30370D01*
X28055Y-30665D01*
X27895Y-31050D01*
X27895Y-31468D01*
X28055Y-31854D01*
X28350Y-32150D01*
X28735Y-32310D01*
X28998Y-32310D01*
X27034Y-34274D01*
X26205Y-34274D01*
X26086Y-34298D01*
X25986Y-34365D01*
X25952Y-34399D01*
X25885Y-34499D01*
X25861Y-34618D01*
X25861Y-34811D01*
X25678Y-34628D01*
X25655Y-34618D01*
X25655Y-31470D01*
X25655Y-31052D01*
X25495Y-30666D01*
X25200Y-30370D01*
X24815Y-30210D01*
X24397Y-30210D01*
X24011Y-30370D01*
X23715Y-30665D01*
X23555Y-31050D01*
X23555Y-31468D01*
X23715Y-31854D01*
X24010Y-32150D01*
X24395Y-32310D01*
X24813Y-32310D01*
X25199Y-32150D01*
X25495Y-31855D01*
X25655Y-31470D01*
X25655Y-34618D01*
X25430Y-34525D01*
X25161Y-34525D01*
X24913Y-34628D01*
X24723Y-34817D01*
X24620Y-35065D01*
X24620Y-35334D01*
X24723Y-35582D01*
X24912Y-35772D01*
X25160Y-35875D01*
X25429Y-35875D01*
X25677Y-35772D01*
X25861Y-35588D01*
X25861Y-38250D01*
X24210Y-39901D01*
X24209Y-39901D01*
X23991Y-39901D01*
X23789Y-39985D01*
X23635Y-40139D01*
X23551Y-40341D01*
X23551Y-40559D01*
X23635Y-40761D01*
X23789Y-40915D01*
X23991Y-40999D01*
X24209Y-40999D01*
X24411Y-40915D01*
X24565Y-40761D01*
X24600Y-40676D01*
X24635Y-40761D01*
X24789Y-40915D01*
X24991Y-40999D01*
X25209Y-40999D01*
X25411Y-40915D01*
X25565Y-40761D01*
X25602Y-40669D01*
X25628Y-40731D01*
X25722Y-40758D01*
X25994Y-40485D01*
X26029Y-40450D01*
X26100Y-40379D01*
X26135Y-40344D01*
X26408Y-40072D01*
X26381Y-39978D01*
X26179Y-39907D01*
X26075Y-39912D01*
X27734Y-38254D01*
X27801Y-38154D01*
X27801Y-38153D01*
X27824Y-38035D01*
X27825Y-38035D01*
X27825Y-35741D01*
X27840Y-35756D01*
X27878Y-35717D01*
X27900Y-35774D01*
X28147Y-35867D01*
X28411Y-35858D01*
X28610Y-35774D01*
X28651Y-35667D01*
X28290Y-35306D01*
X28255Y-35271D01*
X28184Y-35200D01*
X28255Y-35129D01*
X28290Y-35094D01*
X28651Y-34733D01*
X28610Y-34626D01*
X28363Y-34533D01*
X28099Y-34542D01*
X27900Y-34626D01*
X27878Y-34682D01*
X27848Y-34652D01*
X35194Y-27307D01*
X35261Y-27207D01*
X35261Y-27206D01*
X35283Y-27094D01*
X35432Y-26945D01*
X35474Y-26842D01*
X35517Y-26945D01*
X35666Y-27093D01*
X35689Y-27207D01*
X35756Y-27307D01*
X36091Y-27642D01*
X35989Y-27685D01*
X35835Y-27839D01*
X35797Y-27930D01*
X35772Y-27869D01*
X35678Y-27842D01*
X35608Y-27912D01*
X35608Y-27772D01*
X35581Y-27678D01*
X35379Y-27607D01*
X35166Y-27618D01*
X35019Y-27678D01*
X34992Y-27772D01*
X35300Y-28079D01*
X35608Y-27772D01*
X35608Y-27912D01*
X35371Y-28150D01*
X35678Y-28458D01*
X35772Y-28431D01*
X35795Y-28365D01*
X35835Y-28461D01*
X35989Y-28615D01*
X35990Y-28615D01*
X35990Y-37487D01*
X36014Y-37606D01*
X36081Y-37706D01*
X43198Y-44823D01*
X43198Y-44823D01*
G37*
G54D22*
X43198Y-44823D02*
X43118Y-44905D01*
X43075Y-45007D01*
X43033Y-44905D01*
X42881Y-44754D01*
X42683Y-44671D01*
X42468Y-44671D01*
X42269Y-44753D01*
X42118Y-44905D01*
X42035Y-45103D01*
X42035Y-45318D01*
X42035Y-45746D01*
X42048Y-45778D01*
X41102Y-45778D01*
X41115Y-45747D01*
X41115Y-45532D01*
X41115Y-45104D01*
X41033Y-44905D01*
X40881Y-44754D01*
X40683Y-44671D01*
X40468Y-44671D01*
X40269Y-44753D01*
X40118Y-44905D01*
X40075Y-45007D01*
X40033Y-44905D01*
X39881Y-44754D01*
X39683Y-44671D01*
X39468Y-44671D01*
X39269Y-44753D01*
X39118Y-44905D01*
X39075Y-45006D01*
X39064Y-44968D01*
X38928Y-44800D01*
X38738Y-44697D01*
X38710Y-44693D01*
X38625Y-44740D01*
X38625Y-45325D01*
X38625Y-45375D01*
X38625Y-45475D01*
X38525Y-45475D01*
X38525Y-45375D01*
X38525Y-45325D01*
X38525Y-44740D01*
X38440Y-44693D01*
X38412Y-44697D01*
X38222Y-44800D01*
X38086Y-44968D01*
X38074Y-45006D01*
X38033Y-44905D01*
X37881Y-44754D01*
X37683Y-44671D01*
X37468Y-44671D01*
X37269Y-44753D01*
X37118Y-44905D01*
X37075Y-45007D01*
X37033Y-44905D01*
X36881Y-44754D01*
X36683Y-44671D01*
X36468Y-44671D01*
X36269Y-44753D01*
X36118Y-44905D01*
X36075Y-45007D01*
X36033Y-44905D01*
X35881Y-44754D01*
X35683Y-44671D01*
X35608Y-44671D01*
X35608Y-28528D01*
X35300Y-28221D01*
X35229Y-28291D01*
X35229Y-28150D01*
X34922Y-27842D01*
X34828Y-27869D01*
X34757Y-28071D01*
X34768Y-28284D01*
X34828Y-28431D01*
X34922Y-28458D01*
X35229Y-28150D01*
X35229Y-28291D01*
X34992Y-28528D01*
X35019Y-28622D01*
X35221Y-28693D01*
X35434Y-28682D01*
X35581Y-28622D01*
X35608Y-28528D01*
X35608Y-44671D01*
X35579Y-44671D01*
X35579Y-35572D01*
X35579Y-35379D01*
X35505Y-35200D01*
X35369Y-35063D01*
X35190Y-34989D01*
X34997Y-34989D01*
X34818Y-35063D01*
X34681Y-35199D01*
X34607Y-35378D01*
X34607Y-35571D01*
X34681Y-35750D01*
X34817Y-35887D01*
X34996Y-35961D01*
X35189Y-35961D01*
X35368Y-35887D01*
X35505Y-35751D01*
X35579Y-35572D01*
X35579Y-44671D01*
X35468Y-44671D01*
X35269Y-44753D01*
X35118Y-44905D01*
X35035Y-45103D01*
X35035Y-45318D01*
X35035Y-45746D01*
X35117Y-45945D01*
X35269Y-46096D01*
X35278Y-46100D01*
X28849Y-46100D01*
X28943Y-46006D01*
X29100Y-45630D01*
X29100Y-45222D01*
X28944Y-44845D01*
X28922Y-44823D01*
X28922Y-35308D01*
X28913Y-35044D01*
X28829Y-34845D01*
X28722Y-34804D01*
X28651Y-34875D01*
X28326Y-35200D01*
X28722Y-35596D01*
X28829Y-35555D01*
X28922Y-35308D01*
X28922Y-44823D01*
X28656Y-44557D01*
X28651Y-44554D01*
X28280Y-44400D01*
X27872Y-44400D01*
X27649Y-44492D01*
X27649Y-40800D01*
X27649Y-40701D01*
X27649Y-40101D01*
X27611Y-40009D01*
X27541Y-39939D01*
X27450Y-39901D01*
X27351Y-39901D01*
X26751Y-39901D01*
X26659Y-39939D01*
X26589Y-40009D01*
X26551Y-40100D01*
X26551Y-40162D01*
X26478Y-40142D01*
X26171Y-40450D01*
X26478Y-40758D01*
X26551Y-40737D01*
X26551Y-40799D01*
X26589Y-40891D01*
X26659Y-40961D01*
X26750Y-40999D01*
X26849Y-40999D01*
X27449Y-40999D01*
X27541Y-40961D01*
X27611Y-40891D01*
X27649Y-40800D01*
X27649Y-44492D01*
X27495Y-44556D01*
X27207Y-44844D01*
X27050Y-45220D01*
X27050Y-45628D01*
X27206Y-46005D01*
X27301Y-46100D01*
X26408Y-46100D01*
X26408Y-40828D01*
X26100Y-40521D01*
X25792Y-40828D01*
X25819Y-40922D01*
X26021Y-40993D01*
X26234Y-40982D01*
X26381Y-40922D01*
X26408Y-40828D01*
X26408Y-46100D01*
X22900Y-46100D01*
X22900Y-25750D01*
X27801Y-25750D01*
X27707Y-25844D01*
X27550Y-26220D01*
X27550Y-26628D01*
X27706Y-27005D01*
X27994Y-27293D01*
X28370Y-27450D01*
X28778Y-27450D01*
X29155Y-27294D01*
X29443Y-27006D01*
X29600Y-26630D01*
X29600Y-26222D01*
X29444Y-25845D01*
X29349Y-25750D01*
X31676Y-25750D01*
X31669Y-25753D01*
X31518Y-25905D01*
X31435Y-26103D01*
X31435Y-26318D01*
X31435Y-26746D01*
X31517Y-26945D01*
X31669Y-27096D01*
X31867Y-27179D01*
X32082Y-27179D01*
X32281Y-27097D01*
X32432Y-26945D01*
X32474Y-26842D01*
X32517Y-26945D01*
X32669Y-27096D01*
X32867Y-27179D01*
X33082Y-27179D01*
X33281Y-27097D01*
X33432Y-26945D01*
X33474Y-26842D01*
X33517Y-26945D01*
X33665Y-27092D01*
X33665Y-27643D01*
X29995Y-31313D01*
X29995Y-31052D01*
X29835Y-30666D01*
X29540Y-30370D01*
X29155Y-30210D01*
X28737Y-30210D01*
X28351Y-30370D01*
X28055Y-30665D01*
X27895Y-31050D01*
X27895Y-31468D01*
X28055Y-31854D01*
X28350Y-32150D01*
X28735Y-32310D01*
X28998Y-32310D01*
X27034Y-34274D01*
X26205Y-34274D01*
X26086Y-34298D01*
X25986Y-34365D01*
X25952Y-34399D01*
X25885Y-34499D01*
X25861Y-34618D01*
X25861Y-34811D01*
X25678Y-34628D01*
X25655Y-34618D01*
X25655Y-31470D01*
X25655Y-31052D01*
X25495Y-30666D01*
X25200Y-30370D01*
X24815Y-30210D01*
X24397Y-30210D01*
X24011Y-30370D01*
X23715Y-30665D01*
X23555Y-31050D01*
X23555Y-31468D01*
X23715Y-31854D01*
X24010Y-32150D01*
X24395Y-32310D01*
X24813Y-32310D01*
X25199Y-32150D01*
X25495Y-31855D01*
X25655Y-31470D01*
X25655Y-34618D01*
X25430Y-34525D01*
X25161Y-34525D01*
X24913Y-34628D01*
X24723Y-34817D01*
X24620Y-35065D01*
X24620Y-35334D01*
X24723Y-35582D01*
X24912Y-35772D01*
X25160Y-35875D01*
X25429Y-35875D01*
X25677Y-35772D01*
X25861Y-35588D01*
X25861Y-38250D01*
X24210Y-39901D01*
X24209Y-39901D01*
X23991Y-39901D01*
X23789Y-39985D01*
X23635Y-40139D01*
X23551Y-40341D01*
X23551Y-40559D01*
X23635Y-40761D01*
X23789Y-40915D01*
X23991Y-40999D01*
X24209Y-40999D01*
X24411Y-40915D01*
X24565Y-40761D01*
X24600Y-40676D01*
X24635Y-40761D01*
X24789Y-40915D01*
X24991Y-40999D01*
X25209Y-40999D01*
X25411Y-40915D01*
X25565Y-40761D01*
X25602Y-40669D01*
X25628Y-40731D01*
X25722Y-40758D01*
X25994Y-40485D01*
X26029Y-40450D01*
X26100Y-40379D01*
X26135Y-40344D01*
X26408Y-40072D01*
X26381Y-39978D01*
X26179Y-39907D01*
X26075Y-39912D01*
X27734Y-38254D01*
X27801Y-38154D01*
X27801Y-38153D01*
X27824Y-38035D01*
X27825Y-38035D01*
X27825Y-35741D01*
X27840Y-35756D01*
X27878Y-35717D01*
X27900Y-35774D01*
X28147Y-35867D01*
X28411Y-35858D01*
X28610Y-35774D01*
X28651Y-35667D01*
X28290Y-35306D01*
X28255Y-35271D01*
X28184Y-35200D01*
X28255Y-35129D01*
X28290Y-35094D01*
X28651Y-34733D01*
X28610Y-34626D01*
X28363Y-34533D01*
X28099Y-34542D01*
X27900Y-34626D01*
X27878Y-34682D01*
X27848Y-34652D01*
X35194Y-27307D01*
X35261Y-27207D01*
X35261Y-27206D01*
X35283Y-27094D01*
X35432Y-26945D01*
X35474Y-26842D01*
X35517Y-26945D01*
X35666Y-27093D01*
X35689Y-27207D01*
X35756Y-27307D01*
X36091Y-27642D01*
X35989Y-27685D01*
X35835Y-27839D01*
X35797Y-27930D01*
X35772Y-27869D01*
X35678Y-27842D01*
X35608Y-27912D01*
X35608Y-27772D01*
X35581Y-27678D01*
X35379Y-27607D01*
X35166Y-27618D01*
X35019Y-27678D01*
X34992Y-27772D01*
X35300Y-28079D01*
X35608Y-27772D01*
X35608Y-27912D01*
X35371Y-28150D01*
X35678Y-28458D01*
X35772Y-28431D01*
X35795Y-28365D01*
X35835Y-28461D01*
X35989Y-28615D01*
X35990Y-28615D01*
X35990Y-37487D01*
X36014Y-37606D01*
X36081Y-37706D01*
X43198Y-44823D01*
G54D10*
G36*
X43731Y-44480D02*
X37781Y-38530D01*
X37781Y-35486D01*
X37767Y-35320D01*
X37730Y-35227D01*
X37648Y-35216D01*
X37577Y-35287D01*
X37577Y-35145D01*
X37566Y-35063D01*
X37407Y-35012D01*
X37241Y-35026D01*
X37148Y-35063D01*
X37137Y-35145D01*
X37357Y-35365D01*
X37577Y-35145D01*
X37577Y-35287D01*
X37428Y-35436D01*
X37648Y-35656D01*
X37730Y-35645D01*
X37781Y-35486D01*
X37781Y-38530D01*
X37577Y-38326D01*
X37577Y-35727D01*
X37357Y-35507D01*
X37286Y-35578D01*
X37286Y-35436D01*
X37066Y-35216D01*
X36984Y-35227D01*
X36933Y-35386D01*
X36947Y-35552D01*
X36984Y-35645D01*
X37066Y-35656D01*
X37286Y-35436D01*
X37286Y-35578D01*
X37137Y-35727D01*
X37148Y-35809D01*
X37307Y-35860D01*
X37473Y-35846D01*
X37566Y-35809D01*
X37577Y-35727D01*
X37577Y-38326D01*
X36610Y-37359D01*
X36610Y-28615D01*
X36611Y-28615D01*
X36751Y-28475D01*
X36751Y-28499D01*
X36789Y-28591D01*
X36859Y-28661D01*
X36950Y-28699D01*
X36990Y-28699D01*
X36990Y-32038D01*
X37014Y-32157D01*
X37081Y-32257D01*
X43581Y-38757D01*
X43681Y-38824D01*
X43682Y-38824D01*
X43731Y-38834D01*
X43731Y-44480D01*
X43731Y-44480D01*
G37*
G54D22*
X43731Y-44480D02*
X37781Y-38530D01*
X37781Y-35486D01*
X37767Y-35320D01*
X37730Y-35227D01*
X37648Y-35216D01*
X37577Y-35287D01*
X37577Y-35145D01*
X37566Y-35063D01*
X37407Y-35012D01*
X37241Y-35026D01*
X37148Y-35063D01*
X37137Y-35145D01*
X37357Y-35365D01*
X37577Y-35145D01*
X37577Y-35287D01*
X37428Y-35436D01*
X37648Y-35656D01*
X37730Y-35645D01*
X37781Y-35486D01*
X37781Y-38530D01*
X37577Y-38326D01*
X37577Y-35727D01*
X37357Y-35507D01*
X37286Y-35578D01*
X37286Y-35436D01*
X37066Y-35216D01*
X36984Y-35227D01*
X36933Y-35386D01*
X36947Y-35552D01*
X36984Y-35645D01*
X37066Y-35656D01*
X37286Y-35436D01*
X37286Y-35578D01*
X37137Y-35727D01*
X37148Y-35809D01*
X37307Y-35860D01*
X37473Y-35846D01*
X37566Y-35809D01*
X37577Y-35727D01*
X37577Y-38326D01*
X36610Y-37359D01*
X36610Y-28615D01*
X36611Y-28615D01*
X36751Y-28475D01*
X36751Y-28499D01*
X36789Y-28591D01*
X36859Y-28661D01*
X36950Y-28699D01*
X36990Y-28699D01*
X36990Y-32038D01*
X37014Y-32157D01*
X37081Y-32257D01*
X43581Y-38757D01*
X43681Y-38824D01*
X43682Y-38824D01*
X43731Y-38834D01*
X43731Y-44480D01*
G54D10*
G36*
X49250Y-44290D02*
X48345Y-45195D01*
X48275Y-45301D01*
X48250Y-45425D01*
X48250Y-46100D01*
X47873Y-46100D01*
X47881Y-46097D01*
X48032Y-45945D01*
X48115Y-45747D01*
X48115Y-45532D01*
X48115Y-45104D01*
X48033Y-44905D01*
X47881Y-44754D01*
X47683Y-44671D01*
X47468Y-44671D01*
X47269Y-44753D01*
X47149Y-44873D01*
X47149Y-28600D01*
X47149Y-28501D01*
X47149Y-27901D01*
X47111Y-27809D01*
X47041Y-27739D01*
X46950Y-27701D01*
X46851Y-27701D01*
X46251Y-27701D01*
X46159Y-27739D01*
X46089Y-27809D01*
X46051Y-27900D01*
X46051Y-27962D01*
X45978Y-27942D01*
X45908Y-28012D01*
X45908Y-27872D01*
X45881Y-27778D01*
X45679Y-27707D01*
X45466Y-27718D01*
X45319Y-27778D01*
X45292Y-27872D01*
X45600Y-28179D01*
X45908Y-27872D01*
X45908Y-28012D01*
X45671Y-28250D01*
X45978Y-28558D01*
X46051Y-28537D01*
X46051Y-28599D01*
X46089Y-28691D01*
X46159Y-28761D01*
X46250Y-28799D01*
X46349Y-28799D01*
X46949Y-28799D01*
X47041Y-28761D01*
X47111Y-28691D01*
X47149Y-28600D01*
X47149Y-44873D01*
X47118Y-44905D01*
X47075Y-45007D01*
X47033Y-44905D01*
X46881Y-44754D01*
X46683Y-44671D01*
X46468Y-44671D01*
X46269Y-44753D01*
X46118Y-44905D01*
X46075Y-45007D01*
X46033Y-44905D01*
X45881Y-44754D01*
X45683Y-44671D01*
X45468Y-44671D01*
X45269Y-44753D01*
X45118Y-44905D01*
X45075Y-45007D01*
X45033Y-44905D01*
X44881Y-44754D01*
X44683Y-44671D01*
X44468Y-44671D01*
X44351Y-44719D01*
X44351Y-38828D01*
X44351Y-38827D01*
X44370Y-38824D01*
X44371Y-38824D01*
X44471Y-38757D01*
X44749Y-38479D01*
X45309Y-38479D01*
X45401Y-38441D01*
X45471Y-38371D01*
X45509Y-38280D01*
X45509Y-38181D01*
X45509Y-37481D01*
X45503Y-37466D01*
X45471Y-37389D01*
X45401Y-37319D01*
X45353Y-37299D01*
X45412Y-37241D01*
X45376Y-37205D01*
X45423Y-37190D01*
X45503Y-36971D01*
X45492Y-36736D01*
X45423Y-36570D01*
X45324Y-36537D01*
X45016Y-36845D01*
X44981Y-36880D01*
X44910Y-36951D01*
X44839Y-36880D01*
X44804Y-36845D01*
X44496Y-36537D01*
X44425Y-36560D01*
X44418Y-36541D01*
X44257Y-36380D01*
X44410Y-36227D01*
X44571Y-36388D01*
X44590Y-36395D01*
X44567Y-36466D01*
X44910Y-36809D01*
X45253Y-36466D01*
X45229Y-36395D01*
X45249Y-36388D01*
X45418Y-36219D01*
X45509Y-35999D01*
X45509Y-35761D01*
X45496Y-35731D01*
X45873Y-35355D01*
X45940Y-35255D01*
X45940Y-35254D01*
X45964Y-35136D01*
X45964Y-29167D01*
X45940Y-29049D01*
X45940Y-29048D01*
X45873Y-28948D01*
X45708Y-28783D01*
X45734Y-28782D01*
X45881Y-28722D01*
X45908Y-28628D01*
X45635Y-28356D01*
X45600Y-28321D01*
X45529Y-28250D01*
X45494Y-28215D01*
X45222Y-27942D01*
X45128Y-27969D01*
X45067Y-28142D01*
X43951Y-27026D01*
X44032Y-26945D01*
X44074Y-26842D01*
X44117Y-26945D01*
X44269Y-27096D01*
X44467Y-27179D01*
X44682Y-27179D01*
X44881Y-27097D01*
X45032Y-26945D01*
X45074Y-26842D01*
X45117Y-26945D01*
X45269Y-27096D01*
X45467Y-27179D01*
X45682Y-27179D01*
X45881Y-27097D01*
X46032Y-26945D01*
X46074Y-26842D01*
X46117Y-26945D01*
X46269Y-27096D01*
X46467Y-27179D01*
X46682Y-27179D01*
X46881Y-27097D01*
X47032Y-26945D01*
X47074Y-26842D01*
X47117Y-26945D01*
X47269Y-27096D01*
X47467Y-27179D01*
X47682Y-27179D01*
X47881Y-27097D01*
X48032Y-26945D01*
X48115Y-26747D01*
X48115Y-26532D01*
X48115Y-26104D01*
X48033Y-25905D01*
X47881Y-25754D01*
X47871Y-25750D01*
X47940Y-25750D01*
X48250Y-26060D01*
X48250Y-30425D01*
X48275Y-30549D01*
X48345Y-30655D01*
X49250Y-31560D01*
X49250Y-31651D01*
X49156Y-31557D01*
X48780Y-31400D01*
X48372Y-31400D01*
X47995Y-31556D01*
X47707Y-31844D01*
X47550Y-32220D01*
X47550Y-32628D01*
X47706Y-33005D01*
X47994Y-33293D01*
X48370Y-33450D01*
X48778Y-33450D01*
X49155Y-33294D01*
X49250Y-33199D01*
X49250Y-42651D01*
X49156Y-42557D01*
X48780Y-42400D01*
X48372Y-42400D01*
X47995Y-42556D01*
X47707Y-42844D01*
X47550Y-43220D01*
X47550Y-43628D01*
X47706Y-44005D01*
X47994Y-44293D01*
X48370Y-44450D01*
X48778Y-44450D01*
X49155Y-44294D01*
X49250Y-44199D01*
X49250Y-44290D01*
X49250Y-44290D01*
G37*
G54D22*
X49250Y-44290D02*
X48345Y-45195D01*
X48275Y-45301D01*
X48250Y-45425D01*
X48250Y-46100D01*
X47873Y-46100D01*
X47881Y-46097D01*
X48032Y-45945D01*
X48115Y-45747D01*
X48115Y-45532D01*
X48115Y-45104D01*
X48033Y-44905D01*
X47881Y-44754D01*
X47683Y-44671D01*
X47468Y-44671D01*
X47269Y-44753D01*
X47149Y-44873D01*
X47149Y-28600D01*
X47149Y-28501D01*
X47149Y-27901D01*
X47111Y-27809D01*
X47041Y-27739D01*
X46950Y-27701D01*
X46851Y-27701D01*
X46251Y-27701D01*
X46159Y-27739D01*
X46089Y-27809D01*
X46051Y-27900D01*
X46051Y-27962D01*
X45978Y-27942D01*
X45908Y-28012D01*
X45908Y-27872D01*
X45881Y-27778D01*
X45679Y-27707D01*
X45466Y-27718D01*
X45319Y-27778D01*
X45292Y-27872D01*
X45600Y-28179D01*
X45908Y-27872D01*
X45908Y-28012D01*
X45671Y-28250D01*
X45978Y-28558D01*
X46051Y-28537D01*
X46051Y-28599D01*
X46089Y-28691D01*
X46159Y-28761D01*
X46250Y-28799D01*
X46349Y-28799D01*
X46949Y-28799D01*
X47041Y-28761D01*
X47111Y-28691D01*
X47149Y-28600D01*
X47149Y-44873D01*
X47118Y-44905D01*
X47075Y-45007D01*
X47033Y-44905D01*
X46881Y-44754D01*
X46683Y-44671D01*
X46468Y-44671D01*
X46269Y-44753D01*
X46118Y-44905D01*
X46075Y-45007D01*
X46033Y-44905D01*
X45881Y-44754D01*
X45683Y-44671D01*
X45468Y-44671D01*
X45269Y-44753D01*
X45118Y-44905D01*
X45075Y-45007D01*
X45033Y-44905D01*
X44881Y-44754D01*
X44683Y-44671D01*
X44468Y-44671D01*
X44351Y-44719D01*
X44351Y-38828D01*
X44351Y-38827D01*
X44370Y-38824D01*
X44371Y-38824D01*
X44471Y-38757D01*
X44749Y-38479D01*
X45309Y-38479D01*
X45401Y-38441D01*
X45471Y-38371D01*
X45509Y-38280D01*
X45509Y-38181D01*
X45509Y-37481D01*
X45503Y-37466D01*
X45471Y-37389D01*
X45401Y-37319D01*
X45353Y-37299D01*
X45412Y-37241D01*
X45376Y-37205D01*
X45423Y-37190D01*
X45503Y-36971D01*
X45492Y-36736D01*
X45423Y-36570D01*
X45324Y-36537D01*
X45016Y-36845D01*
X44981Y-36880D01*
X44910Y-36951D01*
X44839Y-36880D01*
X44804Y-36845D01*
X44496Y-36537D01*
X44425Y-36560D01*
X44418Y-36541D01*
X44257Y-36380D01*
X44410Y-36227D01*
X44571Y-36388D01*
X44590Y-36395D01*
X44567Y-36466D01*
X44910Y-36809D01*
X45253Y-36466D01*
X45229Y-36395D01*
X45249Y-36388D01*
X45418Y-36219D01*
X45509Y-35999D01*
X45509Y-35761D01*
X45496Y-35731D01*
X45873Y-35355D01*
X45940Y-35255D01*
X45940Y-35254D01*
X45964Y-35136D01*
X45964Y-29167D01*
X45940Y-29049D01*
X45940Y-29048D01*
X45873Y-28948D01*
X45708Y-28783D01*
X45734Y-28782D01*
X45881Y-28722D01*
X45908Y-28628D01*
X45635Y-28356D01*
X45600Y-28321D01*
X45529Y-28250D01*
X45494Y-28215D01*
X45222Y-27942D01*
X45128Y-27969D01*
X45067Y-28142D01*
X43951Y-27026D01*
X44032Y-26945D01*
X44074Y-26842D01*
X44117Y-26945D01*
X44269Y-27096D01*
X44467Y-27179D01*
X44682Y-27179D01*
X44881Y-27097D01*
X45032Y-26945D01*
X45074Y-26842D01*
X45117Y-26945D01*
X45269Y-27096D01*
X45467Y-27179D01*
X45682Y-27179D01*
X45881Y-27097D01*
X46032Y-26945D01*
X46074Y-26842D01*
X46117Y-26945D01*
X46269Y-27096D01*
X46467Y-27179D01*
X46682Y-27179D01*
X46881Y-27097D01*
X47032Y-26945D01*
X47074Y-26842D01*
X47117Y-26945D01*
X47269Y-27096D01*
X47467Y-27179D01*
X47682Y-27179D01*
X47881Y-27097D01*
X48032Y-26945D01*
X48115Y-26747D01*
X48115Y-26532D01*
X48115Y-26104D01*
X48033Y-25905D01*
X47881Y-25754D01*
X47871Y-25750D01*
X47940Y-25750D01*
X48250Y-26060D01*
X48250Y-30425D01*
X48275Y-30549D01*
X48345Y-30655D01*
X49250Y-31560D01*
X49250Y-31651D01*
X49156Y-31557D01*
X48780Y-31400D01*
X48372Y-31400D01*
X47995Y-31556D01*
X47707Y-31844D01*
X47550Y-32220D01*
X47550Y-32628D01*
X47706Y-33005D01*
X47994Y-33293D01*
X48370Y-33450D01*
X48778Y-33450D01*
X49155Y-33294D01*
X49250Y-33199D01*
X49250Y-42651D01*
X49156Y-42557D01*
X48780Y-42400D01*
X48372Y-42400D01*
X47995Y-42556D01*
X47707Y-42844D01*
X47550Y-43220D01*
X47550Y-43628D01*
X47706Y-44005D01*
X47994Y-44293D01*
X48370Y-44450D01*
X48778Y-44450D01*
X49155Y-44294D01*
X49250Y-44199D01*
X49250Y-44290D01*
M02*
