G04 (created by PCBNEW-RS274X (2011-07-19)-testing) date Tue 10 Jan 2012 03:03:46 PM PST*
G01*
G70*
G90*
%MOIN*%
G04 Gerber Fmt 3.4, Leading zero omitted, Abs format*
%FSLAX34Y34*%
G04 APERTURE LIST*
%ADD10C,0.006000*%
%ADD11C,0.047200*%
%ADD12C,0.035400*%
%ADD13R,0.047200X0.078700*%
%ADD14R,0.039400X0.055900*%
%ADD15R,0.035000X0.055000*%
%ADD16C,0.085000*%
%ADD17C,0.160000*%
%ADD18R,0.060000X0.060000*%
%ADD19C,0.060000*%
%ADD20R,0.070000X0.070000*%
%ADD21C,0.070000*%
%ADD22O,0.060000X0.100000*%
%ADD23C,0.155000*%
%ADD24C,0.012000*%
%ADD25C,0.010000*%
G04 APERTURE END LIST*
G54D10*
G54D11*
X35093Y-35475D03*
G54D12*
X37357Y-35436D03*
G54D13*
X36225Y-33703D03*
X36225Y-37247D03*
X35516Y-33703D03*
X36934Y-33703D03*
X35516Y-37247D03*
X36934Y-37247D03*
G54D14*
X34926Y-34369D03*
X37524Y-34369D03*
X34926Y-36581D03*
X37524Y-36581D03*
G54D15*
X30225Y-40425D03*
X30975Y-40425D03*
G54D16*
X25295Y-35200D03*
X26775Y-35200D03*
X28255Y-35200D03*
G54D17*
X24605Y-31260D03*
X28945Y-31260D03*
G54D18*
X37300Y-28150D03*
G54D19*
X36300Y-28150D03*
X35300Y-28150D03*
G54D18*
X46600Y-28250D03*
G54D19*
X45600Y-28250D03*
G54D20*
X44910Y-37880D03*
G54D21*
X43910Y-37880D03*
X44910Y-36880D03*
X43910Y-36880D03*
X44910Y-35880D03*
X43910Y-35880D03*
X44910Y-34880D03*
X43910Y-34880D03*
X44910Y-33880D03*
X43910Y-33880D03*
G54D22*
X47575Y-45425D03*
X46575Y-45425D03*
X45575Y-45425D03*
X42575Y-45425D03*
X43575Y-45425D03*
X44575Y-45425D03*
X40575Y-45425D03*
X39575Y-45425D03*
X38575Y-45425D03*
X36575Y-45425D03*
X35575Y-45425D03*
X47575Y-26425D03*
X46575Y-26425D03*
X45575Y-26425D03*
X44575Y-26425D03*
X43575Y-26425D03*
X42575Y-26425D03*
X41575Y-26425D03*
X40575Y-26425D03*
X38975Y-26425D03*
X37975Y-26425D03*
X36975Y-26425D03*
X35975Y-26425D03*
X34975Y-26425D03*
X33975Y-26425D03*
X32975Y-26425D03*
X31975Y-26425D03*
X37575Y-45425D03*
G54D23*
X48575Y-43425D03*
X48575Y-32425D03*
X28575Y-26425D03*
X28075Y-45425D03*
G54D18*
X27100Y-40450D03*
G54D19*
X26100Y-40450D03*
X25100Y-40450D03*
X24100Y-40450D03*
G54D24*
X26556Y-33939D02*
X25295Y-35200D01*
X31511Y-33939D02*
X26556Y-33939D01*
X36837Y-28613D02*
X31511Y-33939D01*
X36837Y-28150D02*
X36837Y-28613D01*
X37300Y-28150D02*
X36837Y-28150D01*
X46600Y-28250D02*
X46137Y-28250D01*
X41147Y-33703D02*
X36934Y-33703D01*
X46137Y-28713D02*
X41147Y-33703D01*
X46137Y-28250D02*
X46137Y-28713D01*
X35516Y-33703D02*
X35516Y-34259D01*
X36934Y-33703D02*
X36934Y-34259D01*
X36934Y-34259D02*
X35516Y-34259D01*
X46137Y-27650D02*
X46137Y-28250D01*
X45575Y-27088D02*
X46137Y-27650D01*
X45575Y-26425D02*
X45575Y-27088D01*
X36934Y-34259D02*
X36934Y-37247D01*
X36934Y-37803D02*
X35516Y-37803D01*
X36934Y-37247D02*
X36934Y-37803D01*
X35516Y-37247D02*
X35516Y-37803D01*
X29687Y-38112D02*
X26775Y-35200D01*
X35925Y-38112D02*
X29687Y-38112D01*
X42575Y-44762D02*
X35925Y-38112D01*
X42575Y-45425D02*
X42575Y-44762D01*
X27100Y-40450D02*
X27563Y-40450D01*
X27588Y-40425D02*
X27563Y-40450D01*
X30225Y-40425D02*
X27588Y-40425D01*
X30664Y-39986D02*
X30225Y-40425D01*
X35799Y-39986D02*
X30664Y-39986D01*
X40575Y-44762D02*
X35799Y-39986D01*
X40575Y-45425D02*
X40575Y-44762D01*
X38575Y-45425D02*
X38575Y-44762D01*
X30975Y-40425D02*
X31313Y-40425D01*
X30975Y-40425D02*
X30637Y-40425D01*
X45600Y-28250D02*
X38048Y-28250D01*
X38048Y-27715D02*
X38048Y-28250D01*
X38014Y-27681D02*
X38048Y-27715D01*
X35769Y-27681D02*
X38014Y-27681D01*
X35300Y-28150D02*
X35769Y-27681D01*
X28741Y-34714D02*
X28255Y-35200D01*
X34565Y-34714D02*
X28741Y-34714D01*
X34565Y-31733D02*
X34565Y-34714D01*
X38048Y-28250D02*
X34565Y-31733D01*
X36225Y-35822D02*
X36225Y-37247D01*
X35459Y-35056D02*
X36225Y-35822D01*
X34907Y-35056D02*
X35459Y-35056D01*
X34565Y-34714D02*
X34907Y-35056D01*
X26724Y-41074D02*
X26100Y-40450D01*
X30326Y-41074D02*
X26724Y-41074D01*
X30637Y-40763D02*
X30326Y-41074D01*
X30637Y-40425D02*
X30637Y-40763D01*
X34238Y-40425D02*
X38575Y-44762D01*
X31313Y-40425D02*
X34238Y-40425D01*
G54D10*
G36*
X45796Y-27748D02*
X45679Y-27707D01*
X45466Y-27718D01*
X45319Y-27778D01*
X45292Y-27872D01*
X45565Y-28144D01*
X45600Y-28179D01*
X45671Y-28250D01*
X45600Y-28321D01*
X45529Y-28391D01*
X45529Y-28250D01*
X45222Y-27942D01*
X45128Y-27969D01*
X45057Y-28171D01*
X45068Y-28384D01*
X45128Y-28531D01*
X45222Y-28558D01*
X45529Y-28250D01*
X45529Y-28391D01*
X45292Y-28628D01*
X45319Y-28722D01*
X45521Y-28793D01*
X45623Y-28787D01*
X41018Y-33393D01*
X37849Y-33393D01*
X37849Y-28500D01*
X37849Y-28401D01*
X37849Y-27801D01*
X37811Y-27709D01*
X37741Y-27639D01*
X37650Y-27601D01*
X37551Y-27601D01*
X36951Y-27601D01*
X36859Y-27639D01*
X36789Y-27709D01*
X36751Y-27800D01*
X36751Y-27825D01*
X36611Y-27685D01*
X36409Y-27601D01*
X36191Y-27601D01*
X35989Y-27685D01*
X35835Y-27839D01*
X35797Y-27930D01*
X35772Y-27869D01*
X35678Y-27842D01*
X35608Y-27912D01*
X35608Y-27772D01*
X35581Y-27678D01*
X35379Y-27607D01*
X35166Y-27618D01*
X35019Y-27678D01*
X34992Y-27772D01*
X35300Y-28079D01*
X35608Y-27772D01*
X35608Y-27912D01*
X35371Y-28150D01*
X35678Y-28458D01*
X35772Y-28431D01*
X35795Y-28365D01*
X35835Y-28461D01*
X35989Y-28615D01*
X36191Y-28699D01*
X36313Y-28699D01*
X35608Y-29404D01*
X35608Y-28528D01*
X35300Y-28221D01*
X35229Y-28291D01*
X35229Y-28150D01*
X34922Y-27842D01*
X34828Y-27869D01*
X34757Y-28071D01*
X34768Y-28284D01*
X34828Y-28431D01*
X34922Y-28458D01*
X35229Y-28150D01*
X35229Y-28291D01*
X34992Y-28528D01*
X35019Y-28622D01*
X35221Y-28693D01*
X35434Y-28682D01*
X35581Y-28622D01*
X35608Y-28528D01*
X35608Y-29404D01*
X31383Y-33629D01*
X29995Y-33629D01*
X29995Y-31470D01*
X29995Y-31052D01*
X29835Y-30666D01*
X29540Y-30370D01*
X29155Y-30210D01*
X28737Y-30210D01*
X28351Y-30370D01*
X28055Y-30665D01*
X27895Y-31050D01*
X27895Y-31468D01*
X28055Y-31854D01*
X28350Y-32150D01*
X28735Y-32310D01*
X29153Y-32310D01*
X29539Y-32150D01*
X29835Y-31855D01*
X29995Y-31470D01*
X29995Y-33629D01*
X26556Y-33629D01*
X26437Y-33653D01*
X26337Y-33720D01*
X25655Y-34401D01*
X25655Y-31470D01*
X25655Y-31052D01*
X25495Y-30666D01*
X25200Y-30370D01*
X24815Y-30210D01*
X24397Y-30210D01*
X24011Y-30370D01*
X23715Y-30665D01*
X23555Y-31050D01*
X23555Y-31468D01*
X23715Y-31854D01*
X24010Y-32150D01*
X24395Y-32310D01*
X24813Y-32310D01*
X25199Y-32150D01*
X25495Y-31855D01*
X25655Y-31470D01*
X25655Y-34401D01*
X25502Y-34554D01*
X25430Y-34525D01*
X25161Y-34525D01*
X24913Y-34628D01*
X24723Y-34817D01*
X24620Y-35065D01*
X24620Y-35334D01*
X24723Y-35582D01*
X24912Y-35772D01*
X25160Y-35875D01*
X25429Y-35875D01*
X25677Y-35772D01*
X25867Y-35583D01*
X25970Y-35335D01*
X25970Y-35066D01*
X25939Y-34993D01*
X26684Y-34249D01*
X31511Y-34249D01*
X31629Y-34225D01*
X31630Y-34225D01*
X31730Y-34158D01*
X37056Y-28832D01*
X37123Y-28732D01*
X37123Y-28731D01*
X37129Y-28699D01*
X37649Y-28699D01*
X37741Y-28661D01*
X37811Y-28591D01*
X37849Y-28500D01*
X37849Y-33393D01*
X37419Y-33393D01*
X37419Y-33261D01*
X37381Y-33169D01*
X37311Y-33099D01*
X37220Y-33061D01*
X37121Y-33061D01*
X36649Y-33061D01*
X36579Y-33089D01*
X36511Y-33061D01*
X36412Y-33061D01*
X35940Y-33061D01*
X35870Y-33089D01*
X35802Y-33061D01*
X35703Y-33061D01*
X35231Y-33061D01*
X35139Y-33099D01*
X35069Y-33169D01*
X35031Y-33260D01*
X35031Y-33359D01*
X35031Y-33841D01*
X34680Y-33841D01*
X34588Y-33879D01*
X34518Y-33949D01*
X34480Y-34040D01*
X34480Y-34139D01*
X34480Y-34697D01*
X34518Y-34789D01*
X34588Y-34859D01*
X34679Y-34897D01*
X34778Y-34897D01*
X35172Y-34897D01*
X35264Y-34859D01*
X35334Y-34789D01*
X35372Y-34698D01*
X35372Y-34599D01*
X35372Y-34528D01*
X35397Y-34545D01*
X35516Y-34569D01*
X36624Y-34569D01*
X36624Y-36615D01*
X36579Y-36633D01*
X36510Y-36605D01*
X36337Y-36604D01*
X36275Y-36666D01*
X36275Y-37147D01*
X36275Y-37197D01*
X36275Y-37297D01*
X36175Y-37297D01*
X36175Y-37197D01*
X36175Y-37147D01*
X36175Y-36666D01*
X36113Y-36604D01*
X35940Y-36605D01*
X35870Y-36633D01*
X35802Y-36605D01*
X35703Y-36605D01*
X35579Y-36605D01*
X35579Y-35572D01*
X35579Y-35379D01*
X35505Y-35200D01*
X35369Y-35063D01*
X35190Y-34989D01*
X34997Y-34989D01*
X34818Y-35063D01*
X34681Y-35199D01*
X34607Y-35378D01*
X34607Y-35571D01*
X34681Y-35750D01*
X34817Y-35887D01*
X34996Y-35961D01*
X35189Y-35961D01*
X35368Y-35887D01*
X35505Y-35751D01*
X35579Y-35572D01*
X35579Y-36605D01*
X35372Y-36605D01*
X35372Y-36253D01*
X35334Y-36161D01*
X35264Y-36091D01*
X35173Y-36053D01*
X35074Y-36053D01*
X34680Y-36053D01*
X34588Y-36091D01*
X34518Y-36161D01*
X34480Y-36252D01*
X34480Y-36351D01*
X34480Y-36909D01*
X34518Y-37001D01*
X34588Y-37071D01*
X34679Y-37109D01*
X34778Y-37109D01*
X35031Y-37109D01*
X35031Y-37689D01*
X35069Y-37781D01*
X35090Y-37802D01*
X29815Y-37802D01*
X28922Y-36909D01*
X28922Y-35308D01*
X28913Y-35044D01*
X28829Y-34845D01*
X28722Y-34804D01*
X28651Y-34875D01*
X28651Y-34733D01*
X28610Y-34626D01*
X28363Y-34533D01*
X28099Y-34542D01*
X27900Y-34626D01*
X27859Y-34733D01*
X28255Y-35129D01*
X28651Y-34733D01*
X28651Y-34875D01*
X28326Y-35200D01*
X28722Y-35596D01*
X28829Y-35555D01*
X28922Y-35308D01*
X28922Y-36909D01*
X28651Y-36638D01*
X28651Y-35667D01*
X28255Y-35271D01*
X28184Y-35342D01*
X28184Y-35200D01*
X27788Y-34804D01*
X27681Y-34845D01*
X27588Y-35092D01*
X27597Y-35356D01*
X27681Y-35555D01*
X27788Y-35596D01*
X28184Y-35200D01*
X28184Y-35342D01*
X27859Y-35667D01*
X27900Y-35774D01*
X28147Y-35867D01*
X28411Y-35858D01*
X28610Y-35774D01*
X28651Y-35667D01*
X28651Y-36638D01*
X27420Y-35407D01*
X27450Y-35335D01*
X27450Y-35066D01*
X27347Y-34818D01*
X27158Y-34628D01*
X26910Y-34525D01*
X26641Y-34525D01*
X26393Y-34628D01*
X26203Y-34817D01*
X26100Y-35065D01*
X26100Y-35334D01*
X26203Y-35582D01*
X26392Y-35772D01*
X26640Y-35875D01*
X26909Y-35875D01*
X26981Y-35844D01*
X29468Y-38331D01*
X29568Y-38398D01*
X29569Y-38398D01*
X29687Y-38422D01*
X35796Y-38422D01*
X42198Y-44824D01*
X42118Y-44905D01*
X42035Y-45103D01*
X42035Y-45318D01*
X42035Y-45746D01*
X42117Y-45945D01*
X42269Y-46096D01*
X42278Y-46100D01*
X40873Y-46100D01*
X40881Y-46097D01*
X41032Y-45945D01*
X41115Y-45747D01*
X41115Y-45532D01*
X41115Y-45104D01*
X41033Y-44905D01*
X40883Y-44756D01*
X40861Y-44644D01*
X40861Y-44643D01*
X40794Y-44543D01*
X36018Y-39767D01*
X35918Y-39700D01*
X35799Y-39676D01*
X30664Y-39676D01*
X30545Y-39700D01*
X30444Y-39767D01*
X30310Y-39901D01*
X30001Y-39901D01*
X29909Y-39939D01*
X29839Y-40009D01*
X29801Y-40100D01*
X29801Y-40115D01*
X27649Y-40115D01*
X27649Y-40101D01*
X27611Y-40009D01*
X27541Y-39939D01*
X27450Y-39901D01*
X27351Y-39901D01*
X26751Y-39901D01*
X26659Y-39939D01*
X26589Y-40009D01*
X26551Y-40100D01*
X26551Y-40162D01*
X26478Y-40142D01*
X26408Y-40212D01*
X26408Y-40072D01*
X26381Y-39978D01*
X26179Y-39907D01*
X25966Y-39918D01*
X25819Y-39978D01*
X25792Y-40072D01*
X26100Y-40379D01*
X26408Y-40072D01*
X26408Y-40212D01*
X26171Y-40450D01*
X26478Y-40758D01*
X26551Y-40737D01*
X26551Y-40799D01*
X26589Y-40891D01*
X26659Y-40961D01*
X26750Y-40999D01*
X26849Y-40999D01*
X27449Y-40999D01*
X27541Y-40961D01*
X27611Y-40891D01*
X27649Y-40800D01*
X27649Y-40742D01*
X27681Y-40736D01*
X27682Y-40736D01*
X27682Y-40735D01*
X27683Y-40735D01*
X29801Y-40735D01*
X29801Y-40749D01*
X29839Y-40841D01*
X29909Y-40911D01*
X30000Y-40949D01*
X30099Y-40949D01*
X30449Y-40949D01*
X30541Y-40911D01*
X30600Y-40852D01*
X30659Y-40911D01*
X30751Y-40949D01*
X30863Y-40950D01*
X30925Y-40888D01*
X30925Y-40525D01*
X30925Y-40475D01*
X30925Y-40375D01*
X31025Y-40375D01*
X31075Y-40375D01*
X31338Y-40375D01*
X31400Y-40313D01*
X31399Y-40296D01*
X35671Y-40296D01*
X40198Y-44823D01*
X40118Y-44905D01*
X40075Y-45007D01*
X40033Y-44905D01*
X39881Y-44754D01*
X39683Y-44671D01*
X39468Y-44671D01*
X39269Y-44753D01*
X39118Y-44905D01*
X39075Y-45006D01*
X39064Y-44968D01*
X38928Y-44800D01*
X38738Y-44697D01*
X38710Y-44693D01*
X38625Y-44740D01*
X38625Y-45325D01*
X38625Y-45375D01*
X38625Y-45475D01*
X38525Y-45475D01*
X38525Y-45375D01*
X38525Y-45325D01*
X38525Y-44740D01*
X38440Y-44693D01*
X38412Y-44697D01*
X38222Y-44800D01*
X38086Y-44968D01*
X38074Y-45006D01*
X38033Y-44905D01*
X37881Y-44754D01*
X37683Y-44671D01*
X37468Y-44671D01*
X37269Y-44753D01*
X37118Y-44905D01*
X37075Y-45007D01*
X37033Y-44905D01*
X36881Y-44754D01*
X36683Y-44671D01*
X36468Y-44671D01*
X36269Y-44753D01*
X36118Y-44905D01*
X36075Y-45007D01*
X36033Y-44905D01*
X35881Y-44754D01*
X35683Y-44671D01*
X35468Y-44671D01*
X35269Y-44753D01*
X35118Y-44905D01*
X35035Y-45103D01*
X35035Y-45318D01*
X35035Y-45746D01*
X35117Y-45945D01*
X35269Y-46096D01*
X35278Y-46100D01*
X31400Y-46100D01*
X31400Y-40537D01*
X31338Y-40475D01*
X31025Y-40475D01*
X31025Y-40888D01*
X31087Y-40950D01*
X31199Y-40949D01*
X31291Y-40911D01*
X31361Y-40841D01*
X31399Y-40750D01*
X31399Y-40651D01*
X31400Y-40537D01*
X31400Y-46100D01*
X28849Y-46100D01*
X28943Y-46006D01*
X29100Y-45630D01*
X29100Y-45222D01*
X28944Y-44845D01*
X28656Y-44557D01*
X28280Y-44400D01*
X27872Y-44400D01*
X27495Y-44556D01*
X27207Y-44844D01*
X27050Y-45220D01*
X27050Y-45628D01*
X27206Y-46005D01*
X27301Y-46100D01*
X26408Y-46100D01*
X26408Y-40828D01*
X26100Y-40521D01*
X26029Y-40591D01*
X26029Y-40450D01*
X25722Y-40142D01*
X25628Y-40169D01*
X25604Y-40234D01*
X25565Y-40139D01*
X25411Y-39985D01*
X25209Y-39901D01*
X24991Y-39901D01*
X24789Y-39985D01*
X24635Y-40139D01*
X24600Y-40223D01*
X24565Y-40139D01*
X24411Y-39985D01*
X24209Y-39901D01*
X23991Y-39901D01*
X23789Y-39985D01*
X23635Y-40139D01*
X23551Y-40341D01*
X23551Y-40559D01*
X23635Y-40761D01*
X23789Y-40915D01*
X23991Y-40999D01*
X24209Y-40999D01*
X24411Y-40915D01*
X24565Y-40761D01*
X24600Y-40676D01*
X24635Y-40761D01*
X24789Y-40915D01*
X24991Y-40999D01*
X25209Y-40999D01*
X25411Y-40915D01*
X25565Y-40761D01*
X25602Y-40669D01*
X25628Y-40731D01*
X25722Y-40758D01*
X26029Y-40450D01*
X26029Y-40591D01*
X25792Y-40828D01*
X25819Y-40922D01*
X26021Y-40993D01*
X26234Y-40982D01*
X26381Y-40922D01*
X26408Y-40828D01*
X26408Y-46100D01*
X22900Y-46100D01*
X22900Y-25750D01*
X27801Y-25750D01*
X27707Y-25844D01*
X27550Y-26220D01*
X27550Y-26628D01*
X27706Y-27005D01*
X27994Y-27293D01*
X28370Y-27450D01*
X28778Y-27450D01*
X29155Y-27294D01*
X29443Y-27006D01*
X29600Y-26630D01*
X29600Y-26222D01*
X29444Y-25845D01*
X29349Y-25750D01*
X31676Y-25750D01*
X31669Y-25753D01*
X31518Y-25905D01*
X31435Y-26103D01*
X31435Y-26318D01*
X31435Y-26746D01*
X31517Y-26945D01*
X31669Y-27096D01*
X31867Y-27179D01*
X32082Y-27179D01*
X32281Y-27097D01*
X32432Y-26945D01*
X32474Y-26842D01*
X32517Y-26945D01*
X32669Y-27096D01*
X32867Y-27179D01*
X33082Y-27179D01*
X33281Y-27097D01*
X33432Y-26945D01*
X33474Y-26842D01*
X33517Y-26945D01*
X33669Y-27096D01*
X33867Y-27179D01*
X34082Y-27179D01*
X34281Y-27097D01*
X34432Y-26945D01*
X34474Y-26842D01*
X34517Y-26945D01*
X34669Y-27096D01*
X34867Y-27179D01*
X35082Y-27179D01*
X35281Y-27097D01*
X35432Y-26945D01*
X35474Y-26842D01*
X35517Y-26945D01*
X35669Y-27096D01*
X35867Y-27179D01*
X36082Y-27179D01*
X36281Y-27097D01*
X36432Y-26945D01*
X36474Y-26842D01*
X36517Y-26945D01*
X36669Y-27096D01*
X36867Y-27179D01*
X37082Y-27179D01*
X37281Y-27097D01*
X37432Y-26945D01*
X37474Y-26842D01*
X37517Y-26945D01*
X37669Y-27096D01*
X37867Y-27179D01*
X38082Y-27179D01*
X38281Y-27097D01*
X38432Y-26945D01*
X38474Y-26842D01*
X38517Y-26945D01*
X38669Y-27096D01*
X38867Y-27179D01*
X39082Y-27179D01*
X39281Y-27097D01*
X39432Y-26945D01*
X39515Y-26747D01*
X39515Y-26532D01*
X39515Y-26104D01*
X39433Y-25905D01*
X39281Y-25754D01*
X39271Y-25750D01*
X40276Y-25750D01*
X40269Y-25753D01*
X40118Y-25905D01*
X40035Y-26103D01*
X40035Y-26318D01*
X40035Y-26746D01*
X40117Y-26945D01*
X40269Y-27096D01*
X40467Y-27179D01*
X40682Y-27179D01*
X40881Y-27097D01*
X41032Y-26945D01*
X41074Y-26842D01*
X41117Y-26945D01*
X41269Y-27096D01*
X41467Y-27179D01*
X41682Y-27179D01*
X41881Y-27097D01*
X42032Y-26945D01*
X42074Y-26842D01*
X42117Y-26945D01*
X42269Y-27096D01*
X42467Y-27179D01*
X42682Y-27179D01*
X42881Y-27097D01*
X43032Y-26945D01*
X43074Y-26842D01*
X43117Y-26945D01*
X43269Y-27096D01*
X43467Y-27179D01*
X43682Y-27179D01*
X43881Y-27097D01*
X44032Y-26945D01*
X44074Y-26842D01*
X44117Y-26945D01*
X44269Y-27096D01*
X44467Y-27179D01*
X44682Y-27179D01*
X44881Y-27097D01*
X45032Y-26945D01*
X45074Y-26842D01*
X45117Y-26945D01*
X45266Y-27093D01*
X45289Y-27207D01*
X45356Y-27307D01*
X45796Y-27748D01*
X45796Y-27748D01*
G37*
G54D25*
X45796Y-27748D02*
X45679Y-27707D01*
X45466Y-27718D01*
X45319Y-27778D01*
X45292Y-27872D01*
X45565Y-28144D01*
X45600Y-28179D01*
X45671Y-28250D01*
X45600Y-28321D01*
X45529Y-28391D01*
X45529Y-28250D01*
X45222Y-27942D01*
X45128Y-27969D01*
X45057Y-28171D01*
X45068Y-28384D01*
X45128Y-28531D01*
X45222Y-28558D01*
X45529Y-28250D01*
X45529Y-28391D01*
X45292Y-28628D01*
X45319Y-28722D01*
X45521Y-28793D01*
X45623Y-28787D01*
X41018Y-33393D01*
X37849Y-33393D01*
X37849Y-28500D01*
X37849Y-28401D01*
X37849Y-27801D01*
X37811Y-27709D01*
X37741Y-27639D01*
X37650Y-27601D01*
X37551Y-27601D01*
X36951Y-27601D01*
X36859Y-27639D01*
X36789Y-27709D01*
X36751Y-27800D01*
X36751Y-27825D01*
X36611Y-27685D01*
X36409Y-27601D01*
X36191Y-27601D01*
X35989Y-27685D01*
X35835Y-27839D01*
X35797Y-27930D01*
X35772Y-27869D01*
X35678Y-27842D01*
X35608Y-27912D01*
X35608Y-27772D01*
X35581Y-27678D01*
X35379Y-27607D01*
X35166Y-27618D01*
X35019Y-27678D01*
X34992Y-27772D01*
X35300Y-28079D01*
X35608Y-27772D01*
X35608Y-27912D01*
X35371Y-28150D01*
X35678Y-28458D01*
X35772Y-28431D01*
X35795Y-28365D01*
X35835Y-28461D01*
X35989Y-28615D01*
X36191Y-28699D01*
X36313Y-28699D01*
X35608Y-29404D01*
X35608Y-28528D01*
X35300Y-28221D01*
X35229Y-28291D01*
X35229Y-28150D01*
X34922Y-27842D01*
X34828Y-27869D01*
X34757Y-28071D01*
X34768Y-28284D01*
X34828Y-28431D01*
X34922Y-28458D01*
X35229Y-28150D01*
X35229Y-28291D01*
X34992Y-28528D01*
X35019Y-28622D01*
X35221Y-28693D01*
X35434Y-28682D01*
X35581Y-28622D01*
X35608Y-28528D01*
X35608Y-29404D01*
X31383Y-33629D01*
X29995Y-33629D01*
X29995Y-31470D01*
X29995Y-31052D01*
X29835Y-30666D01*
X29540Y-30370D01*
X29155Y-30210D01*
X28737Y-30210D01*
X28351Y-30370D01*
X28055Y-30665D01*
X27895Y-31050D01*
X27895Y-31468D01*
X28055Y-31854D01*
X28350Y-32150D01*
X28735Y-32310D01*
X29153Y-32310D01*
X29539Y-32150D01*
X29835Y-31855D01*
X29995Y-31470D01*
X29995Y-33629D01*
X26556Y-33629D01*
X26437Y-33653D01*
X26337Y-33720D01*
X25655Y-34401D01*
X25655Y-31470D01*
X25655Y-31052D01*
X25495Y-30666D01*
X25200Y-30370D01*
X24815Y-30210D01*
X24397Y-30210D01*
X24011Y-30370D01*
X23715Y-30665D01*
X23555Y-31050D01*
X23555Y-31468D01*
X23715Y-31854D01*
X24010Y-32150D01*
X24395Y-32310D01*
X24813Y-32310D01*
X25199Y-32150D01*
X25495Y-31855D01*
X25655Y-31470D01*
X25655Y-34401D01*
X25502Y-34554D01*
X25430Y-34525D01*
X25161Y-34525D01*
X24913Y-34628D01*
X24723Y-34817D01*
X24620Y-35065D01*
X24620Y-35334D01*
X24723Y-35582D01*
X24912Y-35772D01*
X25160Y-35875D01*
X25429Y-35875D01*
X25677Y-35772D01*
X25867Y-35583D01*
X25970Y-35335D01*
X25970Y-35066D01*
X25939Y-34993D01*
X26684Y-34249D01*
X31511Y-34249D01*
X31629Y-34225D01*
X31630Y-34225D01*
X31730Y-34158D01*
X37056Y-28832D01*
X37123Y-28732D01*
X37123Y-28731D01*
X37129Y-28699D01*
X37649Y-28699D01*
X37741Y-28661D01*
X37811Y-28591D01*
X37849Y-28500D01*
X37849Y-33393D01*
X37419Y-33393D01*
X37419Y-33261D01*
X37381Y-33169D01*
X37311Y-33099D01*
X37220Y-33061D01*
X37121Y-33061D01*
X36649Y-33061D01*
X36579Y-33089D01*
X36511Y-33061D01*
X36412Y-33061D01*
X35940Y-33061D01*
X35870Y-33089D01*
X35802Y-33061D01*
X35703Y-33061D01*
X35231Y-33061D01*
X35139Y-33099D01*
X35069Y-33169D01*
X35031Y-33260D01*
X35031Y-33359D01*
X35031Y-33841D01*
X34680Y-33841D01*
X34588Y-33879D01*
X34518Y-33949D01*
X34480Y-34040D01*
X34480Y-34139D01*
X34480Y-34697D01*
X34518Y-34789D01*
X34588Y-34859D01*
X34679Y-34897D01*
X34778Y-34897D01*
X35172Y-34897D01*
X35264Y-34859D01*
X35334Y-34789D01*
X35372Y-34698D01*
X35372Y-34599D01*
X35372Y-34528D01*
X35397Y-34545D01*
X35516Y-34569D01*
X36624Y-34569D01*
X36624Y-36615D01*
X36579Y-36633D01*
X36510Y-36605D01*
X36337Y-36604D01*
X36275Y-36666D01*
X36275Y-37147D01*
X36275Y-37197D01*
X36275Y-37297D01*
X36175Y-37297D01*
X36175Y-37197D01*
X36175Y-37147D01*
X36175Y-36666D01*
X36113Y-36604D01*
X35940Y-36605D01*
X35870Y-36633D01*
X35802Y-36605D01*
X35703Y-36605D01*
X35579Y-36605D01*
X35579Y-35572D01*
X35579Y-35379D01*
X35505Y-35200D01*
X35369Y-35063D01*
X35190Y-34989D01*
X34997Y-34989D01*
X34818Y-35063D01*
X34681Y-35199D01*
X34607Y-35378D01*
X34607Y-35571D01*
X34681Y-35750D01*
X34817Y-35887D01*
X34996Y-35961D01*
X35189Y-35961D01*
X35368Y-35887D01*
X35505Y-35751D01*
X35579Y-35572D01*
X35579Y-36605D01*
X35372Y-36605D01*
X35372Y-36253D01*
X35334Y-36161D01*
X35264Y-36091D01*
X35173Y-36053D01*
X35074Y-36053D01*
X34680Y-36053D01*
X34588Y-36091D01*
X34518Y-36161D01*
X34480Y-36252D01*
X34480Y-36351D01*
X34480Y-36909D01*
X34518Y-37001D01*
X34588Y-37071D01*
X34679Y-37109D01*
X34778Y-37109D01*
X35031Y-37109D01*
X35031Y-37689D01*
X35069Y-37781D01*
X35090Y-37802D01*
X29815Y-37802D01*
X28922Y-36909D01*
X28922Y-35308D01*
X28913Y-35044D01*
X28829Y-34845D01*
X28722Y-34804D01*
X28651Y-34875D01*
X28651Y-34733D01*
X28610Y-34626D01*
X28363Y-34533D01*
X28099Y-34542D01*
X27900Y-34626D01*
X27859Y-34733D01*
X28255Y-35129D01*
X28651Y-34733D01*
X28651Y-34875D01*
X28326Y-35200D01*
X28722Y-35596D01*
X28829Y-35555D01*
X28922Y-35308D01*
X28922Y-36909D01*
X28651Y-36638D01*
X28651Y-35667D01*
X28255Y-35271D01*
X28184Y-35342D01*
X28184Y-35200D01*
X27788Y-34804D01*
X27681Y-34845D01*
X27588Y-35092D01*
X27597Y-35356D01*
X27681Y-35555D01*
X27788Y-35596D01*
X28184Y-35200D01*
X28184Y-35342D01*
X27859Y-35667D01*
X27900Y-35774D01*
X28147Y-35867D01*
X28411Y-35858D01*
X28610Y-35774D01*
X28651Y-35667D01*
X28651Y-36638D01*
X27420Y-35407D01*
X27450Y-35335D01*
X27450Y-35066D01*
X27347Y-34818D01*
X27158Y-34628D01*
X26910Y-34525D01*
X26641Y-34525D01*
X26393Y-34628D01*
X26203Y-34817D01*
X26100Y-35065D01*
X26100Y-35334D01*
X26203Y-35582D01*
X26392Y-35772D01*
X26640Y-35875D01*
X26909Y-35875D01*
X26981Y-35844D01*
X29468Y-38331D01*
X29568Y-38398D01*
X29569Y-38398D01*
X29687Y-38422D01*
X35796Y-38422D01*
X42198Y-44824D01*
X42118Y-44905D01*
X42035Y-45103D01*
X42035Y-45318D01*
X42035Y-45746D01*
X42117Y-45945D01*
X42269Y-46096D01*
X42278Y-46100D01*
X40873Y-46100D01*
X40881Y-46097D01*
X41032Y-45945D01*
X41115Y-45747D01*
X41115Y-45532D01*
X41115Y-45104D01*
X41033Y-44905D01*
X40883Y-44756D01*
X40861Y-44644D01*
X40861Y-44643D01*
X40794Y-44543D01*
X36018Y-39767D01*
X35918Y-39700D01*
X35799Y-39676D01*
X30664Y-39676D01*
X30545Y-39700D01*
X30444Y-39767D01*
X30310Y-39901D01*
X30001Y-39901D01*
X29909Y-39939D01*
X29839Y-40009D01*
X29801Y-40100D01*
X29801Y-40115D01*
X27649Y-40115D01*
X27649Y-40101D01*
X27611Y-40009D01*
X27541Y-39939D01*
X27450Y-39901D01*
X27351Y-39901D01*
X26751Y-39901D01*
X26659Y-39939D01*
X26589Y-40009D01*
X26551Y-40100D01*
X26551Y-40162D01*
X26478Y-40142D01*
X26408Y-40212D01*
X26408Y-40072D01*
X26381Y-39978D01*
X26179Y-39907D01*
X25966Y-39918D01*
X25819Y-39978D01*
X25792Y-40072D01*
X26100Y-40379D01*
X26408Y-40072D01*
X26408Y-40212D01*
X26171Y-40450D01*
X26478Y-40758D01*
X26551Y-40737D01*
X26551Y-40799D01*
X26589Y-40891D01*
X26659Y-40961D01*
X26750Y-40999D01*
X26849Y-40999D01*
X27449Y-40999D01*
X27541Y-40961D01*
X27611Y-40891D01*
X27649Y-40800D01*
X27649Y-40742D01*
X27681Y-40736D01*
X27682Y-40736D01*
X27682Y-40735D01*
X27683Y-40735D01*
X29801Y-40735D01*
X29801Y-40749D01*
X29839Y-40841D01*
X29909Y-40911D01*
X30000Y-40949D01*
X30099Y-40949D01*
X30449Y-40949D01*
X30541Y-40911D01*
X30600Y-40852D01*
X30659Y-40911D01*
X30751Y-40949D01*
X30863Y-40950D01*
X30925Y-40888D01*
X30925Y-40525D01*
X30925Y-40475D01*
X30925Y-40375D01*
X31025Y-40375D01*
X31075Y-40375D01*
X31338Y-40375D01*
X31400Y-40313D01*
X31399Y-40296D01*
X35671Y-40296D01*
X40198Y-44823D01*
X40118Y-44905D01*
X40075Y-45007D01*
X40033Y-44905D01*
X39881Y-44754D01*
X39683Y-44671D01*
X39468Y-44671D01*
X39269Y-44753D01*
X39118Y-44905D01*
X39075Y-45006D01*
X39064Y-44968D01*
X38928Y-44800D01*
X38738Y-44697D01*
X38710Y-44693D01*
X38625Y-44740D01*
X38625Y-45325D01*
X38625Y-45375D01*
X38625Y-45475D01*
X38525Y-45475D01*
X38525Y-45375D01*
X38525Y-45325D01*
X38525Y-44740D01*
X38440Y-44693D01*
X38412Y-44697D01*
X38222Y-44800D01*
X38086Y-44968D01*
X38074Y-45006D01*
X38033Y-44905D01*
X37881Y-44754D01*
X37683Y-44671D01*
X37468Y-44671D01*
X37269Y-44753D01*
X37118Y-44905D01*
X37075Y-45007D01*
X37033Y-44905D01*
X36881Y-44754D01*
X36683Y-44671D01*
X36468Y-44671D01*
X36269Y-44753D01*
X36118Y-44905D01*
X36075Y-45007D01*
X36033Y-44905D01*
X35881Y-44754D01*
X35683Y-44671D01*
X35468Y-44671D01*
X35269Y-44753D01*
X35118Y-44905D01*
X35035Y-45103D01*
X35035Y-45318D01*
X35035Y-45746D01*
X35117Y-45945D01*
X35269Y-46096D01*
X35278Y-46100D01*
X31400Y-46100D01*
X31400Y-40537D01*
X31338Y-40475D01*
X31025Y-40475D01*
X31025Y-40888D01*
X31087Y-40950D01*
X31199Y-40949D01*
X31291Y-40911D01*
X31361Y-40841D01*
X31399Y-40750D01*
X31399Y-40651D01*
X31400Y-40537D01*
X31400Y-46100D01*
X28849Y-46100D01*
X28943Y-46006D01*
X29100Y-45630D01*
X29100Y-45222D01*
X28944Y-44845D01*
X28656Y-44557D01*
X28280Y-44400D01*
X27872Y-44400D01*
X27495Y-44556D01*
X27207Y-44844D01*
X27050Y-45220D01*
X27050Y-45628D01*
X27206Y-46005D01*
X27301Y-46100D01*
X26408Y-46100D01*
X26408Y-40828D01*
X26100Y-40521D01*
X26029Y-40591D01*
X26029Y-40450D01*
X25722Y-40142D01*
X25628Y-40169D01*
X25604Y-40234D01*
X25565Y-40139D01*
X25411Y-39985D01*
X25209Y-39901D01*
X24991Y-39901D01*
X24789Y-39985D01*
X24635Y-40139D01*
X24600Y-40223D01*
X24565Y-40139D01*
X24411Y-39985D01*
X24209Y-39901D01*
X23991Y-39901D01*
X23789Y-39985D01*
X23635Y-40139D01*
X23551Y-40341D01*
X23551Y-40559D01*
X23635Y-40761D01*
X23789Y-40915D01*
X23991Y-40999D01*
X24209Y-40999D01*
X24411Y-40915D01*
X24565Y-40761D01*
X24600Y-40676D01*
X24635Y-40761D01*
X24789Y-40915D01*
X24991Y-40999D01*
X25209Y-40999D01*
X25411Y-40915D01*
X25565Y-40761D01*
X25602Y-40669D01*
X25628Y-40731D01*
X25722Y-40758D01*
X26029Y-40450D01*
X26029Y-40591D01*
X25792Y-40828D01*
X25819Y-40922D01*
X26021Y-40993D01*
X26234Y-40982D01*
X26381Y-40922D01*
X26408Y-40828D01*
X26408Y-46100D01*
X22900Y-46100D01*
X22900Y-25750D01*
X27801Y-25750D01*
X27707Y-25844D01*
X27550Y-26220D01*
X27550Y-26628D01*
X27706Y-27005D01*
X27994Y-27293D01*
X28370Y-27450D01*
X28778Y-27450D01*
X29155Y-27294D01*
X29443Y-27006D01*
X29600Y-26630D01*
X29600Y-26222D01*
X29444Y-25845D01*
X29349Y-25750D01*
X31676Y-25750D01*
X31669Y-25753D01*
X31518Y-25905D01*
X31435Y-26103D01*
X31435Y-26318D01*
X31435Y-26746D01*
X31517Y-26945D01*
X31669Y-27096D01*
X31867Y-27179D01*
X32082Y-27179D01*
X32281Y-27097D01*
X32432Y-26945D01*
X32474Y-26842D01*
X32517Y-26945D01*
X32669Y-27096D01*
X32867Y-27179D01*
X33082Y-27179D01*
X33281Y-27097D01*
X33432Y-26945D01*
X33474Y-26842D01*
X33517Y-26945D01*
X33669Y-27096D01*
X33867Y-27179D01*
X34082Y-27179D01*
X34281Y-27097D01*
X34432Y-26945D01*
X34474Y-26842D01*
X34517Y-26945D01*
X34669Y-27096D01*
X34867Y-27179D01*
X35082Y-27179D01*
X35281Y-27097D01*
X35432Y-26945D01*
X35474Y-26842D01*
X35517Y-26945D01*
X35669Y-27096D01*
X35867Y-27179D01*
X36082Y-27179D01*
X36281Y-27097D01*
X36432Y-26945D01*
X36474Y-26842D01*
X36517Y-26945D01*
X36669Y-27096D01*
X36867Y-27179D01*
X37082Y-27179D01*
X37281Y-27097D01*
X37432Y-26945D01*
X37474Y-26842D01*
X37517Y-26945D01*
X37669Y-27096D01*
X37867Y-27179D01*
X38082Y-27179D01*
X38281Y-27097D01*
X38432Y-26945D01*
X38474Y-26842D01*
X38517Y-26945D01*
X38669Y-27096D01*
X38867Y-27179D01*
X39082Y-27179D01*
X39281Y-27097D01*
X39432Y-26945D01*
X39515Y-26747D01*
X39515Y-26532D01*
X39515Y-26104D01*
X39433Y-25905D01*
X39281Y-25754D01*
X39271Y-25750D01*
X40276Y-25750D01*
X40269Y-25753D01*
X40118Y-25905D01*
X40035Y-26103D01*
X40035Y-26318D01*
X40035Y-26746D01*
X40117Y-26945D01*
X40269Y-27096D01*
X40467Y-27179D01*
X40682Y-27179D01*
X40881Y-27097D01*
X41032Y-26945D01*
X41074Y-26842D01*
X41117Y-26945D01*
X41269Y-27096D01*
X41467Y-27179D01*
X41682Y-27179D01*
X41881Y-27097D01*
X42032Y-26945D01*
X42074Y-26842D01*
X42117Y-26945D01*
X42269Y-27096D01*
X42467Y-27179D01*
X42682Y-27179D01*
X42881Y-27097D01*
X43032Y-26945D01*
X43074Y-26842D01*
X43117Y-26945D01*
X43269Y-27096D01*
X43467Y-27179D01*
X43682Y-27179D01*
X43881Y-27097D01*
X44032Y-26945D01*
X44074Y-26842D01*
X44117Y-26945D01*
X44269Y-27096D01*
X44467Y-27179D01*
X44682Y-27179D01*
X44881Y-27097D01*
X45032Y-26945D01*
X45074Y-26842D01*
X45117Y-26945D01*
X45266Y-27093D01*
X45289Y-27207D01*
X45356Y-27307D01*
X45796Y-27748D01*
G54D10*
G36*
X49250Y-44290D02*
X48345Y-45195D01*
X48275Y-45301D01*
X48250Y-45425D01*
X48250Y-46100D01*
X47873Y-46100D01*
X47881Y-46097D01*
X48032Y-45945D01*
X48115Y-45747D01*
X48115Y-45532D01*
X48115Y-45104D01*
X48033Y-44905D01*
X47881Y-44754D01*
X47683Y-44671D01*
X47468Y-44671D01*
X47269Y-44753D01*
X47118Y-44905D01*
X47075Y-45007D01*
X47033Y-44905D01*
X46881Y-44754D01*
X46683Y-44671D01*
X46468Y-44671D01*
X46269Y-44753D01*
X46118Y-44905D01*
X46075Y-45007D01*
X46033Y-44905D01*
X45881Y-44754D01*
X45683Y-44671D01*
X45509Y-44671D01*
X45509Y-38280D01*
X45509Y-38181D01*
X45509Y-37481D01*
X45503Y-37466D01*
X45471Y-37389D01*
X45401Y-37319D01*
X45353Y-37299D01*
X45412Y-37241D01*
X45376Y-37205D01*
X45423Y-37190D01*
X45503Y-36971D01*
X45492Y-36736D01*
X45423Y-36570D01*
X45324Y-36537D01*
X45016Y-36845D01*
X44981Y-36880D01*
X44910Y-36951D01*
X44839Y-36880D01*
X44804Y-36845D01*
X44496Y-36537D01*
X44425Y-36560D01*
X44418Y-36541D01*
X44257Y-36380D01*
X44410Y-36227D01*
X44571Y-36388D01*
X44590Y-36395D01*
X44567Y-36466D01*
X44910Y-36809D01*
X45253Y-36466D01*
X45229Y-36395D01*
X45249Y-36388D01*
X45418Y-36219D01*
X45509Y-35999D01*
X45509Y-35761D01*
X45418Y-35541D01*
X45257Y-35380D01*
X45418Y-35219D01*
X45509Y-34999D01*
X45509Y-34761D01*
X45418Y-34541D01*
X45257Y-34380D01*
X45418Y-34219D01*
X45509Y-33999D01*
X45509Y-33761D01*
X45418Y-33541D01*
X45249Y-33372D01*
X45029Y-33281D01*
X44791Y-33281D01*
X44571Y-33372D01*
X44410Y-33533D01*
X44249Y-33372D01*
X44029Y-33281D01*
X43791Y-33281D01*
X43571Y-33372D01*
X43402Y-33541D01*
X43311Y-33761D01*
X43311Y-33999D01*
X43402Y-34219D01*
X43563Y-34380D01*
X43402Y-34541D01*
X43311Y-34761D01*
X43311Y-34999D01*
X43402Y-35219D01*
X43563Y-35380D01*
X43402Y-35541D01*
X43311Y-35761D01*
X43311Y-35999D01*
X43402Y-36219D01*
X43563Y-36380D01*
X43402Y-36541D01*
X43311Y-36761D01*
X43311Y-36999D01*
X43402Y-37219D01*
X43563Y-37380D01*
X43402Y-37541D01*
X43311Y-37761D01*
X43311Y-37999D01*
X43402Y-38219D01*
X43571Y-38388D01*
X43791Y-38479D01*
X44029Y-38479D01*
X44249Y-38388D01*
X44324Y-38312D01*
X44349Y-38371D01*
X44419Y-38441D01*
X44510Y-38479D01*
X44609Y-38479D01*
X45309Y-38479D01*
X45401Y-38441D01*
X45471Y-38371D01*
X45509Y-38280D01*
X45509Y-44671D01*
X45468Y-44671D01*
X45269Y-44753D01*
X45118Y-44905D01*
X45075Y-45007D01*
X45033Y-44905D01*
X44881Y-44754D01*
X44683Y-44671D01*
X44468Y-44671D01*
X44269Y-44753D01*
X44118Y-44905D01*
X44075Y-45007D01*
X44033Y-44905D01*
X43881Y-44754D01*
X43683Y-44671D01*
X43468Y-44671D01*
X43269Y-44753D01*
X43118Y-44905D01*
X43075Y-45007D01*
X43033Y-44905D01*
X42883Y-44756D01*
X42861Y-44644D01*
X42861Y-44643D01*
X42827Y-44593D01*
X42794Y-44543D01*
X42794Y-44542D01*
X36364Y-38113D01*
X36934Y-38113D01*
X37053Y-38089D01*
X37153Y-38022D01*
X37220Y-37922D01*
X37227Y-37885D01*
X37311Y-37851D01*
X37381Y-37781D01*
X37419Y-37690D01*
X37419Y-37591D01*
X37419Y-37109D01*
X37770Y-37109D01*
X37862Y-37071D01*
X37932Y-37001D01*
X37970Y-36910D01*
X37970Y-36811D01*
X37970Y-36253D01*
X37932Y-36161D01*
X37862Y-36091D01*
X37781Y-36057D01*
X37781Y-35486D01*
X37767Y-35320D01*
X37730Y-35227D01*
X37648Y-35216D01*
X37428Y-35436D01*
X37648Y-35656D01*
X37730Y-35645D01*
X37781Y-35486D01*
X37781Y-36057D01*
X37771Y-36053D01*
X37672Y-36053D01*
X37278Y-36053D01*
X37244Y-36067D01*
X37244Y-35839D01*
X37307Y-35860D01*
X37473Y-35846D01*
X37566Y-35809D01*
X37577Y-35727D01*
X37392Y-35542D01*
X37357Y-35507D01*
X37286Y-35436D01*
X37357Y-35365D01*
X37392Y-35330D01*
X37577Y-35145D01*
X37566Y-35063D01*
X37407Y-35012D01*
X37244Y-35025D01*
X37244Y-34883D01*
X37277Y-34897D01*
X37376Y-34897D01*
X37770Y-34897D01*
X37862Y-34859D01*
X37932Y-34789D01*
X37970Y-34698D01*
X37970Y-34599D01*
X37970Y-34041D01*
X37958Y-34013D01*
X41147Y-34013D01*
X41265Y-33989D01*
X41266Y-33989D01*
X41366Y-33922D01*
X46356Y-28933D01*
X46356Y-28932D01*
X46423Y-28832D01*
X46429Y-28799D01*
X46949Y-28799D01*
X47041Y-28761D01*
X47111Y-28691D01*
X47149Y-28600D01*
X47149Y-28501D01*
X47149Y-27901D01*
X47111Y-27809D01*
X47041Y-27739D01*
X46950Y-27701D01*
X46851Y-27701D01*
X46447Y-27701D01*
X46447Y-27650D01*
X46446Y-27649D01*
X46423Y-27531D01*
X46356Y-27431D01*
X46356Y-27430D01*
X45951Y-27026D01*
X46032Y-26945D01*
X46074Y-26842D01*
X46117Y-26945D01*
X46269Y-27096D01*
X46467Y-27179D01*
X46682Y-27179D01*
X46881Y-27097D01*
X47032Y-26945D01*
X47074Y-26842D01*
X47117Y-26945D01*
X47269Y-27096D01*
X47467Y-27179D01*
X47682Y-27179D01*
X47881Y-27097D01*
X48032Y-26945D01*
X48115Y-26747D01*
X48115Y-26532D01*
X48115Y-26104D01*
X48033Y-25905D01*
X47881Y-25754D01*
X47871Y-25750D01*
X47940Y-25750D01*
X48250Y-26060D01*
X48250Y-30425D01*
X48275Y-30549D01*
X48345Y-30655D01*
X49250Y-31560D01*
X49250Y-31651D01*
X49156Y-31557D01*
X48780Y-31400D01*
X48372Y-31400D01*
X47995Y-31556D01*
X47707Y-31844D01*
X47550Y-32220D01*
X47550Y-32628D01*
X47706Y-33005D01*
X47994Y-33293D01*
X48370Y-33450D01*
X48778Y-33450D01*
X49155Y-33294D01*
X49250Y-33199D01*
X49250Y-42651D01*
X49156Y-42557D01*
X48780Y-42400D01*
X48372Y-42400D01*
X47995Y-42556D01*
X47707Y-42844D01*
X47550Y-43220D01*
X47550Y-43628D01*
X47706Y-44005D01*
X47994Y-44293D01*
X48370Y-44450D01*
X48778Y-44450D01*
X49155Y-44294D01*
X49250Y-44199D01*
X49250Y-44290D01*
X49250Y-44290D01*
G37*
G54D25*
X49250Y-44290D02*
X48345Y-45195D01*
X48275Y-45301D01*
X48250Y-45425D01*
X48250Y-46100D01*
X47873Y-46100D01*
X47881Y-46097D01*
X48032Y-45945D01*
X48115Y-45747D01*
X48115Y-45532D01*
X48115Y-45104D01*
X48033Y-44905D01*
X47881Y-44754D01*
X47683Y-44671D01*
X47468Y-44671D01*
X47269Y-44753D01*
X47118Y-44905D01*
X47075Y-45007D01*
X47033Y-44905D01*
X46881Y-44754D01*
X46683Y-44671D01*
X46468Y-44671D01*
X46269Y-44753D01*
X46118Y-44905D01*
X46075Y-45007D01*
X46033Y-44905D01*
X45881Y-44754D01*
X45683Y-44671D01*
X45509Y-44671D01*
X45509Y-38280D01*
X45509Y-38181D01*
X45509Y-37481D01*
X45503Y-37466D01*
X45471Y-37389D01*
X45401Y-37319D01*
X45353Y-37299D01*
X45412Y-37241D01*
X45376Y-37205D01*
X45423Y-37190D01*
X45503Y-36971D01*
X45492Y-36736D01*
X45423Y-36570D01*
X45324Y-36537D01*
X45016Y-36845D01*
X44981Y-36880D01*
X44910Y-36951D01*
X44839Y-36880D01*
X44804Y-36845D01*
X44496Y-36537D01*
X44425Y-36560D01*
X44418Y-36541D01*
X44257Y-36380D01*
X44410Y-36227D01*
X44571Y-36388D01*
X44590Y-36395D01*
X44567Y-36466D01*
X44910Y-36809D01*
X45253Y-36466D01*
X45229Y-36395D01*
X45249Y-36388D01*
X45418Y-36219D01*
X45509Y-35999D01*
X45509Y-35761D01*
X45418Y-35541D01*
X45257Y-35380D01*
X45418Y-35219D01*
X45509Y-34999D01*
X45509Y-34761D01*
X45418Y-34541D01*
X45257Y-34380D01*
X45418Y-34219D01*
X45509Y-33999D01*
X45509Y-33761D01*
X45418Y-33541D01*
X45249Y-33372D01*
X45029Y-33281D01*
X44791Y-33281D01*
X44571Y-33372D01*
X44410Y-33533D01*
X44249Y-33372D01*
X44029Y-33281D01*
X43791Y-33281D01*
X43571Y-33372D01*
X43402Y-33541D01*
X43311Y-33761D01*
X43311Y-33999D01*
X43402Y-34219D01*
X43563Y-34380D01*
X43402Y-34541D01*
X43311Y-34761D01*
X43311Y-34999D01*
X43402Y-35219D01*
X43563Y-35380D01*
X43402Y-35541D01*
X43311Y-35761D01*
X43311Y-35999D01*
X43402Y-36219D01*
X43563Y-36380D01*
X43402Y-36541D01*
X43311Y-36761D01*
X43311Y-36999D01*
X43402Y-37219D01*
X43563Y-37380D01*
X43402Y-37541D01*
X43311Y-37761D01*
X43311Y-37999D01*
X43402Y-38219D01*
X43571Y-38388D01*
X43791Y-38479D01*
X44029Y-38479D01*
X44249Y-38388D01*
X44324Y-38312D01*
X44349Y-38371D01*
X44419Y-38441D01*
X44510Y-38479D01*
X44609Y-38479D01*
X45309Y-38479D01*
X45401Y-38441D01*
X45471Y-38371D01*
X45509Y-38280D01*
X45509Y-44671D01*
X45468Y-44671D01*
X45269Y-44753D01*
X45118Y-44905D01*
X45075Y-45007D01*
X45033Y-44905D01*
X44881Y-44754D01*
X44683Y-44671D01*
X44468Y-44671D01*
X44269Y-44753D01*
X44118Y-44905D01*
X44075Y-45007D01*
X44033Y-44905D01*
X43881Y-44754D01*
X43683Y-44671D01*
X43468Y-44671D01*
X43269Y-44753D01*
X43118Y-44905D01*
X43075Y-45007D01*
X43033Y-44905D01*
X42883Y-44756D01*
X42861Y-44644D01*
X42861Y-44643D01*
X42827Y-44593D01*
X42794Y-44543D01*
X42794Y-44542D01*
X36364Y-38113D01*
X36934Y-38113D01*
X37053Y-38089D01*
X37153Y-38022D01*
X37220Y-37922D01*
X37227Y-37885D01*
X37311Y-37851D01*
X37381Y-37781D01*
X37419Y-37690D01*
X37419Y-37591D01*
X37419Y-37109D01*
X37770Y-37109D01*
X37862Y-37071D01*
X37932Y-37001D01*
X37970Y-36910D01*
X37970Y-36811D01*
X37970Y-36253D01*
X37932Y-36161D01*
X37862Y-36091D01*
X37781Y-36057D01*
X37781Y-35486D01*
X37767Y-35320D01*
X37730Y-35227D01*
X37648Y-35216D01*
X37428Y-35436D01*
X37648Y-35656D01*
X37730Y-35645D01*
X37781Y-35486D01*
X37781Y-36057D01*
X37771Y-36053D01*
X37672Y-36053D01*
X37278Y-36053D01*
X37244Y-36067D01*
X37244Y-35839D01*
X37307Y-35860D01*
X37473Y-35846D01*
X37566Y-35809D01*
X37577Y-35727D01*
X37392Y-35542D01*
X37357Y-35507D01*
X37286Y-35436D01*
X37357Y-35365D01*
X37392Y-35330D01*
X37577Y-35145D01*
X37566Y-35063D01*
X37407Y-35012D01*
X37244Y-35025D01*
X37244Y-34883D01*
X37277Y-34897D01*
X37376Y-34897D01*
X37770Y-34897D01*
X37862Y-34859D01*
X37932Y-34789D01*
X37970Y-34698D01*
X37970Y-34599D01*
X37970Y-34041D01*
X37958Y-34013D01*
X41147Y-34013D01*
X41265Y-33989D01*
X41266Y-33989D01*
X41366Y-33922D01*
X46356Y-28933D01*
X46356Y-28932D01*
X46423Y-28832D01*
X46429Y-28799D01*
X46949Y-28799D01*
X47041Y-28761D01*
X47111Y-28691D01*
X47149Y-28600D01*
X47149Y-28501D01*
X47149Y-27901D01*
X47111Y-27809D01*
X47041Y-27739D01*
X46950Y-27701D01*
X46851Y-27701D01*
X46447Y-27701D01*
X46447Y-27650D01*
X46446Y-27649D01*
X46423Y-27531D01*
X46356Y-27431D01*
X46356Y-27430D01*
X45951Y-27026D01*
X46032Y-26945D01*
X46074Y-26842D01*
X46117Y-26945D01*
X46269Y-27096D01*
X46467Y-27179D01*
X46682Y-27179D01*
X46881Y-27097D01*
X47032Y-26945D01*
X47074Y-26842D01*
X47117Y-26945D01*
X47269Y-27096D01*
X47467Y-27179D01*
X47682Y-27179D01*
X47881Y-27097D01*
X48032Y-26945D01*
X48115Y-26747D01*
X48115Y-26532D01*
X48115Y-26104D01*
X48033Y-25905D01*
X47881Y-25754D01*
X47871Y-25750D01*
X47940Y-25750D01*
X48250Y-26060D01*
X48250Y-30425D01*
X48275Y-30549D01*
X48345Y-30655D01*
X49250Y-31560D01*
X49250Y-31651D01*
X49156Y-31557D01*
X48780Y-31400D01*
X48372Y-31400D01*
X47995Y-31556D01*
X47707Y-31844D01*
X47550Y-32220D01*
X47550Y-32628D01*
X47706Y-33005D01*
X47994Y-33293D01*
X48370Y-33450D01*
X48778Y-33450D01*
X49155Y-33294D01*
X49250Y-33199D01*
X49250Y-42651D01*
X49156Y-42557D01*
X48780Y-42400D01*
X48372Y-42400D01*
X47995Y-42556D01*
X47707Y-42844D01*
X47550Y-43220D01*
X47550Y-43628D01*
X47706Y-44005D01*
X47994Y-44293D01*
X48370Y-44450D01*
X48778Y-44450D01*
X49155Y-44294D01*
X49250Y-44199D01*
X49250Y-44290D01*
M02*
