G04 (created by PCBNEW-RS274X (2011-07-19)-testing) date Tue 10 Jan 2012 03:03:46 PM PST*
G01*
G70*
G90*
%MOIN*%
G04 Gerber Fmt 3.4, Leading zero omitted, Abs format*
%FSLAX34Y34*%
G04 APERTURE LIST*
%ADD10C,0.006000*%
%ADD11C,0.067200*%
%ADD12C,0.055400*%
%ADD13C,0.105000*%
%ADD14C,0.180000*%
%ADD15R,0.080000X0.080000*%
%ADD16C,0.080000*%
%ADD17R,0.090000X0.090000*%
%ADD18C,0.090000*%
%ADD19O,0.080000X0.120000*%
%ADD20C,0.175000*%
G04 APERTURE END LIST*
G54D10*
G54D11*
X35093Y-35475D03*
G54D12*
X37357Y-35436D03*
G54D13*
X25295Y-35200D03*
X26775Y-35200D03*
X28255Y-35200D03*
G54D14*
X24605Y-31260D03*
X28945Y-31260D03*
G54D15*
X37300Y-28150D03*
G54D16*
X36300Y-28150D03*
X35300Y-28150D03*
G54D15*
X46600Y-28250D03*
G54D16*
X45600Y-28250D03*
G54D17*
X44910Y-37880D03*
G54D18*
X43910Y-37880D03*
X44910Y-36880D03*
X43910Y-36880D03*
X44910Y-35880D03*
X43910Y-35880D03*
X44910Y-34880D03*
X43910Y-34880D03*
X44910Y-33880D03*
X43910Y-33880D03*
G54D19*
X47575Y-45425D03*
X46575Y-45425D03*
X45575Y-45425D03*
X42575Y-45425D03*
X43575Y-45425D03*
X44575Y-45425D03*
X40575Y-45425D03*
X39575Y-45425D03*
X38575Y-45425D03*
X36575Y-45425D03*
X35575Y-45425D03*
X47575Y-26425D03*
X46575Y-26425D03*
X45575Y-26425D03*
X44575Y-26425D03*
X43575Y-26425D03*
X42575Y-26425D03*
X41575Y-26425D03*
X40575Y-26425D03*
X38975Y-26425D03*
X37975Y-26425D03*
X36975Y-26425D03*
X35975Y-26425D03*
X34975Y-26425D03*
X33975Y-26425D03*
X32975Y-26425D03*
X31975Y-26425D03*
X37575Y-45425D03*
G54D20*
X48575Y-43425D03*
X48575Y-32425D03*
X28575Y-26425D03*
X28075Y-45425D03*
G54D15*
X27100Y-40450D03*
G54D16*
X26100Y-40450D03*
X25100Y-40450D03*
X24100Y-40450D03*
M02*
