M48
;DRILL file {PCBnew (2011-07-19)-testing} date Tue 10 Jan 2012 03:03:51 PM PST
;FORMAT={2:4/ absolute / inch / suppress trailing zeros}
FMAT,2
INCH,LZ
T1C0.032
T2C0.035
T3C0.040
T4C0.047
T5C0.051
T6C0.110
T7C0.125
%
G90
G05
M72
T1
X031975Y-026425
X032975Y-026425
X033975Y-026425
X034975Y-026425
X035575Y-045425
X035975Y-026425
X036575Y-045425
X036975Y-026425
X037575Y-045425
X037975Y-026425
X038575Y-045425
X038975Y-026425
X039575Y-045425
X040575Y-026425
X040575Y-045425
X041575Y-026425
X042575Y-026425
X042575Y-045425
X043575Y-026425
X043575Y-045425
X044575Y-026425
X044575Y-045425
X045575Y-026425
X045575Y-045425
X046575Y-026425
X046575Y-045425
X047575Y-026425
X047575Y-045425
T2
X037357Y-035436
T3
X0241Y-04045
X0251Y-04045
X0261Y-04045
X0271Y-04045
X0353Y-02815
X0363Y-02815
X0373Y-02815
X04391Y-03388
X04391Y-03488
X04391Y-03588
X04391Y-03688
X04391Y-03788
X04491Y-03388
X04491Y-03488
X04491Y-03588
X04491Y-03688
X04491Y-03788
X0456Y-02825
X0466Y-02825
T4
X035093Y-035475
T5
X025295Y-0352
X026775Y-0352
X028255Y-0352
T6
X024605Y-03126
X028945Y-03126
T7
X028075Y-045425
X028575Y-026425
X048575Y-032425
X048575Y-043425
T0
M30
