G04 (created by PCBNEW (2013-feb-26)-testing) date Sun 10 Mar 2013 06:05:37 PM PDT*
%MOIN*%
G04 Gerber Fmt 3.4, Leading zero omitted, Abs format*
%FSLAX34Y34*%
G01*
G70*
G90*
G04 APERTURE LIST*
%ADD10C,2.3622e-06*%
%ADD11C,0.13*%
%ADD12R,0.25X0.05*%
%ADD13C,0.066*%
%ADD14C,0.055*%
%ADD15C,0.035*%
%ADD16C,0.025*%
%ADD17C,0.01*%
G04 APERTURE END LIST*
G54D10*
G54D11*
X31000Y-21000D03*
X31000Y-29000D03*
X47000Y-29000D03*
X47000Y-21000D03*
G54D12*
X44402Y-26250D03*
X46398Y-25250D03*
X44402Y-24250D03*
X46398Y-23250D03*
G54D13*
X39500Y-23750D03*
X38500Y-23750D03*
G54D14*
X31500Y-23750D03*
X34500Y-23750D03*
X34500Y-26456D03*
X31500Y-26456D03*
G54D13*
X39500Y-27500D03*
X38500Y-27500D03*
G54D15*
X43112Y-25687D03*
G54D16*
X44402Y-26250D02*
X42902Y-26250D01*
X42902Y-25898D02*
X42902Y-26250D01*
X43112Y-25687D02*
X42902Y-25898D01*
X41750Y-25250D02*
X46397Y-25250D01*
X39500Y-27500D02*
X41750Y-25250D01*
X44826Y-23178D02*
X44897Y-23250D01*
X32071Y-23178D02*
X44826Y-23178D01*
X31500Y-23750D02*
X32071Y-23178D01*
X46397Y-23250D02*
X44897Y-23250D01*
X34500Y-23750D02*
X38500Y-23750D01*
X37456Y-26456D02*
X38500Y-27500D01*
X34500Y-26456D02*
X37456Y-26456D01*
G54D10*
G36*
X47675Y-28402D02*
X47510Y-28237D01*
X47179Y-28100D01*
X46821Y-28099D01*
X46490Y-28236D01*
X46237Y-28489D01*
X46100Y-28820D01*
X46099Y-29178D01*
X46236Y-29509D01*
X46402Y-29675D01*
X32125Y-29675D01*
X32125Y-26332D01*
X32125Y-23625D01*
X32029Y-23395D01*
X32029Y-23395D01*
X31906Y-23379D01*
X31870Y-23414D01*
X31870Y-23343D01*
X31854Y-23220D01*
X31624Y-23125D01*
X31375Y-23124D01*
X31145Y-23220D01*
X31145Y-23220D01*
X31129Y-23343D01*
X31500Y-23714D01*
X31870Y-23343D01*
X31870Y-23414D01*
X31535Y-23750D01*
X31906Y-24120D01*
X32029Y-24104D01*
X32124Y-23874D01*
X32125Y-23625D01*
X32125Y-26332D01*
X32029Y-26102D01*
X32029Y-26102D01*
X31906Y-26086D01*
X31870Y-26121D01*
X31870Y-26050D01*
X31870Y-24156D01*
X31500Y-23785D01*
X31464Y-23820D01*
X31464Y-23750D01*
X31093Y-23379D01*
X30970Y-23395D01*
X30875Y-23625D01*
X30874Y-23874D01*
X30970Y-24104D01*
X30970Y-24104D01*
X31093Y-24120D01*
X31464Y-23750D01*
X31464Y-23820D01*
X31129Y-24156D01*
X31145Y-24279D01*
X31375Y-24374D01*
X31624Y-24375D01*
X31854Y-24279D01*
X31854Y-24279D01*
X31870Y-24156D01*
X31870Y-26050D01*
X31854Y-25926D01*
X31624Y-25831D01*
X31375Y-25831D01*
X31145Y-25926D01*
X31145Y-25926D01*
X31129Y-26050D01*
X31500Y-26421D01*
X31870Y-26050D01*
X31870Y-26121D01*
X31535Y-26456D01*
X31906Y-26827D01*
X32029Y-26810D01*
X32124Y-26581D01*
X32125Y-26332D01*
X32125Y-29675D01*
X31597Y-29675D01*
X31762Y-29510D01*
X31899Y-29179D01*
X31900Y-28821D01*
X31870Y-28750D01*
X31870Y-26862D01*
X31500Y-26492D01*
X31464Y-26527D01*
X31464Y-26456D01*
X31093Y-26086D01*
X30970Y-26102D01*
X30875Y-26332D01*
X30874Y-26580D01*
X30970Y-26810D01*
X30970Y-26810D01*
X31093Y-26827D01*
X31464Y-26456D01*
X31464Y-26527D01*
X31129Y-26862D01*
X31145Y-26986D01*
X31375Y-27081D01*
X31624Y-27081D01*
X31854Y-26986D01*
X31854Y-26986D01*
X31870Y-26862D01*
X31870Y-28750D01*
X31763Y-28490D01*
X31510Y-28237D01*
X31179Y-28100D01*
X30821Y-28099D01*
X30490Y-28236D01*
X30325Y-28402D01*
X30325Y-21597D01*
X30489Y-21762D01*
X30820Y-21899D01*
X31178Y-21900D01*
X31509Y-21763D01*
X31762Y-21510D01*
X31899Y-21179D01*
X31900Y-20821D01*
X31763Y-20490D01*
X31597Y-20325D01*
X46402Y-20325D01*
X46237Y-20489D01*
X46100Y-20820D01*
X46099Y-21178D01*
X46236Y-21509D01*
X46489Y-21762D01*
X46820Y-21899D01*
X47178Y-21900D01*
X47509Y-21763D01*
X47675Y-21597D01*
X47675Y-22650D01*
X47578Y-22649D01*
X46510Y-22650D01*
X46423Y-22737D01*
X46423Y-23225D01*
X46430Y-23225D01*
X46430Y-23275D01*
X46423Y-23275D01*
X46423Y-23762D01*
X46510Y-23850D01*
X47578Y-23850D01*
X47675Y-23849D01*
X47675Y-24750D01*
X47598Y-24749D01*
X45701Y-24749D01*
X45793Y-24712D01*
X45863Y-24641D01*
X45901Y-24549D01*
X45902Y-24450D01*
X45902Y-23950D01*
X45864Y-23858D01*
X45855Y-23850D01*
X46285Y-23850D01*
X46373Y-23762D01*
X46373Y-23275D01*
X46373Y-23225D01*
X46373Y-22737D01*
X46285Y-22650D01*
X45217Y-22649D01*
X45078Y-22650D01*
X44949Y-22703D01*
X44851Y-22802D01*
X44797Y-22930D01*
X44798Y-23137D01*
X44885Y-23225D01*
X46373Y-23225D01*
X46373Y-23275D01*
X44885Y-23275D01*
X44798Y-23362D01*
X44797Y-23569D01*
X44851Y-23698D01*
X44902Y-23749D01*
X43102Y-23749D01*
X43010Y-23787D01*
X42940Y-23858D01*
X42902Y-23950D01*
X42901Y-24049D01*
X42901Y-24549D01*
X42939Y-24641D01*
X43010Y-24711D01*
X43102Y-24749D01*
X43201Y-24750D01*
X45098Y-24750D01*
X45006Y-24787D01*
X44936Y-24858D01*
X44929Y-24875D01*
X41750Y-24875D01*
X41606Y-24903D01*
X41484Y-24984D01*
X40080Y-26389D01*
X40080Y-23635D01*
X39991Y-23421D01*
X39828Y-23258D01*
X39615Y-23170D01*
X39385Y-23169D01*
X39171Y-23258D01*
X39008Y-23421D01*
X39000Y-23441D01*
X38991Y-23421D01*
X38828Y-23258D01*
X38615Y-23170D01*
X38385Y-23169D01*
X38171Y-23258D01*
X38054Y-23375D01*
X34867Y-23375D01*
X34797Y-23305D01*
X34604Y-23225D01*
X34396Y-23224D01*
X34203Y-23304D01*
X34055Y-23452D01*
X33975Y-23645D01*
X33974Y-23853D01*
X34054Y-24047D01*
X34202Y-24194D01*
X34395Y-24274D01*
X34603Y-24275D01*
X34797Y-24195D01*
X34867Y-24125D01*
X38054Y-24125D01*
X38171Y-24241D01*
X38384Y-24329D01*
X38614Y-24330D01*
X38828Y-24241D01*
X38991Y-24078D01*
X38999Y-24058D01*
X39008Y-24078D01*
X39171Y-24241D01*
X39384Y-24329D01*
X39614Y-24330D01*
X39828Y-24241D01*
X39991Y-24078D01*
X40079Y-23865D01*
X40080Y-23635D01*
X40080Y-26389D01*
X39549Y-26920D01*
X39385Y-26919D01*
X39171Y-27008D01*
X39008Y-27171D01*
X39000Y-27191D01*
X38991Y-27171D01*
X38828Y-27008D01*
X38615Y-26920D01*
X38450Y-26919D01*
X37721Y-26191D01*
X37600Y-26110D01*
X37456Y-26081D01*
X34867Y-26081D01*
X34797Y-26011D01*
X34604Y-25931D01*
X34396Y-25931D01*
X34203Y-26011D01*
X34055Y-26158D01*
X33975Y-26351D01*
X33974Y-26560D01*
X34054Y-26753D01*
X34202Y-26901D01*
X34395Y-26981D01*
X34603Y-26981D01*
X34797Y-26902D01*
X34867Y-26831D01*
X37301Y-26831D01*
X37920Y-27450D01*
X37919Y-27614D01*
X38008Y-27828D01*
X38171Y-27991D01*
X38384Y-28079D01*
X38614Y-28080D01*
X38828Y-27991D01*
X38991Y-27828D01*
X38999Y-27808D01*
X39008Y-27828D01*
X39171Y-27991D01*
X39384Y-28079D01*
X39614Y-28080D01*
X39828Y-27991D01*
X39991Y-27828D01*
X40079Y-27615D01*
X40080Y-27450D01*
X41905Y-25625D01*
X42645Y-25625D01*
X42636Y-25633D01*
X42555Y-25754D01*
X42527Y-25898D01*
X42527Y-26250D01*
X42555Y-26393D01*
X42636Y-26515D01*
X42758Y-26596D01*
X42902Y-26625D01*
X42933Y-26625D01*
X42939Y-26641D01*
X43010Y-26711D01*
X43102Y-26749D01*
X43201Y-26750D01*
X45701Y-26750D01*
X45793Y-26712D01*
X45863Y-26641D01*
X45901Y-26549D01*
X45902Y-26450D01*
X45902Y-25950D01*
X45864Y-25858D01*
X45793Y-25788D01*
X45701Y-25750D01*
X45701Y-25750D01*
X47675Y-25750D01*
X47675Y-28402D01*
X47675Y-28402D01*
G37*
G54D17*
X47675Y-28402D02*
X47510Y-28237D01*
X47179Y-28100D01*
X46821Y-28099D01*
X46490Y-28236D01*
X46237Y-28489D01*
X46100Y-28820D01*
X46099Y-29178D01*
X46236Y-29509D01*
X46402Y-29675D01*
X32125Y-29675D01*
X32125Y-26332D01*
X32125Y-23625D01*
X32029Y-23395D01*
X32029Y-23395D01*
X31906Y-23379D01*
X31870Y-23414D01*
X31870Y-23343D01*
X31854Y-23220D01*
X31624Y-23125D01*
X31375Y-23124D01*
X31145Y-23220D01*
X31145Y-23220D01*
X31129Y-23343D01*
X31500Y-23714D01*
X31870Y-23343D01*
X31870Y-23414D01*
X31535Y-23750D01*
X31906Y-24120D01*
X32029Y-24104D01*
X32124Y-23874D01*
X32125Y-23625D01*
X32125Y-26332D01*
X32029Y-26102D01*
X32029Y-26102D01*
X31906Y-26086D01*
X31870Y-26121D01*
X31870Y-26050D01*
X31870Y-24156D01*
X31500Y-23785D01*
X31464Y-23820D01*
X31464Y-23750D01*
X31093Y-23379D01*
X30970Y-23395D01*
X30875Y-23625D01*
X30874Y-23874D01*
X30970Y-24104D01*
X30970Y-24104D01*
X31093Y-24120D01*
X31464Y-23750D01*
X31464Y-23820D01*
X31129Y-24156D01*
X31145Y-24279D01*
X31375Y-24374D01*
X31624Y-24375D01*
X31854Y-24279D01*
X31854Y-24279D01*
X31870Y-24156D01*
X31870Y-26050D01*
X31854Y-25926D01*
X31624Y-25831D01*
X31375Y-25831D01*
X31145Y-25926D01*
X31145Y-25926D01*
X31129Y-26050D01*
X31500Y-26421D01*
X31870Y-26050D01*
X31870Y-26121D01*
X31535Y-26456D01*
X31906Y-26827D01*
X32029Y-26810D01*
X32124Y-26581D01*
X32125Y-26332D01*
X32125Y-29675D01*
X31597Y-29675D01*
X31762Y-29510D01*
X31899Y-29179D01*
X31900Y-28821D01*
X31870Y-28750D01*
X31870Y-26862D01*
X31500Y-26492D01*
X31464Y-26527D01*
X31464Y-26456D01*
X31093Y-26086D01*
X30970Y-26102D01*
X30875Y-26332D01*
X30874Y-26580D01*
X30970Y-26810D01*
X30970Y-26810D01*
X31093Y-26827D01*
X31464Y-26456D01*
X31464Y-26527D01*
X31129Y-26862D01*
X31145Y-26986D01*
X31375Y-27081D01*
X31624Y-27081D01*
X31854Y-26986D01*
X31854Y-26986D01*
X31870Y-26862D01*
X31870Y-28750D01*
X31763Y-28490D01*
X31510Y-28237D01*
X31179Y-28100D01*
X30821Y-28099D01*
X30490Y-28236D01*
X30325Y-28402D01*
X30325Y-21597D01*
X30489Y-21762D01*
X30820Y-21899D01*
X31178Y-21900D01*
X31509Y-21763D01*
X31762Y-21510D01*
X31899Y-21179D01*
X31900Y-20821D01*
X31763Y-20490D01*
X31597Y-20325D01*
X46402Y-20325D01*
X46237Y-20489D01*
X46100Y-20820D01*
X46099Y-21178D01*
X46236Y-21509D01*
X46489Y-21762D01*
X46820Y-21899D01*
X47178Y-21900D01*
X47509Y-21763D01*
X47675Y-21597D01*
X47675Y-22650D01*
X47578Y-22649D01*
X46510Y-22650D01*
X46423Y-22737D01*
X46423Y-23225D01*
X46430Y-23225D01*
X46430Y-23275D01*
X46423Y-23275D01*
X46423Y-23762D01*
X46510Y-23850D01*
X47578Y-23850D01*
X47675Y-23849D01*
X47675Y-24750D01*
X47598Y-24749D01*
X45701Y-24749D01*
X45793Y-24712D01*
X45863Y-24641D01*
X45901Y-24549D01*
X45902Y-24450D01*
X45902Y-23950D01*
X45864Y-23858D01*
X45855Y-23850D01*
X46285Y-23850D01*
X46373Y-23762D01*
X46373Y-23275D01*
X46373Y-23225D01*
X46373Y-22737D01*
X46285Y-22650D01*
X45217Y-22649D01*
X45078Y-22650D01*
X44949Y-22703D01*
X44851Y-22802D01*
X44797Y-22930D01*
X44798Y-23137D01*
X44885Y-23225D01*
X46373Y-23225D01*
X46373Y-23275D01*
X44885Y-23275D01*
X44798Y-23362D01*
X44797Y-23569D01*
X44851Y-23698D01*
X44902Y-23749D01*
X43102Y-23749D01*
X43010Y-23787D01*
X42940Y-23858D01*
X42902Y-23950D01*
X42901Y-24049D01*
X42901Y-24549D01*
X42939Y-24641D01*
X43010Y-24711D01*
X43102Y-24749D01*
X43201Y-24750D01*
X45098Y-24750D01*
X45006Y-24787D01*
X44936Y-24858D01*
X44929Y-24875D01*
X41750Y-24875D01*
X41606Y-24903D01*
X41484Y-24984D01*
X40080Y-26389D01*
X40080Y-23635D01*
X39991Y-23421D01*
X39828Y-23258D01*
X39615Y-23170D01*
X39385Y-23169D01*
X39171Y-23258D01*
X39008Y-23421D01*
X39000Y-23441D01*
X38991Y-23421D01*
X38828Y-23258D01*
X38615Y-23170D01*
X38385Y-23169D01*
X38171Y-23258D01*
X38054Y-23375D01*
X34867Y-23375D01*
X34797Y-23305D01*
X34604Y-23225D01*
X34396Y-23224D01*
X34203Y-23304D01*
X34055Y-23452D01*
X33975Y-23645D01*
X33974Y-23853D01*
X34054Y-24047D01*
X34202Y-24194D01*
X34395Y-24274D01*
X34603Y-24275D01*
X34797Y-24195D01*
X34867Y-24125D01*
X38054Y-24125D01*
X38171Y-24241D01*
X38384Y-24329D01*
X38614Y-24330D01*
X38828Y-24241D01*
X38991Y-24078D01*
X38999Y-24058D01*
X39008Y-24078D01*
X39171Y-24241D01*
X39384Y-24329D01*
X39614Y-24330D01*
X39828Y-24241D01*
X39991Y-24078D01*
X40079Y-23865D01*
X40080Y-23635D01*
X40080Y-26389D01*
X39549Y-26920D01*
X39385Y-26919D01*
X39171Y-27008D01*
X39008Y-27171D01*
X39000Y-27191D01*
X38991Y-27171D01*
X38828Y-27008D01*
X38615Y-26920D01*
X38450Y-26919D01*
X37721Y-26191D01*
X37600Y-26110D01*
X37456Y-26081D01*
X34867Y-26081D01*
X34797Y-26011D01*
X34604Y-25931D01*
X34396Y-25931D01*
X34203Y-26011D01*
X34055Y-26158D01*
X33975Y-26351D01*
X33974Y-26560D01*
X34054Y-26753D01*
X34202Y-26901D01*
X34395Y-26981D01*
X34603Y-26981D01*
X34797Y-26902D01*
X34867Y-26831D01*
X37301Y-26831D01*
X37920Y-27450D01*
X37919Y-27614D01*
X38008Y-27828D01*
X38171Y-27991D01*
X38384Y-28079D01*
X38614Y-28080D01*
X38828Y-27991D01*
X38991Y-27828D01*
X38999Y-27808D01*
X39008Y-27828D01*
X39171Y-27991D01*
X39384Y-28079D01*
X39614Y-28080D01*
X39828Y-27991D01*
X39991Y-27828D01*
X40079Y-27615D01*
X40080Y-27450D01*
X41905Y-25625D01*
X42645Y-25625D01*
X42636Y-25633D01*
X42555Y-25754D01*
X42527Y-25898D01*
X42527Y-26250D01*
X42555Y-26393D01*
X42636Y-26515D01*
X42758Y-26596D01*
X42902Y-26625D01*
X42933Y-26625D01*
X42939Y-26641D01*
X43010Y-26711D01*
X43102Y-26749D01*
X43201Y-26750D01*
X45701Y-26750D01*
X45793Y-26712D01*
X45863Y-26641D01*
X45901Y-26549D01*
X45902Y-26450D01*
X45902Y-25950D01*
X45864Y-25858D01*
X45793Y-25788D01*
X45701Y-25750D01*
X45701Y-25750D01*
X47675Y-25750D01*
X47675Y-28402D01*
M02*
