<?xml version="1.0" standalone="no"?>
<!DOCTYPE svg PUBLIC "-//W3C//DTD SVG 1.1//EN" 
"http://www.w3.org/Graphics/SVG/1.1/DTD/svg11.dtd"> 
<svg
  xmlns="http://www.w3.org/2000/svg"
  version="1.1"
  width="11.7in" height="8.267in" viewBox="0 0 117000 82670 "
>
  <title>SVG Picture created as rgb_led_board-brd.svg </title>
  <desc>Picture generated by wxSVG v0101 </desc>
  <g style="fill:black; stroke:black; stroke-width:1">
</g>
<g style="fill:#000000; fill-opacity:0.0; 
  stroke:#0000C0; stroke-linecap:round; stroke-linejoin:round; stroke-opacity:1.0; stroke-opacity:1.0; stroke-width:0" 
   transform="translate(0 0) scale(1 1)">
<path d="M42898 26500 L42902 26500" /> 
<path d="M42900 26498 L42900 26502" /> 
</g>
<g style="fill:#00A0A0; fill-opacity:0.0; 
  stroke:#00A0A0; stroke-linecap:round; stroke-linejoin:round; stroke-opacity:1.0; stroke-opacity:1.0; stroke-width:79" 
   transform="translate(0 0) scale(1 1)">
<path d="M42366 26659 L42366 26265" /> 
<g style = "stroke-linecap:round;" > 
<path d="M42366 26265 L42366 26265" /> 
</g><path d="M42366 26416 L42403 26397" /> 
<path d="M42403 26397 L42478 26397" /> 
<path d="M42478 26397 L42516 26416" /> 
<path d="M42516 26416 L42535 26434" /> 
<path d="M42535 26434 L42553 26472" /> 
<path d="M42553 26472 L42553 26584" /> 
<path d="M42553 26584 L42535 26622" /> 
<path d="M42535 26622 L42516 26641" /> 
<path d="M42516 26641 L42478 26659" /> 
<path d="M42478 26659 L42403 26659" /> 
<path d="M42403 26659 L42366 26641" /> 
<g style = "stroke-linecap:round;" > 
<path d="M42366 26641 L42366 26641" /> 
</g><path d="M42778 26659 L42741 26641" /> 
<path d="M42741 26641 L42722 26603" /> 
<path d="M42722 26603 L42722 26265" /> 
<g style = "stroke-linecap:round;" > 
<path d="M42722 26265 L42722 26265" /> 
</g><path d="M43097 26397 L43097 26659" /> 
<g style = "stroke-linecap:round;" > 
<path d="M43097 26659 L43097 26659" /> 
</g><path d="M42928 26397 L42928 26603" /> 
<path d="M42928 26603 L42947 26641" /> 
<path d="M42947 26641 L42984 26659" /> 
<path d="M42984 26659 L43040 26659" /> 
<path d="M43040 26659 L43078 26641" /> 
<path d="M43078 26641 L43097 26622" /> 
<g style = "stroke-linecap:round;" > 
<path d="M43097 26622 L43097 26622" /> 
</g><path d="M43434 26641 L43396 26659" /> 
<path d="M43396 26659 L43321 26659" /> 
<path d="M43321 26659 L43284 26641" /> 
<path d="M43284 26641 L43265 26603" /> 
<path d="M43265 26603 L43265 26453" /> 
<path d="M43265 26453 L43284 26416" /> 
<path d="M43284 26416 L43321 26397" /> 
<path d="M43321 26397 L43396 26397" /> 
<path d="M43396 26397 L43434 26416" /> 
<path d="M43434 26416 L43453 26453" /> 
<path d="M43453 26453 L43453 26491" /> 
<path d="M43453 26491 L43265 26528" /> 
<g style = "stroke-linecap:round;" > 
<path d="M43265 26528 L43265 26528" /> 
</g></g>
<g style="fill:#00A0A0; fill-opacity:0.0; 
  stroke:#0000C0; stroke-linecap:round; stroke-linejoin:round; stroke-opacity:1.0; stroke-opacity:1.0; stroke-width:0" 
   transform="translate(0 0) scale(1 1)">
<path d="M42698 25500 L42702 25500" /> 
<path d="M42700 25498 L42700 25502" /> 
</g>
<g style="fill:#00A0A0; fill-opacity:0.0; 
  stroke:#00A0A0; stroke-linecap:round; stroke-linejoin:round; stroke-opacity:1.0; stroke-opacity:1.0; stroke-width:79" 
   transform="translate(0 0) scale(1 1)">
<path d="M42147 25397 L42147 25716" /> 
<path d="M42147 25716 L42128 25753" /> 
<path d="M42128 25753 L42109 25772" /> 
<path d="M42109 25772 L42072 25791" /> 
<path d="M42072 25791 L42015 25791" /> 
<path d="M42015 25791 L41978 25772" /> 
<g style = "stroke-linecap:round;" > 
<path d="M41978 25772 L41978 25772" /> 
</g><path d="M42147 25641 L42109 25659" /> 
<path d="M42109 25659 L42034 25659" /> 
<path d="M42034 25659 L41997 25641" /> 
<path d="M41997 25641 L41978 25622" /> 
<path d="M41978 25622 L41959 25584" /> 
<path d="M41959 25584 L41959 25472" /> 
<path d="M41959 25472 L41978 25434" /> 
<path d="M41978 25434 L41997 25416" /> 
<path d="M41997 25416 L42034 25397" /> 
<path d="M42034 25397 L42109 25397" /> 
<path d="M42109 25397 L42147 25416" /> 
<g style = "stroke-linecap:round;" > 
<path d="M42147 25416 L42147 25416" /> 
</g><path d="M42334 25659 L42334 25397" /> 
<g style = "stroke-linecap:round;" > 
<path d="M42334 25397 L42334 25397" /> 
</g><path d="M42334 25472 L42353 25434" /> 
<path d="M42353 25434 L42371 25416" /> 
<path d="M42371 25416 L42409 25397" /> 
<path d="M42409 25397 L42446 25397" /> 
<g style = "stroke-linecap:round;" > 
<path d="M42446 25397 L42446 25397" /> 
</g><path d="M42728 25641 L42690 25659" /> 
<path d="M42690 25659 L42615 25659" /> 
<path d="M42615 25659 L42578 25641" /> 
<path d="M42578 25641 L42559 25603" /> 
<path d="M42559 25603 L42559 25453" /> 
<path d="M42559 25453 L42578 25416" /> 
<path d="M42578 25416 L42615 25397" /> 
<path d="M42615 25397 L42690 25397" /> 
<path d="M42690 25397 L42728 25416" /> 
<path d="M42728 25416 L42747 25453" /> 
<path d="M42747 25453 L42747 25491" /> 
<path d="M42747 25491 L42559 25528" /> 
<g style = "stroke-linecap:round;" > 
<path d="M42559 25528 L42559 25528" /> 
</g><path d="M43066 25641 L43028 25659" /> 
<path d="M43028 25659 L42953 25659" /> 
<path d="M42953 25659 L42916 25641" /> 
<path d="M42916 25641 L42897 25603" /> 
<path d="M42897 25603 L42897 25453" /> 
<path d="M42897 25453 L42916 25416" /> 
<path d="M42916 25416 L42953 25397" /> 
<path d="M42953 25397 L43028 25397" /> 
<path d="M43028 25397 L43066 25416" /> 
<path d="M43066 25416 L43085 25453" /> 
<path d="M43085 25453 L43085 25491" /> 
<path d="M43085 25491 L42897 25528" /> 
<g style = "stroke-linecap:round;" > 
<path d="M42897 25528 L42897 25528" /> 
</g><path d="M43254 25397 L43254 25659" /> 
<g style = "stroke-linecap:round;" > 
<path d="M43254 25659 L43254 25659" /> 
</g><path d="M43254 25434 L43273 25416" /> 
<path d="M43273 25416 L43310 25397" /> 
<path d="M43310 25397 L43366 25397" /> 
<path d="M43366 25397 L43404 25416" /> 
<path d="M43404 25416 L43423 25453" /> 
<path d="M43423 25453 L43423 25659" /> 
<g style = "stroke-linecap:round;" > 
<path d="M43423 25659 L43423 25659" /> 
</g></g>
<g style="fill:#00A0A0; fill-opacity:0.0; 
  stroke:#0000C0; stroke-linecap:round; stroke-linejoin:round; stroke-opacity:1.0; stroke-opacity:1.0; stroke-width:0" 
   transform="translate(0 0) scale(1 1)">
<path d="M42998 23500 L43002 23500" /> 
<path d="M43000 23498 L43000 23502" /> 
</g>
<g style="fill:#00A0A0; fill-opacity:0.0; 
  stroke:#00A0A0; stroke-linecap:round; stroke-linejoin:round; stroke-opacity:1.0; stroke-opacity:1.0; stroke-width:79" 
   transform="translate(0 0) scale(1 1)">
<path d="M42700 23284 L42663 23265" /> 
<path d="M42663 23265 L42606 23265" /> 
<path d="M42606 23265 L42550 23284" /> 
<path d="M42550 23284 L42513 23322" /> 
<path d="M42513 23322 L42494 23359" /> 
<path d="M42494 23359 L42475 23434" /> 
<path d="M42475 23434 L42475 23491" /> 
<path d="M42475 23491 L42494 23566" /> 
<path d="M42494 23566 L42513 23603" /> 
<path d="M42513 23603 L42550 23641" /> 
<path d="M42550 23641 L42606 23659" /> 
<path d="M42606 23659 L42644 23659" /> 
<path d="M42644 23659 L42700 23641" /> 
<path d="M42700 23641 L42719 23622" /> 
<path d="M42719 23622 L42719 23491" /> 
<path d="M42719 23491 L42644 23491" /> 
<g style = "stroke-linecap:round;" > 
<path d="M42644 23491 L42644 23491" /> 
</g><path d="M42888 23659 L42888 23265" /> 
<path d="M42888 23265 L43113 23659" /> 
<path d="M43113 23659 L43113 23265" /> 
<g style = "stroke-linecap:round;" > 
<path d="M43113 23265 L43113 23265" /> 
</g><path d="M43301 23659 L43301 23265" /> 
<path d="M43301 23265 L43395 23265" /> 
<path d="M43395 23265 L43451 23284" /> 
<path d="M43451 23284 L43488 23322" /> 
<path d="M43488 23322 L43507 23359" /> 
<path d="M43507 23359 L43526 23434" /> 
<path d="M43526 23434 L43526 23491" /> 
<path d="M43526 23491 L43507 23566" /> 
<path d="M43507 23566 L43488 23603" /> 
<path d="M43488 23603 L43451 23641" /> 
<path d="M43451 23641 L43395 23659" /> 
<path d="M43395 23659 L43301 23659" /> 
</g>
<g style="fill:#00A0A0; fill-opacity:0.0; 
  stroke:#0000C0; stroke-linecap:round; stroke-linejoin:round; stroke-opacity:1.0; stroke-opacity:1.0; stroke-width:0" 
   transform="translate(0 0) scale(1 1)">
<path d="M38998 21000 L39002 21000" /> 
<path d="M39000 20998 L39000 21002" /> 
</g>
<g style="fill:#00A0A0; fill-opacity:0.0; 
  stroke:#00A0A0; stroke-linecap:round; stroke-linejoin:round; stroke-opacity:1.0; stroke-opacity:1.0; stroke-width:120" 
   transform="translate(0 0) scale(1 1)">
<path d="M36043 21324 L36043 20524" /> 
<g style = "stroke-linecap:round;" > 
<path d="M36043 20524 L36043 20524" /> 
</g><path d="M36443 20524 L36557 20524" /> 
<path d="M36557 20524 L36615 20562" /> 
<path d="M36615 20562 L36672 20638" /> 
<path d="M36672 20638 L36700 20790" /> 
<path d="M36700 20790 L36700 21057" /> 
<path d="M36700 21057 L36672 21210" /> 
<path d="M36672 21210 L36615 21286" /> 
<path d="M36615 21286 L36557 21324" /> 
<path d="M36557 21324 L36443 21324" /> 
<path d="M36443 21324 L36386 21286" /> 
<path d="M36386 21286 L36329 21210" /> 
<path d="M36329 21210 L36300 21057" /> 
<path d="M36300 21057 L36300 20790" /> 
<path d="M36300 20790 L36329 20638" /> 
<path d="M36329 20638 L36386 20562" /> 
<path d="M36386 20562 L36443 20524" /> 
<path d="M37758 21324 L37558 20943" /> 
<g style = "stroke-linecap:round;" > 
<path d="M37558 20943 L37558 20943" /> 
</g><path d="M37415 21324 L37415 20524" /> 
<path d="M37415 20524 L37643 20524" /> 
<path d="M37643 20524 L37701 20562" /> 
<path d="M37701 20562 L37729 20600" /> 
<path d="M37729 20600 L37758 20676" /> 
<path d="M37758 20676 L37758 20790" /> 
<path d="M37758 20790 L37729 20867" /> 
<path d="M37729 20867 L37701 20905" /> 
<path d="M37701 20905 L37643 20943" /> 
<path d="M37643 20943 L37415 20943" /> 
<g style = "stroke-linecap:round;" > 
<path d="M37415 20943 L37415 20943" /> 
</g><path d="M38101 21324 L38043 21286" /> 
<path d="M38043 21286 L38015 21248" /> 
<path d="M38015 21248 L37986 21171" /> 
<path d="M37986 21171 L37986 20943" /> 
<path d="M37986 20943 L38015 20867" /> 
<path d="M38015 20867 L38043 20829" /> 
<path d="M38043 20829 L38101 20790" /> 
<path d="M38101 20790 L38186 20790" /> 
<path d="M38186 20790 L38243 20829" /> 
<path d="M38243 20829 L38272 20867" /> 
<path d="M38272 20867 L38301 20943" /> 
<path d="M38301 20943 L38301 21171" /> 
<path d="M38301 21171 L38272 21248" /> 
<path d="M38272 21248 L38243 21286" /> 
<path d="M38243 21286 L38186 21324" /> 
<path d="M38186 21324 L38101 21324" /> 
<path d="M38815 21324 L38815 20524" /> 
<g style = "stroke-linecap:round;" > 
<path d="M38815 20524 L38815 20524" /> 
</g><path d="M38815 21286 L38758 21324" /> 
<path d="M38758 21324 L38644 21324" /> 
<path d="M38644 21324 L38586 21286" /> 
<path d="M38586 21286 L38558 21248" /> 
<path d="M38558 21248 L38529 21171" /> 
<path d="M38529 21171 L38529 20943" /> 
<path d="M38529 20943 L38558 20867" /> 
<path d="M38558 20867 L38586 20829" /> 
<path d="M38586 20829 L38644 20790" /> 
<path d="M38644 20790 L38758 20790" /> 
<path d="M38758 20790 L38815 20829" /> 
<g style = "stroke-linecap:round;" > 
<path d="M38815 20829 L38815 20829" /> 
</g><path d="M39329 21286 L39272 21324" /> 
<path d="M39272 21324 L39158 21324" /> 
<path d="M39158 21324 L39101 21286" /> 
<path d="M39101 21286 L39072 21210" /> 
<path d="M39072 21210 L39072 20905" /> 
<path d="M39072 20905 L39101 20829" /> 
<path d="M39101 20829 L39158 20790" /> 
<path d="M39158 20790 L39272 20790" /> 
<path d="M39272 20790 L39329 20829" /> 
<path d="M39329 20829 L39358 20905" /> 
<path d="M39358 20905 L39358 20981" /> 
<path d="M39358 20981 L39072 21057" /> 
<g style = "stroke-linecap:round;" > 
<path d="M39072 21057 L39072 21057" /> 
</g><path d="M39701 21324 L39643 21286" /> 
<path d="M39643 21286 L39615 21248" /> 
<path d="M39615 21248 L39586 21171" /> 
<path d="M39586 21171 L39586 20943" /> 
<path d="M39586 20943 L39615 20867" /> 
<path d="M39615 20867 L39643 20829" /> 
<path d="M39643 20829 L39701 20790" /> 
<path d="M39701 20790 L39786 20790" /> 
<path d="M39786 20790 L39843 20829" /> 
<path d="M39843 20829 L39872 20867" /> 
<path d="M39872 20867 L39901 20943" /> 
<path d="M39901 20943 L39901 21171" /> 
<path d="M39901 21171 L39872 21248" /> 
<path d="M39872 21248 L39843 21286" /> 
<path d="M39843 21286 L39786 21324" /> 
<path d="M39786 21324 L39701 21324" /> 
<path d="M40615 21324 L40615 20524" /> 
<g style = "stroke-linecap:round;" > 
<path d="M40615 20524 L40615 20524" /> 
</g><path d="M40901 20790 L40901 21324" /> 
<g style = "stroke-linecap:round;" > 
<path d="M40901 21324 L40901 21324" /> 
</g><path d="M40901 20867 L40929 20829" /> 
<path d="M40929 20829 L40987 20790" /> 
<path d="M40987 20790 L41072 20790" /> 
<path d="M41072 20790 L41129 20829" /> 
<path d="M41129 20829 L41158 20905" /> 
<path d="M41158 20905 L41158 21324" /> 
<g style = "stroke-linecap:round;" > 
<path d="M41158 21324 L41158 21324" /> 
</g><path d="M41701 21286 L41644 21324" /> 
<path d="M41644 21324 L41530 21324" /> 
<path d="M41530 21324 L41472 21286" /> 
<path d="M41472 21286 L41444 21248" /> 
<path d="M41444 21248 L41415 21171" /> 
<path d="M41415 21171 L41415 20943" /> 
<path d="M41415 20943 L41444 20867" /> 
<path d="M41444 20867 L41472 20829" /> 
<path d="M41472 20829 L41530 20790" /> 
<path d="M41530 20790 L41644 20790" /> 
<path d="M41644 20790 L41701 20829" /> 
<g style = "stroke-linecap:round;" > 
<path d="M41701 20829 L41701 20829" /> 
</g><path d="M41958 21248 L41986 21286" /> 
<path d="M41986 21286 L41958 21324" /> 
<path d="M41958 21324 L41929 21286" /> 
<path d="M41929 21286 L41958 21248" /> 
<path d="M41958 21248 L41958 21324" /> 
<g style = "stroke-linecap:round;" > 
<path d="M41958 21324 L41958 21324" /> 
</g></g>
<g style="fill:#00A0A0; fill-opacity:0.0; 
  stroke:#0000C0; stroke-linecap:round; stroke-linejoin:round; stroke-opacity:1.0; stroke-opacity:1.0; stroke-width:0" 
   transform="translate(0 0) scale(1 1)">
<path d="M43098 24500 L43102 24500" /> 
<path d="M43100 24498 L43100 24502" /> 
</g>
<g style="fill:#00A0A0; fill-opacity:0.0; 
  stroke:#00A0A0; stroke-linecap:round; stroke-linejoin:round; stroke-opacity:1.0; stroke-opacity:1.0; stroke-width:79" 
   transform="translate(0 0) scale(1 1)">
<path d="M42725 24659 L42725 24397" /> 
<g style = "stroke-linecap:round;" > 
<path d="M42725 24397 L42725 24397" /> 
</g><path d="M42725 24472 L42744 24434" /> 
<path d="M42744 24434 L42762 24416" /> 
<path d="M42762 24416 L42800 24397" /> 
<path d="M42800 24397 L42837 24397" /> 
<g style = "stroke-linecap:round;" > 
<path d="M42837 24397 L42837 24397" /> 
</g><path d="M43119 24641 L43081 24659" /> 
<path d="M43081 24659 L43006 24659" /> 
<path d="M43006 24659 L42969 24641" /> 
<path d="M42969 24641 L42950 24603" /> 
<path d="M42950 24603 L42950 24453" /> 
<path d="M42950 24453 L42969 24416" /> 
<path d="M42969 24416 L43006 24397" /> 
<path d="M43006 24397 L43081 24397" /> 
<path d="M43081 24397 L43119 24416" /> 
<path d="M43119 24416 L43138 24453" /> 
<path d="M43138 24453 L43138 24491" /> 
<path d="M43138 24491 L42950 24528" /> 
<g style = "stroke-linecap:round;" > 
<path d="M42950 24528 L42950 24528" /> 
</g><path d="M43476 24659 L43476 24265" /> 
<g style = "stroke-linecap:round;" > 
<path d="M43476 24265 L43476 24265" /> 
</g><path d="M43476 24641 L43438 24659" /> 
<path d="M43438 24659 L43363 24659" /> 
<path d="M43363 24659 L43326 24641" /> 
<path d="M43326 24641 L43307 24622" /> 
<path d="M43307 24622 L43288 24584" /> 
<path d="M43288 24584 L43288 24472" /> 
<path d="M43288 24472 L43307 24434" /> 
<path d="M43307 24434 L43326 24416" /> 
<path d="M43326 24416 L43363 24397" /> 
<path d="M43363 24397 L43438 24397" /> 
<path d="M43438 24397 L43476 24416" /> 
<g style = "stroke-linecap:round;" > 
<path d="M43476 24416 L43476 24416" /> 
</g></g>
<g style="fill:#00A0A0; fill-opacity:0.0; 
  stroke:#0000C0; stroke-linecap:round; stroke-linejoin:round; stroke-opacity:1.0; stroke-opacity:1.0; stroke-width:0" 
   transform="translate(0 0) scale(1 1)">
<path d="M39248 29000 L39252 29000" /> 
<path d="M39250 28998 L39250 29002" /> 
</g>
<g style="fill:#00A0A0; fill-opacity:0.0; 
  stroke:#00A0A0; stroke-linecap:round; stroke-linejoin:round; stroke-opacity:1.0; stroke-opacity:1.0; stroke-width:120" 
   transform="translate(0 0) scale(1 1)">
<path d="M33394 29248 L33365 29286" /> 
<path d="M33365 29286 L33279 29324" /> 
<path d="M33279 29324 L33222 29324" /> 
<path d="M33222 29324 L33137 29286" /> 
<path d="M33137 29286 L33079 29210" /> 
<path d="M33079 29210 L33051 29133" /> 
<path d="M33051 29133 L33022 28981" /> 
<path d="M33022 28981 L33022 28867" /> 
<path d="M33022 28867 L33051 28714" /> 
<path d="M33051 28714 L33079 28638" /> 
<path d="M33079 28638 L33137 28562" /> 
<path d="M33137 28562 L33222 28524" /> 
<path d="M33222 28524 L33279 28524" /> 
<path d="M33279 28524 L33365 28562" /> 
<path d="M33365 28562 L33394 28600" /> 
<g style = "stroke-linecap:round;" > 
<path d="M33394 28600 L33394 28600" /> 
</g><path d="M33737 29324 L33679 29286" /> 
<path d="M33679 29286 L33651 29248" /> 
<path d="M33651 29248 L33622 29171" /> 
<path d="M33622 29171 L33622 28943" /> 
<path d="M33622 28943 L33651 28867" /> 
<path d="M33651 28867 L33679 28829" /> 
<path d="M33679 28829 L33737 28790" /> 
<path d="M33737 28790 L33822 28790" /> 
<path d="M33822 28790 L33879 28829" /> 
<path d="M33879 28829 L33908 28867" /> 
<path d="M33908 28867 L33937 28943" /> 
<path d="M33937 28943 L33937 29171" /> 
<path d="M33937 29171 L33908 29248" /> 
<path d="M33908 29248 L33879 29286" /> 
<path d="M33879 29286 L33822 29324" /> 
<path d="M33822 29324 L33737 29324" /> 
<path d="M34280 29324 L34222 29286" /> 
<path d="M34222 29286 L34194 29210" /> 
<path d="M34194 29210 L34194 28524" /> 
<g style = "stroke-linecap:round;" > 
<path d="M34194 28524 L34194 28524" /> 
</g><path d="M34594 29324 L34536 29286" /> 
<path d="M34536 29286 L34508 29248" /> 
<path d="M34508 29248 L34479 29171" /> 
<path d="M34479 29171 L34479 28943" /> 
<path d="M34479 28943 L34508 28867" /> 
<path d="M34508 28867 L34536 28829" /> 
<path d="M34536 28829 L34594 28790" /> 
<path d="M34594 28790 L34679 28790" /> 
<path d="M34679 28790 L34736 28829" /> 
<path d="M34736 28829 L34765 28867" /> 
<path d="M34765 28867 L34794 28943" /> 
<path d="M34794 28943 L34794 29171" /> 
<path d="M34794 29171 L34765 29248" /> 
<path d="M34765 29248 L34736 29286" /> 
<path d="M34736 29286 L34679 29324" /> 
<path d="M34679 29324 L34594 29324" /> 
<path d="M35051 29324 L35051 28790" /> 
<g style = "stroke-linecap:round;" > 
<path d="M35051 28790 L35051 28790" /> 
</g><path d="M35051 28943 L35079 28867" /> 
<path d="M35079 28867 L35108 28829" /> 
<path d="M35108 28829 L35165 28790" /> 
<path d="M35165 28790 L35222 28790" /> 
<g style = "stroke-linecap:round;" > 
<path d="M35222 28790 L35222 28790" /> 
</g><path d="M35422 29324 L35422 28790" /> 
<g style = "stroke-linecap:round;" > 
<path d="M35422 28790 L35422 28790" /> 
</g><path d="M35422 28524 L35393 28562" /> 
<path d="M35393 28562 L35422 28600" /> 
<path d="M35422 28600 L35450 28562" /> 
<path d="M35450 28562 L35422 28524" /> 
<path d="M35422 28524 L35422 28600" /> 
<g style = "stroke-linecap:round;" > 
<path d="M35422 28600 L35422 28600" /> 
</g><path d="M35708 29324 L35708 28790" /> 
<g style = "stroke-linecap:round;" > 
<path d="M35708 28790 L35708 28790" /> 
</g><path d="M35708 28867 L35736 28829" /> 
<path d="M35736 28829 L35794 28790" /> 
<path d="M35794 28790 L35879 28790" /> 
<path d="M35879 28790 L35936 28829" /> 
<path d="M35936 28829 L35965 28905" /> 
<path d="M35965 28905 L35965 29324" /> 
<g style = "stroke-linecap:round;" > 
<path d="M35965 29324 L35965 29324" /> 
</g><path d="M35965 28905 L35994 28829" /> 
<path d="M35994 28829 L36051 28790" /> 
<path d="M36051 28790 L36136 28790" /> 
<path d="M36136 28790 L36194 28829" /> 
<path d="M36194 28829 L36222 28905" /> 
<path d="M36222 28905 L36222 29324" /> 
<g style = "stroke-linecap:round;" > 
<path d="M36222 29324 L36222 29324" /> 
</g><path d="M36736 29286 L36679 29324" /> 
<path d="M36679 29324 L36565 29324" /> 
<path d="M36565 29324 L36508 29286" /> 
<path d="M36508 29286 L36479 29210" /> 
<path d="M36479 29210 L36479 28905" /> 
<path d="M36479 28905 L36508 28829" /> 
<path d="M36508 28829 L36565 28790" /> 
<path d="M36565 28790 L36679 28790" /> 
<path d="M36679 28790 L36736 28829" /> 
<path d="M36736 28829 L36765 28905" /> 
<path d="M36765 28905 L36765 28981" /> 
<path d="M36765 28981 L36479 29057" /> 
<g style = "stroke-linecap:round;" > 
<path d="M36479 29057 L36479 29057" /> 
</g><path d="M36936 28790 L37165 28790" /> 
<g style = "stroke-linecap:round;" > 
<path d="M37165 28790 L37165 28790" /> 
</g><path d="M37022 28524 L37022 29210" /> 
<path d="M37022 29210 L37050 29286" /> 
<path d="M37050 29286 L37108 29324" /> 
<path d="M37108 29324 L37165 29324" /> 
<g style = "stroke-linecap:round;" > 
<path d="M37165 29324 L37165 29324" /> 
</g><path d="M37593 29286 L37536 29324" /> 
<path d="M37536 29324 L37422 29324" /> 
<path d="M37422 29324 L37365 29286" /> 
<path d="M37365 29286 L37336 29210" /> 
<path d="M37336 29210 L37336 28905" /> 
<path d="M37336 28905 L37365 28829" /> 
<path d="M37365 28829 L37422 28790" /> 
<path d="M37422 28790 L37536 28790" /> 
<path d="M37536 28790 L37593 28829" /> 
<path d="M37593 28829 L37622 28905" /> 
<path d="M37622 28905 L37622 28981" /> 
<path d="M37622 28981 L37336 29057" /> 
<g style = "stroke-linecap:round;" > 
<path d="M37336 29057 L37336 29057" /> 
</g><path d="M37879 29324 L37879 28790" /> 
<g style = "stroke-linecap:round;" > 
<path d="M37879 28790 L37879 28790" /> 
</g><path d="M37879 28943 L37907 28867" /> 
<path d="M37907 28867 L37936 28829" /> 
<path d="M37936 28829 L37993 28790" /> 
<path d="M37993 28790 L38050 28790" /> 
<g style = "stroke-linecap:round;" > 
<path d="M38050 28790 L38050 28790" /> 
</g><path d="M38993 29324 L38707 29324" /> 
<path d="M38707 29324 L38707 28524" /> 
<g style = "stroke-linecap:round;" > 
<path d="M38707 28524 L38707 28524" /> 
</g><path d="M39193 28905 L39393 28905" /> 
<g style = "stroke-linecap:round;" > 
<path d="M39393 28905 L39393 28905" /> 
</g><path d="M39479 29324 L39193 29324" /> 
<path d="M39193 29324 L39193 28524" /> 
<path d="M39193 28524 L39479 28524" /> 
<g style = "stroke-linecap:round;" > 
<path d="M39479 28524 L39479 28524" /> 
</g><path d="M39736 29324 L39736 28524" /> 
<path d="M39736 28524 L39879 28524" /> 
<path d="M39879 28524 L39964 28562" /> 
<path d="M39964 28562 L40022 28638" /> 
<path d="M40022 28638 L40050 28714" /> 
<path d="M40050 28714 L40079 28867" /> 
<path d="M40079 28867 L40079 28981" /> 
<path d="M40079 28981 L40050 29133" /> 
<path d="M40050 29133 L40022 29210" /> 
<path d="M40022 29210 L39964 29286" /> 
<path d="M39964 29286 L39879 29324" /> 
<path d="M39879 29324 L39736 29324" /> 
<path d="M40993 28905 L41079 28943" /> 
<path d="M41079 28943 L41107 28981" /> 
<path d="M41107 28981 L41136 29057" /> 
<path d="M41136 29057 L41136 29171" /> 
<path d="M41136 29171 L41107 29248" /> 
<path d="M41107 29248 L41079 29286" /> 
<path d="M41079 29286 L41021 29324" /> 
<path d="M41021 29324 L40793 29324" /> 
<path d="M40793 29324 L40793 28524" /> 
<path d="M40793 28524 L40993 28524" /> 
<path d="M40993 28524 L41050 28562" /> 
<path d="M41050 28562 L41079 28600" /> 
<path d="M41079 28600 L41107 28676" /> 
<path d="M41107 28676 L41107 28752" /> 
<path d="M41107 28752 L41079 28829" /> 
<path d="M41079 28829 L41050 28867" /> 
<path d="M41050 28867 L40993 28905" /> 
<path d="M40993 28905 L40793 28905" /> 
<g style = "stroke-linecap:round;" > 
<path d="M40793 28905 L40793 28905" /> 
</g><path d="M41479 29324 L41421 29286" /> 
<path d="M41421 29286 L41393 29248" /> 
<path d="M41393 29248 L41364 29171" /> 
<path d="M41364 29171 L41364 28943" /> 
<path d="M41364 28943 L41393 28867" /> 
<path d="M41393 28867 L41421 28829" /> 
<path d="M41421 28829 L41479 28790" /> 
<path d="M41479 28790 L41564 28790" /> 
<path d="M41564 28790 L41621 28829" /> 
<path d="M41621 28829 L41650 28867" /> 
<path d="M41650 28867 L41679 28943" /> 
<path d="M41679 28943 L41679 29171" /> 
<path d="M41679 29171 L41650 29248" /> 
<path d="M41650 29248 L41621 29286" /> 
<path d="M41621 29286 L41564 29324" /> 
<path d="M41564 29324 L41479 29324" /> 
<path d="M42193 29324 L42193 28905" /> 
<path d="M42193 28905 L42164 28829" /> 
<path d="M42164 28829 L42107 28790" /> 
<path d="M42107 28790 L41993 28790" /> 
<path d="M41993 28790 L41936 28829" /> 
<g style = "stroke-linecap:round;" > 
<path d="M41936 28829 L41936 28829" /> 
</g><path d="M42193 29286 L42136 29324" /> 
<path d="M42136 29324 L41993 29324" /> 
<path d="M41993 29324 L41936 29286" /> 
<path d="M41936 29286 L41907 29210" /> 
<path d="M41907 29210 L41907 29133" /> 
<path d="M41907 29133 L41936 29057" /> 
<path d="M41936 29057 L41993 29019" /> 
<path d="M41993 29019 L42136 29019" /> 
<path d="M42136 29019 L42193 28981" /> 
<g style = "stroke-linecap:round;" > 
<path d="M42193 28981 L42193 28981" /> 
</g><path d="M42479 29324 L42479 28790" /> 
<g style = "stroke-linecap:round;" > 
<path d="M42479 28790 L42479 28790" /> 
</g><path d="M42479 28943 L42507 28867" /> 
<path d="M42507 28867 L42536 28829" /> 
<path d="M42536 28829 L42593 28790" /> 
<path d="M42593 28790 L42650 28790" /> 
<g style = "stroke-linecap:round;" > 
<path d="M42650 28790 L42650 28790" /> 
</g><path d="M43107 29324 L43107 28524" /> 
<g style = "stroke-linecap:round;" > 
<path d="M43107 28524 L43107 28524" /> 
</g><path d="M43107 29286 L43050 29324" /> 
<path d="M43050 29324 L42936 29324" /> 
<path d="M42936 29324 L42878 29286" /> 
<path d="M42878 29286 L42850 29248" /> 
<path d="M42850 29248 L42821 29171" /> 
<path d="M42821 29171 L42821 28943" /> 
<path d="M42821 28943 L42850 28867" /> 
<path d="M42850 28867 L42878 28829" /> 
<path d="M42878 28829 L42936 28790" /> 
<path d="M42936 28790 L43050 28790" /> 
<path d="M43050 28790 L43107 28829" /> 
<g style = "stroke-linecap:round;" > 
<path d="M43107 28829 L43107 28829" /> 
</g><path d="M43793 28790 L43936 29324" /> 
<path d="M43936 29324 L44078 28790" /> 
<g style = "stroke-linecap:round;" > 
<path d="M44078 28790 L44078 28790" /> 
</g><path d="M44278 28600 L44307 28562" /> 
<path d="M44307 28562 L44364 28524" /> 
<path d="M44364 28524 L44507 28524" /> 
<path d="M44507 28524 L44564 28562" /> 
<path d="M44564 28562 L44593 28600" /> 
<path d="M44593 28600 L44621 28676" /> 
<path d="M44621 28676 L44621 28752" /> 
<path d="M44621 28752 L44593 28867" /> 
<path d="M44593 28867 L44250 29324" /> 
<path d="M44250 29324 L44621 29324" /> 
<g style = "stroke-linecap:round;" > 
<path d="M44621 29324 L44621 29324" /> 
</g><path d="M44878 29248 L44906 29286" /> 
<path d="M44906 29286 L44878 29324" /> 
<path d="M44878 29324 L44849 29286" /> 
<path d="M44849 29286 L44878 29248" /> 
<path d="M44878 29248 L44878 29324" /> 
<g style = "stroke-linecap:round;" > 
<path d="M44878 29324 L44878 29324" /> 
</g><path d="M45278 28524 L45335 28524" /> 
<path d="M45335 28524 L45392 28562" /> 
<path d="M45392 28562 L45421 28600" /> 
<path d="M45421 28600 L45450 28676" /> 
<path d="M45450 28676 L45478 28829" /> 
<path d="M45478 28829 L45478 29019" /> 
<path d="M45478 29019 L45450 29171" /> 
<path d="M45450 29171 L45421 29248" /> 
<path d="M45421 29248 L45392 29286" /> 
<path d="M45392 29286 L45335 29324" /> 
<path d="M45335 29324 L45278 29324" /> 
<path d="M45278 29324 L45221 29286" /> 
<path d="M45221 29286 L45192 29248" /> 
<path d="M45192 29248 L45164 29171" /> 
<path d="M45164 29171 L45135 29019" /> 
<path d="M45135 29019 L45135 28829" /> 
<path d="M45135 28829 L45164 28676" /> 
<path d="M45164 28676 L45192 28600" /> 
<path d="M45192 28600 L45221 28562" /> 
<path d="M45221 28562 L45278 28524" /> 
</g>
<g style="fill:#00A0A0; fill-opacity:0.0; 
  stroke:#FFFF00; stroke-linecap:round; stroke-linejoin:round; stroke-opacity:1.0; stroke-opacity:1.0; stroke-width:150" 
   transform="translate(0 0) scale(1 1)">
<path d="M30000 20000 L48000 20000" /> 
<path d="M48000 30000 L48000 20000" /> 
<path d="M30000 30000 L30000 20000" /> 
<path d="M30000 30000 L48000 30000" /> 
</g>
<g style="fill:#00A0A0; fill-opacity:0.0; 
  stroke:#A00000; stroke-linecap:round; stroke-linejoin:round; stroke-opacity:1.0; stroke-opacity:1.0; stroke-width:120" 
   transform="translate(0 0) scale(1 1)">
<path d="M47148 26476 L44352 26476" /> 
<path d="M39581 24567 L39162 24567" /> 
<path d="M39456 26476 L44352 26476" /> 
<path d="M38939 25959 L39456 26476" /> 
<path d="M38939 24790 L38939 25959" /> 
<path d="M39162 24567 L38939 24790" /> 
<path d="M47148 25492 L44352 25492" /> 
<path d="M43571 25755 L43834 25492" /> 
<path d="M39257 25755 L43571 25755" /> 
<path d="M39162 25660 L39257 25755" /> 
<path d="M39162 25000 L39162 25660" /> 
<path d="M39581 25000 L39162 25000" /> 
<path d="M44352 25492 L43834 25492" /> 
<path d="M47148 24508 L44352 24508" /> 
<path d="M42909 25433 L39581 25433" /> 
<path d="M43834 24508 L42909 25433" /> 
<path d="M44352 24508 L43834 24508" /> 
<path d="M47148 23524 L44352 23524" /> 
<path d="M35237 23524 L35213 23500" /> 
<path d="M44352 23524 L35237 23524" /> 
<path d="M34875 23500 L35213 23500" /> 
<path d="M34436 23061 L34875 23500" /> 
<path d="M33796 23061 L34436 23061" /> 
<path d="M33786 23071 L33796 23061" /> 
<path d="M33786 25410 L33786 23071" /> 
<path d="M33820 25444 L33786 25410" /> 
<path d="M34875 25444 L33820 25444" /> 
<path d="M34875 26500 L34875 25444" /> 
<path d="M34875 25444 L34875 25000" /> 
<path d="M34463 24662 L34463 25000" /> 
<path d="M34564 24561 L34463 24662" /> 
<path d="M35116 24561 L34564 24561" /> 
<path d="M35555 25000 L35116 24561" /> 
<path d="M38419 25000 L35555 25000" /> 
<path d="M34125 25000 L34463 25000" /> 
<path d="M36494 26939 L38000 25433" /> 
<path d="M34564 26939 L36494 26939" /> 
<path d="M34463 26838 L34564 26939" /> 
<path d="M34463 26500 L34463 26838" /> 
<path d="M34125 26500 L34463 26500" /> 
<path d="M38419 25433 L38000 25433" /> 
<path d="M37699 24266 L38000 24567" /> 
<path d="M34891 24266 L37699 24266" /> 
<path d="M34463 23838 L34891 24266" /> 
<path d="M34463 23500 L34463 23838" /> 
<path d="M34125 23500 L34463 23500" /> 
<path d="M38419 24567 L38000 24567" /> 
</g>
<g style="fill:#00A0A0; fill-opacity:0.0; 
  stroke:#A00000; stroke-linecap:round; stroke-linejoin:round; stroke-opacity:1.0; stroke-opacity:1.0; stroke-width:100" 
   transform="translate(0 0) scale(1 1)">
<path d="M47675 28402 L47675 28402" /> 
<path d="M47511 28238 L47675 28402" /> 
<path d="M47180 28100 L47511 28238" /> 
<path d="M46822 28100 L47180 28100" /> 
<path d="M46491 28237 L46822 28100" /> 
<path d="M46238 28489 L46491 28237" /> 
<path d="M46100 28820 L46238 28489" /> 
<path d="M46100 29178 L46100 28820" /> 
<path d="M46237 29509 L46100 29178" /> 
<path d="M46402 29675 L46237 29509" /> 
<path d="M31597 29675 L46402 29675" /> 
<path d="M31762 29511 L31597 29675" /> 
<path d="M31900 29180 L31762 29511" /> 
<path d="M31900 28822 L31900 29180" /> 
<path d="M31763 28491 L31900 28822" /> 
<path d="M31511 28238 L31763 28491" /> 
<path d="M31180 28100 L31511 28238" /> 
<path d="M30822 28100 L31180 28100" /> 
<path d="M30491 28237 L30822 28100" /> 
<path d="M30325 28402 L30491 28237" /> 
<path d="M30325 21597 L30325 28402" /> 
<path d="M30489 21762 L30325 21597" /> 
<path d="M30820 21900 L30489 21762" /> 
<path d="M31178 21900 L30820 21900" /> 
<path d="M31509 21763 L31178 21900" /> 
<path d="M31762 21511 L31509 21763" /> 
<path d="M31900 21180 L31762 21511" /> 
<path d="M31900 20822 L31900 21180" /> 
<path d="M31763 20491 L31900 20822" /> 
<path d="M31597 20325 L31763 20491" /> 
<path d="M46402 20325 L31597 20325" /> 
<path d="M46238 20489 L46402 20325" /> 
<path d="M46100 20820 L46238 20489" /> 
<path d="M46100 21178 L46100 20820" /> 
<path d="M46237 21509 L46100 21178" /> 
<path d="M46489 21762 L46237 21509" /> 
<path d="M46820 21900 L46489 21762" /> 
<path d="M47178 21900 L46820 21900" /> 
<path d="M47509 21763 L47178 21900" /> 
<path d="M47675 21597 L47509 21763" /> 
<path d="M47675 23050 L47675 21597" /> 
<path d="M47643 23018 L47675 23050" /> 
<path d="M47552 22980 L47643 23018" /> 
<path d="M47453 22980 L47552 22980" /> 
<path d="M47260 22979 L47453 22980" /> 
<path d="M47198 23041 L47260 22979" /> 
<path d="M47198 23424 L47198 23041" /> 
<path d="M47198 23474 L47198 23424" /> 
<path d="M47198 23574 L47198 23474" /> 
<path d="M47098 23574 L47198 23574" /> 
<path d="M47098 23474 L47098 23574" /> 
<path d="M47098 23041 L47098 23474" /> 
<path d="M47036 22979 L47098 23041" /> 
<path d="M46843 22980 L47036 22979" /> 
<path d="M46744 22980 L46843 22980" /> 
<path d="M46653 23018 L46744 22980" /> 
<path d="M46583 23088 L46653 23018" /> 
<path d="M46545 23180 L46583 23088" /> 
<path d="M46544 23412 L46545 23180" /> 
<path d="M46606 23474 L46544 23412" /> 
<path d="M47098 23474 L46606 23474" /> 
<path d="M47098 23574 L47098 23474" /> 
<path d="M47048 23574 L47098 23574" /> 
<path d="M46606 23574 L47048 23574" /> 
<path d="M46544 23636 L46606 23574" /> 
<path d="M46545 23868 L46544 23636" /> 
<path d="M46583 23960 L46545 23868" /> 
<path d="M46639 24016 L46583 23960" /> 
<path d="M46583 24072 L46639 24016" /> 
<path d="M46545 24163 L46583 24072" /> 
<path d="M46545 24198 L46545 24163" /> 
<path d="M44956 24198 L46545 24198" /> 
<path d="M44956 23636 L44956 24198" /> 
<path d="M44956 23412 L44956 23636" /> 
<path d="M44955 23239 L44956 23412" /> 
<path d="M44917 23147 L44955 23239" /> 
<path d="M44847 23077 L44917 23147" /> 
<path d="M44756 23039 L44847 23077" /> 
<path d="M44657 23039 L44756 23039" /> 
<path d="M44464 23038 L44657 23039" /> 
<path d="M44402 23100 L44464 23038" /> 
<path d="M44402 23474 L44402 23100" /> 
<path d="M44894 23474 L44402 23474" /> 
<path d="M44956 23412 L44894 23474" /> 
<path d="M44956 23636 L44956 23412" /> 
<path d="M44894 23574 L44956 23636" /> 
<path d="M44402 23574 L44894 23574" /> 
<path d="M44402 23948 L44402 23574" /> 
<path d="M44464 24010 L44402 23948" /> 
<path d="M44657 24009 L44464 24010" /> 
<path d="M44756 24009 L44657 24009" /> 
<path d="M44847 23971 L44756 24009" /> 
<path d="M44917 23901 L44847 23971" /> 
<path d="M44955 23809 L44917 23901" /> 
<path d="M44956 23636 L44955 23809" /> 
<path d="M44956 24198 L44956 23636" /> 
<path d="M44944 24198 L44956 24198" /> 
<path d="M44917 24131 L44944 24198" /> 
<path d="M44847 24061 L44917 24131" /> 
<path d="M44756 24023 L44847 24061" /> 
<path d="M44657 24023 L44756 24023" /> 
<path d="M44302 24023 L44657 24023" /> 
<path d="M44302 23948 L44302 24023" /> 
<path d="M44302 23574 L44302 23948" /> 
<path d="M44302 23474 L44302 23574" /> 
<path d="M44302 23100 L44302 23474" /> 
<path d="M44240 23038 L44302 23100" /> 
<path d="M44047 23039 L44240 23038" /> 
<path d="M43948 23039 L44047 23039" /> 
<path d="M43857 23077 L43948 23039" /> 
<path d="M43787 23147 L43857 23077" /> 
<path d="M43749 23239 L43787 23147" /> 
<path d="M43748 23412 L43749 23239" /> 
<path d="M43810 23474 L43748 23412" /> 
<path d="M44302 23474 L43810 23474" /> 
<path d="M44302 23574 L44302 23474" /> 
<path d="M43810 23574 L44302 23574" /> 
<path d="M43748 23636 L43810 23574" /> 
<path d="M43749 23809 L43748 23636" /> 
<path d="M43787 23901 L43749 23809" /> 
<path d="M43857 23971 L43787 23901" /> 
<path d="M43948 24009 L43857 23971" /> 
<path d="M44047 24009 L43948 24009" /> 
<path d="M44240 24010 L44047 24009" /> 
<path d="M44302 23948 L44240 24010" /> 
<path d="M44302 24023 L44302 23948" /> 
<path d="M43949 24023 L44302 24023" /> 
<path d="M43857 24061 L43949 24023" /> 
<path d="M43787 24131 L43857 24061" /> 
<path d="M43752 24214 L43787 24131" /> 
<path d="M43715 24222 L43752 24214" /> 
<path d="M43615 24289 L43715 24222" /> 
<path d="M42781 25123 L43615 24289" /> 
<path d="M40086 25123 L42781 25123" /> 
<path d="M40086 25089 L40086 25123" /> 
<path d="M40086 24813 L40086 25089" /> 
<path d="M40073 24783 L40086 24813" /> 
<path d="M40086 24755 L40073 24783" /> 
<path d="M40086 24656 L40086 24755" /> 
<path d="M40086 24380 L40086 24656" /> 
<path d="M40048 24288 L40086 24380" /> 
<path d="M39978 24218 L40048 24288" /> 
<path d="M39887 24180 L39978 24218" /> 
<path d="M39788 24180 L39887 24180" /> 
<path d="M39276 24180 L39788 24180" /> 
<path d="M39184 24218 L39276 24180" /> 
<path d="M39140 24261 L39184 24218" /> 
<path d="M39043 24281 L39140 24261" /> 
<path d="M38943 24348 L39043 24281" /> 
<path d="M38920 24370 L38943 24348" /> 
<path d="M38886 24288 L38920 24370" /> 
<path d="M38816 24218 L38886 24288" /> 
<path d="M38725 24180 L38816 24218" /> 
<path d="M38626 24180 L38725 24180" /> 
<path d="M38114 24180 L38626 24180" /> 
<path d="M38069 24198 L38114 24180" /> 
<path d="M37918 24047 L38069 24198" /> 
<path d="M37818 23980 L37918 24047" /> 
<path d="M37699 23956 L37818 23980" /> 
<path d="M35221 23956 L37699 23956" /> 
<path d="M35261 23916 L35221 23956" /> 
<path d="M35299 23825 L35261 23916" /> 
<path d="M35299 23726 L35299 23825" /> 
<path d="M35300 23612 L35299 23726" /> 
<path d="M35300 23388 L35300 23612" /> 
<path d="M35299 23274 L35300 23388" /> 
<path d="M35299 23175 L35299 23274" /> 
<path d="M35261 23084 L35299 23175" /> 
<path d="M35191 23014 L35261 23084" /> 
<path d="M35099 22976 L35191 23014" /> 
<path d="M34987 22975 L35099 22976" /> 
<path d="M34925 23037 L34987 22975" /> 
<path d="M34925 23450 L34925 23037" /> 
<path d="M35238 23450 L34925 23450" /> 
<path d="M35300 23388 L35238 23450" /> 
<path d="M35300 23612 L35300 23388" /> 
<path d="M35238 23550 L35300 23612" /> 
<path d="M34975 23550 L35238 23550" /> 
<path d="M34925 23550 L34975 23550" /> 
<path d="M34825 23550 L34925 23550" /> 
<path d="M34825 23450 L34825 23550" /> 
<path d="M34825 23400 L34825 23450" /> 
<path d="M34825 23037 L34825 23400" /> 
<path d="M34763 22975 L34825 23037" /> 
<path d="M34651 22976 L34763 22975" /> 
<path d="M34559 23014 L34651 22976" /> 
<path d="M34500 23073 L34559 23014" /> 
<path d="M34441 23014 L34500 23073" /> 
<path d="M34350 22976 L34441 23014" /> 
<path d="M34251 22976 L34350 22976" /> 
<path d="M33901 22976 L34251 22976" /> 
<path d="M33809 23014 L33901 22976" /> 
<path d="M33739 23084 L33809 23014" /> 
<path d="M33701 23175 L33739 23084" /> 
<path d="M33701 23274 L33701 23175" /> 
<path d="M33701 23824 L33701 23274" /> 
<path d="M33739 23916 L33701 23824" /> 
<path d="M33809 23986 L33739 23916" /> 
<path d="M33900 24024 L33809 23986" /> 
<path d="M33999 24024 L33900 24024" /> 
<path d="M34221 24024 L33999 24024" /> 
<path d="M34222 24024 L34221 24024" /> 
<path d="M34244 24057 L34222 24024" /> 
<path d="M34459 24272 L34244 24057" /> 
<path d="M34445 24275 L34459 24272" /> 
<path d="M34344 24342 L34445 24275" /> 
<path d="M34244 24443 L34344 24342" /> 
<path d="M34221 24476 L34244 24443" /> 
<path d="M33901 24476 L34221 24476" /> 
<path d="M33809 24514 L33901 24476" /> 
<path d="M33739 24584 L33809 24514" /> 
<path d="M33701 24675 L33739 24584" /> 
<path d="M33701 24774 L33701 24675" /> 
<path d="M33701 25324 L33701 24774" /> 
<path d="M33739 25416 L33701 25324" /> 
<path d="M33809 25486 L33739 25416" /> 
<path d="M33900 25524 L33809 25486" /> 
<path d="M33999 25524 L33900 25524" /> 
<path d="M34349 25524 L33999 25524" /> 
<path d="M34441 25486 L34349 25524" /> 
<path d="M34500 25427 L34441 25486" /> 
<path d="M34559 25486 L34500 25427" /> 
<path d="M34651 25524 L34559 25486" /> 
<path d="M34763 25525 L34651 25524" /> 
<path d="M34825 25463 L34763 25525" /> 
<path d="M34825 25100 L34825 25463" /> 
<path d="M34825 25050 L34825 25100" /> 
<path d="M34825 24950 L34825 25050" /> 
<path d="M34925 24950 L34825 24950" /> 
<path d="M34925 25050 L34925 24950" /> 
<path d="M34925 25100 L34925 25050" /> 
<path d="M34925 25463 L34925 25100" /> 
<path d="M34987 25525 L34925 25463" /> 
<path d="M35099 25524 L34987 25525" /> 
<path d="M35191 25486 L35099 25524" /> 
<path d="M35261 25416 L35191 25486" /> 
<path d="M35299 25325 L35261 25416" /> 
<path d="M35299 25226 L35299 25325" /> 
<path d="M35299 25183 L35299 25226" /> 
<path d="M35335 25219 L35299 25183" /> 
<path d="M35336 25219 L35335 25219" /> 
<path d="M35436 25286 L35336 25219" /> 
<path d="M35554 25309 L35436 25286" /> 
<path d="M35555 25310 L35554 25309" /> 
<path d="M37684 25310 L35555 25310" /> 
<path d="M36365 26629 L37684 25310" /> 
<path d="M35299 26629 L36365 26629" /> 
<path d="M35300 26612 L35299 26629" /> 
<path d="M35300 26388 L35300 26612" /> 
<path d="M35299 26274 L35300 26388" /> 
<path d="M35299 26175 L35299 26274" /> 
<path d="M35261 26084 L35299 26175" /> 
<path d="M35191 26014 L35261 26084" /> 
<path d="M35099 25976 L35191 26014" /> 
<path d="M34987 25975 L35099 25976" /> 
<path d="M34925 26037 L34987 25975" /> 
<path d="M34925 26450 L34925 26037" /> 
<path d="M35238 26450 L34925 26450" /> 
<path d="M35300 26388 L35238 26450" /> 
<path d="M35300 26612 L35300 26388" /> 
<path d="M35238 26550 L35300 26612" /> 
<path d="M34975 26550 L35238 26550" /> 
<path d="M34925 26550 L34975 26550" /> 
<path d="M34825 26550 L34925 26550" /> 
<path d="M34825 26450 L34825 26550" /> 
<path d="M34825 26400 L34825 26450" /> 
<path d="M34825 26037 L34825 26400" /> 
<path d="M34763 25975 L34825 26037" /> 
<path d="M34651 25976 L34763 25975" /> 
<path d="M34559 26014 L34651 25976" /> 
<path d="M34500 26073 L34559 26014" /> 
<path d="M34441 26014 L34500 26073" /> 
<path d="M34350 25976 L34441 26014" /> 
<path d="M34251 25976 L34350 25976" /> 
<path d="M33901 25976 L34251 25976" /> 
<path d="M33809 26014 L33901 25976" /> 
<path d="M33739 26084 L33809 26014" /> 
<path d="M33701 26175 L33739 26084" /> 
<path d="M33701 26274 L33701 26175" /> 
<path d="M33701 26824 L33701 26274" /> 
<path d="M33739 26916 L33701 26824" /> 
<path d="M33809 26986 L33739 26916" /> 
<path d="M33900 27024 L33809 26986" /> 
<path d="M33999 27024 L33900 27024" /> 
<path d="M34221 27024 L33999 27024" /> 
<path d="M34222 27024 L34221 27024" /> 
<path d="M34244 27057 L34222 27024" /> 
<path d="M34344 27158 L34244 27057" /> 
<path d="M34345 27158 L34344 27158" /> 
<path d="M34445 27225 L34345 27158" /> 
<path d="M34563 27248 L34445 27225" /> 
<path d="M34564 27249 L34563 27248" /> 
<path d="M36494 27249 L34564 27249" /> 
<path d="M36612 27225 L36494 27249" /> 
<path d="M36613 27225 L36612 27225" /> 
<path d="M36713 27158 L36613 27225" /> 
<path d="M38069 25802 L36713 27158" /> 
<path d="M38113 25820 L38069 25802" /> 
<path d="M38212 25820 L38113 25820" /> 
<path d="M38629 25820 L38212 25820" /> 
<path d="M38629 25959 L38629 25820" /> 
<path d="M38653 26078 L38629 25959" /> 
<path d="M38720 26178 L38653 26078" /> 
<path d="M39237 26695 L38720 26178" /> 
<path d="M39337 26762 L39237 26695" /> 
<path d="M39338 26762 L39337 26762" /> 
<path d="M39456 26786 L39338 26762" /> 
<path d="M43759 26786 L39456 26786" /> 
<path d="M43787 26853 L43759 26786" /> 
<path d="M43857 26923 L43787 26853" /> 
<path d="M43948 26961 L43857 26923" /> 
<path d="M44047 26961 L43948 26961" /> 
<path d="M44755 26961 L44047 26961" /> 
<path d="M44847 26923 L44755 26961" /> 
<path d="M44917 26853 L44847 26923" /> 
<path d="M44944 26786 L44917 26853" /> 
<path d="M46545 26786 L44944 26786" /> 
<path d="M46545 26820 L46545 26786" /> 
<path d="M46583 26912 L46545 26820" /> 
<path d="M46653 26982 L46583 26912" /> 
<path d="M46744 27020 L46653 26982" /> 
<path d="M46843 27020 L46744 27020" /> 
<path d="M47551 27020 L46843 27020" /> 
<path d="M47643 26982 L47551 27020" /> 
<path d="M47675 26950 L47643 26982" /> 
<path d="M47675 28402 L47675 26950" /> 
</g>
<g style="fill:#A00000; fill-opacity:1.0; 
  stroke:#A00000; stroke-linecap:round; stroke-linejoin:round; stroke-opacity:1.0; stroke-opacity:1.0; stroke-width:0" 
   transform="translate(0 0) scale(1 1)">
<polygon style="fill-rule:evenodd; " 
points="46491,28237
46238,28489
46100,28820
46100,29178
46237,29509
46402,29675
31597,29675
31762,29511
31900,29180
31900,28822
31763,28491
31511,28238
31180,28100
30822,28100
30491,28237
30325,28402
30325,21597
30489,21762
30820,21900
31178,21900
31509,21763
31762,21511
31900,21180
31900,20822
31763,20491
31597,20325
46402,20325
46238,20489
46100,20820
46100,21178
46237,21509
46489,21762
46820,21900
47178,21900
47509,21763
47675,21597
47675,23050
47643,23018
47552,22980
47453,22980
47260,22979
47198,23041
47198,23424
47198,23474
47198,23574
47098,23574
47098,23474
47098,23041
47036,22979
46843,22980
46744,22980
46653,23018
46583,23088
46545,23180
46544,23412
46606,23474
47098,23474
47098,23574
47048,23574
46606,23574
46544,23636
46545,23868
46583,23960
46639,24016
46583,24072
46545,24163
46545,24198
44956,24198
44956,23636
44956,23412
44955,23239
44917,23147
44847,23077
44756,23039
44657,23039
44464,23038
44402,23100
44402,23474
44894,23474
44956,23412
44956,23636
44894,23574
44402,23574
44402,23948
44464,24010
44657,24009
44756,24009
44847,23971
44917,23901
44955,23809
44956,23636
44956,24198
44944,24198
44917,24131
44847,24061
44756,24023
44657,24023
44302,24023
44302,23948
44302,23574
44302,23474
44302,23100
44240,23038
44047,23039
43948,23039
43857,23077
43787,23147
43749,23239
43748,23412
43810,23474
44302,23474
44302,23574
43810,23574
43748,23636
43749,23809
43787,23901
43857,23971
43948,24009
44047,24009
44240,24010
44302,23948
44302,24023
43949,24023
43857,24061
43787,24131
43752,24214
43715,24222
43615,24289
42781,25123
40086,25123
40086,25089
40086,24813
40073,24783
40086,24755
40086,24656
40086,24380
40048,24288
39978,24218
39887,24180
39788,24180
39276,24180
39184,24218
39140,24261
39043,24281
38943,24348
38920,24370
38886,24288
38816,24218
38725,24180
38626,24180
38114,24180
38069,24198
37918,24047
37818,23980
37699,23956
35221,23956
35261,23916
35299,23825
35299,23726
35300,23612
35300,23388
35299,23274
35299,23175
35261,23084
35191,23014
35099,22976
34987,22975
34925,23037
34925,23450
35238,23450
35300,23388
35300,23612
35238,23550
34975,23550
34925,23550
34825,23550
34825,23450
34825,23400
34825,23037
34763,22975
34651,22976
34559,23014
34500,23073
34441,23014
34350,22976
34251,22976
33901,22976
33809,23014
33739,23084
33701,23175
33701,23274
33701,23824
33739,23916
33809,23986
33900,24024
33999,24024
34221,24024
34222,24024
34244,24057
34459,24272
34445,24275
34344,24342
34244,24443
34221,24476
33901,24476
33809,24514
33739,24584
33701,24675
33701,24774
33701,25324
33739,25416
33809,25486
33900,25524
33999,25524
34349,25524
34441,25486
34500,25427
34559,25486
34651,25524
34763,25525
34825,25463
34825,25100
34825,25050
34825,24950
34925,24950
34925,25050
34925,25100
34925,25463
34987,25525
35099,25524
35191,25486
35261,25416
35299,25325
35299,25226
35299,25183
35335,25219
35336,25219
35436,25286
35554,25309
35555,25310
37684,25310
36365,26629
35299,26629
35300,26612
35300,26388
35299,26274
35299,26175
35261,26084
35191,26014
35099,25976
34987,25975
34925,26037
34925,26450
35238,26450
35300,26388
35300,26612
35238,26550
34975,26550
34925,26550
34825,26550
34825,26450
34825,26400
34825,26037
34763,25975
34651,25976
34559,26014
34500,26073
34441,26014
34350,25976
34251,25976
33901,25976
33809,26014
33739,26084
33701,26175
33701,26274
33701,26824
33739,26916
33809,26986
33900,27024
33999,27024
34221,27024
34222,27024
34244,27057
34344,27158
34345,27158
34445,27225
34563,27248
34564,27249
36494,27249
36612,27225
36613,27225
36713,27158
38069,25802
38113,25820
38212,25820
38629,25820
38629,25959
38653,26078
38720,26178
39237,26695
39337,26762
39338,26762
39456,26786
43759,26786
43787,26853
43857,26923
43948,26961
44047,26961
44755,26961
44847,26923
44917,26853
44944,26786
46545,26786
46545,26820
46583,26912
46653,26982
46744,27020
46843,27020
47551,27020
47643,26982
47675,26950
47675,28402
47675,28402
47511,28238
47180,28100
46822,28100
" /> 
</g>
<g style="fill:#A00000; fill-opacity:1.0; 
  stroke:#A00000; stroke-linecap:round; stroke-linejoin:round; stroke-opacity:1.0; stroke-opacity:1.0; stroke-width:0" 
   transform="translate(0 0) scale(1 1)">
<polygon style="fill-rule:evenodd; " 
points="33950,23775
33950,23225
34300,23225
34300,23775
" /> 
<polygon style="fill-rule:evenodd; " 
points="34700,23775
34700,23225
35050,23225
35050,23775
" /> 
</g>
<g style="fill:#A00000; fill-opacity:1.0; 
  stroke:#0000C0; stroke-linecap:round; stroke-linejoin:round; stroke-opacity:1.0; stroke-opacity:1.0; stroke-width:0" 
   transform="translate(0 0) scale(1 1)">
<path d="M33498 23500 L33502 23500" /> 
<path d="M33500 23498 L33500 23502" /> 
</g>
<g style="fill:#C0C0C0; fill-opacity:0.0; 
  stroke:#C0C0C0; stroke-linecap:round; stroke-linejoin:round; stroke-opacity:1.0; stroke-opacity:1.0; stroke-width:50" 
   transform="translate(0 0) scale(1 1)">
<path d="M33458 23601 L33375 23482" /> 
<g style = "stroke-linecap:round;" > 
<path d="M33375 23482 L33375 23482" /> 
</g><path d="M33316 23601 L33316 23351" /> 
<path d="M33316 23351 L33411 23351" /> 
<path d="M33411 23351 L33435 23363" /> 
<path d="M33435 23363 L33446 23375" /> 
<path d="M33446 23375 L33458 23399" /> 
<path d="M33458 23399 L33458 23435" /> 
<path d="M33458 23435 L33446 23458" /> 
<path d="M33446 23458 L33435 23470" /> 
<path d="M33435 23470 L33411 23482" /> 
<path d="M33411 23482 L33316 23482" /> 
<g style = "stroke-linecap:round;" > 
<path d="M33316 23482 L33316 23482" /> 
</g><path d="M33696 23601 L33554 23601" /> 
<g style = "stroke-linecap:round;" > 
<path d="M33554 23601 L33554 23601" /> 
</g><path d="M33625 23601 L33625 23351" /> 
<path d="M33625 23351 L33601 23387" /> 
<path d="M33601 23387 L33577 23411" /> 
<path d="M33577 23411 L33554 23423" /> 
<g style = "stroke-linecap:round;" > 
<path d="M33554 23423 L33554 23423" /> 
</g></g>
<g style="fill:#C0C0C0; fill-opacity:0.0; 
  stroke:#0000C0; stroke-linecap:round; stroke-linejoin:round; stroke-opacity:1.0; stroke-opacity:1.0; stroke-width:0" 
   transform="translate(0 0) scale(1 1)">
<path d="M35498 23500 L35502 23500" /> 
<path d="M35500 23498 L35500 23502" /> 
</g>
<g style="fill:#C0C0C0; fill-opacity:0.0; 
  stroke:#C0C0C0; stroke-linecap:round; stroke-linejoin:round; stroke-opacity:1.0; stroke-opacity:1.0; stroke-width:50" 
   transform="translate(0 0) scale(1 1)">
<path d="M35333 23601 L35381 23601" /> 
<path d="M35381 23601 L35405 23589" /> 
<path d="M35405 23589 L35417 23577" /> 
<path d="M35417 23577 L35441 23542" /> 
<path d="M35441 23542 L35452 23494" /> 
<path d="M35452 23494 L35452 23399" /> 
<path d="M35452 23399 L35441 23375" /> 
<path d="M35441 23375 L35429 23363" /> 
<path d="M35429 23363 L35405 23351" /> 
<path d="M35405 23351 L35357 23351" /> 
<path d="M35357 23351 L35333 23363" /> 
<path d="M35333 23363 L35322 23375" /> 
<path d="M35322 23375 L35310 23399" /> 
<path d="M35310 23399 L35310 23458" /> 
<path d="M35310 23458 L35322 23482" /> 
<path d="M35322 23482 L35333 23494" /> 
<path d="M35333 23494 L35357 23506" /> 
<path d="M35357 23506 L35405 23506" /> 
<path d="M35405 23506 L35429 23494" /> 
<path d="M35429 23494 L35441 23482" /> 
<path d="M35441 23482 L35452 23458" /> 
<g style = "stroke-linecap:round;" > 
<path d="M35452 23458 L35452 23458" /> 
</g><path d="M35607 23351 L35631 23351" /> 
<path d="M35631 23351 L35655 23363" /> 
<path d="M35655 23363 L35667 23375" /> 
<path d="M35667 23375 L35679 23399" /> 
<path d="M35679 23399 L35690 23446" /> 
<path d="M35690 23446 L35690 23506" /> 
<path d="M35690 23506 L35679 23554" /> 
<path d="M35679 23554 L35667 23577" /> 
<path d="M35667 23577 L35655 23589" /> 
<path d="M35655 23589 L35631 23601" /> 
<path d="M35631 23601 L35607 23601" /> 
<path d="M35607 23601 L35583 23589" /> 
<path d="M35583 23589 L35571 23577" /> 
<path d="M35571 23577 L35560 23554" /> 
<path d="M35560 23554 L35548 23506" /> 
<path d="M35548 23506 L35548 23446" /> 
<path d="M35548 23446 L35560 23399" /> 
<path d="M35560 23399 L35571 23375" /> 
<path d="M35571 23375 L35583 23363" /> 
<path d="M35583 23363 L35607 23351" /> 
</g>
<g style="fill:#00A0A0; fill-opacity:0.0; 
  stroke:#00A0A0; stroke-linecap:round; stroke-linejoin:round; stroke-opacity:1.0; stroke-opacity:1.0; stroke-width:50" 
   transform="translate(0 0) scale(1 1)">
<ellipse cx="33850" cy="23800" rx="50" ry="50"  /> 
<path d="M34300 23800 L33900 23800" /> 
<path d="M33900 23800 L33900 23200" /> 
<path d="M33900 23200 L34300 23200" /> 
<path d="M34700 23200 L35100 23200" /> 
<path d="M35100 23200 L35100 23800" /> 
<path d="M35100 23800 L34700 23800" /> 
</g>
<g style="fill:#A00000; fill-opacity:1.0; 
  stroke:#A00000; stroke-linecap:round; stroke-linejoin:round; stroke-opacity:1.0; stroke-opacity:1.0; stroke-width:0" 
   transform="translate(0 0) scale(1 1)">
<polygon style="fill-rule:evenodd; " 
points="33950,25275
33950,24725
34300,24725
34300,25275
" /> 
<polygon style="fill-rule:evenodd; " 
points="34700,25275
34700,24725
35050,24725
35050,25275
" /> 
</g>
<g style="fill:#A00000; fill-opacity:1.0; 
  stroke:#0000C0; stroke-linecap:round; stroke-linejoin:round; stroke-opacity:1.0; stroke-opacity:1.0; stroke-width:0" 
   transform="translate(0 0) scale(1 1)">
<path d="M33498 25000 L33502 25000" /> 
<path d="M33500 24998 L33500 25002" /> 
</g>
<g style="fill:#C0C0C0; fill-opacity:0.0; 
  stroke:#C0C0C0; stroke-linecap:round; stroke-linejoin:round; stroke-opacity:1.0; stroke-opacity:1.0; stroke-width:50" 
   transform="translate(0 0) scale(1 1)">
<path d="M33458 25101 L33375 24982" /> 
<g style = "stroke-linecap:round;" > 
<path d="M33375 24982 L33375 24982" /> 
</g><path d="M33316 25101 L33316 24851" /> 
<path d="M33316 24851 L33411 24851" /> 
<path d="M33411 24851 L33435 24863" /> 
<path d="M33435 24863 L33446 24875" /> 
<path d="M33446 24875 L33458 24899" /> 
<path d="M33458 24899 L33458 24935" /> 
<path d="M33458 24935 L33446 24958" /> 
<path d="M33446 24958 L33435 24970" /> 
<path d="M33435 24970 L33411 24982" /> 
<path d="M33411 24982 L33316 24982" /> 
<g style = "stroke-linecap:round;" > 
<path d="M33316 24982 L33316 24982" /> 
</g><path d="M33554 24875 L33566 24863" /> 
<path d="M33566 24863 L33589 24851" /> 
<path d="M33589 24851 L33649 24851" /> 
<path d="M33649 24851 L33673 24863" /> 
<path d="M33673 24863 L33685 24875" /> 
<path d="M33685 24875 L33696 24899" /> 
<path d="M33696 24899 L33696 24923" /> 
<path d="M33696 24923 L33685 24958" /> 
<path d="M33685 24958 L33542 25101" /> 
<path d="M33542 25101 L33696 25101" /> 
<g style = "stroke-linecap:round;" > 
<path d="M33696 25101 L33696 25101" /> 
</g></g>
<g style="fill:#C0C0C0; fill-opacity:0.0; 
  stroke:#0000C0; stroke-linecap:round; stroke-linejoin:round; stroke-opacity:1.0; stroke-opacity:1.0; stroke-width:0" 
   transform="translate(0 0) scale(1 1)">
<path d="M35498 25000 L35502 25000" /> 
<path d="M35500 24998 L35500 25002" /> 
</g>
<g style="fill:#C0C0C0; fill-opacity:0.0; 
  stroke:#C0C0C0; stroke-linecap:round; stroke-linejoin:round; stroke-opacity:1.0; stroke-opacity:1.0; stroke-width:50" 
   transform="translate(0 0) scale(1 1)">
<path d="M35333 25101 L35381 25101" /> 
<path d="M35381 25101 L35405 25089" /> 
<path d="M35405 25089 L35417 25077" /> 
<path d="M35417 25077 L35441 25042" /> 
<path d="M35441 25042 L35452 24994" /> 
<path d="M35452 24994 L35452 24899" /> 
<path d="M35452 24899 L35441 24875" /> 
<path d="M35441 24875 L35429 24863" /> 
<path d="M35429 24863 L35405 24851" /> 
<path d="M35405 24851 L35357 24851" /> 
<path d="M35357 24851 L35333 24863" /> 
<path d="M35333 24863 L35322 24875" /> 
<path d="M35322 24875 L35310 24899" /> 
<path d="M35310 24899 L35310 24958" /> 
<path d="M35310 24958 L35322 24982" /> 
<path d="M35322 24982 L35333 24994" /> 
<path d="M35333 24994 L35357 25006" /> 
<path d="M35357 25006 L35405 25006" /> 
<path d="M35405 25006 L35429 24994" /> 
<path d="M35429 24994 L35441 24982" /> 
<path d="M35441 24982 L35452 24958" /> 
<g style = "stroke-linecap:round;" > 
<path d="M35452 24958 L35452 24958" /> 
</g><path d="M35607 24851 L35631 24851" /> 
<path d="M35631 24851 L35655 24863" /> 
<path d="M35655 24863 L35667 24875" /> 
<path d="M35667 24875 L35679 24899" /> 
<path d="M35679 24899 L35690 24946" /> 
<path d="M35690 24946 L35690 25006" /> 
<path d="M35690 25006 L35679 25054" /> 
<path d="M35679 25054 L35667 25077" /> 
<path d="M35667 25077 L35655 25089" /> 
<path d="M35655 25089 L35631 25101" /> 
<path d="M35631 25101 L35607 25101" /> 
<path d="M35607 25101 L35583 25089" /> 
<path d="M35583 25089 L35571 25077" /> 
<path d="M35571 25077 L35560 25054" /> 
<path d="M35560 25054 L35548 25006" /> 
<path d="M35548 25006 L35548 24946" /> 
<path d="M35548 24946 L35560 24899" /> 
<path d="M35560 24899 L35571 24875" /> 
<path d="M35571 24875 L35583 24863" /> 
<path d="M35583 24863 L35607 24851" /> 
</g>
<g style="fill:#00A0A0; fill-opacity:0.0; 
  stroke:#00A0A0; stroke-linecap:round; stroke-linejoin:round; stroke-opacity:1.0; stroke-opacity:1.0; stroke-width:50" 
   transform="translate(0 0) scale(1 1)">
<ellipse cx="33850" cy="25300" rx="50" ry="50"  /> 
<path d="M34300 25300 L33900 25300" /> 
<path d="M33900 25300 L33900 24700" /> 
<path d="M33900 24700 L34300 24700" /> 
<path d="M34700 24700 L35100 24700" /> 
<path d="M35100 24700 L35100 25300" /> 
<path d="M35100 25300 L34700 25300" /> 
</g>
<g style="fill:#A00000; fill-opacity:1.0; 
  stroke:#A00000; stroke-linecap:round; stroke-linejoin:round; stroke-opacity:1.0; stroke-opacity:1.0; stroke-width:0" 
   transform="translate(0 0) scale(1 1)">
<polygon style="fill-rule:evenodd; " 
points="33950,26775
33950,26225
34300,26225
34300,26775
" /> 
<polygon style="fill-rule:evenodd; " 
points="34700,26775
34700,26225
35050,26225
35050,26775
" /> 
</g>
<g style="fill:#A00000; fill-opacity:1.0; 
  stroke:#0000C0; stroke-linecap:round; stroke-linejoin:round; stroke-opacity:1.0; stroke-opacity:1.0; stroke-width:0" 
   transform="translate(0 0) scale(1 1)">
<path d="M33498 26500 L33502 26500" /> 
<path d="M33500 26498 L33500 26502" /> 
</g>
<g style="fill:#C0C0C0; fill-opacity:0.0; 
  stroke:#C0C0C0; stroke-linecap:round; stroke-linejoin:round; stroke-opacity:1.0; stroke-opacity:1.0; stroke-width:50" 
   transform="translate(0 0) scale(1 1)">
<path d="M33458 26601 L33375 26482" /> 
<g style = "stroke-linecap:round;" > 
<path d="M33375 26482 L33375 26482" /> 
</g><path d="M33316 26601 L33316 26351" /> 
<path d="M33316 26351 L33411 26351" /> 
<path d="M33411 26351 L33435 26363" /> 
<path d="M33435 26363 L33446 26375" /> 
<path d="M33446 26375 L33458 26399" /> 
<path d="M33458 26399 L33458 26435" /> 
<path d="M33458 26435 L33446 26458" /> 
<path d="M33446 26458 L33435 26470" /> 
<path d="M33435 26470 L33411 26482" /> 
<path d="M33411 26482 L33316 26482" /> 
<g style = "stroke-linecap:round;" > 
<path d="M33316 26482 L33316 26482" /> 
</g><path d="M33542 26351 L33696 26351" /> 
<path d="M33696 26351 L33613 26446" /> 
<path d="M33613 26446 L33649 26446" /> 
<path d="M33649 26446 L33673 26458" /> 
<path d="M33673 26458 L33685 26470" /> 
<path d="M33685 26470 L33696 26494" /> 
<path d="M33696 26494 L33696 26554" /> 
<path d="M33696 26554 L33685 26577" /> 
<path d="M33685 26577 L33673 26589" /> 
<path d="M33673 26589 L33649 26601" /> 
<path d="M33649 26601 L33577 26601" /> 
<path d="M33577 26601 L33554 26589" /> 
<path d="M33554 26589 L33542 26577" /> 
<g style = "stroke-linecap:round;" > 
<path d="M33542 26577 L33542 26577" /> 
</g></g>
<g style="fill:#C0C0C0; fill-opacity:0.0; 
  stroke:#0000C0; stroke-linecap:round; stroke-linejoin:round; stroke-opacity:1.0; stroke-opacity:1.0; stroke-width:0" 
   transform="translate(0 0) scale(1 1)">
<path d="M35498 26500 L35502 26500" /> 
<path d="M35500 26498 L35500 26502" /> 
</g>
<g style="fill:#C0C0C0; fill-opacity:0.0; 
  stroke:#C0C0C0; stroke-linecap:round; stroke-linejoin:round; stroke-opacity:1.0; stroke-opacity:1.0; stroke-width:50" 
   transform="translate(0 0) scale(1 1)">
<path d="M35333 26601 L35191 26601" /> 
<g style = "stroke-linecap:round;" > 
<path d="M35191 26601 L35191 26601" /> 
</g><path d="M35262 26601 L35262 26351" /> 
<path d="M35262 26351 L35238 26387" /> 
<path d="M35238 26387 L35214 26411" /> 
<path d="M35214 26411 L35191 26423" /> 
<g style = "stroke-linecap:round;" > 
<path d="M35191 26423 L35191 26423" /> 
</g><path d="M35560 26351 L35441 26351" /> 
<path d="M35441 26351 L35429 26470" /> 
<path d="M35429 26470 L35441 26458" /> 
<path d="M35441 26458 L35464 26446" /> 
<path d="M35464 26446 L35524 26446" /> 
<path d="M35524 26446 L35548 26458" /> 
<path d="M35548 26458 L35560 26470" /> 
<path d="M35560 26470 L35571 26494" /> 
<path d="M35571 26494 L35571 26554" /> 
<path d="M35571 26554 L35560 26577" /> 
<path d="M35560 26577 L35548 26589" /> 
<path d="M35548 26589 L35524 26601" /> 
<path d="M35524 26601 L35464 26601" /> 
<path d="M35464 26601 L35441 26589" /> 
<path d="M35441 26589 L35429 26577" /> 
<g style = "stroke-linecap:round;" > 
<path d="M35429 26577 L35429 26577" /> 
</g><path d="M35726 26351 L35750 26351" /> 
<path d="M35750 26351 L35774 26363" /> 
<path d="M35774 26363 L35786 26375" /> 
<path d="M35786 26375 L35798 26399" /> 
<path d="M35798 26399 L35809 26446" /> 
<path d="M35809 26446 L35809 26506" /> 
<path d="M35809 26506 L35798 26554" /> 
<path d="M35798 26554 L35786 26577" /> 
<path d="M35786 26577 L35774 26589" /> 
<path d="M35774 26589 L35750 26601" /> 
<path d="M35750 26601 L35726 26601" /> 
<path d="M35726 26601 L35702 26589" /> 
<path d="M35702 26589 L35690 26577" /> 
<path d="M35690 26577 L35679 26554" /> 
<path d="M35679 26554 L35667 26506" /> 
<path d="M35667 26506 L35667 26446" /> 
<path d="M35667 26446 L35679 26399" /> 
<path d="M35679 26399 L35690 26375" /> 
<path d="M35690 26375 L35702 26363" /> 
<path d="M35702 26363 L35726 26351" /> 
</g>
<g style="fill:#00A0A0; fill-opacity:0.0; 
  stroke:#00A0A0; stroke-linecap:round; stroke-linejoin:round; stroke-opacity:1.0; stroke-opacity:1.0; stroke-width:50" 
   transform="translate(0 0) scale(1 1)">
<ellipse cx="33850" cy="26800" rx="50" ry="50"  /> 
<path d="M34300 26800 L33900 26800" /> 
<path d="M33900 26800 L33900 26200" /> 
<path d="M33900 26200 L34300 26200" /> 
<path d="M34700 26200 L35100 26200" /> 
<path d="M35100 26200 L35100 26800" /> 
<path d="M35100 26800 L34700 26800" /> 
</g>
<g style="fill:#A00000; fill-opacity:1.0; 
  stroke:#A00000; stroke-linecap:round; stroke-linejoin:round; stroke-opacity:1.0; stroke-opacity:1.0; stroke-width:0" 
   transform="translate(0 0) scale(1 1)">
<polygon style="fill-rule:evenodd; " 
points="39837,25295
39837,25571
39325,25571
39325,25295
" /> 
<polygon style="fill-rule:evenodd; " 
points="39837,24862
39837,25138
39325,25138
39325,24862
" /> 
<polygon style="fill-rule:evenodd; " 
points="39837,24429
39837,24705
39325,24705
39325,24429
" /> 
<polygon style="fill-rule:evenodd; " 
points="38675,25295
38675,25571
38163,25571
38163,25295
" /> 
<polygon style="fill-rule:evenodd; " 
points="38675,24862
38675,25138
38163,25138
38163,24862
" /> 
<polygon style="fill-rule:evenodd; " 
points="38675,24429
38675,24705
38163,24705
38163,24429
" /> 
</g>
<g style="fill:#A00000; fill-opacity:1.0; 
  stroke:#0000C0; stroke-linecap:round; stroke-linejoin:round; stroke-opacity:1.0; stroke-opacity:1.0; stroke-width:0" 
   transform="translate(0 0) scale(1 1)">
<path d="M38974 23327 L38978 23327" /> 
<path d="M38976 23325 L38976 23329" /> 
</g>
<g style="fill:#C0C0C0; fill-opacity:0.0; 
  stroke:#C0C0C0; stroke-linecap:round; stroke-linejoin:round; stroke-opacity:1.0; stroke-opacity:1.0; stroke-width:120" 
   transform="translate(0 0) scale(1 1)">
<path d="M38519 22970 L38519 23456" /> 
<path d="M38519 23456 L38547 23513" /> 
<path d="M38547 23513 L38576 23541" /> 
<path d="M38576 23541 L38633 23570" /> 
<path d="M38633 23570 L38747 23570" /> 
<path d="M38747 23570 L38805 23541" /> 
<path d="M38805 23541 L38833 23513" /> 
<path d="M38833 23513 L38862 23456" /> 
<path d="M38862 23456 L38862 22970" /> 
<g style = "stroke-linecap:round;" > 
<path d="M38862 22970 L38862 22970" /> 
</g><path d="M39462 23570 L39119 23570" /> 
<g style = "stroke-linecap:round;" > 
<path d="M39119 23570 L39119 23570" /> 
</g><path d="M39291 23570 L39291 22970" /> 
<path d="M39291 22970 L39234 23056" /> 
<path d="M39234 23056 L39176 23113" /> 
<path d="M39176 23113 L39119 23141" /> 
<g style = "stroke-linecap:round;" > 
<path d="M39119 23141 L39119 23141" /> 
</g></g>
<g style="fill:#C0C0C0; fill-opacity:0.0; 
  stroke:#00A0A0; stroke-linecap:round; stroke-linejoin:round; stroke-opacity:1.0; stroke-opacity:1.0; stroke-width:150" 
   transform="translate(0 0) scale(1 1)">
<path d="M39591 25984 L38409 25984" /> 
<path d="M38409 25984 L38409 24213" /> 
<path d="M38409 24213 L38606 24016" /> 
<path d="M38606 24016 L39591 24016" /> 
<path d="M39591 24016 L39591 25984" /> 
</g>
<g style="fill:#808000; fill-opacity:1.0; 
  stroke:#808000; stroke-linecap:round; stroke-linejoin:round; stroke-opacity:1.0; stroke-opacity:1.0; stroke-width:0" 
   transform="translate(0 0) scale(1 1)">
<ellipse cx="31000" cy="21000" rx="650" ry="650"  /> 
</g>
<g style="fill:#FFFFFF; fill-opacity:1.0; 
  stroke:#808000; stroke-linecap:round; stroke-linejoin:round; stroke-opacity:1.0; stroke-opacity:1.0; stroke-width:0" 
   transform="translate(0 0) scale(1 1)">
<ellipse cx="31000" cy="21000" rx="600" ry="600"  /> 
</g>
<g style="fill:#808000; fill-opacity:1.0; 
  stroke:#808000; stroke-linecap:round; stroke-linejoin:round; stroke-opacity:1.0; stroke-opacity:1.0; stroke-width:0" 
   transform="translate(0 0) scale(1 1)">
<ellipse cx="31000" cy="29000" rx="650" ry="650"  /> 
</g>
<g style="fill:#FFFFFF; fill-opacity:1.0; 
  stroke:#808000; stroke-linecap:round; stroke-linejoin:round; stroke-opacity:1.0; stroke-opacity:1.0; stroke-width:0" 
   transform="translate(0 0) scale(1 1)">
<ellipse cx="31000" cy="29000" rx="600" ry="600"  /> 
</g>
<g style="fill:#808000; fill-opacity:1.0; 
  stroke:#808000; stroke-linecap:round; stroke-linejoin:round; stroke-opacity:1.0; stroke-opacity:1.0; stroke-width:0" 
   transform="translate(0 0) scale(1 1)">
<ellipse cx="47000" cy="29000" rx="650" ry="650"  /> 
</g>
<g style="fill:#FFFFFF; fill-opacity:1.0; 
  stroke:#808000; stroke-linecap:round; stroke-linejoin:round; stroke-opacity:1.0; stroke-opacity:1.0; stroke-width:0" 
   transform="translate(0 0) scale(1 1)">
<ellipse cx="47000" cy="29000" rx="600" ry="600"  /> 
</g>
<g style="fill:#808000; fill-opacity:1.0; 
  stroke:#808000; stroke-linecap:round; stroke-linejoin:round; stroke-opacity:1.0; stroke-opacity:1.0; stroke-width:0" 
   transform="translate(0 0) scale(1 1)">
<ellipse cx="47000" cy="21000" rx="650" ry="650"  /> 
</g>
<g style="fill:#FFFFFF; fill-opacity:1.0; 
  stroke:#808000; stroke-linecap:round; stroke-linejoin:round; stroke-opacity:1.0; stroke-opacity:1.0; stroke-width:0" 
   transform="translate(0 0) scale(1 1)">
<ellipse cx="47000" cy="21000" rx="600" ry="600"  /> 
</g>
<g style="fill:#A00000; fill-opacity:1.0; 
  stroke:#A00000; stroke-linecap:round; stroke-linejoin:round; stroke-opacity:1.0; stroke-opacity:1.0; stroke-width:0" 
   transform="translate(0 0) scale(1 1)">
<polygon style="fill-rule:evenodd; " 
points="44706,23760
43998,23760
43998,23288
44706,23288
" /> 
<polygon style="fill-rule:evenodd; " 
points="44706,24744
43998,24744
43998,24272
44706,24272
" /> 
<polygon style="fill-rule:evenodd; " 
points="44706,26712
43998,26712
43998,26240
44706,26240
" /> 
<polygon style="fill-rule:evenodd; " 
points="47502,26771
46794,26771
46794,26181
47502,26181
" /> 
<polygon style="fill-rule:evenodd; " 
points="47502,25787
46794,25787
46794,25197
47502,25197
" /> 
<polygon style="fill-rule:evenodd; " 
points="44706,25728
43998,25728
43998,25256
44706,25256
" /> 
<polygon style="fill-rule:evenodd; " 
points="47502,24803
46794,24803
46794,24213
47502,24213
" /> 
<polygon style="fill-rule:evenodd; " 
points="47502,23819
46794,23819
46794,23229
47502,23229
" /> 
</g>
<g style="fill:#A00000; fill-opacity:1.0; 
  stroke:#0000C0; stroke-linecap:round; stroke-linejoin:round; stroke-opacity:1.0; stroke-opacity:1.0; stroke-width:0" 
   transform="translate(0 0) scale(1 1)">
<path d="M45698 22400 L45702 22400" /> 
<path d="M45700 22398 L45700 22402" /> 
</g>
<g style="fill:#C0C0C0; fill-opacity:0.0; 
  stroke:#C0C0C0; stroke-linecap:round; stroke-linejoin:round; stroke-opacity:1.0; stroke-opacity:1.0; stroke-width:120" 
   transform="translate(0 0) scale(1 1)">
<path d="M45258 22643 L45258 22043" /> 
<path d="M45258 22043 L45486 22043" /> 
<path d="M45486 22043 L45544 22071" /> 
<path d="M45544 22071 L45572 22100" /> 
<path d="M45572 22100 L45601 22157" /> 
<path d="M45601 22157 L45601 22243" /> 
<path d="M45601 22243 L45572 22300" /> 
<path d="M45572 22300 L45544 22329" /> 
<path d="M45544 22329 L45486 22357" /> 
<path d="M45486 22357 L45258 22357" /> 
<g style = "stroke-linecap:round;" > 
<path d="M45258 22357 L45258 22357" /> 
</g><path d="M46172 22643 L45829 22643" /> 
<g style = "stroke-linecap:round;" > 
<path d="M45829 22643 L45829 22643" /> 
</g><path d="M46001 22643 L46001 22043" /> 
<path d="M46001 22043 L45944 22129" /> 
<path d="M45944 22129 L45886 22186" /> 
<path d="M45886 22186 L45829 22214" /> 
<g style = "stroke-linecap:round;" > 
<path d="M45829 22214 L45829 22214" /> 
</g></g>
<g style="fill:#C0C0C0; fill-opacity:0.0; 
  stroke:#00A0A0; stroke-linecap:round; stroke-linejoin:round; stroke-opacity:1.0; stroke-opacity:1.0; stroke-width:150" 
   transform="translate(0 0) scale(1 1)">
<path d="M43781 26969 L43781 23031" /> 
<path d="M43781 23031 L47719 23031" /> 
<path d="M47719 23031 L47719 26969" /> 
<path d="M47719 26969 L43781 26969" /> 
</g> 
</svg> 
