<?xml version="1.0" encoding="UTF-8" standalone="no"?>
<!-- Created with Inkscape (http://www.inkscape.org/) -->

<svg
   xmlns:dc="http://purl.org/dc/elements/1.1/"
   xmlns:cc="http://creativecommons.org/ns#"
   xmlns:rdf="http://www.w3.org/1999/02/22-rdf-syntax-ns#"
   xmlns:svg="http://www.w3.org/2000/svg"
   xmlns="http://www.w3.org/2000/svg"
   xmlns:sodipodi="http://sodipodi.sourceforge.net/DTD/sodipodi-0.dtd"
   xmlns:inkscape="http://www.inkscape.org/namespaces/inkscape"
   width="744.09448819"
   height="1052.3622047"
   id="svg17926"
   version="1.1"
   inkscape:version="0.47 r22583"
   sodipodi:docname="colorimeter_v2.0_clear.svg">
  <defs
     id="defs17928">
    <inkscape:perspective
       sodipodi:type="inkscape:persp3d"
       inkscape:vp_x="0 : 526.18109 : 1"
       inkscape:vp_y="0 : 1000 : 0"
       inkscape:vp_z="744.09448 : 526.18109 : 1"
       inkscape:persp3d-origin="372.04724 : 350.78739 : 1"
       id="perspective17934" />
    <inkscape:perspective
       id="perspective17567"
       inkscape:persp3d-origin="0.5 : 0.33333333 : 1"
       inkscape:vp_z="1 : 0.5 : 1"
       inkscape:vp_y="0 : 1000 : 0"
       inkscape:vp_x="0 : 0.5 : 1"
       sodipodi:type="inkscape:persp3d" />
    <inkscape:perspective
       id="perspective16087"
       inkscape:persp3d-origin="0.5 : 0.33333333 : 1"
       inkscape:vp_z="1 : 0.5 : 1"
       inkscape:vp_y="0 : 1000 : 0"
       inkscape:vp_x="0 : 0.5 : 1"
       sodipodi:type="inkscape:persp3d" />
  </defs>
  <sodipodi:namedview
     id="base"
     pagecolor="#ffffff"
     bordercolor="#666666"
     borderopacity="1.0"
     inkscape:pageopacity="0.0"
     inkscape:pageshadow="2"
     inkscape:zoom="1.4"
     inkscape:cx="285.35714"
     inkscape:cy="605.71429"
     inkscape:document-units="px"
     inkscape:current-layer="g17232"
     showgrid="false"
     inkscape:window-width="1920"
     inkscape:window-height="1005"
     inkscape:window-x="0"
     inkscape:window-y="24"
     inkscape:window-maximized="1" />
  <metadata
     id="metadata17931">
    <rdf:RDF>
      <cc:Work
         rdf:about="">
        <dc:format>image/svg+xml</dc:format>
        <dc:type
           rdf:resource="http://purl.org/dc/dcmitype/StillImage" />
        <dc:title />
      </cc:Work>
    </rdf:RDF>
  </metadata>
  <g
     inkscape:label="Layer 1"
     inkscape:groupmode="layer"
     id="layer1">
    <g
       id="g9251"
       transform="translate(558.77924,-814.31495)">
      <path
         id="path5275"
         d="m -45,1097.3622 0,-90"
         style="fill:none;stroke:#000000" />
      <path
         id="path5277"
         d="m -45,1007.3622 90,0"
         style="fill:none;stroke:#000000" />
      <path
         id="path5279"
         d="m 45,1007.3622 0,90"
         style="fill:none;stroke:#000000" />
      <path
         id="path5281"
         d="m 45,1097.3622 -90,0"
         style="fill:none;stroke:#000000" />
    </g>
    <g
       transform="translate(829.49356,62.113635)"
       id="g17232">
      <text
         id="text17197"
         y="238.64543"
         x="-559.89899"
         style="font-size:12px;font-style:normal;font-weight:normal;fill:#000000;fill-opacity:1;stroke:none;font-family:Bitstream Vera Sans"
         xml:space="preserve"><tspan
           style="font-size:24px;fill:#d40000"
           y="238.64543"
           x="-559.89899"
           id="tspan17199"
           sodipodi:role="line">IO Rodeo</tspan></text>
      <text
         id="text17201"
         y="490.93112"
         x="-576.53375"
         style="font-size:12px;font-style:normal;font-weight:normal;fill:#000000;fill-opacity:1;stroke:none;font-family:Bitstream Vera Sans"
         xml:space="preserve"><tspan
           style="font-size:24px;fill:#d40000"
           y="490.93112"
           x="-576.53375"
           id="tspan17203"
           sodipodi:role="line">Colorimeter</tspan></text>
    </g>
    <text
       xml:space="preserve"
       style="font-size:12px;font-style:normal;font-weight:normal;fill:#000000;fill-opacity:1;stroke:none;font-family:Bitstream Vera Sans"
       x="517.28998"
       y="233.0033"
       id="text17197-6"><tspan
         sodipodi:role="line"
         id="tspan17199-8"
         x="517.28998"
         y="233.0033"
         style="font-size:20px;fill:#d40000">1 inch </tspan><tspan
         sodipodi:role="line"
         x="517.28998"
         y="258.0033"
         style="font-size:20px;fill:#d40000"
         id="tspan17230">ref cube</tspan></text>
    <g
       transform="translate(324.40317,-638.57142)"
       id="g8351">
      <path
         id="path6215-5"
         d="m -142.47992,1189.8921 0,-275.05982"
         style="fill:none;stroke:#000000" />
      <path
         id="path6217-9"
         d="m -142.47992,914.83228 0.17716,-2.82047"
         style="fill:none;stroke:#000000" />
      <path
         id="path6219-6"
         d="m -142.30276,912.01181 0.52796,-2.77441"
         style="fill:none;stroke:#000000" />
      <path
         id="path6221-2"
         d="m -141.7748,909.2374 0.87519,-2.68937"
         style="fill:none;stroke:#000000" />
      <path
         id="path6223-1"
         d="m -140.89961,906.54803 1.20119,-2.55472"
         style="fill:none;stroke:#000000" />
      <path
         id="path6225-7"
         d="m -139.69842,903.99331 1.51653,-2.38465"
         style="fill:none;stroke:#000000" />
      <path
         id="path6227-8"
         d="m -138.18189,901.60866 1.8,-2.17913"
         style="fill:none;stroke:#000000" />
      <path
         id="path6229-5"
         d="m -136.38189,899.42953 2.05866,-1.93465"
         style="fill:none;stroke:#000000" />
      <path
         id="path6231-7"
         d="m -134.32323,897.49488 2.28544,-1.65827"
         style="fill:none;stroke:#000000" />
      <path
         id="path6233-4"
         d="m -132.03779,895.83661 2.47677,-1.36417"
         style="fill:none;stroke:#000000" />
      <path
         id="path6235-1"
         d="m -129.56102,894.47244 2.62913,-1.03819"
         style="fill:none;stroke:#000000" />
      <path
         id="path6237-8"
         d="m -126.93189,893.43425 2.73543,-0.70512"
         style="fill:none;stroke:#000000" />
      <path
         id="path6239-5"
         d="m -124.19646,892.72913 2.80276,-0.35078"
         style="fill:none;stroke:#000000" />
      <path
         id="path6241-9"
         d="m -121.3937,892.37835 1.41378,0"
         style="fill:none;stroke:#000000" />
      <path
         id="path6243-7"
         d="m -119.97992,892.37835 0,-0.0461"
         style="fill:none;stroke:#000000" />
      <path
         id="path6245-5"
         d="m -119.97992,892.33228 239.95984,0"
         style="fill:none;stroke:#000000" />
      <path
         id="path6247-3"
         d="m 119.97992,892.33228 0,0.0461"
         style="fill:none;stroke:#000000" />
      <path
         id="path6249-8"
         d="m 119.97992,892.37835 1.41378,0"
         style="fill:none;stroke:#000000" />
      <path
         id="path6251-8"
         d="m 121.3937,892.37835 2.80276,0.35078"
         style="fill:none;stroke:#000000" />
      <path
         id="path6253-3"
         d="m 124.19646,892.72913 2.73543,0.70512"
         style="fill:none;stroke:#000000" />
      <path
         id="path6255-1"
         d="m 126.93189,893.43425 2.62913,1.03819"
         style="fill:none;stroke:#000000" />
      <path
         id="path6257-8"
         d="m 129.56102,894.47244 2.47677,1.36417"
         style="fill:none;stroke:#000000" />
      <path
         id="path6259-9"
         d="m 132.03779,895.83661 2.28544,1.65827"
         style="fill:none;stroke:#000000" />
      <path
         id="path6261-6"
         d="m 134.32323,897.49488 2.05866,1.93465"
         style="fill:none;stroke:#000000" />
      <path
         id="path6263-4"
         d="m 136.38189,899.42953 1.8,2.17913"
         style="fill:none;stroke:#000000" />
      <path
         id="path6265-3"
         d="m 138.18189,901.60866 1.51653,2.38465"
         style="fill:none;stroke:#000000" />
      <path
         id="path6267-3"
         d="m 139.69842,903.99331 1.20119,2.55472"
         style="fill:none;stroke:#000000" />
      <path
         id="path6269-3"
         d="m 140.89961,906.54803 0.87519,2.68937"
         style="fill:none;stroke:#000000" />
      <path
         id="path6271-8"
         d="m 141.7748,909.2374 0.52796,2.77441"
         style="fill:none;stroke:#000000" />
      <path
         id="path6273-6"
         d="m 142.30276,912.01181 0.17716,2.82047"
         style="fill:none;stroke:#000000" />
      <path
         id="path6275-0"
         d="m 142.47992,914.83228 0,275.05982"
         style="fill:none;stroke:#000000" />
      <path
         id="path6277-4"
         d="m 142.47992,1189.8921 -0.17716,2.8205"
         style="fill:none;stroke:#000000" />
      <path
         id="path6279-8"
         d="m 142.30276,1192.7126 -0.52796,2.7744"
         style="fill:none;stroke:#000000" />
      <path
         id="path6281-8"
         d="m 141.7748,1195.487 -0.87519,2.6894"
         style="fill:none;stroke:#000000" />
      <path
         id="path6283-8"
         d="m 140.89961,1198.1764 -1.20119,2.5547"
         style="fill:none;stroke:#000000" />
      <path
         id="path6285-9"
         d="m 139.69842,1200.7311 -1.51653,2.3846"
         style="fill:none;stroke:#000000" />
      <path
         id="path6287-7"
         d="m 138.18189,1203.1157 -1.8,2.1792"
         style="fill:none;stroke:#000000" />
      <path
         id="path6289-7"
         d="m 136.38189,1205.2949 -2.05866,1.9346"
         style="fill:none;stroke:#000000" />
      <path
         id="path6291-6"
         d="m 134.32323,1207.2295 -2.28544,1.6583"
         style="fill:none;stroke:#000000" />
      <path
         id="path6293-4"
         d="m 132.03779,1208.8878 -2.47677,1.3642"
         style="fill:none;stroke:#000000" />
      <path
         id="path6295-3"
         d="m 129.56102,1210.252 -2.62913,1.0382"
         style="fill:none;stroke:#000000" />
      <path
         id="path6297-0"
         d="m 126.93189,1211.2902 -2.73543,0.7051"
         style="fill:none;stroke:#000000" />
      <path
         id="path6299-3"
         d="m 124.19646,1211.9953 -2.80276,0.3508"
         style="fill:none;stroke:#000000" />
      <path
         id="path6301-0"
         d="m 121.3937,1212.3461 -1.41378,0"
         style="fill:none;stroke:#000000" />
      <path
         id="path6303-9"
         d="m 119.97992,1212.3461 0,0.046"
         style="fill:none;stroke:#000000" />
      <path
         id="path6305-2"
         d="m 119.97992,1212.3921 -239.95984,0"
         style="fill:none;stroke:#000000" />
      <path
         id="path6307-5"
         d="m -119.97992,1212.3921 0,-0.046"
         style="fill:none;stroke:#000000" />
      <path
         id="path6309-4"
         d="m -119.97992,1212.3461 -1.41378,0"
         style="fill:none;stroke:#000000" />
      <path
         id="path6311-0"
         d="m -121.3937,1212.3461 -2.80276,-0.3508"
         style="fill:none;stroke:#000000" />
      <path
         id="path6313-5"
         d="m -124.19646,1211.9953 -2.73543,-0.7051"
         style="fill:none;stroke:#000000" />
      <path
         id="path6315-9"
         d="m -126.93189,1211.2902 -2.62913,-1.0382"
         style="fill:none;stroke:#000000" />
      <path
         id="path6317-4"
         d="m -129.56102,1210.252 -2.47677,-1.3642"
         style="fill:none;stroke:#000000" />
      <path
         id="path6319-6"
         d="m -132.03779,1208.8878 -2.28544,-1.6583"
         style="fill:none;stroke:#000000" />
      <path
         id="path6321-9"
         d="m -134.32323,1207.2295 -2.05866,-1.9346"
         style="fill:none;stroke:#000000" />
      <path
         id="path6323-2"
         d="m -136.38189,1205.2949 -1.8,-2.1792"
         style="fill:none;stroke:#000000" />
      <path
         id="path6325-2"
         d="m -138.18189,1203.1157 -1.51653,-2.3846"
         style="fill:none;stroke:#000000" />
      <path
         id="path6327-4"
         d="m -139.69842,1200.7311 -1.20119,-2.5547"
         style="fill:none;stroke:#000000" />
      <path
         id="path6329-7"
         d="m -140.89961,1198.1764 -0.87519,-2.6894"
         style="fill:none;stroke:#000000" />
      <path
         id="path6331-7"
         d="m -141.7748,1195.487 -0.52796,-2.7744"
         style="fill:none;stroke:#000000" />
      <path
         id="path6333-5"
         d="m -142.30276,1192.7126 -0.17716,-2.8205"
         style="fill:none;stroke:#000000" />
      <path
         id="path6335-4"
         d="m -106.91929,1171.6122 0.039,-0.6555"
         style="fill:none;stroke:#000000" />
      <path
         id="path6337-8"
         d="m -106.88031,1170.9567 0.12401,-0.6413"
         style="fill:none;stroke:#000000" />
      <path
         id="path6339-1"
         d="m -106.7563,1170.3154 0.20197,-0.6237"
         style="fill:none;stroke:#000000" />
      <path
         id="path6341-2"
         d="m -106.55433,1169.6917 0.27992,-0.5952"
         style="fill:none;stroke:#000000" />
      <path
         id="path6343-8"
         d="m -106.27441,1169.0965 0.35079,-0.5528"
         style="fill:none;stroke:#000000" />
      <path
         id="path6345-9"
         d="m -105.92362,1168.5437 0.41811,-0.5031"
         style="fill:none;stroke:#000000" />
      <path
         id="path6347-3"
         d="m -105.50551,1168.0406 0.47835,-0.45"
         style="fill:none;stroke:#000000" />
      <path
         id="path6349-6"
         d="m -105.02716,1167.5906 0.53149,-0.3863"
         style="fill:none;stroke:#000000" />
      <path
         id="path6351-8"
         d="m -104.49567,1167.2043 0.57402,-0.3153"
         style="fill:none;stroke:#000000" />
      <path
         id="path6353-0"
         d="m -103.92165,1166.889 0.60944,-0.241"
         style="fill:none;stroke:#000000" />
      <path
         id="path6355-2"
         d="m -103.31221,1166.648 0.63426,-0.163"
         style="fill:none;stroke:#000000" />
      <path
         id="path6357-1"
         d="m -102.67795,1166.485 0.64842,-0.082"
         style="fill:none;stroke:#000000" />
      <path
         id="path6359-0"
         d="m -102.02953,1166.4035 0.65906,0"
         style="fill:none;stroke:#000000" />
      <path
         id="path6361-5"
         d="m -101.37047,1166.4035 0.64842,0.082"
         style="fill:none;stroke:#000000" />
      <path
         id="path6363-1"
         d="m -100.72205,1166.485 0.63425,0.163"
         style="fill:none;stroke:#000000" />
      <path
         id="path6365-1"
         d="m -100.0878,1166.648 0.609454,0.241"
         style="fill:none;stroke:#000000" />
      <path
         id="path6367-0"
         d="m -99.478346,1166.889 0.574015,0.3153"
         style="fill:none;stroke:#000000" />
      <path
         id="path6369-8"
         d="m -98.904331,1167.2043 0.531496,0.3863"
         style="fill:none;stroke:#000000" />
      <path
         id="path6371-5"
         d="m -98.372835,1167.5906 0.478347,0.45"
         style="fill:none;stroke:#000000" />
      <path
         id="path6373-0"
         d="m -97.894488,1168.0406 0.41811,0.5031"
         style="fill:none;stroke:#000000" />
      <path
         id="path6375-6"
         d="m -97.476378,1168.5437 0.350787,0.5528"
         style="fill:none;stroke:#000000" />
      <path
         id="path6377-4"
         d="m -97.125591,1169.0965 0.279922,0.5952"
         style="fill:none;stroke:#000000" />
      <path
         id="path6379-6"
         d="m -96.845669,1169.6917 0.201968,0.6237"
         style="fill:none;stroke:#000000" />
      <path
         id="path6381-2"
         d="m -96.643701,1170.3154 0.124016,0.6413"
         style="fill:none;stroke:#000000" />
      <path
         id="path6383-5"
         d="m -96.519685,1170.9567 0.03898,0.6555"
         style="fill:none;stroke:#000000" />
      <path
         id="path6385-8"
         d="m -96.480709,1171.6122 -0.03898,0.6555"
         style="fill:none;stroke:#000000" />
      <path
         id="path6387-6"
         d="m -96.519685,1172.2677 -0.124016,0.6414"
         style="fill:none;stroke:#000000" />
      <path
         id="path6389-2"
         d="m -96.643701,1172.9091 -0.201968,0.6236"
         style="fill:none;stroke:#000000" />
      <path
         id="path6391-8"
         d="m -96.845669,1173.5327 -0.279922,0.5953"
         style="fill:none;stroke:#000000" />
      <path
         id="path6393-4"
         d="m -97.125591,1174.128 -0.350787,0.5527"
         style="fill:none;stroke:#000000" />
      <path
         id="path6395-7"
         d="m -97.476378,1174.6807 -0.41811,0.5032"
         style="fill:none;stroke:#000000" />
      <path
         id="path6397-2"
         d="m -97.894488,1175.1839 -0.478347,0.45"
         style="fill:none;stroke:#000000" />
      <path
         id="path6399-4"
         d="m -98.372835,1175.6339 -0.531496,0.3862"
         style="fill:none;stroke:#000000" />
      <path
         id="path6401-0"
         d="m -98.904331,1176.0201 -0.574015,0.3153"
         style="fill:none;stroke:#000000" />
      <path
         id="path6403-6"
         d="m -99.478346,1176.3354 -0.609454,0.241"
         style="fill:none;stroke:#000000" />
      <path
         id="path6405-2"
         d="m -100.0878,1176.5764 -0.63425,0.163"
         style="fill:none;stroke:#000000" />
      <path
         id="path6407-9"
         d="m -100.72205,1176.7394 -0.64842,0.082"
         style="fill:none;stroke:#000000" />
      <path
         id="path6409-9"
         d="m -101.37047,1176.8209 -0.65906,0"
         style="fill:none;stroke:#000000" />
      <path
         id="path6411-0"
         d="m -102.02953,1176.8209 -0.64842,-0.082"
         style="fill:none;stroke:#000000" />
      <path
         id="path6413-8"
         d="m -102.67795,1176.7394 -0.63426,-0.163"
         style="fill:none;stroke:#000000" />
      <path
         id="path6415-1"
         d="m -103.31221,1176.5764 -0.60944,-0.241"
         style="fill:none;stroke:#000000" />
      <path
         id="path6417-3"
         d="m -103.92165,1176.3354 -0.57402,-0.3153"
         style="fill:none;stroke:#000000" />
      <path
         id="path6419-1"
         d="m -104.49567,1176.0201 -0.53149,-0.3862"
         style="fill:none;stroke:#000000" />
      <path
         id="path6421-1"
         d="m -105.02716,1175.6339 -0.47835,-0.45"
         style="fill:none;stroke:#000000" />
      <path
         id="path6423-0"
         d="m -105.50551,1175.1839 -0.41811,-0.5032"
         style="fill:none;stroke:#000000" />
      <path
         id="path6425-3"
         d="m -105.92362,1174.6807 -0.35079,-0.5527"
         style="fill:none;stroke:#000000" />
      <path
         id="path6427-4"
         d="m -106.27441,1174.128 -0.27992,-0.5953"
         style="fill:none;stroke:#000000" />
      <path
         id="path6429-0"
         d="m -106.55433,1173.5327 -0.20197,-0.6236"
         style="fill:none;stroke:#000000" />
      <path
         id="path6431-3"
         d="m -106.7563,1172.9091 -0.12401,-0.6414"
         style="fill:none;stroke:#000000" />
      <path
         id="path6433-9"
         d="m -106.88031,1172.2677 -0.039,-0.6555"
         style="fill:none;stroke:#000000" />
      <path
         id="path6435-1"
         d="m -106.91929,933.11221 0.039,-0.65552"
         style="fill:none;stroke:#000000" />
      <path
         id="path6437-9"
         d="m -106.88031,932.45669 0.12401,-0.64134"
         style="fill:none;stroke:#000000" />
      <path
         id="path6439-6"
         d="m -106.7563,931.81535 0.20197,-0.62362"
         style="fill:none;stroke:#000000" />
      <path
         id="path6441-9"
         d="m -106.55433,931.19173 0.27992,-0.59527"
         style="fill:none;stroke:#000000" />
      <path
         id="path6443-3"
         d="m -106.27441,930.59646 0.35079,-0.55276"
         style="fill:none;stroke:#000000" />
      <path
         id="path6445-3"
         d="m -105.92362,930.0437 0.41811,-0.50315"
         style="fill:none;stroke:#000000" />
      <path
         id="path6447-8"
         d="m -105.50551,929.54055 0.47835,-0.45"
         style="fill:none;stroke:#000000" />
      <path
         id="path6449-0"
         d="m -105.02716,929.09055 0.53149,-0.38622"
         style="fill:none;stroke:#000000" />
      <path
         id="path6451-5"
         d="m -104.49567,928.70433 0.57402,-0.31535"
         style="fill:none;stroke:#000000" />
      <path
         id="path6453-6"
         d="m -103.92165,928.38898 0.60944,-0.24095"
         style="fill:none;stroke:#000000" />
      <path
         id="path6455-6"
         d="m -103.31221,928.14803 0.63426,-0.16299"
         style="fill:none;stroke:#000000" />
      <path
         id="path6457-4"
         d="m -102.67795,927.98504 0.64842,-0.0815"
         style="fill:none;stroke:#000000" />
      <path
         id="path6459-0"
         d="m -102.02953,927.90354 0.65906,0"
         style="fill:none;stroke:#000000" />
      <path
         id="path6461-0"
         d="m -101.37047,927.90354 0.64842,0.0815"
         style="fill:none;stroke:#000000" />
      <path
         id="path6463-4"
         d="m -100.72205,927.98504 0.63425,0.16299"
         style="fill:none;stroke:#000000" />
      <path
         id="path6465-6"
         d="m -100.0878,928.14803 0.609454,0.24095"
         style="fill:none;stroke:#000000" />
      <path
         id="path6467-2"
         d="m -99.478346,928.38898 0.574015,0.31535"
         style="fill:none;stroke:#000000" />
      <path
         id="path6469-6"
         d="m -98.904331,928.70433 0.531496,0.38622"
         style="fill:none;stroke:#000000" />
      <path
         id="path6471-7"
         d="m -98.372835,929.09055 0.478347,0.45"
         style="fill:none;stroke:#000000" />
      <path
         id="path6473-5"
         d="m -97.894488,929.54055 0.41811,0.50315"
         style="fill:none;stroke:#000000" />
      <path
         id="path6475-6"
         d="m -97.476378,930.0437 0.350787,0.55276"
         style="fill:none;stroke:#000000" />
      <path
         id="path6477-9"
         d="m -97.125591,930.59646 0.279922,0.59527"
         style="fill:none;stroke:#000000" />
      <path
         id="path6479-8"
         d="m -96.845669,931.19173 0.201968,0.62362"
         style="fill:none;stroke:#000000" />
      <path
         id="path6481-7"
         d="m -96.643701,931.81535 0.124016,0.64134"
         style="fill:none;stroke:#000000" />
      <path
         id="path6483-2"
         d="m -96.519685,932.45669 0.03898,0.65552"
         style="fill:none;stroke:#000000" />
      <path
         id="path6485-8"
         d="m -96.480709,933.11221 -0.03898,0.65551"
         style="fill:none;stroke:#000000" />
      <path
         id="path6487-2"
         d="m -96.519685,933.76772 -0.124016,0.64133"
         style="fill:none;stroke:#000000" />
      <path
         id="path6489-9"
         d="m -96.643701,934.40905 -0.201968,0.62363"
         style="fill:none;stroke:#000000" />
      <path
         id="path6491-9"
         d="m -96.845669,935.03268 -0.279922,0.59527"
         style="fill:none;stroke:#000000" />
      <path
         id="path6493-6"
         d="m -97.125591,935.62795 -0.350787,0.55276"
         style="fill:none;stroke:#000000" />
      <path
         id="path6495-0"
         d="m -97.476378,936.18071 -0.41811,0.50315"
         style="fill:none;stroke:#000000" />
      <path
         id="path6497-2"
         d="m -97.894488,936.68386 -0.478347,0.45"
         style="fill:none;stroke:#000000" />
      <path
         id="path6499-7"
         d="m -98.372835,937.13386 -0.531496,0.38622"
         style="fill:none;stroke:#000000" />
      <path
         id="path6501-6"
         d="m -98.904331,937.52008 -0.574015,0.31535"
         style="fill:none;stroke:#000000" />
      <path
         id="path6503-1"
         d="m -99.478346,937.83543 -0.609454,0.24095"
         style="fill:none;stroke:#000000" />
      <path
         id="path6505-3"
         d="m -100.0878,938.07638 -0.63425,0.16299"
         style="fill:none;stroke:#000000" />
      <path
         id="path6507-2"
         d="m -100.72205,938.23937 -0.64842,0.0815"
         style="fill:none;stroke:#000000" />
      <path
         id="path6509-1"
         d="m -101.37047,938.32087 -0.65906,0"
         style="fill:none;stroke:#000000" />
      <path
         id="path6511-5"
         d="m -102.02953,938.32087 -0.64842,-0.0815"
         style="fill:none;stroke:#000000" />
      <path
         id="path6513-9"
         d="m -102.67795,938.23937 -0.63426,-0.16299"
         style="fill:none;stroke:#000000" />
      <path
         id="path6515-9"
         d="m -103.31221,938.07638 -0.60944,-0.24095"
         style="fill:none;stroke:#000000" />
      <path
         id="path6517-1"
         d="m -103.92165,937.83543 -0.57402,-0.31535"
         style="fill:none;stroke:#000000" />
      <path
         id="path6519-4"
         d="m -104.49567,937.52008 -0.53149,-0.38622"
         style="fill:none;stroke:#000000" />
      <path
         id="path6521-9"
         d="m -105.02716,937.13386 -0.47835,-0.45"
         style="fill:none;stroke:#000000" />
      <path
         id="path6523-1"
         d="m -105.50551,936.68386 -0.41811,-0.50315"
         style="fill:none;stroke:#000000" />
      <path
         id="path6525-0"
         d="m -105.92362,936.18071 -0.35079,-0.55276"
         style="fill:none;stroke:#000000" />
      <path
         id="path6527-7"
         d="m -106.27441,935.62795 -0.27992,-0.59527"
         style="fill:none;stroke:#000000" />
      <path
         id="path6529-5"
         d="m -106.55433,935.03268 -0.20197,-0.62363"
         style="fill:none;stroke:#000000" />
      <path
         id="path6531-8"
         d="m -106.7563,934.40905 -0.12401,-0.64133"
         style="fill:none;stroke:#000000" />
      <path
         id="path6533-7"
         d="m -106.88031,933.76772 -0.039,-0.65551"
         style="fill:none;stroke:#000000" />
      <path
         id="path6535-0"
         d="m -81.45,1147.8189 0,-190.91339"
         style="fill:none;stroke:#000000" />
      <path
         id="path6537-4"
         d="m -81.45,956.90551 0.02835,-0.44291"
         style="fill:none;stroke:#000000" />
      <path
         id="path6539"
         d="m -81.421654,956.4626 0.0815,-0.43937"
         style="fill:none;stroke:#000000" />
      <path
         id="path6541"
         d="m -81.340157,956.02323 0.138188,-0.42165"
         style="fill:none;stroke:#000000" />
      <path
         id="path6543"
         d="m -81.201969,955.60158 0.191339,-0.40394"
         style="fill:none;stroke:#000000" />
      <path
         id="path6545"
         d="m -81.01063,955.19764 0.237402,-0.37559"
         style="fill:none;stroke:#000000" />
      <path
         id="path6547"
         d="m -80.773228,954.82205 0.283464,-0.3437"
         style="fill:none;stroke:#000000" />
      <path
         id="path6549"
         d="m -80.489764,954.47835 0.325984,-0.30473"
         style="fill:none;stroke:#000000" />
      <path
         id="path6551"
         d="m -80.16378,954.17362 0.357874,-0.25866"
         style="fill:none;stroke:#000000" />
      <path
         id="path6553"
         d="m -79.805906,953.91496 0.389764,-0.21614"
         style="fill:none;stroke:#000000" />
      <path
         id="path6555"
         d="m -79.416142,953.69882 0.414567,-0.16299"
         style="fill:none;stroke:#000000" />
      <path
         id="path6557"
         d="m -79.001575,953.53583 0.432284,-0.10985"
         style="fill:none;stroke:#000000" />
      <path
         id="path6559"
         d="m -78.569291,953.42598 0.43937,-0.0567"
         style="fill:none;stroke:#000000" />
      <path
         id="path6561"
         d="m -78.129921,953.36929 0.223228,0"
         style="fill:none;stroke:#000000" />
      <path
         id="path6563"
         d="m -77.906693,953.36929 0,-0.007"
         style="fill:none;stroke:#000000" />
      <path
         id="path6565"
         d="m -77.906693,953.36221 155.813386,0"
         style="fill:none;stroke:#000000" />
      <path
         id="path6567"
         d="m 77.906693,953.36221 0,0.007"
         style="fill:none;stroke:#000000" />
      <path
         id="path6569"
         d="m 77.906693,953.36929 0.223228,0"
         style="fill:none;stroke:#000000" />
      <path
         id="path6571"
         d="m 78.129921,953.36929 0.43937,0.0567"
         style="fill:none;stroke:#000000" />
      <path
         id="path6573"
         d="m 78.569291,953.42598 0.432284,0.10985"
         style="fill:none;stroke:#000000" />
      <path
         id="path6575"
         d="m 79.001575,953.53583 0.414567,0.16299"
         style="fill:none;stroke:#000000" />
      <path
         id="path6577"
         d="m 79.416142,953.69882 0.389764,0.21614"
         style="fill:none;stroke:#000000" />
      <path
         id="path6579"
         d="m 79.805906,953.91496 0.357874,0.25866"
         style="fill:none;stroke:#000000" />
      <path
         id="path6581"
         d="m 80.16378,954.17362 0.325984,0.30473"
         style="fill:none;stroke:#000000" />
      <path
         id="path6583"
         d="m 80.489764,954.47835 0.283464,0.3437"
         style="fill:none;stroke:#000000" />
      <path
         id="path6585"
         d="m 80.773228,954.82205 0.237402,0.37559"
         style="fill:none;stroke:#000000" />
      <path
         id="path6587"
         d="m 81.01063,955.19764 0.191339,0.40394"
         style="fill:none;stroke:#000000" />
      <path
         id="path6589"
         d="m 81.201969,955.60158 0.138188,0.42165"
         style="fill:none;stroke:#000000" />
      <path
         id="path6591"
         d="m 81.340157,956.02323 0.0815,0.43937"
         style="fill:none;stroke:#000000" />
      <path
         id="path6593"
         d="M 81.421654,956.4626 81.45,956.90551"
         style="fill:none;stroke:#000000" />
      <path
         id="path6595"
         d="m 81.45,956.90551 0,190.91339"
         style="fill:none;stroke:#000000" />
      <path
         id="path6597"
         d="m 81.45,1147.8189 -0.02835,0.4429"
         style="fill:none;stroke:#000000" />
      <path
         id="path6599"
         d="m 81.421654,1148.2618 -0.0815,0.4394"
         style="fill:none;stroke:#000000" />
      <path
         id="path6601"
         d="m 81.340157,1148.7012 -0.138188,0.4216"
         style="fill:none;stroke:#000000" />
      <path
         id="path6603"
         d="m 81.201969,1149.1228 -0.191339,0.404"
         style="fill:none;stroke:#000000" />
      <path
         id="path6605"
         d="m 81.01063,1149.5268 -0.237402,0.3756"
         style="fill:none;stroke:#000000" />
      <path
         id="path6607"
         d="m 80.773228,1149.9024 -0.283464,0.3437"
         style="fill:none;stroke:#000000" />
      <path
         id="path6609"
         d="m 80.489764,1150.2461 -0.325984,0.3047"
         style="fill:none;stroke:#000000" />
      <path
         id="path6611"
         d="m 80.16378,1150.5508 -0.357874,0.2586"
         style="fill:none;stroke:#000000" />
      <path
         id="path6613"
         d="m 79.805906,1150.8094 -0.389764,0.2162"
         style="fill:none;stroke:#000000" />
      <path
         id="path6615"
         d="m 79.416142,1151.0256 -0.414567,0.163"
         style="fill:none;stroke:#000000" />
      <path
         id="path6617"
         d="m 79.001575,1151.1886 -0.432284,0.1098"
         style="fill:none;stroke:#000000" />
      <path
         id="path6619"
         d="m 78.569291,1151.2984 -0.43937,0.057"
         style="fill:none;stroke:#000000" />
      <path
         id="path6621"
         d="m 78.129921,1151.3551 -0.223228,0"
         style="fill:none;stroke:#000000" />
      <path
         id="path6623"
         d="m 77.906693,1151.3551 0,0.01"
         style="fill:none;stroke:#000000" />
      <path
         id="path6625"
         d="m 77.906693,1151.3622 -155.813386,0"
         style="fill:none;stroke:#000000" />
      <path
         id="path6627"
         d="m -77.906693,1151.3622 0,-0.01"
         style="fill:none;stroke:#000000" />
      <path
         id="path6629"
         d="m -77.906693,1151.3551 -0.223228,0"
         style="fill:none;stroke:#000000" />
      <path
         id="path6631"
         d="m -78.129921,1151.3551 -0.43937,-0.057"
         style="fill:none;stroke:#000000" />
      <path
         id="path6633"
         d="m -78.569291,1151.2984 -0.432284,-0.1098"
         style="fill:none;stroke:#000000" />
      <path
         id="path6635"
         d="m -79.001575,1151.1886 -0.414567,-0.163"
         style="fill:none;stroke:#000000" />
      <path
         id="path6637"
         d="m -79.416142,1151.0256 -0.389764,-0.2162"
         style="fill:none;stroke:#000000" />
      <path
         id="path6639"
         d="m -79.805906,1150.8094 -0.357874,-0.2586"
         style="fill:none;stroke:#000000" />
      <path
         id="path6641"
         d="m -80.16378,1150.5508 -0.325984,-0.3047"
         style="fill:none;stroke:#000000" />
      <path
         id="path6643"
         d="m -80.489764,1150.2461 -0.283464,-0.3437"
         style="fill:none;stroke:#000000" />
      <path
         id="path6645"
         d="m -80.773228,1149.9024 -0.237402,-0.3756"
         style="fill:none;stroke:#000000" />
      <path
         id="path6647"
         d="m -81.01063,1149.5268 -0.191339,-0.404"
         style="fill:none;stroke:#000000" />
      <path
         id="path6649"
         d="m -81.201969,1149.1228 -0.138188,-0.4216"
         style="fill:none;stroke:#000000" />
      <path
         id="path6651"
         d="m -81.340157,1148.7012 -0.0815,-0.4394"
         style="fill:none;stroke:#000000" />
      <path
         id="path6653"
         d="M -81.421654,1148.2618 -81.45,1147.8189"
         style="fill:none;stroke:#000000" />
      <path
         id="path6655"
         d="m 96.480709,1171.6122 0.03898,-0.6555"
         style="fill:none;stroke:#000000" />
      <path
         id="path6657"
         d="m 96.519685,1170.9567 0.124016,-0.6413"
         style="fill:none;stroke:#000000" />
      <path
         id="path6659"
         d="m 96.643701,1170.3154 0.201968,-0.6237"
         style="fill:none;stroke:#000000" />
      <path
         id="path6661"
         d="m 96.845669,1169.6917 0.279922,-0.5952"
         style="fill:none;stroke:#000000" />
      <path
         id="path6663"
         d="m 97.125591,1169.0965 0.350787,-0.5528"
         style="fill:none;stroke:#000000" />
      <path
         id="path6665"
         d="m 97.476378,1168.5437 0.41811,-0.5031"
         style="fill:none;stroke:#000000" />
      <path
         id="path6667"
         d="m 97.894488,1168.0406 0.478347,-0.45"
         style="fill:none;stroke:#000000" />
      <path
         id="path6669"
         d="m 98.372835,1167.5906 0.531496,-0.3863"
         style="fill:none;stroke:#000000" />
      <path
         id="path6671"
         d="m 98.904331,1167.2043 0.574015,-0.3153"
         style="fill:none;stroke:#000000" />
      <path
         id="path6673"
         d="m 99.478346,1166.889 0.609454,-0.241"
         style="fill:none;stroke:#000000" />
      <path
         id="path6675"
         d="m 100.0878,1166.648 0.63425,-0.163"
         style="fill:none;stroke:#000000" />
      <path
         id="path6677"
         d="m 100.72205,1166.485 0.64842,-0.082"
         style="fill:none;stroke:#000000" />
      <path
         id="path6679"
         d="m 101.37047,1166.4035 0.65906,0"
         style="fill:none;stroke:#000000" />
      <path
         id="path6681"
         d="m 102.02953,1166.4035 0.64842,0.082"
         style="fill:none;stroke:#000000" />
      <path
         id="path6683"
         d="m 102.67795,1166.485 0.63426,0.163"
         style="fill:none;stroke:#000000" />
      <path
         id="path6685"
         d="m 103.31221,1166.648 0.60944,0.241"
         style="fill:none;stroke:#000000" />
      <path
         id="path6687"
         d="m 103.92165,1166.889 0.57402,0.3153"
         style="fill:none;stroke:#000000" />
      <path
         id="path6689"
         d="m 104.49567,1167.2043 0.53149,0.3863"
         style="fill:none;stroke:#000000" />
      <path
         id="path6691"
         d="m 105.02716,1167.5906 0.47835,0.45"
         style="fill:none;stroke:#000000" />
      <path
         id="path6693"
         d="m 105.50551,1168.0406 0.41811,0.5031"
         style="fill:none;stroke:#000000" />
      <path
         id="path6695"
         d="m 105.92362,1168.5437 0.35079,0.5528"
         style="fill:none;stroke:#000000" />
      <path
         id="path6697"
         d="m 106.27441,1169.0965 0.27992,0.5952"
         style="fill:none;stroke:#000000" />
      <path
         id="path6699"
         d="m 106.55433,1169.6917 0.20197,0.6237"
         style="fill:none;stroke:#000000" />
      <path
         id="path6701"
         d="m 106.7563,1170.3154 0.12401,0.6413"
         style="fill:none;stroke:#000000" />
      <path
         id="path6703"
         d="m 106.88031,1170.9567 0.039,0.6555"
         style="fill:none;stroke:#000000" />
      <path
         id="path6705"
         d="m 106.91929,1171.6122 -0.039,0.6555"
         style="fill:none;stroke:#000000" />
      <path
         id="path6707"
         d="m 106.88031,1172.2677 -0.12401,0.6414"
         style="fill:none;stroke:#000000" />
      <path
         id="path6709"
         d="m 106.7563,1172.9091 -0.20197,0.6236"
         style="fill:none;stroke:#000000" />
      <path
         id="path6711"
         d="m 106.55433,1173.5327 -0.27992,0.5953"
         style="fill:none;stroke:#000000" />
      <path
         id="path6713"
         d="m 106.27441,1174.128 -0.35079,0.5527"
         style="fill:none;stroke:#000000" />
      <path
         id="path6715"
         d="m 105.92362,1174.6807 -0.41811,0.5032"
         style="fill:none;stroke:#000000" />
      <path
         id="path6717"
         d="m 105.50551,1175.1839 -0.47835,0.45"
         style="fill:none;stroke:#000000" />
      <path
         id="path6719"
         d="m 105.02716,1175.6339 -0.53149,0.3862"
         style="fill:none;stroke:#000000" />
      <path
         id="path6721"
         d="m 104.49567,1176.0201 -0.57402,0.3153"
         style="fill:none;stroke:#000000" />
      <path
         id="path6723"
         d="m 103.92165,1176.3354 -0.60944,0.241"
         style="fill:none;stroke:#000000" />
      <path
         id="path6725"
         d="m 103.31221,1176.5764 -0.63426,0.163"
         style="fill:none;stroke:#000000" />
      <path
         id="path6727"
         d="m 102.67795,1176.7394 -0.64842,0.082"
         style="fill:none;stroke:#000000" />
      <path
         id="path6729"
         d="m 102.02953,1176.8209 -0.65906,0"
         style="fill:none;stroke:#000000" />
      <path
         id="path6731"
         d="m 101.37047,1176.8209 -0.64842,-0.082"
         style="fill:none;stroke:#000000" />
      <path
         id="path6733"
         d="m 100.72205,1176.7394 -0.63425,-0.163"
         style="fill:none;stroke:#000000" />
      <path
         id="path6735"
         d="m 100.0878,1176.5764 -0.609454,-0.241"
         style="fill:none;stroke:#000000" />
      <path
         id="path6737"
         d="m 99.478346,1176.3354 -0.574015,-0.3153"
         style="fill:none;stroke:#000000" />
      <path
         id="path6739"
         d="m 98.904331,1176.0201 -0.531496,-0.3862"
         style="fill:none;stroke:#000000" />
      <path
         id="path6741"
         d="m 98.372835,1175.6339 -0.478347,-0.45"
         style="fill:none;stroke:#000000" />
      <path
         id="path6743"
         d="m 97.894488,1175.1839 -0.41811,-0.5032"
         style="fill:none;stroke:#000000" />
      <path
         id="path6745"
         d="m 97.476378,1174.6807 -0.350787,-0.5527"
         style="fill:none;stroke:#000000" />
      <path
         id="path6747"
         d="m 97.125591,1174.128 -0.279922,-0.5953"
         style="fill:none;stroke:#000000" />
      <path
         id="path6749"
         d="m 96.845669,1173.5327 -0.201968,-0.6236"
         style="fill:none;stroke:#000000" />
      <path
         id="path6751"
         d="m 96.643701,1172.9091 -0.124016,-0.6414"
         style="fill:none;stroke:#000000" />
      <path
         id="path6753"
         d="m 96.519685,1172.2677 -0.03898,-0.6555"
         style="fill:none;stroke:#000000" />
      <path
         id="path6755"
         d="m 96.480709,933.11221 0.03898,-0.65552"
         style="fill:none;stroke:#000000" />
      <path
         id="path6757"
         d="m 96.519685,932.45669 0.124016,-0.64134"
         style="fill:none;stroke:#000000" />
      <path
         id="path6759"
         d="m 96.643701,931.81535 0.201968,-0.62362"
         style="fill:none;stroke:#000000" />
      <path
         id="path6761"
         d="m 96.845669,931.19173 0.279922,-0.59527"
         style="fill:none;stroke:#000000" />
      <path
         id="path6763"
         d="m 97.125591,930.59646 0.350787,-0.55276"
         style="fill:none;stroke:#000000" />
      <path
         id="path6765"
         d="m 97.476378,930.0437 0.41811,-0.50315"
         style="fill:none;stroke:#000000" />
      <path
         id="path6767"
         d="m 97.894488,929.54055 0.478347,-0.45"
         style="fill:none;stroke:#000000" />
      <path
         id="path6769"
         d="m 98.372835,929.09055 0.531496,-0.38622"
         style="fill:none;stroke:#000000" />
      <path
         id="path6771"
         d="m 98.904331,928.70433 0.574015,-0.31535"
         style="fill:none;stroke:#000000" />
      <path
         id="path6773"
         d="m 99.478346,928.38898 0.609454,-0.24095"
         style="fill:none;stroke:#000000" />
      <path
         id="path6775"
         d="m 100.0878,928.14803 0.63425,-0.16299"
         style="fill:none;stroke:#000000" />
      <path
         id="path6777"
         d="m 100.72205,927.98504 0.64842,-0.0815"
         style="fill:none;stroke:#000000" />
      <path
         id="path6779"
         d="m 101.37047,927.90354 0.65906,0"
         style="fill:none;stroke:#000000" />
      <path
         id="path6781"
         d="m 102.02953,927.90354 0.64842,0.0815"
         style="fill:none;stroke:#000000" />
      <path
         id="path6783"
         d="m 102.67795,927.98504 0.63426,0.16299"
         style="fill:none;stroke:#000000" />
      <path
         id="path6785"
         d="m 103.31221,928.14803 0.60944,0.24095"
         style="fill:none;stroke:#000000" />
      <path
         id="path6787"
         d="m 103.92165,928.38898 0.57402,0.31535"
         style="fill:none;stroke:#000000" />
      <path
         id="path6789"
         d="m 104.49567,928.70433 0.53149,0.38622"
         style="fill:none;stroke:#000000" />
      <path
         id="path6791"
         d="m 105.02716,929.09055 0.47835,0.45"
         style="fill:none;stroke:#000000" />
      <path
         id="path6793"
         d="m 105.50551,929.54055 0.41811,0.50315"
         style="fill:none;stroke:#000000" />
      <path
         id="path6795"
         d="m 105.92362,930.0437 0.35079,0.55276"
         style="fill:none;stroke:#000000" />
      <path
         id="path6797"
         d="m 106.27441,930.59646 0.27992,0.59527"
         style="fill:none;stroke:#000000" />
      <path
         id="path6799"
         d="m 106.55433,931.19173 0.20197,0.62362"
         style="fill:none;stroke:#000000" />
      <path
         id="path6801"
         d="m 106.7563,931.81535 0.12401,0.64134"
         style="fill:none;stroke:#000000" />
      <path
         id="path6803"
         d="m 106.88031,932.45669 0.039,0.65552"
         style="fill:none;stroke:#000000" />
      <path
         id="path6805"
         d="m 106.91929,933.11221 -0.039,0.65551"
         style="fill:none;stroke:#000000" />
      <path
         id="path6807"
         d="m 106.88031,933.76772 -0.12401,0.64133"
         style="fill:none;stroke:#000000" />
      <path
         id="path6809"
         d="m 106.7563,934.40905 -0.20197,0.62363"
         style="fill:none;stroke:#000000" />
      <path
         id="path6811"
         d="m 106.55433,935.03268 -0.27992,0.59527"
         style="fill:none;stroke:#000000" />
      <path
         id="path6813"
         d="m 106.27441,935.62795 -0.35079,0.55276"
         style="fill:none;stroke:#000000" />
      <path
         id="path6815"
         d="m 105.92362,936.18071 -0.41811,0.50315"
         style="fill:none;stroke:#000000" />
      <path
         id="path6817"
         d="m 105.50551,936.68386 -0.47835,0.45"
         style="fill:none;stroke:#000000" />
      <path
         id="path6819"
         d="m 105.02716,937.13386 -0.53149,0.38622"
         style="fill:none;stroke:#000000" />
      <path
         id="path6821"
         d="m 104.49567,937.52008 -0.57402,0.31535"
         style="fill:none;stroke:#000000" />
      <path
         id="path6823"
         d="m 103.92165,937.83543 -0.60944,0.24095"
         style="fill:none;stroke:#000000" />
      <path
         id="path6825"
         d="m 103.31221,938.07638 -0.63426,0.16299"
         style="fill:none;stroke:#000000" />
      <path
         id="path6827"
         d="m 102.67795,938.23937 -0.64842,0.0815"
         style="fill:none;stroke:#000000" />
      <path
         id="path6829"
         d="m 102.02953,938.32087 -0.65906,0"
         style="fill:none;stroke:#000000" />
      <path
         id="path6831"
         d="m 101.37047,938.32087 -0.64842,-0.0815"
         style="fill:none;stroke:#000000" />
      <path
         id="path6833"
         d="m 100.72205,938.23937 -0.63425,-0.16299"
         style="fill:none;stroke:#000000" />
      <path
         id="path6835"
         d="m 100.0878,938.07638 -0.609454,-0.24095"
         style="fill:none;stroke:#000000" />
      <path
         id="path6837"
         d="m 99.478346,937.83543 -0.574015,-0.31535"
         style="fill:none;stroke:#000000" />
      <path
         id="path6839"
         d="m 98.904331,937.52008 -0.531496,-0.38622"
         style="fill:none;stroke:#000000" />
      <path
         id="path6841"
         d="m 98.372835,937.13386 -0.478347,-0.45"
         style="fill:none;stroke:#000000" />
      <path
         id="path6843"
         d="m 97.894488,936.68386 -0.41811,-0.50315"
         style="fill:none;stroke:#000000" />
      <path
         id="path6845"
         d="m 97.476378,936.18071 -0.350787,-0.55276"
         style="fill:none;stroke:#000000" />
      <path
         id="path6847"
         d="m 97.125591,935.62795 -0.279922,-0.59527"
         style="fill:none;stroke:#000000" />
      <path
         id="path6849"
         d="m 96.845669,935.03268 -0.201968,-0.62363"
         style="fill:none;stroke:#000000" />
      <path
         id="path6851"
         d="m 96.643701,934.40905 -0.124016,-0.64133"
         style="fill:none;stroke:#000000" />
      <path
         id="path6853"
         d="m 96.519685,933.76772 -0.03898,-0.65551"
         style="fill:none;stroke:#000000" />
    </g>
  </g>
</svg>
