G04 (created by PCBNEW (2013-feb-26)-testing) date Fri 08 Mar 2013 03:50:30 PM PST*
%MOIN*%
G04 Gerber Fmt 3.4, Leading zero omitted, Abs format*
%FSLAX34Y34*%
G01*
G70*
G90*
G04 APERTURE LIST*
%ADD10C,2.3622e-06*%
%ADD11C,0.0079*%
%ADD12C,0.012*%
%ADD13C,0.015*%
%ADD14C,0.008*%
%ADD15C,0.003*%
%ADD16C,0.01*%
%ADD17C,0.006*%
%ADD18C,0.0035*%
G04 APERTURE END LIST*
G54D10*
G54D11*
X41675Y-22708D02*
X41638Y-22689D01*
X41582Y-22689D01*
X41525Y-22708D01*
X41488Y-22745D01*
X41469Y-22783D01*
X41450Y-22858D01*
X41450Y-22914D01*
X41469Y-22989D01*
X41488Y-23027D01*
X41525Y-23064D01*
X41582Y-23083D01*
X41619Y-23083D01*
X41675Y-23064D01*
X41694Y-23045D01*
X41694Y-22914D01*
X41619Y-22914D01*
X41863Y-23083D02*
X41863Y-22689D01*
X42088Y-23083D01*
X42088Y-22689D01*
X42276Y-23083D02*
X42276Y-22689D01*
X42370Y-22689D01*
X42426Y-22708D01*
X42463Y-22745D01*
X42482Y-22783D01*
X42501Y-22858D01*
X42501Y-22914D01*
X42482Y-22989D01*
X42463Y-23027D01*
X42426Y-23064D01*
X42370Y-23083D01*
X42276Y-23083D01*
G54D12*
X36702Y-20892D02*
X36702Y-20292D01*
X37102Y-20292D02*
X37217Y-20292D01*
X37274Y-20321D01*
X37331Y-20378D01*
X37360Y-20492D01*
X37360Y-20692D01*
X37331Y-20807D01*
X37274Y-20864D01*
X37217Y-20892D01*
X37102Y-20892D01*
X37045Y-20864D01*
X36988Y-20807D01*
X36960Y-20692D01*
X36960Y-20492D01*
X36988Y-20378D01*
X37045Y-20321D01*
X37102Y-20292D01*
X38417Y-20892D02*
X38217Y-20607D01*
X38074Y-20892D02*
X38074Y-20292D01*
X38302Y-20292D01*
X38360Y-20321D01*
X38388Y-20350D01*
X38417Y-20407D01*
X38417Y-20492D01*
X38388Y-20550D01*
X38360Y-20578D01*
X38302Y-20607D01*
X38074Y-20607D01*
X38760Y-20892D02*
X38702Y-20864D01*
X38674Y-20835D01*
X38645Y-20778D01*
X38645Y-20607D01*
X38674Y-20550D01*
X38702Y-20521D01*
X38760Y-20492D01*
X38845Y-20492D01*
X38902Y-20521D01*
X38931Y-20550D01*
X38960Y-20607D01*
X38960Y-20778D01*
X38931Y-20835D01*
X38902Y-20864D01*
X38845Y-20892D01*
X38760Y-20892D01*
X39474Y-20892D02*
X39474Y-20292D01*
X39474Y-20864D02*
X39417Y-20892D01*
X39302Y-20892D01*
X39245Y-20864D01*
X39217Y-20835D01*
X39188Y-20778D01*
X39188Y-20607D01*
X39217Y-20550D01*
X39245Y-20521D01*
X39302Y-20492D01*
X39417Y-20492D01*
X39474Y-20521D01*
X39988Y-20864D02*
X39931Y-20892D01*
X39817Y-20892D01*
X39760Y-20864D01*
X39731Y-20807D01*
X39731Y-20578D01*
X39760Y-20521D01*
X39817Y-20492D01*
X39931Y-20492D01*
X39988Y-20521D01*
X40017Y-20578D01*
X40017Y-20635D01*
X39731Y-20692D01*
X40360Y-20892D02*
X40302Y-20864D01*
X40274Y-20835D01*
X40245Y-20778D01*
X40245Y-20607D01*
X40274Y-20550D01*
X40302Y-20521D01*
X40360Y-20492D01*
X40445Y-20492D01*
X40502Y-20521D01*
X40531Y-20550D01*
X40560Y-20607D01*
X40560Y-20778D01*
X40531Y-20835D01*
X40502Y-20864D01*
X40445Y-20892D01*
X40360Y-20892D01*
X41274Y-20892D02*
X41274Y-20292D01*
X41560Y-20492D02*
X41560Y-20892D01*
X41560Y-20550D02*
X41588Y-20521D01*
X41645Y-20492D01*
X41731Y-20492D01*
X41788Y-20521D01*
X41817Y-20578D01*
X41817Y-20892D01*
X42360Y-20864D02*
X42302Y-20892D01*
X42188Y-20892D01*
X42131Y-20864D01*
X42102Y-20835D01*
X42074Y-20778D01*
X42074Y-20607D01*
X42102Y-20550D01*
X42131Y-20521D01*
X42188Y-20492D01*
X42302Y-20492D01*
X42360Y-20521D01*
X42617Y-20835D02*
X42645Y-20864D01*
X42617Y-20892D01*
X42588Y-20864D01*
X42617Y-20835D01*
X42617Y-20892D01*
X32334Y-21925D02*
X32305Y-21954D01*
X32220Y-21982D01*
X32162Y-21982D01*
X32077Y-21954D01*
X32020Y-21897D01*
X31991Y-21840D01*
X31962Y-21725D01*
X31962Y-21640D01*
X31991Y-21525D01*
X32020Y-21468D01*
X32077Y-21411D01*
X32162Y-21382D01*
X32220Y-21382D01*
X32305Y-21411D01*
X32334Y-21440D01*
X32677Y-21982D02*
X32620Y-21954D01*
X32591Y-21925D01*
X32562Y-21868D01*
X32562Y-21697D01*
X32591Y-21640D01*
X32620Y-21611D01*
X32677Y-21582D01*
X32762Y-21582D01*
X32820Y-21611D01*
X32848Y-21640D01*
X32877Y-21697D01*
X32877Y-21868D01*
X32848Y-21925D01*
X32820Y-21954D01*
X32762Y-21982D01*
X32677Y-21982D01*
X33219Y-21982D02*
X33162Y-21954D01*
X33134Y-21897D01*
X33134Y-21382D01*
X33534Y-21982D02*
X33477Y-21954D01*
X33448Y-21925D01*
X33420Y-21868D01*
X33420Y-21697D01*
X33448Y-21640D01*
X33477Y-21611D01*
X33534Y-21582D01*
X33620Y-21582D01*
X33677Y-21611D01*
X33705Y-21640D01*
X33734Y-21697D01*
X33734Y-21868D01*
X33705Y-21925D01*
X33677Y-21954D01*
X33620Y-21982D01*
X33534Y-21982D01*
X33991Y-21982D02*
X33991Y-21582D01*
X33991Y-21697D02*
X34020Y-21640D01*
X34048Y-21611D01*
X34105Y-21582D01*
X34162Y-21582D01*
X34362Y-21982D02*
X34362Y-21582D01*
X34362Y-21382D02*
X34334Y-21411D01*
X34362Y-21440D01*
X34391Y-21411D01*
X34362Y-21382D01*
X34362Y-21440D01*
X34648Y-21982D02*
X34648Y-21582D01*
X34648Y-21640D02*
X34677Y-21611D01*
X34734Y-21582D01*
X34820Y-21582D01*
X34877Y-21611D01*
X34905Y-21668D01*
X34905Y-21982D01*
X34905Y-21668D02*
X34934Y-21611D01*
X34991Y-21582D01*
X35077Y-21582D01*
X35134Y-21611D01*
X35162Y-21668D01*
X35162Y-21982D01*
X35677Y-21954D02*
X35620Y-21982D01*
X35505Y-21982D01*
X35448Y-21954D01*
X35420Y-21897D01*
X35420Y-21668D01*
X35448Y-21611D01*
X35505Y-21582D01*
X35620Y-21582D01*
X35677Y-21611D01*
X35705Y-21668D01*
X35705Y-21725D01*
X35420Y-21782D01*
X35877Y-21582D02*
X36105Y-21582D01*
X35962Y-21382D02*
X35962Y-21897D01*
X35991Y-21954D01*
X36048Y-21982D01*
X36105Y-21982D01*
X36534Y-21954D02*
X36477Y-21982D01*
X36362Y-21982D01*
X36305Y-21954D01*
X36277Y-21897D01*
X36277Y-21668D01*
X36305Y-21611D01*
X36362Y-21582D01*
X36477Y-21582D01*
X36534Y-21611D01*
X36562Y-21668D01*
X36562Y-21725D01*
X36277Y-21782D01*
X36820Y-21982D02*
X36820Y-21582D01*
X36820Y-21697D02*
X36848Y-21640D01*
X36877Y-21611D01*
X36934Y-21582D01*
X36991Y-21582D01*
X37934Y-21982D02*
X37648Y-21982D01*
X37648Y-21382D01*
X38134Y-21668D02*
X38334Y-21668D01*
X38420Y-21982D02*
X38134Y-21982D01*
X38134Y-21382D01*
X38420Y-21382D01*
X38677Y-21982D02*
X38677Y-21382D01*
X38820Y-21382D01*
X38905Y-21411D01*
X38962Y-21468D01*
X38991Y-21525D01*
X39020Y-21640D01*
X39020Y-21725D01*
X38991Y-21840D01*
X38962Y-21897D01*
X38905Y-21954D01*
X38820Y-21982D01*
X38677Y-21982D01*
X39934Y-21668D02*
X40020Y-21697D01*
X40048Y-21725D01*
X40077Y-21782D01*
X40077Y-21868D01*
X40048Y-21925D01*
X40020Y-21954D01*
X39962Y-21982D01*
X39734Y-21982D01*
X39734Y-21382D01*
X39934Y-21382D01*
X39991Y-21411D01*
X40020Y-21440D01*
X40048Y-21497D01*
X40048Y-21554D01*
X40020Y-21611D01*
X39991Y-21640D01*
X39934Y-21668D01*
X39734Y-21668D01*
X40420Y-21982D02*
X40362Y-21954D01*
X40334Y-21925D01*
X40305Y-21868D01*
X40305Y-21697D01*
X40334Y-21640D01*
X40362Y-21611D01*
X40420Y-21582D01*
X40505Y-21582D01*
X40562Y-21611D01*
X40591Y-21640D01*
X40620Y-21697D01*
X40620Y-21868D01*
X40591Y-21925D01*
X40562Y-21954D01*
X40505Y-21982D01*
X40420Y-21982D01*
X41134Y-21982D02*
X41134Y-21668D01*
X41105Y-21611D01*
X41048Y-21582D01*
X40934Y-21582D01*
X40877Y-21611D01*
X41134Y-21954D02*
X41077Y-21982D01*
X40934Y-21982D01*
X40877Y-21954D01*
X40848Y-21897D01*
X40848Y-21840D01*
X40877Y-21782D01*
X40934Y-21754D01*
X41077Y-21754D01*
X41134Y-21725D01*
X41420Y-21982D02*
X41420Y-21582D01*
X41420Y-21697D02*
X41448Y-21640D01*
X41477Y-21611D01*
X41534Y-21582D01*
X41591Y-21582D01*
X42048Y-21982D02*
X42048Y-21382D01*
X42048Y-21954D02*
X41991Y-21982D01*
X41877Y-21982D01*
X41820Y-21954D01*
X41791Y-21925D01*
X41762Y-21868D01*
X41762Y-21697D01*
X41791Y-21640D01*
X41820Y-21611D01*
X41877Y-21582D01*
X41991Y-21582D01*
X42048Y-21611D01*
X43134Y-21925D02*
X43105Y-21954D01*
X43020Y-21982D01*
X42962Y-21982D01*
X42877Y-21954D01*
X42820Y-21897D01*
X42791Y-21840D01*
X42762Y-21725D01*
X42762Y-21640D01*
X42791Y-21525D01*
X42820Y-21468D01*
X42877Y-21411D01*
X42962Y-21382D01*
X43020Y-21382D01*
X43105Y-21411D01*
X43134Y-21440D01*
X43791Y-21582D02*
X43934Y-21982D01*
X44077Y-21582D01*
X44620Y-21982D02*
X44277Y-21982D01*
X44448Y-21982D02*
X44448Y-21382D01*
X44391Y-21468D01*
X44334Y-21525D01*
X44277Y-21554D01*
X44877Y-21925D02*
X44905Y-21954D01*
X44877Y-21982D01*
X44848Y-21954D01*
X44877Y-21925D01*
X44877Y-21982D01*
X45277Y-21382D02*
X45334Y-21382D01*
X45391Y-21411D01*
X45420Y-21440D01*
X45448Y-21497D01*
X45477Y-21611D01*
X45477Y-21754D01*
X45448Y-21868D01*
X45420Y-21925D01*
X45391Y-21954D01*
X45334Y-21982D01*
X45277Y-21982D01*
X45220Y-21954D01*
X45191Y-21925D01*
X45162Y-21868D01*
X45134Y-21754D01*
X45134Y-21611D01*
X45162Y-21497D01*
X45191Y-21440D01*
X45220Y-21411D01*
X45277Y-21382D01*
G54D13*
X42800Y-26950D02*
X42800Y-22550D01*
X42800Y-22550D02*
X48000Y-22550D01*
X48000Y-22550D02*
X48000Y-26950D01*
X48000Y-26950D02*
X42800Y-26950D01*
G54D14*
X37880Y-23000D02*
X37880Y-24500D01*
G54D15*
X39607Y-23750D02*
G75*
G03X39607Y-23750I-707J0D01*
G74*
G01*
G54D16*
X37900Y-24500D02*
G75*
G03X37900Y-22999I999J750D01*
G74*
G01*
G54D17*
X38900Y-24200D02*
G75*
G03X39350Y-23750I0J450D01*
G74*
G01*
X38900Y-23300D02*
G75*
G03X38450Y-23750I0J-450D01*
G74*
G01*
X38900Y-24400D02*
G75*
G03X39550Y-23750I0J650D01*
G74*
G01*
X38900Y-23100D02*
G75*
G03X38250Y-23750I0J-650D01*
G74*
G01*
X38900Y-24600D02*
G75*
G03X39750Y-23750I0J850D01*
G74*
G01*
X38900Y-22900D02*
G75*
G03X38050Y-23750I0J-850D01*
G74*
G01*
G54D14*
X32200Y-26180D02*
X32200Y-25980D01*
X32200Y-23180D02*
X32200Y-23380D01*
X32200Y-23380D02*
X31800Y-23380D01*
X31800Y-23380D02*
X31800Y-25980D01*
X31800Y-25980D02*
X32600Y-25980D01*
X32600Y-25980D02*
X32600Y-23380D01*
X32600Y-23380D02*
X32200Y-23380D01*
X32000Y-25980D02*
X31800Y-25780D01*
X34270Y-26280D02*
X34270Y-26080D01*
X34270Y-23280D02*
X34270Y-23480D01*
X34270Y-23480D02*
X33870Y-23480D01*
X33870Y-23480D02*
X33870Y-26080D01*
X33870Y-26080D02*
X34670Y-26080D01*
X34670Y-26080D02*
X34670Y-23480D01*
X34670Y-23480D02*
X34270Y-23480D01*
X34070Y-26080D02*
X33870Y-25880D01*
X37880Y-26750D02*
X37880Y-28250D01*
G54D15*
X39607Y-27500D02*
G75*
G03X39607Y-27500I-707J0D01*
G74*
G01*
G54D16*
X37900Y-28250D02*
G75*
G03X37900Y-26749I999J750D01*
G74*
G01*
G54D17*
X38900Y-27950D02*
G75*
G03X39350Y-27500I0J450D01*
G74*
G01*
X38900Y-27050D02*
G75*
G03X38450Y-27500I0J-450D01*
G74*
G01*
X38900Y-28150D02*
G75*
G03X39550Y-27500I0J650D01*
G74*
G01*
X38900Y-26850D02*
G75*
G03X38250Y-27500I0J-650D01*
G74*
G01*
X38900Y-28350D02*
G75*
G03X39750Y-27500I0J850D01*
G74*
G01*
X38900Y-26650D02*
G75*
G03X38050Y-27500I0J-850D01*
G74*
G01*
G54D12*
X45007Y-27872D02*
X45007Y-27272D01*
X45235Y-27272D01*
X45292Y-27301D01*
X45321Y-27330D01*
X45350Y-27387D01*
X45350Y-27472D01*
X45321Y-27530D01*
X45292Y-27558D01*
X45235Y-27587D01*
X45007Y-27587D01*
X45921Y-27872D02*
X45578Y-27872D01*
X45750Y-27872D02*
X45750Y-27272D01*
X45692Y-27358D01*
X45635Y-27415D01*
X45578Y-27444D01*
G54D18*
X37108Y-23701D02*
X37108Y-23401D01*
X37180Y-23401D01*
X37222Y-23415D01*
X37251Y-23444D01*
X37265Y-23472D01*
X37280Y-23530D01*
X37280Y-23572D01*
X37265Y-23630D01*
X37251Y-23658D01*
X37222Y-23687D01*
X37180Y-23701D01*
X37108Y-23701D01*
X37565Y-23701D02*
X37394Y-23701D01*
X37480Y-23701D02*
X37480Y-23401D01*
X37451Y-23444D01*
X37422Y-23472D01*
X37394Y-23487D01*
G54D14*
X32126Y-27522D02*
X31960Y-27260D01*
X31840Y-27522D02*
X31840Y-26972D01*
X32031Y-26972D01*
X32079Y-26998D01*
X32102Y-27025D01*
X32126Y-27077D01*
X32126Y-27155D01*
X32102Y-27208D01*
X32079Y-27234D01*
X32031Y-27260D01*
X31840Y-27260D01*
X32602Y-27522D02*
X32317Y-27522D01*
X32460Y-27522D02*
X32460Y-26972D01*
X32412Y-27051D01*
X32364Y-27103D01*
X32317Y-27129D01*
X34236Y-27502D02*
X34070Y-27240D01*
X33950Y-27502D02*
X33950Y-26952D01*
X34141Y-26952D01*
X34189Y-26978D01*
X34212Y-27005D01*
X34236Y-27057D01*
X34236Y-27135D01*
X34212Y-27188D01*
X34189Y-27214D01*
X34141Y-27240D01*
X33950Y-27240D01*
X34427Y-27005D02*
X34450Y-26978D01*
X34498Y-26952D01*
X34617Y-26952D01*
X34665Y-26978D01*
X34689Y-27005D01*
X34712Y-27057D01*
X34712Y-27109D01*
X34689Y-27188D01*
X34403Y-27502D01*
X34712Y-27502D01*
G54D18*
X37218Y-27581D02*
X37218Y-27281D01*
X37290Y-27281D01*
X37332Y-27295D01*
X37361Y-27324D01*
X37375Y-27352D01*
X37390Y-27410D01*
X37390Y-27452D01*
X37375Y-27510D01*
X37361Y-27538D01*
X37332Y-27567D01*
X37290Y-27581D01*
X37218Y-27581D01*
X37504Y-27310D02*
X37518Y-27295D01*
X37547Y-27281D01*
X37618Y-27281D01*
X37647Y-27295D01*
X37661Y-27310D01*
X37675Y-27338D01*
X37675Y-27367D01*
X37661Y-27410D01*
X37490Y-27581D01*
X37675Y-27581D01*
M02*
