G04 (created by PCBNEW-RS274X (2011-07-19)-testing) date Fri 10 Feb 2012 03:52:09 PM PST*
G01*
G70*
G90*
%MOIN*%
G04 Gerber Fmt 3.4, Leading zero omitted, Abs format*
%FSLAX34Y34*%
G04 APERTURE LIST*
%ADD10C,0.006000*%
%ADD11R,0.069000X0.060000*%
%ADD12C,0.069000*%
%ADD13R,0.070000X0.070000*%
%ADD14C,0.070000*%
%ADD15C,0.130000*%
%ADD16C,0.012000*%
%ADD17C,0.010000*%
G04 APERTURE END LIST*
G54D10*
G54D11*
X48300Y-32000D03*
G54D12*
X48300Y-33000D03*
X48300Y-34000D03*
X48300Y-35000D03*
X48300Y-36000D03*
X48300Y-37000D03*
X48300Y-38000D03*
X48300Y-39000D03*
X48300Y-40000D03*
X48300Y-41000D03*
X48300Y-42000D03*
X48300Y-43000D03*
X48300Y-44000D03*
X48300Y-45000D03*
X48300Y-46000D03*
X54300Y-46000D03*
X54300Y-45000D03*
X54300Y-44000D03*
X54300Y-43000D03*
X54300Y-42000D03*
X54300Y-41000D03*
X54300Y-40000D03*
X54300Y-39000D03*
X54300Y-38000D03*
X54300Y-37000D03*
X54300Y-36000D03*
X54300Y-35000D03*
X54300Y-34000D03*
X54300Y-33000D03*
X54300Y-32000D03*
G54D13*
X59000Y-37000D03*
G54D14*
X60000Y-37000D03*
X59000Y-38000D03*
X60000Y-38000D03*
X59000Y-39000D03*
X60000Y-39000D03*
X59000Y-40000D03*
X60000Y-40000D03*
X59000Y-41000D03*
X60000Y-41000D03*
G54D15*
X62000Y-31000D03*
X62000Y-47000D03*
X46000Y-47000D03*
X46000Y-31000D03*
G54D16*
X52307Y-47007D02*
X48300Y-43000D01*
X54935Y-47007D02*
X52307Y-47007D01*
X60558Y-41384D02*
X54935Y-47007D01*
X60558Y-39558D02*
X60558Y-41384D01*
X60000Y-39000D02*
X60558Y-39558D01*
X60781Y-38781D02*
X60000Y-38000D01*
X60781Y-41494D02*
X60781Y-38781D01*
X55044Y-47231D02*
X60781Y-41494D01*
X51531Y-47231D02*
X55044Y-47231D01*
X48300Y-44000D02*
X51531Y-47231D01*
X57567Y-40433D02*
X59000Y-39000D01*
X57567Y-43636D02*
X57567Y-40433D01*
X54694Y-46509D02*
X57567Y-43636D01*
X53825Y-46509D02*
X54694Y-46509D01*
X53791Y-46475D02*
X53825Y-46509D01*
X53791Y-43491D02*
X53791Y-46475D01*
X48300Y-38000D02*
X53791Y-43491D01*
X53568Y-44268D02*
X48300Y-39000D01*
X53568Y-46568D02*
X53568Y-44268D01*
X53732Y-46732D02*
X53568Y-46568D01*
X54876Y-46732D02*
X53732Y-46732D01*
X58139Y-43469D02*
X54876Y-46732D01*
X58139Y-40861D02*
X58139Y-43469D01*
X59000Y-40000D02*
X58139Y-40861D01*
X58486Y-37486D02*
X59000Y-38000D01*
X58486Y-37186D02*
X58486Y-37486D01*
X54300Y-33000D02*
X58486Y-37186D01*
G54D10*
G36*
X62675Y-46402D02*
X62511Y-46238D01*
X62180Y-46100D01*
X61822Y-46100D01*
X61491Y-46237D01*
X61238Y-46489D01*
X61100Y-46820D01*
X61100Y-47178D01*
X61237Y-47509D01*
X61402Y-47675D01*
X61091Y-47675D01*
X61091Y-41494D01*
X61091Y-38781D01*
X61067Y-38663D01*
X61067Y-38662D01*
X61033Y-38612D01*
X61000Y-38562D01*
X61000Y-38561D01*
X60586Y-38148D01*
X60599Y-38119D01*
X60599Y-37881D01*
X60508Y-37661D01*
X60347Y-37500D01*
X60508Y-37339D01*
X60599Y-37119D01*
X60599Y-36881D01*
X60508Y-36661D01*
X60339Y-36492D01*
X60119Y-36401D01*
X59881Y-36401D01*
X59661Y-36492D01*
X59585Y-36567D01*
X59561Y-36509D01*
X59491Y-36439D01*
X59400Y-36401D01*
X59301Y-36401D01*
X58601Y-36401D01*
X58509Y-36439D01*
X58439Y-36509D01*
X58401Y-36600D01*
X58401Y-36699D01*
X58401Y-37399D01*
X58439Y-37491D01*
X58509Y-37561D01*
X58556Y-37580D01*
X58498Y-37639D01*
X58533Y-37674D01*
X58487Y-37690D01*
X58407Y-37909D01*
X58418Y-38144D01*
X58487Y-38310D01*
X58586Y-38343D01*
X58894Y-38035D01*
X58929Y-38000D01*
X59000Y-37929D01*
X59071Y-38000D01*
X59106Y-38035D01*
X59414Y-38343D01*
X59484Y-38319D01*
X59492Y-38339D01*
X59653Y-38500D01*
X59500Y-38653D01*
X59339Y-38492D01*
X59319Y-38484D01*
X59343Y-38414D01*
X59000Y-38071D01*
X58929Y-38142D01*
X58657Y-38414D01*
X58680Y-38484D01*
X58661Y-38492D01*
X58492Y-38661D01*
X58401Y-38881D01*
X58401Y-39119D01*
X58413Y-39148D01*
X57348Y-40214D01*
X57281Y-40314D01*
X57257Y-40433D01*
X57257Y-43508D01*
X54890Y-45874D01*
X54804Y-45664D01*
X54640Y-45500D01*
X54803Y-45337D01*
X54894Y-45118D01*
X54894Y-44882D01*
X54804Y-44664D01*
X54640Y-44500D01*
X54803Y-44337D01*
X54894Y-44118D01*
X54894Y-43882D01*
X54804Y-43664D01*
X54640Y-43500D01*
X54803Y-43337D01*
X54894Y-43118D01*
X54894Y-42882D01*
X54804Y-42664D01*
X54640Y-42500D01*
X54803Y-42337D01*
X54894Y-42118D01*
X54894Y-41882D01*
X54804Y-41664D01*
X54640Y-41500D01*
X54803Y-41337D01*
X54894Y-41118D01*
X54894Y-40882D01*
X54804Y-40664D01*
X54640Y-40500D01*
X54803Y-40337D01*
X54894Y-40118D01*
X54894Y-39882D01*
X54804Y-39664D01*
X54640Y-39500D01*
X54803Y-39337D01*
X54894Y-39118D01*
X54894Y-38882D01*
X54804Y-38664D01*
X54640Y-38500D01*
X54803Y-38337D01*
X54894Y-38118D01*
X54894Y-37882D01*
X54804Y-37664D01*
X54640Y-37500D01*
X54803Y-37337D01*
X54894Y-37118D01*
X54894Y-36882D01*
X54804Y-36664D01*
X54640Y-36500D01*
X54803Y-36337D01*
X54894Y-36118D01*
X54894Y-35882D01*
X54804Y-35664D01*
X54640Y-35500D01*
X54803Y-35337D01*
X54894Y-35118D01*
X54894Y-34882D01*
X54804Y-34664D01*
X54640Y-34500D01*
X54803Y-34337D01*
X54894Y-34118D01*
X54894Y-33882D01*
X54894Y-32118D01*
X54894Y-31882D01*
X54804Y-31664D01*
X54637Y-31497D01*
X54418Y-31406D01*
X54182Y-31406D01*
X53964Y-31496D01*
X53797Y-31663D01*
X53706Y-31882D01*
X53706Y-32118D01*
X53796Y-32336D01*
X53963Y-32503D01*
X53985Y-32512D01*
X53961Y-32590D01*
X54300Y-32929D01*
X54639Y-32590D01*
X54614Y-32512D01*
X54636Y-32504D01*
X54803Y-32337D01*
X54894Y-32118D01*
X54894Y-33882D01*
X54888Y-33867D01*
X54888Y-33090D01*
X54878Y-32858D01*
X54808Y-32692D01*
X54710Y-32661D01*
X54371Y-33000D01*
X54710Y-33339D01*
X54808Y-33308D01*
X54888Y-33090D01*
X54888Y-33867D01*
X54804Y-33664D01*
X54637Y-33497D01*
X54614Y-33487D01*
X54639Y-33410D01*
X54300Y-33071D01*
X54229Y-33142D01*
X54229Y-33000D01*
X53890Y-32661D01*
X53792Y-32692D01*
X53712Y-32910D01*
X53722Y-33142D01*
X53792Y-33308D01*
X53890Y-33339D01*
X54229Y-33000D01*
X54229Y-33142D01*
X53961Y-33410D01*
X53985Y-33487D01*
X53964Y-33496D01*
X53797Y-33663D01*
X53706Y-33882D01*
X53706Y-34118D01*
X53796Y-34336D01*
X53960Y-34500D01*
X53797Y-34663D01*
X53706Y-34882D01*
X53706Y-35118D01*
X53796Y-35336D01*
X53960Y-35500D01*
X53797Y-35663D01*
X53706Y-35882D01*
X53706Y-36118D01*
X53796Y-36336D01*
X53960Y-36500D01*
X53797Y-36663D01*
X53706Y-36882D01*
X53706Y-37118D01*
X53796Y-37336D01*
X53960Y-37500D01*
X53797Y-37663D01*
X53706Y-37882D01*
X53706Y-38118D01*
X53796Y-38336D01*
X53960Y-38500D01*
X53797Y-38663D01*
X53706Y-38882D01*
X53706Y-39118D01*
X53796Y-39336D01*
X53960Y-39500D01*
X53797Y-39663D01*
X53706Y-39882D01*
X53706Y-40118D01*
X53796Y-40336D01*
X53960Y-40500D01*
X53797Y-40663D01*
X53706Y-40882D01*
X53706Y-41118D01*
X53796Y-41336D01*
X53960Y-41500D01*
X53797Y-41663D01*
X53706Y-41882D01*
X53706Y-42118D01*
X53796Y-42336D01*
X53960Y-42500D01*
X53797Y-42663D01*
X53706Y-42882D01*
X53706Y-42967D01*
X48882Y-38144D01*
X48894Y-38118D01*
X48894Y-37882D01*
X48804Y-37664D01*
X48640Y-37500D01*
X48803Y-37337D01*
X48894Y-37118D01*
X48894Y-36882D01*
X48804Y-36664D01*
X48640Y-36500D01*
X48803Y-36337D01*
X48894Y-36118D01*
X48894Y-35882D01*
X48804Y-35664D01*
X48640Y-35500D01*
X48803Y-35337D01*
X48894Y-35118D01*
X48894Y-34882D01*
X48804Y-34664D01*
X48640Y-34500D01*
X48803Y-34337D01*
X48894Y-34118D01*
X48894Y-33882D01*
X48804Y-33664D01*
X48640Y-33500D01*
X48803Y-33337D01*
X48894Y-33118D01*
X48894Y-32882D01*
X48804Y-32664D01*
X48689Y-32549D01*
X48694Y-32549D01*
X48786Y-32511D01*
X48856Y-32441D01*
X48894Y-32350D01*
X48894Y-32251D01*
X48894Y-31651D01*
X48856Y-31559D01*
X48786Y-31489D01*
X48695Y-31451D01*
X48596Y-31451D01*
X47906Y-31451D01*
X47814Y-31489D01*
X47744Y-31559D01*
X47706Y-31650D01*
X47706Y-31749D01*
X47706Y-32349D01*
X47744Y-32441D01*
X47814Y-32511D01*
X47905Y-32549D01*
X47911Y-32549D01*
X47797Y-32663D01*
X47706Y-32882D01*
X47706Y-33118D01*
X47796Y-33336D01*
X47960Y-33500D01*
X47797Y-33663D01*
X47706Y-33882D01*
X47706Y-34118D01*
X47796Y-34336D01*
X47960Y-34500D01*
X47797Y-34663D01*
X47706Y-34882D01*
X47706Y-35118D01*
X47796Y-35336D01*
X47960Y-35500D01*
X47797Y-35663D01*
X47706Y-35882D01*
X47706Y-36118D01*
X47796Y-36336D01*
X47960Y-36500D01*
X47797Y-36663D01*
X47706Y-36882D01*
X47706Y-37118D01*
X47796Y-37336D01*
X47960Y-37500D01*
X47797Y-37663D01*
X47706Y-37882D01*
X47706Y-38118D01*
X47796Y-38336D01*
X47960Y-38500D01*
X47797Y-38663D01*
X47706Y-38882D01*
X47706Y-39118D01*
X47796Y-39336D01*
X47960Y-39500D01*
X47797Y-39663D01*
X47706Y-39882D01*
X47706Y-40118D01*
X47796Y-40336D01*
X47960Y-40500D01*
X47797Y-40663D01*
X47706Y-40882D01*
X47706Y-41118D01*
X47796Y-41336D01*
X47960Y-41500D01*
X47797Y-41663D01*
X47706Y-41882D01*
X47706Y-42118D01*
X47796Y-42336D01*
X47960Y-42500D01*
X47797Y-42663D01*
X47706Y-42882D01*
X47706Y-43118D01*
X47796Y-43336D01*
X47960Y-43500D01*
X47797Y-43663D01*
X47706Y-43882D01*
X47706Y-44118D01*
X47796Y-44336D01*
X47960Y-44500D01*
X47797Y-44663D01*
X47706Y-44882D01*
X47706Y-45118D01*
X47796Y-45336D01*
X47960Y-45500D01*
X47797Y-45663D01*
X47706Y-45882D01*
X47706Y-46118D01*
X47796Y-46336D01*
X47963Y-46503D01*
X48182Y-46594D01*
X48418Y-46594D01*
X48636Y-46504D01*
X48803Y-46337D01*
X48894Y-46118D01*
X48894Y-45882D01*
X48804Y-45664D01*
X48640Y-45500D01*
X48803Y-45337D01*
X48894Y-45118D01*
X48894Y-45032D01*
X51312Y-47450D01*
X51412Y-47517D01*
X51413Y-47517D01*
X51531Y-47541D01*
X55044Y-47541D01*
X55162Y-47517D01*
X55163Y-47517D01*
X55263Y-47450D01*
X61000Y-41713D01*
X61067Y-41613D01*
X61067Y-41612D01*
X61090Y-41494D01*
X61091Y-41494D01*
X61091Y-47675D01*
X46597Y-47675D01*
X46762Y-47511D01*
X46900Y-47180D01*
X46900Y-46822D01*
X46763Y-46491D01*
X46511Y-46238D01*
X46180Y-46100D01*
X45822Y-46100D01*
X45491Y-46237D01*
X45325Y-46402D01*
X45325Y-31597D01*
X45489Y-31762D01*
X45820Y-31900D01*
X46178Y-31900D01*
X46509Y-31763D01*
X46762Y-31511D01*
X46900Y-31180D01*
X46900Y-30822D01*
X46763Y-30491D01*
X46597Y-30325D01*
X61402Y-30325D01*
X61238Y-30489D01*
X61100Y-30820D01*
X61100Y-31178D01*
X61237Y-31509D01*
X61489Y-31762D01*
X61820Y-31900D01*
X62178Y-31900D01*
X62509Y-31763D01*
X62675Y-31597D01*
X62675Y-46402D01*
X62675Y-46402D01*
G37*
G54D17*
X62675Y-46402D02*
X62511Y-46238D01*
X62180Y-46100D01*
X61822Y-46100D01*
X61491Y-46237D01*
X61238Y-46489D01*
X61100Y-46820D01*
X61100Y-47178D01*
X61237Y-47509D01*
X61402Y-47675D01*
X61091Y-47675D01*
X61091Y-41494D01*
X61091Y-38781D01*
X61067Y-38663D01*
X61067Y-38662D01*
X61033Y-38612D01*
X61000Y-38562D01*
X61000Y-38561D01*
X60586Y-38148D01*
X60599Y-38119D01*
X60599Y-37881D01*
X60508Y-37661D01*
X60347Y-37500D01*
X60508Y-37339D01*
X60599Y-37119D01*
X60599Y-36881D01*
X60508Y-36661D01*
X60339Y-36492D01*
X60119Y-36401D01*
X59881Y-36401D01*
X59661Y-36492D01*
X59585Y-36567D01*
X59561Y-36509D01*
X59491Y-36439D01*
X59400Y-36401D01*
X59301Y-36401D01*
X58601Y-36401D01*
X58509Y-36439D01*
X58439Y-36509D01*
X58401Y-36600D01*
X58401Y-36699D01*
X58401Y-37399D01*
X58439Y-37491D01*
X58509Y-37561D01*
X58556Y-37580D01*
X58498Y-37639D01*
X58533Y-37674D01*
X58487Y-37690D01*
X58407Y-37909D01*
X58418Y-38144D01*
X58487Y-38310D01*
X58586Y-38343D01*
X58894Y-38035D01*
X58929Y-38000D01*
X59000Y-37929D01*
X59071Y-38000D01*
X59106Y-38035D01*
X59414Y-38343D01*
X59484Y-38319D01*
X59492Y-38339D01*
X59653Y-38500D01*
X59500Y-38653D01*
X59339Y-38492D01*
X59319Y-38484D01*
X59343Y-38414D01*
X59000Y-38071D01*
X58929Y-38142D01*
X58657Y-38414D01*
X58680Y-38484D01*
X58661Y-38492D01*
X58492Y-38661D01*
X58401Y-38881D01*
X58401Y-39119D01*
X58413Y-39148D01*
X57348Y-40214D01*
X57281Y-40314D01*
X57257Y-40433D01*
X57257Y-43508D01*
X54890Y-45874D01*
X54804Y-45664D01*
X54640Y-45500D01*
X54803Y-45337D01*
X54894Y-45118D01*
X54894Y-44882D01*
X54804Y-44664D01*
X54640Y-44500D01*
X54803Y-44337D01*
X54894Y-44118D01*
X54894Y-43882D01*
X54804Y-43664D01*
X54640Y-43500D01*
X54803Y-43337D01*
X54894Y-43118D01*
X54894Y-42882D01*
X54804Y-42664D01*
X54640Y-42500D01*
X54803Y-42337D01*
X54894Y-42118D01*
X54894Y-41882D01*
X54804Y-41664D01*
X54640Y-41500D01*
X54803Y-41337D01*
X54894Y-41118D01*
X54894Y-40882D01*
X54804Y-40664D01*
X54640Y-40500D01*
X54803Y-40337D01*
X54894Y-40118D01*
X54894Y-39882D01*
X54804Y-39664D01*
X54640Y-39500D01*
X54803Y-39337D01*
X54894Y-39118D01*
X54894Y-38882D01*
X54804Y-38664D01*
X54640Y-38500D01*
X54803Y-38337D01*
X54894Y-38118D01*
X54894Y-37882D01*
X54804Y-37664D01*
X54640Y-37500D01*
X54803Y-37337D01*
X54894Y-37118D01*
X54894Y-36882D01*
X54804Y-36664D01*
X54640Y-36500D01*
X54803Y-36337D01*
X54894Y-36118D01*
X54894Y-35882D01*
X54804Y-35664D01*
X54640Y-35500D01*
X54803Y-35337D01*
X54894Y-35118D01*
X54894Y-34882D01*
X54804Y-34664D01*
X54640Y-34500D01*
X54803Y-34337D01*
X54894Y-34118D01*
X54894Y-33882D01*
X54894Y-32118D01*
X54894Y-31882D01*
X54804Y-31664D01*
X54637Y-31497D01*
X54418Y-31406D01*
X54182Y-31406D01*
X53964Y-31496D01*
X53797Y-31663D01*
X53706Y-31882D01*
X53706Y-32118D01*
X53796Y-32336D01*
X53963Y-32503D01*
X53985Y-32512D01*
X53961Y-32590D01*
X54300Y-32929D01*
X54639Y-32590D01*
X54614Y-32512D01*
X54636Y-32504D01*
X54803Y-32337D01*
X54894Y-32118D01*
X54894Y-33882D01*
X54888Y-33867D01*
X54888Y-33090D01*
X54878Y-32858D01*
X54808Y-32692D01*
X54710Y-32661D01*
X54371Y-33000D01*
X54710Y-33339D01*
X54808Y-33308D01*
X54888Y-33090D01*
X54888Y-33867D01*
X54804Y-33664D01*
X54637Y-33497D01*
X54614Y-33487D01*
X54639Y-33410D01*
X54300Y-33071D01*
X54229Y-33142D01*
X54229Y-33000D01*
X53890Y-32661D01*
X53792Y-32692D01*
X53712Y-32910D01*
X53722Y-33142D01*
X53792Y-33308D01*
X53890Y-33339D01*
X54229Y-33000D01*
X54229Y-33142D01*
X53961Y-33410D01*
X53985Y-33487D01*
X53964Y-33496D01*
X53797Y-33663D01*
X53706Y-33882D01*
X53706Y-34118D01*
X53796Y-34336D01*
X53960Y-34500D01*
X53797Y-34663D01*
X53706Y-34882D01*
X53706Y-35118D01*
X53796Y-35336D01*
X53960Y-35500D01*
X53797Y-35663D01*
X53706Y-35882D01*
X53706Y-36118D01*
X53796Y-36336D01*
X53960Y-36500D01*
X53797Y-36663D01*
X53706Y-36882D01*
X53706Y-37118D01*
X53796Y-37336D01*
X53960Y-37500D01*
X53797Y-37663D01*
X53706Y-37882D01*
X53706Y-38118D01*
X53796Y-38336D01*
X53960Y-38500D01*
X53797Y-38663D01*
X53706Y-38882D01*
X53706Y-39118D01*
X53796Y-39336D01*
X53960Y-39500D01*
X53797Y-39663D01*
X53706Y-39882D01*
X53706Y-40118D01*
X53796Y-40336D01*
X53960Y-40500D01*
X53797Y-40663D01*
X53706Y-40882D01*
X53706Y-41118D01*
X53796Y-41336D01*
X53960Y-41500D01*
X53797Y-41663D01*
X53706Y-41882D01*
X53706Y-42118D01*
X53796Y-42336D01*
X53960Y-42500D01*
X53797Y-42663D01*
X53706Y-42882D01*
X53706Y-42967D01*
X48882Y-38144D01*
X48894Y-38118D01*
X48894Y-37882D01*
X48804Y-37664D01*
X48640Y-37500D01*
X48803Y-37337D01*
X48894Y-37118D01*
X48894Y-36882D01*
X48804Y-36664D01*
X48640Y-36500D01*
X48803Y-36337D01*
X48894Y-36118D01*
X48894Y-35882D01*
X48804Y-35664D01*
X48640Y-35500D01*
X48803Y-35337D01*
X48894Y-35118D01*
X48894Y-34882D01*
X48804Y-34664D01*
X48640Y-34500D01*
X48803Y-34337D01*
X48894Y-34118D01*
X48894Y-33882D01*
X48804Y-33664D01*
X48640Y-33500D01*
X48803Y-33337D01*
X48894Y-33118D01*
X48894Y-32882D01*
X48804Y-32664D01*
X48689Y-32549D01*
X48694Y-32549D01*
X48786Y-32511D01*
X48856Y-32441D01*
X48894Y-32350D01*
X48894Y-32251D01*
X48894Y-31651D01*
X48856Y-31559D01*
X48786Y-31489D01*
X48695Y-31451D01*
X48596Y-31451D01*
X47906Y-31451D01*
X47814Y-31489D01*
X47744Y-31559D01*
X47706Y-31650D01*
X47706Y-31749D01*
X47706Y-32349D01*
X47744Y-32441D01*
X47814Y-32511D01*
X47905Y-32549D01*
X47911Y-32549D01*
X47797Y-32663D01*
X47706Y-32882D01*
X47706Y-33118D01*
X47796Y-33336D01*
X47960Y-33500D01*
X47797Y-33663D01*
X47706Y-33882D01*
X47706Y-34118D01*
X47796Y-34336D01*
X47960Y-34500D01*
X47797Y-34663D01*
X47706Y-34882D01*
X47706Y-35118D01*
X47796Y-35336D01*
X47960Y-35500D01*
X47797Y-35663D01*
X47706Y-35882D01*
X47706Y-36118D01*
X47796Y-36336D01*
X47960Y-36500D01*
X47797Y-36663D01*
X47706Y-36882D01*
X47706Y-37118D01*
X47796Y-37336D01*
X47960Y-37500D01*
X47797Y-37663D01*
X47706Y-37882D01*
X47706Y-38118D01*
X47796Y-38336D01*
X47960Y-38500D01*
X47797Y-38663D01*
X47706Y-38882D01*
X47706Y-39118D01*
X47796Y-39336D01*
X47960Y-39500D01*
X47797Y-39663D01*
X47706Y-39882D01*
X47706Y-40118D01*
X47796Y-40336D01*
X47960Y-40500D01*
X47797Y-40663D01*
X47706Y-40882D01*
X47706Y-41118D01*
X47796Y-41336D01*
X47960Y-41500D01*
X47797Y-41663D01*
X47706Y-41882D01*
X47706Y-42118D01*
X47796Y-42336D01*
X47960Y-42500D01*
X47797Y-42663D01*
X47706Y-42882D01*
X47706Y-43118D01*
X47796Y-43336D01*
X47960Y-43500D01*
X47797Y-43663D01*
X47706Y-43882D01*
X47706Y-44118D01*
X47796Y-44336D01*
X47960Y-44500D01*
X47797Y-44663D01*
X47706Y-44882D01*
X47706Y-45118D01*
X47796Y-45336D01*
X47960Y-45500D01*
X47797Y-45663D01*
X47706Y-45882D01*
X47706Y-46118D01*
X47796Y-46336D01*
X47963Y-46503D01*
X48182Y-46594D01*
X48418Y-46594D01*
X48636Y-46504D01*
X48803Y-46337D01*
X48894Y-46118D01*
X48894Y-45882D01*
X48804Y-45664D01*
X48640Y-45500D01*
X48803Y-45337D01*
X48894Y-45118D01*
X48894Y-45032D01*
X51312Y-47450D01*
X51412Y-47517D01*
X51413Y-47517D01*
X51531Y-47541D01*
X55044Y-47541D01*
X55162Y-47517D01*
X55163Y-47517D01*
X55263Y-47450D01*
X61000Y-41713D01*
X61067Y-41613D01*
X61067Y-41612D01*
X61090Y-41494D01*
X61091Y-41494D01*
X61091Y-47675D01*
X46597Y-47675D01*
X46762Y-47511D01*
X46900Y-47180D01*
X46900Y-46822D01*
X46763Y-46491D01*
X46511Y-46238D01*
X46180Y-46100D01*
X45822Y-46100D01*
X45491Y-46237D01*
X45325Y-46402D01*
X45325Y-31597D01*
X45489Y-31762D01*
X45820Y-31900D01*
X46178Y-31900D01*
X46509Y-31763D01*
X46762Y-31511D01*
X46900Y-31180D01*
X46900Y-30822D01*
X46763Y-30491D01*
X46597Y-30325D01*
X61402Y-30325D01*
X61238Y-30489D01*
X61100Y-30820D01*
X61100Y-31178D01*
X61237Y-31509D01*
X61489Y-31762D01*
X61820Y-31900D01*
X62178Y-31900D01*
X62509Y-31763D01*
X62675Y-31597D01*
X62675Y-46402D01*
M02*
