M48
;DRILL file {PCBnew (2011-07-19)-testing} date Fri 10 Feb 2012 03:52:16 PM PST
;FORMAT={2:4/ absolute / inch / suppress trailing zeros}
FMAT,2
INCH,LZ
T1C0.039
T2C0.040
T3C0.120
%
G90
G05
M72
T1
X0483Y-032
X0483Y-033
X0483Y-034
X0483Y-035
X0483Y-036
X0483Y-037
X0483Y-038
X0483Y-039
X0483Y-04
X0483Y-041
X0483Y-042
X0483Y-043
X0483Y-044
X0483Y-045
X0483Y-046
X0543Y-032
X0543Y-033
X0543Y-034
X0543Y-035
X0543Y-036
X0543Y-037
X0543Y-038
X0543Y-039
X0543Y-04
X0543Y-041
X0543Y-042
X0543Y-043
X0543Y-044
X0543Y-045
X0543Y-046
T2
X059Y-037
X059Y-038
X059Y-039
X059Y-04
X059Y-041
X06Y-037
X06Y-038
X06Y-039
X06Y-04
X06Y-041
T3
X046Y-031
X046Y-047
X062Y-031
X062Y-047
T0
M30
