G04 (created by PCBNEW-RS274X (2012-apr-16-27)-stable) date Thu 15 May 2014 11:09:12 AM PDT*
G01*
G70*
G90*
%MOIN*%
G04 Gerber Fmt 3.4, Leading zero omitted, Abs format*
%FSLAX34Y34*%
G04 APERTURE LIST*
%ADD10C,0.006000*%
%ADD11C,0.007900*%
%ADD12C,0.012000*%
%ADD13C,0.005000*%
%ADD14C,0.015000*%
%ADD15C,0.007500*%
G04 APERTURE END LIST*
G54D10*
G54D11*
X41676Y-22708D02*
X41639Y-22689D01*
X41582Y-22689D01*
X41526Y-22708D01*
X41489Y-22746D01*
X41470Y-22783D01*
X41451Y-22858D01*
X41451Y-22915D01*
X41470Y-22990D01*
X41489Y-23027D01*
X41526Y-23065D01*
X41582Y-23083D01*
X41620Y-23083D01*
X41676Y-23065D01*
X41695Y-23046D01*
X41695Y-22915D01*
X41620Y-22915D01*
X41864Y-23083D02*
X41864Y-22689D01*
X42089Y-23083D01*
X42089Y-22689D01*
X42277Y-23083D02*
X42277Y-22689D01*
X42371Y-22689D01*
X42427Y-22708D01*
X42464Y-22746D01*
X42483Y-22783D01*
X42502Y-22858D01*
X42502Y-22915D01*
X42483Y-22990D01*
X42464Y-23027D01*
X42427Y-23065D01*
X42371Y-23083D01*
X42277Y-23083D01*
G54D12*
X36043Y-21324D02*
X36043Y-20524D01*
X36443Y-20524D02*
X36557Y-20524D01*
X36615Y-20562D01*
X36672Y-20638D01*
X36700Y-20790D01*
X36700Y-21057D01*
X36672Y-21210D01*
X36615Y-21286D01*
X36557Y-21324D01*
X36443Y-21324D01*
X36386Y-21286D01*
X36329Y-21210D01*
X36300Y-21057D01*
X36300Y-20790D01*
X36329Y-20638D01*
X36386Y-20562D01*
X36443Y-20524D01*
X37758Y-21324D02*
X37558Y-20943D01*
X37415Y-21324D02*
X37415Y-20524D01*
X37643Y-20524D01*
X37701Y-20562D01*
X37729Y-20600D01*
X37758Y-20676D01*
X37758Y-20790D01*
X37729Y-20867D01*
X37701Y-20905D01*
X37643Y-20943D01*
X37415Y-20943D01*
X38101Y-21324D02*
X38043Y-21286D01*
X38015Y-21248D01*
X37986Y-21171D01*
X37986Y-20943D01*
X38015Y-20867D01*
X38043Y-20829D01*
X38101Y-20790D01*
X38186Y-20790D01*
X38243Y-20829D01*
X38272Y-20867D01*
X38301Y-20943D01*
X38301Y-21171D01*
X38272Y-21248D01*
X38243Y-21286D01*
X38186Y-21324D01*
X38101Y-21324D01*
X38815Y-21324D02*
X38815Y-20524D01*
X38815Y-21286D02*
X38758Y-21324D01*
X38644Y-21324D01*
X38586Y-21286D01*
X38558Y-21248D01*
X38529Y-21171D01*
X38529Y-20943D01*
X38558Y-20867D01*
X38586Y-20829D01*
X38644Y-20790D01*
X38758Y-20790D01*
X38815Y-20829D01*
X39329Y-21286D02*
X39272Y-21324D01*
X39158Y-21324D01*
X39101Y-21286D01*
X39072Y-21210D01*
X39072Y-20905D01*
X39101Y-20829D01*
X39158Y-20790D01*
X39272Y-20790D01*
X39329Y-20829D01*
X39358Y-20905D01*
X39358Y-20981D01*
X39072Y-21057D01*
X39701Y-21324D02*
X39643Y-21286D01*
X39615Y-21248D01*
X39586Y-21171D01*
X39586Y-20943D01*
X39615Y-20867D01*
X39643Y-20829D01*
X39701Y-20790D01*
X39786Y-20790D01*
X39843Y-20829D01*
X39872Y-20867D01*
X39901Y-20943D01*
X39901Y-21171D01*
X39872Y-21248D01*
X39843Y-21286D01*
X39786Y-21324D01*
X39701Y-21324D01*
X40615Y-21324D02*
X40615Y-20524D01*
X40901Y-20790D02*
X40901Y-21324D01*
X40901Y-20867D02*
X40929Y-20829D01*
X40987Y-20790D01*
X41072Y-20790D01*
X41129Y-20829D01*
X41158Y-20905D01*
X41158Y-21324D01*
X41701Y-21286D02*
X41644Y-21324D01*
X41530Y-21324D01*
X41472Y-21286D01*
X41444Y-21248D01*
X41415Y-21171D01*
X41415Y-20943D01*
X41444Y-20867D01*
X41472Y-20829D01*
X41530Y-20790D01*
X41644Y-20790D01*
X41701Y-20829D01*
X41958Y-21248D02*
X41986Y-21286D01*
X41958Y-21324D01*
X41929Y-21286D01*
X41958Y-21248D01*
X41958Y-21324D01*
X32866Y-29248D02*
X32837Y-29286D01*
X32751Y-29324D01*
X32694Y-29324D01*
X32609Y-29286D01*
X32551Y-29210D01*
X32523Y-29133D01*
X32494Y-28981D01*
X32494Y-28867D01*
X32523Y-28714D01*
X32551Y-28638D01*
X32609Y-28562D01*
X32694Y-28524D01*
X32751Y-28524D01*
X32837Y-28562D01*
X32866Y-28600D01*
X33209Y-29324D02*
X33151Y-29286D01*
X33123Y-29248D01*
X33094Y-29171D01*
X33094Y-28943D01*
X33123Y-28867D01*
X33151Y-28829D01*
X33209Y-28790D01*
X33294Y-28790D01*
X33351Y-28829D01*
X33380Y-28867D01*
X33409Y-28943D01*
X33409Y-29171D01*
X33380Y-29248D01*
X33351Y-29286D01*
X33294Y-29324D01*
X33209Y-29324D01*
X33752Y-29324D02*
X33694Y-29286D01*
X33666Y-29210D01*
X33666Y-28524D01*
X34066Y-29324D02*
X34008Y-29286D01*
X33980Y-29248D01*
X33951Y-29171D01*
X33951Y-28943D01*
X33980Y-28867D01*
X34008Y-28829D01*
X34066Y-28790D01*
X34151Y-28790D01*
X34208Y-28829D01*
X34237Y-28867D01*
X34266Y-28943D01*
X34266Y-29171D01*
X34237Y-29248D01*
X34208Y-29286D01*
X34151Y-29324D01*
X34066Y-29324D01*
X34523Y-29324D02*
X34523Y-28790D01*
X34523Y-28943D02*
X34551Y-28867D01*
X34580Y-28829D01*
X34637Y-28790D01*
X34694Y-28790D01*
X34894Y-29324D02*
X34894Y-28790D01*
X34894Y-28524D02*
X34865Y-28562D01*
X34894Y-28600D01*
X34922Y-28562D01*
X34894Y-28524D01*
X34894Y-28600D01*
X35180Y-29324D02*
X35180Y-28790D01*
X35180Y-28867D02*
X35208Y-28829D01*
X35266Y-28790D01*
X35351Y-28790D01*
X35408Y-28829D01*
X35437Y-28905D01*
X35437Y-29324D01*
X35437Y-28905D02*
X35466Y-28829D01*
X35523Y-28790D01*
X35608Y-28790D01*
X35666Y-28829D01*
X35694Y-28905D01*
X35694Y-29324D01*
X36208Y-29286D02*
X36151Y-29324D01*
X36037Y-29324D01*
X35980Y-29286D01*
X35951Y-29210D01*
X35951Y-28905D01*
X35980Y-28829D01*
X36037Y-28790D01*
X36151Y-28790D01*
X36208Y-28829D01*
X36237Y-28905D01*
X36237Y-28981D01*
X35951Y-29057D01*
X36408Y-28790D02*
X36637Y-28790D01*
X36494Y-28524D02*
X36494Y-29210D01*
X36522Y-29286D01*
X36580Y-29324D01*
X36637Y-29324D01*
X37065Y-29286D02*
X37008Y-29324D01*
X36894Y-29324D01*
X36837Y-29286D01*
X36808Y-29210D01*
X36808Y-28905D01*
X36837Y-28829D01*
X36894Y-28790D01*
X37008Y-28790D01*
X37065Y-28829D01*
X37094Y-28905D01*
X37094Y-28981D01*
X36808Y-29057D01*
X37351Y-29324D02*
X37351Y-28790D01*
X37351Y-28943D02*
X37379Y-28867D01*
X37408Y-28829D01*
X37465Y-28790D01*
X37522Y-28790D01*
X38465Y-29324D02*
X38179Y-29324D01*
X38179Y-28524D01*
X38665Y-28905D02*
X38865Y-28905D01*
X38951Y-29324D02*
X38665Y-29324D01*
X38665Y-28524D01*
X38951Y-28524D01*
X39208Y-29324D02*
X39208Y-28524D01*
X39351Y-28524D01*
X39436Y-28562D01*
X39494Y-28638D01*
X39522Y-28714D01*
X39551Y-28867D01*
X39551Y-28981D01*
X39522Y-29133D01*
X39494Y-29210D01*
X39436Y-29286D01*
X39351Y-29324D01*
X39208Y-29324D01*
X40465Y-28905D02*
X40551Y-28943D01*
X40579Y-28981D01*
X40608Y-29057D01*
X40608Y-29171D01*
X40579Y-29248D01*
X40551Y-29286D01*
X40493Y-29324D01*
X40265Y-29324D01*
X40265Y-28524D01*
X40465Y-28524D01*
X40522Y-28562D01*
X40551Y-28600D01*
X40579Y-28676D01*
X40579Y-28752D01*
X40551Y-28829D01*
X40522Y-28867D01*
X40465Y-28905D01*
X40265Y-28905D01*
X40951Y-29324D02*
X40893Y-29286D01*
X40865Y-29248D01*
X40836Y-29171D01*
X40836Y-28943D01*
X40865Y-28867D01*
X40893Y-28829D01*
X40951Y-28790D01*
X41036Y-28790D01*
X41093Y-28829D01*
X41122Y-28867D01*
X41151Y-28943D01*
X41151Y-29171D01*
X41122Y-29248D01*
X41093Y-29286D01*
X41036Y-29324D01*
X40951Y-29324D01*
X41665Y-29324D02*
X41665Y-28905D01*
X41636Y-28829D01*
X41579Y-28790D01*
X41465Y-28790D01*
X41408Y-28829D01*
X41665Y-29286D02*
X41608Y-29324D01*
X41465Y-29324D01*
X41408Y-29286D01*
X41379Y-29210D01*
X41379Y-29133D01*
X41408Y-29057D01*
X41465Y-29019D01*
X41608Y-29019D01*
X41665Y-28981D01*
X41951Y-29324D02*
X41951Y-28790D01*
X41951Y-28943D02*
X41979Y-28867D01*
X42008Y-28829D01*
X42065Y-28790D01*
X42122Y-28790D01*
X42579Y-29324D02*
X42579Y-28524D01*
X42579Y-29286D02*
X42522Y-29324D01*
X42408Y-29324D01*
X42350Y-29286D01*
X42322Y-29248D01*
X42293Y-29171D01*
X42293Y-28943D01*
X42322Y-28867D01*
X42350Y-28829D01*
X42408Y-28790D01*
X42522Y-28790D01*
X42579Y-28829D01*
X43322Y-29324D02*
X43322Y-28524D01*
X43465Y-28524D01*
X43550Y-28562D01*
X43608Y-28638D01*
X43636Y-28714D01*
X43665Y-28867D01*
X43665Y-28981D01*
X43636Y-29133D01*
X43608Y-29210D01*
X43550Y-29286D01*
X43465Y-29324D01*
X43322Y-29324D01*
X44322Y-28790D02*
X44465Y-29324D01*
X44607Y-28790D01*
X45150Y-29324D02*
X44807Y-29324D01*
X44979Y-29324D02*
X44979Y-28524D01*
X44922Y-28638D01*
X44864Y-28714D01*
X44807Y-28752D01*
X45407Y-29248D02*
X45435Y-29286D01*
X45407Y-29324D01*
X45378Y-29286D01*
X45407Y-29248D01*
X45407Y-29324D01*
X45807Y-28524D02*
X45864Y-28524D01*
X45921Y-28562D01*
X45950Y-28600D01*
X45979Y-28676D01*
X46007Y-28829D01*
X46007Y-29019D01*
X45979Y-29171D01*
X45950Y-29248D01*
X45921Y-29286D01*
X45864Y-29324D01*
X45807Y-29324D01*
X45750Y-29286D01*
X45721Y-29248D01*
X45693Y-29171D01*
X45664Y-29019D01*
X45664Y-28829D01*
X45693Y-28676D01*
X45721Y-28600D01*
X45750Y-28562D01*
X45807Y-28524D01*
G54D13*
X40542Y-27311D02*
X41742Y-27311D01*
X41742Y-27311D02*
X41742Y-27611D01*
X41742Y-27611D02*
X40542Y-27611D01*
X40542Y-27611D02*
X40542Y-27311D01*
X32774Y-24350D02*
X32773Y-24359D01*
X32770Y-24369D01*
X32765Y-24377D01*
X32759Y-24385D01*
X32751Y-24391D01*
X32743Y-24396D01*
X32734Y-24398D01*
X32724Y-24399D01*
X32715Y-24399D01*
X32706Y-24396D01*
X32697Y-24391D01*
X32690Y-24385D01*
X32683Y-24378D01*
X32679Y-24369D01*
X32676Y-24360D01*
X32675Y-24350D01*
X32675Y-24341D01*
X32678Y-24332D01*
X32682Y-24323D01*
X32689Y-24316D01*
X32696Y-24309D01*
X32704Y-24305D01*
X32714Y-24302D01*
X32723Y-24301D01*
X32732Y-24301D01*
X32742Y-24304D01*
X32750Y-24308D01*
X32758Y-24314D01*
X32764Y-24322D01*
X32769Y-24330D01*
X32772Y-24339D01*
X32773Y-24349D01*
X32774Y-24350D01*
X32724Y-24800D02*
X32724Y-24400D01*
X32724Y-24400D02*
X33324Y-24400D01*
X33324Y-24400D02*
X33324Y-24800D01*
X33324Y-25200D02*
X33324Y-25600D01*
X33324Y-25600D02*
X32724Y-25600D01*
X32724Y-25600D02*
X32724Y-25200D01*
G54D14*
X42800Y-27344D02*
X42800Y-22944D01*
X42800Y-22944D02*
X48000Y-22944D01*
X48000Y-22944D02*
X48000Y-27344D01*
X48000Y-27344D02*
X42800Y-27344D01*
G54D11*
X39984Y-23819D02*
X39984Y-26181D01*
X39984Y-26181D02*
X38016Y-26181D01*
X38016Y-26181D02*
X38016Y-24055D01*
X38016Y-24055D02*
X38449Y-23819D01*
X38449Y-23819D02*
X39984Y-23819D01*
G54D15*
X41113Y-26661D02*
X41085Y-26647D01*
X41056Y-26618D01*
X41013Y-26575D01*
X40985Y-26561D01*
X40956Y-26561D01*
X40971Y-26632D02*
X40942Y-26618D01*
X40913Y-26590D01*
X40899Y-26532D01*
X40899Y-26432D01*
X40913Y-26375D01*
X40942Y-26347D01*
X40971Y-26332D01*
X41028Y-26332D01*
X41056Y-26347D01*
X41085Y-26375D01*
X41099Y-26432D01*
X41099Y-26532D01*
X41085Y-26590D01*
X41056Y-26618D01*
X41028Y-26632D01*
X40971Y-26632D01*
X41385Y-26632D02*
X41213Y-26632D01*
X41299Y-26632D02*
X41299Y-26332D01*
X41270Y-26375D01*
X41242Y-26404D01*
X41213Y-26418D01*
G54D13*
X32958Y-24101D02*
X32875Y-23982D01*
X32816Y-24101D02*
X32816Y-23851D01*
X32911Y-23851D01*
X32935Y-23863D01*
X32946Y-23875D01*
X32958Y-23899D01*
X32958Y-23935D01*
X32946Y-23958D01*
X32935Y-23970D01*
X32911Y-23982D01*
X32816Y-23982D01*
X33196Y-24101D02*
X33054Y-24101D01*
X33125Y-24101D02*
X33125Y-23851D01*
X33101Y-23887D01*
X33077Y-23911D01*
X33054Y-23923D01*
G54D12*
X44932Y-22586D02*
X44932Y-21986D01*
X45160Y-21986D01*
X45218Y-22014D01*
X45246Y-22043D01*
X45275Y-22100D01*
X45275Y-22186D01*
X45246Y-22243D01*
X45218Y-22272D01*
X45160Y-22300D01*
X44932Y-22300D01*
X45846Y-22586D02*
X45503Y-22586D01*
X45675Y-22586D02*
X45675Y-21986D01*
X45618Y-22072D01*
X45560Y-22129D01*
X45503Y-22157D01*
X38534Y-23471D02*
X38534Y-22871D01*
X38677Y-22871D01*
X38762Y-22899D01*
X38820Y-22957D01*
X38848Y-23014D01*
X38877Y-23128D01*
X38877Y-23214D01*
X38848Y-23328D01*
X38820Y-23385D01*
X38762Y-23442D01*
X38677Y-23471D01*
X38534Y-23471D01*
X39448Y-23471D02*
X39105Y-23471D01*
X39277Y-23471D02*
X39277Y-22871D01*
X39220Y-22957D01*
X39162Y-23014D01*
X39105Y-23042D01*
M02*
