G04 (created by PCBNEW-RS274X (2012-apr-16-27)-stable) date Thu 15 May 2014 11:09:12 AM PDT*
G01*
G70*
G90*
%MOIN*%
G04 Gerber Fmt 3.4, Leading zero omitted, Abs format*
%FSLAX34Y34*%
G04 APERTURE LIST*
%ADD10C,0.006000*%
%ADD11C,0.130000*%
%ADD12R,0.036000X0.036000*%
%ADD13R,0.055000X0.035000*%
%ADD14R,0.250000X0.050000*%
%ADD15R,0.078700X0.051200*%
%ADD16C,0.025000*%
%ADD17C,0.010000*%
G04 APERTURE END LIST*
G54D10*
G54D11*
X31000Y-21000D03*
X31000Y-29000D03*
X47000Y-29000D03*
X47000Y-21000D03*
G54D12*
X40792Y-27061D03*
X41492Y-27061D03*
X41142Y-27861D03*
G54D13*
X33024Y-24625D03*
X33024Y-25375D03*
G54D14*
X44402Y-26644D03*
X46398Y-25644D03*
X44402Y-24644D03*
X46398Y-23644D03*
G54D15*
X38134Y-24370D03*
X39866Y-24370D03*
X38134Y-25000D03*
X39866Y-25000D03*
X38134Y-25630D03*
X39866Y-25630D03*
G54D16*
X44970Y-26144D02*
X45822Y-26144D01*
X44898Y-26072D02*
X44970Y-26144D01*
X44898Y-25644D02*
X44898Y-26072D01*
X46398Y-25644D02*
X44898Y-25644D01*
X45730Y-27861D02*
X41142Y-27861D01*
X45894Y-27697D02*
X45730Y-27861D01*
X45894Y-26216D02*
X45894Y-27697D01*
X45822Y-26144D02*
X45894Y-26216D01*
X42339Y-26644D02*
X41922Y-27061D01*
X44402Y-26644D02*
X42339Y-26644D01*
X41492Y-27061D02*
X41922Y-27061D01*
X33580Y-23644D02*
X33024Y-24200D01*
X46398Y-23644D02*
X33580Y-23644D01*
X33024Y-24625D02*
X33024Y-24200D01*
X37116Y-25375D02*
X33024Y-25375D01*
X37491Y-25000D02*
X37116Y-25375D01*
X38134Y-25000D02*
X37491Y-25000D01*
X40510Y-26349D02*
X40792Y-26631D01*
X40510Y-25000D02*
X40510Y-26349D01*
X39866Y-25000D02*
X40510Y-25000D01*
X40792Y-27061D02*
X40792Y-26631D01*
G54D10*
G36*
X47675Y-28402D02*
X47511Y-28238D01*
X47180Y-28100D01*
X46822Y-28100D01*
X46491Y-28237D01*
X46238Y-28489D01*
X46100Y-28820D01*
X46100Y-29178D01*
X46237Y-29509D01*
X46402Y-29675D01*
X38776Y-29675D01*
X38776Y-25936D01*
X38776Y-25837D01*
X38776Y-25325D01*
X38772Y-25315D01*
X38776Y-25306D01*
X38776Y-25207D01*
X38776Y-24695D01*
X38772Y-24685D01*
X38776Y-24676D01*
X38776Y-24577D01*
X38776Y-24065D01*
X38738Y-23973D01*
X38668Y-23903D01*
X38577Y-23865D01*
X38478Y-23865D01*
X37692Y-23865D01*
X37600Y-23903D01*
X37530Y-23973D01*
X37492Y-24064D01*
X37492Y-24163D01*
X37492Y-24625D01*
X37491Y-24625D01*
X37347Y-24654D01*
X37226Y-24735D01*
X36961Y-25000D01*
X33451Y-25000D01*
X33510Y-24941D01*
X33548Y-24849D01*
X33549Y-24737D01*
X33549Y-24513D01*
X33548Y-24401D01*
X33510Y-24309D01*
X33440Y-24239D01*
X33349Y-24201D01*
X33250Y-24201D01*
X33136Y-24200D01*
X33074Y-24262D01*
X33074Y-24575D01*
X33487Y-24575D01*
X33549Y-24513D01*
X33549Y-24737D01*
X33487Y-24675D01*
X33124Y-24675D01*
X33074Y-24675D01*
X32974Y-24675D01*
X32974Y-24575D01*
X32974Y-24262D01*
X32912Y-24200D01*
X32798Y-24201D01*
X32699Y-24201D01*
X32608Y-24239D01*
X32538Y-24309D01*
X32500Y-24401D01*
X32499Y-24513D01*
X32561Y-24575D01*
X32974Y-24575D01*
X32974Y-24675D01*
X32924Y-24675D01*
X32561Y-24675D01*
X32499Y-24737D01*
X32500Y-24849D01*
X32538Y-24941D01*
X32597Y-25000D01*
X32538Y-25059D01*
X32500Y-25150D01*
X32500Y-25249D01*
X32500Y-25599D01*
X32538Y-25691D01*
X32608Y-25761D01*
X32699Y-25799D01*
X32798Y-25799D01*
X33348Y-25799D01*
X33440Y-25761D01*
X33451Y-25750D01*
X37116Y-25750D01*
X37259Y-25721D01*
X37260Y-25721D01*
X37381Y-25640D01*
X37492Y-25529D01*
X37492Y-25935D01*
X37530Y-26027D01*
X37600Y-26097D01*
X37691Y-26135D01*
X37790Y-26135D01*
X38576Y-26135D01*
X38668Y-26097D01*
X38738Y-26027D01*
X38776Y-25936D01*
X38776Y-29675D01*
X31597Y-29675D01*
X31762Y-29511D01*
X31900Y-29180D01*
X31900Y-28822D01*
X31763Y-28491D01*
X31511Y-28238D01*
X31180Y-28100D01*
X30822Y-28100D01*
X30491Y-28237D01*
X30325Y-28402D01*
X30325Y-21597D01*
X30489Y-21762D01*
X30820Y-21900D01*
X31178Y-21900D01*
X31509Y-21763D01*
X31762Y-21511D01*
X31900Y-21180D01*
X31900Y-20822D01*
X31763Y-20491D01*
X31597Y-20325D01*
X46402Y-20325D01*
X46238Y-20489D01*
X46100Y-20820D01*
X46100Y-21178D01*
X46237Y-21509D01*
X46489Y-21762D01*
X46820Y-21900D01*
X47178Y-21900D01*
X47509Y-21763D01*
X47675Y-21597D01*
X47675Y-23145D01*
X47599Y-23145D01*
X46510Y-23144D01*
X46448Y-23206D01*
X46448Y-23544D01*
X46448Y-23594D01*
X46448Y-23694D01*
X46448Y-23744D01*
X46448Y-24082D01*
X46510Y-24144D01*
X47599Y-24143D01*
X47675Y-24143D01*
X47675Y-25145D01*
X47599Y-25145D01*
X46348Y-25145D01*
X46348Y-24082D01*
X46348Y-23694D01*
X46348Y-23594D01*
X46348Y-23206D01*
X46286Y-23144D01*
X45197Y-23145D01*
X45098Y-23145D01*
X45007Y-23183D01*
X44937Y-23253D01*
X44899Y-23345D01*
X44898Y-23532D01*
X44960Y-23594D01*
X46348Y-23594D01*
X46348Y-23694D01*
X44960Y-23694D01*
X44898Y-23756D01*
X44899Y-23943D01*
X44937Y-24035D01*
X45007Y-24105D01*
X45098Y-24143D01*
X45197Y-24143D01*
X46286Y-24144D01*
X46348Y-24082D01*
X46348Y-25145D01*
X45901Y-25145D01*
X45901Y-24944D01*
X45901Y-24845D01*
X45901Y-24345D01*
X45863Y-24253D01*
X45793Y-24183D01*
X45702Y-24145D01*
X45603Y-24145D01*
X43103Y-24145D01*
X43011Y-24183D01*
X42941Y-24253D01*
X42903Y-24344D01*
X42903Y-24443D01*
X42903Y-24943D01*
X42941Y-25035D01*
X43011Y-25105D01*
X43102Y-25143D01*
X43201Y-25143D01*
X45701Y-25143D01*
X45793Y-25105D01*
X45863Y-25035D01*
X45901Y-24944D01*
X45901Y-25145D01*
X45099Y-25145D01*
X45007Y-25183D01*
X44937Y-25253D01*
X44930Y-25269D01*
X44898Y-25269D01*
X44754Y-25298D01*
X44633Y-25379D01*
X44552Y-25500D01*
X44523Y-25644D01*
X44523Y-26072D01*
X44537Y-26145D01*
X43103Y-26145D01*
X43011Y-26183D01*
X42941Y-26253D01*
X42934Y-26269D01*
X42339Y-26269D01*
X42195Y-26298D01*
X42134Y-26338D01*
X42073Y-26379D01*
X41791Y-26661D01*
X41722Y-26632D01*
X41623Y-26632D01*
X41263Y-26632D01*
X41171Y-26670D01*
X41167Y-26674D01*
X41167Y-26631D01*
X41166Y-26630D01*
X41138Y-26488D01*
X41138Y-26487D01*
X41097Y-26426D01*
X41057Y-26366D01*
X41057Y-26365D01*
X40885Y-26193D01*
X40885Y-25000D01*
X40856Y-24856D01*
X40775Y-24735D01*
X40654Y-24654D01*
X40510Y-24625D01*
X40508Y-24625D01*
X40508Y-24577D01*
X40508Y-24065D01*
X40470Y-23973D01*
X40400Y-23903D01*
X40309Y-23865D01*
X40210Y-23865D01*
X39424Y-23865D01*
X39332Y-23903D01*
X39262Y-23973D01*
X39224Y-24064D01*
X39224Y-24163D01*
X39224Y-24675D01*
X39227Y-24684D01*
X39224Y-24694D01*
X39224Y-24793D01*
X39224Y-25305D01*
X39227Y-25314D01*
X39224Y-25324D01*
X39224Y-25423D01*
X39224Y-25935D01*
X39262Y-26027D01*
X39332Y-26097D01*
X39423Y-26135D01*
X39522Y-26135D01*
X40135Y-26135D01*
X40135Y-26349D01*
X40164Y-26493D01*
X40245Y-26614D01*
X40392Y-26761D01*
X40363Y-26831D01*
X40363Y-26930D01*
X40363Y-27290D01*
X40401Y-27382D01*
X40471Y-27452D01*
X40562Y-27490D01*
X40661Y-27490D01*
X40801Y-27490D01*
X40751Y-27540D01*
X40713Y-27631D01*
X40713Y-27730D01*
X40713Y-28090D01*
X40751Y-28182D01*
X40821Y-28252D01*
X40912Y-28290D01*
X41011Y-28290D01*
X41371Y-28290D01*
X41463Y-28252D01*
X41479Y-28236D01*
X45730Y-28236D01*
X45873Y-28207D01*
X45874Y-28207D01*
X45995Y-28126D01*
X46159Y-27963D01*
X46159Y-27962D01*
X46199Y-27901D01*
X46240Y-27841D01*
X46240Y-27840D01*
X46268Y-27698D01*
X46269Y-27697D01*
X46269Y-26216D01*
X46268Y-26215D01*
X46254Y-26143D01*
X47675Y-26143D01*
X47675Y-28402D01*
X47675Y-28402D01*
G37*
G54D17*
X47675Y-28402D02*
X47511Y-28238D01*
X47180Y-28100D01*
X46822Y-28100D01*
X46491Y-28237D01*
X46238Y-28489D01*
X46100Y-28820D01*
X46100Y-29178D01*
X46237Y-29509D01*
X46402Y-29675D01*
X38776Y-29675D01*
X38776Y-25936D01*
X38776Y-25837D01*
X38776Y-25325D01*
X38772Y-25315D01*
X38776Y-25306D01*
X38776Y-25207D01*
X38776Y-24695D01*
X38772Y-24685D01*
X38776Y-24676D01*
X38776Y-24577D01*
X38776Y-24065D01*
X38738Y-23973D01*
X38668Y-23903D01*
X38577Y-23865D01*
X38478Y-23865D01*
X37692Y-23865D01*
X37600Y-23903D01*
X37530Y-23973D01*
X37492Y-24064D01*
X37492Y-24163D01*
X37492Y-24625D01*
X37491Y-24625D01*
X37347Y-24654D01*
X37226Y-24735D01*
X36961Y-25000D01*
X33451Y-25000D01*
X33510Y-24941D01*
X33548Y-24849D01*
X33549Y-24737D01*
X33549Y-24513D01*
X33548Y-24401D01*
X33510Y-24309D01*
X33440Y-24239D01*
X33349Y-24201D01*
X33250Y-24201D01*
X33136Y-24200D01*
X33074Y-24262D01*
X33074Y-24575D01*
X33487Y-24575D01*
X33549Y-24513D01*
X33549Y-24737D01*
X33487Y-24675D01*
X33124Y-24675D01*
X33074Y-24675D01*
X32974Y-24675D01*
X32974Y-24575D01*
X32974Y-24262D01*
X32912Y-24200D01*
X32798Y-24201D01*
X32699Y-24201D01*
X32608Y-24239D01*
X32538Y-24309D01*
X32500Y-24401D01*
X32499Y-24513D01*
X32561Y-24575D01*
X32974Y-24575D01*
X32974Y-24675D01*
X32924Y-24675D01*
X32561Y-24675D01*
X32499Y-24737D01*
X32500Y-24849D01*
X32538Y-24941D01*
X32597Y-25000D01*
X32538Y-25059D01*
X32500Y-25150D01*
X32500Y-25249D01*
X32500Y-25599D01*
X32538Y-25691D01*
X32608Y-25761D01*
X32699Y-25799D01*
X32798Y-25799D01*
X33348Y-25799D01*
X33440Y-25761D01*
X33451Y-25750D01*
X37116Y-25750D01*
X37259Y-25721D01*
X37260Y-25721D01*
X37381Y-25640D01*
X37492Y-25529D01*
X37492Y-25935D01*
X37530Y-26027D01*
X37600Y-26097D01*
X37691Y-26135D01*
X37790Y-26135D01*
X38576Y-26135D01*
X38668Y-26097D01*
X38738Y-26027D01*
X38776Y-25936D01*
X38776Y-29675D01*
X31597Y-29675D01*
X31762Y-29511D01*
X31900Y-29180D01*
X31900Y-28822D01*
X31763Y-28491D01*
X31511Y-28238D01*
X31180Y-28100D01*
X30822Y-28100D01*
X30491Y-28237D01*
X30325Y-28402D01*
X30325Y-21597D01*
X30489Y-21762D01*
X30820Y-21900D01*
X31178Y-21900D01*
X31509Y-21763D01*
X31762Y-21511D01*
X31900Y-21180D01*
X31900Y-20822D01*
X31763Y-20491D01*
X31597Y-20325D01*
X46402Y-20325D01*
X46238Y-20489D01*
X46100Y-20820D01*
X46100Y-21178D01*
X46237Y-21509D01*
X46489Y-21762D01*
X46820Y-21900D01*
X47178Y-21900D01*
X47509Y-21763D01*
X47675Y-21597D01*
X47675Y-23145D01*
X47599Y-23145D01*
X46510Y-23144D01*
X46448Y-23206D01*
X46448Y-23544D01*
X46448Y-23594D01*
X46448Y-23694D01*
X46448Y-23744D01*
X46448Y-24082D01*
X46510Y-24144D01*
X47599Y-24143D01*
X47675Y-24143D01*
X47675Y-25145D01*
X47599Y-25145D01*
X46348Y-25145D01*
X46348Y-24082D01*
X46348Y-23694D01*
X46348Y-23594D01*
X46348Y-23206D01*
X46286Y-23144D01*
X45197Y-23145D01*
X45098Y-23145D01*
X45007Y-23183D01*
X44937Y-23253D01*
X44899Y-23345D01*
X44898Y-23532D01*
X44960Y-23594D01*
X46348Y-23594D01*
X46348Y-23694D01*
X44960Y-23694D01*
X44898Y-23756D01*
X44899Y-23943D01*
X44937Y-24035D01*
X45007Y-24105D01*
X45098Y-24143D01*
X45197Y-24143D01*
X46286Y-24144D01*
X46348Y-24082D01*
X46348Y-25145D01*
X45901Y-25145D01*
X45901Y-24944D01*
X45901Y-24845D01*
X45901Y-24345D01*
X45863Y-24253D01*
X45793Y-24183D01*
X45702Y-24145D01*
X45603Y-24145D01*
X43103Y-24145D01*
X43011Y-24183D01*
X42941Y-24253D01*
X42903Y-24344D01*
X42903Y-24443D01*
X42903Y-24943D01*
X42941Y-25035D01*
X43011Y-25105D01*
X43102Y-25143D01*
X43201Y-25143D01*
X45701Y-25143D01*
X45793Y-25105D01*
X45863Y-25035D01*
X45901Y-24944D01*
X45901Y-25145D01*
X45099Y-25145D01*
X45007Y-25183D01*
X44937Y-25253D01*
X44930Y-25269D01*
X44898Y-25269D01*
X44754Y-25298D01*
X44633Y-25379D01*
X44552Y-25500D01*
X44523Y-25644D01*
X44523Y-26072D01*
X44537Y-26145D01*
X43103Y-26145D01*
X43011Y-26183D01*
X42941Y-26253D01*
X42934Y-26269D01*
X42339Y-26269D01*
X42195Y-26298D01*
X42134Y-26338D01*
X42073Y-26379D01*
X41791Y-26661D01*
X41722Y-26632D01*
X41623Y-26632D01*
X41263Y-26632D01*
X41171Y-26670D01*
X41167Y-26674D01*
X41167Y-26631D01*
X41166Y-26630D01*
X41138Y-26488D01*
X41138Y-26487D01*
X41097Y-26426D01*
X41057Y-26366D01*
X41057Y-26365D01*
X40885Y-26193D01*
X40885Y-25000D01*
X40856Y-24856D01*
X40775Y-24735D01*
X40654Y-24654D01*
X40510Y-24625D01*
X40508Y-24625D01*
X40508Y-24577D01*
X40508Y-24065D01*
X40470Y-23973D01*
X40400Y-23903D01*
X40309Y-23865D01*
X40210Y-23865D01*
X39424Y-23865D01*
X39332Y-23903D01*
X39262Y-23973D01*
X39224Y-24064D01*
X39224Y-24163D01*
X39224Y-24675D01*
X39227Y-24684D01*
X39224Y-24694D01*
X39224Y-24793D01*
X39224Y-25305D01*
X39227Y-25314D01*
X39224Y-25324D01*
X39224Y-25423D01*
X39224Y-25935D01*
X39262Y-26027D01*
X39332Y-26097D01*
X39423Y-26135D01*
X39522Y-26135D01*
X40135Y-26135D01*
X40135Y-26349D01*
X40164Y-26493D01*
X40245Y-26614D01*
X40392Y-26761D01*
X40363Y-26831D01*
X40363Y-26930D01*
X40363Y-27290D01*
X40401Y-27382D01*
X40471Y-27452D01*
X40562Y-27490D01*
X40661Y-27490D01*
X40801Y-27490D01*
X40751Y-27540D01*
X40713Y-27631D01*
X40713Y-27730D01*
X40713Y-28090D01*
X40751Y-28182D01*
X40821Y-28252D01*
X40912Y-28290D01*
X41011Y-28290D01*
X41371Y-28290D01*
X41463Y-28252D01*
X41479Y-28236D01*
X45730Y-28236D01*
X45873Y-28207D01*
X45874Y-28207D01*
X45995Y-28126D01*
X46159Y-27963D01*
X46159Y-27962D01*
X46199Y-27901D01*
X46240Y-27841D01*
X46240Y-27840D01*
X46268Y-27698D01*
X46269Y-27697D01*
X46269Y-26216D01*
X46268Y-26215D01*
X46254Y-26143D01*
X47675Y-26143D01*
X47675Y-28402D01*
M02*
