G04 (created by PCBNEW-RS274X (2011-07-19)-testing) date Fri 10 Feb 2012 01:30:19 PM PST*
G01*
G70*
G90*
%MOIN*%
G04 Gerber Fmt 3.4, Leading zero omitted, Abs format*
%FSLAX34Y34*%
G04 APERTURE LIST*
%ADD10C,0.006000*%
%ADD11O,0.060000X0.100000*%
%ADD12R,0.070000X0.070000*%
%ADD13C,0.070000*%
%ADD14C,0.012000*%
%ADD15C,0.010000*%
G04 APERTURE END LIST*
G54D10*
G54D11*
X74651Y-50501D03*
X73651Y-50501D03*
X72651Y-50501D03*
X69651Y-50501D03*
X70651Y-50501D03*
X71651Y-50501D03*
X67651Y-50501D03*
X66651Y-50501D03*
X65651Y-50501D03*
X63651Y-50501D03*
X62651Y-50501D03*
X74651Y-31501D03*
X73651Y-31501D03*
X72651Y-31501D03*
X71651Y-31501D03*
X70651Y-31501D03*
X69651Y-31501D03*
X68651Y-31501D03*
X67651Y-31501D03*
X66051Y-31501D03*
X65051Y-31501D03*
X64051Y-31501D03*
X63051Y-31501D03*
X62051Y-31501D03*
X61051Y-31501D03*
X60051Y-31501D03*
X59051Y-31501D03*
X64651Y-50501D03*
G54D12*
X66250Y-39000D03*
G54D13*
X67250Y-39000D03*
X66250Y-40000D03*
X67250Y-40000D03*
X66250Y-41000D03*
X67250Y-41000D03*
X66250Y-42000D03*
X67250Y-42000D03*
X66250Y-43000D03*
X67250Y-43000D03*
G54D14*
X64651Y-40599D02*
X64651Y-50501D01*
X66250Y-39000D02*
X64651Y-40599D01*
X65051Y-31501D02*
X65051Y-32164D01*
X68010Y-35123D02*
X65051Y-32164D01*
X68010Y-40240D02*
X68010Y-35123D01*
X67250Y-41000D02*
X68010Y-40240D01*
X66051Y-31501D02*
X66051Y-32164D01*
X68233Y-34346D02*
X66051Y-32164D01*
X68233Y-41017D02*
X68233Y-34346D01*
X67250Y-42000D02*
X68233Y-41017D01*
X67786Y-35899D02*
X64051Y-32164D01*
X67786Y-39464D02*
X67786Y-35899D01*
X67250Y-40000D02*
X67786Y-39464D01*
X64051Y-31501D02*
X64051Y-32164D01*
X67250Y-39000D02*
X67250Y-36443D01*
X63051Y-32244D02*
X63051Y-31501D01*
X67250Y-36443D02*
X63051Y-32244D01*
X67651Y-31501D02*
X67651Y-32164D01*
X68456Y-32969D02*
X67651Y-32164D01*
X68456Y-41794D02*
X68456Y-32969D01*
X67250Y-43000D02*
X68456Y-41794D01*
X65651Y-40599D02*
X65651Y-50501D01*
X66250Y-40000D02*
X65651Y-40599D01*
G54D10*
G36*
X66940Y-38480D02*
X66911Y-38492D01*
X66835Y-38567D01*
X66811Y-38509D01*
X66741Y-38439D01*
X66650Y-38401D01*
X66551Y-38401D01*
X65851Y-38401D01*
X65759Y-38439D01*
X65689Y-38509D01*
X65651Y-38600D01*
X65651Y-38699D01*
X65651Y-39161D01*
X64432Y-40380D01*
X64365Y-40480D01*
X64341Y-40599D01*
X64341Y-49833D01*
X64194Y-49981D01*
X64151Y-50083D01*
X64109Y-49981D01*
X63957Y-49830D01*
X63759Y-49747D01*
X63544Y-49747D01*
X63345Y-49829D01*
X63194Y-49981D01*
X63151Y-50083D01*
X63109Y-49981D01*
X62957Y-49830D01*
X62759Y-49747D01*
X62544Y-49747D01*
X62345Y-49829D01*
X62194Y-49981D01*
X62111Y-50179D01*
X62111Y-50394D01*
X62111Y-50822D01*
X62193Y-51021D01*
X62345Y-51172D01*
X62352Y-51175D01*
X58175Y-51175D01*
X58175Y-30825D01*
X58754Y-30825D01*
X58745Y-30829D01*
X58594Y-30981D01*
X58511Y-31179D01*
X58511Y-31394D01*
X58511Y-31822D01*
X58593Y-32021D01*
X58745Y-32172D01*
X58943Y-32255D01*
X59158Y-32255D01*
X59357Y-32173D01*
X59508Y-32021D01*
X59550Y-31919D01*
X59562Y-31958D01*
X59698Y-32126D01*
X59888Y-32229D01*
X59916Y-32233D01*
X60001Y-32186D01*
X60001Y-31601D01*
X60001Y-31551D01*
X60001Y-31451D01*
X60101Y-31451D01*
X60101Y-31551D01*
X60101Y-31601D01*
X60101Y-32186D01*
X60186Y-32233D01*
X60214Y-32229D01*
X60404Y-32126D01*
X60540Y-31958D01*
X60551Y-31919D01*
X60593Y-32021D01*
X60745Y-32172D01*
X60943Y-32255D01*
X61158Y-32255D01*
X61357Y-32173D01*
X61508Y-32021D01*
X61550Y-31918D01*
X61593Y-32021D01*
X61745Y-32172D01*
X61943Y-32255D01*
X62158Y-32255D01*
X62357Y-32173D01*
X62508Y-32021D01*
X62550Y-31918D01*
X62593Y-32021D01*
X62741Y-32168D01*
X62741Y-32244D01*
X62765Y-32363D01*
X62832Y-32463D01*
X66940Y-36571D01*
X66940Y-38480D01*
X66940Y-38480D01*
G37*
G54D15*
X66940Y-38480D02*
X66911Y-38492D01*
X66835Y-38567D01*
X66811Y-38509D01*
X66741Y-38439D01*
X66650Y-38401D01*
X66551Y-38401D01*
X65851Y-38401D01*
X65759Y-38439D01*
X65689Y-38509D01*
X65651Y-38600D01*
X65651Y-38699D01*
X65651Y-39161D01*
X64432Y-40380D01*
X64365Y-40480D01*
X64341Y-40599D01*
X64341Y-49833D01*
X64194Y-49981D01*
X64151Y-50083D01*
X64109Y-49981D01*
X63957Y-49830D01*
X63759Y-49747D01*
X63544Y-49747D01*
X63345Y-49829D01*
X63194Y-49981D01*
X63151Y-50083D01*
X63109Y-49981D01*
X62957Y-49830D01*
X62759Y-49747D01*
X62544Y-49747D01*
X62345Y-49829D01*
X62194Y-49981D01*
X62111Y-50179D01*
X62111Y-50394D01*
X62111Y-50822D01*
X62193Y-51021D01*
X62345Y-51172D01*
X62352Y-51175D01*
X58175Y-51175D01*
X58175Y-30825D01*
X58754Y-30825D01*
X58745Y-30829D01*
X58594Y-30981D01*
X58511Y-31179D01*
X58511Y-31394D01*
X58511Y-31822D01*
X58593Y-32021D01*
X58745Y-32172D01*
X58943Y-32255D01*
X59158Y-32255D01*
X59357Y-32173D01*
X59508Y-32021D01*
X59550Y-31919D01*
X59562Y-31958D01*
X59698Y-32126D01*
X59888Y-32229D01*
X59916Y-32233D01*
X60001Y-32186D01*
X60001Y-31601D01*
X60001Y-31551D01*
X60001Y-31451D01*
X60101Y-31451D01*
X60101Y-31551D01*
X60101Y-31601D01*
X60101Y-32186D01*
X60186Y-32233D01*
X60214Y-32229D01*
X60404Y-32126D01*
X60540Y-31958D01*
X60551Y-31919D01*
X60593Y-32021D01*
X60745Y-32172D01*
X60943Y-32255D01*
X61158Y-32255D01*
X61357Y-32173D01*
X61508Y-32021D01*
X61550Y-31918D01*
X61593Y-32021D01*
X61745Y-32172D01*
X61943Y-32255D01*
X62158Y-32255D01*
X62357Y-32173D01*
X62508Y-32021D01*
X62550Y-31918D01*
X62593Y-32021D01*
X62741Y-32168D01*
X62741Y-32244D01*
X62765Y-32363D01*
X62832Y-32463D01*
X66940Y-36571D01*
X66940Y-38480D01*
G54D10*
G36*
X75325Y-51175D02*
X74952Y-51175D01*
X74957Y-51173D01*
X75108Y-51021D01*
X75191Y-50823D01*
X75191Y-50608D01*
X75191Y-50180D01*
X75109Y-49981D01*
X74957Y-49830D01*
X74759Y-49747D01*
X74544Y-49747D01*
X74345Y-49829D01*
X74194Y-49981D01*
X74151Y-50083D01*
X74109Y-49981D01*
X73957Y-49830D01*
X73759Y-49747D01*
X73544Y-49747D01*
X73345Y-49829D01*
X73194Y-49981D01*
X73151Y-50083D01*
X73109Y-49981D01*
X72957Y-49830D01*
X72759Y-49747D01*
X72544Y-49747D01*
X72345Y-49829D01*
X72194Y-49981D01*
X72151Y-50083D01*
X72109Y-49981D01*
X71957Y-49830D01*
X71759Y-49747D01*
X71544Y-49747D01*
X71345Y-49829D01*
X71194Y-49981D01*
X71151Y-50083D01*
X71109Y-49981D01*
X70957Y-49830D01*
X70759Y-49747D01*
X70544Y-49747D01*
X70345Y-49829D01*
X70194Y-49981D01*
X70151Y-50083D01*
X70109Y-49981D01*
X69957Y-49830D01*
X69759Y-49747D01*
X69544Y-49747D01*
X69345Y-49829D01*
X69194Y-49981D01*
X69111Y-50179D01*
X69111Y-50394D01*
X69111Y-50822D01*
X69193Y-51021D01*
X69345Y-51172D01*
X69352Y-51175D01*
X67952Y-51175D01*
X67957Y-51173D01*
X68108Y-51021D01*
X68191Y-50823D01*
X68191Y-50608D01*
X68191Y-50180D01*
X68109Y-49981D01*
X67957Y-49830D01*
X67759Y-49747D01*
X67544Y-49747D01*
X67345Y-49829D01*
X67194Y-49981D01*
X67151Y-50083D01*
X67109Y-49981D01*
X66957Y-49830D01*
X66759Y-49747D01*
X66544Y-49747D01*
X66345Y-49829D01*
X66194Y-49981D01*
X66151Y-50082D01*
X66140Y-50044D01*
X66004Y-49876D01*
X65814Y-49773D01*
X65786Y-49769D01*
X65701Y-49816D01*
X65701Y-50401D01*
X65701Y-50451D01*
X65701Y-50551D01*
X65601Y-50551D01*
X65601Y-50451D01*
X65601Y-50401D01*
X65601Y-49816D01*
X65516Y-49769D01*
X65488Y-49773D01*
X65298Y-49876D01*
X65162Y-50044D01*
X65150Y-50082D01*
X65109Y-49981D01*
X64961Y-49833D01*
X64961Y-40727D01*
X65662Y-40025D01*
X65668Y-40144D01*
X65737Y-40310D01*
X65836Y-40343D01*
X66144Y-40035D01*
X66179Y-40000D01*
X66250Y-39929D01*
X66321Y-40000D01*
X66356Y-40035D01*
X66664Y-40343D01*
X66734Y-40319D01*
X66742Y-40339D01*
X66903Y-40500D01*
X66750Y-40653D01*
X66589Y-40492D01*
X66569Y-40484D01*
X66593Y-40414D01*
X66250Y-40071D01*
X65907Y-40414D01*
X65930Y-40484D01*
X65911Y-40492D01*
X65742Y-40661D01*
X65651Y-40881D01*
X65651Y-41119D01*
X65742Y-41339D01*
X65903Y-41500D01*
X65742Y-41661D01*
X65651Y-41881D01*
X65651Y-42119D01*
X65742Y-42339D01*
X65903Y-42500D01*
X65742Y-42661D01*
X65651Y-42881D01*
X65651Y-43119D01*
X65742Y-43339D01*
X65911Y-43508D01*
X66131Y-43599D01*
X66369Y-43599D01*
X66589Y-43508D01*
X66750Y-43347D01*
X66911Y-43508D01*
X67131Y-43599D01*
X67369Y-43599D01*
X67589Y-43508D01*
X67758Y-43339D01*
X67849Y-43119D01*
X67849Y-42881D01*
X67836Y-42851D01*
X68675Y-42014D01*
X68675Y-42013D01*
X68708Y-41963D01*
X68742Y-41913D01*
X68742Y-41912D01*
X68765Y-41794D01*
X68766Y-41794D01*
X68766Y-32969D01*
X68742Y-32851D01*
X68742Y-32850D01*
X68708Y-32800D01*
X68675Y-32750D01*
X68675Y-32749D01*
X68027Y-32102D01*
X68108Y-32021D01*
X68150Y-31918D01*
X68193Y-32021D01*
X68345Y-32172D01*
X68543Y-32255D01*
X68758Y-32255D01*
X68957Y-32173D01*
X69108Y-32021D01*
X69150Y-31918D01*
X69193Y-32021D01*
X69345Y-32172D01*
X69543Y-32255D01*
X69758Y-32255D01*
X69957Y-32173D01*
X70108Y-32021D01*
X70150Y-31918D01*
X70193Y-32021D01*
X70345Y-32172D01*
X70543Y-32255D01*
X70758Y-32255D01*
X70957Y-32173D01*
X71108Y-32021D01*
X71150Y-31918D01*
X71193Y-32021D01*
X71345Y-32172D01*
X71543Y-32255D01*
X71758Y-32255D01*
X71957Y-32173D01*
X72108Y-32021D01*
X72150Y-31918D01*
X72193Y-32021D01*
X72345Y-32172D01*
X72543Y-32255D01*
X72758Y-32255D01*
X72957Y-32173D01*
X73108Y-32021D01*
X73150Y-31918D01*
X73193Y-32021D01*
X73345Y-32172D01*
X73543Y-32255D01*
X73758Y-32255D01*
X73957Y-32173D01*
X74108Y-32021D01*
X74150Y-31918D01*
X74193Y-32021D01*
X74345Y-32172D01*
X74543Y-32255D01*
X74758Y-32255D01*
X74957Y-32173D01*
X75108Y-32021D01*
X75191Y-31823D01*
X75191Y-31608D01*
X75191Y-31180D01*
X75109Y-30981D01*
X74957Y-30830D01*
X74945Y-30825D01*
X75325Y-30825D01*
X75325Y-51175D01*
X75325Y-51175D01*
G37*
G54D15*
X75325Y-51175D02*
X74952Y-51175D01*
X74957Y-51173D01*
X75108Y-51021D01*
X75191Y-50823D01*
X75191Y-50608D01*
X75191Y-50180D01*
X75109Y-49981D01*
X74957Y-49830D01*
X74759Y-49747D01*
X74544Y-49747D01*
X74345Y-49829D01*
X74194Y-49981D01*
X74151Y-50083D01*
X74109Y-49981D01*
X73957Y-49830D01*
X73759Y-49747D01*
X73544Y-49747D01*
X73345Y-49829D01*
X73194Y-49981D01*
X73151Y-50083D01*
X73109Y-49981D01*
X72957Y-49830D01*
X72759Y-49747D01*
X72544Y-49747D01*
X72345Y-49829D01*
X72194Y-49981D01*
X72151Y-50083D01*
X72109Y-49981D01*
X71957Y-49830D01*
X71759Y-49747D01*
X71544Y-49747D01*
X71345Y-49829D01*
X71194Y-49981D01*
X71151Y-50083D01*
X71109Y-49981D01*
X70957Y-49830D01*
X70759Y-49747D01*
X70544Y-49747D01*
X70345Y-49829D01*
X70194Y-49981D01*
X70151Y-50083D01*
X70109Y-49981D01*
X69957Y-49830D01*
X69759Y-49747D01*
X69544Y-49747D01*
X69345Y-49829D01*
X69194Y-49981D01*
X69111Y-50179D01*
X69111Y-50394D01*
X69111Y-50822D01*
X69193Y-51021D01*
X69345Y-51172D01*
X69352Y-51175D01*
X67952Y-51175D01*
X67957Y-51173D01*
X68108Y-51021D01*
X68191Y-50823D01*
X68191Y-50608D01*
X68191Y-50180D01*
X68109Y-49981D01*
X67957Y-49830D01*
X67759Y-49747D01*
X67544Y-49747D01*
X67345Y-49829D01*
X67194Y-49981D01*
X67151Y-50083D01*
X67109Y-49981D01*
X66957Y-49830D01*
X66759Y-49747D01*
X66544Y-49747D01*
X66345Y-49829D01*
X66194Y-49981D01*
X66151Y-50082D01*
X66140Y-50044D01*
X66004Y-49876D01*
X65814Y-49773D01*
X65786Y-49769D01*
X65701Y-49816D01*
X65701Y-50401D01*
X65701Y-50451D01*
X65701Y-50551D01*
X65601Y-50551D01*
X65601Y-50451D01*
X65601Y-50401D01*
X65601Y-49816D01*
X65516Y-49769D01*
X65488Y-49773D01*
X65298Y-49876D01*
X65162Y-50044D01*
X65150Y-50082D01*
X65109Y-49981D01*
X64961Y-49833D01*
X64961Y-40727D01*
X65662Y-40025D01*
X65668Y-40144D01*
X65737Y-40310D01*
X65836Y-40343D01*
X66144Y-40035D01*
X66179Y-40000D01*
X66250Y-39929D01*
X66321Y-40000D01*
X66356Y-40035D01*
X66664Y-40343D01*
X66734Y-40319D01*
X66742Y-40339D01*
X66903Y-40500D01*
X66750Y-40653D01*
X66589Y-40492D01*
X66569Y-40484D01*
X66593Y-40414D01*
X66250Y-40071D01*
X65907Y-40414D01*
X65930Y-40484D01*
X65911Y-40492D01*
X65742Y-40661D01*
X65651Y-40881D01*
X65651Y-41119D01*
X65742Y-41339D01*
X65903Y-41500D01*
X65742Y-41661D01*
X65651Y-41881D01*
X65651Y-42119D01*
X65742Y-42339D01*
X65903Y-42500D01*
X65742Y-42661D01*
X65651Y-42881D01*
X65651Y-43119D01*
X65742Y-43339D01*
X65911Y-43508D01*
X66131Y-43599D01*
X66369Y-43599D01*
X66589Y-43508D01*
X66750Y-43347D01*
X66911Y-43508D01*
X67131Y-43599D01*
X67369Y-43599D01*
X67589Y-43508D01*
X67758Y-43339D01*
X67849Y-43119D01*
X67849Y-42881D01*
X67836Y-42851D01*
X68675Y-42014D01*
X68675Y-42013D01*
X68708Y-41963D01*
X68742Y-41913D01*
X68742Y-41912D01*
X68765Y-41794D01*
X68766Y-41794D01*
X68766Y-32969D01*
X68742Y-32851D01*
X68742Y-32850D01*
X68708Y-32800D01*
X68675Y-32750D01*
X68675Y-32749D01*
X68027Y-32102D01*
X68108Y-32021D01*
X68150Y-31918D01*
X68193Y-32021D01*
X68345Y-32172D01*
X68543Y-32255D01*
X68758Y-32255D01*
X68957Y-32173D01*
X69108Y-32021D01*
X69150Y-31918D01*
X69193Y-32021D01*
X69345Y-32172D01*
X69543Y-32255D01*
X69758Y-32255D01*
X69957Y-32173D01*
X70108Y-32021D01*
X70150Y-31918D01*
X70193Y-32021D01*
X70345Y-32172D01*
X70543Y-32255D01*
X70758Y-32255D01*
X70957Y-32173D01*
X71108Y-32021D01*
X71150Y-31918D01*
X71193Y-32021D01*
X71345Y-32172D01*
X71543Y-32255D01*
X71758Y-32255D01*
X71957Y-32173D01*
X72108Y-32021D01*
X72150Y-31918D01*
X72193Y-32021D01*
X72345Y-32172D01*
X72543Y-32255D01*
X72758Y-32255D01*
X72957Y-32173D01*
X73108Y-32021D01*
X73150Y-31918D01*
X73193Y-32021D01*
X73345Y-32172D01*
X73543Y-32255D01*
X73758Y-32255D01*
X73957Y-32173D01*
X74108Y-32021D01*
X74150Y-31918D01*
X74193Y-32021D01*
X74345Y-32172D01*
X74543Y-32255D01*
X74758Y-32255D01*
X74957Y-32173D01*
X75108Y-32021D01*
X75191Y-31823D01*
X75191Y-31608D01*
X75191Y-31180D01*
X75109Y-30981D01*
X74957Y-30830D01*
X74945Y-30825D01*
X75325Y-30825D01*
X75325Y-51175D01*
M02*
