G04 (created by PCBNEW-RS274X (2011-07-19)-testing) date Fri 10 Feb 2012 01:30:19 PM PST*
G01*
G70*
G90*
%MOIN*%
G04 Gerber Fmt 3.4, Leading zero omitted, Abs format*
%FSLAX34Y34*%
G04 APERTURE LIST*
%ADD10C,0.006000*%
%ADD11O,0.060000X0.100000*%
%ADD12R,0.070000X0.070000*%
%ADD13C,0.070000*%
%ADD14C,0.012000*%
%ADD15C,0.010000*%
G04 APERTURE END LIST*
G54D10*
G54D11*
X74651Y-50501D03*
X73651Y-50501D03*
X72651Y-50501D03*
X69651Y-50501D03*
X70651Y-50501D03*
X71651Y-50501D03*
X67651Y-50501D03*
X66651Y-50501D03*
X65651Y-50501D03*
X63651Y-50501D03*
X62651Y-50501D03*
X74651Y-31501D03*
X73651Y-31501D03*
X72651Y-31501D03*
X71651Y-31501D03*
X70651Y-31501D03*
X69651Y-31501D03*
X68651Y-31501D03*
X67651Y-31501D03*
X66051Y-31501D03*
X65051Y-31501D03*
X64051Y-31501D03*
X63051Y-31501D03*
X62051Y-31501D03*
X61051Y-31501D03*
X60051Y-31501D03*
X59051Y-31501D03*
X64651Y-50501D03*
G54D12*
X66250Y-39000D03*
G54D13*
X67250Y-39000D03*
X66250Y-40000D03*
X67250Y-40000D03*
X66250Y-41000D03*
X67250Y-41000D03*
X66250Y-42000D03*
X67250Y-42000D03*
X66250Y-43000D03*
X67250Y-43000D03*
G54D14*
X65736Y-37079D02*
X70651Y-32164D01*
X65736Y-40486D02*
X65736Y-37079D01*
X66250Y-41000D02*
X65736Y-40486D01*
X70651Y-31501D02*
X70651Y-32164D01*
X69651Y-31501D02*
X69651Y-32164D01*
X65402Y-36413D02*
X69651Y-32164D01*
X65402Y-41152D02*
X65402Y-36413D01*
X66250Y-42000D02*
X65402Y-41152D01*
X65085Y-35730D02*
X68651Y-32164D01*
X65085Y-41835D02*
X65085Y-35730D01*
X66250Y-43000D02*
X65085Y-41835D01*
X68651Y-31501D02*
X68651Y-32164D01*
X60051Y-31501D02*
X60051Y-43821D01*
X65651Y-49421D02*
X65651Y-50501D01*
X60051Y-43821D02*
X65651Y-49421D01*
G54D10*
G36*
X66903Y-40500D02*
X66750Y-40653D01*
X66589Y-40492D01*
X66569Y-40484D01*
X66593Y-40414D01*
X66285Y-40106D01*
X66250Y-40071D01*
X66179Y-40000D01*
X66250Y-39929D01*
X66321Y-40000D01*
X66356Y-40035D01*
X66664Y-40343D01*
X66734Y-40319D01*
X66742Y-40339D01*
X66903Y-40500D01*
X66903Y-40500D01*
G37*
G54D15*
X66903Y-40500D02*
X66750Y-40653D01*
X66589Y-40492D01*
X66569Y-40484D01*
X66593Y-40414D01*
X66285Y-40106D01*
X66250Y-40071D01*
X66179Y-40000D01*
X66250Y-39929D01*
X66321Y-40000D01*
X66356Y-40035D01*
X66664Y-40343D01*
X66734Y-40319D01*
X66742Y-40339D01*
X66903Y-40500D01*
G54D10*
G36*
X75325Y-51175D02*
X74952Y-51175D01*
X74957Y-51173D01*
X75108Y-51021D01*
X75191Y-50823D01*
X75191Y-50608D01*
X75191Y-50180D01*
X75109Y-49981D01*
X74957Y-49830D01*
X74759Y-49747D01*
X74544Y-49747D01*
X74345Y-49829D01*
X74194Y-49981D01*
X74151Y-50083D01*
X74109Y-49981D01*
X73957Y-49830D01*
X73759Y-49747D01*
X73544Y-49747D01*
X73345Y-49829D01*
X73194Y-49981D01*
X73151Y-50083D01*
X73109Y-49981D01*
X72957Y-49830D01*
X72759Y-49747D01*
X72544Y-49747D01*
X72345Y-49829D01*
X72194Y-49981D01*
X72151Y-50083D01*
X72109Y-49981D01*
X71957Y-49830D01*
X71759Y-49747D01*
X71544Y-49747D01*
X71345Y-49829D01*
X71194Y-49981D01*
X71151Y-50083D01*
X71109Y-49981D01*
X70957Y-49830D01*
X70759Y-49747D01*
X70544Y-49747D01*
X70345Y-49829D01*
X70194Y-49981D01*
X70151Y-50083D01*
X70109Y-49981D01*
X69957Y-49830D01*
X69759Y-49747D01*
X69544Y-49747D01*
X69345Y-49829D01*
X69194Y-49981D01*
X69111Y-50179D01*
X69111Y-50394D01*
X69111Y-50822D01*
X69193Y-51021D01*
X69345Y-51172D01*
X69352Y-51175D01*
X67952Y-51175D01*
X67957Y-51173D01*
X68108Y-51021D01*
X68191Y-50823D01*
X68191Y-50608D01*
X68191Y-50180D01*
X68109Y-49981D01*
X67957Y-49830D01*
X67759Y-49747D01*
X67544Y-49747D01*
X67345Y-49829D01*
X67194Y-49981D01*
X67151Y-50083D01*
X67109Y-49981D01*
X66957Y-49830D01*
X66759Y-49747D01*
X66544Y-49747D01*
X66345Y-49829D01*
X66194Y-49981D01*
X66151Y-50082D01*
X66140Y-50044D01*
X66004Y-49876D01*
X65814Y-49773D01*
X65786Y-49769D01*
X65701Y-49816D01*
X65701Y-50401D01*
X65701Y-50451D01*
X65701Y-50551D01*
X65601Y-50551D01*
X65601Y-50451D01*
X65601Y-50401D01*
X65601Y-49816D01*
X65516Y-49769D01*
X65488Y-49773D01*
X65298Y-49876D01*
X65162Y-50044D01*
X65150Y-50082D01*
X65109Y-49981D01*
X64957Y-49830D01*
X64759Y-49747D01*
X64544Y-49747D01*
X64345Y-49829D01*
X64194Y-49981D01*
X64151Y-50083D01*
X64109Y-49981D01*
X63957Y-49830D01*
X63759Y-49747D01*
X63544Y-49747D01*
X63345Y-49829D01*
X63194Y-49981D01*
X63151Y-50083D01*
X63109Y-49981D01*
X62957Y-49830D01*
X62759Y-49747D01*
X62544Y-49747D01*
X62345Y-49829D01*
X62194Y-49981D01*
X62111Y-50179D01*
X62111Y-50394D01*
X62111Y-50822D01*
X62193Y-51021D01*
X62345Y-51172D01*
X62352Y-51175D01*
X58175Y-51175D01*
X58175Y-30825D01*
X58754Y-30825D01*
X58745Y-30829D01*
X58594Y-30981D01*
X58511Y-31179D01*
X58511Y-31394D01*
X58511Y-31822D01*
X58593Y-32021D01*
X58745Y-32172D01*
X58943Y-32255D01*
X59158Y-32255D01*
X59357Y-32173D01*
X59508Y-32021D01*
X59550Y-31919D01*
X59562Y-31958D01*
X59698Y-32126D01*
X59888Y-32229D01*
X59916Y-32233D01*
X60001Y-32186D01*
X60001Y-31601D01*
X60001Y-31551D01*
X60001Y-31451D01*
X60101Y-31451D01*
X60101Y-31551D01*
X60101Y-31601D01*
X60101Y-32186D01*
X60186Y-32233D01*
X60214Y-32229D01*
X60404Y-32126D01*
X60540Y-31958D01*
X60551Y-31919D01*
X60593Y-32021D01*
X60745Y-32172D01*
X60943Y-32255D01*
X61158Y-32255D01*
X61357Y-32173D01*
X61508Y-32021D01*
X61550Y-31918D01*
X61593Y-32021D01*
X61745Y-32172D01*
X61943Y-32255D01*
X62158Y-32255D01*
X62357Y-32173D01*
X62508Y-32021D01*
X62550Y-31918D01*
X62593Y-32021D01*
X62745Y-32172D01*
X62943Y-32255D01*
X63158Y-32255D01*
X63357Y-32173D01*
X63508Y-32021D01*
X63550Y-31918D01*
X63593Y-32021D01*
X63745Y-32172D01*
X63943Y-32255D01*
X64158Y-32255D01*
X64357Y-32173D01*
X64508Y-32021D01*
X64550Y-31918D01*
X64593Y-32021D01*
X64745Y-32172D01*
X64943Y-32255D01*
X65158Y-32255D01*
X65357Y-32173D01*
X65508Y-32021D01*
X65550Y-31918D01*
X65593Y-32021D01*
X65745Y-32172D01*
X65943Y-32255D01*
X66158Y-32255D01*
X66357Y-32173D01*
X66508Y-32021D01*
X66591Y-31823D01*
X66591Y-31608D01*
X66591Y-31180D01*
X66509Y-30981D01*
X66357Y-30830D01*
X66345Y-30825D01*
X67354Y-30825D01*
X67345Y-30829D01*
X67194Y-30981D01*
X67111Y-31179D01*
X67111Y-31394D01*
X67111Y-31822D01*
X67193Y-32021D01*
X67345Y-32172D01*
X67543Y-32255D01*
X67758Y-32255D01*
X67957Y-32173D01*
X68108Y-32021D01*
X68150Y-31918D01*
X68193Y-32021D01*
X68274Y-32102D01*
X64866Y-35511D01*
X64799Y-35611D01*
X64775Y-35730D01*
X64775Y-41835D01*
X64799Y-41954D01*
X64866Y-42054D01*
X65663Y-42851D01*
X65651Y-42881D01*
X65651Y-43119D01*
X65742Y-43339D01*
X65911Y-43508D01*
X66131Y-43599D01*
X66369Y-43599D01*
X66589Y-43508D01*
X66750Y-43347D01*
X66911Y-43508D01*
X67131Y-43599D01*
X67369Y-43599D01*
X67589Y-43508D01*
X67758Y-43339D01*
X67849Y-43119D01*
X67849Y-42881D01*
X67758Y-42661D01*
X67597Y-42500D01*
X67758Y-42339D01*
X67849Y-42119D01*
X67849Y-41881D01*
X67758Y-41661D01*
X67597Y-41500D01*
X67758Y-41339D01*
X67849Y-41119D01*
X67849Y-40881D01*
X67758Y-40661D01*
X67597Y-40500D01*
X67758Y-40339D01*
X67849Y-40119D01*
X67849Y-39881D01*
X67758Y-39661D01*
X67597Y-39500D01*
X67758Y-39339D01*
X67849Y-39119D01*
X67849Y-38881D01*
X67758Y-38661D01*
X67589Y-38492D01*
X67369Y-38401D01*
X67131Y-38401D01*
X66911Y-38492D01*
X66835Y-38567D01*
X66811Y-38509D01*
X66741Y-38439D01*
X66650Y-38401D01*
X66551Y-38401D01*
X66046Y-38401D01*
X66046Y-37207D01*
X70870Y-32384D01*
X70870Y-32383D01*
X70937Y-32283D01*
X70959Y-32170D01*
X71108Y-32021D01*
X71150Y-31918D01*
X71193Y-32021D01*
X71345Y-32172D01*
X71543Y-32255D01*
X71758Y-32255D01*
X71957Y-32173D01*
X72108Y-32021D01*
X72150Y-31918D01*
X72193Y-32021D01*
X72345Y-32172D01*
X72543Y-32255D01*
X72758Y-32255D01*
X72957Y-32173D01*
X73108Y-32021D01*
X73150Y-31918D01*
X73193Y-32021D01*
X73345Y-32172D01*
X73543Y-32255D01*
X73758Y-32255D01*
X73957Y-32173D01*
X74108Y-32021D01*
X74150Y-31918D01*
X74193Y-32021D01*
X74345Y-32172D01*
X74543Y-32255D01*
X74758Y-32255D01*
X74957Y-32173D01*
X75108Y-32021D01*
X75191Y-31823D01*
X75191Y-31608D01*
X75191Y-31180D01*
X75109Y-30981D01*
X74957Y-30830D01*
X74945Y-30825D01*
X75325Y-30825D01*
X75325Y-51175D01*
X75325Y-51175D01*
G37*
G54D15*
X75325Y-51175D02*
X74952Y-51175D01*
X74957Y-51173D01*
X75108Y-51021D01*
X75191Y-50823D01*
X75191Y-50608D01*
X75191Y-50180D01*
X75109Y-49981D01*
X74957Y-49830D01*
X74759Y-49747D01*
X74544Y-49747D01*
X74345Y-49829D01*
X74194Y-49981D01*
X74151Y-50083D01*
X74109Y-49981D01*
X73957Y-49830D01*
X73759Y-49747D01*
X73544Y-49747D01*
X73345Y-49829D01*
X73194Y-49981D01*
X73151Y-50083D01*
X73109Y-49981D01*
X72957Y-49830D01*
X72759Y-49747D01*
X72544Y-49747D01*
X72345Y-49829D01*
X72194Y-49981D01*
X72151Y-50083D01*
X72109Y-49981D01*
X71957Y-49830D01*
X71759Y-49747D01*
X71544Y-49747D01*
X71345Y-49829D01*
X71194Y-49981D01*
X71151Y-50083D01*
X71109Y-49981D01*
X70957Y-49830D01*
X70759Y-49747D01*
X70544Y-49747D01*
X70345Y-49829D01*
X70194Y-49981D01*
X70151Y-50083D01*
X70109Y-49981D01*
X69957Y-49830D01*
X69759Y-49747D01*
X69544Y-49747D01*
X69345Y-49829D01*
X69194Y-49981D01*
X69111Y-50179D01*
X69111Y-50394D01*
X69111Y-50822D01*
X69193Y-51021D01*
X69345Y-51172D01*
X69352Y-51175D01*
X67952Y-51175D01*
X67957Y-51173D01*
X68108Y-51021D01*
X68191Y-50823D01*
X68191Y-50608D01*
X68191Y-50180D01*
X68109Y-49981D01*
X67957Y-49830D01*
X67759Y-49747D01*
X67544Y-49747D01*
X67345Y-49829D01*
X67194Y-49981D01*
X67151Y-50083D01*
X67109Y-49981D01*
X66957Y-49830D01*
X66759Y-49747D01*
X66544Y-49747D01*
X66345Y-49829D01*
X66194Y-49981D01*
X66151Y-50082D01*
X66140Y-50044D01*
X66004Y-49876D01*
X65814Y-49773D01*
X65786Y-49769D01*
X65701Y-49816D01*
X65701Y-50401D01*
X65701Y-50451D01*
X65701Y-50551D01*
X65601Y-50551D01*
X65601Y-50451D01*
X65601Y-50401D01*
X65601Y-49816D01*
X65516Y-49769D01*
X65488Y-49773D01*
X65298Y-49876D01*
X65162Y-50044D01*
X65150Y-50082D01*
X65109Y-49981D01*
X64957Y-49830D01*
X64759Y-49747D01*
X64544Y-49747D01*
X64345Y-49829D01*
X64194Y-49981D01*
X64151Y-50083D01*
X64109Y-49981D01*
X63957Y-49830D01*
X63759Y-49747D01*
X63544Y-49747D01*
X63345Y-49829D01*
X63194Y-49981D01*
X63151Y-50083D01*
X63109Y-49981D01*
X62957Y-49830D01*
X62759Y-49747D01*
X62544Y-49747D01*
X62345Y-49829D01*
X62194Y-49981D01*
X62111Y-50179D01*
X62111Y-50394D01*
X62111Y-50822D01*
X62193Y-51021D01*
X62345Y-51172D01*
X62352Y-51175D01*
X58175Y-51175D01*
X58175Y-30825D01*
X58754Y-30825D01*
X58745Y-30829D01*
X58594Y-30981D01*
X58511Y-31179D01*
X58511Y-31394D01*
X58511Y-31822D01*
X58593Y-32021D01*
X58745Y-32172D01*
X58943Y-32255D01*
X59158Y-32255D01*
X59357Y-32173D01*
X59508Y-32021D01*
X59550Y-31919D01*
X59562Y-31958D01*
X59698Y-32126D01*
X59888Y-32229D01*
X59916Y-32233D01*
X60001Y-32186D01*
X60001Y-31601D01*
X60001Y-31551D01*
X60001Y-31451D01*
X60101Y-31451D01*
X60101Y-31551D01*
X60101Y-31601D01*
X60101Y-32186D01*
X60186Y-32233D01*
X60214Y-32229D01*
X60404Y-32126D01*
X60540Y-31958D01*
X60551Y-31919D01*
X60593Y-32021D01*
X60745Y-32172D01*
X60943Y-32255D01*
X61158Y-32255D01*
X61357Y-32173D01*
X61508Y-32021D01*
X61550Y-31918D01*
X61593Y-32021D01*
X61745Y-32172D01*
X61943Y-32255D01*
X62158Y-32255D01*
X62357Y-32173D01*
X62508Y-32021D01*
X62550Y-31918D01*
X62593Y-32021D01*
X62745Y-32172D01*
X62943Y-32255D01*
X63158Y-32255D01*
X63357Y-32173D01*
X63508Y-32021D01*
X63550Y-31918D01*
X63593Y-32021D01*
X63745Y-32172D01*
X63943Y-32255D01*
X64158Y-32255D01*
X64357Y-32173D01*
X64508Y-32021D01*
X64550Y-31918D01*
X64593Y-32021D01*
X64745Y-32172D01*
X64943Y-32255D01*
X65158Y-32255D01*
X65357Y-32173D01*
X65508Y-32021D01*
X65550Y-31918D01*
X65593Y-32021D01*
X65745Y-32172D01*
X65943Y-32255D01*
X66158Y-32255D01*
X66357Y-32173D01*
X66508Y-32021D01*
X66591Y-31823D01*
X66591Y-31608D01*
X66591Y-31180D01*
X66509Y-30981D01*
X66357Y-30830D01*
X66345Y-30825D01*
X67354Y-30825D01*
X67345Y-30829D01*
X67194Y-30981D01*
X67111Y-31179D01*
X67111Y-31394D01*
X67111Y-31822D01*
X67193Y-32021D01*
X67345Y-32172D01*
X67543Y-32255D01*
X67758Y-32255D01*
X67957Y-32173D01*
X68108Y-32021D01*
X68150Y-31918D01*
X68193Y-32021D01*
X68274Y-32102D01*
X64866Y-35511D01*
X64799Y-35611D01*
X64775Y-35730D01*
X64775Y-41835D01*
X64799Y-41954D01*
X64866Y-42054D01*
X65663Y-42851D01*
X65651Y-42881D01*
X65651Y-43119D01*
X65742Y-43339D01*
X65911Y-43508D01*
X66131Y-43599D01*
X66369Y-43599D01*
X66589Y-43508D01*
X66750Y-43347D01*
X66911Y-43508D01*
X67131Y-43599D01*
X67369Y-43599D01*
X67589Y-43508D01*
X67758Y-43339D01*
X67849Y-43119D01*
X67849Y-42881D01*
X67758Y-42661D01*
X67597Y-42500D01*
X67758Y-42339D01*
X67849Y-42119D01*
X67849Y-41881D01*
X67758Y-41661D01*
X67597Y-41500D01*
X67758Y-41339D01*
X67849Y-41119D01*
X67849Y-40881D01*
X67758Y-40661D01*
X67597Y-40500D01*
X67758Y-40339D01*
X67849Y-40119D01*
X67849Y-39881D01*
X67758Y-39661D01*
X67597Y-39500D01*
X67758Y-39339D01*
X67849Y-39119D01*
X67849Y-38881D01*
X67758Y-38661D01*
X67589Y-38492D01*
X67369Y-38401D01*
X67131Y-38401D01*
X66911Y-38492D01*
X66835Y-38567D01*
X66811Y-38509D01*
X66741Y-38439D01*
X66650Y-38401D01*
X66551Y-38401D01*
X66046Y-38401D01*
X66046Y-37207D01*
X70870Y-32384D01*
X70870Y-32383D01*
X70937Y-32283D01*
X70959Y-32170D01*
X71108Y-32021D01*
X71150Y-31918D01*
X71193Y-32021D01*
X71345Y-32172D01*
X71543Y-32255D01*
X71758Y-32255D01*
X71957Y-32173D01*
X72108Y-32021D01*
X72150Y-31918D01*
X72193Y-32021D01*
X72345Y-32172D01*
X72543Y-32255D01*
X72758Y-32255D01*
X72957Y-32173D01*
X73108Y-32021D01*
X73150Y-31918D01*
X73193Y-32021D01*
X73345Y-32172D01*
X73543Y-32255D01*
X73758Y-32255D01*
X73957Y-32173D01*
X74108Y-32021D01*
X74150Y-31918D01*
X74193Y-32021D01*
X74345Y-32172D01*
X74543Y-32255D01*
X74758Y-32255D01*
X74957Y-32173D01*
X75108Y-32021D01*
X75191Y-31823D01*
X75191Y-31608D01*
X75191Y-31180D01*
X75109Y-30981D01*
X74957Y-30830D01*
X74945Y-30825D01*
X75325Y-30825D01*
X75325Y-51175D01*
M02*
