G04 (created by PCBNEW-RS274X (2011-07-19)-testing) date Fri 10 Feb 2012 01:30:19 PM PST*
G01*
G70*
G90*
%MOIN*%
G04 Gerber Fmt 3.4, Leading zero omitted, Abs format*
%FSLAX34Y34*%
G04 APERTURE LIST*
%ADD10C,0.006000*%
%ADD11C,0.012000*%
%ADD12C,0.015000*%
%ADD13C,0.010000*%
G04 APERTURE END LIST*
G54D10*
G54D11*
X61844Y-47807D02*
X61815Y-47845D01*
X61729Y-47883D01*
X61672Y-47883D01*
X61587Y-47845D01*
X61529Y-47769D01*
X61501Y-47692D01*
X61472Y-47540D01*
X61472Y-47426D01*
X61501Y-47273D01*
X61529Y-47197D01*
X61587Y-47121D01*
X61672Y-47083D01*
X61729Y-47083D01*
X61815Y-47121D01*
X61844Y-47159D01*
X62187Y-47883D02*
X62129Y-47845D01*
X62101Y-47807D01*
X62072Y-47730D01*
X62072Y-47502D01*
X62101Y-47426D01*
X62129Y-47388D01*
X62187Y-47349D01*
X62272Y-47349D01*
X62329Y-47388D01*
X62358Y-47426D01*
X62387Y-47502D01*
X62387Y-47730D01*
X62358Y-47807D01*
X62329Y-47845D01*
X62272Y-47883D01*
X62187Y-47883D01*
X62730Y-47883D02*
X62672Y-47845D01*
X62644Y-47769D01*
X62644Y-47083D01*
X63044Y-47883D02*
X62986Y-47845D01*
X62958Y-47807D01*
X62929Y-47730D01*
X62929Y-47502D01*
X62958Y-47426D01*
X62986Y-47388D01*
X63044Y-47349D01*
X63129Y-47349D01*
X63186Y-47388D01*
X63215Y-47426D01*
X63244Y-47502D01*
X63244Y-47730D01*
X63215Y-47807D01*
X63186Y-47845D01*
X63129Y-47883D01*
X63044Y-47883D01*
X63501Y-47883D02*
X63501Y-47349D01*
X63501Y-47502D02*
X63529Y-47426D01*
X63558Y-47388D01*
X63615Y-47349D01*
X63672Y-47349D01*
X63872Y-47883D02*
X63872Y-47349D01*
X63872Y-47083D02*
X63843Y-47121D01*
X63872Y-47159D01*
X63900Y-47121D01*
X63872Y-47083D01*
X63872Y-47159D01*
X64158Y-47883D02*
X64158Y-47349D01*
X64158Y-47426D02*
X64186Y-47388D01*
X64244Y-47349D01*
X64329Y-47349D01*
X64386Y-47388D01*
X64415Y-47464D01*
X64415Y-47883D01*
X64415Y-47464D02*
X64444Y-47388D01*
X64501Y-47349D01*
X64586Y-47349D01*
X64644Y-47388D01*
X64672Y-47464D01*
X64672Y-47883D01*
X65186Y-47845D02*
X65129Y-47883D01*
X65015Y-47883D01*
X64958Y-47845D01*
X64929Y-47769D01*
X64929Y-47464D01*
X64958Y-47388D01*
X65015Y-47349D01*
X65129Y-47349D01*
X65186Y-47388D01*
X65215Y-47464D01*
X65215Y-47540D01*
X64929Y-47616D01*
X65386Y-47349D02*
X65615Y-47349D01*
X65472Y-47083D02*
X65472Y-47769D01*
X65500Y-47845D01*
X65558Y-47883D01*
X65615Y-47883D01*
X66043Y-47845D02*
X65986Y-47883D01*
X65872Y-47883D01*
X65815Y-47845D01*
X65786Y-47769D01*
X65786Y-47464D01*
X65815Y-47388D01*
X65872Y-47349D01*
X65986Y-47349D01*
X66043Y-47388D01*
X66072Y-47464D01*
X66072Y-47540D01*
X65786Y-47616D01*
X66329Y-47883D02*
X66329Y-47349D01*
X66329Y-47502D02*
X66357Y-47426D01*
X66386Y-47388D01*
X66443Y-47349D01*
X66500Y-47349D01*
X67128Y-47845D02*
X67185Y-47883D01*
X67300Y-47883D01*
X67357Y-47845D01*
X67385Y-47769D01*
X67385Y-47730D01*
X67357Y-47654D01*
X67300Y-47616D01*
X67214Y-47616D01*
X67157Y-47578D01*
X67128Y-47502D01*
X67128Y-47464D01*
X67157Y-47388D01*
X67214Y-47349D01*
X67300Y-47349D01*
X67357Y-47388D01*
X67643Y-47883D02*
X67643Y-47083D01*
X67900Y-47883D02*
X67900Y-47464D01*
X67871Y-47388D01*
X67814Y-47349D01*
X67729Y-47349D01*
X67671Y-47388D01*
X67643Y-47426D01*
X68186Y-47883D02*
X68186Y-47349D01*
X68186Y-47083D02*
X68157Y-47121D01*
X68186Y-47159D01*
X68214Y-47121D01*
X68186Y-47083D01*
X68186Y-47159D01*
X68700Y-47845D02*
X68643Y-47883D01*
X68529Y-47883D01*
X68472Y-47845D01*
X68443Y-47769D01*
X68443Y-47464D01*
X68472Y-47388D01*
X68529Y-47349D01*
X68643Y-47349D01*
X68700Y-47388D01*
X68729Y-47464D01*
X68729Y-47540D01*
X68443Y-47616D01*
X69072Y-47883D02*
X69014Y-47845D01*
X68986Y-47769D01*
X68986Y-47083D01*
X69557Y-47883D02*
X69557Y-47083D01*
X69557Y-47845D02*
X69500Y-47883D01*
X69386Y-47883D01*
X69328Y-47845D01*
X69300Y-47807D01*
X69271Y-47730D01*
X69271Y-47502D01*
X69300Y-47426D01*
X69328Y-47388D01*
X69386Y-47349D01*
X69500Y-47349D01*
X69557Y-47388D01*
X70243Y-47349D02*
X70386Y-47883D01*
X70528Y-47349D01*
X70728Y-47159D02*
X70757Y-47121D01*
X70814Y-47083D01*
X70957Y-47083D01*
X71014Y-47121D01*
X71043Y-47159D01*
X71071Y-47235D01*
X71071Y-47311D01*
X71043Y-47426D01*
X70700Y-47883D01*
X71071Y-47883D01*
X71328Y-47807D02*
X71356Y-47845D01*
X71328Y-47883D01*
X71299Y-47845D01*
X71328Y-47807D01*
X71328Y-47883D01*
X71728Y-47083D02*
X71785Y-47083D01*
X71842Y-47121D01*
X71871Y-47159D01*
X71900Y-47235D01*
X71928Y-47388D01*
X71928Y-47578D01*
X71900Y-47730D01*
X71871Y-47807D01*
X71842Y-47845D01*
X71785Y-47883D01*
X71728Y-47883D01*
X71671Y-47845D01*
X71642Y-47807D01*
X71614Y-47730D01*
X71585Y-47578D01*
X71585Y-47388D01*
X71614Y-47235D01*
X71642Y-47159D01*
X71671Y-47121D01*
X71728Y-47083D01*
X63815Y-33710D02*
X63815Y-32910D01*
X64215Y-32910D02*
X64329Y-32910D01*
X64387Y-32948D01*
X64444Y-33024D01*
X64472Y-33176D01*
X64472Y-33443D01*
X64444Y-33596D01*
X64387Y-33672D01*
X64329Y-33710D01*
X64215Y-33710D01*
X64158Y-33672D01*
X64101Y-33596D01*
X64072Y-33443D01*
X64072Y-33176D01*
X64101Y-33024D01*
X64158Y-32948D01*
X64215Y-32910D01*
X65530Y-33710D02*
X65330Y-33329D01*
X65187Y-33710D02*
X65187Y-32910D01*
X65415Y-32910D01*
X65473Y-32948D01*
X65501Y-32986D01*
X65530Y-33062D01*
X65530Y-33176D01*
X65501Y-33253D01*
X65473Y-33291D01*
X65415Y-33329D01*
X65187Y-33329D01*
X65873Y-33710D02*
X65815Y-33672D01*
X65787Y-33634D01*
X65758Y-33557D01*
X65758Y-33329D01*
X65787Y-33253D01*
X65815Y-33215D01*
X65873Y-33176D01*
X65958Y-33176D01*
X66015Y-33215D01*
X66044Y-33253D01*
X66073Y-33329D01*
X66073Y-33557D01*
X66044Y-33634D01*
X66015Y-33672D01*
X65958Y-33710D01*
X65873Y-33710D01*
X66587Y-33710D02*
X66587Y-32910D01*
X66587Y-33672D02*
X66530Y-33710D01*
X66416Y-33710D01*
X66358Y-33672D01*
X66330Y-33634D01*
X66301Y-33557D01*
X66301Y-33329D01*
X66330Y-33253D01*
X66358Y-33215D01*
X66416Y-33176D01*
X66530Y-33176D01*
X66587Y-33215D01*
X67101Y-33672D02*
X67044Y-33710D01*
X66930Y-33710D01*
X66873Y-33672D01*
X66844Y-33596D01*
X66844Y-33291D01*
X66873Y-33215D01*
X66930Y-33176D01*
X67044Y-33176D01*
X67101Y-33215D01*
X67130Y-33291D01*
X67130Y-33367D01*
X66844Y-33443D01*
X67473Y-33710D02*
X67415Y-33672D01*
X67387Y-33634D01*
X67358Y-33557D01*
X67358Y-33329D01*
X67387Y-33253D01*
X67415Y-33215D01*
X67473Y-33176D01*
X67558Y-33176D01*
X67615Y-33215D01*
X67644Y-33253D01*
X67673Y-33329D01*
X67673Y-33557D01*
X67644Y-33634D01*
X67615Y-33672D01*
X67558Y-33710D01*
X67473Y-33710D01*
X68387Y-33710D02*
X68387Y-32910D01*
X68673Y-33176D02*
X68673Y-33710D01*
X68673Y-33253D02*
X68701Y-33215D01*
X68759Y-33176D01*
X68844Y-33176D01*
X68901Y-33215D01*
X68930Y-33291D01*
X68930Y-33710D01*
X69473Y-33672D02*
X69416Y-33710D01*
X69302Y-33710D01*
X69244Y-33672D01*
X69216Y-33634D01*
X69187Y-33557D01*
X69187Y-33329D01*
X69216Y-33253D01*
X69244Y-33215D01*
X69302Y-33176D01*
X69416Y-33176D01*
X69473Y-33215D01*
X69730Y-33634D02*
X69758Y-33672D01*
X69730Y-33710D01*
X69701Y-33672D01*
X69730Y-33634D01*
X69730Y-33710D01*
G54D12*
X57851Y-30501D02*
X75651Y-30501D01*
X75651Y-51501D02*
X75651Y-30501D01*
X57851Y-51501D02*
X75651Y-51501D01*
X57851Y-30501D02*
X57851Y-51501D01*
X68650Y-37000D02*
X68650Y-45000D01*
X68650Y-45000D02*
X64850Y-45000D01*
X64850Y-45000D02*
X64850Y-37000D01*
X64850Y-37000D02*
X68650Y-37000D01*
X63876Y-38283D02*
X63876Y-39465D01*
X64589Y-38888D02*
X63889Y-38288D01*
X63890Y-39488D02*
X64590Y-38888D01*
G54D11*
X62156Y-39141D02*
X62156Y-38541D01*
X62384Y-38541D01*
X62442Y-38569D01*
X62470Y-38598D01*
X62499Y-38655D01*
X62499Y-38741D01*
X62470Y-38798D01*
X62442Y-38827D01*
X62384Y-38855D01*
X62156Y-38855D01*
X63070Y-39141D02*
X62727Y-39141D01*
X62899Y-39141D02*
X62899Y-38541D01*
X62842Y-38627D01*
X62784Y-38684D01*
X62727Y-38712D01*
G54D13*
X68212Y-43024D02*
X68212Y-43310D01*
X68212Y-43167D02*
X67712Y-43167D01*
X67784Y-43215D01*
X67831Y-43262D01*
X67855Y-43310D01*
X67712Y-42715D02*
X67712Y-42667D01*
X67736Y-42619D01*
X67760Y-42596D01*
X67808Y-42572D01*
X67903Y-42548D01*
X68022Y-42548D01*
X68117Y-42572D01*
X68165Y-42596D01*
X68189Y-42619D01*
X68212Y-42667D01*
X68212Y-42715D01*
X68189Y-42762D01*
X68165Y-42786D01*
X68117Y-42810D01*
X68022Y-42834D01*
X67903Y-42834D01*
X67808Y-42810D01*
X67760Y-42786D01*
X67736Y-42762D01*
X67712Y-42715D01*
X65574Y-43142D02*
X65574Y-43047D01*
X65551Y-42999D01*
X65527Y-42975D01*
X65455Y-42928D01*
X65360Y-42904D01*
X65170Y-42904D01*
X65122Y-42928D01*
X65098Y-42952D01*
X65074Y-42999D01*
X65074Y-43095D01*
X65098Y-43142D01*
X65122Y-43166D01*
X65170Y-43190D01*
X65289Y-43190D01*
X65336Y-43166D01*
X65360Y-43142D01*
X65384Y-43095D01*
X65384Y-42999D01*
X65360Y-42952D01*
X65336Y-42928D01*
X65289Y-42904D01*
X67760Y-39135D02*
X67736Y-39111D01*
X67712Y-39063D01*
X67712Y-38944D01*
X67736Y-38897D01*
X67760Y-38873D01*
X67808Y-38849D01*
X67855Y-38849D01*
X67927Y-38873D01*
X68212Y-39159D01*
X68212Y-38849D01*
M02*
