G04 (created by PCBNEW-RS274X (2011-07-19)-testing) date Tue 12 Jun 2012 01:26:16 PM PDT*
G01*
G70*
G90*
%MOIN*%
G04 Gerber Fmt 3.4, Leading zero omitted, Abs format*
%FSLAX34Y34*%
G04 APERTURE LIST*
%ADD10C,0.006000*%
%ADD11C,0.008000*%
%ADD12C,0.012000*%
%ADD13C,0.015000*%
%ADD14C,0.010000*%
G04 APERTURE END LIST*
G54D10*
G54D11*
X59122Y-33873D02*
X59122Y-33682D01*
X59294Y-33911D02*
X58694Y-33778D01*
X59294Y-33644D01*
X59294Y-33282D02*
X59008Y-33416D01*
X59294Y-33511D02*
X58694Y-33511D01*
X58694Y-33358D01*
X58722Y-33320D01*
X58751Y-33301D01*
X58808Y-33282D01*
X58894Y-33282D01*
X58951Y-33301D01*
X58980Y-33320D01*
X59008Y-33358D01*
X59008Y-33511D01*
X58980Y-33111D02*
X58980Y-32977D01*
X59294Y-32920D02*
X59294Y-33111D01*
X58694Y-33111D01*
X58694Y-32920D01*
X58980Y-32615D02*
X58980Y-32749D01*
X59294Y-32749D02*
X58694Y-32749D01*
X58694Y-32558D01*
X59722Y-33415D02*
X59694Y-33453D01*
X59694Y-33510D01*
X59722Y-33568D01*
X59780Y-33606D01*
X59837Y-33625D01*
X59951Y-33644D01*
X60037Y-33644D01*
X60151Y-33625D01*
X60208Y-33606D01*
X60265Y-33568D01*
X60294Y-33510D01*
X60294Y-33472D01*
X60265Y-33415D01*
X60237Y-33396D01*
X60037Y-33396D01*
X60037Y-33472D01*
X60294Y-33225D02*
X59694Y-33225D01*
X60294Y-32996D01*
X59694Y-32996D01*
X60294Y-32806D02*
X59694Y-32806D01*
X59694Y-32711D01*
X59722Y-32653D01*
X59780Y-32615D01*
X59837Y-32596D01*
X59951Y-32577D01*
X60037Y-32577D01*
X60151Y-32596D01*
X60208Y-32615D01*
X60265Y-32653D01*
X60294Y-32711D01*
X60294Y-32806D01*
X61294Y-32958D02*
X61294Y-33187D01*
X61294Y-33073D02*
X60694Y-33073D01*
X60780Y-33111D01*
X60837Y-33149D01*
X60865Y-33187D01*
X60694Y-32825D02*
X60694Y-32577D01*
X60922Y-32711D01*
X60922Y-32653D01*
X60951Y-32615D01*
X60980Y-32596D01*
X61037Y-32577D01*
X61180Y-32577D01*
X61237Y-32596D01*
X61265Y-32615D01*
X61294Y-32653D01*
X61294Y-32768D01*
X61265Y-32806D01*
X61237Y-32825D01*
X62294Y-32958D02*
X62294Y-33187D01*
X62294Y-33073D02*
X61694Y-33073D01*
X61780Y-33111D01*
X61837Y-33149D01*
X61865Y-33187D01*
X61751Y-32806D02*
X61722Y-32787D01*
X61694Y-32749D01*
X61694Y-32653D01*
X61722Y-32615D01*
X61751Y-32596D01*
X61808Y-32577D01*
X61865Y-32577D01*
X61951Y-32596D01*
X62294Y-32825D01*
X62294Y-32577D01*
X63294Y-32958D02*
X63294Y-33187D01*
X63294Y-33073D02*
X62694Y-33073D01*
X62780Y-33111D01*
X62837Y-33149D01*
X62865Y-33187D01*
X63294Y-32577D02*
X63294Y-32806D01*
X63294Y-32692D02*
X62694Y-32692D01*
X62780Y-32730D01*
X62837Y-32768D01*
X62865Y-32806D01*
X64294Y-32958D02*
X64294Y-33187D01*
X64294Y-33073D02*
X63694Y-33073D01*
X63780Y-33111D01*
X63837Y-33149D01*
X63865Y-33187D01*
X63694Y-32711D02*
X63694Y-32672D01*
X63722Y-32634D01*
X63751Y-32615D01*
X63808Y-32596D01*
X63922Y-32577D01*
X64065Y-32577D01*
X64180Y-32596D01*
X64237Y-32615D01*
X64265Y-32634D01*
X64294Y-32672D01*
X64294Y-32711D01*
X64265Y-32749D01*
X64237Y-32768D01*
X64180Y-32787D01*
X64065Y-32806D01*
X63922Y-32806D01*
X63808Y-32787D01*
X63751Y-32768D01*
X63722Y-32749D01*
X63694Y-32711D01*
X65294Y-32768D02*
X65294Y-32692D01*
X65265Y-32653D01*
X65237Y-32634D01*
X65151Y-32596D01*
X65037Y-32577D01*
X64808Y-32577D01*
X64751Y-32596D01*
X64722Y-32615D01*
X64694Y-32653D01*
X64694Y-32730D01*
X64722Y-32768D01*
X64751Y-32787D01*
X64808Y-32806D01*
X64951Y-32806D01*
X65008Y-32787D01*
X65037Y-32768D01*
X65065Y-32730D01*
X65065Y-32653D01*
X65037Y-32615D01*
X65008Y-32596D01*
X64951Y-32577D01*
X65951Y-32730D02*
X65922Y-32768D01*
X65894Y-32787D01*
X65837Y-32806D01*
X65808Y-32806D01*
X65751Y-32787D01*
X65722Y-32768D01*
X65694Y-32730D01*
X65694Y-32653D01*
X65722Y-32615D01*
X65751Y-32596D01*
X65808Y-32577D01*
X65837Y-32577D01*
X65894Y-32596D01*
X65922Y-32615D01*
X65951Y-32653D01*
X65951Y-32730D01*
X65980Y-32768D01*
X66008Y-32787D01*
X66065Y-32806D01*
X66180Y-32806D01*
X66237Y-32787D01*
X66265Y-32768D01*
X66294Y-32730D01*
X66294Y-32653D01*
X66265Y-32615D01*
X66237Y-32596D01*
X66180Y-32577D01*
X66065Y-32577D01*
X66008Y-32596D01*
X65980Y-32615D01*
X65951Y-32653D01*
X67294Y-32825D02*
X67294Y-32558D01*
X67894Y-32730D01*
X68294Y-32615D02*
X68294Y-32692D01*
X68322Y-32730D01*
X68351Y-32749D01*
X68437Y-32787D01*
X68551Y-32806D01*
X68780Y-32806D01*
X68837Y-32787D01*
X68865Y-32768D01*
X68894Y-32730D01*
X68894Y-32653D01*
X68865Y-32615D01*
X68837Y-32596D01*
X68780Y-32577D01*
X68637Y-32577D01*
X68580Y-32596D01*
X68551Y-32615D01*
X68522Y-32653D01*
X68522Y-32730D01*
X68551Y-32768D01*
X68580Y-32787D01*
X68637Y-32806D01*
X69294Y-32596D02*
X69294Y-32787D01*
X69580Y-32806D01*
X69551Y-32787D01*
X69522Y-32749D01*
X69522Y-32653D01*
X69551Y-32615D01*
X69580Y-32596D01*
X69637Y-32577D01*
X69780Y-32577D01*
X69837Y-32596D01*
X69865Y-32615D01*
X69894Y-32653D01*
X69894Y-32749D01*
X69865Y-32787D01*
X69837Y-32806D01*
X70494Y-32615D02*
X70894Y-32615D01*
X70265Y-32711D02*
X70694Y-32806D01*
X70694Y-32558D01*
X71294Y-32825D02*
X71294Y-32577D01*
X71522Y-32711D01*
X71522Y-32653D01*
X71551Y-32615D01*
X71580Y-32596D01*
X71637Y-32577D01*
X71780Y-32577D01*
X71837Y-32596D01*
X71865Y-32615D01*
X71894Y-32653D01*
X71894Y-32768D01*
X71865Y-32806D01*
X71837Y-32825D01*
X72351Y-32806D02*
X72322Y-32787D01*
X72294Y-32749D01*
X72294Y-32653D01*
X72322Y-32615D01*
X72351Y-32596D01*
X72408Y-32577D01*
X72465Y-32577D01*
X72551Y-32596D01*
X72894Y-32825D01*
X72894Y-32577D01*
X73894Y-32577D02*
X73894Y-32806D01*
X73894Y-32692D02*
X73294Y-32692D01*
X73380Y-32730D01*
X73437Y-32768D01*
X73465Y-32806D01*
X74294Y-32711D02*
X74294Y-32672D01*
X74322Y-32634D01*
X74351Y-32615D01*
X74408Y-32596D01*
X74522Y-32577D01*
X74665Y-32577D01*
X74780Y-32596D01*
X74837Y-32615D01*
X74865Y-32634D01*
X74894Y-32672D01*
X74894Y-32711D01*
X74865Y-32749D01*
X74837Y-32768D01*
X74780Y-32787D01*
X74665Y-32806D01*
X74522Y-32806D01*
X74408Y-32787D01*
X74351Y-32768D01*
X74322Y-32749D01*
X74294Y-32711D01*
X62894Y-49177D02*
X62608Y-49311D01*
X62894Y-49406D02*
X62294Y-49406D01*
X62294Y-49253D01*
X62322Y-49215D01*
X62351Y-49196D01*
X62408Y-49177D01*
X62494Y-49177D01*
X62551Y-49196D01*
X62580Y-49215D01*
X62608Y-49253D01*
X62608Y-49406D01*
X62580Y-49006D02*
X62580Y-48872D01*
X62894Y-48815D02*
X62894Y-49006D01*
X62294Y-49006D01*
X62294Y-48815D01*
X62865Y-48663D02*
X62894Y-48606D01*
X62894Y-48510D01*
X62865Y-48472D01*
X62837Y-48453D01*
X62780Y-48434D01*
X62722Y-48434D01*
X62665Y-48453D01*
X62637Y-48472D01*
X62608Y-48510D01*
X62580Y-48587D01*
X62551Y-48625D01*
X62522Y-48644D01*
X62465Y-48663D01*
X62408Y-48663D01*
X62351Y-48644D01*
X62322Y-48625D01*
X62294Y-48587D01*
X62294Y-48491D01*
X62322Y-48434D01*
X62580Y-48263D02*
X62580Y-48129D01*
X62894Y-48072D02*
X62894Y-48263D01*
X62294Y-48263D01*
X62294Y-48072D01*
X62294Y-47958D02*
X62294Y-47729D01*
X62894Y-47844D02*
X62294Y-47844D01*
X63294Y-49444D02*
X63294Y-49196D01*
X63522Y-49330D01*
X63522Y-49272D01*
X63551Y-49234D01*
X63580Y-49215D01*
X63637Y-49196D01*
X63780Y-49196D01*
X63837Y-49215D01*
X63865Y-49234D01*
X63894Y-49272D01*
X63894Y-49387D01*
X63865Y-49425D01*
X63837Y-49444D01*
X63837Y-49025D02*
X63865Y-49006D01*
X63894Y-49025D01*
X63865Y-49044D01*
X63837Y-49025D01*
X63894Y-49025D01*
X63294Y-48873D02*
X63294Y-48625D01*
X63522Y-48759D01*
X63522Y-48701D01*
X63551Y-48663D01*
X63580Y-48644D01*
X63637Y-48625D01*
X63780Y-48625D01*
X63837Y-48644D01*
X63865Y-48663D01*
X63894Y-48701D01*
X63894Y-48816D01*
X63865Y-48854D01*
X63837Y-48873D01*
X63294Y-48511D02*
X63894Y-48378D01*
X63294Y-48244D01*
X64294Y-49215D02*
X64294Y-49406D01*
X64580Y-49425D01*
X64551Y-49406D01*
X64522Y-49368D01*
X64522Y-49272D01*
X64551Y-49234D01*
X64580Y-49215D01*
X64637Y-49196D01*
X64780Y-49196D01*
X64837Y-49215D01*
X64865Y-49234D01*
X64894Y-49272D01*
X64894Y-49368D01*
X64865Y-49406D01*
X64837Y-49425D01*
X64294Y-49082D02*
X64894Y-48949D01*
X64294Y-48815D01*
X65322Y-49196D02*
X65294Y-49234D01*
X65294Y-49291D01*
X65322Y-49349D01*
X65380Y-49387D01*
X65437Y-49406D01*
X65551Y-49425D01*
X65637Y-49425D01*
X65751Y-49406D01*
X65808Y-49387D01*
X65865Y-49349D01*
X65894Y-49291D01*
X65894Y-49253D01*
X65865Y-49196D01*
X65837Y-49177D01*
X65637Y-49177D01*
X65637Y-49253D01*
X65894Y-49006D02*
X65294Y-49006D01*
X65894Y-48777D01*
X65294Y-48777D01*
X65894Y-48587D02*
X65294Y-48587D01*
X65294Y-48492D01*
X65322Y-48434D01*
X65380Y-48396D01*
X65437Y-48377D01*
X65551Y-48358D01*
X65637Y-48358D01*
X65751Y-48377D01*
X65808Y-48396D01*
X65865Y-48434D01*
X65894Y-48492D01*
X65894Y-48587D01*
X66322Y-49196D02*
X66294Y-49234D01*
X66294Y-49291D01*
X66322Y-49349D01*
X66380Y-49387D01*
X66437Y-49406D01*
X66551Y-49425D01*
X66637Y-49425D01*
X66751Y-49406D01*
X66808Y-49387D01*
X66865Y-49349D01*
X66894Y-49291D01*
X66894Y-49253D01*
X66865Y-49196D01*
X66837Y-49177D01*
X66637Y-49177D01*
X66637Y-49253D01*
X66894Y-49006D02*
X66294Y-49006D01*
X66894Y-48777D01*
X66294Y-48777D01*
X66894Y-48587D02*
X66294Y-48587D01*
X66294Y-48492D01*
X66322Y-48434D01*
X66380Y-48396D01*
X66437Y-48377D01*
X66551Y-48358D01*
X66637Y-48358D01*
X66751Y-48377D01*
X66808Y-48396D01*
X66865Y-48434D01*
X66894Y-48492D01*
X66894Y-48587D01*
X67294Y-49463D02*
X67894Y-49330D01*
X67294Y-49196D01*
X67894Y-49063D02*
X67494Y-49063D01*
X67294Y-49063D02*
X67322Y-49082D01*
X67351Y-49063D01*
X67322Y-49044D01*
X67294Y-49063D01*
X67351Y-49063D01*
X67494Y-48873D02*
X67894Y-48873D01*
X67551Y-48873D02*
X67522Y-48854D01*
X67494Y-48816D01*
X67494Y-48758D01*
X67522Y-48720D01*
X67580Y-48701D01*
X67894Y-48701D01*
X69722Y-49425D02*
X69722Y-49234D01*
X69894Y-49463D02*
X69294Y-49330D01*
X69894Y-49196D01*
X69294Y-48987D02*
X69294Y-48948D01*
X69322Y-48910D01*
X69351Y-48891D01*
X69408Y-48872D01*
X69522Y-48853D01*
X69665Y-48853D01*
X69780Y-48872D01*
X69837Y-48891D01*
X69865Y-48910D01*
X69894Y-48948D01*
X69894Y-48987D01*
X69865Y-49025D01*
X69837Y-49044D01*
X69780Y-49063D01*
X69665Y-49082D01*
X69522Y-49082D01*
X69408Y-49063D01*
X69351Y-49044D01*
X69322Y-49025D01*
X69294Y-48987D01*
X70722Y-49425D02*
X70722Y-49234D01*
X70894Y-49463D02*
X70294Y-49330D01*
X70894Y-49196D01*
X70894Y-48853D02*
X70894Y-49082D01*
X70894Y-48968D02*
X70294Y-48968D01*
X70380Y-49006D01*
X70437Y-49044D01*
X70465Y-49082D01*
X71722Y-49425D02*
X71722Y-49234D01*
X71894Y-49463D02*
X71294Y-49330D01*
X71894Y-49196D01*
X71351Y-49082D02*
X71322Y-49063D01*
X71294Y-49025D01*
X71294Y-48929D01*
X71322Y-48891D01*
X71351Y-48872D01*
X71408Y-48853D01*
X71465Y-48853D01*
X71551Y-48872D01*
X71894Y-49101D01*
X71894Y-48853D01*
X72722Y-49425D02*
X72722Y-49234D01*
X72894Y-49463D02*
X72294Y-49330D01*
X72894Y-49196D01*
X72294Y-49101D02*
X72294Y-48853D01*
X72522Y-48987D01*
X72522Y-48929D01*
X72551Y-48891D01*
X72580Y-48872D01*
X72637Y-48853D01*
X72780Y-48853D01*
X72837Y-48872D01*
X72865Y-48891D01*
X72894Y-48929D01*
X72894Y-49044D01*
X72865Y-49082D01*
X72837Y-49101D01*
X73722Y-49425D02*
X73722Y-49234D01*
X73894Y-49463D02*
X73294Y-49330D01*
X73894Y-49196D01*
X73494Y-48891D02*
X73894Y-48891D01*
X73265Y-48987D02*
X73694Y-49082D01*
X73694Y-48834D01*
X74722Y-49425D02*
X74722Y-49234D01*
X74894Y-49463D02*
X74294Y-49330D01*
X74894Y-49196D01*
X74294Y-48872D02*
X74294Y-49063D01*
X74580Y-49082D01*
X74551Y-49063D01*
X74522Y-49025D01*
X74522Y-48929D01*
X74551Y-48891D01*
X74580Y-48872D01*
X74637Y-48853D01*
X74780Y-48853D01*
X74837Y-48872D01*
X74865Y-48891D01*
X74894Y-48929D01*
X74894Y-49025D01*
X74865Y-49063D01*
X74837Y-49082D01*
G54D12*
X72061Y-42914D02*
X71261Y-42914D01*
X71261Y-42514D02*
X71261Y-42400D01*
X71299Y-42342D01*
X71375Y-42285D01*
X71527Y-42257D01*
X71794Y-42257D01*
X71947Y-42285D01*
X72023Y-42342D01*
X72061Y-42400D01*
X72061Y-42514D01*
X72023Y-42571D01*
X71947Y-42628D01*
X71794Y-42657D01*
X71527Y-42657D01*
X71375Y-42628D01*
X71299Y-42571D01*
X71261Y-42514D01*
X72061Y-41199D02*
X71680Y-41399D01*
X72061Y-41542D02*
X71261Y-41542D01*
X71261Y-41314D01*
X71299Y-41256D01*
X71337Y-41228D01*
X71413Y-41199D01*
X71527Y-41199D01*
X71604Y-41228D01*
X71642Y-41256D01*
X71680Y-41314D01*
X71680Y-41542D01*
X72061Y-40856D02*
X72023Y-40914D01*
X71985Y-40942D01*
X71908Y-40971D01*
X71680Y-40971D01*
X71604Y-40942D01*
X71566Y-40914D01*
X71527Y-40856D01*
X71527Y-40771D01*
X71566Y-40714D01*
X71604Y-40685D01*
X71680Y-40656D01*
X71908Y-40656D01*
X71985Y-40685D01*
X72023Y-40714D01*
X72061Y-40771D01*
X72061Y-40856D01*
X72061Y-40142D02*
X71261Y-40142D01*
X72023Y-40142D02*
X72061Y-40199D01*
X72061Y-40313D01*
X72023Y-40371D01*
X71985Y-40399D01*
X71908Y-40428D01*
X71680Y-40428D01*
X71604Y-40399D01*
X71566Y-40371D01*
X71527Y-40313D01*
X71527Y-40199D01*
X71566Y-40142D01*
X72023Y-39628D02*
X72061Y-39685D01*
X72061Y-39799D01*
X72023Y-39856D01*
X71947Y-39885D01*
X71642Y-39885D01*
X71566Y-39856D01*
X71527Y-39799D01*
X71527Y-39685D01*
X71566Y-39628D01*
X71642Y-39599D01*
X71718Y-39599D01*
X71794Y-39885D01*
X72061Y-39256D02*
X72023Y-39314D01*
X71985Y-39342D01*
X71908Y-39371D01*
X71680Y-39371D01*
X71604Y-39342D01*
X71566Y-39314D01*
X71527Y-39256D01*
X71527Y-39171D01*
X71566Y-39114D01*
X71604Y-39085D01*
X71680Y-39056D01*
X71908Y-39056D01*
X71985Y-39085D01*
X72023Y-39114D01*
X72061Y-39171D01*
X72061Y-39256D01*
X73225Y-45856D02*
X73263Y-45885D01*
X73301Y-45971D01*
X73301Y-46028D01*
X73263Y-46113D01*
X73187Y-46171D01*
X73110Y-46199D01*
X72958Y-46228D01*
X72844Y-46228D01*
X72691Y-46199D01*
X72615Y-46171D01*
X72539Y-46113D01*
X72501Y-46028D01*
X72501Y-45971D01*
X72539Y-45885D01*
X72577Y-45856D01*
X73301Y-45513D02*
X73263Y-45571D01*
X73225Y-45599D01*
X73148Y-45628D01*
X72920Y-45628D01*
X72844Y-45599D01*
X72806Y-45571D01*
X72767Y-45513D01*
X72767Y-45428D01*
X72806Y-45371D01*
X72844Y-45342D01*
X72920Y-45313D01*
X73148Y-45313D01*
X73225Y-45342D01*
X73263Y-45371D01*
X73301Y-45428D01*
X73301Y-45513D01*
X73301Y-44970D02*
X73263Y-45028D01*
X73187Y-45056D01*
X72501Y-45056D01*
X73301Y-44656D02*
X73263Y-44714D01*
X73225Y-44742D01*
X73148Y-44771D01*
X72920Y-44771D01*
X72844Y-44742D01*
X72806Y-44714D01*
X72767Y-44656D01*
X72767Y-44571D01*
X72806Y-44514D01*
X72844Y-44485D01*
X72920Y-44456D01*
X73148Y-44456D01*
X73225Y-44485D01*
X73263Y-44514D01*
X73301Y-44571D01*
X73301Y-44656D01*
X73301Y-44199D02*
X72767Y-44199D01*
X72920Y-44199D02*
X72844Y-44171D01*
X72806Y-44142D01*
X72767Y-44085D01*
X72767Y-44028D01*
X73301Y-43828D02*
X72767Y-43828D01*
X72501Y-43828D02*
X72539Y-43857D01*
X72577Y-43828D01*
X72539Y-43800D01*
X72501Y-43828D01*
X72577Y-43828D01*
X73301Y-43542D02*
X72767Y-43542D01*
X72844Y-43542D02*
X72806Y-43514D01*
X72767Y-43456D01*
X72767Y-43371D01*
X72806Y-43314D01*
X72882Y-43285D01*
X73301Y-43285D01*
X72882Y-43285D02*
X72806Y-43256D01*
X72767Y-43199D01*
X72767Y-43114D01*
X72806Y-43056D01*
X72882Y-43028D01*
X73301Y-43028D01*
X73263Y-42514D02*
X73301Y-42571D01*
X73301Y-42685D01*
X73263Y-42742D01*
X73187Y-42771D01*
X72882Y-42771D01*
X72806Y-42742D01*
X72767Y-42685D01*
X72767Y-42571D01*
X72806Y-42514D01*
X72882Y-42485D01*
X72958Y-42485D01*
X73034Y-42771D01*
X72767Y-42314D02*
X72767Y-42085D01*
X72501Y-42228D02*
X73187Y-42228D01*
X73263Y-42200D01*
X73301Y-42142D01*
X73301Y-42085D01*
X73263Y-41657D02*
X73301Y-41714D01*
X73301Y-41828D01*
X73263Y-41885D01*
X73187Y-41914D01*
X72882Y-41914D01*
X72806Y-41885D01*
X72767Y-41828D01*
X72767Y-41714D01*
X72806Y-41657D01*
X72882Y-41628D01*
X72958Y-41628D01*
X73034Y-41914D01*
X73301Y-41371D02*
X72767Y-41371D01*
X72920Y-41371D02*
X72844Y-41343D01*
X72806Y-41314D01*
X72767Y-41257D01*
X72767Y-41200D01*
X73263Y-40572D02*
X73301Y-40515D01*
X73301Y-40400D01*
X73263Y-40343D01*
X73187Y-40315D01*
X73148Y-40315D01*
X73072Y-40343D01*
X73034Y-40400D01*
X73034Y-40486D01*
X72996Y-40543D01*
X72920Y-40572D01*
X72882Y-40572D01*
X72806Y-40543D01*
X72767Y-40486D01*
X72767Y-40400D01*
X72806Y-40343D01*
X73301Y-40057D02*
X72501Y-40057D01*
X73301Y-39800D02*
X72882Y-39800D01*
X72806Y-39829D01*
X72767Y-39886D01*
X72767Y-39971D01*
X72806Y-40029D01*
X72844Y-40057D01*
X73301Y-39514D02*
X72767Y-39514D01*
X72501Y-39514D02*
X72539Y-39543D01*
X72577Y-39514D01*
X72539Y-39486D01*
X72501Y-39514D01*
X72577Y-39514D01*
X73263Y-39000D02*
X73301Y-39057D01*
X73301Y-39171D01*
X73263Y-39228D01*
X73187Y-39257D01*
X72882Y-39257D01*
X72806Y-39228D01*
X72767Y-39171D01*
X72767Y-39057D01*
X72806Y-39000D01*
X72882Y-38971D01*
X72958Y-38971D01*
X73034Y-39257D01*
X73301Y-38628D02*
X73263Y-38686D01*
X73187Y-38714D01*
X72501Y-38714D01*
X73301Y-38143D02*
X72501Y-38143D01*
X73263Y-38143D02*
X73301Y-38200D01*
X73301Y-38314D01*
X73263Y-38372D01*
X73225Y-38400D01*
X73148Y-38429D01*
X72920Y-38429D01*
X72844Y-38400D01*
X72806Y-38372D01*
X72767Y-38314D01*
X72767Y-38200D01*
X72806Y-38143D01*
X72767Y-37457D02*
X73301Y-37314D01*
X72767Y-37172D01*
X72577Y-36972D02*
X72539Y-36943D01*
X72501Y-36886D01*
X72501Y-36743D01*
X72539Y-36686D01*
X72577Y-36657D01*
X72653Y-36629D01*
X72729Y-36629D01*
X72844Y-36657D01*
X73301Y-37000D01*
X73301Y-36629D01*
X73225Y-36372D02*
X73263Y-36344D01*
X73301Y-36372D01*
X73263Y-36401D01*
X73225Y-36372D01*
X73301Y-36372D01*
X73301Y-35772D02*
X73301Y-36115D01*
X73301Y-35943D02*
X72501Y-35943D01*
X72615Y-36000D01*
X72691Y-36058D01*
X72729Y-36115D01*
G54D13*
X57851Y-30501D02*
X75651Y-30501D01*
X75651Y-51501D02*
X75651Y-30501D01*
X57851Y-51501D02*
X75651Y-51501D01*
X57851Y-30501D02*
X57851Y-51501D01*
X68650Y-37000D02*
X68650Y-45000D01*
X68650Y-45000D02*
X64850Y-45000D01*
X64850Y-45000D02*
X64850Y-37000D01*
X64850Y-37000D02*
X68650Y-37000D01*
X63876Y-38283D02*
X63876Y-39465D01*
X64589Y-38888D02*
X63889Y-38288D01*
X63890Y-39488D02*
X64590Y-38888D01*
G54D12*
X62156Y-39141D02*
X62156Y-38541D01*
X62384Y-38541D01*
X62442Y-38569D01*
X62470Y-38598D01*
X62499Y-38655D01*
X62499Y-38741D01*
X62470Y-38798D01*
X62442Y-38827D01*
X62384Y-38855D01*
X62156Y-38855D01*
X63070Y-39141D02*
X62727Y-39141D01*
X62899Y-39141D02*
X62899Y-38541D01*
X62842Y-38627D01*
X62784Y-38684D01*
X62727Y-38712D01*
G54D14*
X68212Y-43024D02*
X68212Y-43310D01*
X68212Y-43167D02*
X67712Y-43167D01*
X67784Y-43215D01*
X67831Y-43262D01*
X67855Y-43310D01*
X67712Y-42715D02*
X67712Y-42667D01*
X67736Y-42619D01*
X67760Y-42596D01*
X67808Y-42572D01*
X67903Y-42548D01*
X68022Y-42548D01*
X68117Y-42572D01*
X68165Y-42596D01*
X68189Y-42619D01*
X68212Y-42667D01*
X68212Y-42715D01*
X68189Y-42762D01*
X68165Y-42786D01*
X68117Y-42810D01*
X68022Y-42834D01*
X67903Y-42834D01*
X67808Y-42810D01*
X67760Y-42786D01*
X67736Y-42762D01*
X67712Y-42715D01*
X65574Y-43142D02*
X65574Y-43047D01*
X65551Y-42999D01*
X65527Y-42975D01*
X65455Y-42928D01*
X65360Y-42904D01*
X65170Y-42904D01*
X65122Y-42928D01*
X65098Y-42952D01*
X65074Y-42999D01*
X65074Y-43095D01*
X65098Y-43142D01*
X65122Y-43166D01*
X65170Y-43190D01*
X65289Y-43190D01*
X65336Y-43166D01*
X65360Y-43142D01*
X65384Y-43095D01*
X65384Y-42999D01*
X65360Y-42952D01*
X65336Y-42928D01*
X65289Y-42904D01*
X67760Y-39135D02*
X67736Y-39111D01*
X67712Y-39063D01*
X67712Y-38944D01*
X67736Y-38897D01*
X67760Y-38873D01*
X67808Y-38849D01*
X67855Y-38849D01*
X67927Y-38873D01*
X68212Y-39159D01*
X68212Y-38849D01*
M02*
