M48
;DRILL file {PCBnew (2011-07-19)-testing} date Tue 12 Jun 2012 01:26:03 PM PDT
;FORMAT={2:4/ absolute / inch / suppress trailing zeros}
FMAT,2
INCH,LZ
T1C0.032
T2C0.040
%
G90
G05
M72
T1
X059051Y-031501
X060051Y-031501
X061051Y-031501
X062051Y-031501
X062651Y-050501
X063051Y-031501
X063651Y-050501
X064051Y-031501
X064651Y-050501
X065051Y-031501
X065651Y-050501
X066051Y-031501
X066651Y-050501
X067651Y-031501
X067651Y-050501
X068651Y-031501
X069651Y-031501
X069651Y-050501
X070651Y-031501
X070651Y-050501
X071651Y-031501
X071651Y-050501
X072651Y-031501
X072651Y-050501
X073651Y-031501
X073651Y-050501
X074651Y-031501
X074651Y-050501
T2
X06625Y-039
X06625Y-04
X06625Y-041
X06625Y-042
X06625Y-043
X06725Y-039
X06725Y-04
X06725Y-041
X06725Y-042
X06725Y-043
T0
M30
