G04 (created by PCBNEW-RS274X (2011-07-19)-testing) date Fri 10 Feb 2012 12:48:48 PM PST*
G01*
G70*
G90*
%MOIN*%
G04 Gerber Fmt 3.4, Leading zero omitted, Abs format*
%FSLAX34Y34*%
G04 APERTURE LIST*
%ADD10C,0.006000*%
%ADD11C,0.130000*%
%ADD12R,0.070000X0.070000*%
%ADD13C,0.070000*%
%ADD14C,0.035000*%
%ADD15C,0.012000*%
%ADD16C,0.010000*%
G04 APERTURE END LIST*
G54D10*
G54D11*
X67000Y-21000D03*
X51000Y-21000D03*
X67000Y-29000D03*
X51000Y-29000D03*
G54D12*
X53500Y-27000D03*
G54D13*
X54500Y-27000D03*
X53500Y-26000D03*
X54500Y-26000D03*
X53500Y-25000D03*
X54500Y-25000D03*
X53500Y-24000D03*
X54500Y-24000D03*
X53500Y-23000D03*
X54500Y-23000D03*
G54D14*
X58036Y-25192D03*
X58679Y-25191D03*
X62581Y-25132D03*
X53315Y-21411D03*
G54D15*
X54732Y-21888D02*
X58036Y-25192D01*
X53569Y-21888D02*
X54732Y-21888D01*
X52762Y-22695D02*
X53569Y-21888D01*
X52762Y-24262D02*
X52762Y-22695D01*
X53500Y-25000D02*
X52762Y-24262D01*
X58339Y-25531D02*
X58679Y-25191D01*
X57810Y-25531D02*
X58339Y-25531D01*
X54766Y-22487D02*
X57810Y-25531D01*
X53287Y-22487D02*
X54766Y-22487D01*
X52986Y-22788D02*
X53287Y-22487D01*
X52986Y-23486D02*
X52986Y-22788D01*
X53500Y-24000D02*
X52986Y-23486D01*
X60713Y-27000D02*
X54500Y-27000D01*
X62581Y-25132D02*
X60713Y-27000D01*
X52358Y-22368D02*
X53315Y-21411D01*
X52358Y-24858D02*
X52358Y-22368D01*
X53500Y-26000D02*
X52358Y-24858D01*
G54D10*
G36*
X67675Y-28402D02*
X67511Y-28238D01*
X67180Y-28100D01*
X66822Y-28100D01*
X66491Y-28237D01*
X66238Y-28489D01*
X66100Y-28820D01*
X66100Y-29178D01*
X66237Y-29509D01*
X66402Y-29675D01*
X63006Y-29675D01*
X63006Y-25217D01*
X63006Y-25048D01*
X62942Y-24892D01*
X62822Y-24772D01*
X62666Y-24707D01*
X62497Y-24707D01*
X62341Y-24771D01*
X62221Y-24891D01*
X62156Y-25047D01*
X62156Y-25118D01*
X60584Y-26690D01*
X55019Y-26690D01*
X55008Y-26661D01*
X54847Y-26500D01*
X55008Y-26339D01*
X55099Y-26119D01*
X55099Y-25881D01*
X55008Y-25661D01*
X54847Y-25500D01*
X55008Y-25339D01*
X55099Y-25119D01*
X55099Y-24881D01*
X55008Y-24661D01*
X54847Y-24500D01*
X55008Y-24339D01*
X55099Y-24119D01*
X55099Y-23881D01*
X55008Y-23661D01*
X54847Y-23500D01*
X55008Y-23339D01*
X55058Y-23217D01*
X57590Y-25750D01*
X57591Y-25750D01*
X57691Y-25817D01*
X57809Y-25840D01*
X57810Y-25841D01*
X58339Y-25841D01*
X58457Y-25817D01*
X58458Y-25817D01*
X58558Y-25750D01*
X58692Y-25616D01*
X58763Y-25616D01*
X58919Y-25552D01*
X59039Y-25432D01*
X59104Y-25276D01*
X59104Y-25107D01*
X59040Y-24951D01*
X58920Y-24831D01*
X58764Y-24766D01*
X58595Y-24766D01*
X58439Y-24830D01*
X58357Y-24912D01*
X58277Y-24832D01*
X58121Y-24767D01*
X58049Y-24767D01*
X54951Y-21669D01*
X54851Y-21602D01*
X54732Y-21578D01*
X53569Y-21578D01*
X53450Y-21602D01*
X53350Y-21669D01*
X52543Y-22476D01*
X52476Y-22576D01*
X52452Y-22695D01*
X52452Y-24262D01*
X52476Y-24381D01*
X52543Y-24481D01*
X52913Y-24851D01*
X52901Y-24881D01*
X52901Y-25119D01*
X52992Y-25339D01*
X53161Y-25508D01*
X53180Y-25515D01*
X53157Y-25586D01*
X53500Y-25929D01*
X53843Y-25586D01*
X53819Y-25515D01*
X53839Y-25508D01*
X54000Y-25347D01*
X54153Y-25500D01*
X53992Y-25661D01*
X53984Y-25680D01*
X53914Y-25657D01*
X53606Y-25965D01*
X53571Y-26000D01*
X53500Y-26071D01*
X53429Y-26000D01*
X53394Y-25965D01*
X53086Y-25657D01*
X52987Y-25690D01*
X52907Y-25909D01*
X52918Y-26144D01*
X52987Y-26310D01*
X53033Y-26325D01*
X52998Y-26361D01*
X53056Y-26419D01*
X53009Y-26439D01*
X52939Y-26509D01*
X52901Y-26600D01*
X52901Y-26699D01*
X52901Y-27399D01*
X52939Y-27491D01*
X53009Y-27561D01*
X53100Y-27599D01*
X53199Y-27599D01*
X53899Y-27599D01*
X53991Y-27561D01*
X54061Y-27491D01*
X54085Y-27432D01*
X54161Y-27508D01*
X54381Y-27599D01*
X54619Y-27599D01*
X54839Y-27508D01*
X55008Y-27339D01*
X55019Y-27310D01*
X60713Y-27310D01*
X60831Y-27286D01*
X60832Y-27286D01*
X60932Y-27219D01*
X62594Y-25557D01*
X62665Y-25557D01*
X62821Y-25493D01*
X62941Y-25373D01*
X63006Y-25217D01*
X63006Y-29675D01*
X51597Y-29675D01*
X51762Y-29511D01*
X51900Y-29180D01*
X51900Y-28822D01*
X51763Y-28491D01*
X51511Y-28238D01*
X51180Y-28100D01*
X50822Y-28100D01*
X50491Y-28237D01*
X50325Y-28402D01*
X50325Y-21597D01*
X50489Y-21762D01*
X50820Y-21900D01*
X51178Y-21900D01*
X51509Y-21763D01*
X51762Y-21511D01*
X51900Y-21180D01*
X51900Y-20822D01*
X51763Y-20491D01*
X51597Y-20325D01*
X66402Y-20325D01*
X66238Y-20489D01*
X66100Y-20820D01*
X66100Y-21178D01*
X66237Y-21509D01*
X66489Y-21762D01*
X66820Y-21900D01*
X67178Y-21900D01*
X67509Y-21763D01*
X67675Y-21597D01*
X67675Y-28402D01*
X67675Y-28402D01*
G37*
G54D16*
X67675Y-28402D02*
X67511Y-28238D01*
X67180Y-28100D01*
X66822Y-28100D01*
X66491Y-28237D01*
X66238Y-28489D01*
X66100Y-28820D01*
X66100Y-29178D01*
X66237Y-29509D01*
X66402Y-29675D01*
X63006Y-29675D01*
X63006Y-25217D01*
X63006Y-25048D01*
X62942Y-24892D01*
X62822Y-24772D01*
X62666Y-24707D01*
X62497Y-24707D01*
X62341Y-24771D01*
X62221Y-24891D01*
X62156Y-25047D01*
X62156Y-25118D01*
X60584Y-26690D01*
X55019Y-26690D01*
X55008Y-26661D01*
X54847Y-26500D01*
X55008Y-26339D01*
X55099Y-26119D01*
X55099Y-25881D01*
X55008Y-25661D01*
X54847Y-25500D01*
X55008Y-25339D01*
X55099Y-25119D01*
X55099Y-24881D01*
X55008Y-24661D01*
X54847Y-24500D01*
X55008Y-24339D01*
X55099Y-24119D01*
X55099Y-23881D01*
X55008Y-23661D01*
X54847Y-23500D01*
X55008Y-23339D01*
X55058Y-23217D01*
X57590Y-25750D01*
X57591Y-25750D01*
X57691Y-25817D01*
X57809Y-25840D01*
X57810Y-25841D01*
X58339Y-25841D01*
X58457Y-25817D01*
X58458Y-25817D01*
X58558Y-25750D01*
X58692Y-25616D01*
X58763Y-25616D01*
X58919Y-25552D01*
X59039Y-25432D01*
X59104Y-25276D01*
X59104Y-25107D01*
X59040Y-24951D01*
X58920Y-24831D01*
X58764Y-24766D01*
X58595Y-24766D01*
X58439Y-24830D01*
X58357Y-24912D01*
X58277Y-24832D01*
X58121Y-24767D01*
X58049Y-24767D01*
X54951Y-21669D01*
X54851Y-21602D01*
X54732Y-21578D01*
X53569Y-21578D01*
X53450Y-21602D01*
X53350Y-21669D01*
X52543Y-22476D01*
X52476Y-22576D01*
X52452Y-22695D01*
X52452Y-24262D01*
X52476Y-24381D01*
X52543Y-24481D01*
X52913Y-24851D01*
X52901Y-24881D01*
X52901Y-25119D01*
X52992Y-25339D01*
X53161Y-25508D01*
X53180Y-25515D01*
X53157Y-25586D01*
X53500Y-25929D01*
X53843Y-25586D01*
X53819Y-25515D01*
X53839Y-25508D01*
X54000Y-25347D01*
X54153Y-25500D01*
X53992Y-25661D01*
X53984Y-25680D01*
X53914Y-25657D01*
X53606Y-25965D01*
X53571Y-26000D01*
X53500Y-26071D01*
X53429Y-26000D01*
X53394Y-25965D01*
X53086Y-25657D01*
X52987Y-25690D01*
X52907Y-25909D01*
X52918Y-26144D01*
X52987Y-26310D01*
X53033Y-26325D01*
X52998Y-26361D01*
X53056Y-26419D01*
X53009Y-26439D01*
X52939Y-26509D01*
X52901Y-26600D01*
X52901Y-26699D01*
X52901Y-27399D01*
X52939Y-27491D01*
X53009Y-27561D01*
X53100Y-27599D01*
X53199Y-27599D01*
X53899Y-27599D01*
X53991Y-27561D01*
X54061Y-27491D01*
X54085Y-27432D01*
X54161Y-27508D01*
X54381Y-27599D01*
X54619Y-27599D01*
X54839Y-27508D01*
X55008Y-27339D01*
X55019Y-27310D01*
X60713Y-27310D01*
X60831Y-27286D01*
X60832Y-27286D01*
X60932Y-27219D01*
X62594Y-25557D01*
X62665Y-25557D01*
X62821Y-25493D01*
X62941Y-25373D01*
X63006Y-25217D01*
X63006Y-29675D01*
X51597Y-29675D01*
X51762Y-29511D01*
X51900Y-29180D01*
X51900Y-28822D01*
X51763Y-28491D01*
X51511Y-28238D01*
X51180Y-28100D01*
X50822Y-28100D01*
X50491Y-28237D01*
X50325Y-28402D01*
X50325Y-21597D01*
X50489Y-21762D01*
X50820Y-21900D01*
X51178Y-21900D01*
X51509Y-21763D01*
X51762Y-21511D01*
X51900Y-21180D01*
X51900Y-20822D01*
X51763Y-20491D01*
X51597Y-20325D01*
X66402Y-20325D01*
X66238Y-20489D01*
X66100Y-20820D01*
X66100Y-21178D01*
X66237Y-21509D01*
X66489Y-21762D01*
X66820Y-21900D01*
X67178Y-21900D01*
X67509Y-21763D01*
X67675Y-21597D01*
X67675Y-28402D01*
M02*
