G04 (created by PCBNEW-RS274X (2011-07-19)-testing) date Fri 10 Feb 2012 12:48:48 PM PST*
G01*
G70*
G90*
%MOIN*%
G04 Gerber Fmt 3.4, Leading zero omitted, Abs format*
%FSLAX34Y34*%
G04 APERTURE LIST*
%ADD10C,0.006000*%
%ADD11C,0.130000*%
%ADD12R,0.019700X0.088600*%
%ADD13R,0.025000X0.045000*%
%ADD14R,0.070000X0.070000*%
%ADD15C,0.070000*%
%ADD16R,0.070900X0.047200*%
%ADD17R,0.070900X0.059100*%
%ADD18C,0.035000*%
%ADD19C,0.012000*%
%ADD20C,0.010000*%
G04 APERTURE END LIST*
G54D10*
G54D11*
X67000Y-21000D03*
X51000Y-21000D03*
X67000Y-29000D03*
X51000Y-29000D03*
G54D12*
X58250Y-24085D03*
X58750Y-24085D03*
X59250Y-24085D03*
X59750Y-24085D03*
X58250Y-25916D03*
X58750Y-25916D03*
X59250Y-25916D03*
X59750Y-25916D03*
G54D13*
X53697Y-21800D03*
X54297Y-21800D03*
G54D14*
X53500Y-27000D03*
G54D15*
X54500Y-27000D03*
X53500Y-26000D03*
X54500Y-26000D03*
X53500Y-25000D03*
X54500Y-25000D03*
X53500Y-24000D03*
X54500Y-24000D03*
X53500Y-23000D03*
X54500Y-23000D03*
G54D16*
X64302Y-23324D03*
X64302Y-24308D03*
X64302Y-26276D03*
G54D17*
X67098Y-26276D03*
X67098Y-25292D03*
G54D16*
X64302Y-25292D03*
G54D17*
X67098Y-24308D03*
X67098Y-23324D03*
G54D18*
X58036Y-25192D03*
X58679Y-25191D03*
X62581Y-25132D03*
X53315Y-21411D03*
G54D19*
X53697Y-21800D02*
X53409Y-21800D01*
X59750Y-24085D02*
X59750Y-23479D01*
X52963Y-22726D02*
X53500Y-22189D01*
X52963Y-26463D02*
X52963Y-22726D01*
X53500Y-27000D02*
X52963Y-26463D01*
X58460Y-22189D02*
X53500Y-22189D01*
X59750Y-23479D02*
X58460Y-22189D01*
X53409Y-22098D02*
X53409Y-21800D01*
X53500Y-22189D02*
X53409Y-22098D01*
X59250Y-24085D02*
X59250Y-24691D01*
X55191Y-24691D02*
X54500Y-24000D01*
X59250Y-24691D02*
X55191Y-24691D01*
X58250Y-25916D02*
X58250Y-25310D01*
X58154Y-25310D02*
X58250Y-25310D01*
X58036Y-25192D02*
X58154Y-25310D01*
X58750Y-25262D02*
X58750Y-25916D01*
X58679Y-25191D02*
X58750Y-25262D01*
X54071Y-22429D02*
X53500Y-23000D01*
X57700Y-22429D02*
X54071Y-22429D01*
X58750Y-23479D02*
X57700Y-22429D01*
X58750Y-24085D02*
X58750Y-23479D01*
X57771Y-23000D02*
X58250Y-23479D01*
X54500Y-23000D02*
X57771Y-23000D01*
X58250Y-24085D02*
X58250Y-23479D01*
X67098Y-26276D02*
X64302Y-26276D01*
X56023Y-26523D02*
X54500Y-25000D01*
X63537Y-26523D02*
X56023Y-26523D01*
X63784Y-26276D02*
X63537Y-26523D01*
X64302Y-26276D02*
X63784Y-26276D01*
X64302Y-25292D02*
X67098Y-25292D01*
X55905Y-27405D02*
X54500Y-26000D01*
X66950Y-27405D02*
X55905Y-27405D01*
X67642Y-26713D02*
X66950Y-27405D01*
X67642Y-25836D02*
X67642Y-26713D01*
X67556Y-25750D02*
X67642Y-25836D01*
X67098Y-25750D02*
X67556Y-25750D01*
X67098Y-25292D02*
X67098Y-25750D01*
X67098Y-24308D02*
X64302Y-24308D01*
X63405Y-24308D02*
X62581Y-25132D01*
X64302Y-24308D02*
X63405Y-24308D01*
X67098Y-23324D02*
X64302Y-23324D01*
X64302Y-23324D02*
X63784Y-23324D01*
X58415Y-21800D02*
X60287Y-23672D01*
X54585Y-21800D02*
X58415Y-21800D01*
X63436Y-23672D02*
X63784Y-23324D01*
X60287Y-23672D02*
X63436Y-23672D01*
X60287Y-24773D02*
X59750Y-25310D01*
X60287Y-23672D02*
X60287Y-24773D01*
X59750Y-25916D02*
X59750Y-25613D01*
X59750Y-25613D02*
X59750Y-25310D01*
X59447Y-25310D02*
X59250Y-25310D01*
X59750Y-25613D02*
X59447Y-25310D01*
X59250Y-25916D02*
X59250Y-25310D01*
X54297Y-21800D02*
X54369Y-21800D01*
X54369Y-21800D02*
X54585Y-21800D01*
X53980Y-21411D02*
X53315Y-21411D01*
X54369Y-21800D02*
X53980Y-21411D01*
G54D10*
G36*
X54153Y-25500D02*
X53992Y-25661D01*
X53984Y-25680D01*
X53914Y-25657D01*
X53606Y-25965D01*
X53571Y-26000D01*
X53500Y-26071D01*
X53429Y-26000D01*
X53500Y-25929D01*
X53535Y-25894D01*
X53843Y-25586D01*
X53819Y-25515D01*
X53839Y-25508D01*
X54000Y-25347D01*
X54153Y-25500D01*
X54153Y-25500D01*
G37*
G54D20*
X54153Y-25500D02*
X53992Y-25661D01*
X53984Y-25680D01*
X53914Y-25657D01*
X53606Y-25965D01*
X53571Y-26000D01*
X53500Y-26071D01*
X53429Y-26000D01*
X53500Y-25929D01*
X53535Y-25894D01*
X53843Y-25586D01*
X53819Y-25515D01*
X53839Y-25508D01*
X54000Y-25347D01*
X54153Y-25500D01*
G54D10*
G36*
X67675Y-28402D02*
X67511Y-28238D01*
X67180Y-28100D01*
X66822Y-28100D01*
X66491Y-28237D01*
X66238Y-28489D01*
X66100Y-28820D01*
X66100Y-29178D01*
X66237Y-29509D01*
X66402Y-29675D01*
X51597Y-29675D01*
X51762Y-29511D01*
X51900Y-29180D01*
X51900Y-28822D01*
X51763Y-28491D01*
X51511Y-28238D01*
X51180Y-28100D01*
X50822Y-28100D01*
X50491Y-28237D01*
X50325Y-28402D01*
X50325Y-21597D01*
X50489Y-21762D01*
X50820Y-21900D01*
X51178Y-21900D01*
X51509Y-21763D01*
X51762Y-21511D01*
X51900Y-21180D01*
X51900Y-20822D01*
X51763Y-20491D01*
X51597Y-20325D01*
X66402Y-20325D01*
X66238Y-20489D01*
X66100Y-20820D01*
X66100Y-21178D01*
X66237Y-21509D01*
X66489Y-21762D01*
X66820Y-21900D01*
X67178Y-21900D01*
X67509Y-21763D01*
X67675Y-21597D01*
X67675Y-22917D01*
X67663Y-22888D01*
X67593Y-22818D01*
X67502Y-22780D01*
X67403Y-22780D01*
X67210Y-22779D01*
X67148Y-22841D01*
X67148Y-23224D01*
X67148Y-23274D01*
X67148Y-23374D01*
X67048Y-23374D01*
X67048Y-23274D01*
X67048Y-22841D01*
X66986Y-22779D01*
X66793Y-22780D01*
X66694Y-22780D01*
X66603Y-22818D01*
X66533Y-22888D01*
X66495Y-22980D01*
X66494Y-23212D01*
X66556Y-23274D01*
X67048Y-23274D01*
X67048Y-23374D01*
X66998Y-23374D01*
X66556Y-23374D01*
X66494Y-23436D01*
X66495Y-23668D01*
X66533Y-23760D01*
X66589Y-23816D01*
X66533Y-23872D01*
X66495Y-23963D01*
X66495Y-23998D01*
X64906Y-23998D01*
X64906Y-23436D01*
X64906Y-23212D01*
X64905Y-23039D01*
X64867Y-22947D01*
X64797Y-22877D01*
X64706Y-22839D01*
X64607Y-22839D01*
X64414Y-22838D01*
X64352Y-22900D01*
X64352Y-23274D01*
X64844Y-23274D01*
X64906Y-23212D01*
X64906Y-23436D01*
X64844Y-23374D01*
X64352Y-23374D01*
X64352Y-23748D01*
X64414Y-23810D01*
X64607Y-23809D01*
X64706Y-23809D01*
X64797Y-23771D01*
X64867Y-23701D01*
X64905Y-23609D01*
X64906Y-23436D01*
X64906Y-23998D01*
X64894Y-23998D01*
X64867Y-23931D01*
X64797Y-23861D01*
X64706Y-23823D01*
X64607Y-23823D01*
X64252Y-23823D01*
X64252Y-23748D01*
X64252Y-23374D01*
X64252Y-23274D01*
X64252Y-22900D01*
X64190Y-22838D01*
X63997Y-22839D01*
X63898Y-22839D01*
X63807Y-22877D01*
X63737Y-22947D01*
X63699Y-23039D01*
X63698Y-23212D01*
X63760Y-23274D01*
X64252Y-23274D01*
X64252Y-23374D01*
X63760Y-23374D01*
X63698Y-23436D01*
X63699Y-23609D01*
X63737Y-23701D01*
X63807Y-23771D01*
X63898Y-23809D01*
X63997Y-23809D01*
X64190Y-23810D01*
X64252Y-23748D01*
X64252Y-23823D01*
X63899Y-23823D01*
X63807Y-23861D01*
X63737Y-23931D01*
X63709Y-23998D01*
X63405Y-23998D01*
X63286Y-24022D01*
X63186Y-24089D01*
X62568Y-24707D01*
X62497Y-24707D01*
X62341Y-24771D01*
X62221Y-24891D01*
X62156Y-25047D01*
X62156Y-25216D01*
X62220Y-25372D01*
X62340Y-25492D01*
X62496Y-25557D01*
X62665Y-25557D01*
X62821Y-25493D01*
X62941Y-25373D01*
X63006Y-25217D01*
X63006Y-25145D01*
X63533Y-24618D01*
X63709Y-24618D01*
X63737Y-24685D01*
X63807Y-24755D01*
X63898Y-24793D01*
X63997Y-24793D01*
X64705Y-24793D01*
X64797Y-24755D01*
X64867Y-24685D01*
X64894Y-24618D01*
X66495Y-24618D01*
X66495Y-24652D01*
X66533Y-24744D01*
X66589Y-24800D01*
X66533Y-24856D01*
X66495Y-24947D01*
X66495Y-24982D01*
X64894Y-24982D01*
X64867Y-24915D01*
X64797Y-24845D01*
X64706Y-24807D01*
X64607Y-24807D01*
X63899Y-24807D01*
X63807Y-24845D01*
X63737Y-24915D01*
X63699Y-25006D01*
X63699Y-25105D01*
X63699Y-25577D01*
X63737Y-25669D01*
X63807Y-25739D01*
X63898Y-25777D01*
X63997Y-25777D01*
X64705Y-25777D01*
X64797Y-25739D01*
X64867Y-25669D01*
X64894Y-25602D01*
X66495Y-25602D01*
X66495Y-25636D01*
X66533Y-25728D01*
X66589Y-25784D01*
X66533Y-25840D01*
X66495Y-25931D01*
X66495Y-25966D01*
X64894Y-25966D01*
X64867Y-25899D01*
X64797Y-25829D01*
X64706Y-25791D01*
X64607Y-25791D01*
X63899Y-25791D01*
X63807Y-25829D01*
X63737Y-25899D01*
X63702Y-25982D01*
X63701Y-25982D01*
X63665Y-25990D01*
X63565Y-26057D01*
X63409Y-26213D01*
X60097Y-26213D01*
X60098Y-26028D01*
X60098Y-25804D01*
X60097Y-25522D01*
X60097Y-25423D01*
X60059Y-25332D01*
X59989Y-25262D01*
X59897Y-25224D01*
X59861Y-25223D01*
X59799Y-25285D01*
X59799Y-25866D01*
X60036Y-25866D01*
X60098Y-25804D01*
X60098Y-26028D01*
X60036Y-25966D01*
X59850Y-25966D01*
X59799Y-25966D01*
X59701Y-25966D01*
X59701Y-25866D01*
X59701Y-25285D01*
X59639Y-25223D01*
X59603Y-25224D01*
X59511Y-25262D01*
X59500Y-25273D01*
X59489Y-25262D01*
X59397Y-25224D01*
X59361Y-25223D01*
X59299Y-25285D01*
X59299Y-25866D01*
X59464Y-25866D01*
X59536Y-25866D01*
X59701Y-25866D01*
X59701Y-25966D01*
X59650Y-25966D01*
X59536Y-25966D01*
X59464Y-25966D01*
X59350Y-25966D01*
X59299Y-25966D01*
X59201Y-25966D01*
X59200Y-25966D01*
X59200Y-25866D01*
X59201Y-25866D01*
X59201Y-25285D01*
X59139Y-25223D01*
X59104Y-25223D01*
X59104Y-25107D01*
X59060Y-25001D01*
X59250Y-25001D01*
X59369Y-24977D01*
X59469Y-24910D01*
X59536Y-24810D01*
X59547Y-24754D01*
X59602Y-24777D01*
X59701Y-24777D01*
X59897Y-24777D01*
X59989Y-24739D01*
X60059Y-24669D01*
X60097Y-24578D01*
X60097Y-24479D01*
X60097Y-23593D01*
X60060Y-23503D01*
X60060Y-23479D01*
X60036Y-23361D01*
X60036Y-23360D01*
X59969Y-23260D01*
X58679Y-21970D01*
X58579Y-21903D01*
X58460Y-21879D01*
X54672Y-21879D01*
X54672Y-21688D01*
X54671Y-21624D01*
X54671Y-21525D01*
X54633Y-21434D01*
X54563Y-21364D01*
X54471Y-21326D01*
X54409Y-21325D01*
X54347Y-21387D01*
X54347Y-21750D01*
X54610Y-21750D01*
X54672Y-21688D01*
X54672Y-21879D01*
X54639Y-21879D01*
X54610Y-21850D01*
X54397Y-21850D01*
X54347Y-21850D01*
X54247Y-21850D01*
X54247Y-21750D01*
X54247Y-21700D01*
X54247Y-21387D01*
X54185Y-21325D01*
X54123Y-21326D01*
X54031Y-21364D01*
X53997Y-21398D01*
X53963Y-21364D01*
X53872Y-21326D01*
X53773Y-21326D01*
X53523Y-21326D01*
X53431Y-21364D01*
X53361Y-21434D01*
X53331Y-21505D01*
X53290Y-21514D01*
X53190Y-21581D01*
X53123Y-21681D01*
X53099Y-21800D01*
X53099Y-22098D01*
X53107Y-22142D01*
X52744Y-22507D01*
X52677Y-22607D01*
X52653Y-22726D01*
X52653Y-26463D01*
X52677Y-26582D01*
X52744Y-26682D01*
X52901Y-26839D01*
X52901Y-27399D01*
X52939Y-27491D01*
X53009Y-27561D01*
X53100Y-27599D01*
X53199Y-27599D01*
X53899Y-27599D01*
X53991Y-27561D01*
X54061Y-27491D01*
X54085Y-27432D01*
X54161Y-27508D01*
X54381Y-27599D01*
X54619Y-27599D01*
X54839Y-27508D01*
X55008Y-27339D01*
X55099Y-27119D01*
X55099Y-27037D01*
X55685Y-27624D01*
X55686Y-27624D01*
X55786Y-27691D01*
X55904Y-27714D01*
X55905Y-27715D01*
X66950Y-27715D01*
X67068Y-27691D01*
X67069Y-27691D01*
X67169Y-27624D01*
X67675Y-27118D01*
X67675Y-28402D01*
X67675Y-28402D01*
G37*
G54D20*
X67675Y-28402D02*
X67511Y-28238D01*
X67180Y-28100D01*
X66822Y-28100D01*
X66491Y-28237D01*
X66238Y-28489D01*
X66100Y-28820D01*
X66100Y-29178D01*
X66237Y-29509D01*
X66402Y-29675D01*
X51597Y-29675D01*
X51762Y-29511D01*
X51900Y-29180D01*
X51900Y-28822D01*
X51763Y-28491D01*
X51511Y-28238D01*
X51180Y-28100D01*
X50822Y-28100D01*
X50491Y-28237D01*
X50325Y-28402D01*
X50325Y-21597D01*
X50489Y-21762D01*
X50820Y-21900D01*
X51178Y-21900D01*
X51509Y-21763D01*
X51762Y-21511D01*
X51900Y-21180D01*
X51900Y-20822D01*
X51763Y-20491D01*
X51597Y-20325D01*
X66402Y-20325D01*
X66238Y-20489D01*
X66100Y-20820D01*
X66100Y-21178D01*
X66237Y-21509D01*
X66489Y-21762D01*
X66820Y-21900D01*
X67178Y-21900D01*
X67509Y-21763D01*
X67675Y-21597D01*
X67675Y-22917D01*
X67663Y-22888D01*
X67593Y-22818D01*
X67502Y-22780D01*
X67403Y-22780D01*
X67210Y-22779D01*
X67148Y-22841D01*
X67148Y-23224D01*
X67148Y-23274D01*
X67148Y-23374D01*
X67048Y-23374D01*
X67048Y-23274D01*
X67048Y-22841D01*
X66986Y-22779D01*
X66793Y-22780D01*
X66694Y-22780D01*
X66603Y-22818D01*
X66533Y-22888D01*
X66495Y-22980D01*
X66494Y-23212D01*
X66556Y-23274D01*
X67048Y-23274D01*
X67048Y-23374D01*
X66998Y-23374D01*
X66556Y-23374D01*
X66494Y-23436D01*
X66495Y-23668D01*
X66533Y-23760D01*
X66589Y-23816D01*
X66533Y-23872D01*
X66495Y-23963D01*
X66495Y-23998D01*
X64906Y-23998D01*
X64906Y-23436D01*
X64906Y-23212D01*
X64905Y-23039D01*
X64867Y-22947D01*
X64797Y-22877D01*
X64706Y-22839D01*
X64607Y-22839D01*
X64414Y-22838D01*
X64352Y-22900D01*
X64352Y-23274D01*
X64844Y-23274D01*
X64906Y-23212D01*
X64906Y-23436D01*
X64844Y-23374D01*
X64352Y-23374D01*
X64352Y-23748D01*
X64414Y-23810D01*
X64607Y-23809D01*
X64706Y-23809D01*
X64797Y-23771D01*
X64867Y-23701D01*
X64905Y-23609D01*
X64906Y-23436D01*
X64906Y-23998D01*
X64894Y-23998D01*
X64867Y-23931D01*
X64797Y-23861D01*
X64706Y-23823D01*
X64607Y-23823D01*
X64252Y-23823D01*
X64252Y-23748D01*
X64252Y-23374D01*
X64252Y-23274D01*
X64252Y-22900D01*
X64190Y-22838D01*
X63997Y-22839D01*
X63898Y-22839D01*
X63807Y-22877D01*
X63737Y-22947D01*
X63699Y-23039D01*
X63698Y-23212D01*
X63760Y-23274D01*
X64252Y-23274D01*
X64252Y-23374D01*
X63760Y-23374D01*
X63698Y-23436D01*
X63699Y-23609D01*
X63737Y-23701D01*
X63807Y-23771D01*
X63898Y-23809D01*
X63997Y-23809D01*
X64190Y-23810D01*
X64252Y-23748D01*
X64252Y-23823D01*
X63899Y-23823D01*
X63807Y-23861D01*
X63737Y-23931D01*
X63709Y-23998D01*
X63405Y-23998D01*
X63286Y-24022D01*
X63186Y-24089D01*
X62568Y-24707D01*
X62497Y-24707D01*
X62341Y-24771D01*
X62221Y-24891D01*
X62156Y-25047D01*
X62156Y-25216D01*
X62220Y-25372D01*
X62340Y-25492D01*
X62496Y-25557D01*
X62665Y-25557D01*
X62821Y-25493D01*
X62941Y-25373D01*
X63006Y-25217D01*
X63006Y-25145D01*
X63533Y-24618D01*
X63709Y-24618D01*
X63737Y-24685D01*
X63807Y-24755D01*
X63898Y-24793D01*
X63997Y-24793D01*
X64705Y-24793D01*
X64797Y-24755D01*
X64867Y-24685D01*
X64894Y-24618D01*
X66495Y-24618D01*
X66495Y-24652D01*
X66533Y-24744D01*
X66589Y-24800D01*
X66533Y-24856D01*
X66495Y-24947D01*
X66495Y-24982D01*
X64894Y-24982D01*
X64867Y-24915D01*
X64797Y-24845D01*
X64706Y-24807D01*
X64607Y-24807D01*
X63899Y-24807D01*
X63807Y-24845D01*
X63737Y-24915D01*
X63699Y-25006D01*
X63699Y-25105D01*
X63699Y-25577D01*
X63737Y-25669D01*
X63807Y-25739D01*
X63898Y-25777D01*
X63997Y-25777D01*
X64705Y-25777D01*
X64797Y-25739D01*
X64867Y-25669D01*
X64894Y-25602D01*
X66495Y-25602D01*
X66495Y-25636D01*
X66533Y-25728D01*
X66589Y-25784D01*
X66533Y-25840D01*
X66495Y-25931D01*
X66495Y-25966D01*
X64894Y-25966D01*
X64867Y-25899D01*
X64797Y-25829D01*
X64706Y-25791D01*
X64607Y-25791D01*
X63899Y-25791D01*
X63807Y-25829D01*
X63737Y-25899D01*
X63702Y-25982D01*
X63701Y-25982D01*
X63665Y-25990D01*
X63565Y-26057D01*
X63409Y-26213D01*
X60097Y-26213D01*
X60098Y-26028D01*
X60098Y-25804D01*
X60097Y-25522D01*
X60097Y-25423D01*
X60059Y-25332D01*
X59989Y-25262D01*
X59897Y-25224D01*
X59861Y-25223D01*
X59799Y-25285D01*
X59799Y-25866D01*
X60036Y-25866D01*
X60098Y-25804D01*
X60098Y-26028D01*
X60036Y-25966D01*
X59850Y-25966D01*
X59799Y-25966D01*
X59701Y-25966D01*
X59701Y-25866D01*
X59701Y-25285D01*
X59639Y-25223D01*
X59603Y-25224D01*
X59511Y-25262D01*
X59500Y-25273D01*
X59489Y-25262D01*
X59397Y-25224D01*
X59361Y-25223D01*
X59299Y-25285D01*
X59299Y-25866D01*
X59464Y-25866D01*
X59536Y-25866D01*
X59701Y-25866D01*
X59701Y-25966D01*
X59650Y-25966D01*
X59536Y-25966D01*
X59464Y-25966D01*
X59350Y-25966D01*
X59299Y-25966D01*
X59201Y-25966D01*
X59200Y-25966D01*
X59200Y-25866D01*
X59201Y-25866D01*
X59201Y-25285D01*
X59139Y-25223D01*
X59104Y-25223D01*
X59104Y-25107D01*
X59060Y-25001D01*
X59250Y-25001D01*
X59369Y-24977D01*
X59469Y-24910D01*
X59536Y-24810D01*
X59547Y-24754D01*
X59602Y-24777D01*
X59701Y-24777D01*
X59897Y-24777D01*
X59989Y-24739D01*
X60059Y-24669D01*
X60097Y-24578D01*
X60097Y-24479D01*
X60097Y-23593D01*
X60060Y-23503D01*
X60060Y-23479D01*
X60036Y-23361D01*
X60036Y-23360D01*
X59969Y-23260D01*
X58679Y-21970D01*
X58579Y-21903D01*
X58460Y-21879D01*
X54672Y-21879D01*
X54672Y-21688D01*
X54671Y-21624D01*
X54671Y-21525D01*
X54633Y-21434D01*
X54563Y-21364D01*
X54471Y-21326D01*
X54409Y-21325D01*
X54347Y-21387D01*
X54347Y-21750D01*
X54610Y-21750D01*
X54672Y-21688D01*
X54672Y-21879D01*
X54639Y-21879D01*
X54610Y-21850D01*
X54397Y-21850D01*
X54347Y-21850D01*
X54247Y-21850D01*
X54247Y-21750D01*
X54247Y-21700D01*
X54247Y-21387D01*
X54185Y-21325D01*
X54123Y-21326D01*
X54031Y-21364D01*
X53997Y-21398D01*
X53963Y-21364D01*
X53872Y-21326D01*
X53773Y-21326D01*
X53523Y-21326D01*
X53431Y-21364D01*
X53361Y-21434D01*
X53331Y-21505D01*
X53290Y-21514D01*
X53190Y-21581D01*
X53123Y-21681D01*
X53099Y-21800D01*
X53099Y-22098D01*
X53107Y-22142D01*
X52744Y-22507D01*
X52677Y-22607D01*
X52653Y-22726D01*
X52653Y-26463D01*
X52677Y-26582D01*
X52744Y-26682D01*
X52901Y-26839D01*
X52901Y-27399D01*
X52939Y-27491D01*
X53009Y-27561D01*
X53100Y-27599D01*
X53199Y-27599D01*
X53899Y-27599D01*
X53991Y-27561D01*
X54061Y-27491D01*
X54085Y-27432D01*
X54161Y-27508D01*
X54381Y-27599D01*
X54619Y-27599D01*
X54839Y-27508D01*
X55008Y-27339D01*
X55099Y-27119D01*
X55099Y-27037D01*
X55685Y-27624D01*
X55686Y-27624D01*
X55786Y-27691D01*
X55904Y-27714D01*
X55905Y-27715D01*
X66950Y-27715D01*
X67068Y-27691D01*
X67069Y-27691D01*
X67169Y-27624D01*
X67675Y-27118D01*
X67675Y-28402D01*
M02*
