G04 (created by PCBNEW-RS274X (2011-07-19)-testing) date Fri 10 Feb 2012 12:48:48 PM PST*
G01*
G70*
G90*
%MOIN*%
G04 Gerber Fmt 3.4, Leading zero omitted, Abs format*
%FSLAX34Y34*%
G04 APERTURE LIST*
%ADD10C,0.006000*%
%ADD11C,0.007900*%
%ADD12C,0.012000*%
%ADD13C,0.015000*%
%ADD14C,0.005000*%
%ADD15C,0.009800*%
%ADD16C,0.004500*%
G04 APERTURE END LIST*
G54D10*
G54D11*
X62366Y-26359D02*
X62366Y-25965D01*
X62366Y-26116D02*
X62403Y-26097D01*
X62478Y-26097D01*
X62516Y-26116D01*
X62535Y-26134D01*
X62553Y-26172D01*
X62553Y-26284D01*
X62535Y-26322D01*
X62516Y-26341D01*
X62478Y-26359D01*
X62403Y-26359D01*
X62366Y-26341D01*
X62778Y-26359D02*
X62741Y-26341D01*
X62722Y-26303D01*
X62722Y-25965D01*
X63097Y-26097D02*
X63097Y-26359D01*
X62928Y-26097D02*
X62928Y-26303D01*
X62947Y-26341D01*
X62984Y-26359D01*
X63040Y-26359D01*
X63078Y-26341D01*
X63097Y-26322D01*
X63434Y-26341D02*
X63396Y-26359D01*
X63321Y-26359D01*
X63284Y-26341D01*
X63265Y-26303D01*
X63265Y-26153D01*
X63284Y-26116D01*
X63321Y-26097D01*
X63396Y-26097D01*
X63434Y-26116D01*
X63453Y-26153D01*
X63453Y-26191D01*
X63265Y-26228D01*
X62247Y-25097D02*
X62247Y-25416D01*
X62228Y-25453D01*
X62209Y-25472D01*
X62172Y-25491D01*
X62115Y-25491D01*
X62078Y-25472D01*
X62247Y-25341D02*
X62209Y-25359D01*
X62134Y-25359D01*
X62097Y-25341D01*
X62078Y-25322D01*
X62059Y-25284D01*
X62059Y-25172D01*
X62078Y-25134D01*
X62097Y-25116D01*
X62134Y-25097D01*
X62209Y-25097D01*
X62247Y-25116D01*
X62434Y-25359D02*
X62434Y-25097D01*
X62434Y-25172D02*
X62453Y-25134D01*
X62471Y-25116D01*
X62509Y-25097D01*
X62546Y-25097D01*
X62828Y-25341D02*
X62790Y-25359D01*
X62715Y-25359D01*
X62678Y-25341D01*
X62659Y-25303D01*
X62659Y-25153D01*
X62678Y-25116D01*
X62715Y-25097D01*
X62790Y-25097D01*
X62828Y-25116D01*
X62847Y-25153D01*
X62847Y-25191D01*
X62659Y-25228D01*
X63166Y-25341D02*
X63128Y-25359D01*
X63053Y-25359D01*
X63016Y-25341D01*
X62997Y-25303D01*
X62997Y-25153D01*
X63016Y-25116D01*
X63053Y-25097D01*
X63128Y-25097D01*
X63166Y-25116D01*
X63185Y-25153D01*
X63185Y-25191D01*
X62997Y-25228D01*
X63354Y-25097D02*
X63354Y-25359D01*
X63354Y-25134D02*
X63373Y-25116D01*
X63410Y-25097D01*
X63466Y-25097D01*
X63504Y-25116D01*
X63523Y-25153D01*
X63523Y-25359D01*
X62625Y-24459D02*
X62625Y-24197D01*
X62625Y-24272D02*
X62644Y-24234D01*
X62662Y-24216D01*
X62700Y-24197D01*
X62737Y-24197D01*
X63019Y-24441D02*
X62981Y-24459D01*
X62906Y-24459D01*
X62869Y-24441D01*
X62850Y-24403D01*
X62850Y-24253D01*
X62869Y-24216D01*
X62906Y-24197D01*
X62981Y-24197D01*
X63019Y-24216D01*
X63038Y-24253D01*
X63038Y-24291D01*
X62850Y-24328D01*
X63376Y-24459D02*
X63376Y-24065D01*
X63376Y-24441D02*
X63338Y-24459D01*
X63263Y-24459D01*
X63226Y-24441D01*
X63207Y-24422D01*
X63188Y-24384D01*
X63188Y-24272D01*
X63207Y-24234D01*
X63226Y-24216D01*
X63263Y-24197D01*
X63338Y-24197D01*
X63376Y-24216D01*
X62700Y-23184D02*
X62663Y-23165D01*
X62606Y-23165D01*
X62550Y-23184D01*
X62513Y-23222D01*
X62494Y-23259D01*
X62475Y-23334D01*
X62475Y-23391D01*
X62494Y-23466D01*
X62513Y-23503D01*
X62550Y-23541D01*
X62606Y-23559D01*
X62644Y-23559D01*
X62700Y-23541D01*
X62719Y-23522D01*
X62719Y-23391D01*
X62644Y-23391D01*
X62888Y-23559D02*
X62888Y-23165D01*
X63113Y-23559D01*
X63113Y-23165D01*
X63301Y-23559D02*
X63301Y-23165D01*
X63395Y-23165D01*
X63451Y-23184D01*
X63488Y-23222D01*
X63507Y-23259D01*
X63526Y-23334D01*
X63526Y-23391D01*
X63507Y-23466D01*
X63488Y-23503D01*
X63451Y-23541D01*
X63395Y-23559D01*
X63301Y-23559D01*
G54D12*
X56443Y-21324D02*
X56443Y-20524D01*
X56843Y-20524D02*
X56957Y-20524D01*
X57015Y-20562D01*
X57072Y-20638D01*
X57100Y-20790D01*
X57100Y-21057D01*
X57072Y-21210D01*
X57015Y-21286D01*
X56957Y-21324D01*
X56843Y-21324D01*
X56786Y-21286D01*
X56729Y-21210D01*
X56700Y-21057D01*
X56700Y-20790D01*
X56729Y-20638D01*
X56786Y-20562D01*
X56843Y-20524D01*
X58158Y-21324D02*
X57958Y-20943D01*
X57815Y-21324D02*
X57815Y-20524D01*
X58043Y-20524D01*
X58101Y-20562D01*
X58129Y-20600D01*
X58158Y-20676D01*
X58158Y-20790D01*
X58129Y-20867D01*
X58101Y-20905D01*
X58043Y-20943D01*
X57815Y-20943D01*
X58501Y-21324D02*
X58443Y-21286D01*
X58415Y-21248D01*
X58386Y-21171D01*
X58386Y-20943D01*
X58415Y-20867D01*
X58443Y-20829D01*
X58501Y-20790D01*
X58586Y-20790D01*
X58643Y-20829D01*
X58672Y-20867D01*
X58701Y-20943D01*
X58701Y-21171D01*
X58672Y-21248D01*
X58643Y-21286D01*
X58586Y-21324D01*
X58501Y-21324D01*
X59215Y-21324D02*
X59215Y-20524D01*
X59215Y-21286D02*
X59158Y-21324D01*
X59044Y-21324D01*
X58986Y-21286D01*
X58958Y-21248D01*
X58929Y-21171D01*
X58929Y-20943D01*
X58958Y-20867D01*
X58986Y-20829D01*
X59044Y-20790D01*
X59158Y-20790D01*
X59215Y-20829D01*
X59729Y-21286D02*
X59672Y-21324D01*
X59558Y-21324D01*
X59501Y-21286D01*
X59472Y-21210D01*
X59472Y-20905D01*
X59501Y-20829D01*
X59558Y-20790D01*
X59672Y-20790D01*
X59729Y-20829D01*
X59758Y-20905D01*
X59758Y-20981D01*
X59472Y-21057D01*
X60101Y-21324D02*
X60043Y-21286D01*
X60015Y-21248D01*
X59986Y-21171D01*
X59986Y-20943D01*
X60015Y-20867D01*
X60043Y-20829D01*
X60101Y-20790D01*
X60186Y-20790D01*
X60243Y-20829D01*
X60272Y-20867D01*
X60301Y-20943D01*
X60301Y-21171D01*
X60272Y-21248D01*
X60243Y-21286D01*
X60186Y-21324D01*
X60101Y-21324D01*
X61015Y-21324D02*
X61015Y-20524D01*
X61301Y-20790D02*
X61301Y-21324D01*
X61301Y-20867D02*
X61329Y-20829D01*
X61387Y-20790D01*
X61472Y-20790D01*
X61529Y-20829D01*
X61558Y-20905D01*
X61558Y-21324D01*
X62101Y-21286D02*
X62044Y-21324D01*
X61930Y-21324D01*
X61872Y-21286D01*
X61844Y-21248D01*
X61815Y-21171D01*
X61815Y-20943D01*
X61844Y-20867D01*
X61872Y-20829D01*
X61930Y-20790D01*
X62044Y-20790D01*
X62101Y-20829D01*
X62358Y-21248D02*
X62386Y-21286D01*
X62358Y-21324D01*
X62329Y-21286D01*
X62358Y-21248D01*
X62358Y-21324D01*
X52445Y-29348D02*
X52416Y-29386D01*
X52330Y-29424D01*
X52273Y-29424D01*
X52188Y-29386D01*
X52130Y-29310D01*
X52102Y-29233D01*
X52073Y-29081D01*
X52073Y-28967D01*
X52102Y-28814D01*
X52130Y-28738D01*
X52188Y-28662D01*
X52273Y-28624D01*
X52330Y-28624D01*
X52416Y-28662D01*
X52445Y-28700D01*
X52788Y-29424D02*
X52730Y-29386D01*
X52702Y-29348D01*
X52673Y-29271D01*
X52673Y-29043D01*
X52702Y-28967D01*
X52730Y-28929D01*
X52788Y-28890D01*
X52873Y-28890D01*
X52930Y-28929D01*
X52959Y-28967D01*
X52988Y-29043D01*
X52988Y-29271D01*
X52959Y-29348D01*
X52930Y-29386D01*
X52873Y-29424D01*
X52788Y-29424D01*
X53331Y-29424D02*
X53273Y-29386D01*
X53245Y-29310D01*
X53245Y-28624D01*
X53645Y-29424D02*
X53587Y-29386D01*
X53559Y-29348D01*
X53530Y-29271D01*
X53530Y-29043D01*
X53559Y-28967D01*
X53587Y-28929D01*
X53645Y-28890D01*
X53730Y-28890D01*
X53787Y-28929D01*
X53816Y-28967D01*
X53845Y-29043D01*
X53845Y-29271D01*
X53816Y-29348D01*
X53787Y-29386D01*
X53730Y-29424D01*
X53645Y-29424D01*
X54102Y-29424D02*
X54102Y-28890D01*
X54102Y-29043D02*
X54130Y-28967D01*
X54159Y-28929D01*
X54216Y-28890D01*
X54273Y-28890D01*
X54473Y-29424D02*
X54473Y-28890D01*
X54473Y-28624D02*
X54444Y-28662D01*
X54473Y-28700D01*
X54501Y-28662D01*
X54473Y-28624D01*
X54473Y-28700D01*
X54759Y-29424D02*
X54759Y-28890D01*
X54759Y-28967D02*
X54787Y-28929D01*
X54845Y-28890D01*
X54930Y-28890D01*
X54987Y-28929D01*
X55016Y-29005D01*
X55016Y-29424D01*
X55016Y-29005D02*
X55045Y-28929D01*
X55102Y-28890D01*
X55187Y-28890D01*
X55245Y-28929D01*
X55273Y-29005D01*
X55273Y-29424D01*
X55787Y-29386D02*
X55730Y-29424D01*
X55616Y-29424D01*
X55559Y-29386D01*
X55530Y-29310D01*
X55530Y-29005D01*
X55559Y-28929D01*
X55616Y-28890D01*
X55730Y-28890D01*
X55787Y-28929D01*
X55816Y-29005D01*
X55816Y-29081D01*
X55530Y-29157D01*
X55987Y-28890D02*
X56216Y-28890D01*
X56073Y-28624D02*
X56073Y-29310D01*
X56101Y-29386D01*
X56159Y-29424D01*
X56216Y-29424D01*
X56644Y-29386D02*
X56587Y-29424D01*
X56473Y-29424D01*
X56416Y-29386D01*
X56387Y-29310D01*
X56387Y-29005D01*
X56416Y-28929D01*
X56473Y-28890D01*
X56587Y-28890D01*
X56644Y-28929D01*
X56673Y-29005D01*
X56673Y-29081D01*
X56387Y-29157D01*
X56930Y-29424D02*
X56930Y-28890D01*
X56930Y-29043D02*
X56958Y-28967D01*
X56987Y-28929D01*
X57044Y-28890D01*
X57101Y-28890D01*
X57729Y-29386D02*
X57815Y-29424D01*
X57958Y-29424D01*
X58015Y-29386D01*
X58044Y-29348D01*
X58072Y-29271D01*
X58072Y-29195D01*
X58044Y-29119D01*
X58015Y-29081D01*
X57958Y-29043D01*
X57844Y-29005D01*
X57786Y-28967D01*
X57758Y-28929D01*
X57729Y-28852D01*
X57729Y-28776D01*
X57758Y-28700D01*
X57786Y-28662D01*
X57844Y-28624D01*
X57986Y-28624D01*
X58072Y-28662D01*
X58557Y-29386D02*
X58500Y-29424D01*
X58386Y-29424D01*
X58329Y-29386D01*
X58300Y-29310D01*
X58300Y-29005D01*
X58329Y-28929D01*
X58386Y-28890D01*
X58500Y-28890D01*
X58557Y-28929D01*
X58586Y-29005D01*
X58586Y-29081D01*
X58300Y-29157D01*
X58843Y-28890D02*
X58843Y-29424D01*
X58843Y-28967D02*
X58871Y-28929D01*
X58929Y-28890D01*
X59014Y-28890D01*
X59071Y-28929D01*
X59100Y-29005D01*
X59100Y-29424D01*
X59357Y-29386D02*
X59414Y-29424D01*
X59529Y-29424D01*
X59586Y-29386D01*
X59614Y-29310D01*
X59614Y-29271D01*
X59586Y-29195D01*
X59529Y-29157D01*
X59443Y-29157D01*
X59386Y-29119D01*
X59357Y-29043D01*
X59357Y-29005D01*
X59386Y-28929D01*
X59443Y-28890D01*
X59529Y-28890D01*
X59586Y-28929D01*
X59958Y-29424D02*
X59900Y-29386D01*
X59872Y-29348D01*
X59843Y-29271D01*
X59843Y-29043D01*
X59872Y-28967D01*
X59900Y-28929D01*
X59958Y-28890D01*
X60043Y-28890D01*
X60100Y-28929D01*
X60129Y-28967D01*
X60158Y-29043D01*
X60158Y-29271D01*
X60129Y-29348D01*
X60100Y-29386D01*
X60043Y-29424D01*
X59958Y-29424D01*
X60415Y-29424D02*
X60415Y-28890D01*
X60415Y-29043D02*
X60443Y-28967D01*
X60472Y-28929D01*
X60529Y-28890D01*
X60586Y-28890D01*
X61443Y-29005D02*
X61529Y-29043D01*
X61557Y-29081D01*
X61586Y-29157D01*
X61586Y-29271D01*
X61557Y-29348D01*
X61529Y-29386D01*
X61471Y-29424D01*
X61243Y-29424D01*
X61243Y-28624D01*
X61443Y-28624D01*
X61500Y-28662D01*
X61529Y-28700D01*
X61557Y-28776D01*
X61557Y-28852D01*
X61529Y-28929D01*
X61500Y-28967D01*
X61443Y-29005D01*
X61243Y-29005D01*
X61929Y-29424D02*
X61871Y-29386D01*
X61843Y-29348D01*
X61814Y-29271D01*
X61814Y-29043D01*
X61843Y-28967D01*
X61871Y-28929D01*
X61929Y-28890D01*
X62014Y-28890D01*
X62071Y-28929D01*
X62100Y-28967D01*
X62129Y-29043D01*
X62129Y-29271D01*
X62100Y-29348D01*
X62071Y-29386D01*
X62014Y-29424D01*
X61929Y-29424D01*
X62643Y-29424D02*
X62643Y-29005D01*
X62614Y-28929D01*
X62557Y-28890D01*
X62443Y-28890D01*
X62386Y-28929D01*
X62643Y-29386D02*
X62586Y-29424D01*
X62443Y-29424D01*
X62386Y-29386D01*
X62357Y-29310D01*
X62357Y-29233D01*
X62386Y-29157D01*
X62443Y-29119D01*
X62586Y-29119D01*
X62643Y-29081D01*
X62929Y-29424D02*
X62929Y-28890D01*
X62929Y-29043D02*
X62957Y-28967D01*
X62986Y-28929D01*
X63043Y-28890D01*
X63100Y-28890D01*
X63557Y-29424D02*
X63557Y-28624D01*
X63557Y-29386D02*
X63500Y-29424D01*
X63386Y-29424D01*
X63328Y-29386D01*
X63300Y-29348D01*
X63271Y-29271D01*
X63271Y-29043D01*
X63300Y-28967D01*
X63328Y-28929D01*
X63386Y-28890D01*
X63500Y-28890D01*
X63557Y-28929D01*
X64243Y-28890D02*
X64386Y-29424D01*
X64528Y-28890D01*
X64728Y-28700D02*
X64757Y-28662D01*
X64814Y-28624D01*
X64957Y-28624D01*
X65014Y-28662D01*
X65043Y-28700D01*
X65071Y-28776D01*
X65071Y-28852D01*
X65043Y-28967D01*
X64700Y-29424D01*
X65071Y-29424D01*
X65328Y-29348D02*
X65356Y-29386D01*
X65328Y-29424D01*
X65299Y-29386D01*
X65328Y-29348D01*
X65328Y-29424D01*
X65728Y-28624D02*
X65785Y-28624D01*
X65842Y-28662D01*
X65871Y-28700D01*
X65900Y-28776D01*
X65928Y-28929D01*
X65928Y-29119D01*
X65900Y-29271D01*
X65871Y-29348D01*
X65842Y-29386D01*
X65785Y-29424D01*
X65728Y-29424D01*
X65671Y-29386D01*
X65642Y-29348D01*
X65614Y-29271D01*
X65585Y-29119D01*
X65585Y-28929D01*
X65614Y-28776D01*
X65642Y-28700D01*
X65671Y-28662D01*
X65728Y-28624D01*
G54D13*
X60181Y-25787D02*
X58016Y-25787D01*
X58016Y-25787D02*
X57819Y-25591D01*
X57819Y-25591D02*
X57819Y-24213D01*
X57819Y-24213D02*
X60181Y-24213D01*
X60181Y-24213D02*
X60181Y-25787D01*
G54D14*
X53547Y-21550D02*
X54447Y-21550D01*
X54447Y-21550D02*
X54447Y-22050D01*
X54447Y-22050D02*
X53547Y-22050D01*
X53547Y-22050D02*
X53547Y-21550D01*
G54D13*
X63731Y-26769D02*
X63731Y-22831D01*
X63731Y-22831D02*
X67669Y-22831D01*
X67669Y-22831D02*
X67669Y-26769D01*
X67669Y-26769D02*
X63731Y-26769D01*
G54D15*
X58441Y-22635D02*
X58441Y-23121D01*
X58469Y-23178D01*
X58498Y-23206D01*
X58555Y-23235D01*
X58669Y-23235D01*
X58727Y-23206D01*
X58755Y-23178D01*
X58784Y-23121D01*
X58784Y-22635D01*
X59384Y-23235D02*
X59041Y-23235D01*
X59213Y-23235D02*
X59213Y-22635D01*
X59156Y-22721D01*
X59098Y-22778D01*
X59041Y-22806D01*
G54D16*
X53071Y-21887D02*
X53062Y-21900D01*
X53036Y-21913D01*
X53019Y-21913D01*
X52994Y-21900D01*
X52976Y-21873D01*
X52968Y-21847D01*
X52959Y-21793D01*
X52959Y-21753D01*
X52968Y-21700D01*
X52976Y-21673D01*
X52994Y-21647D01*
X53019Y-21633D01*
X53036Y-21633D01*
X53062Y-21647D01*
X53071Y-21660D01*
X53242Y-21913D02*
X53139Y-21913D01*
X53191Y-21913D02*
X53191Y-21633D01*
X53174Y-21673D01*
X53156Y-21700D01*
X53139Y-21713D01*
X54836Y-21633D02*
X54853Y-21633D01*
X54870Y-21647D01*
X54879Y-21660D01*
X54888Y-21687D01*
X54896Y-21740D01*
X54896Y-21807D01*
X54888Y-21860D01*
X54879Y-21887D01*
X54870Y-21900D01*
X54853Y-21913D01*
X54836Y-21913D01*
X54819Y-21900D01*
X54810Y-21887D01*
X54802Y-21860D01*
X54793Y-21807D01*
X54793Y-21740D01*
X54802Y-21687D01*
X54810Y-21660D01*
X54819Y-21647D01*
X54836Y-21633D01*
X54973Y-21887D02*
X54981Y-21900D01*
X54973Y-21913D01*
X54964Y-21900D01*
X54973Y-21887D01*
X54973Y-21913D01*
X55153Y-21913D02*
X55050Y-21913D01*
X55102Y-21913D02*
X55102Y-21633D01*
X55085Y-21673D01*
X55067Y-21700D01*
X55050Y-21713D01*
X55187Y-21940D02*
X55324Y-21940D01*
X55444Y-21727D02*
X55444Y-21913D01*
X55367Y-21727D02*
X55367Y-21873D01*
X55375Y-21900D01*
X55393Y-21913D01*
X55418Y-21913D01*
X55435Y-21900D01*
X55444Y-21887D01*
X55590Y-21767D02*
X55530Y-21767D01*
X55530Y-21913D02*
X55530Y-21633D01*
X55616Y-21633D01*
G54D12*
X65258Y-22543D02*
X65258Y-21943D01*
X65486Y-21943D01*
X65544Y-21971D01*
X65572Y-22000D01*
X65601Y-22057D01*
X65601Y-22143D01*
X65572Y-22200D01*
X65544Y-22229D01*
X65486Y-22257D01*
X65258Y-22257D01*
X65829Y-22000D02*
X65858Y-21971D01*
X65915Y-21943D01*
X66058Y-21943D01*
X66115Y-21971D01*
X66144Y-22000D01*
X66172Y-22057D01*
X66172Y-22114D01*
X66144Y-22200D01*
X65801Y-22543D01*
X66172Y-22543D01*
M02*
